<svg width="298" height="347" viewBox="0 0 298 347" fill="none" xmlns="http://www.w3.org/2000/svg">
<path d="M89.1947 226V208.867H92.8275V226H89.1947ZM112.315 217.27C112.315 220.09 111.51 222.25 109.901 223.75C108.299 225.25 105.983 226 102.952 226H98.1V208.867H103.479C106.276 208.867 108.448 209.605 109.995 211.082C111.541 212.559 112.315 214.621 112.315 217.27ZM108.541 217.363C108.541 213.684 106.916 211.844 103.666 211.844H101.733V223H103.291C106.791 223 108.541 221.121 108.541 217.363ZM126.693 226H116.826V208.867H126.693V211.844H120.458V215.605H126.259V218.582H120.458V223H126.693V226ZM141.727 226L140.485 221.922H134.239L132.997 226H129.083L135.129 208.797H139.571L145.641 226H141.727ZM139.618 218.875C138.469 215.18 137.821 213.09 137.672 212.605C137.532 212.121 137.43 211.738 137.368 211.457C137.11 212.457 136.372 214.93 135.153 218.875H139.618ZM155.378 226H151.746V211.891H147.093V208.867H160.031V211.891H155.378V226ZM163.628 226V208.867H167.26V226H163.628ZM188.084 217.41C188.084 220.246 187.38 222.426 185.974 223.949C184.568 225.473 182.552 226.234 179.927 226.234C177.302 226.234 175.287 225.473 173.88 223.949C172.474 222.426 171.771 220.238 171.771 217.387C171.771 214.535 172.474 212.359 173.88 210.859C175.295 209.352 177.318 208.598 179.951 208.598C182.584 208.598 184.595 209.355 185.986 210.871C187.384 212.387 188.084 214.566 188.084 217.41ZM175.58 217.41C175.58 219.324 175.943 220.766 176.67 221.734C177.396 222.703 178.482 223.188 179.927 223.188C182.826 223.188 184.275 221.262 184.275 217.41C184.275 213.551 182.834 211.621 179.951 211.621C178.505 211.621 177.416 212.109 176.681 213.086C175.947 214.055 175.58 215.496 175.58 217.41ZM207.794 226H203.176L195.723 213.039H195.618C195.766 215.328 195.84 216.961 195.84 217.938V226H192.594V208.867H197.176L204.618 221.699H204.7C204.583 219.473 204.524 217.898 204.524 216.977V208.867H207.794V226Z" fill="#3D5A80"/>
<path d="M26.877 262H25.3829V250.478H21.3136V249.15H30.9464V250.478H26.877V262ZM41.7035 257.175C41.7035 258.745 41.308 259.973 40.517 260.857C39.7259 261.736 38.6332 262.176 37.2386 262.176C36.3773 262.176 35.6127 261.974 34.9447 261.569C34.2767 261.165 33.7611 260.585 33.3978 259.829C33.0345 259.073 32.8529 258.188 32.8529 257.175C32.8529 255.604 33.2455 254.383 34.0306 253.51C34.8158 252.631 35.9056 252.191 37.3002 252.191C38.6478 252.191 39.7171 252.64 40.5082 253.536C41.305 254.433 41.7035 255.646 41.7035 257.175ZM34.3646 257.175C34.3646 258.405 34.6107 259.343 35.1029 259.987C35.5951 260.632 36.3187 260.954 37.2738 260.954C38.2289 260.954 38.9525 260.635 39.4447 259.996C39.9427 259.352 40.1918 258.411 40.1918 257.175C40.1918 255.95 39.9427 255.021 39.4447 254.389C38.9525 253.75 38.223 253.431 37.2562 253.431C36.3011 253.431 35.5804 253.744 35.0941 254.371C34.6078 254.998 34.3646 255.933 34.3646 257.175ZM58.2695 252.367V253.29L56.4853 253.501C56.6493 253.706 56.7958 253.976 56.9247 254.31C57.0536 254.638 57.1181 255.01 57.1181 255.426C57.1181 256.369 56.7958 257.122 56.1513 257.685C55.5068 258.247 54.622 258.528 53.497 258.528C53.2099 258.528 52.9403 258.505 52.6884 258.458C52.0673 258.786 51.7568 259.199 51.7568 259.697C51.7568 259.961 51.8652 260.157 52.082 260.286C52.2987 260.409 52.6708 260.471 53.1982 260.471H54.9032C55.9462 260.471 56.746 260.69 57.3027 261.13C57.8652 261.569 58.1464 262.208 58.1464 263.046C58.1464 264.112 57.7187 264.924 56.8632 265.48C56.0077 266.043 54.7597 266.324 53.1191 266.324C51.8593 266.324 50.8866 266.09 50.2011 265.621C49.5214 265.152 49.1816 264.49 49.1816 263.635C49.1816 263.049 49.3691 262.542 49.7441 262.114C50.1191 261.687 50.6464 261.396 51.3261 261.244C51.08 261.133 50.872 260.96 50.7021 260.726C50.538 260.491 50.456 260.219 50.456 259.908C50.456 259.557 50.5497 259.249 50.7372 258.985C50.9247 258.722 51.2206 258.467 51.6249 258.221C51.1269 258.016 50.7196 257.667 50.4032 257.175C50.0927 256.683 49.9374 256.12 49.9374 255.487C49.9374 254.433 50.2538 253.621 50.8866 253.053C51.5195 252.479 52.4159 252.191 53.5761 252.191C54.08 252.191 54.5341 252.25 54.9384 252.367H58.2695ZM50.5878 263.617C50.5878 264.139 50.8075 264.534 51.247 264.804C51.6864 265.073 52.3163 265.208 53.1366 265.208C54.3612 265.208 55.2665 265.023 55.8525 264.654C56.4443 264.291 56.7402 263.796 56.7402 263.169C56.7402 262.647 56.579 262.284 56.2568 262.079C55.9345 261.88 55.328 261.78 54.4374 261.78H52.6884C52.0263 261.78 51.5107 261.938 51.1415 262.255C50.7724 262.571 50.5878 263.025 50.5878 263.617ZM51.3788 255.452C51.3788 256.126 51.5693 256.636 51.9501 256.981C52.331 257.327 52.8612 257.5 53.5409 257.5C54.9648 257.5 55.6767 256.809 55.6767 255.426C55.6767 253.979 54.956 253.255 53.5146 253.255C52.829 253.255 52.3017 253.439 51.9325 253.809C51.5634 254.178 51.3788 254.726 51.3788 255.452ZM66.8908 262L66.6008 260.629H66.5305C66.05 261.232 65.5695 261.643 65.0891 261.859C64.6145 262.07 64.0197 262.176 63.3049 262.176C62.3498 262.176 61.5998 261.93 61.0549 261.438C60.5158 260.945 60.2463 260.245 60.2463 259.337C60.2463 257.392 61.802 256.372 64.9133 256.278L66.548 256.226V255.628C66.548 254.872 66.384 254.315 66.0559 253.958C65.7336 253.595 65.215 253.413 64.5002 253.413C63.6975 253.413 62.7893 253.659 61.7756 254.151L61.3273 253.035C61.802 252.777 62.3205 252.575 62.883 252.429C63.4514 252.282 64.0197 252.209 64.5881 252.209C65.7365 252.209 66.5861 252.464 67.1369 252.974C67.6936 253.483 67.9719 254.301 67.9719 255.426V262H66.8908ZM63.5949 260.972C64.5031 260.972 65.215 260.723 65.7307 260.225C66.2521 259.727 66.5129 259.029 66.5129 258.133V257.263L65.0539 257.324C63.8937 257.365 63.0559 257.547 62.5402 257.869C62.0305 258.186 61.7756 258.681 61.7756 259.354C61.7756 259.882 61.9338 260.283 62.2502 260.559C62.5725 260.834 63.0207 260.972 63.5949 260.972ZM74.8178 260.972C75.0757 260.972 75.3247 260.954 75.5649 260.919C75.8052 260.878 75.9956 260.837 76.1362 260.796V261.912C75.978 261.988 75.7436 262.05 75.4331 262.097C75.1284 262.149 74.853 262.176 74.6069 262.176C72.7436 262.176 71.812 261.194 71.812 259.231V253.501H70.4321V252.798L71.812 252.191L72.4272 250.135H73.271V252.367H76.0659V253.501H73.271V259.17C73.271 259.75 73.4087 260.195 73.6841 260.506C73.9594 260.816 74.3374 260.972 74.8178 260.972ZM85.3816 262V255.769C85.3816 254.983 85.2029 254.397 84.8455 254.011C84.488 253.624 83.9285 253.431 83.1668 253.431C82.1531 253.431 81.4119 253.706 80.9431 254.257C80.4802 254.808 80.2488 255.71 80.2488 256.964V262H78.7898V248.324H80.2488V252.464C80.2488 252.962 80.2253 253.375 80.1785 253.703H80.2664C80.5535 253.24 80.9607 252.877 81.488 252.613C82.0212 252.344 82.6277 252.209 83.3074 252.209C84.4851 252.209 85.367 252.49 85.9529 253.053C86.5447 253.609 86.8406 254.497 86.8406 255.716V262H85.3816ZM94.6358 262.176C93.212 262.176 92.087 261.742 91.2608 260.875C90.4405 260.008 90.0303 258.804 90.0303 257.263C90.0303 255.71 90.4112 254.477 91.1729 253.562C91.9405 252.648 92.9688 252.191 94.2579 252.191C95.4649 252.191 96.42 252.59 97.1231 253.387C97.8262 254.178 98.1778 255.224 98.1778 256.524V257.447H91.542C91.5713 258.578 91.8555 259.437 92.3946 260.022C92.9395 260.608 93.7041 260.901 94.6885 260.901C95.7256 260.901 96.751 260.685 97.7647 260.251V261.552C97.2491 261.774 96.7598 261.933 96.2969 262.026C95.8399 262.126 95.2862 262.176 94.6358 262.176ZM94.2403 253.413C93.4668 253.413 92.8487 253.665 92.3858 254.169C91.9287 254.673 91.6592 255.37 91.5772 256.261H96.6133C96.6133 255.341 96.4082 254.638 95.9981 254.151C95.5879 253.659 95.002 253.413 94.2403 253.413ZM105.788 252.191C106.216 252.191 106.6 252.227 106.94 252.297L106.738 253.65C106.339 253.562 105.988 253.519 105.683 253.519C104.904 253.519 104.236 253.835 103.679 254.468C103.128 255.101 102.853 255.889 102.853 256.832V262H101.394V252.367H102.598L102.765 254.151H102.835C103.193 253.524 103.623 253.041 104.127 252.701C104.631 252.361 105.185 252.191 105.788 252.191ZM119.34 262.176C118.713 262.176 118.139 262.062 117.617 261.833C117.101 261.599 116.668 261.241 116.316 260.761H116.211C116.281 261.323 116.316 261.856 116.316 262.36V266.324H114.857V252.367H116.044L116.246 253.686H116.316C116.691 253.158 117.128 252.777 117.626 252.543C118.124 252.309 118.695 252.191 119.34 252.191C120.617 252.191 121.601 252.628 122.293 253.501C122.99 254.374 123.339 255.599 123.339 257.175C123.339 258.757 122.984 259.987 122.275 260.866C121.572 261.739 120.594 262.176 119.34 262.176ZM119.129 253.431C118.144 253.431 117.432 253.703 116.993 254.248C116.554 254.793 116.328 255.66 116.316 256.85V257.175C116.316 258.528 116.542 259.498 116.993 260.084C117.444 260.664 118.168 260.954 119.164 260.954C119.996 260.954 120.646 260.617 121.115 259.943C121.59 259.27 121.827 258.341 121.827 257.157C121.827 255.956 121.59 255.036 121.115 254.397C120.646 253.753 119.984 253.431 119.129 253.431ZM134.931 257.175C134.931 258.745 134.535 259.973 133.744 260.857C132.953 261.736 131.861 262.176 130.466 262.176C129.605 262.176 128.84 261.974 128.172 261.569C127.504 261.165 126.988 260.585 126.625 259.829C126.262 259.073 126.08 258.188 126.08 257.175C126.08 255.604 126.473 254.383 127.258 253.51C128.043 252.631 129.133 252.191 130.527 252.191C131.875 252.191 132.944 252.64 133.736 253.536C134.532 254.433 134.931 255.646 134.931 257.175ZM127.592 257.175C127.592 258.405 127.838 259.343 128.33 259.987C128.822 260.632 129.546 260.954 130.501 260.954C131.456 260.954 132.18 260.635 132.672 259.996C133.17 259.352 133.419 258.411 133.419 257.175C133.419 255.95 133.17 255.021 132.672 254.389C132.18 253.75 131.45 253.431 130.484 253.431C129.528 253.431 128.808 253.744 128.321 254.371C127.835 254.998 127.592 255.933 127.592 257.175ZM144.431 259.372C144.431 260.269 144.097 260.96 143.429 261.446C142.761 261.933 141.824 262.176 140.617 262.176C139.339 262.176 138.343 261.974 137.628 261.569V260.216C138.091 260.45 138.586 260.635 139.114 260.77C139.647 260.904 140.16 260.972 140.652 260.972C141.414 260.972 141.999 260.852 142.41 260.611C142.82 260.365 143.025 259.993 143.025 259.495C143.025 259.12 142.861 258.801 142.533 258.537C142.21 258.268 141.578 257.951 140.634 257.588C139.738 257.254 139.099 256.964 138.718 256.718C138.343 256.466 138.062 256.182 137.874 255.865C137.693 255.549 137.602 255.171 137.602 254.731C137.602 253.946 137.921 253.328 138.56 252.877C139.199 252.42 140.075 252.191 141.188 252.191C142.225 252.191 143.239 252.402 144.229 252.824L143.71 254.011C142.744 253.612 141.868 253.413 141.082 253.413C140.391 253.413 139.87 253.521 139.518 253.738C139.166 253.955 138.991 254.254 138.991 254.635C138.991 254.893 139.055 255.112 139.184 255.294C139.319 255.476 139.533 255.648 139.826 255.812C140.119 255.977 140.681 256.214 141.513 256.524C142.656 256.94 143.426 257.359 143.825 257.781C144.229 258.203 144.431 258.733 144.431 259.372ZM153.747 259.372C153.747 260.269 153.413 260.96 152.745 261.446C152.077 261.933 151.139 262.176 149.932 262.176C148.655 262.176 147.659 261.974 146.944 261.569V260.216C147.407 260.45 147.902 260.635 148.429 260.77C148.963 260.904 149.475 260.972 149.967 260.972C150.729 260.972 151.315 260.852 151.725 260.611C152.135 260.365 152.341 259.993 152.341 259.495C152.341 259.12 152.176 258.801 151.848 258.537C151.526 258.268 150.893 257.951 149.95 257.588C149.053 257.254 148.415 256.964 148.034 256.718C147.659 256.466 147.378 256.182 147.19 255.865C147.009 255.549 146.918 255.171 146.918 254.731C146.918 253.946 147.237 253.328 147.876 252.877C148.514 252.42 149.39 252.191 150.504 252.191C151.541 252.191 152.554 252.402 153.545 252.824L153.026 254.011C152.059 253.612 151.183 253.413 150.398 253.413C149.707 253.413 149.185 253.521 148.834 253.738C148.482 253.955 148.306 254.254 148.306 254.635C148.306 254.893 148.371 255.112 148.5 255.294C148.634 255.476 148.848 255.648 149.141 255.812C149.434 255.977 149.997 256.214 150.829 256.524C151.971 256.94 152.742 257.359 153.14 257.781C153.545 258.203 153.747 258.733 153.747 259.372ZM158.308 262H156.849V252.367H158.308V262ZM156.726 249.757C156.726 249.423 156.808 249.18 156.972 249.027C157.136 248.869 157.341 248.79 157.587 248.79C157.821 248.79 158.023 248.869 158.193 249.027C158.363 249.186 158.448 249.429 158.448 249.757C158.448 250.085 158.363 250.331 158.193 250.495C158.023 250.653 157.821 250.732 157.587 250.732C157.341 250.732 157.136 250.653 156.972 250.495C156.808 250.331 156.726 250.085 156.726 249.757ZM166.604 252.209C167.869 252.209 168.851 252.643 169.548 253.51C170.251 254.371 170.603 255.593 170.603 257.175C170.603 258.757 170.248 259.987 169.539 260.866C168.836 261.739 167.858 262.176 166.604 262.176C165.977 262.176 165.403 262.062 164.881 261.833C164.366 261.599 163.932 261.241 163.58 260.761H163.475L163.167 262H162.121V248.324H163.58V251.646C163.58 252.391 163.557 253.059 163.51 253.65H163.58C164.26 252.689 165.268 252.209 166.604 252.209ZM166.393 253.431C165.397 253.431 164.679 253.718 164.24 254.292C163.8 254.86 163.58 255.821 163.58 257.175C163.58 258.528 163.806 259.498 164.257 260.084C164.708 260.664 165.432 260.954 166.428 260.954C167.324 260.954 167.992 260.629 168.432 259.979C168.871 259.322 169.091 258.382 169.091 257.157C169.091 255.903 168.871 254.969 168.432 254.354C167.992 253.738 167.313 253.431 166.393 253.431ZM175.339 262H173.88V248.324H175.339V262ZM183.223 262.176C181.799 262.176 180.674 261.742 179.848 260.875C179.027 260.008 178.617 258.804 178.617 257.263C178.617 255.71 178.998 254.477 179.76 253.562C180.527 252.648 181.556 252.191 182.845 252.191C184.052 252.191 185.007 252.59 185.71 253.387C186.413 254.178 186.764 255.224 186.764 256.524V257.447H180.129C180.158 258.578 180.442 259.437 180.981 260.022C181.526 260.608 182.291 260.901 183.275 260.901C184.312 260.901 185.338 260.685 186.351 260.251V261.552C185.836 261.774 185.347 261.933 184.884 262.026C184.427 262.126 183.873 262.176 183.223 262.176ZM182.827 253.413C182.054 253.413 181.435 253.665 180.973 254.169C180.515 254.673 180.246 255.37 180.164 256.261H185.2C185.2 255.341 184.995 254.638 184.585 254.151C184.175 253.659 183.589 253.413 182.827 253.413ZM201.59 259.372C201.59 260.269 201.256 260.96 200.588 261.446C199.92 261.933 198.983 262.176 197.776 262.176C196.498 262.176 195.502 261.974 194.788 261.569V260.216C195.25 260.45 195.746 260.635 196.273 260.77C196.806 260.904 197.319 260.972 197.811 260.972C198.573 260.972 199.159 260.852 199.569 260.611C199.979 260.365 200.184 259.993 200.184 259.495C200.184 259.12 200.02 258.801 199.692 258.537C199.37 258.268 198.737 257.951 197.793 257.588C196.897 257.254 196.258 256.964 195.877 256.718C195.502 256.466 195.221 256.182 195.034 255.865C194.852 255.549 194.761 255.171 194.761 254.731C194.761 253.946 195.08 253.328 195.719 252.877C196.358 252.42 197.234 252.191 198.347 252.191C199.384 252.191 200.398 252.402 201.388 252.824L200.87 254.011C199.903 253.612 199.027 253.413 198.242 253.413C197.55 253.413 197.029 253.521 196.677 253.738C196.326 253.955 196.15 254.254 196.15 254.635C196.15 254.893 196.214 255.112 196.343 255.294C196.478 255.476 196.692 255.648 196.985 255.812C197.278 255.977 197.84 256.214 198.672 256.524C199.815 256.94 200.585 257.359 200.984 257.781C201.388 258.203 201.59 258.733 201.59 259.372ZM213.007 257.175C213.007 258.745 212.611 259.973 211.82 260.857C211.029 261.736 209.936 262.176 208.542 262.176C207.68 262.176 206.916 261.974 206.248 261.569C205.58 261.165 205.064 260.585 204.701 259.829C204.338 259.073 204.156 258.188 204.156 257.175C204.156 255.604 204.549 254.383 205.334 253.51C206.119 252.631 207.209 252.191 208.603 252.191C209.951 252.191 211.02 252.64 211.811 253.536C212.608 254.433 213.007 255.646 213.007 257.175ZM205.668 257.175C205.668 258.405 205.914 259.343 206.406 259.987C206.898 260.632 207.622 260.954 208.577 260.954C209.532 260.954 210.256 260.635 210.748 259.996C211.246 259.352 211.495 258.411 211.495 257.175C211.495 255.95 211.246 255.021 210.748 254.389C210.256 253.75 209.526 253.431 208.559 253.431C207.604 253.431 206.883 253.744 206.397 254.371C205.911 254.998 205.668 255.933 205.668 257.175ZM217.752 262H216.293V248.324H217.752V262ZM222.937 252.367V258.616C222.937 259.401 223.115 259.987 223.473 260.374C223.83 260.761 224.39 260.954 225.152 260.954C226.159 260.954 226.895 260.679 227.358 260.128C227.826 259.577 228.061 258.678 228.061 257.43V252.367H229.52V262H228.316L228.105 260.708H228.026C227.727 261.183 227.311 261.546 226.778 261.798C226.25 262.05 225.647 262.176 224.967 262.176C223.795 262.176 222.916 261.897 222.33 261.341C221.75 260.784 221.46 259.894 221.46 258.669V252.367H222.937ZM236.454 260.972C236.711 260.972 236.96 260.954 237.201 260.919C237.441 260.878 237.631 260.837 237.772 260.796V261.912C237.614 261.988 237.379 262.05 237.069 262.097C236.764 262.149 236.489 262.176 236.243 262.176C234.379 262.176 233.448 261.194 233.448 259.231V253.501H232.068V252.798L233.448 252.191L234.063 250.135H234.907V252.367H237.702V253.501H234.907V259.17C234.907 259.75 235.044 260.195 235.32 260.506C235.595 260.816 235.973 260.972 236.454 260.972ZM241.885 262H240.426V252.367H241.885V262ZM240.303 249.757C240.303 249.423 240.385 249.18 240.549 249.027C240.713 248.869 240.918 248.79 241.164 248.79C241.398 248.79 241.6 248.869 241.77 249.027C241.94 249.186 242.025 249.429 242.025 249.757C242.025 250.085 241.94 250.331 241.77 250.495C241.6 250.653 241.398 250.732 241.164 250.732C240.918 250.732 240.713 250.653 240.549 250.495C240.385 250.331 240.303 250.085 240.303 249.757ZM254.013 257.175C254.013 258.745 253.617 259.973 252.826 260.857C252.035 261.736 250.942 262.176 249.548 262.176C248.687 262.176 247.922 261.974 247.254 261.569C246.586 261.165 246.07 260.585 245.707 259.829C245.344 259.073 245.162 258.188 245.162 257.175C245.162 255.604 245.555 254.383 246.34 253.51C247.125 252.631 248.215 252.191 249.609 252.191C250.957 252.191 252.026 252.64 252.817 253.536C253.614 254.433 254.013 255.646 254.013 257.175ZM246.674 257.175C246.674 258.405 246.92 259.343 247.412 259.987C247.904 260.632 248.628 260.954 249.583 260.954C250.538 260.954 251.262 260.635 251.754 259.996C252.252 259.352 252.501 258.411 252.501 257.175C252.501 255.95 252.252 255.021 251.754 254.389C251.262 253.75 250.532 253.431 249.566 253.431C248.61 253.431 247.89 253.744 247.403 254.371C246.917 254.998 246.674 255.933 246.674 257.175ZM263.891 262V255.769C263.891 254.983 263.712 254.397 263.355 254.011C262.997 253.624 262.438 253.431 261.676 253.431C260.668 253.431 259.93 253.703 259.461 254.248C258.993 254.793 258.758 255.692 258.758 256.946V262H257.299V252.367H258.486L258.723 253.686H258.793C259.092 253.211 259.511 252.845 260.05 252.587C260.589 252.323 261.19 252.191 261.852 252.191C263.012 252.191 263.885 252.473 264.471 253.035C265.057 253.592 265.35 254.485 265.35 255.716V262H263.891ZM275.29 259.372C275.29 260.269 274.956 260.96 274.288 261.446C273.62 261.933 272.682 262.176 271.475 262.176C270.198 262.176 269.202 261.974 268.487 261.569V260.216C268.95 260.45 269.445 260.635 269.972 260.77C270.505 260.904 271.018 260.972 271.51 260.972C272.272 260.972 272.858 260.852 273.268 260.611C273.678 260.365 273.883 259.993 273.883 259.495C273.883 259.12 273.719 258.801 273.391 258.537C273.069 258.268 272.436 257.951 271.493 257.588C270.596 257.254 269.958 256.964 269.577 256.718C269.202 256.466 268.921 256.182 268.733 255.865C268.551 255.549 268.461 255.171 268.461 254.731C268.461 253.946 268.78 253.328 269.419 252.877C270.057 252.42 270.933 252.191 272.047 252.191C273.084 252.191 274.097 252.402 275.088 252.824L274.569 254.011C273.602 253.612 272.726 253.413 271.941 253.413C271.25 253.413 270.728 253.521 270.377 253.738C270.025 253.955 269.849 254.254 269.849 254.635C269.849 254.893 269.914 255.112 270.043 255.294C270.177 255.476 270.391 255.648 270.684 255.812C270.977 255.977 271.54 256.214 272.372 256.524C273.514 256.94 274.285 257.359 274.683 257.781C275.088 258.203 275.29 258.733 275.29 259.372ZM37.8799 287L36.1133 281.349C36.002 281.003 35.7939 280.218 35.4893 278.993H35.4189C35.1846 280.019 34.9795 280.81 34.8037 281.366L32.9844 287H31.2969L28.6689 277.367H30.1982C30.8193 279.787 31.291 281.63 31.6133 282.896C31.9414 284.161 32.1289 285.014 32.1758 285.453H32.2461C32.3105 285.119 32.4131 284.688 32.5537 284.161C32.7002 283.628 32.8262 283.206 32.9316 282.896L34.6982 277.367H36.2803L38.0029 282.896C38.3311 283.903 38.5537 284.75 38.6709 285.436H38.7412C38.7646 285.225 38.8262 284.899 38.9258 284.46C39.0312 284.021 39.6436 281.656 40.7627 277.367H42.2744L39.6113 287H37.8799ZM51.3352 287V280.769C51.3352 279.983 51.1565 279.397 50.7991 279.011C50.4417 278.624 49.8821 278.431 49.1204 278.431C48.1067 278.431 47.3655 278.706 46.8968 279.257C46.4339 279.808 46.2024 280.71 46.2024 281.964V287H44.7434V273.324H46.2024V277.464C46.2024 277.962 46.179 278.375 46.1321 278.703H46.22C46.5071 278.24 46.9143 277.877 47.4417 277.613C47.9749 277.344 48.5813 277.209 49.261 277.209C50.4388 277.209 51.3206 277.49 51.9065 278.053C52.4983 278.609 52.7942 279.497 52.7942 280.716V287H51.3352ZM57.9791 287H56.5201V277.367H57.9791V287ZM56.397 274.757C56.397 274.423 56.4791 274.18 56.6431 274.027C56.8072 273.869 57.0123 273.79 57.2584 273.79C57.4927 273.79 57.6949 273.869 57.8648 274.027C58.0347 274.186 58.1197 274.429 58.1197 274.757C58.1197 275.085 58.0347 275.331 57.8648 275.495C57.6949 275.653 57.4927 275.732 57.2584 275.732C57.0123 275.732 56.8072 275.653 56.6431 275.495C56.4791 275.331 56.397 275.085 56.397 274.757ZM63.2518 287H61.7928V273.324H63.2518V287ZM71.1349 287.176C69.7111 287.176 68.5861 286.742 67.7599 285.875C66.9396 285.008 66.5294 283.804 66.5294 282.263C66.5294 280.71 66.9103 279.477 67.672 278.562C68.4396 277.648 69.4679 277.191 70.757 277.191C71.964 277.191 72.9191 277.59 73.6222 278.387C74.3253 279.178 74.6769 280.224 74.6769 281.524V282.447H68.0411C68.0704 283.578 68.3546 284.437 68.8937 285.022C69.4386 285.608 70.2032 285.901 71.1876 285.901C72.2247 285.901 73.2501 285.685 74.2638 285.251V286.552C73.7482 286.774 73.2589 286.933 72.796 287.026C72.339 287.126 71.7853 287.176 71.1349 287.176ZM70.7394 278.413C69.9659 278.413 69.3478 278.665 68.8849 279.169C68.4279 279.673 68.1583 280.37 68.0763 281.261H73.1124C73.1124 280.341 72.9073 279.638 72.4972 279.151C72.087 278.659 71.5011 278.413 70.7394 278.413ZM87.1384 287.176C85.7438 287.176 84.6628 286.748 83.8952 285.893C83.1335 285.031 82.7526 283.815 82.7526 282.245C82.7526 280.634 83.1393 279.389 83.9128 278.51C84.6921 277.631 85.7995 277.191 87.235 277.191C87.6979 277.191 88.1608 277.241 88.6237 277.341C89.0866 277.44 89.4499 277.558 89.7136 277.692L89.2653 278.932C88.943 278.803 88.5915 278.697 88.2106 278.615C87.8298 278.527 87.4929 278.483 87.1999 278.483C85.2429 278.483 84.2643 279.731 84.2643 282.228C84.2643 283.411 84.5016 284.319 84.9762 284.952C85.4567 285.585 86.1657 285.901 87.1032 285.901C87.9059 285.901 88.7292 285.729 89.5729 285.383V286.675C88.9284 287.009 88.1169 287.176 87.1384 287.176ZM100.901 282.175C100.901 283.745 100.506 284.973 99.7148 285.857C98.9238 286.736 97.831 287.176 96.4365 287.176C95.5752 287.176 94.8105 286.974 94.1425 286.569C93.4746 286.165 92.9589 285.585 92.5957 284.829C92.2324 284.073 92.0507 283.188 92.0507 282.175C92.0507 280.604 92.4433 279.383 93.2285 278.51C94.0136 277.631 95.1035 277.191 96.498 277.191C97.8457 277.191 98.915 277.64 99.706 278.536C100.503 279.433 100.901 280.646 100.901 282.175ZM93.5625 282.175C93.5625 283.405 93.8086 284.343 94.3007 284.987C94.7929 285.632 95.5166 285.954 96.4716 285.954C97.4267 285.954 98.1504 285.635 98.6425 284.996C99.1406 284.352 99.3896 283.411 99.3896 282.175C99.3896 280.95 99.1406 280.021 98.6425 279.389C98.1504 278.75 97.4209 278.431 96.4541 278.431C95.499 278.431 94.7783 278.744 94.292 279.371C93.8056 279.998 93.5625 280.933 93.5625 282.175ZM116.466 287V280.733C116.466 279.966 116.302 279.392 115.974 279.011C115.646 278.624 115.136 278.431 114.445 278.431C113.536 278.431 112.865 278.691 112.432 279.213C111.998 279.734 111.781 280.537 111.781 281.621V287H110.323V280.733C110.323 279.966 110.158 279.392 109.83 279.011C109.502 278.624 108.989 278.431 108.292 278.431C107.378 278.431 106.707 278.706 106.28 279.257C105.858 279.802 105.647 280.698 105.647 281.946V287H104.188V277.367H105.374L105.612 278.686H105.682C105.957 278.217 106.344 277.851 106.842 277.587C107.346 277.323 107.908 277.191 108.53 277.191C110.035 277.191 111.02 277.736 111.483 278.826H111.553C111.84 278.322 112.256 277.924 112.801 277.631C113.346 277.338 113.967 277.191 114.664 277.191C115.754 277.191 116.569 277.473 117.108 278.035C117.653 278.592 117.925 279.485 117.925 280.716V287H116.466ZM126.142 277.209C127.408 277.209 128.389 277.643 129.086 278.51C129.79 279.371 130.141 280.593 130.141 282.175C130.141 283.757 129.787 284.987 129.078 285.866C128.375 286.739 127.396 287.176 126.142 287.176C125.515 287.176 124.941 287.062 124.419 286.833C123.904 286.599 123.47 286.241 123.119 285.761H123.013L122.706 287H121.66V273.324H123.119V276.646C123.119 277.391 123.095 278.059 123.048 278.65H123.119C123.798 277.689 124.806 277.209 126.142 277.209ZM125.931 278.431C124.935 278.431 124.217 278.718 123.778 279.292C123.338 279.86 123.119 280.821 123.119 282.175C123.119 283.528 123.344 284.498 123.795 285.084C124.247 285.664 124.97 285.954 125.966 285.954C126.863 285.954 127.531 285.629 127.97 284.979C128.41 284.322 128.629 283.382 128.629 282.157C128.629 280.903 128.41 279.969 127.97 279.354C127.531 278.738 126.851 278.431 125.931 278.431ZM134.878 287H133.419V277.367H134.878V287ZM133.296 274.757C133.296 274.423 133.378 274.18 133.542 274.027C133.706 273.869 133.911 273.79 134.157 273.79C134.391 273.79 134.594 273.869 134.763 274.027C134.933 274.186 135.018 274.429 135.018 274.757C135.018 275.085 134.933 275.331 134.763 275.495C134.594 275.653 134.391 275.732 134.157 275.732C133.911 275.732 133.706 275.653 133.542 275.495C133.378 275.331 133.296 275.085 133.296 274.757ZM145.283 287V280.769C145.283 279.983 145.105 279.397 144.747 279.011C144.39 278.624 143.83 278.431 143.068 278.431C142.061 278.431 141.322 278.703 140.854 279.248C140.385 279.793 140.15 280.692 140.15 281.946V287H138.691V277.367H139.878L140.115 278.686H140.186C140.484 278.211 140.903 277.845 141.442 277.587C141.982 277.323 142.582 277.191 143.244 277.191C144.404 277.191 145.277 277.473 145.863 278.035C146.449 278.592 146.742 279.485 146.742 280.716V287H145.283ZM151.927 287H150.468V277.367H151.927V287ZM150.345 274.757C150.345 274.423 150.427 274.18 150.591 274.027C150.755 273.869 150.96 273.79 151.206 273.79C151.441 273.79 151.643 273.869 151.813 274.027C151.983 274.186 152.068 274.429 152.068 274.757C152.068 275.085 151.983 275.331 151.813 275.495C151.643 275.653 151.441 275.732 151.206 275.732C150.96 275.732 150.755 275.653 150.591 275.495C150.427 275.331 150.345 275.085 150.345 274.757ZM162.333 287V280.769C162.333 279.983 162.154 279.397 161.797 279.011C161.439 278.624 160.88 278.431 160.118 278.431C159.11 278.431 158.372 278.703 157.903 279.248C157.434 279.793 157.2 280.692 157.2 281.946V287H155.741V277.367H156.927L157.165 278.686H157.235C157.534 278.211 157.953 277.845 158.492 277.587C159.031 277.323 159.631 277.191 160.294 277.191C161.454 277.191 162.327 277.473 162.913 278.035C163.499 278.592 163.792 279.485 163.792 280.716V287H162.333ZM175.401 277.367V278.29L173.617 278.501C173.781 278.706 173.928 278.976 174.057 279.31C174.185 279.638 174.25 280.01 174.25 280.426C174.25 281.369 173.928 282.122 173.283 282.685C172.639 283.247 171.754 283.528 170.629 283.528C170.342 283.528 170.072 283.505 169.82 283.458C169.199 283.786 168.889 284.199 168.889 284.697C168.889 284.961 168.997 285.157 169.214 285.286C169.431 285.409 169.803 285.471 170.33 285.471H172.035C173.078 285.471 173.878 285.69 174.434 286.13C174.997 286.569 175.278 287.208 175.278 288.046C175.278 289.112 174.851 289.924 173.995 290.48C173.14 291.043 171.892 291.324 170.251 291.324C168.991 291.324 168.018 291.09 167.333 290.621C166.653 290.152 166.313 289.49 166.313 288.635C166.313 288.049 166.501 287.542 166.876 287.114C167.251 286.687 167.778 286.396 168.458 286.244C168.212 286.133 168.004 285.96 167.834 285.726C167.67 285.491 167.588 285.219 167.588 284.908C167.588 284.557 167.682 284.249 167.869 283.985C168.057 283.722 168.352 283.467 168.757 283.221C168.259 283.016 167.851 282.667 167.535 282.175C167.225 281.683 167.069 281.12 167.069 280.487C167.069 279.433 167.386 278.621 168.018 278.053C168.651 277.479 169.548 277.191 170.708 277.191C171.212 277.191 171.666 277.25 172.07 277.367H175.401ZM167.72 288.617C167.72 289.139 167.939 289.534 168.379 289.804C168.818 290.073 169.448 290.208 170.268 290.208C171.493 290.208 172.398 290.023 172.984 289.654C173.576 289.291 173.872 288.796 173.872 288.169C173.872 287.647 173.711 287.284 173.389 287.079C173.066 286.88 172.46 286.78 171.569 286.78H169.82C169.158 286.78 168.643 286.938 168.273 287.255C167.904 287.571 167.72 288.025 167.72 288.617ZM168.511 280.452C168.511 281.126 168.701 281.636 169.082 281.981C169.463 282.327 169.993 282.5 170.673 282.5C172.097 282.5 172.809 281.809 172.809 280.426C172.809 278.979 172.088 278.255 170.646 278.255C169.961 278.255 169.434 278.439 169.064 278.809C168.695 279.178 168.511 279.726 168.511 280.452ZM184.954 287H183.495V277.367H184.954V287ZM183.372 274.757C183.372 274.423 183.454 274.18 183.618 274.027C183.782 273.869 183.987 273.79 184.233 273.79C184.467 273.79 184.669 273.869 184.839 274.027C185.009 274.186 185.094 274.429 185.094 274.757C185.094 275.085 185.009 275.331 184.839 275.495C184.669 275.653 184.467 275.732 184.233 275.732C183.987 275.732 183.782 275.653 183.618 275.495C183.454 275.331 183.372 275.085 183.372 274.757ZM195.324 285.708H195.245C194.571 286.687 193.563 287.176 192.221 287.176C190.962 287.176 189.98 286.745 189.277 285.884C188.58 285.022 188.231 283.798 188.231 282.21C188.231 280.622 188.583 279.389 189.286 278.51C189.989 277.631 190.968 277.191 192.221 277.191C193.528 277.191 194.53 277.666 195.227 278.615H195.342L195.28 277.921L195.245 277.244V273.324H196.704V287H195.517L195.324 285.708ZM192.406 285.954C193.402 285.954 194.123 285.685 194.568 285.146C195.019 284.601 195.245 283.725 195.245 282.518V282.21C195.245 280.845 195.016 279.872 194.559 279.292C194.108 278.706 193.385 278.413 192.388 278.413C191.533 278.413 190.877 278.747 190.42 279.415C189.969 280.077 189.743 281.015 189.743 282.228C189.743 283.458 189.969 284.387 190.42 285.014C190.871 285.641 191.533 285.954 192.406 285.954ZM204.596 287.176C203.172 287.176 202.047 286.742 201.221 285.875C200.4 285.008 199.99 283.804 199.99 282.263C199.99 280.71 200.371 279.477 201.133 278.562C201.9 277.648 202.929 277.191 204.218 277.191C205.425 277.191 206.38 277.59 207.083 278.387C207.786 279.178 208.138 280.224 208.138 281.524V282.447H201.502C201.531 283.578 201.815 284.437 202.355 285.022C202.899 285.608 203.664 285.901 204.648 285.901C205.686 285.901 206.711 285.685 207.725 285.251V286.552C207.209 286.774 206.72 286.933 206.257 287.026C205.8 287.126 205.246 287.176 204.596 287.176ZM204.2 278.413C203.427 278.413 202.809 278.665 202.346 279.169C201.889 279.673 201.619 280.37 201.537 281.261H206.573C206.573 280.341 206.368 279.638 205.958 279.151C205.548 278.659 204.962 278.413 204.2 278.413ZM217.278 287L216.988 285.629H216.917C216.437 286.232 215.956 286.643 215.476 286.859C215.001 287.07 214.407 287.176 213.692 287.176C212.737 287.176 211.987 286.93 211.442 286.438C210.903 285.945 210.633 285.245 210.633 284.337C210.633 282.392 212.189 281.372 215.3 281.278L216.935 281.226V280.628C216.935 279.872 216.771 279.315 216.443 278.958C216.12 278.595 215.602 278.413 214.887 278.413C214.084 278.413 213.176 278.659 212.162 279.151L211.714 278.035C212.189 277.777 212.707 277.575 213.27 277.429C213.838 277.282 214.407 277.209 214.975 277.209C216.123 277.209 216.973 277.464 217.524 277.974C218.08 278.483 218.359 279.301 218.359 280.426V287H217.278ZM213.982 285.972C214.89 285.972 215.602 285.723 216.118 285.225C216.639 284.727 216.9 284.029 216.9 283.133V282.263L215.441 282.324C214.281 282.365 213.443 282.547 212.927 282.869C212.417 283.186 212.162 283.681 212.162 284.354C212.162 284.882 212.321 285.283 212.637 285.559C212.959 285.834 213.408 285.972 213.982 285.972ZM228.307 284.372C228.307 285.269 227.973 285.96 227.305 286.446C226.637 286.933 225.7 287.176 224.493 287.176C223.215 287.176 222.219 286.974 221.504 286.569V285.216C221.967 285.45 222.462 285.635 222.99 285.77C223.523 285.904 224.036 285.972 224.528 285.972C225.29 285.972 225.876 285.852 226.286 285.611C226.696 285.365 226.901 284.993 226.901 284.495C226.901 284.12 226.737 283.801 226.409 283.537C226.087 283.268 225.454 282.951 224.51 282.588C223.614 282.254 222.975 281.964 222.594 281.718C222.219 281.466 221.938 281.182 221.751 280.865C221.569 280.549 221.478 280.171 221.478 279.731C221.478 278.946 221.797 278.328 222.436 277.877C223.075 277.42 223.951 277.191 225.064 277.191C226.101 277.191 227.115 277.402 228.105 277.824L227.587 279.011C226.62 278.612 225.744 278.413 224.959 278.413C224.267 278.413 223.746 278.521 223.394 278.738C223.043 278.955 222.867 279.254 222.867 279.635C222.867 279.893 222.931 280.112 223.06 280.294C223.195 280.476 223.409 280.648 223.702 280.812C223.995 280.977 224.557 281.214 225.389 281.524C226.532 281.94 227.302 282.359 227.701 282.781C228.105 283.203 228.307 283.733 228.307 284.372ZM242.729 287L242.439 285.629H242.368C241.888 286.232 241.407 286.643 240.927 286.859C240.452 287.07 239.858 287.176 239.143 287.176C238.188 287.176 237.438 286.93 236.893 286.438C236.354 285.945 236.084 285.245 236.084 284.337C236.084 282.392 237.64 281.372 240.751 281.278L242.386 281.226V280.628C242.386 279.872 242.222 279.315 241.894 278.958C241.571 278.595 241.053 278.413 240.338 278.413C239.535 278.413 238.627 278.659 237.613 279.151L237.165 278.035C237.64 277.777 238.158 277.575 238.721 277.429C239.289 277.282 239.858 277.209 240.426 277.209C241.574 277.209 242.424 277.464 242.975 277.974C243.531 278.483 243.81 279.301 243.81 280.426V287H242.729ZM239.433 285.972C240.341 285.972 241.053 285.723 241.569 285.225C242.09 284.727 242.351 284.029 242.351 283.133V282.263L240.892 282.324C239.732 282.365 238.894 282.547 238.378 282.869C237.868 283.186 237.613 283.681 237.613 284.354C237.613 284.882 237.772 285.283 238.088 285.559C238.41 285.834 238.859 285.972 239.433 285.972ZM254.136 287V280.769C254.136 279.983 253.957 279.397 253.6 279.011C253.243 278.624 252.683 278.431 251.921 278.431C250.914 278.431 250.175 278.703 249.706 279.248C249.238 279.793 249.003 280.692 249.003 281.946V287H247.544V277.367H248.731L248.968 278.686H249.039C249.337 278.211 249.756 277.845 250.295 277.587C250.834 277.323 251.435 277.191 252.097 277.191C253.257 277.191 254.13 277.473 254.716 278.035C255.302 278.592 255.595 279.485 255.595 280.716V287H254.136ZM265.878 285.708H265.799C265.125 286.687 264.117 287.176 262.775 287.176C261.515 287.176 260.534 286.745 259.831 285.884C259.134 285.022 258.785 283.798 258.785 282.21C258.785 280.622 259.136 279.389 259.84 278.51C260.543 277.631 261.521 277.191 262.775 277.191C264.082 277.191 265.084 277.666 265.781 278.615H265.895L265.834 277.921L265.799 277.244V273.324H267.258V287H266.071L265.878 285.708ZM262.96 285.954C263.956 285.954 264.676 285.685 265.122 285.146C265.573 284.601 265.799 283.725 265.799 282.518V282.21C265.799 280.845 265.57 279.872 265.113 279.292C264.662 278.706 263.938 278.413 262.942 278.413C262.087 278.413 261.43 278.747 260.973 279.415C260.522 280.077 260.297 281.015 260.297 282.228C260.297 283.458 260.522 284.387 260.973 285.014C261.425 285.641 262.087 285.954 262.96 285.954ZM23.4672 312.176C22.0727 312.176 20.9916 311.748 20.2241 310.893C19.4623 310.031 19.0815 308.815 19.0815 307.245C19.0815 305.634 19.4682 304.389 20.2416 303.51C21.0209 302.631 22.1284 302.191 23.5639 302.191C24.0268 302.191 24.4897 302.241 24.9526 302.341C25.4155 302.44 25.7787 302.558 26.0424 302.692L25.5942 303.932C25.2719 303.803 24.9203 303.697 24.5395 303.615C24.1586 303.527 23.8217 303.483 23.5287 303.483C21.5717 303.483 20.5932 304.731 20.5932 307.228C20.5932 308.411 20.8305 309.319 21.3051 309.952C21.7856 310.585 22.4946 310.901 23.4321 310.901C24.2348 310.901 25.058 310.729 25.9018 310.383V311.675C25.2573 312.009 24.4457 312.176 23.4672 312.176ZM37.2302 307.175C37.2302 308.745 36.8347 309.973 36.0437 310.857C35.2527 311.736 34.1599 312.176 32.7654 312.176C31.904 312.176 31.1394 311.974 30.4714 311.569C29.8034 311.165 29.2878 310.585 28.9245 309.829C28.5612 309.073 28.3796 308.188 28.3796 307.175C28.3796 305.604 28.7722 304.383 29.5573 303.51C30.3425 302.631 31.4323 302.191 32.8269 302.191C34.1745 302.191 35.2439 302.64 36.0349 303.536C36.8318 304.433 37.2302 305.646 37.2302 307.175ZM29.8913 307.175C29.8913 308.405 30.1374 309.343 30.6296 309.987C31.1218 310.632 31.8454 310.954 32.8005 310.954C33.7556 310.954 34.4792 310.635 34.9714 309.996C35.4695 309.352 35.7185 308.411 35.7185 307.175C35.7185 305.95 35.4695 305.021 34.9714 304.389C34.4792 303.75 33.7497 303.431 32.7829 303.431C31.8279 303.431 31.1071 303.744 30.6208 304.371C30.1345 304.998 29.8913 305.933 29.8913 307.175ZM41.9756 312H40.5166V298.324H41.9756V312ZM47.2483 312H45.7893V298.324H47.2483V312ZM56.9859 312L56.6959 310.629H56.6255C56.1451 311.232 55.6646 311.643 55.1841 311.859C54.7095 312.07 54.1148 312.176 53.4 312.176C52.4449 312.176 51.6949 311.93 51.15 311.438C50.6109 310.945 50.3414 310.245 50.3414 309.337C50.3414 307.392 51.897 306.372 55.0084 306.278L56.6431 306.226V305.628C56.6431 304.872 56.4791 304.315 56.1509 303.958C55.8287 303.595 55.3101 303.413 54.5953 303.413C53.7925 303.413 52.8843 303.659 51.8707 304.151L51.4224 303.035C51.897 302.777 52.4156 302.575 52.9781 302.429C53.5464 302.282 54.1148 302.209 54.6832 302.209C55.8316 302.209 56.6812 302.464 57.232 302.974C57.7886 303.483 58.067 304.301 58.067 305.426V312H56.9859ZM53.69 310.972C54.5982 310.972 55.3101 310.723 55.8257 310.225C56.3472 309.727 56.608 309.029 56.608 308.133V307.263L55.149 307.324C53.9888 307.365 53.1509 307.547 52.6353 307.869C52.1255 308.186 51.8707 308.681 51.8707 309.354C51.8707 309.882 52.0289 310.283 52.3453 310.559C52.6675 310.834 53.1158 310.972 53.69 310.972ZM66.284 302.209C67.5496 302.209 68.5311 302.643 69.2284 303.51C69.9315 304.371 70.283 305.593 70.283 307.175C70.283 308.757 69.9286 309.987 69.2196 310.866C68.5164 311.739 67.5379 312.176 66.284 312.176C65.6571 312.176 65.0828 312.062 64.5614 311.833C64.0457 311.599 63.6121 311.241 63.2606 310.761H63.1551L62.8475 312H61.8016V298.324H63.2606V301.646C63.2606 302.391 63.2371 303.059 63.1903 303.65H63.2606C63.9403 302.689 64.9481 302.209 66.284 302.209ZM66.0731 303.431C65.077 303.431 64.3592 303.718 63.9198 304.292C63.4803 304.86 63.2606 305.821 63.2606 307.175C63.2606 308.528 63.4862 309.498 63.9373 310.084C64.3885 310.664 65.1121 310.954 66.1082 310.954C67.0047 310.954 67.6727 310.629 68.1121 309.979C68.5516 309.322 68.7713 308.382 68.7713 307.157C68.7713 305.903 68.5516 304.969 68.1121 304.354C67.6727 303.738 66.993 303.431 66.0731 303.431ZM81.8751 307.175C81.8751 308.745 81.4796 309.973 80.6886 310.857C79.8976 311.736 78.8048 312.176 77.4103 312.176C76.5489 312.176 75.7843 311.974 75.1163 311.569C74.4484 311.165 73.9327 310.585 73.5695 309.829C73.2062 309.073 73.0245 308.188 73.0245 307.175C73.0245 305.604 73.4171 304.383 74.2023 303.51C74.9874 302.631 76.0773 302.191 77.4718 302.191C78.8195 302.191 79.8888 302.64 80.6798 303.536C81.4767 304.433 81.8751 305.646 81.8751 307.175ZM74.5362 307.175C74.5362 308.405 74.7823 309.343 75.2745 309.987C75.7667 310.632 76.4903 310.954 77.4454 310.954C78.4005 310.954 79.1241 310.635 79.6163 309.996C80.1144 309.352 80.3634 308.411 80.3634 307.175C80.3634 305.95 80.1144 305.021 79.6163 304.389C79.1241 303.75 78.3946 303.431 77.4278 303.431C76.4728 303.431 75.7521 303.744 75.2657 304.371C74.7794 304.998 74.5362 305.933 74.5362 307.175ZM89.5561 302.191C89.9838 302.191 90.3676 302.227 90.7074 302.297L90.5053 303.65C90.1068 303.562 89.7553 303.519 89.4506 303.519C88.6713 303.519 88.0033 303.835 87.4467 304.468C86.8959 305.101 86.6205 305.889 86.6205 306.832V312H85.1615V302.367H86.3656L86.5326 304.151H86.6029C86.9604 303.524 87.391 303.041 87.8949 302.701C88.3988 302.361 88.9525 302.191 89.5561 302.191ZM99.153 312L98.863 310.629H98.7927C98.3122 311.232 97.8317 311.643 97.3512 311.859C96.8766 312.07 96.2819 312.176 95.5671 312.176C94.612 312.176 93.862 311.93 93.3171 311.438C92.778 310.945 92.5085 310.245 92.5085 309.337C92.5085 307.392 94.0641 306.372 97.1755 306.278L98.8102 306.226V305.628C98.8102 304.872 98.6462 304.315 98.318 303.958C97.9958 303.595 97.4772 303.413 96.7624 303.413C95.9596 303.413 95.0514 303.659 94.0378 304.151L93.5895 303.035C94.0641 302.777 94.5827 302.575 95.1452 302.429C95.7136 302.282 96.2819 302.209 96.8503 302.209C97.9987 302.209 98.8483 302.464 99.3991 302.974C99.9557 303.483 100.234 304.301 100.234 305.426V312H99.153ZM95.8571 310.972C96.7653 310.972 97.4772 310.723 97.9929 310.225C98.5143 309.727 98.7751 309.029 98.7751 308.133V307.263L97.3161 307.324C96.1559 307.365 95.318 307.547 94.8024 307.869C94.2927 308.186 94.0378 308.681 94.0378 309.354C94.0378 309.882 94.196 310.283 94.5124 310.559C94.8346 310.834 95.2829 310.972 95.8571 310.972ZM107.08 310.972C107.338 310.972 107.587 310.954 107.827 310.919C108.067 310.878 108.258 310.837 108.398 310.796V311.912C108.24 311.988 108.006 312.05 107.695 312.097C107.391 312.149 107.115 312.176 106.869 312.176C105.006 312.176 104.074 311.194 104.074 309.231V303.501H102.694V302.798L104.074 302.191L104.689 300.135H105.533V302.367H108.328V303.501H105.533V309.17C105.533 309.75 105.671 310.195 105.946 310.506C106.222 310.816 106.6 310.972 107.08 310.972ZM112.511 312H111.052V302.367H112.511V312ZM110.929 299.757C110.929 299.423 111.011 299.18 111.175 299.027C111.339 298.869 111.544 298.79 111.79 298.79C112.025 298.79 112.227 298.869 112.397 299.027C112.567 299.186 112.652 299.429 112.652 299.757C112.652 300.085 112.567 300.331 112.397 300.495C112.227 300.653 112.025 300.732 111.79 300.732C111.544 300.732 111.339 300.653 111.175 300.495C111.011 300.331 110.929 300.085 110.929 299.757ZM122.917 312V305.769C122.917 304.983 122.738 304.397 122.38 304.011C122.023 303.624 121.463 303.431 120.702 303.431C119.694 303.431 118.956 303.703 118.487 304.248C118.018 304.793 117.784 305.692 117.784 306.946V312H116.325V302.367H117.511L117.749 303.686H117.819C118.118 303.211 118.537 302.845 119.076 302.587C119.615 302.323 120.215 302.191 120.877 302.191C122.038 302.191 122.911 302.473 123.497 303.035C124.083 303.592 124.376 304.485 124.376 305.716V312H122.917ZM135.985 302.367V303.29L134.201 303.501C134.365 303.706 134.512 303.976 134.64 304.31C134.769 304.638 134.834 305.01 134.834 305.426C134.834 306.369 134.512 307.122 133.867 307.685C133.222 308.247 132.338 308.528 131.213 308.528C130.926 308.528 130.656 308.505 130.404 308.458C129.783 308.786 129.472 309.199 129.472 309.697C129.472 309.961 129.581 310.157 129.798 310.286C130.014 310.409 130.387 310.471 130.914 310.471H132.619C133.662 310.471 134.462 310.69 135.018 311.13C135.581 311.569 135.862 312.208 135.862 313.046C135.862 314.112 135.434 314.924 134.579 315.48C133.723 316.043 132.475 316.324 130.835 316.324C129.575 316.324 128.602 316.09 127.917 315.621C127.237 315.152 126.897 314.49 126.897 313.635C126.897 313.049 127.085 312.542 127.46 312.114C127.835 311.687 128.362 311.396 129.042 311.244C128.796 311.133 128.588 310.96 128.418 310.726C128.254 310.491 128.172 310.219 128.172 309.908C128.172 309.557 128.265 309.249 128.453 308.985C128.64 308.722 128.936 308.467 129.341 308.221C128.843 308.016 128.435 307.667 128.119 307.175C127.808 306.683 127.653 306.12 127.653 305.487C127.653 304.433 127.97 303.621 128.602 303.053C129.235 302.479 130.132 302.191 131.292 302.191C131.796 302.191 132.25 302.25 132.654 302.367H135.985ZM128.304 313.617C128.304 314.139 128.523 314.534 128.963 314.804C129.402 315.073 130.032 315.208 130.852 315.208C132.077 315.208 132.982 315.023 133.568 314.654C134.16 314.291 134.456 313.796 134.456 313.169C134.456 312.647 134.295 312.284 133.972 312.079C133.65 311.88 133.044 311.78 132.153 311.78H130.404C129.742 311.78 129.226 311.938 128.857 312.255C128.488 312.571 128.304 313.025 128.304 313.617ZM129.095 305.452C129.095 306.126 129.285 306.636 129.666 306.981C130.047 307.327 130.577 307.5 131.257 307.5C132.68 307.5 133.392 306.809 133.392 305.426C133.392 303.979 132.672 303.255 131.23 303.255C130.545 303.255 130.017 303.439 129.648 303.809C129.279 304.178 129.095 304.726 129.095 305.452ZM145.537 312H144.078V302.367H145.537V312ZM143.955 299.757C143.955 299.423 144.037 299.18 144.202 299.027C144.366 298.869 144.571 298.79 144.817 298.79C145.051 298.79 145.253 298.869 145.423 299.027C145.593 299.186 145.678 299.429 145.678 299.757C145.678 300.085 145.593 300.331 145.423 300.495C145.253 300.653 145.051 300.732 144.817 300.732C144.571 300.732 144.366 300.653 144.202 300.495C144.037 300.331 143.955 300.085 143.955 299.757ZM155.943 312V305.769C155.943 304.983 155.764 304.397 155.407 304.011C155.049 303.624 154.49 303.431 153.728 303.431C152.72 303.431 151.982 303.703 151.513 304.248C151.045 304.793 150.81 305.692 150.81 306.946V312H149.351V302.367H150.538L150.775 303.686H150.845C151.144 303.211 151.563 302.845 152.102 302.587C152.641 302.323 153.242 302.191 153.904 302.191C155.064 302.191 155.937 302.473 156.523 303.035C157.109 303.592 157.402 304.485 157.402 305.716V312H155.943ZM172.447 312L172.157 310.629H172.087C171.607 311.232 171.126 311.643 170.646 311.859C170.171 312.07 169.576 312.176 168.862 312.176C167.906 312.176 167.156 311.93 166.612 311.438C166.072 310.945 165.803 310.245 165.803 309.337C165.803 307.392 167.359 306.372 170.47 306.278L172.105 306.226V305.628C172.105 304.872 171.941 304.315 171.613 303.958C171.29 303.595 170.772 303.413 170.057 303.413C169.254 303.413 168.346 303.659 167.332 304.151L166.884 303.035C167.359 302.777 167.877 302.575 168.44 302.429C169.008 302.282 169.576 302.209 170.145 302.209C171.293 302.209 172.143 302.464 172.694 302.974C173.25 303.483 173.529 304.301 173.529 305.426V312H172.447ZM169.152 310.972C170.06 310.972 170.772 310.723 171.287 310.225C171.809 309.727 172.07 309.029 172.07 308.133V307.263L170.611 307.324C169.45 307.365 168.613 307.547 168.097 307.869C167.587 308.186 167.332 308.681 167.332 309.354C167.332 309.882 167.49 310.283 167.807 310.559C168.129 310.834 168.577 310.972 169.152 310.972ZM190.543 302.367V303.29L188.759 303.501C188.923 303.706 189.069 303.976 189.198 304.31C189.327 304.638 189.391 305.01 189.391 305.426C189.391 306.369 189.069 307.122 188.425 307.685C187.78 308.247 186.895 308.528 185.77 308.528C185.483 308.528 185.214 308.505 184.962 308.458C184.341 308.786 184.03 309.199 184.03 309.697C184.03 309.961 184.138 310.157 184.355 310.286C184.572 310.409 184.944 310.471 185.471 310.471H187.177C188.219 310.471 189.019 310.69 189.576 311.13C190.138 311.569 190.42 312.208 190.42 313.046C190.42 314.112 189.992 314.924 189.136 315.48C188.281 316.043 187.033 316.324 185.392 316.324C184.133 316.324 183.16 316.09 182.474 315.621C181.795 315.152 181.455 314.49 181.455 313.635C181.455 313.049 181.642 312.542 182.017 312.114C182.392 311.687 182.92 311.396 183.599 311.244C183.353 311.133 183.145 310.96 182.975 310.726C182.811 310.491 182.729 310.219 182.729 309.908C182.729 309.557 182.823 309.249 183.011 308.985C183.198 308.722 183.494 308.467 183.898 308.221C183.4 308.016 182.993 307.667 182.677 307.175C182.366 306.683 182.211 306.12 182.211 305.487C182.211 304.433 182.527 303.621 183.16 303.053C183.793 302.479 184.689 302.191 185.849 302.191C186.353 302.191 186.807 302.25 187.212 302.367H190.543ZM182.861 313.617C182.861 314.139 183.081 314.534 183.52 314.804C183.96 315.073 184.59 315.208 185.41 315.208C186.635 315.208 187.54 315.023 188.126 314.654C188.718 314.291 189.013 313.796 189.013 313.169C189.013 312.647 188.852 312.284 188.53 312.079C188.208 311.88 187.601 311.78 186.711 311.78H184.962C184.3 311.78 183.784 311.938 183.415 312.255C183.046 312.571 182.861 313.025 182.861 313.617ZM183.652 305.452C183.652 306.126 183.843 306.636 184.223 306.981C184.604 307.327 185.135 307.5 185.814 307.5C187.238 307.5 187.95 306.809 187.95 305.426C187.95 303.979 187.229 303.255 185.788 303.255C185.102 303.255 184.575 303.439 184.206 303.809C183.837 304.178 183.652 304.726 183.652 305.452ZM197.635 302.191C198.063 302.191 198.446 302.227 198.786 302.297L198.584 303.65C198.186 303.562 197.834 303.519 197.529 303.519C196.75 303.519 196.082 303.835 195.525 304.468C194.975 305.101 194.699 305.889 194.699 306.832V312H193.24V302.367H194.444L194.611 304.151H194.682C195.039 303.524 195.47 303.041 195.974 302.701C196.478 302.361 197.031 302.191 197.635 302.191ZM209.622 307.175C209.622 308.745 209.227 309.973 208.436 310.857C207.645 311.736 206.552 312.176 205.158 312.176C204.296 312.176 203.532 311.974 202.864 311.569C202.196 311.165 201.68 310.585 201.317 309.829C200.953 309.073 200.772 308.188 200.772 307.175C200.772 305.604 201.164 304.383 201.95 303.51C202.735 302.631 203.825 302.191 205.219 302.191C206.567 302.191 207.636 302.64 208.427 303.536C209.224 304.433 209.622 305.646 209.622 307.175ZM202.284 307.175C202.284 308.405 202.53 309.343 203.022 309.987C203.514 310.632 204.238 310.954 205.193 310.954C206.148 310.954 206.871 310.635 207.364 309.996C207.862 309.352 208.111 308.411 208.111 307.175C208.111 305.95 207.862 305.021 207.364 304.389C206.871 303.75 206.142 303.431 205.175 303.431C204.22 303.431 203.499 303.744 203.013 304.371C202.527 304.998 202.284 305.933 202.284 307.175ZM214.28 302.367V308.616C214.28 309.401 214.459 309.987 214.816 310.374C215.173 310.761 215.733 310.954 216.495 310.954C217.503 310.954 218.238 310.679 218.701 310.128C219.17 309.577 219.404 308.678 219.404 307.43V302.367H220.863V312H219.659L219.448 310.708H219.369C219.07 311.183 218.654 311.546 218.121 311.798C217.593 312.05 216.99 312.176 216.31 312.176C215.138 312.176 214.259 311.897 213.673 311.341C213.093 310.784 212.803 309.894 212.803 308.669V302.367H214.28ZM229.168 312.176C228.541 312.176 227.967 312.062 227.445 311.833C226.93 311.599 226.496 311.241 226.144 310.761H226.039C226.109 311.323 226.144 311.856 226.144 312.36V316.324H224.685V302.367H225.872L226.074 303.686H226.144C226.519 303.158 226.956 302.777 227.454 302.543C227.952 302.309 228.523 302.191 229.168 302.191C230.445 302.191 231.43 302.628 232.121 303.501C232.818 304.374 233.167 305.599 233.167 307.175C233.167 308.757 232.812 309.987 232.103 310.866C231.4 311.739 230.422 312.176 229.168 312.176ZM228.957 303.431C227.973 303.431 227.261 303.703 226.821 304.248C226.382 304.793 226.156 305.66 226.144 306.85V307.175C226.144 308.528 226.37 309.498 226.821 310.084C227.272 310.664 227.996 310.954 228.992 310.954C229.824 310.954 230.474 310.617 230.943 309.943C231.418 309.27 231.655 308.341 231.655 307.157C231.655 305.956 231.418 305.036 230.943 304.397C230.474 303.753 229.812 303.431 228.957 303.431ZM250.155 307.175C250.155 308.745 249.759 309.973 248.968 310.857C248.177 311.736 247.084 312.176 245.69 312.176C244.829 312.176 244.064 311.974 243.396 311.569C242.728 311.165 242.212 310.585 241.849 309.829C241.486 309.073 241.304 308.188 241.304 307.175C241.304 305.604 241.697 304.383 242.482 303.51C243.267 302.631 244.357 302.191 245.751 302.191C247.099 302.191 248.168 302.64 248.959 303.536C249.756 304.433 250.155 305.646 250.155 307.175ZM242.816 307.175C242.816 308.405 243.062 309.343 243.554 309.987C244.046 310.632 244.77 310.954 245.725 310.954C246.68 310.954 247.404 310.635 247.896 309.996C248.394 309.352 248.643 308.411 248.643 307.175C248.643 305.95 248.394 305.021 247.896 304.389C247.404 303.75 246.674 303.431 245.707 303.431C244.752 303.431 244.032 303.744 243.545 304.371C243.059 304.998 242.816 305.933 242.816 307.175ZM257.783 303.501H255.331V312H253.872V303.501H252.149V302.842L253.872 302.314V301.778C253.872 299.411 254.906 298.228 256.974 298.228C257.484 298.228 258.082 298.33 258.767 298.535L258.389 299.704C257.827 299.522 257.346 299.432 256.948 299.432C256.397 299.432 255.99 299.616 255.726 299.985C255.463 300.349 255.331 300.935 255.331 301.743V302.367H257.783V303.501ZM272.951 302.174C272.951 302.994 272.72 303.665 272.257 304.187C271.8 304.708 271.15 305.057 270.306 305.232V305.303C271.337 305.432 272.102 305.76 272.6 306.287C273.098 306.814 273.347 307.506 273.347 308.361C273.347 309.586 272.922 310.529 272.073 311.191C271.223 311.848 270.016 312.176 268.451 312.176C267.772 312.176 267.148 312.123 266.579 312.018C266.017 311.918 265.469 311.739 264.936 311.481V310.093C265.492 310.368 266.084 310.579 266.711 310.726C267.344 310.866 267.942 310.937 268.504 310.937C270.725 310.937 271.835 310.066 271.835 308.326C271.835 306.768 270.611 305.988 268.161 305.988H266.896V304.731H268.179C269.181 304.731 269.975 304.512 270.561 304.072C271.147 303.627 271.44 303.012 271.44 302.227C271.44 301.6 271.223 301.107 270.789 300.75C270.362 300.393 269.779 300.214 269.04 300.214C268.478 300.214 267.948 300.29 267.449 300.442C266.951 300.595 266.383 300.876 265.744 301.286L265.006 300.302C265.533 299.886 266.14 299.561 266.825 299.326C267.517 299.086 268.243 298.966 269.005 298.966C270.253 298.966 271.223 299.253 271.914 299.827C272.606 300.396 272.951 301.178 272.951 302.174ZM276.466 311.068C276.466 310.676 276.554 310.38 276.73 310.181C276.912 309.976 277.169 309.873 277.503 309.873C277.843 309.873 278.107 309.976 278.294 310.181C278.488 310.38 278.585 310.676 278.585 311.068C278.585 311.449 278.488 311.742 278.294 311.947C278.101 312.152 277.837 312.255 277.503 312.255C277.205 312.255 276.956 312.164 276.756 311.982C276.563 311.795 276.466 311.49 276.466 311.068Z" fill="#3D5A80"/>
<circle cx="148.5" cy="96.5" r="93.5" fill="#98C1D9"/>
<circle cx="148.946" cy="134.858" r="13.0069" fill="#FAFBFF" stroke="#3D5A80" stroke-width="5"/>
<path fill-rule="evenodd" clip-rule="evenodd" d="M167.684 105.323C179.26 98.739 187.068 86.2925 187.068 72.0225C187.068 50.8795 169.928 33.7397 148.785 33.7397C127.642 33.7397 110.502 50.8795 110.502 72.0225C110.502 86.2921 118.31 98.7382 129.886 105.322V127.751H167.684V105.323Z" fill="#3D5A80"/>
<rect x="128.509" y="124.435" width="40.5516" height="10.83" fill="#FAFBFF" stroke="#3D5A80" stroke-width="5"/>
<path d="M201.154 95.0825C205.568 97.3784 209.677 99.1275 214.212 100.639" stroke="#EAF0FF" stroke-width="5" stroke-linecap="round" stroke-linejoin="round"/>
<path d="M101.147 69.7881C96.2524 68.8971 91.8103 68.4384 87.0316 68.3324" stroke="#EAF0FF" stroke-width="5" stroke-linecap="round" stroke-linejoin="round"/>
<path d="M206.155 72.8563C211.568 72.0086 216.953 71.1292 222.269 69.8003" stroke="#EAF0FF" stroke-width="5" stroke-linecap="round" stroke-linejoin="round"/>
<path d="M102.928 92.5C98.0072 94.907 93.1207 97.3367 88.434 100.175" stroke="#EAF0FF" stroke-width="5" stroke-linecap="round" stroke-linejoin="round"/>
<path d="M179.207 60.6323C181.184 69.7628 182.232 76.5065 176.83 84.3707C174.341 87.9938 171.624 91.3042 168.649 94.5267" stroke="#EAF0FF" stroke-width="5" stroke-linecap="round" stroke-linejoin="round"/>
<path d="M140.589 113.141C140.589 111.104 140.589 109.066 140.589 107.029" stroke="#EAF0FF" stroke-width="5" stroke-linecap="round" stroke-linejoin="round"/>
</svg>
