<svg width="281" height="366" viewBox="0 0 281 366" fill="none" xmlns="http://www.w3.org/2000/svg">
<circle cx="140.5" cy="96.5" r="93.5" fill="#98C1D9"/>
<rect x="55" y="46.75" width="156.444" height="97.792" fill="white" stroke="#3D5A80" stroke-width="5"/>
<rect x="74.9536" y="58.8428" width="47.0006" height="28.2562" fill="#3D5A80" stroke="#3D5A80" stroke-width="5"/>
<rect x="133.001" y="58.8428" width="58.4891" height="5.2792" fill="#3D5A80" stroke="#3D5A80" stroke-width="5"/>
<rect x="133.001" y="73.355" width="58.4891" height="13.7444" stroke="#3D5A80" stroke-width="5"/>
<rect x="74.9536" y="98.146" width="116.536" height="13.7444" fill="#3D5A80" stroke="#3D5A80" stroke-width="5"/>
<rect x="74.9536" y="121.123" width="116.536" height="13.7444" stroke="#3D5A80" stroke-width="5"/>
<rect x="182.374" y="74.355" width="42.582" height="78.8615" fill="white" stroke="#3D5A80" stroke-width="7"/>
<rect x="-2.5" y="2.5" width="27.6516" height="17.977" transform="matrix(-1 0 0 1 214.99 78.7158)" fill="#3D5A80" stroke="#3D5A80" stroke-width="5"/>
<rect x="-2.41863" y="2.41863" width="27.8143" height="4.83727" transform="matrix(-1 0 0 1 215.153 103.506)" stroke="#3D5A80" stroke-width="4.83727"/>
<rect x="-2.5" y="2.5" width="27.6516" height="15.5584" transform="matrix(-1 0 0 1 214.99 114.995)" stroke="#3D5A80" stroke-width="5"/>
<rect x="-2.26747" y="2.26747" width="28.1166" height="4.53494" transform="matrix(-1 0 0 1 215.455 137.973)" fill="#3D5A80" stroke="#3D5A80" stroke-width="4.53494"/>
<path d="M68.2781 226H64.1414L61.8211 217C61.7352 216.68 61.5867 216.02 61.3758 215.02C61.1727 214.012 61.0555 213.336 61.0242 212.992C60.9773 213.414 60.8602 214.094 60.6727 215.031C60.4852 215.961 60.3406 216.625 60.2391 217.023L57.9305 226H53.8055L49.4344 208.867H53.0086L55.2 218.219C55.5828 219.945 55.8602 221.441 56.032 222.707C56.0789 222.262 56.1844 221.574 56.3484 220.645C56.5203 219.707 56.6805 218.98 56.8289 218.465L59.325 208.867H62.7586L65.2547 218.465C65.3641 218.895 65.5008 219.551 65.6648 220.434C65.8289 221.316 65.9539 222.074 66.0398 222.707C66.118 222.098 66.243 221.34 66.4148 220.434C66.5867 219.52 66.743 218.781 66.8836 218.219L69.0633 208.867H72.6375L68.2781 226ZM75.7537 226V208.867H79.3866V226H75.7537ZM88.2919 216.473H89.4637C90.6122 216.473 91.4598 216.281 92.0067 215.898C92.5536 215.516 92.827 214.914 92.827 214.094C92.827 213.281 92.5458 212.703 91.9833 212.359C91.4286 212.016 90.5653 211.844 89.3934 211.844H88.2919V216.473ZM88.2919 219.426V226H84.6591V208.867H89.6512C91.9794 208.867 93.702 209.293 94.8192 210.145C95.9364 210.988 96.495 212.273 96.495 214C96.495 215.008 96.2177 215.906 95.663 216.695C95.1083 217.477 94.3231 218.09 93.3075 218.535C95.8856 222.387 97.5653 224.875 98.3466 226H94.3153L90.2255 219.426H88.2919ZM111.33 226H101.463V208.867H111.33V211.844H105.096V215.605H110.896V218.582H105.096V223H111.33V226ZM119.45 226H115.876V208.867H125.696V211.844H119.45V216.262H125.263V219.227H119.45V226ZM133.641 216.473H134.812C135.961 216.473 136.809 216.281 137.355 215.898C137.902 215.516 138.176 214.914 138.176 214.094C138.176 213.281 137.895 212.703 137.332 212.359C136.777 212.016 135.914 211.844 134.742 211.844H133.641V216.473ZM133.641 219.426V226H130.008V208.867H135C137.328 208.867 139.051 209.293 140.168 210.145C141.285 210.988 141.844 212.273 141.844 214C141.844 215.008 141.566 215.906 141.012 216.695C140.457 217.477 139.672 218.09 138.656 218.535C141.234 222.387 142.914 224.875 143.695 226H139.664L135.574 219.426H133.641ZM157.3 226L156.058 221.922H149.812L148.569 226H144.655L150.702 208.797H155.144L161.214 226H157.3ZM155.19 218.875C154.042 215.18 153.394 213.09 153.245 212.605C153.105 212.121 153.003 211.738 152.94 211.457C152.683 212.457 151.944 214.93 150.726 218.875H155.19ZM171.596 226L167.471 212.559H167.365C167.514 215.293 167.588 217.117 167.588 218.031V226H164.342V208.867H169.287L173.342 221.969H173.412L177.713 208.867H182.658V226H179.272V217.891C179.272 217.508 179.275 217.066 179.283 216.566C179.299 216.066 179.354 214.738 179.447 212.582H179.342L174.924 226H171.596ZM187.942 226V208.867H191.575V226H187.942ZM212.047 226H207.43L199.977 213.039H199.871C200.02 215.328 200.094 216.961 200.094 217.938V226H196.848V208.867H201.43L208.871 221.699H208.953C208.836 219.473 208.777 217.898 208.777 216.977V208.867H212.047V226ZM223.835 216.379H230.632V225.262C229.53 225.621 228.491 225.871 227.515 226.012C226.546 226.16 225.554 226.234 224.538 226.234C221.952 226.234 219.976 225.477 218.609 223.961C217.249 222.438 216.57 220.254 216.57 217.41C216.57 214.645 217.359 212.488 218.937 210.941C220.523 209.395 222.718 208.621 225.523 208.621C227.28 208.621 228.976 208.973 230.609 209.676L229.402 212.582C228.152 211.957 226.851 211.645 225.499 211.645C223.929 211.645 222.671 212.172 221.726 213.227C220.78 214.281 220.308 215.699 220.308 217.48C220.308 219.34 220.687 220.762 221.445 221.746C222.21 222.723 223.32 223.211 224.773 223.211C225.53 223.211 226.3 223.133 227.081 222.977V219.402H223.835V216.379Z" fill="#3D5A80"/>
<path d="M19.2299 255.452C19.2299 257.573 18.6528 259.196 17.4985 260.321C16.35 261.44 14.6948 262 12.5327 262H8.97308V249.15H12.9106C14.9086 249.15 16.4614 249.704 17.5688 250.812C18.6762 251.919 19.2299 253.466 19.2299 255.452ZM17.6479 255.505C17.6479 253.829 17.226 252.566 16.3823 251.717C15.5444 250.867 14.2963 250.442 12.6381 250.442H10.4672V260.708H12.2866C14.0678 260.708 15.4067 260.271 16.3032 259.398C17.1996 258.52 17.6479 257.222 17.6479 255.505ZM26.6736 262.176C25.2497 262.176 24.1247 261.742 23.2986 260.875C22.4782 260.008 22.0681 258.804 22.0681 257.263C22.0681 255.71 22.4489 254.477 23.2107 253.562C23.9782 252.648 25.0066 252.191 26.2956 252.191C27.5027 252.191 28.4577 252.59 29.1609 253.387C29.864 254.178 30.2155 255.224 30.2155 256.524V257.447H23.5798C23.6091 258.578 23.8933 259.437 24.4323 260.022C24.9773 260.608 25.7419 260.901 26.7263 260.901C27.7634 260.901 28.7888 260.685 29.8025 260.251V261.552C29.2868 261.774 28.7976 261.933 28.3347 262.026C27.8777 262.126 27.3239 262.176 26.6736 262.176ZM26.278 253.413C25.5046 253.413 24.8864 253.665 24.4236 254.169C23.9665 254.673 23.697 255.37 23.615 256.261H28.6511C28.6511 255.341 28.446 254.638 28.0359 254.151C27.6257 253.659 27.0398 253.413 26.278 253.413ZM39.6455 259.372C39.6455 260.269 39.3115 260.96 38.6436 261.446C37.9756 261.933 37.0381 262.176 35.8311 262.176C34.5537 262.176 33.5576 261.974 32.8428 261.569V260.216C33.3057 260.45 33.8008 260.635 34.3281 260.77C34.8613 260.904 35.374 260.972 35.8662 260.972C36.6279 260.972 37.2139 260.852 37.624 260.611C38.0342 260.365 38.2393 259.993 38.2393 259.495C38.2393 259.12 38.0752 258.801 37.7471 258.537C37.4248 258.268 36.792 257.951 35.8486 257.588C34.9521 257.254 34.3135 256.964 33.9326 256.718C33.5576 256.466 33.2764 256.182 33.0889 255.865C32.9072 255.549 32.8164 255.171 32.8164 254.731C32.8164 253.946 33.1357 253.328 33.7744 252.877C34.4131 252.42 35.2891 252.191 36.4023 252.191C37.4395 252.191 38.4531 252.402 39.4434 252.824L38.9248 254.011C37.958 253.612 37.082 253.413 36.2969 253.413C35.6055 253.413 35.084 253.521 34.7324 253.738C34.3809 253.955 34.2051 254.254 34.2051 254.635C34.2051 254.893 34.2695 255.112 34.3984 255.294C34.5332 255.476 34.7471 255.648 35.04 255.812C35.333 255.977 35.8955 256.214 36.7275 256.524C37.8701 256.94 38.6406 257.359 39.0391 257.781C39.4434 258.203 39.6455 258.733 39.6455 259.372ZM44.2063 262H42.7473V252.367H44.2063V262ZM42.6243 249.757C42.6243 249.423 42.7063 249.18 42.8704 249.027C43.0345 248.869 43.2395 248.79 43.4856 248.79C43.72 248.79 43.9221 248.869 44.0921 249.027C44.262 249.186 44.347 249.429 44.347 249.757C44.347 250.085 44.262 250.331 44.0921 250.495C43.9221 250.653 43.72 250.732 43.4856 250.732C43.2395 250.732 43.0345 250.653 42.8704 250.495C42.7063 250.331 42.6243 250.085 42.6243 249.757ZM55.9039 252.367V253.29L54.1197 253.501C54.2837 253.706 54.4302 253.976 54.5591 254.31C54.688 254.638 54.7525 255.01 54.7525 255.426C54.7525 256.369 54.4302 257.122 53.7857 257.685C53.1412 258.247 52.2564 258.528 51.1314 258.528C50.8443 258.528 50.5748 258.505 50.3228 258.458C49.7017 258.786 49.3912 259.199 49.3912 259.697C49.3912 259.961 49.4996 260.157 49.7164 260.286C49.9332 260.409 50.3052 260.471 50.8326 260.471H52.5377C53.5806 260.471 54.3804 260.69 54.9371 261.13C55.4996 261.569 55.7808 262.208 55.7808 263.046C55.7808 264.112 55.3531 264.924 54.4976 265.48C53.6421 266.043 52.3941 266.324 50.7535 266.324C49.4937 266.324 48.5211 266.09 47.8355 265.621C47.1558 265.152 46.816 264.49 46.816 263.635C46.816 263.049 47.0035 262.542 47.3785 262.114C47.7535 261.687 48.2808 261.396 48.9605 261.244C48.7144 261.133 48.5064 260.96 48.3365 260.726C48.1724 260.491 48.0904 260.219 48.0904 259.908C48.0904 259.557 48.1841 259.249 48.3716 258.985C48.5591 258.722 48.855 258.467 49.2593 258.221C48.7613 258.016 48.3541 257.667 48.0377 257.175C47.7271 256.683 47.5718 256.12 47.5718 255.487C47.5718 254.433 47.8882 253.621 48.5211 253.053C49.1539 252.479 50.0504 252.191 51.2105 252.191C51.7144 252.191 52.1685 252.25 52.5728 252.367H55.9039ZM48.2222 263.617C48.2222 264.139 48.442 264.534 48.8814 264.804C49.3209 265.073 49.9507 265.208 50.7711 265.208C51.9957 265.208 52.9009 265.023 53.4869 264.654C54.0787 264.291 54.3746 263.796 54.3746 263.169C54.3746 262.647 54.2134 262.284 53.8912 262.079C53.5689 261.88 52.9625 261.78 52.0718 261.78H50.3228C49.6607 261.78 49.1451 261.938 48.7759 262.255C48.4068 262.571 48.2222 263.025 48.2222 263.617ZM49.0132 255.452C49.0132 256.126 49.2037 256.636 49.5845 256.981C49.9654 257.327 50.4957 257.5 51.1754 257.5C52.5992 257.5 53.3111 256.809 53.3111 255.426C53.3111 253.979 52.5904 253.255 51.149 253.255C50.4634 253.255 49.9361 253.439 49.567 253.809C49.1978 254.178 49.0132 254.726 49.0132 255.452ZM65.1932 262V255.769C65.1932 254.983 65.0145 254.397 64.6571 254.011C64.2996 253.624 63.7401 253.431 62.9784 253.431C61.9705 253.431 61.2323 253.703 60.7635 254.248C60.2948 254.793 60.0604 255.692 60.0604 256.946V262H58.6014V252.367H59.7879L60.0252 253.686H60.0955C60.3944 253.211 60.8133 252.845 61.3524 252.587C61.8914 252.323 62.492 252.191 63.1541 252.191C64.3143 252.191 65.1873 252.473 65.7733 253.035C66.3592 253.592 66.6522 254.485 66.6522 255.716V262H65.1932ZM71.837 262H70.378V252.367H71.837V262ZM70.255 249.757C70.255 249.423 70.337 249.18 70.5011 249.027C70.6652 248.869 70.8702 248.79 71.1163 248.79C71.3507 248.79 71.5528 248.869 71.7228 249.027C71.8927 249.186 71.9777 249.429 71.9777 249.757C71.9777 250.085 71.8927 250.331 71.7228 250.495C71.5528 250.653 71.3507 250.732 71.1163 250.732C70.8702 250.732 70.6652 250.653 70.5011 250.495C70.337 250.331 70.255 250.085 70.255 249.757ZM82.2426 262V255.769C82.2426 254.983 82.0639 254.397 81.7064 254.011C81.349 253.624 80.7895 253.431 80.0277 253.431C79.0199 253.431 78.2816 253.703 77.8129 254.248C77.3441 254.793 77.1098 255.692 77.1098 256.946V262H75.6508V252.367H76.8373L77.0746 253.686H77.1449C77.4437 253.211 77.8627 252.845 78.4018 252.587C78.9408 252.323 79.5414 252.191 80.2035 252.191C81.3637 252.191 82.2367 252.473 82.8227 253.035C83.4086 253.592 83.7016 254.485 83.7016 255.716V262H82.2426ZM95.3112 252.367V253.29L93.527 253.501C93.6911 253.706 93.8376 253.976 93.9665 254.31C94.0954 254.638 94.1598 255.01 94.1598 255.426C94.1598 256.369 93.8376 257.122 93.193 257.685C92.5485 258.247 91.6637 258.528 90.5387 258.528C90.2516 258.528 89.9821 258.505 89.7302 258.458C89.1091 258.786 88.7985 259.199 88.7985 259.697C88.7985 259.961 88.9069 260.157 89.1237 260.286C89.3405 260.409 89.7126 260.471 90.2399 260.471H91.945C92.988 260.471 93.7878 260.69 94.3444 261.13C94.9069 261.569 95.1882 262.208 95.1882 263.046C95.1882 264.112 94.7604 264.924 93.905 265.48C93.0495 266.043 91.8014 266.324 90.1608 266.324C88.9011 266.324 87.9284 266.09 87.2429 265.621C86.5632 265.152 86.2233 264.49 86.2233 263.635C86.2233 263.049 86.4108 262.542 86.7858 262.114C87.1608 261.687 87.6882 261.396 88.3679 261.244C88.1218 261.133 87.9137 260.96 87.7438 260.726C87.5798 260.491 87.4977 260.219 87.4977 259.908C87.4977 259.557 87.5915 259.249 87.779 258.985C87.9665 258.722 88.2624 258.467 88.6667 258.221C88.1686 258.016 87.7614 257.667 87.445 257.175C87.1345 256.683 86.9792 256.12 86.9792 255.487C86.9792 254.433 87.2956 253.621 87.9284 253.053C88.5612 252.479 89.4577 252.191 90.6179 252.191C91.1218 252.191 91.5759 252.25 91.9802 252.367H95.3112ZM87.6296 263.617C87.6296 264.139 87.8493 264.534 88.2887 264.804C88.7282 265.073 89.3581 265.208 90.1784 265.208C91.403 265.208 92.3083 265.023 92.8942 264.654C93.486 264.291 93.7819 263.796 93.7819 263.169C93.7819 262.647 93.6208 262.284 93.2985 262.079C92.9762 261.88 92.3698 261.78 91.4792 261.78H89.7302C89.068 261.78 88.5524 261.938 88.1833 262.255C87.8141 262.571 87.6296 263.025 87.6296 263.617ZM88.4206 255.452C88.4206 256.126 88.611 256.636 88.9919 256.981C89.3727 257.327 89.903 257.5 90.5827 257.5C92.0065 257.5 92.7184 256.809 92.7184 255.426C92.7184 253.979 91.9977 253.255 90.5563 253.255C89.8708 253.255 89.3434 253.439 88.9743 253.809C88.6052 254.178 88.4206 254.726 88.4206 255.452ZM115.683 262V255.733C115.683 254.966 115.519 254.392 115.191 254.011C114.863 253.624 114.353 253.431 113.661 253.431C112.753 253.431 112.082 253.691 111.649 254.213C111.215 254.734 110.998 255.537 110.998 256.621V262H109.539V255.733C109.539 254.966 109.375 254.392 109.047 254.011C108.719 253.624 108.206 253.431 107.509 253.431C106.595 253.431 105.924 253.706 105.496 254.257C105.074 254.802 104.864 255.698 104.864 256.946V262H103.405V252.367H104.591L104.828 253.686H104.899C105.174 253.217 105.561 252.851 106.059 252.587C106.563 252.323 107.125 252.191 107.746 252.191C109.252 252.191 110.237 252.736 110.699 253.826H110.77C111.057 253.322 111.473 252.924 112.018 252.631C112.563 252.338 113.184 252.191 113.881 252.191C114.971 252.191 115.785 252.473 116.324 253.035C116.869 253.592 117.142 254.485 117.142 255.716V262H115.683ZM122.248 252.367V258.616C122.248 259.401 122.426 259.987 122.784 260.374C123.141 260.761 123.701 260.954 124.462 260.954C125.47 260.954 126.206 260.679 126.668 260.128C127.137 259.577 127.372 258.678 127.372 257.43V252.367H128.831V262H127.626L127.416 260.708H127.336C127.038 261.183 126.622 261.546 126.088 261.798C125.561 262.05 124.958 262.176 124.278 262.176C123.106 262.176 122.227 261.897 121.641 261.341C121.061 260.784 120.771 259.894 120.771 258.669V252.367H122.248ZM134.112 262H132.653V248.324H134.112V262ZM141.037 260.972C141.295 260.972 141.544 260.954 141.784 260.919C142.024 260.878 142.215 260.837 142.356 260.796V261.912C142.197 261.988 141.963 262.05 141.652 262.097C141.348 262.149 141.072 262.176 140.826 262.176C138.963 262.176 138.031 261.194 138.031 259.231V253.501H136.651V252.798L138.031 252.191L138.647 250.135H139.49V252.367H142.285V253.501H139.49V259.17C139.49 259.75 139.628 260.195 139.903 260.506C140.179 260.816 140.557 260.972 141.037 260.972ZM146.468 262H145.009V252.367H146.468V262ZM144.886 249.757C144.886 249.423 144.968 249.18 145.132 249.027C145.296 248.869 145.501 248.79 145.747 248.79C145.982 248.79 146.184 248.869 146.354 249.027C146.524 249.186 146.609 249.429 146.609 249.757C146.609 250.085 146.524 250.331 146.354 250.495C146.184 250.653 145.982 250.732 145.747 250.732C145.501 250.732 145.296 250.653 145.132 250.495C144.968 250.331 144.886 250.085 144.886 249.757ZM154.764 262.176C154.137 262.176 153.563 262.062 153.042 261.833C152.526 261.599 152.092 261.241 151.741 260.761H151.635C151.706 261.323 151.741 261.856 151.741 262.36V266.324H150.282V252.367H151.468L151.671 253.686H151.741C152.116 253.158 152.552 252.777 153.05 252.543C153.548 252.309 154.12 252.191 154.764 252.191C156.042 252.191 157.026 252.628 157.717 253.501C158.415 254.374 158.763 255.599 158.763 257.175C158.763 258.757 158.409 259.987 157.7 260.866C156.997 261.739 156.018 262.176 154.764 262.176ZM154.553 253.431C153.569 253.431 152.857 253.703 152.418 254.248C151.978 254.793 151.753 255.66 151.741 256.85V257.175C151.741 258.528 151.966 259.498 152.418 260.084C152.869 260.664 153.592 260.954 154.589 260.954C155.421 260.954 156.071 260.617 156.54 259.943C157.014 259.27 157.252 258.341 157.252 257.157C157.252 255.956 157.014 255.036 156.54 254.397C156.071 253.753 155.409 253.431 154.553 253.431ZM163.5 262H162.041V248.324H163.5V262ZM171.383 262.176C169.959 262.176 168.834 261.742 168.008 260.875C167.188 260.008 166.778 258.804 166.778 257.263C166.778 255.71 167.158 254.477 167.92 253.562C168.688 252.648 169.716 252.191 171.005 252.191C172.212 252.191 173.167 252.59 173.87 253.387C174.573 254.178 174.925 255.224 174.925 256.524V257.447H168.289C168.319 258.578 168.603 259.437 169.142 260.022C169.687 260.608 170.451 260.901 171.436 260.901C172.473 260.901 173.498 260.685 174.512 260.251V261.552C173.996 261.774 173.507 261.933 173.044 262.026C172.587 262.126 172.033 262.176 171.383 262.176ZM170.988 253.413C170.214 253.413 169.596 253.665 169.133 254.169C168.676 254.673 168.406 255.37 168.324 256.261H173.361C173.361 255.341 173.155 254.638 172.745 254.151C172.335 253.659 171.749 253.413 170.988 253.413ZM188.019 262.176C187.392 262.176 186.818 262.062 186.297 261.833C185.781 261.599 185.347 261.241 184.996 260.761H184.89C184.961 261.323 184.996 261.856 184.996 262.36V266.324H183.537V252.367H184.723L184.926 253.686H184.996C185.371 253.158 185.807 252.777 186.305 252.543C186.803 252.309 187.375 252.191 188.019 252.191C189.297 252.191 190.281 252.628 190.972 253.501C191.67 254.374 192.018 255.599 192.018 257.175C192.018 258.757 191.664 259.987 190.955 260.866C190.252 261.739 189.273 262.176 188.019 262.176ZM187.808 253.431C186.824 253.431 186.112 253.703 185.673 254.248C185.233 254.793 185.008 255.66 184.996 256.85V257.175C184.996 258.528 185.221 259.498 185.673 260.084C186.124 260.664 186.847 260.954 187.844 260.954C188.676 260.954 189.326 260.617 189.795 259.943C190.269 259.27 190.507 258.341 190.507 257.157C190.507 255.956 190.269 255.036 189.795 254.397C189.326 253.753 188.664 253.431 187.808 253.431ZM201.22 262L200.93 260.629H200.859C200.379 261.232 199.898 261.643 199.418 261.859C198.943 262.07 198.349 262.176 197.634 262.176C196.679 262.176 195.929 261.93 195.384 261.438C194.845 260.945 194.575 260.245 194.575 259.337C194.575 257.392 196.131 256.372 199.242 256.278L200.877 256.226V255.628C200.877 254.872 200.713 254.315 200.385 253.958C200.063 253.595 199.544 253.413 198.829 253.413C198.026 253.413 197.118 253.659 196.105 254.151L195.656 253.035C196.131 252.777 196.649 252.575 197.212 252.429C197.78 252.282 198.349 252.209 198.917 252.209C200.065 252.209 200.915 252.464 201.466 252.974C202.022 253.483 202.301 254.301 202.301 255.426V262H201.22ZM197.924 260.972C198.832 260.972 199.544 260.723 200.06 260.225C200.581 259.727 200.842 259.029 200.842 258.133V257.263L199.383 257.324C198.223 257.365 197.385 257.547 196.869 257.869C196.359 258.186 196.105 258.681 196.105 259.354C196.105 259.882 196.263 260.283 196.579 260.559C196.901 260.834 197.35 260.972 197.924 260.972ZM213.919 252.367V253.29L212.135 253.501C212.299 253.706 212.446 253.976 212.575 254.31C212.703 254.638 212.768 255.01 212.768 255.426C212.768 256.369 212.446 257.122 211.801 257.685C211.157 258.247 210.272 258.528 209.147 258.528C208.86 258.528 208.59 258.505 208.338 258.458C207.717 258.786 207.407 259.199 207.407 259.697C207.407 259.961 207.515 260.157 207.732 260.286C207.949 260.409 208.321 260.471 208.848 260.471H210.553C211.596 260.471 212.396 260.69 212.952 261.13C213.515 261.569 213.796 262.208 213.796 263.046C213.796 264.112 213.368 264.924 212.513 265.48C211.658 266.043 210.409 266.324 208.769 266.324C207.509 266.324 206.536 266.09 205.851 265.621C205.171 265.152 204.831 264.49 204.831 263.635C204.831 263.049 205.019 262.542 205.394 262.114C205.769 261.687 206.296 261.396 206.976 261.244C206.73 261.133 206.522 260.96 206.352 260.726C206.188 260.491 206.106 260.219 206.106 259.908C206.106 259.557 206.2 259.249 206.387 258.985C206.575 258.722 206.87 258.467 207.275 258.221C206.777 258.016 206.369 257.667 206.053 257.175C205.742 256.683 205.587 256.12 205.587 255.487C205.587 254.433 205.904 253.621 206.536 253.053C207.169 252.479 208.066 252.191 209.226 252.191C209.73 252.191 210.184 252.25 210.588 252.367H213.919ZM206.238 263.617C206.238 264.139 206.457 264.534 206.897 264.804C207.336 265.073 207.966 265.208 208.786 265.208C210.011 265.208 210.916 265.023 211.502 264.654C212.094 264.291 212.39 263.796 212.39 263.169C212.39 262.647 212.229 262.284 211.907 262.079C211.584 261.88 210.978 261.78 210.087 261.78H208.338C207.676 261.78 207.16 261.938 206.791 262.255C206.422 262.571 206.238 263.025 206.238 263.617ZM207.029 255.452C207.029 256.126 207.219 256.636 207.6 256.981C207.981 257.327 208.511 257.5 209.191 257.5C210.615 257.5 211.326 256.809 211.326 255.426C211.326 253.979 210.606 253.255 209.164 253.255C208.479 253.255 207.951 253.439 207.582 253.809C207.213 254.178 207.029 254.726 207.029 255.452ZM220.686 262.176C219.262 262.176 218.137 261.742 217.311 260.875C216.491 260.008 216.081 258.804 216.081 257.263C216.081 255.71 216.462 254.477 217.223 253.562C217.991 252.648 219.019 252.191 220.308 252.191C221.515 252.191 222.47 252.59 223.173 253.387C223.877 254.178 224.228 255.224 224.228 256.524V257.447H217.592C217.622 258.578 217.906 259.437 218.445 260.022C218.99 260.608 219.754 260.901 220.739 260.901C221.776 260.901 222.801 260.685 223.815 260.251V261.552C223.299 261.774 222.81 261.933 222.347 262.026C221.89 262.126 221.337 262.176 220.686 262.176ZM220.291 253.413C219.517 253.413 218.899 253.665 218.436 254.169C217.979 254.673 217.71 255.37 217.628 256.261H222.664C222.664 255.341 222.459 254.638 222.048 254.151C221.638 253.659 221.052 253.413 220.291 253.413ZM233.658 259.372C233.658 260.269 233.324 260.96 232.656 261.446C231.988 261.933 231.051 262.176 229.844 262.176C228.566 262.176 227.57 261.974 226.855 261.569V260.216C227.318 260.45 227.813 260.635 228.341 260.77C228.874 260.904 229.387 260.972 229.879 260.972C230.641 260.972 231.226 260.852 231.637 260.611C232.047 260.365 232.252 259.993 232.252 259.495C232.252 259.12 232.088 258.801 231.76 258.537C231.437 258.268 230.805 257.951 229.861 257.588C228.965 257.254 228.326 256.964 227.945 256.718C227.57 256.466 227.289 256.182 227.101 255.865C226.92 255.549 226.829 255.171 226.829 254.731C226.829 253.946 227.148 253.328 227.787 252.877C228.426 252.42 229.302 252.191 230.415 252.191C231.452 252.191 232.466 252.402 233.456 252.824L232.937 254.011C231.971 253.612 231.095 253.413 230.309 253.413C229.618 253.413 229.097 253.521 228.745 253.738C228.393 253.955 228.218 254.254 228.218 254.635C228.218 254.893 228.282 255.112 228.411 255.294C228.546 255.476 228.76 255.648 229.053 255.812C229.346 255.977 229.908 256.214 230.74 256.524C231.883 256.94 232.653 257.359 233.052 257.781C233.456 258.203 233.658 258.733 233.658 259.372ZM243.615 262H242.156V252.367H243.615V262ZM242.033 249.757C242.033 249.423 242.115 249.18 242.279 249.027C242.443 248.869 242.648 248.79 242.894 248.79C243.128 248.79 243.331 248.869 243.5 249.027C243.67 249.186 243.755 249.429 243.755 249.757C243.755 250.085 243.67 250.331 243.5 250.495C243.331 250.653 243.128 250.732 242.894 250.732C242.648 250.732 242.443 250.653 242.279 250.495C242.115 250.331 242.033 250.085 242.033 249.757ZM254.02 262V255.769C254.02 254.983 253.842 254.397 253.484 254.011C253.127 253.624 252.567 253.431 251.805 253.431C250.798 253.431 250.059 253.703 249.591 254.248C249.122 254.793 248.887 255.692 248.887 256.946V262H247.428V252.367H248.615L248.852 253.686H248.923C249.221 253.211 249.64 252.845 250.179 252.587C250.718 252.323 251.319 252.191 251.981 252.191C253.141 252.191 254.014 252.473 254.6 253.035C255.186 253.592 255.479 254.485 255.479 255.716V262H254.02ZM270.525 262L270.235 260.629H270.164C269.684 261.232 269.203 261.643 268.723 261.859C268.248 262.07 267.654 262.176 266.939 262.176C265.984 262.176 265.234 261.93 264.689 261.438C264.15 260.945 263.88 260.245 263.88 259.337C263.88 257.392 265.436 256.372 268.547 256.278L270.182 256.226V255.628C270.182 254.872 270.018 254.315 269.69 253.958C269.367 253.595 268.849 253.413 268.134 253.413C267.331 253.413 266.423 253.659 265.409 254.151L264.961 253.035C265.436 252.777 265.954 252.575 266.517 252.429C267.085 252.282 267.654 252.209 268.222 252.209C269.37 252.209 270.22 252.464 270.771 252.974C271.327 253.483 271.606 254.301 271.606 255.426V262H270.525ZM267.229 260.972C268.137 260.972 268.849 260.723 269.365 260.225C269.886 259.727 270.147 259.029 270.147 258.133V257.263L268.688 257.324C267.528 257.365 266.69 257.547 266.174 257.869C265.664 258.186 265.409 258.681 265.409 259.354C265.409 259.882 265.568 260.283 265.884 260.559C266.206 260.834 266.655 260.972 267.229 260.972ZM26.2773 285.972C26.5352 285.972 26.7842 285.954 27.0244 285.919C27.2646 285.878 27.4551 285.837 27.5957 285.796V286.912C27.4375 286.988 27.2031 287.05 26.8926 287.097C26.5879 287.149 26.3125 287.176 26.0664 287.176C24.2031 287.176 23.2715 286.194 23.2715 284.231V278.501H21.8916V277.798L23.2715 277.191L23.8867 275.135H24.7305V277.367H27.5254V278.501H24.7305V284.17C24.7305 284.75 24.8682 285.195 25.1436 285.506C25.4189 285.816 25.7969 285.972 26.2773 285.972ZM31.7083 287H30.2493V277.367H31.7083V287ZM30.1263 274.757C30.1263 274.423 30.2083 274.18 30.3723 274.027C30.5364 273.869 30.7415 273.79 30.9876 273.79C31.222 273.79 31.4241 273.869 31.594 274.027C31.7639 274.186 31.8489 274.429 31.8489 274.757C31.8489 275.085 31.7639 275.331 31.594 275.495C31.4241 275.653 31.222 275.732 30.9876 275.732C30.7415 275.732 30.5364 275.653 30.3723 275.495C30.2083 275.331 30.1263 275.085 30.1263 274.757ZM47.8004 287V280.733C47.8004 279.966 47.6363 279.392 47.3082 279.011C46.98 278.624 46.4703 278.431 45.7789 278.431C44.8707 278.431 44.1998 278.691 43.7662 279.213C43.3326 279.734 43.1158 280.537 43.1158 281.621V287H41.6568V280.733C41.6568 279.966 41.4927 279.392 41.1646 279.011C40.8365 278.624 40.3238 278.431 39.6265 278.431C38.7125 278.431 38.0416 278.706 37.6138 279.257C37.192 279.802 36.981 280.698 36.981 281.946V287H35.522V277.367H36.7086L36.9459 278.686H37.0162C37.2916 278.217 37.6783 277.851 38.1763 277.587C38.6802 277.323 39.2427 277.191 39.8638 277.191C41.3697 277.191 42.3541 277.736 42.817 278.826H42.8873C43.1744 278.322 43.5904 277.924 44.1353 277.631C44.6802 277.338 45.3013 277.191 45.9986 277.191C47.0884 277.191 47.9029 277.473 48.442 278.035C48.9869 278.592 49.2593 279.485 49.2593 280.716V287H47.8004ZM57.0633 287.176C55.6395 287.176 54.5145 286.742 53.6883 285.875C52.868 285.008 52.4579 283.804 52.4579 282.263C52.4579 280.71 52.8387 279.477 53.6004 278.562C54.368 277.648 55.3963 277.191 56.6854 277.191C57.8924 277.191 58.8475 277.59 59.5506 278.387C60.2537 279.178 60.6053 280.224 60.6053 281.524V282.447H53.9696C53.9989 283.578 54.283 284.437 54.8221 285.022C55.367 285.608 56.1317 285.901 57.1161 285.901C58.1532 285.901 59.1786 285.685 60.1922 285.251V286.552C59.6766 286.774 59.1873 286.933 58.7245 287.026C58.2674 287.126 57.7137 287.176 57.0633 287.176ZM56.6678 278.413C55.8944 278.413 55.2762 278.665 54.8133 279.169C54.3563 279.673 54.0868 280.37 54.0047 281.261H59.0409C59.0409 280.341 58.8358 279.638 58.4256 279.151C58.0155 278.659 57.4295 278.413 56.6678 278.413ZM65.2804 287H63.8214V273.324H65.2804V287ZM67.5648 277.367H69.1293L71.2387 282.86C71.7016 284.114 71.9887 285.02 72.1 285.576H72.1703C72.2465 285.277 72.4047 284.768 72.6449 284.047C72.891 283.32 73.6879 281.094 75.0355 277.367H76.6L72.4604 288.336C72.0502 289.42 71.5697 290.188 71.0189 290.639C70.474 291.096 69.8031 291.324 69.0062 291.324C68.5609 291.324 68.1215 291.274 67.6879 291.175V290.006C68.0102 290.076 68.3705 290.111 68.7689 290.111C69.7709 290.111 70.4857 289.549 70.9135 288.424L71.4496 287.053L67.5648 277.367ZM96.5586 287V280.733C96.5586 279.966 96.3945 279.392 96.0664 279.011C95.7382 278.624 95.2285 278.431 94.5371 278.431C93.6289 278.431 92.958 278.691 92.5244 279.213C92.0908 279.734 91.874 280.537 91.874 281.621V287H90.415V280.733C90.415 279.966 90.2509 279.392 89.9228 279.011C89.5947 278.624 89.082 278.431 88.3847 278.431C87.4707 278.431 86.7998 278.706 86.372 279.257C85.9502 279.802 85.7392 280.698 85.7392 281.946V287H84.2802V277.367H85.4668L85.7041 278.686H85.7744C86.0498 278.217 86.4365 277.851 86.9345 277.587C87.4384 277.323 88.0009 277.191 88.622 277.191C90.1279 277.191 91.1123 277.736 91.5752 278.826H91.6455C91.9326 278.322 92.3486 277.924 92.8935 277.631C93.4384 277.338 94.0595 277.191 94.7568 277.191C95.8466 277.191 96.6611 277.473 97.2002 278.035C97.7451 278.592 98.0175 279.485 98.0175 280.716V287H96.5586ZM107.676 287L107.386 285.629H107.316C106.835 286.232 106.355 286.643 105.874 286.859C105.4 287.07 104.805 287.176 104.09 287.176C103.135 287.176 102.385 286.93 101.84 286.438C101.301 285.945 101.031 285.245 101.031 284.337C101.031 282.392 102.587 281.372 105.698 281.278L107.333 281.226V280.628C107.333 279.872 107.169 279.315 106.841 278.958C106.519 278.595 106 278.413 105.285 278.413C104.483 278.413 103.574 278.659 102.561 279.151L102.113 278.035C102.587 277.777 103.106 277.575 103.668 277.429C104.237 277.282 104.805 277.209 105.373 277.209C106.522 277.209 107.371 277.464 107.922 277.974C108.479 278.483 108.757 279.301 108.757 280.426V287H107.676ZM104.38 285.972C105.288 285.972 106 285.723 106.516 285.225C107.037 284.727 107.298 284.029 107.298 283.133V282.263L105.839 282.324C104.679 282.365 103.841 282.547 103.325 282.869C102.816 283.186 102.561 283.681 102.561 284.354C102.561 284.882 102.719 285.283 103.035 285.559C103.358 285.834 103.806 285.972 104.38 285.972ZM119.084 287V280.769C119.084 279.983 118.905 279.397 118.547 279.011C118.19 278.624 117.63 278.431 116.869 278.431C115.861 278.431 115.123 278.703 114.654 279.248C114.185 279.793 113.951 280.692 113.951 281.946V287H112.492V277.367H113.678L113.916 278.686H113.986C114.285 278.211 114.704 277.845 115.243 277.587C115.782 277.323 116.382 277.191 117.044 277.191C118.205 277.191 119.078 277.473 119.664 278.035C120.25 278.592 120.543 279.485 120.543 280.716V287H119.084ZM130.86 287V280.769C130.86 279.983 130.681 279.397 130.324 279.011C129.967 278.624 129.407 278.431 128.645 278.431C127.637 278.431 126.899 278.703 126.43 279.248C125.962 279.793 125.727 280.692 125.727 281.946V287H124.268V277.367H125.455L125.692 278.686H125.762C126.061 278.211 126.48 277.845 127.019 277.587C127.558 277.323 128.159 277.191 128.821 277.191C129.981 277.191 130.854 277.473 131.44 278.035C132.026 278.592 132.319 279.485 132.319 280.716V287H130.86ZM140.114 287.176C138.691 287.176 137.566 286.742 136.739 285.875C135.919 285.008 135.509 283.804 135.509 282.263C135.509 280.71 135.89 279.477 136.651 278.562C137.419 277.648 138.447 277.191 139.736 277.191C140.943 277.191 141.899 277.59 142.602 278.387C143.305 279.178 143.656 280.224 143.656 281.524V282.447H137.021C137.05 283.578 137.334 284.437 137.873 285.022C138.418 285.608 139.183 285.901 140.167 285.901C141.204 285.901 142.23 285.685 143.243 285.251V286.552C142.728 286.774 142.238 286.933 141.775 287.026C141.318 287.126 140.765 287.176 140.114 287.176ZM139.719 278.413C138.945 278.413 138.327 278.665 137.864 279.169C137.407 279.673 137.138 280.37 137.056 281.261H142.092C142.092 280.341 141.887 279.638 141.477 279.151C141.066 278.659 140.481 278.413 139.719 278.413ZM151.267 277.191C151.695 277.191 152.078 277.227 152.418 277.297L152.216 278.65C151.818 278.562 151.466 278.519 151.161 278.519C150.382 278.519 149.714 278.835 149.158 279.468C148.607 280.101 148.331 280.889 148.331 281.832V287H146.872V277.367H148.077L148.244 279.151H148.314C148.671 278.524 149.102 278.041 149.606 277.701C150.11 277.361 150.663 277.191 151.267 277.191ZM164.818 277.209C166.084 277.209 167.065 277.643 167.763 278.51C168.466 279.371 168.817 280.593 168.817 282.175C168.817 283.757 168.463 284.987 167.754 285.866C167.051 286.739 166.072 287.176 164.818 287.176C164.191 287.176 163.617 287.062 163.096 286.833C162.58 286.599 162.146 286.241 161.795 285.761H161.689L161.382 287H160.336V273.324H161.795V276.646C161.795 277.391 161.771 278.059 161.725 278.65H161.795C162.475 277.689 163.482 277.209 164.818 277.209ZM164.607 278.431C163.611 278.431 162.893 278.718 162.454 279.292C162.015 279.86 161.795 280.821 161.795 282.175C161.795 283.528 162.02 284.498 162.472 285.084C162.923 285.664 163.646 285.954 164.643 285.954C165.539 285.954 166.207 285.629 166.646 284.979C167.086 284.322 167.306 283.382 167.306 282.157C167.306 280.903 167.086 279.969 166.646 279.354C166.207 278.738 165.527 278.431 164.607 278.431ZM170.566 277.367H172.13L174.239 282.86C174.702 284.114 174.989 285.02 175.101 285.576H175.171C175.247 285.277 175.405 284.768 175.646 284.047C175.892 283.32 176.689 281.094 178.036 277.367H179.601L175.461 288.336C175.051 289.42 174.571 290.188 174.02 290.639C173.475 291.096 172.804 291.324 172.007 291.324C171.562 291.324 171.122 291.274 170.689 291.175V290.006C171.011 290.076 171.371 290.111 171.77 290.111C172.772 290.111 173.487 289.549 173.914 288.424L174.45 287.053L170.566 277.367ZM191.131 287.176C189.736 287.176 188.655 286.748 187.887 285.893C187.126 285.031 186.745 283.815 186.745 282.245C186.745 280.634 187.132 279.389 187.905 278.51C188.684 277.631 189.792 277.191 191.227 277.191C191.69 277.191 192.153 277.241 192.616 277.341C193.079 277.44 193.442 277.558 193.706 277.692L193.258 278.932C192.935 278.803 192.584 278.697 192.203 278.615C191.822 278.527 191.485 278.483 191.192 278.483C189.235 278.483 188.257 279.731 188.257 282.228C188.257 283.411 188.494 284.319 188.969 284.952C189.449 285.585 190.158 285.901 191.095 285.901C191.898 285.901 192.721 285.729 193.565 285.383V286.675C192.921 287.009 192.109 287.176 191.131 287.176ZM200.974 277.191C201.401 277.191 201.785 277.227 202.125 277.297L201.923 278.65C201.524 278.562 201.173 278.519 200.868 278.519C200.089 278.519 199.421 278.835 198.864 279.468C198.314 280.101 198.038 280.889 198.038 281.832V287H196.579V277.367H197.783L197.95 279.151H198.021C198.378 278.524 198.809 278.041 199.313 277.701C199.816 277.361 200.37 277.191 200.974 277.191ZM208.716 287.176C207.292 287.176 206.167 286.742 205.341 285.875C204.521 285.008 204.111 283.804 204.111 282.263C204.111 280.71 204.492 279.477 205.253 278.562C206.021 277.648 207.049 277.191 208.338 277.191C209.545 277.191 210.5 277.59 211.203 278.387C211.907 279.178 212.258 280.224 212.258 281.524V282.447H205.622C205.652 283.578 205.936 284.437 206.475 285.022C207.02 285.608 207.785 285.901 208.769 285.901C209.806 285.901 210.831 285.685 211.845 285.251V286.552C211.329 286.774 210.84 286.933 210.377 287.026C209.92 287.126 209.367 287.176 208.716 287.176ZM208.321 278.413C207.547 278.413 206.929 278.665 206.466 279.169C206.009 279.673 205.74 280.37 205.658 281.261H210.694C210.694 280.341 210.489 279.638 210.078 279.151C209.668 278.659 209.082 278.413 208.321 278.413ZM221.398 287L221.108 285.629H221.038C220.557 286.232 220.077 286.643 219.596 286.859C219.122 287.07 218.527 287.176 217.812 287.176C216.857 287.176 216.107 286.93 215.562 286.438C215.023 285.945 214.754 285.245 214.754 284.337C214.754 282.392 216.309 281.372 219.421 281.278L221.055 281.226V280.628C221.055 279.872 220.891 279.315 220.563 278.958C220.241 278.595 219.722 278.413 219.007 278.413C218.205 278.413 217.296 278.659 216.283 279.151L215.835 278.035C216.309 277.777 216.828 277.575 217.39 277.429C217.959 277.282 218.527 277.209 219.095 277.209C220.244 277.209 221.093 277.464 221.644 277.974C222.201 278.483 222.479 279.301 222.479 280.426V287H221.398ZM218.102 285.972C219.01 285.972 219.722 285.723 220.238 285.225C220.759 284.727 221.02 284.029 221.02 283.133V282.263L219.561 282.324C218.401 282.365 217.563 282.547 217.047 282.869C216.538 283.186 216.283 283.681 216.283 284.354C216.283 284.882 216.441 285.283 216.757 285.559C217.08 285.834 217.528 285.972 218.102 285.972ZM229.325 285.972C229.583 285.972 229.832 285.954 230.072 285.919C230.312 285.878 230.503 285.837 230.643 285.796V286.912C230.485 286.988 230.251 287.05 229.94 287.097C229.636 287.149 229.36 287.176 229.114 287.176C227.251 287.176 226.319 286.194 226.319 284.231V278.501H224.939V277.798L226.319 277.191L226.934 275.135H227.778V277.367H230.573V278.501H227.778V284.17C227.778 284.75 227.916 285.195 228.191 285.506C228.467 285.816 228.845 285.972 229.325 285.972ZM234.756 287H233.297V277.367H234.756V287ZM233.174 274.757C233.174 274.423 233.256 274.18 233.42 274.027C233.584 273.869 233.789 273.79 234.035 273.79C234.27 273.79 234.472 273.869 234.642 274.027C234.812 274.186 234.897 274.429 234.897 274.757C234.897 275.085 234.812 275.331 234.642 275.495C234.472 275.653 234.27 275.732 234.035 275.732C233.789 275.732 233.584 275.653 233.42 275.495C233.256 275.331 233.174 275.085 233.174 274.757ZM245.162 287V280.769C245.162 279.983 244.983 279.397 244.625 279.011C244.268 278.624 243.708 278.431 242.947 278.431C241.939 278.431 241.201 278.703 240.732 279.248C240.263 279.793 240.029 280.692 240.029 281.946V287H238.57V277.367H239.756L239.994 278.686H240.064C240.363 278.211 240.782 277.845 241.321 277.587C241.86 277.323 242.46 277.191 243.122 277.191C244.283 277.191 245.156 277.473 245.742 278.035C246.328 278.592 246.621 279.485 246.621 280.716V287H245.162ZM258.23 277.367V278.29L256.446 278.501C256.61 278.706 256.757 278.976 256.885 279.31C257.014 279.638 257.079 280.01 257.079 280.426C257.079 281.369 256.757 282.122 256.112 282.685C255.467 283.247 254.583 283.528 253.458 283.528C253.171 283.528 252.901 283.505 252.649 283.458C252.028 283.786 251.717 284.199 251.717 284.697C251.717 284.961 251.826 285.157 252.043 285.286C252.259 285.409 252.632 285.471 253.159 285.471H254.864C255.907 285.471 256.707 285.69 257.263 286.13C257.826 286.569 258.107 287.208 258.107 288.046C258.107 289.112 257.679 289.924 256.824 290.48C255.968 291.043 254.72 291.324 253.08 291.324C251.82 291.324 250.847 291.09 250.162 290.621C249.482 290.152 249.142 289.49 249.142 288.635C249.142 288.049 249.33 287.542 249.705 287.114C250.08 286.687 250.607 286.396 251.287 286.244C251.041 286.133 250.833 285.96 250.663 285.726C250.499 285.491 250.417 285.219 250.417 284.908C250.417 284.557 250.51 284.249 250.698 283.985C250.885 283.722 251.181 283.467 251.586 283.221C251.088 283.016 250.68 282.667 250.364 282.175C250.053 281.683 249.898 281.12 249.898 280.487C249.898 279.433 250.215 278.621 250.847 278.053C251.48 277.479 252.377 277.191 253.537 277.191C254.041 277.191 254.495 277.25 254.899 277.367H258.23ZM250.549 288.617C250.549 289.139 250.768 289.534 251.208 289.804C251.647 290.073 252.277 290.208 253.097 290.208C254.322 290.208 255.227 290.023 255.813 289.654C256.405 289.291 256.701 288.796 256.701 288.169C256.701 287.647 256.54 287.284 256.217 287.079C255.895 286.88 255.289 286.78 254.398 286.78H252.649C251.987 286.78 251.471 286.938 251.102 287.255C250.733 287.571 250.549 288.025 250.549 288.617ZM251.34 280.452C251.34 281.126 251.53 281.636 251.911 281.981C252.292 282.327 252.822 282.5 253.502 282.5C254.926 282.5 255.637 281.809 255.637 280.426C255.637 278.979 254.917 278.255 253.475 278.255C252.79 278.255 252.262 278.439 251.893 278.809C251.524 279.178 251.34 279.726 251.34 280.452ZM71.5814 312H70.1225V298.324H71.5814V312ZM83.7096 307.175C83.7096 308.745 83.3141 309.973 82.5231 310.857C81.7321 311.736 80.6393 312.176 79.2448 312.176C78.3835 312.176 77.6188 311.974 76.9509 311.569C76.2829 311.165 75.7673 310.585 75.404 309.829C75.0407 309.073 74.8591 308.188 74.8591 307.175C74.8591 305.604 75.2516 304.383 76.0368 303.51C76.822 302.631 77.9118 302.191 79.3063 302.191C80.654 302.191 81.7233 302.64 82.5143 303.536C83.3112 304.433 83.7096 305.646 83.7096 307.175ZM76.3708 307.175C76.3708 308.405 76.6169 309.343 77.1091 309.987C77.6012 310.632 78.3249 310.954 79.28 310.954C80.235 310.954 80.9587 310.635 81.4509 309.996C81.9489 309.352 82.1979 308.411 82.1979 307.175C82.1979 305.95 81.9489 305.021 81.4509 304.389C80.9587 303.75 80.2292 303.431 79.2624 303.431C78.3073 303.431 77.5866 303.744 77.1003 304.371C76.6139 304.998 76.3708 305.933 76.3708 307.175ZM86.1875 307.843V306.507H90.5029V307.843H86.1875ZM97.8586 303.501H95.4065V312H93.9475V303.501H92.2248V302.842L93.9475 302.314V301.778C93.9475 299.411 94.9817 298.228 97.05 298.228C97.5598 298.228 98.1575 298.33 98.843 298.535L98.4651 299.704C97.9026 299.522 97.4221 299.432 97.0237 299.432C96.4729 299.432 96.0657 299.616 95.802 299.985C95.5383 300.349 95.4065 300.935 95.4065 301.743V302.367H97.8586V303.501ZM101.075 312H99.6164V302.367H101.075V312ZM99.4934 299.757C99.4934 299.423 99.5754 299.18 99.7395 299.027C99.9035 298.869 100.109 298.79 100.355 298.79C100.589 298.79 100.791 298.869 100.961 299.027C101.131 299.186 101.216 299.429 101.216 299.757C101.216 300.085 101.131 300.331 100.961 300.495C100.791 300.653 100.589 300.732 100.355 300.732C100.109 300.732 99.9035 300.653 99.7395 300.495C99.5754 300.331 99.4934 300.085 99.4934 299.757ZM114.767 312.176C114.14 312.176 113.566 312.062 113.045 311.833C112.529 311.599 112.096 311.241 111.744 310.761H111.638C111.709 311.323 111.744 311.856 111.744 312.36V316.324H110.285V302.367H111.471L111.674 303.686H111.744C112.119 303.158 112.555 302.777 113.054 302.543C113.552 302.309 114.123 302.191 114.767 302.191C116.045 302.191 117.029 302.628 117.721 303.501C118.418 304.374 118.766 305.599 118.766 307.175C118.766 308.757 118.412 309.987 117.703 310.866C117 311.739 116.021 312.176 114.767 312.176ZM114.556 303.431C113.572 303.431 112.86 303.703 112.421 304.248C111.981 304.793 111.756 305.66 111.744 306.85V307.175C111.744 308.528 111.97 309.498 112.421 310.084C112.872 310.664 113.596 310.954 114.592 310.954C115.424 310.954 116.074 310.617 116.543 309.943C117.017 309.27 117.255 308.341 117.255 307.157C117.255 305.956 117.017 305.036 116.543 304.397C116.074 303.753 115.412 303.431 114.556 303.431ZM126.439 302.191C126.866 302.191 127.25 302.227 127.59 302.297L127.388 303.65C126.989 303.562 126.638 303.519 126.333 303.519C125.554 303.519 124.886 303.835 124.329 304.468C123.778 305.101 123.503 305.889 123.503 306.832V312H122.044V302.367H123.248L123.415 304.151H123.485C123.843 303.524 124.274 303.041 124.777 302.701C125.281 302.361 125.835 302.191 126.439 302.191ZM138.426 307.175C138.426 308.745 138.031 309.973 137.24 310.857C136.449 311.736 135.356 312.176 133.961 312.176C133.1 312.176 132.335 311.974 131.667 311.569C130.999 311.165 130.484 310.585 130.12 309.829C129.757 309.073 129.576 308.188 129.576 307.175C129.576 305.604 129.968 304.383 130.753 303.51C131.538 302.631 132.628 302.191 134.023 302.191C135.37 302.191 136.44 302.64 137.231 303.536C138.028 304.433 138.426 305.646 138.426 307.175ZM131.087 307.175C131.087 308.405 131.333 309.343 131.826 309.987C132.318 310.632 133.041 310.954 133.996 310.954C134.952 310.954 135.675 310.635 136.167 309.996C136.665 309.352 136.914 308.411 136.914 307.175C136.914 305.95 136.665 305.021 136.167 304.389C135.675 303.75 134.946 303.431 133.979 303.431C133.024 303.431 132.303 303.744 131.817 304.371C131.33 304.998 131.087 305.933 131.087 307.175ZM144.824 310.972C145.082 310.972 145.331 310.954 145.571 310.919C145.811 310.878 146.002 310.837 146.142 310.796V311.912C145.984 311.988 145.75 312.05 145.439 312.097C145.134 312.149 144.859 312.176 144.613 312.176C142.75 312.176 141.818 311.194 141.818 309.231V303.501H140.438V302.798L141.818 302.191L142.433 300.135H143.277V302.367H146.072V303.501H143.277V309.17C143.277 309.75 143.415 310.195 143.69 310.506C143.965 310.816 144.343 310.972 144.824 310.972ZM157.11 307.175C157.11 308.745 156.715 309.973 155.924 310.857C155.133 311.736 154.04 312.176 152.645 312.176C151.784 312.176 151.019 311.974 150.351 311.569C149.684 311.165 149.168 310.585 148.805 309.829C148.441 309.073 148.26 308.188 148.26 307.175C148.26 305.604 148.652 304.383 149.437 303.51C150.223 302.631 151.312 302.191 152.707 302.191C154.055 302.191 155.124 302.64 155.915 303.536C156.712 304.433 157.11 305.646 157.11 307.175ZM149.771 307.175C149.771 308.405 150.018 309.343 150.51 309.987C151.002 310.632 151.726 310.954 152.681 310.954C153.636 310.954 154.359 310.635 154.851 309.996C155.35 309.352 155.599 308.411 155.599 307.175C155.599 305.95 155.35 305.021 154.851 304.389C154.359 303.75 153.63 303.431 152.663 303.431C151.708 303.431 150.987 303.744 150.501 304.371C150.015 304.998 149.771 305.933 149.771 307.175ZM163.508 310.972C163.766 310.972 164.015 310.954 164.255 310.919C164.495 310.878 164.686 310.837 164.826 310.796V311.912C164.668 311.988 164.434 312.05 164.123 312.097C163.819 312.149 163.543 312.176 163.297 312.176C161.434 312.176 160.502 311.194 160.502 309.231V303.501H159.122V302.798L160.502 302.191L161.117 300.135H161.961V302.367H164.756V303.501H161.961V309.17C161.961 309.75 162.099 310.195 162.374 310.506C162.65 310.816 163.028 310.972 163.508 310.972ZM165.951 302.367H167.515L169.624 307.86C170.087 309.114 170.374 310.02 170.486 310.576H170.556C170.632 310.277 170.79 309.768 171.031 309.047C171.277 308.32 172.074 306.094 173.421 302.367H174.986L170.846 313.336C170.436 314.42 169.956 315.188 169.405 315.639C168.86 316.096 168.189 316.324 167.392 316.324C166.947 316.324 166.507 316.274 166.074 316.175V315.006C166.396 315.076 166.756 315.111 167.155 315.111C168.157 315.111 168.872 314.549 169.299 313.424L169.835 312.053L165.951 302.367ZM181.753 312.176C181.126 312.176 180.552 312.062 180.03 311.833C179.514 311.599 179.081 311.241 178.729 310.761H178.624C178.694 311.323 178.729 311.856 178.729 312.36V316.324H177.27V302.367H178.457L178.659 303.686H178.729C179.104 303.158 179.541 302.777 180.039 302.543C180.537 302.309 181.108 302.191 181.753 302.191C183.03 302.191 184.014 302.628 184.706 303.501C185.403 304.374 185.752 305.599 185.752 307.175C185.752 308.757 185.397 309.987 184.688 310.866C183.985 311.739 183.007 312.176 181.753 312.176ZM181.542 303.431C180.557 303.431 179.845 303.703 179.406 304.248C178.967 304.793 178.741 305.66 178.729 306.85V307.175C178.729 308.528 178.955 309.498 179.406 310.084C179.857 310.664 180.581 310.954 181.577 310.954C182.409 310.954 183.059 310.617 183.528 309.943C184.003 309.27 184.24 308.341 184.24 307.157C184.24 305.956 184.003 305.036 183.528 304.397C183.059 303.753 182.397 303.431 181.542 303.431ZM193.099 312.176C191.675 312.176 190.55 311.742 189.724 310.875C188.903 310.008 188.493 308.804 188.493 307.263C188.493 305.71 188.874 304.477 189.636 303.562C190.403 302.648 191.432 302.191 192.721 302.191C193.928 302.191 194.883 302.59 195.586 303.387C196.289 304.178 196.641 305.224 196.641 306.524V307.447H190.005C190.034 308.578 190.318 309.437 190.857 310.022C191.402 310.608 192.167 310.901 193.151 310.901C194.189 310.901 195.214 310.685 196.228 310.251V311.552C195.712 311.774 195.223 311.933 194.76 312.026C194.303 312.126 193.749 312.176 193.099 312.176ZM192.703 303.413C191.93 303.413 191.312 303.665 190.849 304.169C190.392 304.673 190.122 305.37 190.04 306.261H195.076C195.076 305.341 194.871 304.638 194.461 304.151C194.051 303.659 193.465 303.413 192.703 303.413ZM206.071 309.372C206.071 310.269 205.737 310.96 205.069 311.446C204.401 311.933 203.463 312.176 202.256 312.176C200.979 312.176 199.983 311.974 199.268 311.569V310.216C199.731 310.45 200.226 310.635 200.753 310.77C201.286 310.904 201.799 310.972 202.291 310.972C203.053 310.972 203.639 310.852 204.049 310.611C204.459 310.365 204.664 309.993 204.664 309.495C204.664 309.12 204.5 308.801 204.172 308.537C203.85 308.268 203.217 307.951 202.274 307.588C201.377 307.254 200.739 306.964 200.358 306.718C199.983 306.466 199.701 306.182 199.514 305.865C199.332 305.549 199.242 305.171 199.242 304.731C199.242 303.946 199.561 303.328 200.2 302.877C200.838 302.42 201.714 302.191 202.827 302.191C203.865 302.191 204.878 302.402 205.868 302.824L205.35 304.011C204.383 303.612 203.507 303.413 202.722 303.413C202.031 303.413 201.509 303.521 201.158 303.738C200.806 303.955 200.63 304.254 200.63 304.635C200.63 304.893 200.695 305.112 200.824 305.294C200.958 305.476 201.172 305.648 201.465 305.812C201.758 305.977 202.321 306.214 203.153 306.524C204.295 306.94 205.066 307.359 205.464 307.781C205.868 308.203 206.071 308.733 206.071 309.372ZM208.962 311.068C208.962 310.676 209.049 310.38 209.225 310.181C209.407 309.976 209.665 309.873 209.999 309.873C210.338 309.873 210.602 309.976 210.79 310.181C210.983 310.38 211.08 310.676 211.08 311.068C211.08 311.449 210.983 311.742 210.79 311.947C210.596 312.152 210.333 312.255 209.999 312.255C209.7 312.255 209.451 312.164 209.252 311.982C209.058 311.795 208.962 311.49 208.962 311.068Z" fill="#3D5A80"/>
</svg>
