<svg width="49" height="49" viewBox="0 0 49 49" fill="none" xmlns="http://www.w3.org/2000/svg">
<path d="M19.7188 19.4141C19.7188 17.1027 18.1463 17.1027 18.1463 17.1027H17.3136H11.6768V22.0623H17.7452C18.7939 22.0618 19.7188 21.7265 19.7188 19.4141Z" fill="#98C1D9"/>
<path d="M18.1468 25.488H11.6768V31.4281H17.848C18.7764 31.4016 20.4897 31.1108 20.4897 28.5408C20.4897 25.4569 18.1468 25.488 18.1468 25.488Z" fill="#98C1D9"/>
<path d="M34.71 22.0618C31.2768 22.0618 30.798 25.488 30.798 25.488H38.0992C38.0997 25.488 38.1433 22.0618 34.71 22.0618Z" fill="#98C1D9"/>
<path d="M24.5 0C10.969 0 0 10.9695 0 24.5C0 38.0305 10.969 49 24.5 49C38.031 49 49 38.0305 49 24.5C49 10.9695 38.031 0 24.5 0ZM29.8416 14.4609H39.012V17.1979H29.8416V14.4609ZM25.2068 28.8165C25.2068 35.6003 18.1468 35.3772 18.1468 35.3772H11.6768H11.4868H6.58079V13.1515H11.4868H11.6768H18.1463C21.6613 13.1515 24.4358 15.092 24.4358 19.0691C24.4358 23.0468 21.0442 23.2989 21.0442 23.2989C25.5151 23.2989 25.2068 28.8165 25.2068 28.8165ZM34.7537 32.322C38.4481 32.322 38.3172 29.9309 38.3172 29.9309H42.2287C42.2287 36.2765 34.6233 35.8419 34.6233 35.8419C25.4965 35.8419 26.0835 27.3453 26.0835 27.3453C26.0835 27.3453 26.0765 18.8065 34.6223 18.8065C43.6188 18.8065 42.3591 28.4536 42.3591 28.4536H30.8422C30.8422 32.5836 34.7537 32.322 34.7537 32.322Z" fill="#98C1D9"/>
</svg>
