<svg width="1440" height="879" viewBox="0 0 1440 879" fill="none" xmlns="http://www.w3.org/2000/svg">
<mask id="mask0" mask-type="alpha" maskUnits="userSpaceOnUse" x="0" y="0" width="1440" height="879">
<rect width="1440" height="879" fill="#030A49"/>
</mask>
<g mask="url(#mask0)">
<rect x="-772" y="-701" width="1540" height="2198" fill="#030A49"/>
<line x1="113" y1="-701" x2="113" y2="1497" stroke="#3D5A80" stroke-width="2"/>
<line x1="341" y1="-701" x2="341" y2="1497" stroke="#3D5A80" stroke-width="2"/>
<line x1="645" y1="-701" x2="645" y2="1497" stroke="#3D5A80" stroke-width="2"/>
<line x1="189" y1="-701" x2="189" y2="1497" stroke="#3D5A80" stroke-width="2"/>
<line x1="417" y1="-701" x2="417" y2="1497" stroke="#3D5A80" stroke-width="2"/>
<line x1="721" y1="-701" x2="721" y2="1497" stroke="#3D5A80" stroke-width="2"/>
<line x1="37.0002" y1="-701" x2="37.0001" y2="1497" stroke="#3D5A80" stroke-width="2"/>
<line x1="265" y1="-701" x2="265" y2="1497" stroke="#3D5A80" stroke-width="2"/>
<line x1="569" y1="-701" x2="569" y2="1497" stroke="#3D5A80" stroke-width="2"/>
<line x1="493" y1="-701" x2="493" y2="1497" stroke="#3D5A80" stroke-width="2"/>
<line x1="797" y1="-701" x2="797" y2="1497" stroke="#3D5A80" stroke-width="2"/>
<line x1="-1361" y1="210" x2="837" y2="210" stroke="#3D5A80" stroke-width="2"/>
<line x1="-1361" y1="666" x2="837" y2="666" stroke="#3D5A80" stroke-width="2"/>
<line x1="-1361" y1="438" x2="837" y2="438" stroke="#3D5A80" stroke-width="2"/>
<line x1="-1361" y1="818" x2="837" y2="818" stroke="#3D5A80" stroke-width="2"/>
<line x1="-1361" y1="134" x2="837" y2="134" stroke="#3D5A80" stroke-width="2"/>
<line x1="-1361" y1="590" x2="837" y2="590" stroke="#3D5A80" stroke-width="2"/>
<line x1="-1361" y1="362" x2="837" y2="362" stroke="#3D5A80" stroke-width="2"/>
<line x1="-1361" y1="742" x2="837" y2="742" stroke="#3D5A80" stroke-width="2"/>
<line x1="-1361" y1="57.9999" x2="837" y2="58" stroke="#3D5A80" stroke-width="2"/>
<line x1="-1361" y1="514" x2="837" y2="514" stroke="#3D5A80" stroke-width="2"/>
<line x1="-1361" y1="286" x2="837" y2="286" stroke="#3D5A80" stroke-width="2"/>
<rect x="748" y="-701" width="1540" height="2198" fill="#030A49"/>
<line x1="721" y1="-701" x2="721" y2="1497" stroke="#3D5A80" stroke-width="2"/>
<line x1="1405" y1="-701" x2="1405" y2="1497" stroke="#3D5A80" stroke-width="2"/>
<line x1="949" y1="-701" x2="949" y2="1497" stroke="#3D5A80" stroke-width="2"/>
<line x1="1177" y1="-701" x2="1177" y2="1497" stroke="#3D5A80" stroke-width="2"/>
<line x1="797" y1="-701" x2="797" y2="1497" stroke="#3D5A80" stroke-width="2"/>
<line x1="1025" y1="-701" x2="1025" y2="1497" stroke="#3D5A80" stroke-width="2"/>
<line x1="1253" y1="-701" x2="1253" y2="1497" stroke="#3D5A80" stroke-width="2"/>
<line x1="873" y1="-701" x2="873" y2="1497" stroke="#3D5A80" stroke-width="2"/>
<line x1="1101" y1="-701" x2="1101" y2="1497" stroke="#3D5A80" stroke-width="2"/>
<line x1="1329" y1="-701" x2="1329" y2="1497" stroke="#3D5A80" stroke-width="2"/>
<line x1="159" y1="210" x2="2357" y2="210" stroke="#3D5A80" stroke-width="2"/>
<line x1="159" y1="666" x2="2357" y2="666" stroke="#3D5A80" stroke-width="2"/>
<line x1="159" y1="438" x2="2357" y2="438" stroke="#3D5A80" stroke-width="2"/>
<line x1="159" y1="818" x2="2357" y2="818" stroke="#3D5A80" stroke-width="2"/>
<line x1="159" y1="134" x2="2357" y2="134" stroke="#3D5A80" stroke-width="2"/>
<line x1="159" y1="590" x2="2357" y2="590" stroke="#3D5A80" stroke-width="2"/>
<line x1="159" y1="362" x2="2357" y2="362" stroke="#3D5A80" stroke-width="2"/>
<line x1="159" y1="742" x2="2357" y2="742" stroke="#3D5A80" stroke-width="2"/>
<line x1="159" y1="57.9999" x2="2357" y2="58" stroke="#3D5A80" stroke-width="2"/>
<line x1="159" y1="514" x2="2357" y2="514" stroke="#3D5A80" stroke-width="2"/>
<line x1="159" y1="286" x2="2357" y2="286" stroke="#3D5A80" stroke-width="2"/>
</g>
</svg>
