<svg width="2207" height="2750" viewBox="0 0 2207 2750" fill="none" xmlns="http://www.w3.org/2000/svg">
<g clip-path="url(#clip0)">
<rect width="2207" height="2750" fill="white"/>
<rect width="2207" height="2750" fill="#030A49"/>
<line x1="806.5" y1="2.18557e-08" x2="806.5" y2="2750" stroke="#3D5A80"/>
<line x1="374.5" y1="2.18557e-08" x2="374.5" y2="2750" stroke="#3D5A80"/>
<line x1="1238.5" y1="2.18557e-08" x2="1238.5" y2="2750" stroke="#3D5A80"/>
<line x1="158.5" y1="2.18557e-08" x2="158.5" y2="2750" stroke="#3D5A80"/>
<line x1="1022.5" y1="2.18557e-08" x2="1022.5" y2="2750" stroke="#3D5A80"/>
<line x1="590.5" y1="2.18557e-08" x2="590.5" y2="2750" stroke="#3D5A80"/>
<line x1="1454.5" y1="2.18557e-08" x2="1454.5" y2="2750" stroke="#3D5A80"/>
<line x1="14.5" y1="2.18557e-08" x2="14.4999" y2="2750" stroke="#3D5A80"/>
<line x1="878.5" y1="2.18557e-08" x2="878.5" y2="2750" stroke="#3D5A80"/>
<line x1="446.5" y1="2.18557e-08" x2="446.5" y2="2750" stroke="#3D5A80"/>
<line x1="1310.5" y1="2.18557e-08" x2="1310.5" y2="2750" stroke="#3D5A80"/>
<line x1="230.5" y1="2.18557e-08" x2="230.5" y2="2750" stroke="#3D5A80"/>
<line x1="1094.5" y1="2.18557e-08" x2="1094.5" y2="2750" stroke="#3D5A80"/>
<line x1="662.5" y1="2.18557e-08" x2="662.5" y2="2750" stroke="#3D5A80"/>
<line x1="1526.5" y1="2.18557e-08" x2="1526.5" y2="2750" stroke="#3D5A80"/>
<line x1="86.5" y1="2.18557e-08" x2="86.4999" y2="2750" stroke="#3D5A80"/>
<line x1="950.5" y1="2.18557e-08" x2="950.5" y2="2750" stroke="#3D5A80"/>
<line x1="518.5" y1="2.18557e-08" x2="518.5" y2="2750" stroke="#3D5A80"/>
<line x1="1382.5" y1="2.18557e-08" x2="1382.5" y2="2750" stroke="#3D5A80"/>
<line x1="302.5" y1="2.18557e-08" x2="302.5" y2="2750" stroke="#3D5A80"/>
<line x1="1166.5" y1="2.18557e-08" x2="1166.5" y2="2750" stroke="#3D5A80"/>
<line x1="734.5" y1="2.18557e-08" x2="734.5" y2="2750" stroke="#3D5A80"/>
<line x1="1598.5" y1="2.18557e-08" x2="1598.5" y2="2750" stroke="#3D5A80"/>
<line x1="-605" y1="1655.5" x2="2207" y2="1655.5" stroke="#3D5A80"/>
<line x1="-605" y1="791.5" x2="2207" y2="791.5" stroke="#3D5A80"/>
<line x1="-605" y1="1223.5" x2="2207" y2="1223.5" stroke="#3D5A80"/>
<line x1="-605" y1="359.5" x2="2207" y2="359.5" stroke="#3D5A80"/>
<line x1="-605" y1="1439.5" x2="2207" y2="1439.5" stroke="#3D5A80"/>
<line x1="-605" y1="575.5" x2="2207" y2="575.5" stroke="#3D5A80"/>
<line x1="-605" y1="1007.5" x2="2207" y2="1007.5" stroke="#3D5A80"/>
<line x1="-605" y1="143.5" x2="2207" y2="143.5" stroke="#3D5A80"/>
<line x1="-605" y1="1583.5" x2="2207" y2="1583.5" stroke="#3D5A80"/>
<line x1="-605" y1="719.5" x2="2207" y2="719.5" stroke="#3D5A80"/>
<line x1="-605" y1="1151.5" x2="2207" y2="1151.5" stroke="#3D5A80"/>
<line x1="-605" y1="287.5" x2="2207" y2="287.5" stroke="#3D5A80"/>
<line x1="-605" y1="1367.5" x2="2207" y2="1367.5" stroke="#3D5A80"/>
<line x1="-605" y1="503.5" x2="2207" y2="503.5" stroke="#3D5A80"/>
<line x1="-605" y1="935.5" x2="2207" y2="935.5" stroke="#3D5A80"/>
<line x1="-605" y1="71.5" x2="2207" y2="71.5001" stroke="#3D5A80"/>
<line x1="-605" y1="1511.5" x2="2207" y2="1511.5" stroke="#3D5A80"/>
<line x1="-605" y1="647.5" x2="2207" y2="647.5" stroke="#3D5A80"/>
<line x1="-605" y1="1079.5" x2="2207" y2="1079.5" stroke="#3D5A80"/>
<line x1="-605" y1="215.5" x2="2207" y2="215.5" stroke="#3D5A80"/>
<line x1="-605" y1="1295.5" x2="2207" y2="1295.5" stroke="#3D5A80"/>
<line x1="-605" y1="431.5" x2="2207" y2="431.5" stroke="#3D5A80"/>
<line x1="-605" y1="863.5" x2="2207" y2="863.5" stroke="#3D5A80"/>
<line x1="1673.5" y1="2.18557e-08" x2="1673.5" y2="2750" stroke="#3D5A80"/>
<line x1="2105.5" y1="2.18557e-08" x2="2105.5" y2="2750" stroke="#3D5A80"/>
<line x1="1889.5" y1="2.18557e-08" x2="1889.5" y2="2750" stroke="#3D5A80"/>
<line x1="1745.5" y1="2.18557e-08" x2="1745.5" y2="2750" stroke="#3D5A80"/>
<line x1="2177.5" y1="2.18557e-08" x2="2177.5" y2="2750" stroke="#3D5A80"/>
<line x1="1961.5" y1="2.18557e-08" x2="1961.5" y2="2750" stroke="#3D5A80"/>
<line x1="1817.5" y1="2.18557e-08" x2="1817.5" y2="2750" stroke="#3D5A80"/>
<line x1="2033.5" y1="2.18557e-08" x2="2033.5" y2="2750" stroke="#3D5A80"/>
<line x1="-605" y1="2518.5" x2="2207" y2="2518.5" stroke="#3D5A80"/>
<line x1="-605" y1="2086.5" x2="2207" y2="2086.5" stroke="#3D5A80"/>
<line x1="-605" y1="2302.5" x2="2207" y2="2302.5" stroke="#3D5A80"/>
<line x1="-605" y1="2734.5" x2="2207" y2="2734.5" stroke="#3D5A80"/>
<line x1="-605" y1="1870.5" x2="2207" y2="1870.5" stroke="#3D5A80"/>
<line x1="-605" y1="2446.5" x2="2207" y2="2446.5" stroke="#3D5A80"/>
<line x1="-605" y1="2014.5" x2="2207" y2="2014.5" stroke="#3D5A80"/>
<line x1="-605" y1="2230.5" x2="2207" y2="2230.5" stroke="#3D5A80"/>
<line x1="-605" y1="2662.5" x2="2207" y2="2662.5" stroke="#3D5A80"/>
<line x1="-605" y1="1798.5" x2="2207" y2="1798.5" stroke="#3D5A80"/>
<line x1="-605" y1="2374.5" x2="2207" y2="2374.5" stroke="#3D5A80"/>
<line x1="-605" y1="1942.5" x2="2207" y2="1942.5" stroke="#3D5A80"/>
<line x1="-605" y1="2158.5" x2="2207" y2="2158.5" stroke="#3D5A80"/>
<line x1="-605" y1="2590.5" x2="2207" y2="2590.5" stroke="#3D5A80"/>
<line x1="-605" y1="1726.5" x2="2207" y2="1726.5" stroke="#3D5A80"/>
</g>
<defs>
<clipPath id="clip0">
<rect width="2207" height="2750" fill="white"/>
</clipPath>
</defs>
</svg>
