<svg width="336" height="71" viewBox="0 0 336 71" fill="none" xmlns="http://www.w3.org/2000/svg">
<path d="M26.5312 19.4375C27.6875 23.7969 28.0703 28.0625 27.6797 32.2344C27.5703 33.4375 27.3438 35.2109 27 37.5547C26.6719 39.8359 26.4609 41.5312 26.3672 42.6406C26.0547 46.4375 26.4531 49.625 27.5625 52.2031C26.625 52.1406 25.1875 52.2031 23.25 52.3906C21.6562 52.5469 20.2891 52.5156 19.1484 52.2969C17.8672 48.5469 17.7109 44.3984 18.6797 39.8516C17.6953 39.6484 16.0859 39.1797 13.8516 38.4453C11.8672 37.8047 10.2109 37.3906 8.88281 37.2031C7.80469 41.3281 7.72656 45.9375 8.64844 51.0312C8.17969 51.4375 7.125 51.7422 5.48438 51.9453C3.89062 52.1484 2.875 52.5 2.4375 53C0.859375 48.375 0.546875 42.875 1.5 36.5C2.10938 32.4375 2.44531 29.6484 2.50781 28.1328C2.61719 24.9609 2.16406 22.2969 1.14844 20.1406C7.07031 20.0312 9.88281 19.9531 9.58594 19.9062C10.6328 23.1406 10.8594 26.7891 10.2656 30.8516C11.2812 31.1016 12.9062 31.5703 15.1406 32.2578C17.1875 32.9141 18.8281 33.3672 20.0625 33.6172C21.0469 30.2109 21.0156 25.75 19.9688 20.2344C22.5 20.2344 23.6875 20.2344 23.5312 20.2344C24.7188 20.1719 25.6406 19.9062 26.2969 19.4375H26.5312ZM52.3106 19.4844C52.4044 20.1719 52.6466 21.4141 53.0372 23.2109C53.3653 24.7578 53.5606 25.9297 53.6231 26.7266C48.0294 26.5703 44.0684 26.2969 41.7403 25.9062C41.7716 28.2969 41.6153 30.1562 41.2716 31.4844C41.9903 31.5938 43.6153 32.0781 46.1466 32.9375C48.0059 33.5781 49.7481 33.8125 51.3731 33.6406C51.17 34.3281 50.8888 35.3906 50.5294 36.8281C50.1856 38.2812 49.9122 39.3516 49.7091 40.0391C47.9434 40.1484 46.1544 39.9375 44.3419 39.4062C44.4513 39.4375 42.9122 38.8984 39.7247 37.7891C39.0216 39.5234 38.7013 42.1016 38.7638 45.5234C45.6544 46.2578 50.1309 46.5312 52.1934 46.3438C52.3497 47.0156 52.6309 48.1016 53.0372 49.6016C53.4278 50.9766 53.7013 52.0703 53.8575 52.8828C53.92 52.8828 50.4356 52.8047 43.4044 52.6484C42.7794 52.6328 41.8653 52.5859 40.6622 52.5078C39.4591 52.4297 38.5684 52.3828 37.9903 52.3672C35.9747 52.3359 34.3341 52.5469 33.0684 53C31.8028 49.25 31.3263 45.25 31.6388 41C31.7325 39.75 32.0763 37.5938 32.67 34.5312C33.2169 31.7656 33.5059 29.6016 33.5372 28.0391C33.5684 26.1328 33.0528 23.3203 31.9903 19.6016C34.3028 19.3359 37.67 19.3125 42.0919 19.5312C46.6075 19.7344 50.0138 19.7188 52.3106 19.4844ZM67.0041 19.4141C68.7697 23.6016 69.1291 28.5703 68.0822 34.3203C67.9259 35.1953 67.6056 36.3672 67.1213 37.8359C66.6213 39.3828 66.3009 40.5 66.1603 41.1875C65.7384 43.1406 65.7853 45.1641 66.3009 47.2578C66.5822 48.3672 67.2541 50.2344 68.3166 52.8594C67.3478 52.9688 66.0119 53.0156 64.3088 53C62.0119 52.9688 60.6213 52.9609 60.1369 52.9766C58.8244 48.6484 58.1447 45.4453 58.0978 43.3672C58.0509 41.8203 58.5353 39.1875 59.5509 35.4688C60.5353 31.8438 60.9728 28.9375 60.8634 26.75C60.7541 24.8438 60.1525 22.5156 59.0588 19.7656C59.0744 19.6406 59.0353 19.5625 58.9416 19.5312C59.8791 19.4219 61.1916 19.375 62.8791 19.3906C65.1447 19.4219 66.5197 19.4297 67.0041 19.4141ZM79.8225 44.7266C80.5256 44.7422 81.4084 44.8125 82.4709 44.9375C83.7678 45.0781 84.5803 45.1641 84.9084 45.1953C86.6741 45.3203 88.0803 45.0469 89.1272 44.375C90.9709 43.2188 92.2991 40.9844 93.1116 37.6719C93.9397 34.3125 93.76 31.6094 92.5725 29.5625C91.7913 28.2031 90.4631 27.2109 88.5881 26.5859C87.135 26.1016 85.0959 25.7891 82.4709 25.6484C82.3928 27.6172 81.8928 30.7422 80.9709 35.0234C80.1272 38.9297 79.7444 42.1641 79.8225 44.7266ZM74.1975 53C73.0256 48.625 72.6428 44.1016 73.0491 39.4297C73.1428 38.3359 73.3459 36.6406 73.6584 34.3438C73.9553 32.125 74.1506 30.4531 74.2444 29.3281C74.5413 25.5 74.1741 22.3906 73.1428 20C74.2053 19.9688 75.51 19.8828 77.0569 19.7422C78.7288 19.5859 80.0334 19.4844 80.9709 19.4375C87.1741 19.125 92.1194 20.2891 95.8069 22.9297C99.8538 25.8359 101.69 30.1094 101.315 35.75C101.127 38.5156 100.354 41.1875 98.9944 43.7656C97.6975 46.2031 96.135 48.0938 94.3069 49.4375C92.6663 50.625 90.5256 51.2969 87.885 51.4531C86.9944 51.5 85.7444 51.5 84.135 51.4531C82.0725 51.4062 80.6741 51.3828 79.9397 51.3828C77.2678 51.3984 75.3538 51.9375 74.1975 53ZM121.961 31.4141C124.774 28.8672 126.782 25.0078 127.985 19.8359C128.688 20.1641 129.664 20.2578 130.914 20.1172C132.571 19.9453 133.719 19.8906 134.36 19.9531C133.266 27.375 130.055 33.4375 124.727 38.1406C123.352 39.3594 122.657 39.9766 122.641 39.9922C122.391 40.5391 122.203 41.9297 122.078 44.1641C121.891 47.0391 122.196 49.9766 122.993 52.9766C122.664 53.0391 122.235 52.9609 121.703 52.7422C120.969 52.4141 120.477 52.2188 120.227 52.1562C119.946 52.0938 119.039 52.0391 117.508 51.9922C116.399 51.9453 115.602 51.7344 115.118 51.3594C114.539 47.7031 114.5 44.1875 115 40.8125C115.032 40.5938 115.149 40.0234 115.352 39.1016C115.493 38.4141 115.571 37.8594 115.586 37.4375C115.633 34.625 114.36 31.3438 111.766 27.5938C110.641 25.9844 108.321 23.75 104.805 20.8906C105.086 20.8281 106.071 20.5625 107.758 20.0938C108.977 19.75 110 19.5469 110.828 19.4844C112.625 19.3438 113.782 19.3438 114.297 19.4844C114.641 19.5781 115.453 20.4297 116.735 22.0391C119.282 25.2109 121.024 28.3359 121.961 31.4141ZM165.083 26.2578C163.723 26.8516 162.567 28.1406 161.614 30.125C160.708 31.9844 160.184 34.0234 160.043 36.2422C159.872 38.7109 159.872 40.3594 160.043 41.1875C160.122 41.625 160.45 42.2891 161.028 43.1797C161.575 44.0078 162.012 44.5703 162.34 44.8672C163.231 45.6797 164.473 46.1875 166.067 46.3906C167.723 46.625 169.153 46.4219 170.356 45.7812C172.293 44.75 173.739 42.3281 174.692 38.5156C175.661 34.5625 175.442 31.3984 174.036 29.0234C173.426 27.9766 172.489 27.1641 171.223 26.5859C169.958 26.0078 168.598 25.7812 167.145 25.9062C166.083 26 165.395 26.1172 165.083 26.2578ZM166.114 19.4844C171.411 18.9844 175.614 20.4609 178.723 23.9141C181.786 27.3203 183.098 31.8906 182.661 37.625C182.442 40.5 181.614 43.1875 180.176 45.6875C178.77 48.1719 177.028 50 174.95 51.1719C171.84 52.9531 168.293 53.4297 164.309 52.6016C160.497 51.8203 157.583 50.1562 155.567 47.6094C152.801 44.1562 151.778 39.6953 152.497 34.2266C152.825 31.7734 153.497 29.5156 154.512 27.4531C155.575 25.3281 156.879 23.6641 158.426 22.4609C160.661 20.7422 163.223 19.75 166.114 19.4844ZM205.979 19.4844C206.745 19.9062 207.893 20.0781 209.424 20C211.128 19.9062 212.331 19.9688 213.034 20.1875C213.69 22.4844 213.971 25.1719 213.878 28.25C213.815 29.9062 213.549 32.6641 213.081 36.5234C212.19 43.6797 212.409 48.8984 213.737 52.1797C210.065 52.7422 207.479 53.0156 205.979 53C202.698 49.8125 200.424 46.7969 199.159 43.9531C198.534 42.5625 197.846 40.6406 197.096 38.1875C196.159 35.125 195.51 33.125 195.151 32.1875C194.12 35.3281 193.495 38.6875 193.276 42.2656C193.01 46.2656 193.323 49.8047 194.213 52.8828C193.51 52.4609 192.424 52.2969 190.956 52.3906C189.346 52.4844 188.198 52.4141 187.51 52.1797C186.526 48.0547 186.448 42.6875 187.276 36.0781C187.823 31.7656 188.112 29.0859 188.143 28.0391C188.237 25.1016 187.831 22.6016 186.924 20.5391C189.893 19.4453 192.362 19.1328 194.331 19.6016C194.909 19.7422 195.62 20.3047 196.463 21.2891C196.729 21.5859 197.065 22 197.471 22.5312C197.909 23.0781 198.198 23.4375 198.338 23.6094C199.932 25.4688 201.026 26.9922 201.62 28.1797C202.292 29.4922 202.971 31.5469 203.659 34.3438C204.331 37.1094 204.948 39.0156 205.51 40.0625C207.885 31.5938 208.042 24.7344 205.979 19.4844ZM230.704 26.2578C229.344 26.8516 228.188 28.1406 227.235 30.125C226.329 31.9844 225.805 34.0234 225.665 36.2422C225.493 38.7109 225.493 40.3594 225.665 41.1875C225.743 41.625 226.071 42.2891 226.649 43.1797C227.196 44.0078 227.633 44.5703 227.962 44.8672C228.852 45.6797 230.094 46.1875 231.688 46.3906C233.344 46.625 234.774 46.4219 235.977 45.7812C237.915 44.75 239.36 42.3281 240.313 38.5156C241.282 34.5625 241.063 31.3984 239.657 29.0234C239.048 27.9766 238.11 27.1641 236.844 26.5859C235.579 26.0078 234.219 25.7812 232.766 25.9062C231.704 26 231.016 26.1172 230.704 26.2578ZM231.735 19.4844C237.032 18.9844 241.235 20.4609 244.344 23.9141C247.407 27.3203 248.719 31.8906 248.282 37.625C248.063 40.5 247.235 43.1875 245.798 45.6875C244.391 48.1719 242.649 50 240.571 51.1719C237.462 52.9531 233.915 53.4297 229.93 52.6016C226.118 51.8203 223.204 50.1562 221.188 47.6094C218.423 44.1562 217.399 39.6953 218.118 34.2266C218.446 31.7734 219.118 29.5156 220.133 27.4531C221.196 25.3281 222.501 23.6641 224.048 22.4609C226.282 20.7422 228.844 19.75 231.735 19.4844ZM274.624 26.75C269.905 26.6875 265.866 26.4141 262.507 25.9297C262.522 28.8672 262.366 30.8672 262.038 31.9297C262.538 31.9766 263.413 32.2734 264.663 32.8203C265.944 33.3828 266.952 33.7109 267.686 33.8047C267.905 33.8359 268.21 33.8438 268.6 33.8281C269.038 33.8281 269.342 33.8359 269.514 33.8516C270.202 33.8984 270.694 34.1562 270.991 34.625C271.382 35.2812 271.436 36.1875 271.155 37.3438C270.639 39.5 270.389 40.5156 270.405 40.3906C268.639 40.5156 266.835 40.2969 264.991 39.7344C264.71 39.6562 263.952 39.4062 262.717 38.9844C261.796 38.6719 261.022 38.4375 260.397 38.2812C259.272 41.7812 259.428 46.4141 260.866 52.1797C260.475 52.1797 259.835 52.1719 258.944 52.1562C258.178 52.1406 257.6 52.1484 257.21 52.1797C255.96 52.2266 255.014 52.5 254.374 53C252.796 49.75 252.171 45.7891 252.499 41.1172C252.592 39.6641 252.928 37.6172 253.507 34.9766C254.085 32.3047 254.413 30.3828 254.491 29.2109C254.694 26.4297 254.186 23.2891 252.967 19.7891C254.561 19.3672 257.202 19.2812 260.889 19.5312C265.171 19.8438 267.983 19.9297 269.327 19.7891C271.108 19.6172 272.014 19.5391 272.046 19.5547C272.796 19.8203 273.264 20.4141 273.452 21.3359C273.499 21.6172 273.538 22.0391 273.569 22.6016C273.616 23.2266 273.655 23.6641 273.686 23.9141C273.749 24.2734 273.936 24.7734 274.249 25.4141C274.53 25.9609 274.655 26.4062 274.624 26.75ZM292.669 32.5391C293.294 32.2422 293.755 31.7344 294.052 31.0156C294.302 30.3906 294.395 29.7578 294.333 29.1172C294.208 28.0703 293.466 27.25 292.106 26.6562C290.934 26.125 289.669 25.8828 288.309 25.9297C288.372 27.1953 288.177 29.3594 287.723 32.4219C287.848 32.4219 288.677 32.5469 290.208 32.7969C291.161 32.9531 291.981 32.8672 292.669 32.5391ZM294.684 38.7734C295.653 41.5234 297.27 44 299.536 46.2031C301.161 47.7812 303.505 49.5469 306.567 51.5C303.833 52.3594 301.872 52.8281 300.684 52.9062C298.419 53.0625 296.888 53.0234 296.091 52.7891C295.559 52.6328 294.536 51.6875 293.02 49.9531C290.708 47.3125 288.903 44.2109 287.606 40.6484C287.575 40.5547 287.536 40.375 287.489 40.1094C287.427 39.8438 287.372 39.6484 287.325 39.5234C287.169 39.0703 286.872 38.8594 286.434 38.8906C285.231 42.2812 285.348 46.9141 286.786 52.7891C285.895 52.4922 284.778 52.3672 283.434 52.4141C283.247 52.4141 282.645 52.4453 281.63 52.5078C280.88 52.5391 280.239 52.5547 279.708 52.5547C278.958 50.2109 278.606 47.5312 278.653 44.5156C278.684 42.7188 278.934 40 279.403 36.3594C280.309 29.1406 280.177 23.8203 279.005 20.3984C283.661 19.3047 288.028 19.1016 292.106 19.7891C296.872 20.5859 299.848 22.5156 301.036 25.5781C302.145 28.4219 302.02 31.2109 300.661 33.9453C299.333 36.6172 297.341 38.2266 294.684 38.7734ZM331.432 19.4844C331.526 20.1719 331.768 21.4141 332.159 23.2109C332.487 24.7578 332.682 25.9297 332.745 26.7266C327.151 26.5703 323.19 26.2969 320.862 25.9062C320.893 28.2969 320.737 30.1562 320.393 31.4844C321.112 31.5938 322.737 32.0781 325.268 32.9375C327.128 33.5781 328.87 33.8125 330.495 33.6406C330.292 34.3281 330.011 35.3906 329.651 36.8281C329.307 38.2812 329.034 39.3516 328.831 40.0391C327.065 40.1484 325.276 39.9375 323.464 39.4062C323.573 39.4375 322.034 38.8984 318.847 37.7891C318.143 39.5234 317.823 42.1016 317.886 45.5234C324.776 46.2578 329.253 46.5312 331.315 46.3438C331.472 47.0156 331.753 48.1016 332.159 49.6016C332.55 50.9766 332.823 52.0703 332.979 52.8828C333.042 52.8828 329.557 52.8047 322.526 52.6484C321.901 52.6328 320.987 52.5859 319.784 52.5078C318.581 52.4297 317.69 52.3828 317.112 52.3672C315.097 52.3359 313.456 52.5469 312.19 53C310.925 49.25 310.448 45.25 310.761 41C310.854 39.75 311.198 37.5938 311.792 34.5312C312.339 31.7656 312.628 29.6016 312.659 28.0391C312.69 26.1328 312.175 23.3203 311.112 19.6016C313.425 19.3359 316.792 19.3125 321.214 19.5312C325.729 19.7344 329.136 19.7188 331.432 19.4844Z" fill="#A04668"/>
<path d="M28.5312 14.4375C29.6875 18.7969 30.0703 23.0625 29.6797 27.2344C29.5703 28.4375 29.3438 30.2109 29 32.5547C28.6719 34.8359 28.4609 36.5312 28.3672 37.6406C28.0547 41.4375 28.4531 44.625 29.5625 47.2031C28.625 47.1406 27.1875 47.2031 25.25 47.3906C23.6562 47.5469 22.2891 47.5156 21.1484 47.2969C19.8672 43.5469 19.7109 39.3984 20.6797 34.8516C19.6953 34.6484 18.0859 34.1797 15.8516 33.4453C13.8672 32.8047 12.2109 32.3906 10.8828 32.2031C9.80469 36.3281 9.72656 40.9375 10.6484 46.0312C10.1797 46.4375 9.125 46.7422 7.48438 46.9453C5.89062 47.1484 4.875 47.5 4.4375 48C2.85938 43.375 2.54688 37.875 3.5 31.5C4.10938 27.4375 4.44531 24.6484 4.50781 23.1328C4.61719 19.9609 4.16406 17.2969 3.14844 15.1406C9.07031 15.0312 11.8828 14.9531 11.5859 14.9062C12.6328 18.1406 12.8594 21.7891 12.2656 25.8516C13.2812 26.1016 14.9062 26.5703 17.1406 27.2578C19.1875 27.9141 20.8281 28.3672 22.0625 28.6172C23.0469 25.2109 23.0156 20.75 21.9688 15.2344C24.5 15.2344 25.6875 15.2344 25.5312 15.2344C26.7188 15.1719 27.6406 14.9062 28.2969 14.4375H28.5312ZM54.3106 14.4844C54.4044 15.1719 54.6466 16.4141 55.0372 18.2109C55.3653 19.7578 55.5606 20.9297 55.6231 21.7266C50.0294 21.5703 46.0684 21.2969 43.7403 20.9062C43.7716 23.2969 43.6153 25.1562 43.2716 26.4844C43.9903 26.5938 45.6153 27.0781 48.1466 27.9375C50.0059 28.5781 51.7481 28.8125 53.3731 28.6406C53.17 29.3281 52.8888 30.3906 52.5294 31.8281C52.1856 33.2812 51.9122 34.3516 51.7091 35.0391C49.9434 35.1484 48.1544 34.9375 46.3419 34.4062C46.4513 34.4375 44.9122 33.8984 41.7247 32.7891C41.0216 34.5234 40.7013 37.1016 40.7638 40.5234C47.6544 41.2578 52.1309 41.5312 54.1934 41.3438C54.3497 42.0156 54.6309 43.1016 55.0372 44.6016C55.4278 45.9766 55.7013 47.0703 55.8575 47.8828C55.92 47.8828 52.4356 47.8047 45.4044 47.6484C44.7794 47.6328 43.8653 47.5859 42.6622 47.5078C41.4591 47.4297 40.5684 47.3828 39.9903 47.3672C37.9747 47.3359 36.3341 47.5469 35.0684 48C33.8028 44.25 33.3263 40.25 33.6388 36C33.7325 34.75 34.0763 32.5938 34.67 29.5312C35.2169 26.7656 35.5059 24.6016 35.5372 23.0391C35.5684 21.1328 35.0528 18.3203 33.9903 14.6016C36.3028 14.3359 39.67 14.3125 44.0919 14.5312C48.6075 14.7344 52.0138 14.7188 54.3106 14.4844ZM69.0041 14.4141C70.7697 18.6016 71.1291 23.5703 70.0822 29.3203C69.9259 30.1953 69.6056 31.3672 69.1213 32.8359C68.6213 34.3828 68.3009 35.5 68.1603 36.1875C67.7384 38.1406 67.7853 40.1641 68.3009 42.2578C68.5822 43.3672 69.2541 45.2344 70.3166 47.8594C69.3478 47.9688 68.0119 48.0156 66.3088 48C64.0119 47.9688 62.6213 47.9609 62.1369 47.9766C60.8244 43.6484 60.1447 40.4453 60.0978 38.3672C60.0509 36.8203 60.5353 34.1875 61.5509 30.4688C62.5353 26.8438 62.9728 23.9375 62.8634 21.75C62.7541 19.8438 62.1525 17.5156 61.0588 14.7656C61.0744 14.6406 61.0353 14.5625 60.9416 14.5312C61.8791 14.4219 63.1916 14.375 64.8791 14.3906C67.1447 14.4219 68.5197 14.4297 69.0041 14.4141ZM81.8225 39.7266C82.5256 39.7422 83.4084 39.8125 84.4709 39.9375C85.7678 40.0781 86.5803 40.1641 86.9084 40.1953C88.6741 40.3203 90.0803 40.0469 91.1272 39.375C92.9709 38.2188 94.2991 35.9844 95.1116 32.6719C95.9397 29.3125 95.76 26.6094 94.5725 24.5625C93.7913 23.2031 92.4631 22.2109 90.5881 21.5859C89.135 21.1016 87.0959 20.7891 84.4709 20.6484C84.3928 22.6172 83.8928 25.7422 82.9709 30.0234C82.1272 33.9297 81.7444 37.1641 81.8225 39.7266ZM76.1975 48C75.0256 43.625 74.6428 39.1016 75.0491 34.4297C75.1428 33.3359 75.3459 31.6406 75.6584 29.3438C75.9553 27.125 76.1506 25.4531 76.2444 24.3281C76.5413 20.5 76.1741 17.3906 75.1428 15C76.2053 14.9688 77.51 14.8828 79.0569 14.7422C80.7288 14.5859 82.0334 14.4844 82.9709 14.4375C89.1741 14.125 94.1194 15.2891 97.8069 17.9297C101.854 20.8359 103.69 25.1094 103.315 30.75C103.127 33.5156 102.354 36.1875 100.994 38.7656C99.6975 41.2031 98.135 43.0938 96.3069 44.4375C94.6663 45.625 92.5256 46.2969 89.885 46.4531C88.9944 46.5 87.7444 46.5 86.135 46.4531C84.0725 46.4062 82.6741 46.3828 81.9397 46.3828C79.2678 46.3984 77.3538 46.9375 76.1975 48ZM123.961 26.4141C126.774 23.8672 128.782 20.0078 129.985 14.8359C130.688 15.1641 131.664 15.2578 132.914 15.1172C134.571 14.9453 135.719 14.8906 136.36 14.9531C135.266 22.375 132.055 28.4375 126.727 33.1406C125.352 34.3594 124.657 34.9766 124.641 34.9922C124.391 35.5391 124.203 36.9297 124.078 39.1641C123.891 42.0391 124.196 44.9766 124.993 47.9766C124.664 48.0391 124.235 47.9609 123.703 47.7422C122.969 47.4141 122.477 47.2188 122.227 47.1562C121.946 47.0938 121.039 47.0391 119.508 46.9922C118.399 46.9453 117.602 46.7344 117.118 46.3594C116.539 42.7031 116.5 39.1875 117 35.8125C117.032 35.5938 117.149 35.0234 117.352 34.1016C117.493 33.4141 117.571 32.8594 117.586 32.4375C117.633 29.625 116.36 26.3438 113.766 22.5938C112.641 20.9844 110.321 18.75 106.805 15.8906C107.086 15.8281 108.071 15.5625 109.758 15.0938C110.977 14.75 112 14.5469 112.828 14.4844C114.625 14.3438 115.782 14.3438 116.297 14.4844C116.641 14.5781 117.453 15.4297 118.735 17.0391C121.282 20.2109 123.024 23.3359 123.961 26.4141ZM167.083 21.2578C165.723 21.8516 164.567 23.1406 163.614 25.125C162.708 26.9844 162.184 29.0234 162.043 31.2422C161.872 33.7109 161.872 35.3594 162.043 36.1875C162.122 36.625 162.45 37.2891 163.028 38.1797C163.575 39.0078 164.012 39.5703 164.34 39.8672C165.231 40.6797 166.473 41.1875 168.067 41.3906C169.723 41.625 171.153 41.4219 172.356 40.7812C174.293 39.75 175.739 37.3281 176.692 33.5156C177.661 29.5625 177.442 26.3984 176.036 24.0234C175.426 22.9766 174.489 22.1641 173.223 21.5859C171.958 21.0078 170.598 20.7812 169.145 20.9062C168.083 21 167.395 21.1172 167.083 21.2578ZM168.114 14.4844C173.411 13.9844 177.614 15.4609 180.723 18.9141C183.786 22.3203 185.098 26.8906 184.661 32.625C184.442 35.5 183.614 38.1875 182.176 40.6875C180.77 43.1719 179.028 45 176.95 46.1719C173.84 47.9531 170.293 48.4297 166.309 47.6016C162.497 46.8203 159.583 45.1562 157.567 42.6094C154.801 39.1562 153.778 34.6953 154.497 29.2266C154.825 26.7734 155.497 24.5156 156.512 22.4531C157.575 20.3281 158.879 18.6641 160.426 17.4609C162.661 15.7422 165.223 14.75 168.114 14.4844ZM207.979 14.4844C208.745 14.9062 209.893 15.0781 211.424 15C213.128 14.9062 214.331 14.9688 215.034 15.1875C215.69 17.4844 215.971 20.1719 215.878 23.25C215.815 24.9062 215.549 27.6641 215.081 31.5234C214.19 38.6797 214.409 43.8984 215.737 47.1797C212.065 47.7422 209.479 48.0156 207.979 48C204.698 44.8125 202.424 41.7969 201.159 38.9531C200.534 37.5625 199.846 35.6406 199.096 33.1875C198.159 30.125 197.51 28.125 197.151 27.1875C196.12 30.3281 195.495 33.6875 195.276 37.2656C195.01 41.2656 195.323 44.8047 196.213 47.8828C195.51 47.4609 194.424 47.2969 192.956 47.3906C191.346 47.4844 190.198 47.4141 189.51 47.1797C188.526 43.0547 188.448 37.6875 189.276 31.0781C189.823 26.7656 190.112 24.0859 190.143 23.0391C190.237 20.1016 189.831 17.6016 188.924 15.5391C191.893 14.4453 194.362 14.1328 196.331 14.6016C196.909 14.7422 197.62 15.3047 198.463 16.2891C198.729 16.5859 199.065 17 199.471 17.5312C199.909 18.0781 200.198 18.4375 200.338 18.6094C201.932 20.4688 203.026 21.9922 203.62 23.1797C204.292 24.4922 204.971 26.5469 205.659 29.3438C206.331 32.1094 206.948 34.0156 207.51 35.0625C209.885 26.5938 210.042 19.7344 207.979 14.4844ZM232.704 21.2578C231.344 21.8516 230.188 23.1406 229.235 25.125C228.329 26.9844 227.805 29.0234 227.665 31.2422C227.493 33.7109 227.493 35.3594 227.665 36.1875C227.743 36.625 228.071 37.2891 228.649 38.1797C229.196 39.0078 229.633 39.5703 229.962 39.8672C230.852 40.6797 232.094 41.1875 233.688 41.3906C235.344 41.625 236.774 41.4219 237.977 40.7812C239.915 39.75 241.36 37.3281 242.313 33.5156C243.282 29.5625 243.063 26.3984 241.657 24.0234C241.048 22.9766 240.11 22.1641 238.844 21.5859C237.579 21.0078 236.219 20.7812 234.766 20.9062C233.704 21 233.016 21.1172 232.704 21.2578ZM233.735 14.4844C239.032 13.9844 243.235 15.4609 246.344 18.9141C249.407 22.3203 250.719 26.8906 250.282 32.625C250.063 35.5 249.235 38.1875 247.798 40.6875C246.391 43.1719 244.649 45 242.571 46.1719C239.462 47.9531 235.915 48.4297 231.93 47.6016C228.118 46.8203 225.204 45.1562 223.188 42.6094C220.423 39.1562 219.399 34.6953 220.118 29.2266C220.446 26.7734 221.118 24.5156 222.133 22.4531C223.196 20.3281 224.501 18.6641 226.048 17.4609C228.282 15.7422 230.844 14.75 233.735 14.4844ZM276.624 21.75C271.905 21.6875 267.866 21.4141 264.507 20.9297C264.522 23.8672 264.366 25.8672 264.038 26.9297C264.538 26.9766 265.413 27.2734 266.663 27.8203C267.944 28.3828 268.952 28.7109 269.686 28.8047C269.905 28.8359 270.21 28.8438 270.6 28.8281C271.038 28.8281 271.342 28.8359 271.514 28.8516C272.202 28.8984 272.694 29.1562 272.991 29.625C273.382 30.2812 273.436 31.1875 273.155 32.3438C272.639 34.5 272.389 35.5156 272.405 35.3906C270.639 35.5156 268.835 35.2969 266.991 34.7344C266.71 34.6562 265.952 34.4062 264.717 33.9844C263.796 33.6719 263.022 33.4375 262.397 33.2812C261.272 36.7812 261.428 41.4141 262.866 47.1797C262.475 47.1797 261.835 47.1719 260.944 47.1562C260.178 47.1406 259.6 47.1484 259.21 47.1797C257.96 47.2266 257.014 47.5 256.374 48C254.796 44.75 254.171 40.7891 254.499 36.1172C254.592 34.6641 254.928 32.6172 255.507 29.9766C256.085 27.3047 256.413 25.3828 256.491 24.2109C256.694 21.4297 256.186 18.2891 254.967 14.7891C256.561 14.3672 259.202 14.2812 262.889 14.5312C267.171 14.8437 269.983 14.9297 271.327 14.7891C273.108 14.6172 274.014 14.5391 274.046 14.5547C274.796 14.8203 275.264 15.4141 275.452 16.3359C275.499 16.6172 275.538 17.0391 275.569 17.6016C275.616 18.2266 275.655 18.6641 275.686 18.9141C275.749 19.2734 275.936 19.7734 276.249 20.4141C276.53 20.9609 276.655 21.4062 276.624 21.75ZM294.669 27.5391C295.294 27.2422 295.755 26.7344 296.052 26.0156C296.302 25.3906 296.395 24.7578 296.333 24.1172C296.208 23.0703 295.466 22.25 294.106 21.6562C292.934 21.125 291.669 20.8828 290.309 20.9297C290.372 22.1953 290.177 24.3594 289.723 27.4219C289.848 27.4219 290.677 27.5469 292.208 27.7969C293.161 27.9531 293.981 27.8672 294.669 27.5391ZM296.684 33.7734C297.653 36.5234 299.27 39 301.536 41.2031C303.161 42.7812 305.505 44.5469 308.567 46.5C305.833 47.3594 303.872 47.8281 302.684 47.9062C300.419 48.0625 298.888 48.0234 298.091 47.7891C297.559 47.6328 296.536 46.6875 295.02 44.9531C292.708 42.3125 290.903 39.2109 289.606 35.6484C289.575 35.5547 289.536 35.375 289.489 35.1094C289.427 34.8438 289.372 34.6484 289.325 34.5234C289.169 34.0703 288.872 33.8594 288.434 33.8906C287.231 37.2812 287.348 41.9141 288.786 47.7891C287.895 47.4922 286.778 47.3672 285.434 47.4141C285.247 47.4141 284.645 47.4453 283.63 47.5078C282.88 47.5391 282.239 47.5547 281.708 47.5547C280.958 45.2109 280.606 42.5312 280.653 39.5156C280.684 37.7188 280.934 35 281.403 31.3594C282.309 24.1406 282.177 18.8203 281.005 15.3984C285.661 14.3047 290.028 14.1016 294.106 14.7891C298.872 15.5859 301.848 17.5156 303.036 20.5781C304.145 23.4219 304.02 26.2109 302.661 28.9453C301.333 31.6172 299.341 33.2266 296.684 33.7734ZM333.432 14.4844C333.526 15.1719 333.768 16.4141 334.159 18.2109C334.487 19.7578 334.682 20.9297 334.745 21.7266C329.151 21.5703 325.19 21.2969 322.862 20.9062C322.893 23.2969 322.737 25.1562 322.393 26.4844C323.112 26.5938 324.737 27.0781 327.268 27.9375C329.128 28.5781 330.87 28.8125 332.495 28.6406C332.292 29.3281 332.011 30.3906 331.651 31.8281C331.307 33.2812 331.034 34.3516 330.831 35.0391C329.065 35.1484 327.276 34.9375 325.464 34.4062C325.573 34.4375 324.034 33.8984 320.847 32.7891C320.143 34.5234 319.823 37.1016 319.886 40.5234C326.776 41.2578 331.253 41.5312 333.315 41.3438C333.472 42.0156 333.753 43.1016 334.159 44.6016C334.55 45.9766 334.823 47.0703 334.979 47.8828C335.042 47.8828 331.557 47.8047 324.526 47.6484C323.901 47.6328 322.987 47.5859 321.784 47.5078C320.581 47.4297 319.69 47.3828 319.112 47.3672C317.097 47.3359 315.456 47.5469 314.19 48C312.925 44.25 312.448 40.25 312.761 36C312.854 34.75 313.198 32.5938 313.792 29.5312C314.339 26.7656 314.628 24.6016 314.659 23.0391C314.69 21.1328 314.175 18.3203 313.112 14.6016C315.425 14.3359 318.792 14.3125 323.214 14.5312C327.729 14.7344 331.136 14.7188 333.432 14.4844Z" fill="#FFBBC2"/>
</svg>
