<svg width="169" height="169" viewBox="0 0 169 169" fill="none" xmlns="http://www.w3.org/2000/svg">
<circle cx="84.5" cy="84.5" r="84.5" fill="#98C1D9"/>
<mask id="path-2-inside-1" fill="white">
<path fill-rule="evenodd" clip-rule="evenodd" d="M21.6064 124.913C25.0756 104.103 38.5754 86.6871 56.968 77.8032C63.7035 85.4795 73.5865 90.3254 84.6014 90.3254C95.6796 90.3254 105.613 85.4235 112.351 77.6704C130.885 86.5128 144.502 103.999 147.989 124.913H21.6064Z"/>
</mask>
<path fill-rule="evenodd" clip-rule="evenodd" d="M21.6064 124.913C25.0756 104.103 38.5754 86.6871 56.968 77.8032C63.7035 85.4795 73.5865 90.3254 84.6014 90.3254C95.6796 90.3254 105.613 85.4235 112.351 77.6704C130.885 86.5128 144.502 103.999 147.989 124.913H21.6064Z" fill="#3D5A80"/>
<path d="M56.968 77.8032L57.7197 77.1437C57.4232 76.8058 56.9378 76.7073 56.5331 76.9027L56.968 77.8032ZM21.6064 124.913L20.6201 124.748C20.5717 125.038 20.6534 125.335 20.8434 125.559C21.0334 125.784 21.3125 125.913 21.6064 125.913V124.913ZM112.351 77.6704L112.781 76.7679C112.376 76.5743 111.891 76.6752 111.596 77.0145L112.351 77.6704ZM147.989 124.913V125.913C148.283 125.913 148.562 125.784 148.752 125.559C148.942 125.335 149.024 125.038 148.975 124.748L147.989 124.913ZM56.5331 76.9027C37.855 85.9246 24.1439 103.611 20.6201 124.748L22.5928 125.077C26.0073 104.595 39.2958 87.4497 57.4029 78.7037L56.5331 76.9027ZM84.6014 89.3254C73.8864 89.3254 64.2734 84.6127 57.7197 77.1437L56.2163 78.4628C63.1337 86.3462 73.2866 91.3254 84.6014 91.3254V89.3254ZM111.596 77.0145C105.04 84.5583 95.378 89.3254 84.6014 89.3254V91.3254C95.9813 91.3254 106.186 86.2887 113.106 78.3264L111.596 77.0145ZM148.975 124.748C145.434 103.505 131.603 85.7475 112.781 76.7679L111.92 78.573C130.166 87.2781 143.571 104.493 147.003 125.077L148.975 124.748ZM21.6064 125.913H147.989V123.913H21.6064V125.913Z" fill="#F9FAFF" mask="url(#path-2-inside-1)"/>
<circle cx="84.614" cy="52.3953" r="28.7449" fill="#3D5A80" stroke="#F9FAFF" stroke-linecap="round" stroke-linejoin="round"/>
</svg>
