<svg width="799" height="300" viewBox="0 0 799 300" fill="none" xmlns="http://www.w3.org/2000/svg">
<path d="M340.008 221L343.652 203.867H345.621L341.977 221H340.008ZM355.136 217.355C355.136 218.574 354.702 219.527 353.835 220.215C352.976 220.895 351.761 221.234 350.19 221.234C348.87 221.234 347.679 220.965 346.616 220.426V218.574C347.163 218.902 347.753 219.156 348.386 219.336C349.019 219.516 349.605 219.605 350.144 219.605C351.128 219.605 351.87 219.41 352.37 219.02C352.87 218.629 353.12 218.129 353.12 217.52C353.12 217.074 352.983 216.699 352.71 216.395C352.437 216.09 351.847 215.672 350.94 215.141C349.925 214.57 349.206 214.012 348.784 213.465C348.362 212.918 348.151 212.27 348.151 211.52C348.151 210.441 348.546 209.574 349.335 208.918C350.124 208.254 351.163 207.922 352.452 207.922C353.788 207.922 355.077 208.211 356.319 208.789L355.687 210.395L355.03 210.102C354.241 209.766 353.382 209.598 352.452 209.598C351.726 209.598 351.155 209.77 350.741 210.113C350.327 210.449 350.12 210.887 350.12 211.426C350.12 211.863 350.257 212.238 350.53 212.551C350.812 212.863 351.386 213.266 352.253 213.758C353.089 214.227 353.687 214.629 354.046 214.965C354.413 215.301 354.687 215.664 354.866 216.055C355.046 216.438 355.136 216.871 355.136 217.355ZM365.26 207.922C365.979 207.922 366.619 208.117 367.182 208.508C367.744 208.891 368.182 209.445 368.494 210.172H368.623L369.408 208.156H370.897L368.166 221H366.608L366.912 218.551H366.818C365.42 220.34 363.947 221.234 362.4 221.234C361.315 221.234 360.463 220.848 359.846 220.074C359.229 219.301 358.92 218.242 358.92 216.898C358.92 215.273 359.197 213.766 359.752 212.375C360.307 210.984 361.072 209.895 362.049 209.105C363.025 208.316 364.096 207.922 365.26 207.922ZM363.033 219.605C363.791 219.605 364.545 219.246 365.295 218.527C366.045 217.801 366.654 216.859 367.123 215.703C367.592 214.539 367.826 213.375 367.826 212.211C367.826 211.406 367.608 210.766 367.17 210.289C366.733 209.812 366.158 209.574 365.447 209.574C364.635 209.574 363.877 209.91 363.174 210.582C362.479 211.254 361.932 212.164 361.533 213.312C361.135 214.461 360.936 215.672 360.936 216.945C360.936 217.836 361.119 218.504 361.486 218.949C361.854 219.387 362.369 219.605 363.033 219.605ZM379.79 207.922C380.509 207.922 381.15 208.117 381.712 208.508C382.275 208.891 382.712 209.445 383.025 210.172H383.153L383.939 208.156H385.427L382.696 221H381.138L381.443 218.551H381.349C379.95 220.34 378.478 221.234 376.931 221.234C375.845 221.234 374.993 220.848 374.376 220.074C373.759 219.301 373.45 218.242 373.45 216.898C373.45 215.273 373.728 213.766 374.282 212.375C374.837 210.984 375.603 209.895 376.579 209.105C377.556 208.316 378.626 207.922 379.79 207.922ZM377.564 219.605C378.321 219.605 379.075 219.246 379.825 218.527C380.575 217.801 381.185 216.859 381.653 215.703C382.122 214.539 382.357 213.375 382.357 212.211C382.357 211.406 382.138 210.766 381.7 210.289C381.263 209.812 380.689 209.574 379.978 209.574C379.165 209.574 378.407 209.91 377.704 210.582C377.009 211.254 376.462 212.164 376.064 213.312C375.665 214.461 375.466 215.672 375.466 216.945C375.466 217.836 375.65 218.504 376.017 218.949C376.384 219.387 376.9 219.605 377.564 219.605ZM392.762 221.234C391.246 221.234 390.07 220.816 389.235 219.98C388.399 219.145 387.981 217.965 387.981 216.441C387.981 214.879 388.27 213.438 388.848 212.117C389.426 210.797 390.223 209.77 391.238 209.035C392.262 208.293 393.41 207.922 394.684 207.922C395.754 207.922 396.801 208.121 397.824 208.52L397.274 210.172C396.336 209.773 395.481 209.574 394.707 209.574C393.832 209.574 393.031 209.875 392.305 210.477C391.586 211.07 391.02 211.902 390.606 212.973C390.199 214.035 389.996 215.191 389.996 216.441C389.996 217.441 390.254 218.219 390.77 218.773C391.293 219.328 392.012 219.605 392.926 219.605C393.488 219.605 394.02 219.527 394.52 219.371C395.02 219.215 395.512 219.031 395.996 218.82V220.496C395.028 220.988 393.949 221.234 392.762 221.234ZM402.007 218.211L402.101 218.48C401.218 220.316 400.163 222.188 398.937 224.094H397.425C398.409 221.859 399.206 219.898 399.816 218.211H402.007ZM423.193 221H412.658L413.021 219.277L418.47 214.355C419.267 213.629 419.954 212.992 420.533 212.445C421.118 211.891 421.599 211.371 421.974 210.887C422.357 210.395 422.638 209.91 422.818 209.434C423.005 208.949 423.099 208.414 423.099 207.828C423.099 207.055 422.865 206.441 422.396 205.988C421.927 205.535 421.29 205.309 420.486 205.309C419.884 205.309 419.294 205.422 418.716 205.648C418.146 205.867 417.513 206.242 416.818 206.773L415.857 205.426C417.349 204.223 418.962 203.621 420.697 203.621C422.072 203.621 423.158 203.969 423.954 204.664C424.759 205.352 425.161 206.301 425.161 207.512C425.161 208.379 425.005 209.176 424.693 209.902C424.388 210.629 423.876 211.398 423.158 212.211C422.447 213.023 421.298 214.121 419.712 215.504L415.587 219.102V219.195H423.533L423.193 221ZM439.493 209.117C439.493 211.422 439.184 213.527 438.567 215.434C437.957 217.34 437.121 218.785 436.059 219.77C435.004 220.746 433.778 221.234 432.379 221.234C431.004 221.234 429.95 220.738 429.215 219.746C428.481 218.746 428.114 217.301 428.114 215.41C428.114 213.301 428.434 211.293 429.075 209.387C429.715 207.473 430.559 206.031 431.606 205.062C432.66 204.086 433.864 203.598 435.215 203.598C438.067 203.598 439.493 205.438 439.493 209.117ZM435.098 205.285C434.215 205.285 433.399 205.738 432.649 206.645C431.899 207.543 431.289 208.805 430.821 210.43C430.36 212.047 430.129 213.699 430.129 215.387C430.129 216.73 430.325 217.762 430.715 218.48C431.106 219.199 431.735 219.559 432.602 219.559C433.5 219.559 434.317 219.113 435.051 218.223C435.785 217.332 436.371 216.051 436.809 214.379C437.254 212.707 437.477 210.938 437.477 209.07C437.477 206.547 436.684 205.285 435.098 205.285Z" fill="#3D5A80"/>
<circle cx="399.5" cy="84.5" r="84.5" fill="#98C1D9"/>
<mask id="path-3-inside-1" fill="white">
<path fill-rule="evenodd" clip-rule="evenodd" d="M336.606 124.913C340.076 104.103 353.575 86.6871 371.968 77.8032C378.704 85.4795 388.587 90.3254 399.601 90.3254C410.68 90.3254 420.613 85.4235 427.351 77.6704C445.885 86.5128 459.502 103.999 462.989 124.913H336.606Z"/>
</mask>
<path fill-rule="evenodd" clip-rule="evenodd" d="M336.606 124.913C340.076 104.103 353.575 86.6871 371.968 77.8032C378.704 85.4795 388.587 90.3254 399.601 90.3254C410.68 90.3254 420.613 85.4235 427.351 77.6704C445.885 86.5128 459.502 103.999 462.989 124.913H336.606Z" fill="#3D5A80"/>
<path d="M371.968 77.8032L372.72 77.1437C372.423 76.8058 371.938 76.7073 371.533 76.9027L371.968 77.8032ZM336.606 124.913L335.62 124.748C335.572 125.038 335.653 125.335 335.843 125.559C336.033 125.784 336.312 125.913 336.606 125.913V124.913ZM427.351 77.6704L427.781 76.7679C427.376 76.5743 426.891 76.6752 426.596 77.0145L427.351 77.6704ZM462.989 124.913V125.913C463.283 125.913 463.562 125.784 463.752 125.559C463.942 125.335 464.024 125.038 463.975 124.748L462.989 124.913ZM371.533 76.9027C352.855 85.9246 339.144 103.611 335.62 124.748L337.593 125.077C341.007 104.595 354.296 87.4497 372.403 78.7037L371.533 76.9027ZM399.601 89.3254C388.886 89.3254 379.273 84.6127 372.72 77.1437L371.216 78.4628C378.134 86.3462 388.287 91.3254 399.601 91.3254V89.3254ZM426.596 77.0145C420.04 84.5583 410.378 89.3254 399.601 89.3254V91.3254C410.981 91.3254 421.186 86.2887 428.106 78.3264L426.596 77.0145ZM463.975 124.748C460.434 103.505 446.603 85.7475 427.781 76.7679L426.92 78.573C445.166 87.2781 458.571 104.493 462.003 125.077L463.975 124.748ZM336.606 125.913H462.989V123.913H336.606V125.913Z" fill="#F9FAFF" mask="url(#path-3-inside-1)"/>
<circle cx="399.614" cy="52.3953" r="28.7449" fill="#3D5A80" stroke="#F9FAFF" stroke-linecap="round" stroke-linejoin="round"/>
<path d="M17.9694 248.738L17.8756 248.48C18.5006 247.066 19.5631 245.195 21.0631 242.867H22.5514C21.2858 245.828 20.4928 247.785 20.1725 248.738H17.9694ZM13.6217 248.738L13.5514 248.48C14.317 246.832 15.3717 244.961 16.7155 242.867H18.2038C17.0553 245.562 16.2624 247.52 15.8249 248.738H13.6217ZM27.2145 260H25.1989L28.445 244.637H23.6872L24.0739 242.867H35.6169L35.2653 244.637H30.4841L27.2145 260ZM42.9636 260L44.698 251.891C44.8386 251.156 44.9089 250.629 44.9089 250.309C44.9089 249.152 44.3347 248.574 43.1863 248.574C42.491 248.574 41.8113 248.805 41.1472 249.266C40.491 249.727 39.9089 250.398 39.4011 251.281C38.9011 252.156 38.5222 253.215 38.2644 254.457L37.0808 260H35.112L38.9792 241.766H40.948C40.8074 242.406 40.6706 243.027 40.5378 243.629C40.4128 244.23 40.28 244.844 40.1394 245.469C40.0066 246.086 39.8581 246.734 39.6941 247.414C39.5378 248.094 39.3542 248.832 39.1433 249.629H39.2722C40.0066 248.668 40.7292 247.98 41.4402 247.566C42.1589 247.152 42.9089 246.945 43.6902 246.945C44.7136 246.945 45.5027 247.227 46.0574 247.789C46.6199 248.352 46.9011 249.148 46.9011 250.18C46.9011 250.664 46.8113 251.312 46.6316 252.125C46.3269 253.633 45.7605 256.258 44.9324 260H42.9636ZM54.9978 260.234C53.5603 260.234 52.4314 259.809 51.6111 258.957C50.7908 258.105 50.3806 256.926 50.3806 255.418C50.3806 253.949 50.6697 252.543 51.2478 251.199C51.8338 249.848 52.6072 248.797 53.5681 248.047C54.5291 247.297 55.5877 246.922 56.7439 246.922C57.9392 246.922 58.8377 247.184 59.4392 247.707C60.0408 248.223 60.3416 248.945 60.3416 249.875C60.3416 251.281 59.6931 252.387 58.3963 253.191C57.0994 253.988 55.2439 254.387 52.8299 254.387H52.4431L52.3963 255.324C52.3963 256.348 52.6345 257.148 53.1111 257.727C53.5955 258.297 54.3416 258.582 55.3494 258.582C55.8416 258.582 56.3455 258.512 56.8611 258.371C57.3845 258.23 58.033 257.973 58.8064 257.598V259.309C58.072 259.652 57.4236 259.891 56.8611 260.023C56.2986 260.164 55.6775 260.234 54.9978 260.234ZM56.6267 248.598C55.822 248.598 55.0642 248.965 54.3533 249.699C53.6502 250.434 53.1111 251.453 52.7361 252.758H52.8767C54.658 252.758 56.0213 252.527 56.9666 252.066C57.9197 251.598 58.3963 250.922 58.3963 250.039C58.3963 249.625 58.2517 249.281 57.9627 249.008C57.6814 248.734 57.2361 248.598 56.6267 248.598ZM71.8592 260H69.8905L73.7811 241.766H75.7499L71.8592 260ZM83.7645 246.922C84.4833 246.922 85.1239 247.117 85.6864 247.508C86.2489 247.891 86.6864 248.445 86.9989 249.172H87.1278L87.913 247.156H89.4013L86.6708 260H85.1122L85.4169 257.551H85.3231C83.9247 259.34 82.452 260.234 80.9052 260.234C79.8192 260.234 78.9677 259.848 78.3505 259.074C77.7333 258.301 77.4247 257.242 77.4247 255.898C77.4247 254.273 77.702 252.766 78.2567 251.375C78.8114 249.984 79.577 248.895 80.5536 248.105C81.5302 247.316 82.6005 246.922 83.7645 246.922ZM81.538 258.605C82.2958 258.605 83.0497 258.246 83.7997 257.527C84.5497 256.801 85.1591 255.859 85.6278 254.703C86.0966 253.539 86.331 252.375 86.331 251.211C86.331 250.406 86.1122 249.766 85.6747 249.289C85.2372 248.812 84.663 248.574 83.952 248.574C83.1395 248.574 82.3817 248.91 81.6786 249.582C80.9833 250.254 80.4364 251.164 80.038 252.312C79.6395 253.461 79.4403 254.672 79.4403 255.945C79.4403 256.836 79.6239 257.504 79.9911 257.949C80.3583 258.387 80.8739 258.605 81.538 258.605ZM95.4355 258.629C95.8652 258.629 96.4277 258.527 97.123 258.324V259.836C96.8574 259.945 96.5292 260.039 96.1386 260.117C95.748 260.195 95.4355 260.234 95.2011 260.234C94.2245 260.234 93.4745 260.004 92.9511 259.543C92.4355 259.074 92.1777 258.379 92.1777 257.457C92.1777 256.941 92.248 256.355 92.3886 255.699L93.8769 248.645H91.8613L92.0253 247.789L94.1933 246.875L95.6581 244.203H96.8066L96.162 247.156H99.373L99.0683 248.645H95.8691L94.3574 255.723C94.2167 256.402 94.1464 256.918 94.1464 257.27C94.1464 257.707 94.2597 258.043 94.4863 258.277C94.7128 258.512 95.0292 258.629 95.4355 258.629ZM105.313 260.234C103.876 260.234 102.747 259.809 101.927 258.957C101.106 258.105 100.696 256.926 100.696 255.418C100.696 253.949 100.985 252.543 101.563 251.199C102.149 249.848 102.923 248.797 103.884 248.047C104.845 247.297 105.903 246.922 107.06 246.922C108.255 246.922 109.153 247.184 109.755 247.707C110.356 248.223 110.657 248.945 110.657 249.875C110.657 251.281 110.009 252.387 108.712 253.191C107.415 253.988 105.56 254.387 103.145 254.387H102.759L102.712 255.324C102.712 256.348 102.95 257.148 103.427 257.727C103.911 258.297 104.657 258.582 105.665 258.582C106.157 258.582 106.661 258.512 107.177 258.371C107.7 258.23 108.349 257.973 109.122 257.598V259.309C108.388 259.652 107.739 259.891 107.177 260.023C106.614 260.164 105.993 260.234 105.313 260.234ZM106.942 248.598C106.138 248.598 105.38 248.965 104.669 249.699C103.966 250.434 103.427 251.453 103.052 252.758H103.192C104.974 252.758 106.337 252.527 107.282 252.066C108.235 251.598 108.712 250.922 108.712 250.039C108.712 249.625 108.567 249.281 108.278 249.008C107.997 248.734 107.552 248.598 106.942 248.598ZM120.957 256.355C120.957 257.574 120.523 258.527 119.656 259.215C118.797 259.895 117.582 260.234 116.012 260.234C114.691 260.234 113.5 259.965 112.438 259.426V257.574C112.984 257.902 113.574 258.156 114.207 258.336C114.84 258.516 115.426 258.605 115.965 258.605C116.949 258.605 117.691 258.41 118.191 258.02C118.691 257.629 118.941 257.129 118.941 256.52C118.941 256.074 118.805 255.699 118.531 255.395C118.258 255.09 117.668 254.672 116.762 254.141C115.746 253.57 115.027 253.012 114.605 252.465C114.184 251.918 113.973 251.27 113.973 250.52C113.973 249.441 114.367 248.574 115.156 247.918C115.945 247.254 116.984 246.922 118.273 246.922C119.609 246.922 120.898 247.211 122.141 247.789L121.508 249.395L120.852 249.102C120.063 248.766 119.203 248.598 118.273 248.598C117.547 248.598 116.977 248.77 116.563 249.113C116.148 249.449 115.941 249.887 115.941 250.426C115.941 250.863 116.078 251.238 116.352 251.551C116.633 251.863 117.207 252.266 118.074 252.758C118.91 253.227 119.508 253.629 119.867 253.965C120.234 254.301 120.508 254.664 120.688 255.055C120.867 255.438 120.957 255.871 120.957 256.355ZM128.222 258.629C128.651 258.629 129.214 258.527 129.909 258.324V259.836C129.644 259.945 129.315 260.039 128.925 260.117C128.534 260.195 128.222 260.234 127.987 260.234C127.011 260.234 126.261 260.004 125.737 259.543C125.222 259.074 124.964 258.379 124.964 257.457C124.964 256.941 125.034 256.355 125.175 255.699L126.663 248.645H124.648L124.812 247.789L126.98 246.875L128.444 244.203H129.593L128.948 247.156H132.159L131.855 248.645H128.655L127.144 255.723C127.003 256.402 126.933 256.918 126.933 257.27C126.933 257.707 127.046 258.043 127.273 258.277C127.499 258.512 127.815 258.629 128.222 258.629ZM147.017 246.922C147.735 246.922 148.376 247.117 148.939 247.508C149.501 247.891 149.939 248.445 150.251 249.172H150.38L151.165 247.156H152.653L149.923 260H148.364L148.669 257.551H148.575C147.177 259.34 145.704 260.234 144.157 260.234C143.071 260.234 142.22 259.848 141.603 259.074C140.985 258.301 140.677 257.242 140.677 255.898C140.677 254.273 140.954 252.766 141.509 251.375C142.064 249.984 142.829 248.895 143.806 248.105C144.782 247.316 145.853 246.922 147.017 246.922ZM144.79 258.605C145.548 258.605 146.302 258.246 147.052 257.527C147.802 256.801 148.411 255.859 148.88 254.703C149.349 253.539 149.583 252.375 149.583 251.211C149.583 250.406 149.364 249.766 148.927 249.289C148.489 248.812 147.915 248.574 147.204 248.574C146.392 248.574 145.634 248.91 144.931 249.582C144.235 250.254 143.689 251.164 143.29 252.312C142.892 253.461 142.693 254.672 142.693 255.945C142.693 256.836 142.876 257.504 143.243 257.949C143.61 258.387 144.126 258.605 144.79 258.605ZM162.871 246.922C163.41 246.922 163.879 246.977 164.278 247.086L163.856 248.844C163.442 248.742 163.031 248.691 162.625 248.691C161.914 248.691 161.246 248.926 160.621 249.395C160.004 249.863 159.461 250.516 158.992 251.352C158.531 252.18 158.192 253.102 157.973 254.117L156.719 260H154.75L157.492 247.156H159.121L158.863 249.535H158.981C159.543 248.793 160.008 248.262 160.375 247.941C160.742 247.613 161.125 247.363 161.524 247.191C161.93 247.012 162.379 246.922 162.871 246.922ZM169.163 258.629C169.593 258.629 170.155 258.527 170.851 258.324V259.836C170.585 259.945 170.257 260.039 169.866 260.117C169.476 260.195 169.163 260.234 168.929 260.234C167.952 260.234 167.202 260.004 166.679 259.543C166.163 259.074 165.905 258.379 165.905 257.457C165.905 256.941 165.976 256.355 166.116 255.699L167.605 248.645H165.589L165.753 247.789L167.921 246.875L169.386 244.203H170.534L169.89 247.156H173.101L172.796 248.645H169.597L168.085 255.723C167.945 256.402 167.874 256.918 167.874 257.27C167.874 257.707 167.988 258.043 168.214 258.277C168.441 258.512 168.757 258.629 169.163 258.629ZM175.936 260H173.967L176.709 247.156H178.678L175.936 260ZM177.26 243.875C177.26 243.438 177.385 243.082 177.635 242.809C177.885 242.527 178.209 242.387 178.608 242.387C179.295 242.387 179.639 242.738 179.639 243.441C179.639 243.871 179.506 244.234 179.24 244.531C178.983 244.828 178.682 244.977 178.338 244.977C178.026 244.977 177.768 244.883 177.565 244.695C177.362 244.5 177.26 244.227 177.26 243.875ZM186.259 260.234C184.743 260.234 183.568 259.816 182.732 258.98C181.896 258.145 181.478 256.965 181.478 255.441C181.478 253.879 181.767 252.438 182.345 251.117C182.923 249.797 183.72 248.77 184.736 248.035C185.759 247.293 186.908 246.922 188.181 246.922C189.251 246.922 190.298 247.121 191.322 247.52L190.771 249.172C189.833 248.773 188.978 248.574 188.204 248.574C187.329 248.574 186.529 248.875 185.802 249.477C185.083 250.07 184.517 250.902 184.103 251.973C183.697 253.035 183.493 254.191 183.493 255.441C183.493 256.441 183.751 257.219 184.267 257.773C184.79 258.328 185.509 258.605 186.423 258.605C186.986 258.605 187.517 258.527 188.017 258.371C188.517 258.215 189.009 258.031 189.493 257.82V259.496C188.525 259.988 187.447 260.234 186.259 260.234ZM194.731 260H192.762L196.653 241.766H198.621L194.731 260ZM204.913 260.234C203.476 260.234 202.347 259.809 201.527 258.957C200.706 258.105 200.296 256.926 200.296 255.418C200.296 253.949 200.585 252.543 201.163 251.199C201.749 249.848 202.523 248.797 203.484 248.047C204.445 247.297 205.503 246.922 206.66 246.922C207.855 246.922 208.753 247.184 209.355 247.707C209.956 248.223 210.257 248.945 210.257 249.875C210.257 251.281 209.609 252.387 208.312 253.191C207.015 253.988 205.16 254.387 202.745 254.387H202.359L202.312 255.324C202.312 256.348 202.55 257.148 203.027 257.727C203.511 258.297 204.257 258.582 205.265 258.582C205.757 258.582 206.261 258.512 206.777 258.371C207.3 258.23 207.949 257.973 208.722 257.598V259.309C207.988 259.652 207.339 259.891 206.777 260.023C206.214 260.164 205.593 260.234 204.913 260.234ZM206.542 248.598C205.738 248.598 204.98 248.965 204.269 249.699C203.566 250.434 203.027 251.453 202.652 252.758H202.792C204.574 252.758 205.937 252.527 206.882 252.066C207.835 251.598 208.312 250.922 208.312 250.039C208.312 249.625 208.167 249.281 207.878 249.008C207.597 248.734 207.152 248.598 206.542 248.598ZM221.798 260H219.83L222.572 247.156H224.54L221.798 260ZM223.123 243.875C223.123 243.438 223.248 243.082 223.498 242.809C223.748 242.527 224.072 242.387 224.47 242.387C225.158 242.387 225.501 242.738 225.501 243.441C225.501 243.871 225.369 244.234 225.103 244.531C224.845 244.828 224.544 244.977 224.201 244.977C223.888 244.977 223.63 244.883 223.427 244.695C223.224 244.5 223.123 244.227 223.123 243.875ZM234.805 256.355C234.805 257.574 234.372 258.527 233.504 259.215C232.645 259.895 231.43 260.234 229.86 260.234C228.54 260.234 227.348 259.965 226.286 259.426V257.574C226.833 257.902 227.422 258.156 228.055 258.336C228.688 258.516 229.274 258.605 229.813 258.605C230.797 258.605 231.54 258.41 232.04 258.02C232.54 257.629 232.79 257.129 232.79 256.52C232.79 256.074 232.653 255.699 232.379 255.395C232.106 255.09 231.516 254.672 230.61 254.141C229.594 253.57 228.875 253.012 228.454 252.465C228.032 251.918 227.821 251.27 227.821 250.52C227.821 249.441 228.215 248.574 229.004 247.918C229.793 247.254 230.833 246.922 232.122 246.922C233.458 246.922 234.747 247.211 235.989 247.789L235.356 249.395L234.7 249.102C233.911 248.766 233.051 248.598 232.122 248.598C231.395 248.598 230.825 248.77 230.411 249.113C229.997 249.449 229.79 249.887 229.79 250.426C229.79 250.863 229.926 251.238 230.2 251.551C230.481 251.863 231.055 252.266 231.922 252.758C232.758 253.227 233.356 253.629 233.715 253.965C234.083 254.301 234.356 254.664 234.536 255.055C234.715 255.438 234.805 255.871 234.805 256.355ZM251.526 260H249.51L251.807 249.301C252.268 247.262 252.612 245.859 252.838 245.094C252.448 245.508 251.905 245.941 251.21 246.395L249.124 247.684L248.186 246.195L253.448 242.867H255.194L251.526 260ZM271.611 248.117C271.611 250.422 271.302 252.527 270.685 254.434C270.076 256.34 269.24 257.785 268.177 258.77C267.123 259.746 265.896 260.234 264.498 260.234C263.123 260.234 262.068 259.738 261.334 258.746C260.599 257.746 260.232 256.301 260.232 254.41C260.232 252.301 260.552 250.293 261.193 248.387C261.834 246.473 262.677 245.031 263.724 244.062C264.779 243.086 265.982 242.598 267.334 242.598C270.185 242.598 271.611 244.438 271.611 248.117ZM267.216 244.285C266.334 244.285 265.517 244.738 264.767 245.645C264.017 246.543 263.408 247.805 262.939 249.43C262.478 251.047 262.248 252.699 262.248 254.387C262.248 255.73 262.443 256.762 262.834 257.48C263.224 258.199 263.853 258.559 264.72 258.559C265.619 258.559 266.435 258.113 267.17 257.223C267.904 256.332 268.49 255.051 268.927 253.379C269.373 251.707 269.595 249.938 269.595 248.07C269.595 245.547 268.802 244.285 267.216 244.285ZM287.675 246.945C289.191 246.945 290.289 247.688 290.968 249.172H291.086C291.218 247.961 291.394 246.891 291.613 245.961L292.527 241.766H294.472L290.605 260H288.976L289.234 257.551H289.14C288.351 258.527 287.613 259.219 286.925 259.625C286.238 260.031 285.527 260.234 284.793 260.234C283.707 260.234 282.859 259.852 282.25 259.086C281.64 258.32 281.336 257.258 281.336 255.898C281.336 254.227 281.617 252.695 282.179 251.305C282.742 249.914 283.5 248.84 284.453 248.082C285.414 247.324 286.488 246.945 287.675 246.945ZM285.449 258.605C286.183 258.605 286.941 258.242 287.722 257.516C288.504 256.781 289.121 255.848 289.574 254.715C290.035 253.574 290.265 252.414 290.265 251.234C290.265 250.367 290.054 249.707 289.633 249.254C289.211 248.801 288.597 248.574 287.793 248.574C287.004 248.574 286.269 248.898 285.59 249.547C284.918 250.188 284.375 251.094 283.961 252.266C283.554 253.43 283.351 254.656 283.351 255.945C283.351 257.719 284.05 258.605 285.449 258.605ZM302.487 246.922C303.206 246.922 303.846 247.117 304.409 247.508C304.971 247.891 305.409 248.445 305.721 249.172H305.85L306.635 247.156H308.124L305.393 260H303.835L304.139 257.551H304.046C302.647 259.34 301.175 260.234 299.628 260.234C298.542 260.234 297.69 259.848 297.073 259.074C296.456 258.301 296.147 257.242 296.147 255.898C296.147 254.273 296.425 252.766 296.979 251.375C297.534 249.984 298.3 248.895 299.276 248.105C300.253 247.316 301.323 246.922 302.487 246.922ZM300.26 258.605C301.018 258.605 301.772 258.246 302.522 257.527C303.272 256.801 303.882 255.859 304.35 254.703C304.819 253.539 305.053 252.375 305.053 251.211C305.053 250.406 304.835 249.766 304.397 249.289C303.96 248.812 303.385 248.574 302.675 248.574C301.862 248.574 301.104 248.91 300.401 249.582C299.706 250.254 299.159 251.164 298.76 252.312C298.362 253.461 298.163 254.672 298.163 255.945C298.163 256.836 298.346 257.504 298.714 257.949C299.081 258.387 299.596 258.605 300.26 258.605ZM310.678 247.156H312.646L313.513 253.543C313.592 254.082 313.666 254.879 313.736 255.934C313.814 256.98 313.853 257.824 313.853 258.465H313.924C314.197 257.785 314.537 257.004 314.943 256.121C315.349 255.238 315.65 254.629 315.845 254.293L319.654 247.156H321.74L313.584 262.18C312.857 263.523 312.138 264.457 311.428 264.98C310.717 265.504 309.861 265.766 308.861 265.766C308.299 265.766 307.752 265.684 307.22 265.52V263.938C307.713 264.078 308.224 264.148 308.756 264.148C309.396 264.148 309.943 263.949 310.396 263.551C310.857 263.16 311.303 262.578 311.732 261.805L312.623 260.211L310.678 247.156ZM330.188 256.355C330.188 257.574 329.755 258.527 328.888 259.215C328.028 259.895 326.813 260.234 325.243 260.234C323.923 260.234 322.731 259.965 321.669 259.426V257.574C322.216 257.902 322.805 258.156 323.438 258.336C324.071 258.516 324.657 258.605 325.196 258.605C326.18 258.605 326.923 258.41 327.423 258.02C327.923 257.629 328.173 257.129 328.173 256.52C328.173 256.074 328.036 255.699 327.763 255.395C327.489 255.09 326.899 254.672 325.993 254.141C324.977 253.57 324.259 253.012 323.837 252.465C323.415 251.918 323.204 251.27 323.204 250.52C323.204 249.441 323.598 248.574 324.388 247.918C325.177 247.254 326.216 246.922 327.505 246.922C328.841 246.922 330.13 247.211 331.372 247.789L330.739 249.395L330.083 249.102C329.294 248.766 328.434 248.598 327.505 248.598C326.778 248.598 326.208 248.77 325.794 249.113C325.38 249.449 325.173 249.887 325.173 250.426C325.173 250.863 325.309 251.238 325.583 251.551C325.864 251.863 326.438 252.266 327.305 252.758C328.141 253.227 328.739 253.629 329.098 253.965C329.466 254.301 329.739 254.664 329.919 255.055C330.098 255.438 330.188 255.871 330.188 256.355ZM346.405 260.234C345.647 260.234 344.979 260.035 344.401 259.637C343.831 259.238 343.401 258.695 343.112 258.008H342.995L342.175 260H340.71L344.577 241.766H346.546C346.147 243.656 345.839 245.105 345.62 246.113C345.409 247.113 345.116 248.285 344.741 249.629H344.847C345.573 248.707 346.288 248.031 346.991 247.602C347.702 247.164 348.433 246.945 349.183 246.945C350.284 246.945 351.143 247.332 351.761 248.105C352.378 248.879 352.686 249.941 352.686 251.293C352.686 252.926 352.417 254.438 351.878 255.828C351.347 257.211 350.6 258.293 349.64 259.074C348.686 259.848 347.608 260.234 346.405 260.234ZM348.585 248.574C347.835 248.574 347.069 248.945 346.288 249.688C345.515 250.43 344.897 251.363 344.436 252.488C343.983 253.613 343.757 254.766 343.757 255.945C343.757 256.805 343.972 257.465 344.401 257.926C344.839 258.379 345.468 258.605 346.288 258.605C347.061 258.605 347.78 258.289 348.444 257.656C349.116 257.023 349.655 256.125 350.061 254.961C350.468 253.789 350.671 252.547 350.671 251.234C350.671 249.461 349.975 248.574 348.585 248.574ZM360.596 260.234C359.158 260.234 358.029 259.809 357.209 258.957C356.389 258.105 355.978 256.926 355.978 255.418C355.978 253.949 356.268 252.543 356.846 251.199C357.432 249.848 358.205 248.797 359.166 248.047C360.127 247.297 361.185 246.922 362.342 246.922C363.537 246.922 364.435 247.184 365.037 247.707C365.639 248.223 365.939 248.945 365.939 249.875C365.939 251.281 365.291 252.387 363.994 253.191C362.697 253.988 360.842 254.387 358.428 254.387H358.041L357.994 255.324C357.994 256.348 358.232 257.148 358.709 257.727C359.193 258.297 359.939 258.582 360.947 258.582C361.439 258.582 361.943 258.512 362.459 258.371C362.982 258.23 363.631 257.973 364.404 257.598V259.309C363.67 259.652 363.021 259.891 362.459 260.023C361.896 260.164 361.275 260.234 360.596 260.234ZM362.225 248.598C361.42 248.598 360.662 248.965 359.951 249.699C359.248 250.434 358.709 251.453 358.334 252.758H358.475C360.256 252.758 361.619 252.527 362.564 252.066C363.518 251.598 363.994 250.922 363.994 250.039C363.994 249.625 363.85 249.281 363.56 249.008C363.279 248.734 362.834 248.598 362.225 248.598ZM376.169 260L377.903 251.891C378.044 251.156 378.114 250.629 378.114 250.309C378.114 249.152 377.54 248.574 376.392 248.574C375.696 248.574 375.017 248.805 374.353 249.266C373.696 249.727 373.114 250.398 372.606 251.281C372.106 252.156 371.728 253.215 371.47 254.457L370.286 260H368.317L372.185 241.766H374.153C374.013 242.406 373.876 243.027 373.743 243.629C373.618 244.23 373.485 244.844 373.345 245.469C373.212 246.086 373.063 246.734 372.899 247.414C372.743 248.094 372.56 248.832 372.349 249.629H372.478C373.212 248.668 373.935 247.98 374.645 247.566C375.364 247.152 376.114 246.945 376.895 246.945C377.919 246.945 378.708 247.227 379.263 247.789C379.825 248.352 380.106 249.148 380.106 250.18C380.106 250.664 380.017 251.312 379.837 252.125C379.532 253.633 378.966 256.258 378.138 260H376.169ZM385.098 260H383.129L385.871 247.156H387.84L385.098 260ZM386.422 243.875C386.422 243.438 386.547 243.082 386.797 242.809C387.047 242.527 387.371 242.387 387.77 242.387C388.457 242.387 388.801 242.738 388.801 243.441C388.801 243.871 388.668 244.234 388.402 244.531C388.145 244.828 387.844 244.977 387.5 244.977C387.188 244.977 386.93 244.883 386.727 244.695C386.523 244.5 386.422 244.227 386.422 243.875ZM398.034 260L399.769 251.891C399.925 251.078 400.003 250.516 400.003 250.203C400.003 249.711 399.862 249.316 399.581 249.02C399.308 248.723 398.866 248.574 398.257 248.574C397.562 248.574 396.882 248.809 396.218 249.277C395.562 249.746 394.98 250.414 394.472 251.281C393.972 252.148 393.593 253.199 393.335 254.434L392.151 260H390.183L392.925 247.156H394.554L394.296 249.535H394.413C395.163 248.582 395.886 247.91 396.581 247.52C397.284 247.121 398.011 246.922 398.761 246.922C399.753 246.922 400.534 247.195 401.105 247.742C401.683 248.281 401.972 249.039 401.972 250.016C401.972 250.633 401.882 251.336 401.702 252.125L400.026 260H398.034ZM411.791 246.945C413.307 246.945 414.404 247.688 415.084 249.172H415.201C415.334 247.961 415.51 246.891 415.729 245.961L416.643 241.766H418.588L414.721 260H413.092L413.35 257.551H413.256C412.467 258.527 411.729 259.219 411.041 259.625C410.354 260.031 409.643 260.234 408.908 260.234C407.822 260.234 406.975 259.852 406.365 259.086C405.756 258.32 405.451 257.258 405.451 255.898C405.451 254.227 405.733 252.695 406.295 251.305C406.858 249.914 407.615 248.84 408.568 248.082C409.529 247.324 410.604 246.945 411.791 246.945ZM409.565 258.605C410.299 258.605 411.057 258.242 411.838 257.516C412.619 256.781 413.236 255.848 413.69 254.715C414.15 253.574 414.381 252.414 414.381 251.234C414.381 250.367 414.17 249.707 413.748 249.254C413.326 248.801 412.713 248.574 411.908 248.574C411.119 248.574 410.385 248.898 409.705 249.547C409.033 250.188 408.49 251.094 408.076 252.266C407.67 253.43 407.467 254.656 407.467 255.945C407.467 257.719 408.166 258.605 409.565 258.605ZM433.797 246.922C434.516 246.922 435.156 247.117 435.719 247.508C436.281 247.891 436.719 248.445 437.031 249.172H437.16L437.945 247.156H439.434L436.703 260H435.145L435.449 257.551H435.356C433.957 259.34 432.485 260.234 430.938 260.234C429.852 260.234 429 259.848 428.383 259.074C427.766 258.301 427.457 257.242 427.457 255.898C427.457 254.273 427.735 252.766 428.289 251.375C428.844 249.984 429.61 248.895 430.586 248.105C431.563 247.316 432.633 246.922 433.797 246.922ZM431.57 258.605C432.328 258.605 433.082 258.246 433.832 257.527C434.582 256.801 435.192 255.859 435.66 254.703C436.129 253.539 436.363 252.375 436.363 251.211C436.363 250.406 436.145 249.766 435.707 249.289C435.27 248.812 434.695 248.574 433.985 248.574C433.172 248.574 432.414 248.91 431.711 249.582C431.016 250.254 430.469 251.164 430.07 252.312C429.672 253.461 429.473 254.672 429.473 255.945C429.473 256.836 429.656 257.504 430.024 257.949C430.391 258.387 430.906 258.605 431.57 258.605ZM449.382 260L451.116 251.891C451.273 251.078 451.351 250.516 451.351 250.203C451.351 249.711 451.21 249.316 450.929 249.02C450.655 248.723 450.214 248.574 449.605 248.574C448.909 248.574 448.23 248.809 447.566 249.277C446.909 249.746 446.327 250.414 445.82 251.281C445.32 252.148 444.941 253.199 444.683 254.434L443.499 260H441.53L444.273 247.156H445.902L445.644 249.535H445.761C446.511 248.582 447.234 247.91 447.929 247.52C448.632 247.121 449.359 246.922 450.109 246.922C451.101 246.922 451.882 247.195 452.452 247.742C453.03 248.281 453.32 249.039 453.32 250.016C453.32 250.633 453.23 251.336 453.05 252.125L451.374 260H449.382ZM463.139 246.945C464.655 246.945 465.752 247.688 466.432 249.172H466.549C466.682 247.961 466.858 246.891 467.076 245.961L467.99 241.766H469.936L466.069 260H464.44L464.698 257.551H464.604C463.815 258.527 463.076 259.219 462.389 259.625C461.701 260.031 460.99 260.234 460.256 260.234C459.17 260.234 458.323 259.852 457.713 259.086C457.104 258.32 456.799 257.258 456.799 255.898C456.799 254.227 457.08 252.695 457.643 251.305C458.205 249.914 458.963 248.84 459.916 248.082C460.877 247.324 461.951 246.945 463.139 246.945ZM460.912 258.605C461.647 258.605 462.405 258.242 463.186 257.516C463.967 256.781 464.584 255.848 465.037 254.715C465.498 253.574 465.729 252.414 465.729 251.234C465.729 250.367 465.518 249.707 465.096 249.254C464.674 248.801 464.061 248.574 463.256 248.574C462.467 248.574 461.733 248.898 461.053 249.547C460.381 250.188 459.838 251.094 459.424 252.266C459.018 253.43 458.815 254.656 458.815 255.945C458.815 257.719 459.514 258.605 460.912 258.605ZM485.145 246.945C486.66 246.945 487.758 247.688 488.438 249.172H488.555C488.688 247.961 488.864 246.891 489.082 245.961L489.996 241.766H491.942L488.075 260H486.446L486.703 257.551H486.61C485.821 258.527 485.082 259.219 484.395 259.625C483.707 260.031 482.996 260.234 482.262 260.234C481.176 260.234 480.328 259.852 479.719 259.086C479.11 258.32 478.805 257.258 478.805 255.898C478.805 254.227 479.086 252.695 479.649 251.305C480.211 249.914 480.969 248.84 481.922 248.082C482.883 247.324 483.957 246.945 485.145 246.945ZM482.918 258.605C483.653 258.605 484.41 258.242 485.192 257.516C485.973 256.781 486.59 255.848 487.043 254.715C487.504 253.574 487.735 252.414 487.735 251.234C487.735 250.367 487.524 249.707 487.102 249.254C486.68 248.801 486.067 248.574 485.262 248.574C484.473 248.574 483.739 248.898 483.059 249.547C482.387 250.188 481.844 251.094 481.43 252.266C481.024 253.43 480.821 254.656 480.821 255.945C480.821 257.719 481.52 258.605 482.918 258.605ZM500.003 246.992C501.488 246.992 502.66 247.434 503.519 248.316C504.378 249.191 504.808 250.398 504.808 251.938C504.808 253.406 504.527 254.793 503.964 256.098C503.402 257.402 502.64 258.41 501.679 259.121C500.718 259.832 499.632 260.188 498.421 260.188C496.921 260.188 495.745 259.746 494.894 258.863C494.042 257.98 493.617 256.773 493.617 255.242C493.617 253.758 493.902 252.363 494.472 251.059C495.042 249.746 495.812 248.742 496.781 248.047C497.749 247.344 498.824 246.992 500.003 246.992ZM502.769 251.668C502.769 250.77 502.523 250.043 502.031 249.488C501.546 248.926 500.886 248.645 500.05 248.645C499.199 248.645 498.433 248.934 497.753 249.512C497.081 250.09 496.558 250.895 496.183 251.926C495.816 252.949 495.632 254.09 495.632 255.348C495.632 256.371 495.878 257.164 496.37 257.727C496.87 258.281 497.585 258.559 498.515 258.559C499.328 258.559 500.058 258.273 500.706 257.703C501.355 257.133 501.859 256.324 502.218 255.277C502.585 254.223 502.769 253.02 502.769 251.668ZM512.67 260.234C511.233 260.234 510.104 259.809 509.284 258.957C508.463 258.105 508.053 256.926 508.053 255.418C508.053 253.949 508.342 252.543 508.92 251.199C509.506 249.848 510.28 248.797 511.241 248.047C512.202 247.297 513.26 246.922 514.416 246.922C515.612 246.922 516.51 247.184 517.112 247.707C517.713 248.223 518.014 248.945 518.014 249.875C518.014 251.281 517.366 252.387 516.069 253.191C514.772 253.988 512.916 254.387 510.502 254.387H510.116L510.069 255.324C510.069 256.348 510.307 257.148 510.784 257.727C511.268 258.297 512.014 258.582 513.022 258.582C513.514 258.582 514.018 258.512 514.534 258.371C515.057 258.23 515.705 257.973 516.479 257.598V259.309C515.745 259.652 515.096 259.891 514.534 260.023C513.971 260.164 513.35 260.234 512.67 260.234ZM514.299 248.598C513.495 248.598 512.737 248.965 512.026 249.699C511.323 250.434 510.784 251.453 510.409 252.758H510.549C512.33 252.758 513.694 252.527 514.639 252.066C515.592 251.598 516.069 250.922 516.069 250.039C516.069 249.625 515.924 249.281 515.635 249.008C515.354 248.734 514.909 248.598 514.299 248.598ZM528.314 256.355C528.314 257.574 527.88 258.527 527.013 259.215C526.154 259.895 524.939 260.234 523.369 260.234C522.048 260.234 520.857 259.965 519.794 259.426V257.574C520.341 257.902 520.931 258.156 521.564 258.336C522.197 258.516 522.783 258.605 523.322 258.605C524.306 258.605 525.048 258.41 525.548 258.02C526.048 257.629 526.298 257.129 526.298 256.52C526.298 256.074 526.162 255.699 525.888 255.395C525.615 255.09 525.025 254.672 524.119 254.141C523.103 253.57 522.384 253.012 521.962 252.465C521.541 251.918 521.33 251.27 521.33 250.52C521.33 249.441 521.724 248.574 522.513 247.918C523.302 247.254 524.341 246.922 525.63 246.922C526.966 246.922 528.255 247.211 529.498 247.789L528.865 249.395L528.208 249.102C527.419 248.766 526.56 248.598 525.63 248.598C524.904 248.598 524.333 248.77 523.919 249.113C523.505 249.449 523.298 249.887 523.298 250.426C523.298 250.863 523.435 251.238 523.708 251.551C523.99 251.863 524.564 252.266 525.431 252.758C526.267 253.227 526.865 253.629 527.224 253.965C527.591 254.301 527.865 254.664 528.044 255.055C528.224 255.438 528.314 255.871 528.314 256.355ZM539.493 260L541.227 251.891C541.383 251.078 541.461 250.516 541.461 250.203C541.461 249.711 541.321 249.316 541.04 249.02C540.766 248.723 540.325 248.574 539.715 248.574C539.02 248.574 538.34 248.809 537.676 249.277C537.02 249.746 536.438 250.414 535.93 251.281C535.43 252.148 535.051 253.199 534.793 254.434L533.61 260H531.641L534.383 247.156H536.012L535.754 249.535H535.872C536.622 248.582 537.344 247.91 538.04 247.52C538.743 247.121 539.469 246.922 540.219 246.922C541.211 246.922 541.993 247.195 542.563 247.742C543.141 248.281 543.43 249.039 543.43 250.016C543.43 250.633 543.34 251.336 543.161 252.125L541.485 260H539.493ZM551.808 242.867L551.902 243.125C551.589 243.836 551.156 244.691 550.601 245.691C550.046 246.684 549.425 247.699 548.738 248.738H547.226C548.273 246.41 549.066 244.453 549.605 242.867H551.808ZM555.428 258.629C555.858 258.629 556.421 258.527 557.116 258.324V259.836C556.85 259.945 556.522 260.039 556.131 260.117C555.741 260.195 555.428 260.234 555.194 260.234C554.217 260.234 553.467 260.004 552.944 259.543C552.428 259.074 552.171 258.379 552.171 257.457C552.171 256.941 552.241 256.355 552.381 255.699L553.87 248.645H551.854L552.018 247.789L554.186 246.875L555.651 244.203H556.799L556.155 247.156H559.366L559.061 248.645H555.862L554.35 255.723C554.21 256.402 554.139 256.918 554.139 257.27C554.139 257.707 554.253 258.043 554.479 258.277C554.706 258.512 555.022 258.629 555.428 258.629ZM574.891 260L576.626 251.891C576.766 251.156 576.837 250.629 576.837 250.309C576.837 249.762 576.715 249.336 576.473 249.031C576.231 248.727 575.817 248.574 575.231 248.574C574.575 248.574 573.934 248.809 573.309 249.277C572.692 249.746 572.145 250.418 571.669 251.293C571.2 252.16 570.837 253.207 570.579 254.434L569.395 260H567.426L570.169 247.156H571.797L571.54 249.535H571.657C572.337 248.605 573.012 247.938 573.684 247.531C574.364 247.125 575.063 246.922 575.782 246.922C576.665 246.922 577.344 247.176 577.821 247.684C578.297 248.191 578.579 248.898 578.665 249.805H578.758C579.43 248.828 580.145 248.105 580.903 247.637C581.661 247.16 582.426 246.922 583.2 246.922C584.192 246.922 584.958 247.188 585.497 247.719C586.044 248.25 586.317 249.023 586.317 250.039C586.317 250.57 586.231 251.266 586.059 252.125L584.372 260H582.38L584.114 251.891C584.27 251.078 584.348 250.508 584.348 250.18C584.348 249.695 584.212 249.309 583.938 249.02C583.672 248.723 583.251 248.574 582.672 248.574C582.04 248.574 581.415 248.801 580.797 249.254C580.18 249.707 579.637 250.352 579.169 251.188C578.708 252.016 578.356 253 578.114 254.141L576.86 260H574.891ZM596.113 246.922C596.832 246.922 597.472 247.117 598.035 247.508C598.597 247.891 599.035 248.445 599.347 249.172H599.476L600.261 247.156H601.75L599.019 260H597.461L597.765 257.551H597.672C596.273 259.34 594.801 260.234 593.254 260.234C592.168 260.234 591.316 259.848 590.699 259.074C590.082 258.301 589.773 257.242 589.773 255.898C589.773 254.273 590.051 252.766 590.605 251.375C591.16 249.984 591.926 248.895 592.902 248.105C593.879 247.316 594.949 246.922 596.113 246.922ZM593.886 258.605C594.644 258.605 595.398 258.246 596.148 257.527C596.898 256.801 597.508 255.859 597.976 254.703C598.445 253.539 598.679 252.375 598.679 251.211C598.679 250.406 598.461 249.766 598.023 249.289C597.586 248.812 597.011 248.574 596.301 248.574C595.488 248.574 594.73 248.91 594.027 249.582C593.332 250.254 592.785 251.164 592.386 252.312C591.988 253.461 591.789 254.672 591.789 255.945C591.789 256.836 591.972 257.504 592.34 257.949C592.707 258.387 593.222 258.605 593.886 258.605ZM607.784 258.629C608.214 258.629 608.776 258.527 609.471 258.324V259.836C609.206 259.945 608.878 260.039 608.487 260.117C608.096 260.195 607.784 260.234 607.55 260.234C606.573 260.234 605.823 260.004 605.3 259.543C604.784 259.074 604.526 258.379 604.526 257.457C604.526 256.941 604.596 256.355 604.737 255.699L606.225 248.645H604.21L604.374 247.789L606.542 246.875L608.007 244.203H609.155L608.51 247.156H611.721L611.417 248.645H608.218L606.706 255.723C606.565 256.402 606.495 256.918 606.495 257.27C606.495 257.707 606.608 258.043 606.835 258.277C607.061 258.512 607.378 258.629 607.784 258.629ZM617.826 260.234C616.31 260.234 615.135 259.816 614.299 258.98C613.463 258.145 613.045 256.965 613.045 255.441C613.045 253.879 613.334 252.438 613.912 251.117C614.49 249.797 615.287 248.77 616.302 248.035C617.326 247.293 618.474 246.922 619.748 246.922C620.818 246.922 621.865 247.121 622.888 247.52L622.338 249.172C621.4 248.773 620.545 248.574 619.771 248.574C618.896 248.574 618.095 248.875 617.369 249.477C616.65 250.07 616.084 250.902 615.67 251.973C615.263 253.035 615.06 254.191 615.06 255.441C615.06 256.441 615.318 257.219 615.834 257.773C616.357 258.328 617.076 258.605 617.99 258.605C618.552 258.605 619.084 258.527 619.584 258.371C620.084 258.215 620.576 258.031 621.06 257.82V259.496C620.092 259.988 619.013 260.234 617.826 260.234ZM632.204 260L633.938 251.891C634.079 251.156 634.149 250.629 634.149 250.309C634.149 249.152 633.575 248.574 632.427 248.574C631.731 248.574 631.052 248.805 630.388 249.266C629.731 249.727 629.149 250.398 628.641 251.281C628.141 252.156 627.763 253.215 627.505 254.457L626.321 260H624.352L628.22 241.766H630.188C630.048 242.406 629.911 243.027 629.778 243.629C629.653 244.23 629.52 244.844 629.38 245.469C629.247 246.086 629.099 246.734 628.934 247.414C628.778 248.094 628.595 248.832 628.384 249.629H628.513C629.247 248.668 629.97 247.98 630.681 247.566C631.399 247.152 632.149 246.945 632.931 246.945C633.954 246.945 634.743 247.227 635.298 247.789C635.86 248.352 636.141 249.148 636.141 250.18C636.141 250.664 636.052 251.312 635.872 252.125C635.567 253.633 635.001 256.258 634.173 260H632.204ZM650.296 258.629C650.725 258.629 651.288 258.527 651.983 258.324V259.836C651.718 259.945 651.39 260.039 650.999 260.117C650.608 260.195 650.296 260.234 650.061 260.234C649.085 260.234 648.335 260.004 647.811 259.543C647.296 259.074 647.038 258.379 647.038 257.457C647.038 256.941 647.108 256.355 647.249 255.699L648.737 248.645H646.722L646.886 247.789L649.054 246.875L650.518 244.203H651.667L651.022 247.156H654.233L653.929 248.645H650.729L649.218 255.723C649.077 256.402 649.007 256.918 649.007 257.27C649.007 257.707 649.12 258.043 649.347 258.277C649.573 258.512 649.89 258.629 650.296 258.629ZM662.951 260L664.685 251.891C664.826 251.156 664.896 250.629 664.896 250.309C664.896 249.152 664.322 248.574 663.174 248.574C662.478 248.574 661.799 248.805 661.135 249.266C660.478 249.727 659.896 250.398 659.389 251.281C658.889 252.156 658.51 253.215 658.252 254.457L657.068 260H655.099L658.967 241.766H660.935C660.795 242.406 660.658 243.027 660.525 243.629C660.4 244.23 660.267 244.844 660.127 245.469C659.994 246.086 659.846 246.734 659.682 247.414C659.525 248.094 659.342 248.832 659.131 249.629H659.26C659.994 248.668 660.717 247.98 661.428 247.566C662.146 247.152 662.896 246.945 663.678 246.945C664.701 246.945 665.49 247.227 666.045 247.789C666.607 248.352 666.889 249.148 666.889 250.18C666.889 250.664 666.799 251.312 666.619 252.125C666.314 253.633 665.748 256.258 664.92 260H662.951ZM674.985 260.234C673.548 260.234 672.419 259.809 671.599 258.957C670.778 258.105 670.368 256.926 670.368 255.418C670.368 253.949 670.657 252.543 671.235 251.199C671.821 249.848 672.595 248.797 673.556 248.047C674.517 247.297 675.575 246.922 676.731 246.922C677.927 246.922 678.825 247.184 679.427 247.707C680.028 248.223 680.329 248.945 680.329 249.875C680.329 251.281 679.681 252.387 678.384 253.191C677.087 253.988 675.231 254.387 672.817 254.387H672.431L672.384 255.324C672.384 256.348 672.622 257.148 673.099 257.727C673.583 258.297 674.329 258.582 675.337 258.582C675.829 258.582 676.333 258.512 676.849 258.371C677.372 258.23 678.021 257.973 678.794 257.598V259.309C678.06 259.652 677.411 259.891 676.849 260.023C676.286 260.164 675.665 260.234 674.985 260.234ZM676.614 248.598C675.81 248.598 675.052 248.965 674.341 249.699C673.638 250.434 673.099 251.453 672.724 252.758H672.864C674.646 252.758 676.009 252.527 676.954 252.066C677.907 251.598 678.384 250.922 678.384 250.039C678.384 249.625 678.239 249.281 677.95 249.008C677.669 248.734 677.224 248.598 676.614 248.598ZM695.597 260.234C694.839 260.234 694.175 260.039 693.604 259.648C693.034 259.258 692.593 258.711 692.28 258.008H692.163L692.116 258.453C692.093 258.648 692.05 258.922 691.987 259.273C691.933 259.625 691.487 261.789 690.651 265.766H688.706L692.644 247.156H694.272L693.968 249.605H694.062C695.46 247.832 696.913 246.945 698.421 246.945C699.491 246.945 700.335 247.328 700.952 248.094C701.569 248.852 701.878 249.918 701.878 251.293C701.878 252.949 701.608 254.469 701.069 255.852C700.53 257.234 699.784 258.312 698.831 259.086C697.878 259.852 696.8 260.234 695.597 260.234ZM697.776 248.574C697.026 248.574 696.261 248.945 695.479 249.688C694.706 250.43 694.089 251.363 693.628 252.488C693.175 253.613 692.948 254.766 692.948 255.945C692.948 256.805 693.163 257.465 693.593 257.926C694.03 258.379 694.659 258.605 695.479 258.605C696.253 258.605 696.972 258.289 697.636 257.656C698.308 257.023 698.847 256.125 699.253 254.961C699.659 253.789 699.862 252.547 699.862 251.234C699.862 249.461 699.167 248.574 697.776 248.574ZM712.834 246.922C713.373 246.922 713.842 246.977 714.24 247.086L713.818 248.844C713.404 248.742 712.994 248.691 712.588 248.691C711.877 248.691 711.209 248.926 710.584 249.395C709.967 249.863 709.424 250.516 708.955 251.352C708.494 252.18 708.154 253.102 707.936 254.117L706.682 260H704.713L707.455 247.156H709.084L708.826 249.535H708.943C709.506 248.793 709.971 248.262 710.338 247.941C710.705 247.613 711.088 247.363 711.486 247.191C711.893 247.012 712.342 246.922 712.834 246.922ZM720.263 260.234C718.825 260.234 717.696 259.809 716.876 258.957C716.056 258.105 715.646 256.926 715.646 255.418C715.646 253.949 715.935 252.543 716.513 251.199C717.099 249.848 717.872 248.797 718.833 248.047C719.794 247.297 720.853 246.922 722.009 246.922C723.204 246.922 724.103 247.184 724.704 247.707C725.306 248.223 725.607 248.945 725.607 249.875C725.607 251.281 724.958 252.387 723.661 253.191C722.364 253.988 720.509 254.387 718.095 254.387H717.708L717.661 255.324C717.661 256.348 717.9 257.148 718.376 257.727C718.86 258.297 719.607 258.582 720.614 258.582C721.107 258.582 721.61 258.512 722.126 258.371C722.65 258.23 723.298 257.973 724.071 257.598V259.309C723.337 259.652 722.689 259.891 722.126 260.023C721.564 260.164 720.943 260.234 720.263 260.234ZM721.892 248.598C721.087 248.598 720.329 248.965 719.618 249.699C718.915 250.434 718.376 251.453 718.001 252.758H718.142C719.923 252.758 721.286 252.527 722.232 252.066C723.185 251.598 723.661 250.922 723.661 250.039C723.661 249.625 723.517 249.281 723.228 249.008C722.946 248.734 722.501 248.598 721.892 248.598ZM729.906 260L728.442 247.156H730.41L731.16 254.34C731.348 256.355 731.442 257.77 731.442 258.582H731.512C732.504 256.434 733.203 254.984 733.609 254.234L737.418 247.156H739.504L732.578 260H729.906ZM741.999 260H740.031L742.773 247.156H744.741L741.999 260ZM743.323 243.875C743.323 243.438 743.448 243.082 743.698 242.809C743.948 242.527 744.273 242.387 744.671 242.387C745.359 242.387 745.702 242.738 745.702 243.441C745.702 243.871 745.57 244.234 745.304 244.531C745.046 244.828 744.745 244.977 744.402 244.977C744.089 244.977 743.831 244.883 743.628 244.695C743.425 244.5 743.323 244.227 743.323 243.875ZM753.928 246.992C755.412 246.992 756.584 247.434 757.444 248.316C758.303 249.191 758.733 250.398 758.733 251.938C758.733 253.406 758.451 254.793 757.889 256.098C757.326 257.402 756.565 258.41 755.604 259.121C754.643 259.832 753.557 260.188 752.346 260.188C750.846 260.188 749.67 259.746 748.819 258.863C747.967 257.98 747.541 256.773 747.541 255.242C747.541 253.758 747.826 252.363 748.397 251.059C748.967 249.746 749.737 248.742 750.705 248.047C751.674 247.344 752.748 246.992 753.928 246.992ZM756.694 251.668C756.694 250.77 756.448 250.043 755.955 249.488C755.471 248.926 754.811 248.645 753.975 248.645C753.123 248.645 752.358 248.934 751.678 249.512C751.006 250.09 750.483 250.895 750.108 251.926C749.74 252.949 749.557 254.09 749.557 255.348C749.557 256.371 749.803 257.164 750.295 257.727C750.795 258.281 751.51 258.559 752.44 258.559C753.252 258.559 753.983 258.273 754.631 257.703C755.28 257.133 755.783 256.324 756.143 255.277C756.51 254.223 756.694 253.02 756.694 251.668ZM766.115 247.156L764.357 255.301C764.216 255.996 764.146 256.539 764.146 256.93C764.146 258.047 764.72 258.605 765.868 258.605C766.556 258.605 767.232 258.371 767.896 257.902C768.56 257.434 769.146 256.762 769.654 255.887C770.161 255.012 770.548 253.957 770.814 252.723L771.986 247.156H773.931L771.224 260H769.595L769.853 257.621H769.712C768.947 258.598 768.216 259.277 767.521 259.66C766.825 260.043 766.107 260.234 765.365 260.234C764.365 260.234 763.579 259.965 763.009 259.426C762.439 258.879 762.154 258.102 762.154 257.094C762.154 256.609 762.24 255.938 762.411 255.078L764.122 247.156H766.115ZM784.254 256.355C784.254 257.574 783.821 258.527 782.953 259.215C782.094 259.895 780.879 260.234 779.309 260.234C777.989 260.234 776.797 259.965 775.735 259.426V257.574C776.282 257.902 776.871 258.156 777.504 258.336C778.137 258.516 778.723 258.605 779.262 258.605C780.246 258.605 780.989 258.41 781.489 258.02C781.989 257.629 782.239 257.129 782.239 256.52C782.239 256.074 782.102 255.699 781.828 255.395C781.555 255.09 780.965 254.672 780.059 254.141C779.043 253.57 778.325 253.012 777.903 252.465C777.481 251.918 777.27 251.27 777.27 250.52C777.27 249.441 777.664 248.574 778.453 247.918C779.243 247.254 780.282 246.922 781.571 246.922C782.907 246.922 784.196 247.211 785.438 247.789L784.805 249.395L784.149 249.102C783.36 248.766 782.5 248.598 781.571 248.598C780.844 248.598 780.274 248.77 779.86 249.113C779.446 249.449 779.239 249.887 779.239 250.426C779.239 250.863 779.375 251.238 779.649 251.551C779.93 251.863 780.504 252.266 781.371 252.758C782.207 253.227 782.805 253.629 783.164 253.965C783.532 254.301 783.805 254.664 783.985 255.055C784.164 255.438 784.254 255.871 784.254 256.355ZM265.824 293.234C265.066 293.234 264.402 293.039 263.832 292.648C263.261 292.258 262.82 291.711 262.507 291.008H262.39L262.343 291.453C262.32 291.648 262.277 291.922 262.214 292.273C262.16 292.625 261.714 294.789 260.878 298.766H258.933L262.871 280.156H264.5L264.195 282.605H264.289C265.687 280.832 267.14 279.945 268.648 279.945C269.718 279.945 270.562 280.328 271.179 281.094C271.796 281.852 272.105 282.918 272.105 284.293C272.105 285.949 271.835 287.469 271.296 288.852C270.757 290.234 270.011 291.312 269.058 292.086C268.105 292.852 267.027 293.234 265.824 293.234ZM268.003 281.574C267.253 281.574 266.488 281.945 265.707 282.688C264.933 283.43 264.316 284.363 263.855 285.488C263.402 286.613 263.175 287.766 263.175 288.945C263.175 289.805 263.39 290.465 263.82 290.926C264.257 291.379 264.886 291.605 265.707 291.605C266.48 291.605 267.199 291.289 267.863 290.656C268.535 290.023 269.074 289.125 269.48 287.961C269.886 286.789 270.089 285.547 270.089 284.234C270.089 282.461 269.394 281.574 268.003 281.574ZM281.737 279.922C282.456 279.922 283.096 280.117 283.659 280.508C284.221 280.891 284.659 281.445 284.971 282.172H285.1L285.885 280.156H287.374L284.643 293H283.085L283.389 290.551H283.295C281.897 292.34 280.424 293.234 278.877 293.234C277.792 293.234 276.94 292.848 276.323 292.074C275.706 291.301 275.397 290.242 275.397 288.898C275.397 287.273 275.674 285.766 276.229 284.375C276.784 282.984 277.549 281.895 278.526 281.105C279.502 280.316 280.573 279.922 281.737 279.922ZM279.51 291.605C280.268 291.605 281.022 291.246 281.772 290.527C282.522 289.801 283.131 288.859 283.6 287.703C284.069 286.539 284.303 285.375 284.303 284.211C284.303 283.406 284.085 282.766 283.647 282.289C283.21 281.812 282.635 281.574 281.924 281.574C281.112 281.574 280.354 281.91 279.651 282.582C278.956 283.254 278.409 284.164 278.01 285.312C277.612 286.461 277.413 287.672 277.413 288.945C277.413 289.836 277.596 290.504 277.963 290.949C278.331 291.387 278.846 291.605 279.51 291.605ZM301.67 280.156L301.377 281.41L298.904 281.691C299.224 282.176 299.384 282.793 299.384 283.543C299.384 285.035 298.927 286.227 298.013 287.117C297.107 288 295.892 288.441 294.369 288.441C293.939 288.441 293.611 288.41 293.384 288.348C292.298 288.762 291.755 289.273 291.755 289.883C291.755 290.203 291.884 290.418 292.142 290.527C292.4 290.629 292.775 290.711 293.267 290.773L294.638 290.938C296.052 291.109 297.076 291.453 297.709 291.969C298.349 292.484 298.67 293.242 298.67 294.242C298.67 295.68 298.099 296.793 296.959 297.582C295.818 298.371 294.212 298.766 292.142 298.766C290.627 298.766 289.439 298.477 288.58 297.898C287.72 297.328 287.291 296.52 287.291 295.473C287.291 294.652 287.572 293.941 288.134 293.34C288.697 292.738 289.607 292.227 290.865 291.805C290.255 291.484 289.951 291.012 289.951 290.387C289.951 289.848 290.15 289.387 290.548 289.004C290.947 288.613 291.502 288.25 292.212 287.914C291.72 287.664 291.318 287.297 291.005 286.812C290.693 286.32 290.537 285.75 290.537 285.102C290.537 283.586 291.002 282.344 291.931 281.375C292.869 280.406 294.064 279.922 295.517 279.922C296.127 279.922 296.728 280 297.322 280.156H301.67ZM289.189 295.285C289.189 295.887 289.443 296.363 289.951 296.715C290.459 297.066 291.212 297.242 292.212 297.242C293.634 297.242 294.744 296.992 295.541 296.492C296.345 296 296.748 295.301 296.748 294.395C296.748 293.91 296.537 293.527 296.115 293.246C295.693 292.965 294.974 292.77 293.959 292.66L292.095 292.473C291.158 292.668 290.439 293.012 289.939 293.504C289.439 293.996 289.189 294.59 289.189 295.285ZM292.447 285.031C292.447 285.695 292.623 286.203 292.974 286.555C293.326 286.898 293.814 287.07 294.439 287.07C295.056 287.07 295.595 286.906 296.056 286.578C296.517 286.25 296.869 285.801 297.111 285.23C297.361 284.652 297.486 284.027 297.486 283.355C297.486 282.715 297.314 282.227 296.97 281.891C296.627 281.555 296.134 281.387 295.494 281.387C294.884 281.387 294.349 281.547 293.888 281.867C293.435 282.18 293.08 282.621 292.822 283.191C292.572 283.754 292.447 284.367 292.447 285.031ZM307.528 293.234C306.09 293.234 304.962 292.809 304.141 291.957C303.321 291.105 302.911 289.926 302.911 288.418C302.911 286.949 303.2 285.543 303.778 284.199C304.364 282.848 305.137 281.797 306.098 281.047C307.059 280.297 308.118 279.922 309.274 279.922C310.469 279.922 311.368 280.184 311.969 280.707C312.571 281.223 312.872 281.945 312.872 282.875C312.872 284.281 312.223 285.387 310.926 286.191C309.63 286.988 307.774 287.387 305.36 287.387H304.973L304.926 288.324C304.926 289.348 305.165 290.148 305.641 290.727C306.126 291.297 306.872 291.582 307.88 291.582C308.372 291.582 308.876 291.512 309.391 291.371C309.915 291.23 310.563 290.973 311.337 290.598V292.309C310.602 292.652 309.954 292.891 309.391 293.023C308.829 293.164 308.208 293.234 307.528 293.234ZM309.157 281.598C308.352 281.598 307.594 281.965 306.883 282.699C306.18 283.434 305.641 284.453 305.266 285.758H305.407C307.188 285.758 308.551 285.527 309.497 285.066C310.45 284.598 310.926 283.922 310.926 283.039C310.926 282.625 310.782 282.281 310.493 282.008C310.212 281.734 309.766 281.598 309.157 281.598ZM322.76 293L326.405 275.867H328.374L324.729 293H322.76ZM346.208 293L345.833 285.945C345.802 285.211 345.786 284.539 345.786 283.93V282.102H345.68L345.095 283.484L344.122 285.699L340.712 293H338.345L337.841 280.156H339.762L339.973 287.117V288.148C339.973 289.297 339.942 290.348 339.88 291.301H339.95C340.317 290.332 340.852 289.074 341.555 287.527L345.012 280.156H347.145L347.579 287.117C347.626 288.43 347.649 289.453 347.649 290.188V290.809L347.626 291.301H347.696C347.915 290.629 348.239 289.777 348.669 288.746C349.098 287.707 350.36 284.844 352.454 280.156H354.54L348.61 293H346.208ZM362.121 279.922C362.84 279.922 363.48 280.117 364.043 280.508C364.605 280.891 365.043 281.445 365.355 282.172H365.484L366.269 280.156H367.758L365.027 293H363.469L363.773 290.551H363.68C362.281 292.34 360.808 293.234 359.262 293.234C358.176 293.234 357.324 292.848 356.707 292.074C356.09 291.301 355.781 290.242 355.781 288.898C355.781 287.273 356.058 285.766 356.613 284.375C357.168 282.984 357.933 281.895 358.91 281.105C359.887 280.316 360.957 279.922 362.121 279.922ZM359.894 291.605C360.652 291.605 361.406 291.246 362.156 290.527C362.906 289.801 363.515 288.859 363.984 287.703C364.453 286.539 364.687 285.375 364.687 284.211C364.687 283.406 364.469 282.766 364.031 282.289C363.594 281.812 363.019 281.574 362.308 281.574C361.496 281.574 360.738 281.91 360.035 282.582C359.34 283.254 358.793 284.164 358.394 285.312C357.996 286.461 357.797 287.672 357.797 288.945C357.797 289.836 357.98 290.504 358.347 290.949C358.715 291.387 359.23 291.605 359.894 291.605ZM377.776 289.355C377.776 290.574 377.343 291.527 376.475 292.215C375.616 292.895 374.401 293.234 372.831 293.234C371.511 293.234 370.319 292.965 369.257 292.426V290.574C369.804 290.902 370.393 291.156 371.026 291.336C371.659 291.516 372.245 291.605 372.784 291.605C373.768 291.605 374.511 291.41 375.011 291.02C375.511 290.629 375.761 290.129 375.761 289.52C375.761 289.074 375.624 288.699 375.35 288.395C375.077 288.09 374.487 287.672 373.581 287.141C372.565 286.57 371.847 286.012 371.425 285.465C371.003 284.918 370.792 284.27 370.792 283.52C370.792 282.441 371.186 281.574 371.975 280.918C372.765 280.254 373.804 279.922 375.093 279.922C376.429 279.922 377.718 280.211 378.96 280.789L378.327 282.395L377.671 282.102C376.882 281.766 376.022 281.598 375.093 281.598C374.366 281.598 373.796 281.77 373.382 282.113C372.968 282.449 372.761 282.887 372.761 283.426C372.761 283.863 372.897 284.238 373.171 284.551C373.452 284.863 374.026 285.266 374.893 285.758C375.729 286.227 376.327 286.629 376.686 286.965C377.054 287.301 377.327 287.664 377.507 288.055C377.686 288.438 377.776 288.871 377.776 289.355ZM390.243 293H388.274L392.165 274.766H394.134L390.243 293ZM402.195 279.992C403.68 279.992 404.852 280.434 405.711 281.316C406.57 282.191 407 283.398 407 284.938C407 286.406 406.719 287.793 406.156 289.098C405.594 290.402 404.832 291.41 403.871 292.121C402.91 292.832 401.824 293.188 400.613 293.188C399.113 293.188 397.938 292.746 397.086 291.863C396.234 290.98 395.809 289.773 395.809 288.242C395.809 286.758 396.094 285.363 396.664 284.059C397.234 282.746 398.004 281.742 398.973 281.047C399.941 280.344 401.016 279.992 402.195 279.992ZM404.961 284.668C404.961 283.77 404.715 283.043 404.223 282.488C403.738 281.926 403.078 281.645 402.242 281.645C401.391 281.645 400.625 281.934 399.945 282.512C399.273 283.09 398.75 283.895 398.375 284.926C398.008 285.949 397.824 287.09 397.824 288.348C397.824 289.371 398.07 290.164 398.562 290.727C399.062 291.281 399.777 291.559 400.707 291.559C401.52 291.559 402.25 291.273 402.898 290.703C403.547 290.133 404.051 289.324 404.41 288.277C404.777 287.223 404.961 286.02 404.961 284.668ZM416.632 279.992C418.116 279.992 419.288 280.434 420.147 281.316C421.007 282.191 421.437 283.398 421.437 284.938C421.437 286.406 421.155 287.793 420.593 289.098C420.03 290.402 419.269 291.41 418.308 292.121C417.347 292.832 416.261 293.188 415.05 293.188C413.55 293.188 412.374 292.746 411.522 291.863C410.671 290.98 410.245 289.773 410.245 288.242C410.245 286.758 410.53 285.363 411.101 284.059C411.671 282.746 412.44 281.742 413.409 281.047C414.378 280.344 415.452 279.992 416.632 279.992ZM419.397 284.668C419.397 283.77 419.151 283.043 418.659 282.488C418.175 281.926 417.515 281.645 416.679 281.645C415.827 281.645 415.062 281.934 414.382 282.512C413.71 283.09 413.187 283.895 412.812 284.926C412.444 285.949 412.261 287.09 412.261 288.348C412.261 289.371 412.507 290.164 412.999 290.727C413.499 291.281 414.214 291.559 415.144 291.559C415.956 291.559 416.687 291.273 417.335 290.703C417.983 290.133 418.487 289.324 418.847 288.277C419.214 287.223 419.397 286.02 419.397 284.668ZM427.4 286.449L433.565 280.156H435.92L430.424 285.629L433.881 293H431.69L428.936 286.859L427.154 288.301L426.193 293H424.201L428.068 274.766H430.061C429.498 277.391 428.994 279.742 428.549 281.82C428.104 283.898 427.705 285.441 427.354 286.449H427.4ZM438.872 293H436.903L439.646 280.156H441.614L438.872 293ZM440.196 276.875C440.196 276.438 440.321 276.082 440.571 275.809C440.821 275.527 441.146 275.387 441.544 275.387C442.232 275.387 442.575 275.738 442.575 276.441C442.575 276.871 442.442 277.234 442.177 277.531C441.919 277.828 441.618 277.977 441.275 277.977C440.962 277.977 440.704 277.883 440.501 277.695C440.298 277.5 440.196 277.227 440.196 276.875ZM451.809 293L453.543 284.891C453.699 284.078 453.777 283.516 453.777 283.203C453.777 282.711 453.637 282.316 453.356 282.02C453.082 281.723 452.641 281.574 452.031 281.574C451.336 281.574 450.656 281.809 449.992 282.277C449.336 282.746 448.754 283.414 448.246 284.281C447.746 285.148 447.367 286.199 447.109 287.434L445.926 293H443.957L446.699 280.156H448.328L448.07 282.535H448.188C448.938 281.582 449.66 280.91 450.356 280.52C451.059 280.121 451.785 279.922 452.535 279.922C453.527 279.922 454.309 280.195 454.879 280.742C455.457 281.281 455.746 282.039 455.746 283.016C455.746 283.633 455.656 284.336 455.477 285.125L453.801 293H451.809ZM470.968 280.156L470.675 281.41L468.202 281.691C468.523 282.176 468.683 282.793 468.683 283.543C468.683 285.035 468.226 286.227 467.312 287.117C466.405 288 465.191 288.441 463.667 288.441C463.237 288.441 462.909 288.41 462.683 288.348C461.597 288.762 461.054 289.273 461.054 289.883C461.054 290.203 461.183 290.418 461.441 290.527C461.698 290.629 462.073 290.711 462.566 290.773L463.937 290.938C465.351 291.109 466.374 291.453 467.007 291.969C467.648 292.484 467.968 293.242 467.968 294.242C467.968 295.68 467.398 296.793 466.257 297.582C465.116 298.371 463.511 298.766 461.441 298.766C459.925 298.766 458.737 298.477 457.878 297.898C457.019 297.328 456.589 296.52 456.589 295.473C456.589 294.652 456.87 293.941 457.433 293.34C457.995 292.738 458.905 292.227 460.163 291.805C459.554 291.484 459.249 291.012 459.249 290.387C459.249 289.848 459.448 289.387 459.847 289.004C460.245 288.613 460.8 288.25 461.511 287.914C461.019 287.664 460.616 287.297 460.304 286.812C459.991 286.32 459.835 285.75 459.835 285.102C459.835 283.586 460.3 282.344 461.23 281.375C462.167 280.406 463.362 279.922 464.816 279.922C465.425 279.922 466.027 280 466.62 280.156H470.968ZM458.487 295.285C458.487 295.887 458.741 296.363 459.249 296.715C459.757 297.066 460.511 297.242 461.511 297.242C462.933 297.242 464.042 296.992 464.839 296.492C465.644 296 466.046 295.301 466.046 294.395C466.046 293.91 465.835 293.527 465.413 293.246C464.991 292.965 464.273 292.77 463.257 292.66L461.394 292.473C460.456 292.668 459.737 293.012 459.237 293.504C458.737 293.996 458.487 294.59 458.487 295.285ZM461.745 285.031C461.745 285.695 461.921 286.203 462.273 286.555C462.624 286.898 463.112 287.07 463.737 287.07C464.355 287.07 464.894 286.906 465.355 286.578C465.816 286.25 466.167 285.801 466.409 285.23C466.659 284.652 466.784 284.027 466.784 283.355C466.784 282.715 466.612 282.227 466.269 281.891C465.925 281.555 465.433 281.387 464.792 281.387C464.183 281.387 463.648 281.547 463.187 281.867C462.734 282.18 462.378 282.621 462.12 283.191C461.87 283.754 461.745 284.367 461.745 285.031ZM485.743 279.922C486.462 279.922 487.103 280.117 487.665 280.508C488.228 280.891 488.665 281.445 488.978 282.172H489.107L489.892 280.156H491.38L488.65 293H487.091L487.396 290.551H487.302C485.904 292.34 484.431 293.234 482.884 293.234C481.798 293.234 480.947 292.848 480.329 292.074C479.712 291.301 479.404 290.242 479.404 288.898C479.404 287.273 479.681 285.766 480.236 284.375C480.79 282.984 481.556 281.895 482.532 281.105C483.509 280.316 484.579 279.922 485.743 279.922ZM483.517 291.605C484.275 291.605 485.029 291.246 485.779 290.527C486.529 289.801 487.138 288.859 487.607 287.703C488.075 286.539 488.31 285.375 488.31 284.211C488.31 283.406 488.091 282.766 487.654 282.289C487.216 281.812 486.642 281.574 485.931 281.574C485.118 281.574 484.361 281.91 483.657 282.582C482.962 283.254 482.415 284.164 482.017 285.312C481.618 286.461 481.419 287.672 481.419 288.945C481.419 289.836 481.603 290.504 481.97 290.949C482.337 291.387 482.853 291.605 483.517 291.605ZM497.414 291.629C497.844 291.629 498.407 291.527 499.102 291.324V292.836C498.836 292.945 498.508 293.039 498.117 293.117C497.727 293.195 497.414 293.234 497.18 293.234C496.203 293.234 495.453 293.004 494.93 292.543C494.414 292.074 494.157 291.379 494.157 290.457C494.157 289.941 494.227 289.355 494.367 288.699L495.856 281.645H493.84L494.004 280.789L496.172 279.875L497.637 277.203H498.785L498.141 280.156H501.352L501.047 281.645H497.848L496.336 288.723C496.196 289.402 496.125 289.918 496.125 290.27C496.125 290.707 496.239 291.043 496.465 291.277C496.692 291.512 497.008 291.629 497.414 291.629ZM502.031 292.133C502.031 291.531 502.187 291.055 502.499 290.703C502.82 290.344 503.257 290.164 503.812 290.164C504.148 290.164 504.417 290.266 504.62 290.469C504.831 290.672 504.937 290.98 504.937 291.395C504.937 291.949 504.781 292.414 504.468 292.789C504.156 293.156 503.734 293.34 503.202 293.34C502.843 293.34 502.558 293.238 502.347 293.035C502.136 292.832 502.031 292.531 502.031 292.133ZM514.604 275.867L514.698 276.125C514.385 276.836 513.952 277.691 513.397 278.691C512.842 279.684 512.221 280.699 511.534 281.738H510.022C511.069 279.41 511.862 277.453 512.401 275.867H514.604ZM518.928 275.867L519.045 276.125C518.311 277.734 517.241 279.605 515.834 281.738H514.346C514.791 280.754 515.241 279.691 515.694 278.551C516.155 277.402 516.495 276.508 516.713 275.867H518.928Z" fill="black"/>
</svg>
