<svg width="848" height="294" viewBox="0 0 848 294" fill="none" xmlns="http://www.w3.org/2000/svg">
<path d="M385.117 210H382.938C382.375 208.586 381.801 207.184 381.215 205.793C380.637 204.395 380.066 202.98 379.504 201.551L377.465 203.086L376 210H374.008L377.629 192.867H379.621L377.852 201.188L386.055 192.867H388.504L381.016 200.332L385.117 210ZM394.831 196.922C395.55 196.922 396.19 197.117 396.753 197.508C397.315 197.891 397.753 198.445 398.065 199.172H398.194L398.98 197.156H400.468L397.737 210H396.179L396.483 207.551H396.39C394.991 209.34 393.519 210.234 391.972 210.234C390.886 210.234 390.034 209.848 389.417 209.074C388.8 208.301 388.491 207.242 388.491 205.898C388.491 204.273 388.769 202.766 389.323 201.375C389.878 199.984 390.644 198.895 391.62 198.105C392.597 197.316 393.667 196.922 394.831 196.922ZM392.605 208.605C393.362 208.605 394.116 208.246 394.866 207.527C395.616 206.801 396.226 205.859 396.694 204.703C397.163 203.539 397.398 202.375 397.398 201.211C397.398 200.406 397.179 199.766 396.741 199.289C396.304 198.812 395.73 198.574 395.019 198.574C394.206 198.574 393.448 198.91 392.745 199.582C392.05 200.254 391.503 201.164 391.105 202.312C390.706 203.461 390.507 204.672 390.507 205.945C390.507 206.836 390.69 207.504 391.058 207.949C391.425 208.387 391.94 208.605 392.605 208.605ZM406.502 208.629C406.932 208.629 407.494 208.527 408.19 208.324V209.836C407.924 209.945 407.596 210.039 407.205 210.117C406.815 210.195 406.502 210.234 406.268 210.234C405.291 210.234 404.541 210.004 404.018 209.543C403.502 209.074 403.244 208.379 403.244 207.457C403.244 206.941 403.315 206.355 403.455 205.699L404.943 198.645H402.928L403.092 197.789L405.26 196.875L406.725 194.203H407.873L407.229 197.156H410.44L410.135 198.645H406.936L405.424 205.723C405.283 206.402 405.213 206.918 405.213 207.27C405.213 207.707 405.326 208.043 405.553 208.277C405.779 208.512 406.096 208.629 406.502 208.629ZM416.38 210.234C414.943 210.234 413.814 209.809 412.993 208.957C412.173 208.105 411.763 206.926 411.763 205.418C411.763 203.949 412.052 202.543 412.63 201.199C413.216 199.848 413.989 198.797 414.95 198.047C415.911 197.297 416.97 196.922 418.126 196.922C419.321 196.922 420.22 197.184 420.821 197.707C421.423 198.223 421.724 198.945 421.724 199.875C421.724 201.281 421.075 202.387 419.778 203.191C418.482 203.988 416.626 204.387 414.212 204.387H413.825L413.778 205.324C413.778 206.348 414.017 207.148 414.493 207.727C414.978 208.297 415.724 208.582 416.732 208.582C417.224 208.582 417.728 208.512 418.243 208.371C418.767 208.23 419.415 207.973 420.189 207.598V209.309C419.454 209.652 418.806 209.891 418.243 210.023C417.681 210.164 417.06 210.234 416.38 210.234ZM418.009 198.598C417.204 198.598 416.446 198.965 415.735 199.699C415.032 200.434 414.493 201.453 414.118 202.758H414.259C416.04 202.758 417.403 202.527 418.349 202.066C419.302 201.598 419.778 200.922 419.778 200.039C419.778 199.625 419.634 199.281 419.345 199.008C419.064 198.734 418.618 198.598 418.009 198.598ZM426.82 207.211L426.914 207.48C426.031 209.316 424.977 211.188 423.75 213.094H422.238C423.223 210.859 424.02 208.898 424.629 207.211H426.82ZM448.006 210H437.471L437.834 208.277L443.283 203.355C444.08 202.629 444.768 201.992 445.346 201.445C445.932 200.891 446.412 200.371 446.787 199.887C447.17 199.395 447.451 198.91 447.631 198.434C447.819 197.949 447.912 197.414 447.912 196.828C447.912 196.055 447.678 195.441 447.209 194.988C446.74 194.535 446.104 194.309 445.299 194.309C444.698 194.309 444.108 194.422 443.53 194.648C442.959 194.867 442.326 195.242 441.631 195.773L440.67 194.426C442.162 193.223 443.776 192.621 445.51 192.621C446.885 192.621 447.971 192.969 448.768 193.664C449.573 194.352 449.975 195.301 449.975 196.512C449.975 197.379 449.819 198.176 449.506 198.902C449.201 199.629 448.69 200.398 447.971 201.211C447.26 202.023 446.112 203.121 444.526 204.504L440.401 208.102V208.195H448.346L448.006 210ZM458.4 210H456.384L458.681 199.301C459.142 197.262 459.486 195.859 459.712 195.094C459.322 195.508 458.779 195.941 458.083 196.395L455.997 197.684L455.06 196.195L460.322 192.867H462.068L458.4 210Z" fill="#3D5A80"/>
<circle cx="424.5" cy="84.5" r="84.5" fill="#98C1D9"/>
<mask id="path-3-inside-1" fill="white">
<path fill-rule="evenodd" clip-rule="evenodd" d="M361.606 124.913C365.076 104.103 378.575 86.6871 396.968 77.8032C403.704 85.4795 413.587 90.3254 424.601 90.3254C435.68 90.3254 445.613 85.4235 452.351 77.6704C470.885 86.5128 484.502 103.999 487.989 124.913H361.606Z"/>
</mask>
<path fill-rule="evenodd" clip-rule="evenodd" d="M361.606 124.913C365.076 104.103 378.575 86.6871 396.968 77.8032C403.704 85.4795 413.587 90.3254 424.601 90.3254C435.68 90.3254 445.613 85.4235 452.351 77.6704C470.885 86.5128 484.502 103.999 487.989 124.913H361.606Z" fill="#3D5A80"/>
<path d="M396.968 77.8032L397.72 77.1437C397.423 76.8058 396.938 76.7073 396.533 76.9027L396.968 77.8032ZM361.606 124.913L360.62 124.748C360.572 125.038 360.653 125.335 360.843 125.559C361.033 125.784 361.312 125.913 361.606 125.913V124.913ZM452.351 77.6704L452.781 76.7679C452.376 76.5743 451.891 76.6752 451.596 77.0145L452.351 77.6704ZM487.989 124.913V125.913C488.283 125.913 488.562 125.784 488.752 125.559C488.942 125.335 489.024 125.038 488.975 124.748L487.989 124.913ZM396.533 76.9027C377.855 85.9246 364.144 103.611 360.62 124.748L362.593 125.077C366.007 104.595 379.296 87.4497 397.403 78.7037L396.533 76.9027ZM424.601 89.3254C413.886 89.3254 404.273 84.6127 397.72 77.1437L396.216 78.4628C403.134 86.3462 413.287 91.3254 424.601 91.3254V89.3254ZM451.596 77.0145C445.04 84.5583 435.378 89.3254 424.601 89.3254V91.3254C435.981 91.3254 446.186 86.2887 453.106 78.3264L451.596 77.0145ZM488.975 124.748C485.434 103.505 471.603 85.7475 452.781 76.7679L451.92 78.573C470.166 87.2781 483.571 104.493 487.003 125.077L488.975 124.748ZM361.606 125.913H487.989V123.913H361.606V125.913Z" fill="#F9FAFF" mask="url(#path-3-inside-1)"/>
<circle cx="424.614" cy="52.3953" r="28.7449" fill="#3D5A80" stroke="#F9FAFF" stroke-linecap="round" stroke-linejoin="round"/>
<path d="M29.0542 242.738L28.9605 242.48C29.5855 241.066 30.648 239.195 32.148 236.867H33.6363C32.3706 239.828 31.5777 241.785 31.2574 242.738H29.0542ZM24.7066 242.738L24.6363 242.48C25.4019 240.832 26.4566 238.961 27.8003 236.867H29.2886C28.1402 239.562 27.3472 241.52 26.9097 242.738H24.7066ZM33.6002 254L37.2447 236.867H39.2134L35.5689 254H33.6002ZM44.7438 252.629C45.1734 252.629 45.7359 252.527 46.4313 252.324V253.836C46.1656 253.945 45.8375 254.039 45.4469 254.117C45.0563 254.195 44.7438 254.234 44.5094 254.234C43.5328 254.234 42.7828 254.004 42.2594 253.543C41.7438 253.074 41.4859 252.379 41.4859 251.457C41.4859 250.941 41.5563 250.355 41.6969 249.699L43.1852 242.645H41.1695L41.3336 241.789L43.5016 240.875L44.9664 238.203H46.1149L45.4703 241.156H48.6813L48.3766 242.645H45.1774L43.6656 249.723C43.525 250.402 43.4547 250.918 43.4547 251.27C43.4547 251.707 43.568 252.043 43.7945 252.277C44.0211 252.512 44.3375 252.629 44.7438 252.629ZM54.903 236.867L54.9967 237.125C54.6842 237.836 54.2506 238.691 53.6959 239.691C53.1413 240.684 52.5202 241.699 51.8327 242.738H50.3209C51.3678 240.41 52.1608 238.453 52.6999 236.867H54.903ZM62.5075 250.355C62.5075 251.574 62.0739 252.527 61.2067 253.215C60.3474 253.895 59.1325 254.234 57.5622 254.234C56.2419 254.234 55.0505 253.965 53.988 253.426V251.574C54.5349 251.902 55.1247 252.156 55.7575 252.336C56.3903 252.516 56.9763 252.605 57.5153 252.605C58.4997 252.605 59.2419 252.41 59.7419 252.02C60.2419 251.629 60.4919 251.129 60.4919 250.52C60.4919 250.074 60.3552 249.699 60.0817 249.395C59.8083 249.09 59.2184 248.672 58.3122 248.141C57.2966 247.57 56.5778 247.012 56.1559 246.465C55.7341 245.918 55.5231 245.27 55.5231 244.52C55.5231 243.441 55.9177 242.574 56.7067 241.918C57.4958 241.254 58.5349 240.922 59.8239 240.922C61.1599 240.922 62.4489 241.211 63.6911 241.789L63.0583 243.395L62.402 243.102C61.613 242.766 60.7536 242.598 59.8239 242.598C59.0974 242.598 58.527 242.77 58.113 243.113C57.6989 243.449 57.4919 243.887 57.4919 244.426C57.4919 244.863 57.6286 245.238 57.902 245.551C58.1833 245.863 58.7575 246.266 59.6247 246.758C60.4606 247.227 61.0583 247.629 61.4177 247.965C61.7849 248.301 62.0583 248.664 62.238 249.055C62.4177 249.438 62.5075 249.871 62.5075 250.355ZM79.8259 240.922C80.5447 240.922 81.1853 241.117 81.7478 241.508C82.3103 241.891 82.7478 242.445 83.0603 243.172H83.1892L83.9744 241.156H85.4627L82.7322 254H81.1736L81.4783 251.551H81.3845C79.9861 253.34 78.5134 254.234 76.9666 254.234C75.8806 254.234 75.0291 253.848 74.4119 253.074C73.7947 252.301 73.4861 251.242 73.4861 249.898C73.4861 248.273 73.7634 246.766 74.3181 245.375C74.8728 243.984 75.6384 242.895 76.615 242.105C77.5916 241.316 78.6619 240.922 79.8259 240.922ZM77.5994 252.605C78.3572 252.605 79.1111 252.246 79.8611 251.527C80.6111 250.801 81.2205 249.859 81.6892 248.703C82.158 247.539 82.3923 246.375 82.3923 245.211C82.3923 244.406 82.1736 243.766 81.7361 243.289C81.2986 242.812 80.7244 242.574 80.0134 242.574C79.2009 242.574 78.4431 242.91 77.74 243.582C77.0447 244.254 76.4978 245.164 76.0994 246.312C75.7009 247.461 75.5017 248.672 75.5017 249.945C75.5017 250.836 75.6853 251.504 76.0525 251.949C76.4197 252.387 76.9353 252.605 77.5994 252.605ZM95.4109 254L97.1453 245.891C97.3016 245.078 97.3797 244.516 97.3797 244.203C97.3797 243.711 97.2391 243.316 96.9578 243.02C96.6844 242.723 96.243 242.574 95.6336 242.574C94.9383 242.574 94.2586 242.809 93.5945 243.277C92.9383 243.746 92.3563 244.414 91.8484 245.281C91.3484 246.148 90.9695 247.199 90.7117 248.434L89.5281 254H87.5594L90.3016 241.156H91.9305L91.6727 243.535H91.7899C92.5399 242.582 93.2625 241.91 93.9578 241.52C94.6609 241.121 95.3875 240.922 96.1375 240.922C97.1297 240.922 97.9109 241.195 98.4813 241.742C99.0594 242.281 99.3484 243.039 99.3484 244.016C99.3484 244.633 99.2586 245.336 99.0789 246.125L97.4031 254H95.4109ZM110.223 254L111.957 245.891C112.113 245.078 112.191 244.516 112.191 244.203C112.191 243.711 112.051 243.316 111.769 243.02C111.496 242.723 111.055 242.574 110.445 242.574C109.75 242.574 109.07 242.809 108.406 243.277C107.75 243.746 107.168 244.414 106.66 245.281C106.16 246.148 105.781 247.199 105.523 248.434L104.34 254H102.371L105.113 241.156H106.742L106.484 243.535H106.601C107.351 242.582 108.074 241.91 108.769 241.52C109.473 241.121 110.199 240.922 110.949 240.922C111.941 240.922 112.723 241.195 113.293 241.742C113.871 242.281 114.16 243.039 114.16 244.016C114.16 244.633 114.07 245.336 113.89 246.125L112.215 254H110.223ZM124.026 240.992C125.511 240.992 126.683 241.434 127.542 242.316C128.401 243.191 128.831 244.398 128.831 245.938C128.831 247.406 128.55 248.793 127.987 250.098C127.425 251.402 126.663 252.41 125.702 253.121C124.741 253.832 123.655 254.188 122.444 254.188C120.944 254.188 119.768 253.746 118.917 252.863C118.065 251.98 117.64 250.773 117.64 249.242C117.64 247.758 117.925 246.363 118.495 245.059C119.065 243.746 119.835 242.742 120.804 242.047C121.772 241.344 122.847 240.992 124.026 240.992ZM126.792 245.668C126.792 244.77 126.546 244.043 126.054 243.488C125.569 242.926 124.909 242.645 124.073 242.645C123.222 242.645 122.456 242.934 121.776 243.512C121.104 244.09 120.581 244.895 120.206 245.926C119.839 246.949 119.655 248.09 119.655 249.348C119.655 250.371 119.901 251.164 120.393 251.727C120.893 252.281 121.608 252.559 122.538 252.559C123.35 252.559 124.081 252.273 124.729 251.703C125.378 251.133 125.882 250.324 126.241 249.277C126.608 248.223 126.792 247.02 126.792 245.668ZM132.076 241.156H134.045L134.912 247.543C134.99 248.082 135.064 248.879 135.135 249.934C135.213 250.98 135.252 251.824 135.252 252.465H135.322C135.596 251.785 135.935 251.004 136.342 250.121C136.748 249.238 137.049 248.629 137.244 248.293L141.053 241.156H143.139L134.982 256.18C134.256 257.523 133.537 258.457 132.826 258.98C132.115 259.504 131.26 259.766 130.26 259.766C129.697 259.766 129.15 259.684 128.619 259.52V257.938C129.111 258.078 129.623 258.148 130.154 258.148C130.795 258.148 131.342 257.949 131.795 257.551C132.256 257.16 132.701 256.578 133.131 255.805L134.021 254.211L132.076 241.156ZM145.634 254H143.665L146.407 241.156H148.376L145.634 254ZM146.958 237.875C146.958 237.438 147.083 237.082 147.333 236.809C147.583 236.527 147.907 236.387 148.306 236.387C148.993 236.387 149.337 236.738 149.337 237.441C149.337 237.871 149.204 238.234 148.938 238.531C148.681 238.828 148.38 238.977 148.036 238.977C147.724 238.977 147.466 238.883 147.263 238.695C147.06 238.5 146.958 238.227 146.958 237.875ZM158.57 254L160.305 245.891C160.461 245.078 160.539 244.516 160.539 244.203C160.539 243.711 160.398 243.316 160.117 243.02C159.844 242.723 159.402 242.574 158.793 242.574C158.098 242.574 157.418 242.809 156.754 243.277C156.098 243.746 155.516 244.414 155.008 245.281C154.508 246.148 154.129 247.199 153.871 248.434L152.688 254H150.719L153.461 241.156H155.09L154.832 243.535H154.949C155.699 242.582 156.422 241.91 157.117 241.52C157.82 241.121 158.547 240.922 159.297 240.922C160.289 240.922 161.07 241.195 161.641 241.742C162.219 242.281 162.508 243.039 162.508 244.016C162.508 244.633 162.418 245.336 162.238 246.125L160.562 254H158.57ZM177.73 241.156L177.437 242.41L174.964 242.691C175.284 243.176 175.444 243.793 175.444 244.543C175.444 246.035 174.987 247.227 174.073 248.117C173.167 249 171.952 249.441 170.429 249.441C169.999 249.441 169.671 249.41 169.444 249.348C168.358 249.762 167.815 250.273 167.815 250.883C167.815 251.203 167.944 251.418 168.202 251.527C168.46 251.629 168.835 251.711 169.327 251.773L170.698 251.938C172.112 252.109 173.136 252.453 173.769 252.969C174.409 253.484 174.73 254.242 174.73 255.242C174.73 256.68 174.159 257.793 173.019 258.582C171.878 259.371 170.273 259.766 168.202 259.766C166.687 259.766 165.499 259.477 164.64 258.898C163.78 258.328 163.351 257.52 163.351 256.473C163.351 255.652 163.632 254.941 164.194 254.34C164.757 253.738 165.667 253.227 166.925 252.805C166.315 252.484 166.011 252.012 166.011 251.387C166.011 250.848 166.21 250.387 166.608 250.004C167.007 249.613 167.562 249.25 168.273 248.914C167.78 248.664 167.378 248.297 167.065 247.812C166.753 247.32 166.597 246.75 166.597 246.102C166.597 244.586 167.062 243.344 167.991 242.375C168.929 241.406 170.124 240.922 171.577 240.922C172.187 240.922 172.788 241 173.382 241.156H177.73ZM165.249 256.285C165.249 256.887 165.503 257.363 166.011 257.715C166.519 258.066 167.273 258.242 168.273 258.242C169.694 258.242 170.804 257.992 171.601 257.492C172.405 257 172.808 256.301 172.808 255.395C172.808 254.91 172.597 254.527 172.175 254.246C171.753 253.965 171.034 253.77 170.019 253.66L168.155 253.473C167.218 253.668 166.499 254.012 165.999 254.504C165.499 254.996 165.249 255.59 165.249 256.285ZM168.507 246.031C168.507 246.695 168.683 247.203 169.034 247.555C169.386 247.898 169.874 248.07 170.499 248.07C171.116 248.07 171.655 247.906 172.116 247.578C172.577 247.25 172.929 246.801 173.171 246.23C173.421 245.652 173.546 245.027 173.546 244.355C173.546 243.715 173.374 243.227 173.03 242.891C172.687 242.555 172.194 242.387 171.554 242.387C170.944 242.387 170.409 242.547 169.948 242.867C169.495 243.18 169.14 243.621 168.882 244.191C168.632 244.754 168.507 245.367 168.507 246.031ZM189.646 252.629C190.075 252.629 190.638 252.527 191.333 252.324V253.836C191.068 253.945 190.739 254.039 190.349 254.117C189.958 254.195 189.646 254.234 189.411 254.234C188.435 254.234 187.685 254.004 187.161 253.543C186.646 253.074 186.388 252.379 186.388 251.457C186.388 250.941 186.458 250.355 186.599 249.699L188.087 242.645H186.071L186.235 241.789L188.403 240.875L189.868 238.203H191.017L190.372 241.156H193.583L193.278 242.645H190.079L188.568 249.723C188.427 250.402 188.357 250.918 188.357 251.27C188.357 251.707 188.47 252.043 188.696 252.277C188.923 252.512 189.239 252.629 189.646 252.629ZM201.293 240.992C202.778 240.992 203.949 241.434 204.809 242.316C205.668 243.191 206.098 244.398 206.098 245.938C206.098 247.406 205.817 248.793 205.254 250.098C204.692 251.402 203.93 252.41 202.969 253.121C202.008 253.832 200.922 254.188 199.711 254.188C198.211 254.188 197.035 253.746 196.184 252.863C195.332 251.98 194.906 250.773 194.906 249.242C194.906 247.758 195.192 246.363 195.762 245.059C196.332 243.746 197.102 242.742 198.07 242.047C199.039 241.344 200.113 240.992 201.293 240.992ZM204.059 245.668C204.059 244.77 203.813 244.043 203.32 243.488C202.836 242.926 202.176 242.645 201.34 242.645C200.488 242.645 199.723 242.934 199.043 243.512C198.371 244.09 197.848 244.895 197.473 245.926C197.106 246.949 196.922 248.09 196.922 249.348C196.922 250.371 197.168 251.164 197.66 251.727C198.16 252.281 198.875 252.559 199.805 252.559C200.617 252.559 201.348 252.273 201.996 251.703C202.645 251.133 203.149 250.324 203.508 249.277C203.875 248.223 204.059 247.02 204.059 245.668ZM224.002 250.355C224.002 251.574 223.569 252.527 222.701 253.215C221.842 253.895 220.627 254.234 219.057 254.234C217.737 254.234 216.545 253.965 215.483 253.426V251.574C216.03 251.902 216.619 252.156 217.252 252.336C217.885 252.516 218.471 252.605 219.01 252.605C219.994 252.605 220.737 252.41 221.237 252.02C221.737 251.629 221.987 251.129 221.987 250.52C221.987 250.074 221.85 249.699 221.576 249.395C221.303 249.09 220.713 248.672 219.807 248.141C218.791 247.57 218.073 247.012 217.651 246.465C217.229 245.918 217.018 245.27 217.018 244.52C217.018 243.441 217.412 242.574 218.201 241.918C218.99 241.254 220.03 240.922 221.319 240.922C222.655 240.922 223.944 241.211 225.186 241.789L224.553 243.395L223.897 243.102C223.108 242.766 222.248 242.598 221.319 242.598C220.592 242.598 220.022 242.77 219.608 243.113C219.194 243.449 218.987 243.887 218.987 244.426C218.987 244.863 219.123 245.238 219.397 245.551C219.678 245.863 220.252 246.266 221.119 246.758C221.955 247.227 222.553 247.629 222.912 247.965C223.28 248.301 223.553 248.664 223.733 249.055C223.912 249.438 224.002 249.871 224.002 250.355ZM232.568 254.234C231.052 254.234 229.876 253.816 229.04 252.98C228.204 252.145 227.786 250.965 227.786 249.441C227.786 247.879 228.075 246.438 228.654 245.117C229.232 243.797 230.029 242.77 231.044 242.035C232.068 241.293 233.216 240.922 234.49 240.922C235.56 240.922 236.607 241.121 237.63 241.52L237.079 243.172C236.142 242.773 235.286 242.574 234.513 242.574C233.638 242.574 232.837 242.875 232.111 243.477C231.392 244.07 230.825 244.902 230.411 245.973C230.005 247.035 229.802 248.191 229.802 249.441C229.802 250.441 230.06 251.219 230.575 251.773C231.099 252.328 231.818 252.605 232.732 252.605C233.294 252.605 233.825 252.527 234.325 252.371C234.825 252.215 235.318 252.031 235.802 251.82V253.496C234.833 253.988 233.755 254.234 232.568 254.234ZM247.215 240.922C247.754 240.922 248.223 240.977 248.621 241.086L248.2 242.844C247.785 242.742 247.375 242.691 246.969 242.691C246.258 242.691 245.59 242.926 244.965 243.395C244.348 243.863 243.805 244.516 243.336 245.352C242.875 246.18 242.535 247.102 242.317 248.117L241.063 254H239.094L241.836 241.156H243.465L243.207 243.535H243.325C243.887 242.793 244.352 242.262 244.719 241.941C245.086 241.613 245.469 241.363 245.868 241.191C246.274 241.012 246.723 240.922 247.215 240.922ZM256.413 240.992C257.898 240.992 259.07 241.434 259.929 242.316C260.788 243.191 261.218 244.398 261.218 245.938C261.218 247.406 260.937 248.793 260.374 250.098C259.812 251.402 259.05 252.41 258.089 253.121C257.128 253.832 256.042 254.188 254.831 254.188C253.331 254.188 252.156 253.746 251.304 252.863C250.453 251.98 250.027 250.773 250.027 249.242C250.027 247.758 250.312 246.363 250.882 245.059C251.453 243.746 252.222 242.742 253.191 242.047C254.16 241.344 255.234 240.992 256.413 240.992ZM259.179 245.668C259.179 244.77 258.933 244.043 258.441 243.488C257.956 242.926 257.296 242.645 256.46 242.645C255.609 242.645 254.843 242.934 254.163 243.512C253.492 244.09 252.968 244.895 252.593 245.926C252.226 246.949 252.042 248.09 252.042 249.348C252.042 250.371 252.288 251.164 252.781 251.727C253.281 252.281 253.995 252.559 254.925 252.559C255.738 252.559 256.468 252.273 257.117 251.703C257.765 251.133 258.269 250.324 258.628 249.277C258.995 248.223 259.179 247.02 259.179 245.668ZM265.952 254H263.983L267.873 235.766H269.842L265.952 254ZM273.005 254H271.037L274.927 235.766H276.896L273.005 254ZM289.246 252.629C289.675 252.629 290.238 252.527 290.933 252.324V253.836C290.668 253.945 290.339 254.039 289.949 254.117C289.558 254.195 289.246 254.234 289.011 254.234C288.035 254.234 287.285 254.004 286.761 253.543C286.246 253.074 285.988 252.379 285.988 251.457C285.988 250.941 286.058 250.355 286.199 249.699L287.687 242.645H285.671L285.835 241.789L288.003 240.875L289.468 238.203H290.617L289.972 241.156H293.183L292.878 242.645H289.679L288.168 249.723C288.027 250.402 287.957 250.918 287.957 251.27C287.957 251.707 288.07 252.043 288.296 252.277C288.523 252.512 288.839 252.629 289.246 252.629ZM300.893 240.992C302.378 240.992 303.549 241.434 304.409 242.316C305.268 243.191 305.698 244.398 305.698 245.938C305.698 247.406 305.417 248.793 304.854 250.098C304.292 251.402 303.53 252.41 302.569 253.121C301.608 253.832 300.522 254.188 299.311 254.188C297.811 254.188 296.635 253.746 295.784 252.863C294.932 251.98 294.506 250.773 294.506 249.242C294.506 247.758 294.792 246.363 295.362 245.059C295.932 243.746 296.702 242.742 297.67 242.047C298.639 241.344 299.713 240.992 300.893 240.992ZM303.659 245.668C303.659 244.77 303.413 244.043 302.92 243.488C302.436 242.926 301.776 242.645 300.94 242.645C300.088 242.645 299.323 242.934 298.643 243.512C297.971 244.09 297.448 244.895 297.073 245.926C296.706 246.949 296.522 248.09 296.522 249.348C296.522 250.371 296.768 251.164 297.26 251.727C297.76 252.281 298.475 252.559 299.405 252.559C300.217 252.559 300.948 252.273 301.596 251.703C302.245 251.133 302.749 250.324 303.108 249.277C303.475 248.223 303.659 247.02 303.659 245.668ZM319.618 252.629C320.048 252.629 320.61 252.527 321.305 252.324V253.836C321.04 253.945 320.712 254.039 320.321 254.117C319.93 254.195 319.618 254.234 319.383 254.234C318.407 254.234 317.657 254.004 317.133 253.543C316.618 253.074 316.36 252.379 316.36 251.457C316.36 250.941 316.43 250.355 316.571 249.699L318.059 242.645H316.044L316.208 241.789L318.376 240.875L319.84 238.203H320.989L320.344 241.156H323.555L323.251 242.645H320.051L318.54 249.723C318.399 250.402 318.329 250.918 318.329 251.27C318.329 251.707 318.442 252.043 318.669 252.277C318.895 252.512 319.212 252.629 319.618 252.629ZM332.273 254L334.008 245.891C334.148 245.156 334.218 244.629 334.218 244.309C334.218 243.152 333.644 242.574 332.496 242.574C331.8 242.574 331.121 242.805 330.457 243.266C329.8 243.727 329.218 244.398 328.711 245.281C328.211 246.156 327.832 247.215 327.574 248.457L326.39 254H324.422L328.289 235.766H330.258C330.117 236.406 329.98 237.027 329.847 237.629C329.722 238.23 329.59 238.844 329.449 239.469C329.316 240.086 329.168 240.734 329.004 241.414C328.847 242.094 328.664 242.832 328.453 243.629H328.582C329.316 242.668 330.039 241.98 330.75 241.566C331.468 241.152 332.218 240.945 333 240.945C334.023 240.945 334.812 241.227 335.367 241.789C335.929 242.352 336.211 243.148 336.211 244.18C336.211 244.664 336.121 245.312 335.941 246.125C335.636 247.633 335.07 250.258 334.242 254H332.273ZM344.307 254.234C342.87 254.234 341.741 253.809 340.921 252.957C340.1 252.105 339.69 250.926 339.69 249.418C339.69 247.949 339.979 246.543 340.557 245.199C341.143 243.848 341.917 242.797 342.878 242.047C343.839 241.297 344.897 240.922 346.053 240.922C347.249 240.922 348.147 241.184 348.749 241.707C349.35 242.223 349.651 242.945 349.651 243.875C349.651 245.281 349.003 246.387 347.706 247.191C346.409 247.988 344.553 248.387 342.139 248.387H341.753L341.706 249.324C341.706 250.348 341.944 251.148 342.421 251.727C342.905 252.297 343.651 252.582 344.659 252.582C345.151 252.582 345.655 252.512 346.171 252.371C346.694 252.23 347.342 251.973 348.116 251.598V253.309C347.382 253.652 346.733 253.891 346.171 254.023C345.608 254.164 344.987 254.234 344.307 254.234ZM345.936 242.598C345.132 242.598 344.374 242.965 343.663 243.699C342.96 244.434 342.421 245.453 342.046 246.758H342.186C343.967 246.758 345.331 246.527 346.276 246.066C347.229 245.598 347.706 244.922 347.706 244.039C347.706 243.625 347.561 243.281 347.272 243.008C346.991 242.734 346.546 242.598 345.936 242.598ZM364.919 254.234C364.161 254.234 363.493 254.035 362.915 253.637C362.345 253.238 361.915 252.695 361.626 252.008H361.509L360.688 254H359.223L363.091 235.766H365.059C364.661 237.656 364.352 239.105 364.134 240.113C363.923 241.113 363.63 242.285 363.255 243.629H363.36C364.087 242.707 364.802 242.031 365.505 241.602C366.216 241.164 366.946 240.945 367.696 240.945C368.798 240.945 369.657 241.332 370.274 242.105C370.891 242.879 371.2 243.941 371.2 245.293C371.2 246.926 370.93 248.438 370.391 249.828C369.86 251.211 369.114 252.293 368.153 253.074C367.2 253.848 366.122 254.234 364.919 254.234ZM367.098 242.574C366.348 242.574 365.583 242.945 364.802 243.688C364.028 244.43 363.411 245.363 362.95 246.488C362.497 247.613 362.27 248.766 362.27 249.945C362.27 250.805 362.485 251.465 362.915 251.926C363.352 252.379 363.981 252.605 364.802 252.605C365.575 252.605 366.294 252.289 366.958 251.656C367.63 251.023 368.169 250.125 368.575 248.961C368.981 247.789 369.184 246.547 369.184 245.234C369.184 243.461 368.489 242.574 367.098 242.574ZM380.879 240.992C382.363 240.992 383.535 241.434 384.394 242.316C385.254 243.191 385.683 244.398 385.683 245.938C385.683 247.406 385.402 248.793 384.84 250.098C384.277 251.402 383.515 252.41 382.555 253.121C381.594 253.832 380.508 254.188 379.297 254.188C377.797 254.188 376.621 253.746 375.769 252.863C374.918 251.98 374.492 250.773 374.492 249.242C374.492 247.758 374.777 246.363 375.348 245.059C375.918 243.746 376.687 242.742 377.656 242.047C378.625 241.344 379.699 240.992 380.879 240.992ZM383.644 245.668C383.644 244.77 383.398 244.043 382.906 243.488C382.422 242.926 381.762 242.645 380.926 242.645C380.074 242.645 379.308 242.934 378.629 243.512C377.957 244.09 377.433 244.895 377.058 245.926C376.691 246.949 376.508 248.09 376.508 249.348C376.508 250.371 376.754 251.164 377.246 251.727C377.746 252.281 378.461 252.559 379.39 252.559C380.203 252.559 380.933 252.273 381.582 251.703C382.23 251.133 382.734 250.324 383.094 249.277C383.461 248.223 383.644 247.02 383.644 245.668ZM392.409 252.629C392.839 252.629 393.401 252.527 394.097 252.324V253.836C393.831 253.945 393.503 254.039 393.112 254.117C392.722 254.195 392.409 254.234 392.175 254.234C391.198 254.234 390.448 254.004 389.925 253.543C389.409 253.074 389.151 252.379 389.151 251.457C389.151 250.941 389.222 250.355 389.362 249.699L390.85 242.645H388.835L388.999 241.789L391.167 240.875L392.632 238.203H393.78L393.136 241.156H396.347L396.042 242.645H392.843L391.331 249.723C391.19 250.402 391.12 250.918 391.12 251.27C391.12 251.707 391.233 252.043 391.46 252.277C391.686 252.512 392.003 252.629 392.409 252.629ZM401.15 252.629C401.58 252.629 402.143 252.527 402.838 252.324V253.836C402.572 253.945 402.244 254.039 401.853 254.117C401.463 254.195 401.15 254.234 400.916 254.234C399.939 254.234 399.189 254.004 398.666 253.543C398.15 253.074 397.893 252.379 397.893 251.457C397.893 250.941 397.963 250.355 398.103 249.699L399.592 242.645H397.576L397.74 241.789L399.908 240.875L401.373 238.203H402.521L401.877 241.156H405.088L404.783 242.645H401.584L400.072 249.723C399.932 250.402 399.861 250.918 399.861 251.27C399.861 251.707 399.975 252.043 400.201 252.277C400.428 252.512 400.744 252.629 401.15 252.629ZM412.798 240.992C414.282 240.992 415.454 241.434 416.313 242.316C417.173 243.191 417.603 244.398 417.603 245.938C417.603 247.406 417.321 248.793 416.759 250.098C416.196 251.402 415.435 252.41 414.474 253.121C413.513 253.832 412.427 254.188 411.216 254.188C409.716 254.188 408.54 253.746 407.688 252.863C406.837 251.98 406.411 250.773 406.411 249.242C406.411 247.758 406.696 246.363 407.267 245.059C407.837 243.746 408.606 242.742 409.575 242.047C410.544 241.344 411.618 240.992 412.798 240.992ZM415.563 245.668C415.563 244.77 415.317 244.043 414.825 243.488C414.341 242.926 413.681 242.645 412.845 242.645C411.993 242.645 411.228 242.934 410.548 243.512C409.876 244.09 409.353 244.895 408.978 245.926C408.61 246.949 408.427 248.09 408.427 249.348C408.427 250.371 408.673 251.164 409.165 251.727C409.665 252.281 410.38 252.559 411.31 252.559C412.122 252.559 412.853 252.273 413.501 251.703C414.149 251.133 414.653 250.324 415.013 249.277C415.38 248.223 415.563 247.02 415.563 245.668ZM427.855 254L429.59 245.891C429.73 245.156 429.801 244.629 429.801 244.309C429.801 243.762 429.68 243.336 429.438 243.031C429.195 242.727 428.781 242.574 428.195 242.574C427.539 242.574 426.898 242.809 426.273 243.277C425.656 243.746 425.109 244.418 424.633 245.293C424.164 246.16 423.801 247.207 423.543 248.434L422.359 254H420.391L423.133 241.156H424.762L424.504 243.535H424.621C425.301 242.605 425.977 241.938 426.648 241.531C427.328 241.125 428.027 240.922 428.746 240.922C429.629 240.922 430.309 241.176 430.785 241.684C431.262 242.191 431.543 242.898 431.629 243.805H431.723C432.395 242.828 433.109 242.105 433.867 241.637C434.625 241.16 435.391 240.922 436.164 240.922C437.156 240.922 437.922 241.188 438.461 241.719C439.008 242.25 439.281 243.023 439.281 244.039C439.281 244.57 439.195 245.266 439.023 246.125L437.336 254H435.344L437.078 245.891C437.234 245.078 437.312 244.508 437.312 244.18C437.312 243.695 437.176 243.309 436.902 243.02C436.637 242.723 436.215 242.574 435.637 242.574C435.004 242.574 434.379 242.801 433.762 243.254C433.145 243.707 432.602 244.352 432.133 245.188C431.672 246.016 431.32 247 431.078 248.141L429.824 254H427.855ZM457.42 238.203C456.6 238.203 455.963 238.438 455.51 238.906C455.057 239.375 454.83 240.039 454.83 240.898C454.83 241.836 455.15 242.754 455.791 243.652C456.877 243.098 457.623 242.668 458.029 242.363C458.436 242.059 458.76 241.727 459.002 241.367C459.244 241.008 459.365 240.602 459.365 240.148C459.365 239.547 459.197 239.074 458.861 238.73C458.533 238.379 458.053 238.203 457.42 238.203ZM454.303 252.605C454.983 252.605 455.639 252.477 456.272 252.219C456.904 251.961 457.666 251.477 458.557 250.766L454.971 245.691C453.971 246.215 453.252 246.668 452.815 247.051C452.377 247.434 452.041 247.855 451.807 248.316C451.58 248.77 451.467 249.281 451.467 249.852C451.467 250.68 451.725 251.348 452.24 251.855C452.764 252.355 453.451 252.605 454.303 252.605ZM449.557 249.992C449.557 248.836 449.908 247.832 450.611 246.98C451.315 246.121 452.498 245.293 454.162 244.496C453.358 243.207 452.955 242 452.955 240.875C452.955 239.594 453.369 238.562 454.197 237.781C455.025 236.992 456.123 236.598 457.49 236.598C458.654 236.598 459.576 236.906 460.256 237.523C460.943 238.141 461.287 238.969 461.287 240.008C461.287 240.617 461.158 241.152 460.9 241.613C460.65 242.074 460.311 242.496 459.881 242.879C459.451 243.262 458.951 243.613 458.381 243.934C457.818 244.254 457.221 244.578 456.588 244.906L459.846 249.465C460.838 248.605 461.615 247.453 462.178 246.008H464.147C463.358 247.852 462.252 249.461 460.83 250.836L463.209 254H460.854L459.483 252.055C458.545 252.836 457.647 253.395 456.787 253.73C455.928 254.066 454.963 254.234 453.893 254.234C452.58 254.234 451.529 253.859 450.74 253.109C449.951 252.359 449.557 251.32 449.557 249.992ZM477.645 252.629C478.074 252.629 478.637 252.527 479.332 252.324V253.836C479.067 253.945 478.738 254.039 478.348 254.117C477.957 254.195 477.645 254.234 477.41 254.234C476.434 254.234 475.684 254.004 475.16 253.543C474.645 253.074 474.387 252.379 474.387 251.457C474.387 250.941 474.457 250.355 474.598 249.699L476.086 242.645H474.07L474.235 241.789L476.402 240.875L477.867 238.203H479.016L478.371 241.156H481.582L481.277 242.645H478.078L476.567 249.723C476.426 250.402 476.356 250.918 476.356 251.27C476.356 251.707 476.469 252.043 476.695 252.277C476.922 252.512 477.238 252.629 477.645 252.629ZM490.57 240.922C491.109 240.922 491.577 240.977 491.976 241.086L491.554 242.844C491.14 242.742 490.73 242.691 490.323 242.691C489.613 242.691 488.945 242.926 488.32 243.395C487.702 243.863 487.159 244.516 486.691 245.352C486.23 246.18 485.89 247.102 485.671 248.117L484.417 254H482.448L485.191 241.156H486.82L486.562 243.535H486.679C487.241 242.793 487.706 242.262 488.073 241.941C488.441 241.613 488.823 241.363 489.222 241.191C489.628 241.012 490.077 240.922 490.57 240.922ZM499.721 240.922C500.44 240.922 501.08 241.117 501.643 241.508C502.205 241.891 502.643 242.445 502.955 243.172H503.084L503.869 241.156H505.358L502.627 254H501.069L501.373 251.551H501.28C499.881 253.34 498.408 254.234 496.862 254.234C495.776 254.234 494.924 253.848 494.307 253.074C493.69 252.301 493.381 251.242 493.381 249.898C493.381 248.273 493.658 246.766 494.213 245.375C494.768 243.984 495.533 242.895 496.51 242.105C497.487 241.316 498.557 240.922 499.721 240.922ZM497.494 252.605C498.252 252.605 499.006 252.246 499.756 251.527C500.506 250.801 501.115 249.859 501.584 248.703C502.053 247.539 502.287 246.375 502.287 245.211C502.287 244.406 502.069 243.766 501.631 243.289C501.194 242.812 500.619 242.574 499.908 242.574C499.096 242.574 498.338 242.91 497.635 243.582C496.94 244.254 496.393 245.164 495.994 246.312C495.596 247.461 495.397 248.672 495.397 249.945C495.397 250.836 495.58 251.504 495.948 251.949C496.315 252.387 496.83 252.605 497.494 252.605ZM515.306 254L517.04 245.891C517.197 245.078 517.275 244.516 517.275 244.203C517.275 243.711 517.134 243.316 516.853 243.02C516.579 242.723 516.138 242.574 515.529 242.574C514.833 242.574 514.154 242.809 513.49 243.277C512.833 243.746 512.251 244.414 511.743 245.281C511.243 246.148 510.865 247.199 510.607 248.434L509.423 254H507.454L510.197 241.156H511.825L511.568 243.535H511.685C512.435 242.582 513.158 241.91 513.853 241.52C514.556 241.121 515.283 240.922 516.033 240.922C517.025 240.922 517.806 241.195 518.376 241.742C518.954 242.281 519.243 243.039 519.243 244.016C519.243 244.633 519.154 245.336 518.974 246.125L517.298 254H515.306ZM530.188 250.355C530.188 251.574 529.754 252.527 528.887 253.215C528.028 253.895 526.813 254.234 525.243 254.234C523.922 254.234 522.731 253.965 521.668 253.426V251.574C522.215 251.902 522.805 252.156 523.438 252.336C524.071 252.516 524.657 252.605 525.196 252.605C526.18 252.605 526.922 252.41 527.422 252.02C527.922 251.629 528.172 251.129 528.172 250.52C528.172 250.074 528.036 249.699 527.762 249.395C527.489 249.09 526.899 248.672 525.993 248.141C524.977 247.57 524.258 247.012 523.836 246.465C523.414 245.918 523.203 245.27 523.203 244.52C523.203 243.441 523.598 242.574 524.387 241.918C525.176 241.254 526.215 240.922 527.504 240.922C528.84 240.922 530.129 241.211 531.371 241.789L530.739 243.395L530.082 243.102C529.293 242.766 528.434 242.598 527.504 242.598C526.778 242.598 526.207 242.77 525.793 243.113C525.379 243.449 525.172 243.887 525.172 244.426C525.172 244.863 525.309 245.238 525.582 245.551C525.864 245.863 526.438 246.266 527.305 246.758C528.141 247.227 528.739 247.629 529.098 247.965C529.465 248.301 529.739 248.664 529.918 249.055C530.098 249.438 530.188 249.871 530.188 250.355ZM535.46 254H533.492L537.382 235.766H539.351L535.46 254ZM547.366 240.922C548.084 240.922 548.725 241.117 549.287 241.508C549.85 241.891 550.287 242.445 550.6 243.172H550.729L551.514 241.156H553.002L550.272 254H548.713L549.018 251.551H548.924C547.526 253.34 546.053 254.234 544.506 254.234C543.42 254.234 542.569 253.848 541.952 253.074C541.334 252.301 541.026 251.242 541.026 249.898C541.026 248.273 541.303 246.766 541.858 245.375C542.412 243.984 543.178 242.895 544.155 242.105C545.131 241.316 546.202 240.922 547.366 240.922ZM545.139 252.605C545.897 252.605 546.651 252.246 547.401 251.527C548.151 250.801 548.76 249.859 549.229 248.703C549.698 247.539 549.932 246.375 549.932 245.211C549.932 244.406 549.713 243.766 549.276 243.289C548.838 242.812 548.264 242.574 547.553 242.574C546.741 242.574 545.983 242.91 545.28 243.582C544.584 244.254 544.037 245.164 543.639 246.312C543.241 247.461 543.041 248.672 543.041 249.945C543.041 250.836 543.225 251.504 543.592 251.949C543.959 252.387 544.475 252.605 545.139 252.605ZM559.037 252.629C559.466 252.629 560.029 252.527 560.724 252.324V253.836C560.458 253.945 560.13 254.039 559.74 254.117C559.349 254.195 559.037 254.234 558.802 254.234C557.826 254.234 557.076 254.004 556.552 253.543C556.037 253.074 555.779 252.379 555.779 251.457C555.779 250.941 555.849 250.355 555.99 249.699L557.478 242.645H555.462L555.626 241.789L557.794 240.875L559.259 238.203H560.408L559.763 241.156H562.974L562.669 242.645H559.47L557.958 249.723C557.818 250.402 557.748 250.918 557.748 251.27C557.748 251.707 557.861 252.043 558.087 252.277C558.314 252.512 558.63 252.629 559.037 252.629ZM568.915 254.234C567.477 254.234 566.348 253.809 565.528 252.957C564.708 252.105 564.297 250.926 564.297 249.418C564.297 247.949 564.586 246.543 565.165 245.199C565.75 243.848 566.524 242.797 567.485 242.047C568.446 241.297 569.504 240.922 570.661 240.922C571.856 240.922 572.754 241.184 573.356 241.707C573.958 242.223 574.258 242.945 574.258 243.875C574.258 245.281 573.61 246.387 572.313 247.191C571.016 247.988 569.161 248.387 566.747 248.387H566.36L566.313 249.324C566.313 250.348 566.551 251.148 567.028 251.727C567.512 252.297 568.258 252.582 569.266 252.582C569.758 252.582 570.262 252.512 570.778 252.371C571.301 252.23 571.95 251.973 572.723 251.598V253.309C571.989 253.652 571.34 253.891 570.778 254.023C570.215 254.164 569.594 254.234 568.915 254.234ZM570.543 242.598C569.739 242.598 568.981 242.965 568.27 243.699C567.567 244.434 567.028 245.453 566.653 246.758H566.793C568.575 246.758 569.938 246.527 570.883 246.066C571.836 245.598 572.313 244.922 572.313 244.039C572.313 243.625 572.168 243.281 571.879 243.008C571.598 242.734 571.153 242.598 570.543 242.598ZM587.768 252.629C588.198 252.629 588.76 252.527 589.456 252.324V253.836C589.19 253.945 588.862 254.039 588.471 254.117C588.081 254.195 587.768 254.234 587.534 254.234C586.557 254.234 585.807 254.004 585.284 253.543C584.768 253.074 584.51 252.379 584.51 251.457C584.51 250.941 584.581 250.355 584.721 249.699L586.21 242.645H584.194L584.358 241.789L586.526 240.875L587.991 238.203H589.139L588.495 241.156H591.706L591.401 242.645H588.202L586.69 249.723C586.549 250.402 586.479 250.918 586.479 251.27C586.479 251.707 586.592 252.043 586.819 252.277C587.046 252.512 587.362 252.629 587.768 252.629ZM600.423 254L602.158 245.891C602.298 245.156 602.369 244.629 602.369 244.309C602.369 243.152 601.795 242.574 600.646 242.574C599.951 242.574 599.271 242.805 598.607 243.266C597.951 243.727 597.369 244.398 596.861 245.281C596.361 246.156 595.982 247.215 595.724 248.457L594.541 254H592.572L596.439 235.766H598.408C598.267 236.406 598.13 237.027 597.998 237.629C597.873 238.23 597.74 238.844 597.599 239.469C597.466 240.086 597.318 240.734 597.154 241.414C596.998 242.094 596.814 242.832 596.603 243.629H596.732C597.466 242.668 598.189 241.98 598.9 241.566C599.619 241.152 600.369 240.945 601.15 240.945C602.173 240.945 602.963 241.227 603.517 241.789C604.08 242.352 604.361 243.148 604.361 244.18C604.361 244.664 604.271 245.312 604.091 246.125C603.787 247.633 603.22 250.258 602.392 254H600.423ZM612.458 254.234C611.02 254.234 609.891 253.809 609.071 252.957C608.251 252.105 607.84 250.926 607.84 249.418C607.84 247.949 608.13 246.543 608.708 245.199C609.294 243.848 610.067 242.797 611.028 242.047C611.989 241.297 613.047 240.922 614.204 240.922C615.399 240.922 616.297 241.184 616.899 241.707C617.501 242.223 617.801 242.945 617.801 243.875C617.801 245.281 617.153 246.387 615.856 247.191C614.559 247.988 612.704 248.387 610.29 248.387H609.903L609.856 249.324C609.856 250.348 610.094 251.148 610.571 251.727C611.055 252.297 611.801 252.582 612.809 252.582C613.301 252.582 613.805 252.512 614.321 252.371C614.844 252.23 615.493 251.973 616.266 251.598V253.309C615.532 253.652 614.883 253.891 614.321 254.023C613.758 254.164 613.137 254.234 612.458 254.234ZM614.087 242.598C613.282 242.598 612.524 242.965 611.813 243.699C611.11 244.434 610.571 245.453 610.196 246.758H610.337C612.118 246.758 613.481 246.527 614.426 246.066C615.38 245.598 615.856 244.922 615.856 244.039C615.856 243.625 615.712 243.281 615.422 243.008C615.141 242.734 614.696 242.598 614.087 242.598ZM633.069 254.234C632.311 254.234 631.647 254.039 631.077 253.648C630.507 253.258 630.065 252.711 629.753 252.008H629.635L629.589 252.453C629.565 252.648 629.522 252.922 629.46 253.273C629.405 253.625 628.96 255.789 628.124 259.766H626.178L630.116 241.156H631.745L631.44 243.605H631.534C632.932 241.832 634.385 240.945 635.893 240.945C636.964 240.945 637.807 241.328 638.425 242.094C639.042 242.852 639.35 243.918 639.35 245.293C639.35 246.949 639.081 248.469 638.542 249.852C638.003 251.234 637.257 252.312 636.303 253.086C635.35 253.852 634.272 254.234 633.069 254.234ZM635.249 242.574C634.499 242.574 633.733 242.945 632.952 243.688C632.178 244.43 631.561 245.363 631.1 246.488C630.647 247.613 630.421 248.766 630.421 249.945C630.421 250.805 630.635 251.465 631.065 251.926C631.503 252.379 632.132 252.605 632.952 252.605C633.725 252.605 634.444 252.289 635.108 251.656C635.78 251.023 636.319 250.125 636.725 248.961C637.132 247.789 637.335 246.547 637.335 245.234C637.335 243.461 636.639 242.574 635.249 242.574ZM648.982 240.922C649.701 240.922 650.342 241.117 650.904 241.508C651.467 241.891 651.904 242.445 652.217 243.172H652.345L653.131 241.156H654.619L651.888 254H650.33L650.635 251.551H650.541C649.142 253.34 647.67 254.234 646.123 254.234C645.037 254.234 644.185 253.848 643.568 253.074C642.951 252.301 642.642 251.242 642.642 249.898C642.642 248.273 642.92 246.766 643.474 245.375C644.029 243.984 644.795 242.895 645.771 242.105C646.748 241.316 647.818 240.922 648.982 240.922ZM646.756 252.605C647.513 252.605 648.267 252.246 649.017 251.527C649.767 250.801 650.377 249.859 650.845 248.703C651.314 247.539 651.549 246.375 651.549 245.211C651.549 244.406 651.33 243.766 650.892 243.289C650.455 242.812 649.881 242.574 649.17 242.574C648.357 242.574 647.599 242.91 646.896 243.582C646.201 244.254 645.654 245.164 645.256 246.312C644.857 247.461 644.658 248.672 644.658 249.945C644.658 250.836 644.842 251.504 645.209 251.949C645.576 252.387 646.092 252.605 646.756 252.605ZM668.915 241.156L668.622 242.41L666.149 242.691C666.469 243.176 666.63 243.793 666.63 244.543C666.63 246.035 666.173 247.227 665.259 248.117C664.352 249 663.137 249.441 661.614 249.441C661.184 249.441 660.856 249.41 660.63 249.348C659.544 249.762 659.001 250.273 659.001 250.883C659.001 251.203 659.13 251.418 659.387 251.527C659.645 251.629 660.02 251.711 660.512 251.773L661.884 251.938C663.298 252.109 664.321 252.453 664.954 252.969C665.594 253.484 665.915 254.242 665.915 255.242C665.915 256.68 665.344 257.793 664.204 258.582C663.063 259.371 661.458 259.766 659.387 259.766C657.872 259.766 656.684 259.477 655.825 258.898C654.966 258.328 654.536 257.52 654.536 256.473C654.536 255.652 654.817 254.941 655.38 254.34C655.942 253.738 656.852 253.227 658.11 252.805C657.501 252.484 657.196 252.012 657.196 251.387C657.196 250.848 657.395 250.387 657.794 250.004C658.192 249.613 658.747 249.25 659.458 248.914C658.966 248.664 658.563 248.297 658.251 247.812C657.938 247.32 657.782 246.75 657.782 246.102C657.782 244.586 658.247 243.344 659.177 242.375C660.114 241.406 661.309 240.922 662.762 240.922C663.372 240.922 663.973 241 664.567 241.156H668.915ZM656.434 256.285C656.434 256.887 656.688 257.363 657.196 257.715C657.704 258.066 658.458 258.242 659.458 258.242C660.88 258.242 661.989 257.992 662.786 257.492C663.591 257 663.993 256.301 663.993 255.395C663.993 254.91 663.782 254.527 663.36 254.246C662.938 253.965 662.219 253.77 661.204 253.66L659.341 253.473C658.403 253.668 657.684 254.012 657.184 254.504C656.684 254.996 656.434 255.59 656.434 256.285ZM659.692 246.031C659.692 246.695 659.868 247.203 660.219 247.555C660.571 247.898 661.059 248.07 661.684 248.07C662.302 248.07 662.841 247.906 663.302 247.578C663.762 247.25 664.114 246.801 664.356 246.23C664.606 245.652 664.731 245.027 664.731 244.355C664.731 243.715 664.559 243.227 664.216 242.891C663.872 242.555 663.38 242.387 662.739 242.387C662.13 242.387 661.594 242.547 661.134 242.867C660.68 243.18 660.325 243.621 660.067 244.191C659.817 244.754 659.692 245.367 659.692 246.031ZM674.773 254.234C673.336 254.234 672.207 253.809 671.387 252.957C670.566 252.105 670.156 250.926 670.156 249.418C670.156 247.949 670.445 246.543 671.023 245.199C671.609 243.848 672.383 242.797 673.344 242.047C674.305 241.297 675.363 240.922 676.519 240.922C677.715 240.922 678.613 241.184 679.215 241.707C679.816 242.223 680.117 242.945 680.117 243.875C680.117 245.281 679.469 246.387 678.172 247.191C676.875 247.988 675.019 248.387 672.605 248.387H672.219L672.172 249.324C672.172 250.348 672.41 251.148 672.887 251.727C673.371 252.297 674.117 252.582 675.125 252.582C675.617 252.582 676.121 252.512 676.637 252.371C677.16 252.23 677.808 251.973 678.582 251.598V253.309C677.848 253.652 677.199 253.891 676.637 254.023C676.074 254.164 675.453 254.234 674.773 254.234ZM676.402 242.598C675.598 242.598 674.84 242.965 674.129 243.699C673.426 244.434 672.887 245.453 672.512 246.758H672.652C674.433 246.758 675.797 246.527 676.742 246.066C677.695 245.598 678.172 244.922 678.172 244.039C678.172 243.625 678.027 243.281 677.738 243.008C677.457 242.734 677.012 242.598 676.402 242.598ZM687.416 259.766C686.877 259.766 686.396 259.684 685.974 259.52V257.867C686.451 258.039 686.916 258.125 687.369 258.125C688.346 258.125 689.002 257.324 689.338 255.723L692.432 241.156H694.377L691.26 255.898C690.978 257.234 690.529 258.211 689.912 258.828C689.303 259.453 688.471 259.766 687.416 259.766ZM692.982 237.875C692.982 237.438 693.107 237.082 693.357 236.809C693.607 236.527 693.932 236.387 694.33 236.387C695.002 236.387 695.338 236.738 695.338 237.441C695.338 237.871 695.205 238.234 694.939 238.531C694.682 238.828 694.381 238.977 694.037 238.977C693.74 238.977 693.49 238.883 693.287 238.695C693.084 238.5 692.982 238.227 692.982 237.875ZM701.337 241.156L699.579 249.301C699.438 249.996 699.368 250.539 699.368 250.93C699.368 252.047 699.942 252.605 701.091 252.605C701.778 252.605 702.454 252.371 703.118 251.902C703.782 251.434 704.368 250.762 704.876 249.887C705.384 249.012 705.771 247.957 706.036 246.723L707.208 241.156H709.153L706.446 254H704.817L705.075 251.621H704.935C704.169 252.598 703.438 253.277 702.743 253.66C702.048 254.043 701.329 254.234 700.587 254.234C699.587 254.234 698.802 253.965 698.231 253.426C697.661 252.879 697.376 252.102 697.376 251.094C697.376 250.609 697.462 249.938 697.634 249.078L699.345 241.156H701.337ZM719.477 250.355C719.477 251.574 719.043 252.527 718.176 253.215C717.316 253.895 716.102 254.234 714.531 254.234C713.211 254.234 712.02 253.965 710.957 253.426V251.574C711.504 251.902 712.094 252.156 712.727 252.336C713.359 252.516 713.945 252.605 714.484 252.605C715.469 252.605 716.211 252.41 716.711 252.02C717.211 251.629 717.461 251.129 717.461 250.52C717.461 250.074 717.324 249.699 717.051 249.395C716.777 249.09 716.188 248.672 715.281 248.141C714.266 247.57 713.547 247.012 713.125 246.465C712.703 245.918 712.492 245.27 712.492 244.52C712.492 243.441 712.887 242.574 713.676 241.918C714.465 241.254 715.504 240.922 716.793 240.922C718.129 240.922 719.418 241.211 720.66 241.789L720.027 243.395L719.371 243.102C718.582 242.766 717.723 242.598 716.793 242.598C716.066 242.598 715.496 242.77 715.082 243.113C714.668 243.449 714.461 243.887 714.461 244.426C714.461 244.863 714.598 245.238 714.871 245.551C715.152 245.863 715.727 246.266 716.594 246.758C717.43 247.227 718.027 247.629 718.387 247.965C718.754 248.301 719.027 248.664 719.207 249.055C719.387 249.438 719.477 249.871 719.477 250.355ZM726.741 252.629C727.171 252.629 727.733 252.527 728.429 252.324V253.836C728.163 253.945 727.835 254.039 727.444 254.117C727.054 254.195 726.741 254.234 726.507 254.234C725.53 254.234 724.78 254.004 724.257 253.543C723.741 253.074 723.483 252.379 723.483 251.457C723.483 250.941 723.554 250.355 723.694 249.699L725.183 242.645H723.167L723.331 241.789L725.499 240.875L726.964 238.203H728.112L727.468 241.156H730.679L730.374 242.645H727.175L725.663 249.723C725.522 250.402 725.452 250.918 725.452 251.27C725.452 251.707 725.565 252.043 725.792 252.277C726.019 252.512 726.335 252.629 726.741 252.629ZM736.829 259.766C736.29 259.766 735.802 259.684 735.364 259.52V257.867C735.864 258.039 736.302 258.125 736.677 258.125C737.271 258.125 737.728 257.883 738.048 257.398C738.368 256.914 738.626 256.223 738.821 255.324L741.482 242.645H739.22L739.372 241.859L741.786 241.086L742.056 239.914C742.415 238.352 742.911 237.25 743.544 236.609C744.185 235.961 745.13 235.637 746.38 235.637C746.693 235.637 747.075 235.684 747.528 235.777C747.982 235.863 748.333 235.961 748.583 236.07L748.079 237.582C747.485 237.355 746.95 237.242 746.474 237.242C745.794 237.242 745.271 237.434 744.903 237.816C744.544 238.191 744.251 238.883 744.025 239.891L743.732 241.156H746.521L746.228 242.645H743.45L740.732 255.512C740.427 256.988 739.958 258.066 739.325 258.746C738.693 259.426 737.86 259.766 736.829 259.766ZM754.067 240.992C755.551 240.992 756.723 241.434 757.582 242.316C758.442 243.191 758.871 244.398 758.871 245.938C758.871 247.406 758.59 248.793 758.027 250.098C757.465 251.402 756.703 252.41 755.742 253.121C754.781 253.832 753.695 254.188 752.484 254.188C750.984 254.188 749.809 253.746 748.957 252.863C748.106 251.98 747.68 250.773 747.68 249.242C747.68 247.758 747.965 246.363 748.535 245.059C749.106 243.746 749.875 242.742 750.844 242.047C751.813 241.344 752.887 240.992 754.067 240.992ZM756.832 245.668C756.832 244.77 756.586 244.043 756.094 243.488C755.609 242.926 754.949 242.645 754.113 242.645C753.262 242.645 752.496 242.934 751.817 243.512C751.145 244.09 750.621 244.895 750.246 245.926C749.879 246.949 749.695 248.09 749.695 249.348C749.695 250.371 749.942 251.164 750.434 251.727C750.934 252.281 751.649 252.559 752.578 252.559C753.391 252.559 754.121 252.273 754.77 251.703C755.418 251.133 755.922 250.324 756.281 249.277C756.649 248.223 756.832 247.02 756.832 245.668ZM769.781 240.922C770.32 240.922 770.788 240.977 771.187 241.086L770.765 242.844C770.351 242.742 769.941 242.691 769.534 242.691C768.823 242.691 768.156 242.926 767.531 243.395C766.913 243.863 766.37 244.516 765.902 245.352C765.441 246.18 765.101 247.102 764.882 248.117L763.628 254H761.659L764.402 241.156H766.031L765.773 243.535H765.89C766.452 242.793 766.917 242.262 767.284 241.941C767.652 241.613 768.034 241.363 768.433 241.191C768.839 241.012 769.288 240.922 769.781 240.922ZM781.298 254H779.329L782.072 241.156H784.04L781.298 254ZM782.622 237.875C782.622 237.438 782.747 237.082 782.997 236.809C783.247 236.527 783.572 236.387 783.97 236.387C784.657 236.387 785.001 236.738 785.001 237.441C785.001 237.871 784.868 238.234 784.603 238.531C784.345 238.828 784.044 238.977 783.7 238.977C783.388 238.977 783.13 238.883 782.927 238.695C782.724 238.5 782.622 238.227 782.622 237.875ZM790.321 252.629C790.75 252.629 791.313 252.527 792.008 252.324V253.836C791.743 253.945 791.414 254.039 791.024 254.117C790.633 254.195 790.321 254.234 790.086 254.234C789.11 254.234 788.36 254.004 787.836 253.543C787.321 253.074 787.063 252.379 787.063 251.457C787.063 250.941 787.133 250.355 787.274 249.699L788.762 242.645H786.746L786.911 241.789L789.078 240.875L790.543 238.203H791.692L791.047 241.156H794.258L793.953 242.645H790.754L789.243 249.723C789.102 250.402 789.032 250.918 789.032 251.27C789.032 251.707 789.145 252.043 789.371 252.277C789.598 252.512 789.914 252.629 790.321 252.629ZM806.256 252.629C806.686 252.629 807.248 252.527 807.944 252.324V253.836C807.678 253.945 807.35 254.039 806.959 254.117C806.569 254.195 806.256 254.234 806.022 254.234C805.045 254.234 804.295 254.004 803.772 253.543C803.256 253.074 802.998 252.379 802.998 251.457C802.998 250.941 803.069 250.355 803.209 249.699L804.698 242.645H802.682L802.846 241.789L805.014 240.875L806.479 238.203H807.627L806.983 241.156H810.194L809.889 242.645H806.69L805.178 249.723C805.037 250.402 804.967 250.918 804.967 251.27C804.967 251.707 805.08 252.043 805.307 252.277C805.534 252.512 805.85 252.629 806.256 252.629ZM817.904 240.992C819.388 240.992 820.56 241.434 821.419 242.316C822.279 243.191 822.708 244.398 822.708 245.938C822.708 247.406 822.427 248.793 821.865 250.098C821.302 251.402 820.541 252.41 819.58 253.121C818.619 253.832 817.533 254.188 816.322 254.188C814.822 254.188 813.646 253.746 812.794 252.863C811.943 251.98 811.517 250.773 811.517 249.242C811.517 247.758 811.802 246.363 812.373 245.059C812.943 243.746 813.712 242.742 814.681 242.047C815.65 241.344 816.724 240.992 817.904 240.992ZM820.669 245.668C820.669 244.77 820.423 244.043 819.931 243.488C819.447 242.926 818.787 242.645 817.951 242.645C817.099 242.645 816.333 242.934 815.654 243.512C814.982 244.09 814.458 244.895 814.083 245.926C813.716 246.949 813.533 248.09 813.533 249.348C813.533 250.371 813.779 251.164 814.271 251.727C814.771 252.281 815.486 252.559 816.416 252.559C817.228 252.559 817.958 252.273 818.607 251.703C819.255 251.133 819.759 250.324 820.119 249.277C820.486 248.223 820.669 247.02 820.669 245.668ZM94.3202 285.629C94.7498 285.629 95.3123 285.527 96.0077 285.324V286.836C95.742 286.945 95.4139 287.039 95.0233 287.117C94.6327 287.195 94.3202 287.234 94.0858 287.234C93.1092 287.234 92.3592 287.004 91.8358 286.543C91.3202 286.074 91.0623 285.379 91.0623 284.457C91.0623 283.941 91.1327 283.355 91.2733 282.699L92.7616 275.645H90.7459L90.91 274.789L93.078 273.875L94.5428 271.203H95.6913L95.0467 274.156H98.2577L97.953 275.645H94.7538L93.242 282.723C93.1014 283.402 93.0311 283.918 93.0311 284.27C93.0311 284.707 93.1444 285.043 93.3709 285.277C93.5975 285.512 93.9139 285.629 94.3202 285.629ZM105.921 273.922C106.64 273.922 107.28 274.117 107.843 274.508C108.405 274.891 108.843 275.445 109.155 276.172H109.284L110.069 274.156H111.558L108.827 287H107.268L107.573 284.551H107.479C106.081 286.34 104.608 287.234 103.061 287.234C101.975 287.234 101.124 286.848 100.507 286.074C99.8895 285.301 99.5809 284.242 99.5809 282.898C99.5809 281.273 99.8583 279.766 100.413 278.375C100.968 276.984 101.733 275.895 102.71 275.105C103.686 274.316 104.757 273.922 105.921 273.922ZM103.694 285.605C104.452 285.605 105.206 285.246 105.956 284.527C106.706 283.801 107.315 282.859 107.784 281.703C108.253 280.539 108.487 279.375 108.487 278.211C108.487 277.406 108.268 276.766 107.831 276.289C107.393 275.812 106.819 275.574 106.108 275.574C105.296 275.574 104.538 275.91 103.835 276.582C103.14 277.254 102.593 278.164 102.194 279.312C101.796 280.461 101.597 281.672 101.597 282.945C101.597 283.836 101.78 284.504 102.147 284.949C102.515 285.387 103.03 285.605 103.694 285.605ZM116.83 280.449L122.994 274.156H125.35L119.853 279.629L123.31 287H121.119L118.365 280.859L116.584 282.301L115.623 287H113.631L117.498 268.766H119.49C118.928 271.391 118.424 273.742 117.978 275.82C117.533 277.898 117.135 279.441 116.783 280.449H116.83ZM131.407 287.234C129.97 287.234 128.841 286.809 128.02 285.957C127.2 285.105 126.79 283.926 126.79 282.418C126.79 280.949 127.079 279.543 127.657 278.199C128.243 276.848 129.017 275.797 129.978 275.047C130.938 274.297 131.997 273.922 133.153 273.922C134.349 273.922 135.247 274.184 135.849 274.707C136.45 275.223 136.751 275.945 136.751 276.875C136.751 278.281 136.103 279.387 134.806 280.191C133.509 280.988 131.653 281.387 129.239 281.387H128.853L128.806 282.324C128.806 283.348 129.044 284.148 129.52 284.727C130.005 285.297 130.751 285.582 131.759 285.582C132.251 285.582 132.755 285.512 133.27 285.371C133.794 285.23 134.442 284.973 135.216 284.598V286.309C134.481 286.652 133.833 286.891 133.27 287.023C132.708 287.164 132.087 287.234 131.407 287.234ZM133.036 275.598C132.231 275.598 131.474 275.965 130.763 276.699C130.06 277.434 129.52 278.453 129.145 279.758H129.286C131.067 279.758 132.431 279.527 133.376 279.066C134.329 278.598 134.806 277.922 134.806 277.039C134.806 276.625 134.661 276.281 134.372 276.008C134.091 275.734 133.645 275.598 133.036 275.598ZM153.788 287L155.523 278.891C155.663 278.156 155.733 277.629 155.733 277.309C155.733 276.762 155.612 276.336 155.37 276.031C155.128 275.727 154.714 275.574 154.128 275.574C153.472 275.574 152.831 275.809 152.206 276.277C151.589 276.746 151.042 277.418 150.565 278.293C150.097 279.16 149.733 280.207 149.476 281.434L148.292 287H146.323L149.065 274.156H150.694L150.437 276.535H150.554C151.233 275.605 151.909 274.938 152.581 274.531C153.261 274.125 153.96 273.922 154.679 273.922C155.562 273.922 156.241 274.176 156.718 274.684C157.194 275.191 157.476 275.898 157.562 276.805H157.655C158.327 275.828 159.042 275.105 159.8 274.637C160.558 274.16 161.323 273.922 162.097 273.922C163.089 273.922 163.855 274.188 164.394 274.719C164.94 275.25 165.214 276.023 165.214 277.039C165.214 277.57 165.128 278.266 164.956 279.125L163.269 287H161.276L163.011 278.891C163.167 278.078 163.245 277.508 163.245 277.18C163.245 276.695 163.108 276.309 162.835 276.02C162.569 275.723 162.148 275.574 161.569 275.574C160.937 275.574 160.312 275.801 159.694 276.254C159.077 276.707 158.534 277.352 158.065 278.188C157.605 279.016 157.253 280 157.011 281.141L155.757 287H153.788ZM173.287 287.234C171.85 287.234 170.721 286.809 169.9 285.957C169.08 285.105 168.67 283.926 168.67 282.418C168.67 280.949 168.959 279.543 169.537 278.199C170.123 276.848 170.897 275.797 171.858 275.047C172.818 274.297 173.877 273.922 175.033 273.922C176.229 273.922 177.127 274.184 177.729 274.707C178.33 275.223 178.631 275.945 178.631 276.875C178.631 278.281 177.983 279.387 176.686 280.191C175.389 280.988 173.533 281.387 171.119 281.387H170.733L170.686 282.324C170.686 283.348 170.924 284.148 171.4 284.727C171.885 285.297 172.631 285.582 173.639 285.582C174.131 285.582 174.635 285.512 175.15 285.371C175.674 285.23 176.322 284.973 177.096 284.598V286.309C176.361 286.652 175.713 286.891 175.15 287.023C174.588 287.164 173.967 287.234 173.287 287.234ZM174.916 275.598C174.111 275.598 173.354 275.965 172.643 276.699C171.94 277.434 171.4 278.453 171.025 279.758H171.166C172.947 279.758 174.311 279.527 175.256 279.066C176.209 278.598 176.686 277.922 176.686 277.039C176.686 276.625 176.541 276.281 176.252 276.008C175.971 275.734 175.525 275.598 174.916 275.598ZM193.899 287.234C193.141 287.234 192.473 287.035 191.895 286.637C191.324 286.238 190.895 285.695 190.606 285.008H190.488L189.668 287H188.203L192.07 268.766H194.039C193.641 270.656 193.332 272.105 193.113 273.113C192.902 274.113 192.61 275.285 192.235 276.629H192.34C193.067 275.707 193.781 275.031 194.485 274.602C195.195 274.164 195.926 273.945 196.676 273.945C197.777 273.945 198.637 274.332 199.254 275.105C199.871 275.879 200.18 276.941 200.18 278.293C200.18 279.926 199.91 281.438 199.371 282.828C198.84 284.211 198.094 285.293 197.133 286.074C196.18 286.848 195.102 287.234 193.899 287.234ZM196.078 275.574C195.328 275.574 194.563 275.945 193.781 276.688C193.008 277.43 192.391 278.363 191.93 279.488C191.477 280.613 191.25 281.766 191.25 282.945C191.25 283.805 191.465 284.465 191.895 284.926C192.332 285.379 192.961 285.605 193.781 285.605C194.555 285.605 195.274 285.289 195.938 284.656C196.61 284.023 197.149 283.125 197.555 281.961C197.961 280.789 198.164 279.547 198.164 278.234C198.164 276.461 197.469 275.574 196.078 275.574ZM209.812 273.922C210.53 273.922 211.171 274.117 211.734 274.508C212.296 274.891 212.734 275.445 213.046 276.172H213.175L213.96 274.156H215.448L212.718 287H211.159L211.464 284.551H211.37C209.972 286.34 208.499 287.234 206.952 287.234C205.866 287.234 205.015 286.848 204.398 286.074C203.78 285.301 203.472 284.242 203.472 282.898C203.472 281.273 203.749 279.766 204.304 278.375C204.859 276.984 205.624 275.895 206.601 275.105C207.577 274.316 208.648 273.922 209.812 273.922ZM207.585 285.605C208.343 285.605 209.097 285.246 209.847 284.527C210.597 283.801 211.206 282.859 211.675 281.703C212.144 280.539 212.378 279.375 212.378 278.211C212.378 277.406 212.159 276.766 211.722 276.289C211.284 275.812 210.71 275.574 209.999 275.574C209.187 275.574 208.429 275.91 207.726 276.582C207.03 277.254 206.484 278.164 206.085 279.312C205.687 280.461 205.488 281.672 205.488 282.945C205.488 283.836 205.671 284.504 206.038 284.949C206.405 285.387 206.921 285.605 207.585 285.605ZM222.783 287.234C221.268 287.234 220.092 286.816 219.256 285.98C218.42 285.145 218.002 283.965 218.002 282.441C218.002 280.879 218.291 279.438 218.869 278.117C219.448 276.797 220.244 275.77 221.26 275.035C222.283 274.293 223.432 273.922 224.705 273.922C225.776 273.922 226.823 274.121 227.846 274.52L227.295 276.172C226.358 275.773 225.502 275.574 224.729 275.574C223.854 275.574 223.053 275.875 222.326 276.477C221.608 277.07 221.041 277.902 220.627 278.973C220.221 280.035 220.018 281.191 220.018 282.441C220.018 283.441 220.276 284.219 220.791 284.773C221.315 285.328 222.033 285.605 222.948 285.605C223.51 285.605 224.041 285.527 224.541 285.371C225.041 285.215 225.533 285.031 226.018 284.82V286.496C225.049 286.988 223.971 287.234 222.783 287.234ZM232.486 280.449L238.65 274.156H241.005L235.509 279.629L238.966 287H236.775L234.021 280.859L232.24 282.301L231.279 287H229.286L233.154 268.766H235.146C234.583 271.391 234.079 273.742 233.634 275.82C233.189 277.898 232.79 279.441 232.439 280.449H232.486ZM253.12 285.629C253.55 285.629 254.113 285.527 254.808 285.324V286.836C254.542 286.945 254.214 287.039 253.824 287.117C253.433 287.195 253.12 287.234 252.886 287.234C251.91 287.234 251.16 287.004 250.636 286.543C250.12 286.074 249.863 285.379 249.863 284.457C249.863 283.941 249.933 283.355 250.074 282.699L251.562 275.645H249.546L249.71 274.789L251.878 273.875L253.343 271.203H254.492L253.847 274.156H257.058L256.753 275.645H253.554L252.042 282.723C251.902 283.402 251.831 283.918 251.831 284.27C251.831 284.707 251.945 285.043 252.171 285.277C252.398 285.512 252.714 285.629 253.12 285.629ZM264.768 273.992C266.252 273.992 267.424 274.434 268.284 275.316C269.143 276.191 269.573 277.398 269.573 278.938C269.573 280.406 269.291 281.793 268.729 283.098C268.166 284.402 267.405 285.41 266.444 286.121C265.483 286.832 264.397 287.188 263.186 287.188C261.686 287.188 260.51 286.746 259.659 285.863C258.807 284.98 258.381 283.773 258.381 282.242C258.381 280.758 258.666 279.363 259.237 278.059C259.807 276.746 260.577 275.742 261.545 275.047C262.514 274.344 263.588 273.992 264.768 273.992ZM267.534 278.668C267.534 277.77 267.288 277.043 266.795 276.488C266.311 275.926 265.651 275.645 264.815 275.645C263.963 275.645 263.198 275.934 262.518 276.512C261.846 277.09 261.323 277.895 260.948 278.926C260.58 279.949 260.397 281.09 260.397 282.348C260.397 283.371 260.643 284.164 261.135 284.727C261.635 285.281 262.35 285.559 263.28 285.559C264.092 285.559 264.823 285.273 265.471 284.703C266.12 284.133 266.623 283.324 266.983 282.277C267.35 281.223 267.534 280.02 267.534 278.668ZM283.493 285.629C283.922 285.629 284.485 285.527 285.18 285.324V286.836C284.915 286.945 284.586 287.039 284.196 287.117C283.805 287.195 283.493 287.234 283.258 287.234C282.282 287.234 281.532 287.004 281.008 286.543C280.493 286.074 280.235 285.379 280.235 284.457C280.235 283.941 280.305 283.355 280.446 282.699L281.934 275.645H279.918L280.083 274.789L282.25 273.875L283.715 271.203H284.864L284.219 274.156H287.43L287.125 275.645H283.926L282.415 282.723C282.274 283.402 282.204 283.918 282.204 284.27C282.204 284.707 282.317 285.043 282.543 285.277C282.77 285.512 283.086 285.629 283.493 285.629ZM296.148 287L297.882 278.891C298.023 278.156 298.093 277.629 298.093 277.309C298.093 276.152 297.519 275.574 296.371 275.574C295.675 275.574 294.996 275.805 294.332 276.266C293.675 276.727 293.093 277.398 292.585 278.281C292.085 279.156 291.707 280.215 291.449 281.457L290.265 287H288.296L292.164 268.766H294.132C293.992 269.406 293.855 270.027 293.722 270.629C293.597 271.23 293.464 271.844 293.324 272.469C293.191 273.086 293.042 273.734 292.878 274.414C292.722 275.094 292.539 275.832 292.328 276.629H292.457C293.191 275.668 293.914 274.98 294.625 274.566C295.343 274.152 296.093 273.945 296.875 273.945C297.898 273.945 298.687 274.227 299.242 274.789C299.804 275.352 300.085 276.148 300.085 277.18C300.085 277.664 299.996 278.312 299.816 279.125C299.511 280.633 298.945 283.258 298.117 287H296.148ZM308.182 287.234C306.745 287.234 305.616 286.809 304.795 285.957C303.975 285.105 303.565 283.926 303.565 282.418C303.565 280.949 303.854 279.543 304.432 278.199C305.018 276.848 305.792 275.797 306.753 275.047C307.713 274.297 308.772 273.922 309.928 273.922C311.124 273.922 312.022 274.184 312.624 274.707C313.225 275.223 313.526 275.945 313.526 276.875C313.526 278.281 312.878 279.387 311.581 280.191C310.284 280.988 308.428 281.387 306.014 281.387H305.628L305.581 282.324C305.581 283.348 305.819 284.148 306.295 284.727C306.78 285.297 307.526 285.582 308.534 285.582C309.026 285.582 309.53 285.512 310.045 285.371C310.569 285.23 311.217 284.973 311.991 284.598V286.309C311.256 286.652 310.608 286.891 310.045 287.023C309.483 287.164 308.862 287.234 308.182 287.234ZM309.811 275.598C309.006 275.598 308.249 275.965 307.538 276.699C306.835 277.434 306.295 278.453 305.92 279.758H306.061C307.842 279.758 309.206 279.527 310.151 279.066C311.104 278.598 311.581 277.922 311.581 277.039C311.581 276.625 311.436 276.281 311.147 276.008C310.866 275.734 310.42 275.598 309.811 275.598ZM328.172 287.234C326.735 287.234 325.606 286.809 324.786 285.957C323.965 285.105 323.555 283.926 323.555 282.418C323.555 280.949 323.844 279.543 324.422 278.199C325.008 276.848 325.782 275.797 326.743 275.047C327.704 274.297 328.762 273.922 329.919 273.922C331.114 273.922 332.012 274.184 332.614 274.707C333.215 275.223 333.516 275.945 333.516 276.875C333.516 278.281 332.868 279.387 331.571 280.191C330.274 280.988 328.419 281.387 326.005 281.387H325.618L325.571 282.324C325.571 283.348 325.809 284.148 326.286 284.727C326.77 285.297 327.516 285.582 328.524 285.582C329.016 285.582 329.52 285.512 330.036 285.371C330.559 285.23 331.208 284.973 331.981 284.598V286.309C331.247 286.652 330.598 286.891 330.036 287.023C329.473 287.164 328.852 287.234 328.172 287.234ZM329.801 275.598C328.997 275.598 328.239 275.965 327.528 276.699C326.825 277.434 326.286 278.453 325.911 279.758H326.051C327.833 279.758 329.196 279.527 330.141 279.066C331.094 278.598 331.571 277.922 331.571 277.039C331.571 276.625 331.426 276.281 331.137 276.008C330.856 275.734 330.411 275.598 329.801 275.598ZM343.746 287L345.48 278.891C345.636 278.078 345.715 277.516 345.715 277.203C345.715 276.711 345.574 276.316 345.293 276.02C345.019 275.723 344.578 275.574 343.968 275.574C343.273 275.574 342.593 275.809 341.929 276.277C341.273 276.746 340.691 277.414 340.183 278.281C339.683 279.148 339.304 280.199 339.047 281.434L337.863 287H335.894L338.636 274.156H340.265L340.008 276.535H340.125C340.875 275.582 341.597 274.91 342.293 274.52C342.996 274.121 343.722 273.922 344.472 273.922C345.465 273.922 346.246 274.195 346.816 274.742C347.394 275.281 347.683 276.039 347.683 277.016C347.683 277.633 347.593 278.336 347.414 279.125L345.738 287H343.746ZM362.905 274.156L362.612 275.41L360.139 275.691C360.46 276.176 360.62 276.793 360.62 277.543C360.62 279.035 360.163 280.227 359.249 281.117C358.342 282 357.128 282.441 355.604 282.441C355.175 282.441 354.846 282.41 354.62 282.348C353.534 282.762 352.991 283.273 352.991 283.883C352.991 284.203 353.12 284.418 353.378 284.527C353.635 284.629 354.01 284.711 354.503 284.773L355.874 284.938C357.288 285.109 358.311 285.453 358.944 285.969C359.585 286.484 359.905 287.242 359.905 288.242C359.905 289.68 359.335 290.793 358.194 291.582C357.053 292.371 355.448 292.766 353.378 292.766C351.862 292.766 350.675 292.477 349.815 291.898C348.956 291.328 348.526 290.52 348.526 289.473C348.526 288.652 348.807 287.941 349.37 287.34C349.932 286.738 350.842 286.227 352.1 285.805C351.491 285.484 351.186 285.012 351.186 284.387C351.186 283.848 351.385 283.387 351.784 283.004C352.182 282.613 352.737 282.25 353.448 281.914C352.956 281.664 352.553 281.297 352.241 280.812C351.928 280.32 351.772 279.75 351.772 279.102C351.772 277.586 352.237 276.344 353.167 275.375C354.104 274.406 355.3 273.922 356.753 273.922C357.362 273.922 357.964 274 358.557 274.156H362.905ZM350.425 289.285C350.425 289.887 350.678 290.363 351.186 290.715C351.694 291.066 352.448 291.242 353.448 291.242C354.87 291.242 355.979 290.992 356.776 290.492C357.581 290 357.983 289.301 357.983 288.395C357.983 287.91 357.772 287.527 357.35 287.246C356.928 286.965 356.21 286.77 355.194 286.66L353.331 286.473C352.393 286.668 351.675 287.012 351.175 287.504C350.675 287.996 350.425 288.59 350.425 289.285ZM353.682 279.031C353.682 279.695 353.858 280.203 354.21 280.555C354.561 280.898 355.05 281.07 355.675 281.07C356.292 281.07 356.831 280.906 357.292 280.578C357.753 280.25 358.104 279.801 358.346 279.23C358.596 278.652 358.721 278.027 358.721 277.355C358.721 276.715 358.55 276.227 358.206 275.891C357.862 275.555 357.37 275.387 356.729 275.387C356.12 275.387 355.585 275.547 355.124 275.867C354.671 276.18 354.315 276.621 354.057 277.191C353.807 277.754 353.682 278.367 353.682 279.031ZM365.635 287H363.666L367.556 268.766H369.525L365.635 287ZM372.712 287H370.743L373.485 274.156H375.454L372.712 287ZM374.036 270.875C374.036 270.438 374.161 270.082 374.411 269.809C374.661 269.527 374.985 269.387 375.384 269.387C376.071 269.387 376.415 269.738 376.415 270.441C376.415 270.871 376.282 271.234 376.016 271.531C375.759 271.828 375.458 271.977 375.114 271.977C374.802 271.977 374.544 271.883 374.341 271.695C374.138 271.5 374.036 271.227 374.036 270.875ZM385.719 283.355C385.719 284.574 385.285 285.527 384.418 286.215C383.558 286.895 382.344 287.234 380.773 287.234C379.453 287.234 378.262 286.965 377.199 286.426V284.574C377.746 284.902 378.336 285.156 378.969 285.336C379.601 285.516 380.187 285.605 380.726 285.605C381.711 285.605 382.453 285.41 382.953 285.02C383.453 284.629 383.703 284.129 383.703 283.52C383.703 283.074 383.566 282.699 383.293 282.395C383.019 282.09 382.43 281.672 381.523 281.141C380.508 280.57 379.789 280.012 379.367 279.465C378.945 278.918 378.734 278.27 378.734 277.52C378.734 276.441 379.129 275.574 379.918 274.918C380.707 274.254 381.746 273.922 383.035 273.922C384.371 273.922 385.66 274.211 386.902 274.789L386.269 276.395L385.613 276.102C384.824 275.766 383.965 275.598 383.035 275.598C382.308 275.598 381.738 275.77 381.324 276.113C380.91 276.449 380.703 276.887 380.703 277.426C380.703 277.863 380.84 278.238 381.113 278.551C381.394 278.863 381.969 279.266 382.836 279.758C383.672 280.227 384.269 280.629 384.629 280.965C384.996 281.301 385.269 281.664 385.449 282.055C385.629 282.438 385.719 282.871 385.719 283.355ZM396.897 287L398.632 278.891C398.772 278.156 398.843 277.629 398.843 277.309C398.843 276.152 398.268 275.574 397.12 275.574C396.425 275.574 395.745 275.805 395.081 276.266C394.425 276.727 393.843 277.398 393.335 278.281C392.835 279.156 392.456 280.215 392.198 281.457L391.015 287H389.046L392.913 268.766H394.882C394.741 269.406 394.604 270.027 394.472 270.629C394.347 271.23 394.214 271.844 394.073 272.469C393.94 273.086 393.792 273.734 393.628 274.414C393.472 275.094 393.288 275.832 393.077 276.629H393.206C393.94 275.668 394.663 274.98 395.374 274.566C396.093 274.152 396.843 273.945 397.624 273.945C398.647 273.945 399.436 274.227 399.991 274.789C400.554 275.352 400.835 276.148 400.835 277.18C400.835 277.664 400.745 278.312 400.565 279.125C400.261 280.633 399.694 283.258 398.866 287H396.897ZM416.747 287.234C415.989 287.234 415.325 287.039 414.755 286.648C414.185 286.258 413.743 285.711 413.431 285.008H413.313L413.267 285.453C413.243 285.648 413.2 285.922 413.138 286.273C413.083 286.625 412.638 288.789 411.802 292.766H409.856L413.794 274.156H415.423L415.118 276.605H415.212C416.61 274.832 418.063 273.945 419.571 273.945C420.642 273.945 421.485 274.328 422.103 275.094C422.72 275.852 423.028 276.918 423.028 278.293C423.028 279.949 422.759 281.469 422.22 282.852C421.681 284.234 420.935 285.312 419.981 286.086C419.028 286.852 417.95 287.234 416.747 287.234ZM418.927 275.574C418.177 275.574 417.411 275.945 416.63 276.688C415.856 277.43 415.239 278.363 414.778 279.488C414.325 280.613 414.099 281.766 414.099 282.945C414.099 283.805 414.313 284.465 414.743 284.926C415.181 285.379 415.81 285.605 416.63 285.605C417.403 285.605 418.122 285.289 418.786 284.656C419.458 284.023 419.997 283.125 420.403 281.961C420.81 280.789 421.013 279.547 421.013 278.234C421.013 276.461 420.317 275.574 418.927 275.574ZM432.66 273.922C433.379 273.922 434.02 274.117 434.582 274.508C435.145 274.891 435.582 275.445 435.895 276.172H436.023L436.809 274.156H438.297L435.566 287H434.008L434.312 284.551H434.219C432.82 286.34 431.348 287.234 429.801 287.234C428.715 287.234 427.863 286.848 427.246 286.074C426.629 285.301 426.32 284.242 426.32 282.898C426.32 281.273 426.598 279.766 427.152 278.375C427.707 276.984 428.473 275.895 429.449 275.105C430.426 274.316 431.496 273.922 432.66 273.922ZM430.434 285.605C431.191 285.605 431.945 285.246 432.695 284.527C433.445 283.801 434.055 282.859 434.523 281.703C434.992 280.539 435.227 279.375 435.227 278.211C435.227 277.406 435.008 276.766 434.57 276.289C434.133 275.812 433.559 275.574 432.848 275.574C432.035 275.574 431.277 275.91 430.574 276.582C429.879 277.254 429.332 278.164 428.934 279.312C428.535 280.461 428.336 281.672 428.336 282.945C428.336 283.836 428.52 284.504 428.887 284.949C429.254 285.387 429.77 285.605 430.434 285.605ZM452.593 274.156L452.3 275.41L449.827 275.691C450.147 276.176 450.308 276.793 450.308 277.543C450.308 279.035 449.851 280.227 448.937 281.117C448.03 282 446.815 282.441 445.292 282.441C444.862 282.441 444.534 282.41 444.308 282.348C443.222 282.762 442.679 283.273 442.679 283.883C442.679 284.203 442.808 284.418 443.065 284.527C443.323 284.629 443.698 284.711 444.19 284.773L445.562 284.938C446.976 285.109 447.999 285.453 448.632 285.969C449.272 286.484 449.593 287.242 449.593 288.242C449.593 289.68 449.022 290.793 447.882 291.582C446.741 292.371 445.136 292.766 443.065 292.766C441.55 292.766 440.362 292.477 439.503 291.898C438.644 291.328 438.214 290.52 438.214 289.473C438.214 288.652 438.495 287.941 439.058 287.34C439.62 286.738 440.53 286.227 441.788 285.805C441.179 285.484 440.874 285.012 440.874 284.387C440.874 283.848 441.073 283.387 441.472 283.004C441.87 282.613 442.425 282.25 443.136 281.914C442.644 281.664 442.241 281.297 441.929 280.812C441.616 280.32 441.46 279.75 441.46 279.102C441.46 277.586 441.925 276.344 442.855 275.375C443.792 274.406 444.987 273.922 446.44 273.922C447.05 273.922 447.651 274 448.245 274.156H452.593ZM440.112 289.285C440.112 289.887 440.366 290.363 440.874 290.715C441.382 291.066 442.136 291.242 443.136 291.242C444.558 291.242 445.667 290.992 446.464 290.492C447.269 290 447.671 289.301 447.671 288.395C447.671 287.91 447.46 287.527 447.038 287.246C446.616 286.965 445.897 286.77 444.882 286.66L443.019 286.473C442.081 286.668 441.362 287.012 440.862 287.504C440.362 287.996 440.112 288.59 440.112 289.285ZM443.37 279.031C443.37 279.695 443.546 280.203 443.897 280.555C444.249 280.898 444.737 281.07 445.362 281.07C445.98 281.07 446.519 280.906 446.98 280.578C447.44 280.25 447.792 279.801 448.034 279.23C448.284 278.652 448.409 278.027 448.409 277.355C448.409 276.715 448.237 276.227 447.894 275.891C447.55 275.555 447.058 275.387 446.417 275.387C445.808 275.387 445.272 275.547 444.812 275.867C444.358 276.18 444.003 276.621 443.745 277.191C443.495 277.754 443.37 278.367 443.37 279.031ZM458.451 287.234C457.014 287.234 455.885 286.809 455.065 285.957C454.244 285.105 453.834 283.926 453.834 282.418C453.834 280.949 454.123 279.543 454.701 278.199C455.287 276.848 456.061 275.797 457.022 275.047C457.983 274.297 459.041 273.922 460.197 273.922C461.393 273.922 462.291 274.184 462.893 274.707C463.494 275.223 463.795 275.945 463.795 276.875C463.795 278.281 463.147 279.387 461.85 280.191C460.553 280.988 458.697 281.387 456.283 281.387H455.897L455.85 282.324C455.85 283.348 456.088 284.148 456.565 284.727C457.049 285.297 457.795 285.582 458.803 285.582C459.295 285.582 459.799 285.512 460.315 285.371C460.838 285.23 461.486 284.973 462.26 284.598V286.309C461.525 286.652 460.877 286.891 460.315 287.023C459.752 287.164 459.131 287.234 458.451 287.234ZM460.08 275.598C459.275 275.598 458.518 275.965 457.807 276.699C457.104 277.434 456.565 278.453 456.19 279.758H456.33C458.111 279.758 459.475 279.527 460.42 279.066C461.373 278.598 461.85 277.922 461.85 277.039C461.85 276.625 461.705 276.281 461.416 276.008C461.135 275.734 460.69 275.598 460.08 275.598ZM482.414 287L482.039 279.945C482.008 279.211 481.992 278.539 481.992 277.93V276.102H481.887L481.301 277.484L480.328 279.699L476.918 287H474.551L474.047 274.156H475.969L476.18 281.117V282.148C476.18 283.297 476.149 284.348 476.086 285.301H476.156C476.524 284.332 477.059 283.074 477.762 281.527L481.219 274.156H483.352L483.785 281.117C483.832 282.43 483.856 283.453 483.856 284.188V284.809L483.832 285.301H483.902C484.121 284.629 484.445 283.777 484.875 282.746C485.305 281.707 486.567 278.844 488.66 274.156H490.746L484.817 287H482.414ZM499.382 287L501.116 278.891C501.257 278.156 501.327 277.629 501.327 277.309C501.327 276.152 500.753 275.574 499.605 275.574C498.909 275.574 498.23 275.805 497.566 276.266C496.909 276.727 496.327 277.398 495.82 278.281C495.32 279.156 494.941 280.215 494.683 281.457L493.499 287H491.53L495.398 268.766H497.366C497.226 269.406 497.089 270.027 496.956 270.629C496.831 271.23 496.698 271.844 496.558 272.469C496.425 273.086 496.277 273.734 496.112 274.414C495.956 275.094 495.773 275.832 495.562 276.629H495.691C496.425 275.668 497.148 274.98 497.859 274.566C498.577 274.152 499.327 273.945 500.109 273.945C501.132 273.945 501.921 274.227 502.476 274.789C503.038 275.352 503.32 276.148 503.32 277.18C503.32 277.664 503.23 278.312 503.05 279.125C502.745 280.633 502.179 283.258 501.351 287H499.382ZM511.416 287.234C509.979 287.234 508.85 286.809 508.03 285.957C507.209 285.105 506.799 283.926 506.799 282.418C506.799 280.949 507.088 279.543 507.666 278.199C508.252 276.848 509.026 275.797 509.987 275.047C510.948 274.297 512.006 273.922 513.162 273.922C514.358 273.922 515.256 274.184 515.858 274.707C516.459 275.223 516.76 275.945 516.76 276.875C516.76 278.281 516.112 279.387 514.815 280.191C513.518 280.988 511.662 281.387 509.248 281.387H508.862L508.815 282.324C508.815 283.348 509.053 284.148 509.53 284.727C510.014 285.297 510.76 285.582 511.768 285.582C512.26 285.582 512.764 285.512 513.28 285.371C513.803 285.23 514.451 284.973 515.225 284.598V286.309C514.49 286.652 513.842 286.891 513.28 287.023C512.717 287.164 512.096 287.234 511.416 287.234ZM513.045 275.598C512.24 275.598 511.483 275.965 510.772 276.699C510.069 277.434 509.53 278.453 509.155 279.758H509.295C511.076 279.758 512.44 279.527 513.385 279.066C514.338 278.598 514.815 277.922 514.815 277.039C514.815 276.625 514.67 276.281 514.381 276.008C514.1 275.734 513.655 275.598 513.045 275.598ZM526.99 287L528.724 278.891C528.88 278.078 528.958 277.516 528.958 277.203C528.958 276.711 528.818 276.316 528.536 276.02C528.263 275.723 527.822 275.574 527.212 275.574C526.517 275.574 525.837 275.809 525.173 276.277C524.517 276.746 523.935 277.414 523.427 278.281C522.927 279.148 522.548 280.199 522.29 281.434L521.107 287H519.138L521.88 274.156H523.509L523.251 276.535H523.368C524.118 275.582 524.841 274.91 525.536 274.52C526.24 274.121 526.966 273.922 527.716 273.922C528.708 273.922 529.49 274.195 530.06 274.742C530.638 275.281 530.927 276.039 530.927 277.016C530.927 277.633 530.837 278.336 530.657 279.125L528.982 287H526.99ZM541.46 287L545.105 269.867H547.074L543.429 287H541.46ZM561.099 287.234C559.583 287.234 558.408 286.816 557.572 285.98C556.736 285.145 556.318 283.965 556.318 282.441C556.318 280.879 556.607 279.438 557.185 278.117C557.763 276.797 558.56 275.77 559.576 275.035C560.599 274.293 561.747 273.922 563.021 273.922C564.091 273.922 565.138 274.121 566.162 274.52L565.611 276.172C564.673 275.773 563.818 275.574 563.044 275.574C562.169 275.574 561.369 275.875 560.642 276.477C559.923 277.07 559.357 277.902 558.943 278.973C558.537 280.035 558.333 281.191 558.333 282.441C558.333 283.441 558.591 284.219 559.107 284.773C559.63 285.328 560.349 285.605 561.263 285.605C561.826 285.605 562.357 285.527 562.857 285.371C563.357 285.215 563.849 285.031 564.333 284.82V286.496C563.365 286.988 562.287 287.234 561.099 287.234ZM569.571 287H567.602L571.493 268.766H573.461L569.571 287ZM576.648 287H574.679L577.421 274.156H579.39L576.648 287ZM577.972 270.875C577.972 270.438 578.097 270.082 578.347 269.809C578.597 269.527 578.921 269.387 579.32 269.387C580.007 269.387 580.351 269.738 580.351 270.441C580.351 270.871 580.218 271.234 579.953 271.531C579.695 271.828 579.394 271.977 579.05 271.977C578.738 271.977 578.48 271.883 578.277 271.695C578.074 271.5 577.972 271.227 577.972 270.875ZM586.971 287.234C585.456 287.234 584.28 286.816 583.444 285.98C582.608 285.145 582.19 283.965 582.19 282.441C582.19 280.879 582.479 279.438 583.057 278.117C583.635 276.797 584.432 275.77 585.448 275.035C586.471 274.293 587.62 273.922 588.893 273.922C589.963 273.922 591.01 274.121 592.034 274.52L591.483 276.172C590.545 275.773 589.69 275.574 588.917 275.574C588.042 275.574 587.241 275.875 586.514 276.477C585.795 277.07 585.229 277.902 584.815 278.973C584.409 280.035 584.206 281.191 584.206 282.441C584.206 283.441 584.463 284.219 584.979 284.773C585.503 285.328 586.221 285.605 587.135 285.605C587.698 285.605 588.229 285.527 588.729 285.371C589.229 285.215 589.721 285.031 590.206 284.82V286.496C589.237 286.988 588.159 287.234 586.971 287.234ZM596.673 280.449L602.838 274.156H605.193L599.697 279.629L603.154 287H600.963L598.209 280.859L596.427 282.301L595.466 287H593.474L597.341 268.766H599.334C598.771 271.391 598.267 273.742 597.822 275.82C597.377 277.898 596.978 279.441 596.627 280.449H596.673ZM620.214 273.992C621.699 273.992 622.871 274.434 623.73 275.316C624.589 276.191 625.019 277.398 625.019 278.938C625.019 280.406 624.738 281.793 624.175 283.098C623.613 284.402 622.851 285.41 621.89 286.121C620.929 286.832 619.843 287.188 618.632 287.188C617.132 287.188 615.957 286.746 615.105 285.863C614.254 284.98 613.828 283.773 613.828 282.242C613.828 280.758 614.113 279.363 614.683 278.059C615.254 276.746 616.023 275.742 616.992 275.047C617.961 274.344 619.035 273.992 620.214 273.992ZM622.98 278.668C622.98 277.77 622.734 277.043 622.242 276.488C621.757 275.926 621.097 275.645 620.261 275.645C619.41 275.645 618.644 275.934 617.964 276.512C617.293 277.09 616.769 277.895 616.394 278.926C616.027 279.949 615.843 281.09 615.843 282.348C615.843 283.371 616.089 284.164 616.582 284.727C617.082 285.281 617.797 285.559 618.726 285.559C619.539 285.559 620.269 285.273 620.918 284.703C621.566 284.133 622.07 283.324 622.429 282.277C622.797 281.223 622.98 280.02 622.98 278.668ZM635.659 287L637.393 278.891C637.55 278.078 637.628 277.516 637.628 277.203C637.628 276.711 637.487 276.316 637.206 276.02C636.932 275.723 636.491 275.574 635.882 275.574C635.186 275.574 634.507 275.809 633.843 276.277C633.186 276.746 632.604 277.414 632.096 278.281C631.596 279.148 631.218 280.199 630.96 281.434L629.776 287H627.807L630.55 274.156H632.178L631.921 276.535H632.038C632.788 275.582 633.51 274.91 634.206 274.52C634.909 274.121 635.635 273.922 636.385 273.922C637.378 273.922 638.159 274.195 638.729 274.742C639.307 275.281 639.596 276.039 639.596 277.016C639.596 277.633 639.507 278.336 639.327 279.125L637.651 287H635.659ZM656.61 273.922C657.329 273.922 657.969 274.117 658.532 274.508C659.094 274.891 659.532 275.445 659.844 276.172H659.973L660.759 274.156H662.247L659.516 287H657.958L658.262 284.551H658.169C656.77 286.34 655.298 287.234 653.751 287.234C652.665 287.234 651.813 286.848 651.196 286.074C650.579 285.301 650.27 284.242 650.27 282.898C650.27 281.273 650.548 279.766 651.102 278.375C651.657 276.984 652.423 275.895 653.399 275.105C654.376 274.316 655.446 273.922 656.61 273.922ZM654.384 285.605C655.141 285.605 655.895 285.246 656.645 284.527C657.395 283.801 658.005 282.859 658.473 281.703C658.942 280.539 659.177 279.375 659.177 278.211C659.177 277.406 658.958 276.766 658.52 276.289C658.083 275.812 657.509 275.574 656.798 275.574C655.985 275.574 655.227 275.91 654.524 276.582C653.829 277.254 653.282 278.164 652.884 279.312C652.485 280.461 652.286 281.672 652.286 282.945C652.286 283.836 652.469 284.504 652.837 284.949C653.204 285.387 653.719 285.605 654.384 285.605ZM672.195 287L673.93 278.891C674.086 278.078 674.164 277.516 674.164 277.203C674.164 276.711 674.023 276.316 673.742 276.02C673.469 275.723 673.027 275.574 672.418 275.574C671.723 275.574 671.043 275.809 670.379 276.277C669.723 276.746 669.141 277.414 668.633 278.281C668.133 279.148 667.754 280.199 667.496 281.434L666.312 287H664.344L667.086 274.156H668.715L668.457 276.535H668.574C669.324 275.582 670.047 274.91 670.742 274.52C671.445 274.121 672.172 273.922 672.922 273.922C673.914 273.922 674.695 274.195 675.266 274.742C675.844 275.281 676.133 276.039 676.133 277.016C676.133 277.633 676.043 278.336 675.863 279.125L674.187 287H672.195ZM679.612 274.156H681.581L682.448 280.543C682.526 281.082 682.6 281.879 682.671 282.934C682.749 283.98 682.788 284.824 682.788 285.465H682.858C683.132 284.785 683.472 284.004 683.878 283.121C684.284 282.238 684.585 281.629 684.78 281.293L688.589 274.156H690.675L682.518 289.18C681.792 290.523 681.073 291.457 680.362 291.98C679.651 292.504 678.796 292.766 677.796 292.766C677.233 292.766 676.686 292.684 676.155 292.52V290.938C676.647 291.078 677.159 291.148 677.69 291.148C678.331 291.148 678.878 290.949 679.331 290.551C679.792 290.16 680.237 289.578 680.667 288.805L681.557 287.211L679.612 274.156ZM695.139 285.629C695.568 285.629 696.131 285.527 696.826 285.324V286.836C696.56 286.945 696.232 287.039 695.842 287.117C695.451 287.195 695.139 287.234 694.904 287.234C693.928 287.234 693.178 287.004 692.654 286.543C692.139 286.074 691.881 285.379 691.881 284.457C691.881 283.941 691.951 283.355 692.092 282.699L693.58 275.645H691.564L691.728 274.789L693.896 273.875L695.361 271.203H696.51L695.865 274.156H699.076L698.771 275.645H695.572L694.06 282.723C693.92 283.402 693.849 283.918 693.849 284.27C693.849 284.707 693.963 285.043 694.189 285.277C694.416 285.512 694.732 285.629 695.139 285.629ZM707.794 287L709.528 278.891C709.669 278.156 709.739 277.629 709.739 277.309C709.739 276.152 709.165 275.574 708.017 275.574C707.321 275.574 706.642 275.805 705.978 276.266C705.321 276.727 704.739 277.398 704.231 278.281C703.731 279.156 703.353 280.215 703.095 281.457L701.911 287H699.942L703.81 268.766H705.778C705.638 269.406 705.501 270.027 705.368 270.629C705.243 271.23 705.11 271.844 704.97 272.469C704.837 273.086 704.688 273.734 704.524 274.414C704.368 275.094 704.185 275.832 703.974 276.629H704.103C704.837 275.668 705.56 274.98 706.271 274.566C706.989 274.152 707.739 273.945 708.521 273.945C709.544 273.945 710.333 274.227 710.888 274.789C711.45 275.352 711.731 276.148 711.731 277.18C711.731 277.664 711.642 278.312 711.462 279.125C711.157 280.633 710.591 283.258 709.763 287H707.794ZM716.723 287H714.754L717.496 274.156H719.465L716.723 287ZM718.047 270.875C718.047 270.438 718.172 270.082 718.422 269.809C718.672 269.527 718.996 269.387 719.395 269.387C720.082 269.387 720.426 269.738 720.426 270.441C720.426 270.871 720.293 271.234 720.027 271.531C719.77 271.828 719.469 271.977 719.125 271.977C718.812 271.977 718.555 271.883 718.352 271.695C718.148 271.5 718.047 271.227 718.047 270.875ZM729.659 287L731.394 278.891C731.55 278.078 731.628 277.516 731.628 277.203C731.628 276.711 731.487 276.316 731.206 276.02C730.933 275.723 730.491 275.574 729.882 275.574C729.187 275.574 728.507 275.809 727.843 276.277C727.187 276.746 726.604 277.414 726.097 278.281C725.597 279.148 725.218 280.199 724.96 281.434L723.776 287H721.808L724.55 274.156H726.179L725.921 276.535H726.038C726.788 275.582 727.511 274.91 728.206 274.52C728.909 274.121 729.636 273.922 730.386 273.922C731.378 273.922 732.159 274.195 732.729 274.742C733.308 275.281 733.597 276.039 733.597 277.016C733.597 277.633 733.507 278.336 733.327 279.125L731.651 287H729.659ZM748.818 274.156L748.526 275.41L746.053 275.691C746.373 276.176 746.533 276.793 746.533 277.543C746.533 279.035 746.076 280.227 745.162 281.117C744.256 282 743.041 282.441 741.518 282.441C741.088 282.441 740.76 282.41 740.533 282.348C739.447 282.762 738.904 283.273 738.904 283.883C738.904 284.203 739.033 284.418 739.291 284.527C739.549 284.629 739.924 284.711 740.416 284.773L741.787 284.938C743.201 285.109 744.225 285.453 744.858 285.969C745.498 286.484 745.818 287.242 745.818 288.242C745.818 289.68 745.248 290.793 744.108 291.582C742.967 292.371 741.361 292.766 739.291 292.766C737.776 292.766 736.588 292.477 735.729 291.898C734.869 291.328 734.44 290.52 734.44 289.473C734.44 288.652 734.721 287.941 735.283 287.34C735.846 286.738 736.756 286.227 738.014 285.805C737.404 285.484 737.1 285.012 737.1 284.387C737.1 283.848 737.299 283.387 737.697 283.004C738.096 282.613 738.651 282.25 739.361 281.914C738.869 281.664 738.467 281.297 738.154 280.812C737.842 280.32 737.686 279.75 737.686 279.102C737.686 277.586 738.151 276.344 739.08 275.375C740.018 274.406 741.213 273.922 742.666 273.922C743.276 273.922 743.877 274 744.471 274.156H748.818ZM736.338 289.285C736.338 289.887 736.592 290.363 737.1 290.715C737.608 291.066 738.361 291.242 739.361 291.242C740.783 291.242 741.893 290.992 742.69 290.492C743.494 290 743.897 289.301 743.897 288.395C743.897 287.91 743.686 287.527 743.264 287.246C742.842 286.965 742.123 286.77 741.108 286.66L739.244 286.473C738.307 286.668 737.588 287.012 737.088 287.504C736.588 287.996 736.338 288.59 736.338 289.285ZM739.596 279.031C739.596 279.695 739.772 280.203 740.123 280.555C740.475 280.898 740.963 281.07 741.588 281.07C742.205 281.07 742.744 280.906 743.205 280.578C743.666 280.25 744.018 279.801 744.26 279.23C744.51 278.652 744.635 278.027 744.635 277.355C744.635 276.715 744.463 276.227 744.119 275.891C743.776 275.555 743.283 275.387 742.643 275.387C742.033 275.387 741.498 275.547 741.037 275.867C740.584 276.18 740.229 276.621 739.971 277.191C739.721 277.754 739.596 278.367 739.596 279.031ZM754.958 269.867L755.052 270.125C754.739 270.836 754.306 271.691 753.751 272.691C753.196 273.684 752.575 274.699 751.888 275.738H750.376C751.423 273.41 752.216 271.453 752.755 269.867H754.958ZM759.282 269.867L759.4 270.125C758.665 271.734 757.595 273.605 756.189 275.738H754.7C755.146 274.754 755.595 273.691 756.048 272.551C756.509 271.402 756.849 270.508 757.068 269.867H759.282Z" fill="black"/>
</svg>
