<svg width="89" height="22" viewBox="0 0 89 22" fill="none" xmlns="http://www.w3.org/2000/svg">
<path d="M11.1172 18H8.9375C8.375 16.5859 7.80078 15.1836 7.21484 13.793C6.63672 12.3945 6.06641 10.9805 5.50391 9.55078L3.46484 11.0859L2 18H0.0078125L3.62891 0.867188H5.62109L3.85156 9.1875L12.0547 0.867188H14.5039L7.01562 8.33203L11.1172 18ZM20.8311 4.92188C21.5498 4.92188 22.1905 5.11719 22.753 5.50781C23.3155 5.89062 23.753 6.44531 24.0655 7.17188H24.1944L24.9795 5.15625H26.4678L23.7373 18H22.1788L22.4834 15.5508H22.3897C20.9913 17.3398 19.5186 18.2344 17.9717 18.2344C16.8858 18.2344 16.0342 17.8477 15.417 17.0742C14.7998 16.3008 14.4913 15.2422 14.4913 13.8984C14.4913 12.2734 14.7686 10.7656 15.3233 9.375C15.878 7.98438 16.6436 6.89453 17.6202 6.10547C18.5967 5.31641 19.667 4.92188 20.8311 4.92188ZM18.6045 16.6055C19.3623 16.6055 20.1163 16.2461 20.8663 15.5273C21.6163 14.8008 22.2256 13.8594 22.6944 12.7031C23.1631 11.5391 23.3975 10.375 23.3975 9.21094C23.3975 8.40625 23.1788 7.76562 22.7413 7.28906C22.3038 6.8125 21.7295 6.57422 21.0186 6.57422C20.2061 6.57422 19.4483 6.91016 18.7452 7.58203C18.0498 8.25391 17.503 9.16406 17.1045 10.3125C16.7061 11.4609 16.5069 12.6719 16.5069 13.9453C16.5069 14.8359 16.6905 15.5039 17.0577 15.9492C17.4248 16.3867 17.9405 16.6055 18.6045 16.6055ZM32.502 16.6289C32.9317 16.6289 33.4942 16.5273 34.1895 16.3242V17.8359C33.9239 17.9453 33.5958 18.0391 33.2052 18.1172C32.8145 18.1953 32.502 18.2344 32.2677 18.2344C31.2911 18.2344 30.5411 18.0039 30.0177 17.543C29.502 17.0742 29.2442 16.3789 29.2442 15.457C29.2442 14.9414 29.3145 14.3555 29.4552 13.6992L30.9434 6.64453H28.9278L29.0919 5.78906L31.2598 4.875L32.7247 2.20312H33.8731L33.2286 5.15625H36.4395L36.1348 6.64453H32.9356L31.4239 13.7227C31.2833 14.4023 31.213 14.918 31.213 15.2695C31.213 15.707 31.3263 16.043 31.5528 16.2773C31.7794 16.5117 32.0958 16.6289 32.502 16.6289ZM42.38 18.2344C40.9425 18.2344 39.8136 17.8086 38.9933 16.957C38.173 16.1055 37.7628 14.9258 37.7628 13.418C37.7628 11.9492 38.0519 10.543 38.63 9.19922C39.2159 7.84766 39.9894 6.79688 40.9503 6.04688C41.9113 5.29688 42.9698 4.92188 44.1261 4.92188C45.3214 4.92188 46.2198 5.18359 46.8214 5.70703C47.423 6.22266 47.7238 6.94531 47.7238 7.875C47.7238 9.28125 47.0753 10.3867 45.7784 11.1914C44.4816 11.9883 42.6261 12.3867 40.212 12.3867H39.8253L39.7784 13.3242C39.7784 14.3477 40.0167 15.1484 40.4933 15.7266C40.9777 16.2969 41.7238 16.582 42.7316 16.582C43.2238 16.582 43.7277 16.5117 44.2433 16.3711C44.7667 16.2305 45.4152 15.9727 46.1886 15.5977V17.3086C45.4542 17.6523 44.8058 17.8906 44.2433 18.0234C43.6808 18.1641 43.0597 18.2344 42.38 18.2344ZM44.0089 6.59766C43.2042 6.59766 42.4464 6.96484 41.7355 7.69922C41.0323 8.43359 40.4933 9.45312 40.1183 10.7578H40.2589C42.0402 10.7578 43.4034 10.5273 44.3488 10.0664C45.3019 9.59766 45.7784 8.92188 45.7784 8.03906C45.7784 7.625 45.6339 7.28125 45.3448 7.00781C45.0636 6.73438 44.6183 6.59766 44.0089 6.59766ZM52.8205 15.2109L52.9142 15.4805C52.0314 17.3164 50.9767 19.1875 49.7502 21.0938H48.2384C49.2228 18.8594 50.0197 16.8984 50.6291 15.2109H52.8205ZM74.0061 18H63.4709L63.8342 16.2773L69.2834 11.3555C70.0803 10.6289 70.7678 9.99219 71.3459 9.44531C71.9319 8.89062 72.4123 8.37109 72.7873 7.88672C73.1702 7.39453 73.4514 6.91016 73.6311 6.43359C73.8186 5.94922 73.9123 5.41406 73.9123 4.82812C73.9123 4.05469 73.678 3.44141 73.2092 2.98828C72.7405 2.53516 72.1038 2.30859 71.2991 2.30859C70.6975 2.30859 70.1077 2.42188 69.5295 2.64844C68.9592 2.86719 68.3264 3.24219 67.6311 3.77344L66.6702 2.42578C68.1623 1.22266 69.7756 0.621094 71.51 0.621094C72.885 0.621094 73.9709 0.96875 74.7678 1.66406C75.5725 2.35156 75.9748 3.30078 75.9748 4.51172C75.9748 5.37891 75.8186 6.17578 75.5061 6.90234C75.2014 7.62891 74.6897 8.39844 73.9709 9.21094C73.26 10.0234 72.1116 11.1211 70.5256 12.5039L66.4006 16.1016V16.1953H74.3459L74.0061 18ZM84.3997 18H82.3841L84.6809 7.30078C85.1419 5.26172 85.4856 3.85938 85.7122 3.09375C85.3216 3.50781 84.7786 3.94141 84.0833 4.39453L81.9973 5.68359L81.0598 4.19531L86.3216 0.867188H88.0677L84.3997 18Z" fill="#3D5A80"/>
</svg>
