<svg width="1440" height="2142" viewBox="0 0 1440 2142" fill="none" xmlns="http://www.w3.org/2000/svg">
<mask id="mask0" mask-type="alpha" maskUnits="userSpaceOnUse" x="-17" y="0" width="1457" height="2243">
<rect x="-17" width="1457" height="2243" fill="#C4C4C4"/>
</mask>
<g mask="url(#mask0)">
<rect x="-75" y="37.0001" width="1540" height="2198" fill="#FFF5F6" fill-opacity="0.6"/>
<line x1="582" y1="37.0001" x2="582" y2="2235" stroke="#FFBBC2" stroke-opacity="0.5" stroke-width="2"/>
<line x1="126" y1="37.0001" x2="126" y2="2235" stroke="#FFBBC2" stroke-opacity="0.5" stroke-width="2"/>
<line x1="810" y1="37.0001" x2="810" y2="2235" stroke="#FFBBC2" stroke-opacity="0.5" stroke-width="2"/>
<line x1="354" y1="37.0001" x2="354" y2="2235" stroke="#FFBBC2" stroke-opacity="0.5" stroke-width="2"/>
<line x1="1038" y1="37.0001" x2="1038" y2="2235" stroke="#FFBBC2" stroke-opacity="0.5" stroke-width="2"/>
<line x1="1342" y1="37.0001" x2="1342" y2="2235" stroke="#FFBBC2" stroke-opacity="0.5" stroke-width="2"/>
<line x1="658" y1="37.0001" x2="658" y2="2235" stroke="#FFBBC2" stroke-opacity="0.5" stroke-width="2"/>
<line x1="202" y1="37.0001" x2="202" y2="2235" stroke="#FFBBC2" stroke-opacity="0.5" stroke-width="2"/>
<line x1="886" y1="37.0001" x2="886" y2="2235" stroke="#FFBBC2" stroke-opacity="0.5" stroke-width="2"/>
<line x1="430" y1="37.0001" x2="430" y2="2235" stroke="#FFBBC2" stroke-opacity="0.5" stroke-width="2"/>
<line x1="1114" y1="37.0001" x2="1114" y2="2235" stroke="#FFBBC2" stroke-opacity="0.5" stroke-width="2"/>
<line x1="1418" y1="37.0001" x2="1418" y2="2235" stroke="#FFBBC2" stroke-opacity="0.5" stroke-width="2"/>
<line x1="50.0002" y1="37.0001" x2="50.0001" y2="2235" stroke="#FFBBC2" stroke-opacity="0.5" stroke-width="2"/>
<line x1="734" y1="37.0001" x2="734" y2="2235" stroke="#FFBBC2" stroke-opacity="0.5" stroke-width="2"/>
<line x1="278" y1="37.0001" x2="278" y2="2235" stroke="#FFBBC2" stroke-opacity="0.5" stroke-width="2"/>
<line x1="962" y1="37.0001" x2="962" y2="2235" stroke="#FFBBC2" stroke-opacity="0.5" stroke-width="2"/>
<line x1="1266" y1="37.0001" x2="1266" y2="2235" stroke="#FFBBC2" stroke-opacity="0.5" stroke-width="2"/>
<line x1="506" y1="37.0001" x2="506" y2="2235" stroke="#FFBBC2" stroke-opacity="0.5" stroke-width="2"/>
<line x1="1190" y1="37.0001" x2="1190" y2="2235" stroke="#FFBBC2" stroke-opacity="0.5" stroke-width="2"/>
<line x1="-664" y1="1632" x2="1534" y2="1632" stroke="#FFBBC2" stroke-opacity="0.5" stroke-width="2"/>
<line x1="-664" y1="948" x2="1534" y2="948" stroke="#FFBBC2" stroke-opacity="0.5" stroke-width="2"/>
<line x1="-664" y1="1404" x2="1534" y2="1404" stroke="#FFBBC2" stroke-opacity="0.5" stroke-width="2"/>
<line x1="-664" y1="720" x2="1534" y2="720" stroke="#FFBBC2" stroke-opacity="0.5" stroke-width="2"/>
<line x1="-664" y1="1176" x2="1534" y2="1176" stroke="#FFBBC2" stroke-opacity="0.5" stroke-width="2"/>
<line x1="-664" y1="492" x2="1534" y2="492" stroke="#FFBBC2" stroke-opacity="0.5" stroke-width="2"/>
<line x1="-664" y1="188" x2="1534" y2="188" stroke="#FFBBC2" stroke-opacity="0.5" stroke-width="2"/>
<line x1="-664" y1="1556" x2="1534" y2="1556" stroke="#FFBBC2" stroke-opacity="0.5" stroke-width="2"/>
<line x1="-664" y1="872" x2="1534" y2="872" stroke="#FFBBC2" stroke-opacity="0.5" stroke-width="2"/>
<line x1="-664" y1="1328" x2="1534" y2="1328" stroke="#FFBBC2" stroke-opacity="0.5" stroke-width="2"/>
<line x1="-664" y1="644" x2="1534" y2="644" stroke="#FFBBC2" stroke-opacity="0.5" stroke-width="2"/>
<line x1="-664" y1="1100" x2="1534" y2="1100" stroke="#FFBBC2" stroke-opacity="0.5" stroke-width="2"/>
<line x1="-664" y1="416" x2="1534" y2="416" stroke="#FFBBC2" stroke-opacity="0.5" stroke-width="2"/>
<line x1="-664" y1="112" x2="1534" y2="112" stroke="#FFBBC2" stroke-opacity="0.5" stroke-width="2"/>
<line x1="-664" y1="1480" x2="1534" y2="1480" stroke="#FFBBC2" stroke-opacity="0.5" stroke-width="2"/>
<line x1="-664" y1="796" x2="1534" y2="796" stroke="#FFBBC2" stroke-opacity="0.5" stroke-width="2"/>
<line x1="-664" y1="1252" x2="1534" y2="1252" stroke="#FFBBC2" stroke-opacity="0.5" stroke-width="2"/>
<line x1="-664" y1="568" x2="1534" y2="568" stroke="#FFBBC2" stroke-opacity="0.5" stroke-width="2"/>
<line x1="-664" y1="264" x2="1534" y2="264" stroke="#FFBBC2" stroke-opacity="0.5" stroke-width="2"/>
<line x1="-664" y1="1024" x2="1534" y2="1024" stroke="#FFBBC2" stroke-opacity="0.5" stroke-width="2"/>
<line x1="-664" y1="340" x2="1534" y2="340" stroke="#FFBBC2" stroke-opacity="0.5" stroke-width="2"/>
<line x1="-664" y1="36" x2="1534" y2="36.0001" stroke="#FFBBC2" stroke-opacity="0.5" stroke-width="2"/>
<line x1="-664" y1="2088" x2="1534" y2="2088" stroke="#FFBBC2" stroke-opacity="0.5" stroke-width="2"/>
<line x1="-664" y1="1784" x2="1534" y2="1784" stroke="#FFBBC2" stroke-opacity="0.5" stroke-width="2"/>
<line x1="-664" y1="2012" x2="1534" y2="2012" stroke="#FFBBC2" stroke-opacity="0.5" stroke-width="2"/>
<line x1="-664" y1="1708" x2="1534" y2="1708" stroke="#FFBBC2" stroke-opacity="0.5" stroke-width="2"/>
<line x1="-664" y1="1860" x2="1534" y2="1860" stroke="#FFBBC2" stroke-opacity="0.5" stroke-width="2"/>
<line x1="-664" y1="1936" x2="1534" y2="1936" stroke="#FFBBC2" stroke-opacity="0.5" stroke-width="2"/>
<line x1="-664" y1="1632" x2="1534" y2="1632" stroke="#FFBBC2" stroke-opacity="0.5" stroke-width="2"/>
</g>
</svg>
