<svg width="1440" height="2088" viewBox="0 0 1440 2088" fill="none" xmlns="http://www.w3.org/2000/svg">
<mask id="mask0" mask-type="alpha" maskUnits="userSpaceOnUse" x="0" y="0" width="1440" height="2288">
<rect width="1440" height="2288" fill="#C4C4C4"/>
</mask>
<g mask="url(#mask0)">
<rect x="-32.7672" y="-19.9999" width="1579.83" height="2254.84" fill="#F8FAFF"/>
<line x1="641.198" y1="-19.9999" x2="641.198" y2="2234.84" stroke="#DEE8FF" stroke-width="2"/>
<line x1="173.405" y1="-19.9999" x2="173.405" y2="2234.84" stroke="#DEE8FF" stroke-width="2"/>
<line x1="875.095" y1="-19.9999" x2="875.095" y2="2234.84" stroke="#DEE8FF" stroke-width="2"/>
<line x1="407.302" y1="-19.9999" x2="407.302" y2="2234.84" stroke="#DEE8FF" stroke-width="2"/>
<line x1="1108.99" y1="-19.9999" x2="1108.99" y2="2234.84" stroke="#DEE8FF" stroke-width="2"/>
<line x1="1420.85" y1="-19.9999" x2="1420.85" y2="2234.84" stroke="#DEE8FF" stroke-width="2"/>
<line x1="17.474" y1="-19.9999" x2="17.4739" y2="2234.84" stroke="#DEE8FF" stroke-width="2"/>
<line x1="719.164" y1="-19.9999" x2="719.164" y2="2234.84" stroke="#DEE8FF" stroke-width="2"/>
<line x1="251.371" y1="-19.9999" x2="251.371" y2="2234.84" stroke="#DEE8FF" stroke-width="2"/>
<line x1="953.06" y1="-19.9999" x2="953.06" y2="2234.84" stroke="#DEE8FF" stroke-width="2"/>
<line x1="485.267" y1="-19.9999" x2="485.267" y2="2234.84" stroke="#DEE8FF" stroke-width="2"/>
<line x1="1186.96" y1="-19.9999" x2="1186.96" y2="2234.84" stroke="#DEE8FF" stroke-width="2"/>
<line x1="95.4396" y1="-19.9999" x2="95.4395" y2="2234.84" stroke="#DEE8FF" stroke-width="2"/>
<line x1="797.129" y1="-19.9999" x2="797.129" y2="2234.84" stroke="#DEE8FF" stroke-width="2"/>
<line x1="329.336" y1="-19.9999" x2="329.336" y2="2234.84" stroke="#DEE8FF" stroke-width="2"/>
<line x1="1031.03" y1="-19.9999" x2="1031.03" y2="2234.84" stroke="#DEE8FF" stroke-width="2"/>
<line x1="1342.89" y1="-19.9999" x2="1342.89" y2="2234.84" stroke="#DEE8FF" stroke-width="2"/>
<line x1="563.233" y1="-19.9999" x2="563.233" y2="2234.84" stroke="#DEE8FF" stroke-width="2"/>
<line x1="1264.92" y1="-19.9999" x2="1264.92" y2="2234.84" stroke="#DEE8FF" stroke-width="2"/>
<line x1="-637" y1="1616.28" x2="1617.84" y2="1616.28" stroke="#DEE8FF" stroke-width="2"/>
<line x1="-637" y1="914.586" x2="1617.84" y2="914.586" stroke="#DEE8FF" stroke-width="2"/>
<line x1="-637" y1="1382.38" x2="1617.84" y2="1382.38" stroke="#DEE8FF" stroke-width="2"/>
<line x1="-637" y1="680.69" x2="1617.84" y2="680.69" stroke="#DEE8FF" stroke-width="2"/>
<line x1="-637" y1="1148.48" x2="1617.84" y2="1148.48" stroke="#DEE8FF" stroke-width="2"/>
<line x1="-637" y1="446.793" x2="1617.84" y2="446.793" stroke="#DEE8FF" stroke-width="2"/>
<line x1="-637" y1="134.931" x2="1617.84" y2="134.931" stroke="#DEE8FF" stroke-width="2"/>
<line x1="-637" y1="1538.31" x2="1617.84" y2="1538.31" stroke="#DEE8FF" stroke-width="2"/>
<line x1="-637" y1="836.621" x2="1617.84" y2="836.621" stroke="#DEE8FF" stroke-width="2"/>
<line x1="-637" y1="1304.41" x2="1617.84" y2="1304.41" stroke="#DEE8FF" stroke-width="2"/>
<line x1="-637" y1="602.724" x2="1617.84" y2="602.724" stroke="#DEE8FF" stroke-width="2"/>
<line x1="-637" y1="1070.52" x2="1617.84" y2="1070.52" stroke="#DEE8FF" stroke-width="2"/>
<line x1="-637" y1="368.828" x2="1617.84" y2="368.828" stroke="#DEE8FF" stroke-width="2"/>
<line x1="-637" y1="56.9656" x2="1617.84" y2="56.9657" stroke="#DEE8FF" stroke-width="2"/>
<line x1="-637" y1="1460.34" x2="1617.84" y2="1460.34" stroke="#DEE8FF" stroke-width="2"/>
<line x1="-637" y1="758.655" x2="1617.84" y2="758.655" stroke="#DEE8FF" stroke-width="2"/>
<line x1="-637" y1="1226.45" x2="1617.84" y2="1226.45" stroke="#DEE8FF" stroke-width="2"/>
<line x1="-637" y1="524.758" x2="1617.84" y2="524.759" stroke="#DEE8FF" stroke-width="2"/>
<line x1="-637" y1="212.897" x2="1617.84" y2="212.897" stroke="#DEE8FF" stroke-width="2"/>
<line x1="-637" y1="992.552" x2="1617.84" y2="992.552" stroke="#DEE8FF" stroke-width="2"/>
<line x1="-637" y1="290.862" x2="1617.84" y2="290.862" stroke="#DEE8FF" stroke-width="2"/>
<line x1="-637" y1="2084.07" x2="1617.84" y2="2084.07" stroke="#DEE8FF" stroke-width="2"/>
<line x1="-637" y1="1772.21" x2="1617.84" y2="1772.21" stroke="#DEE8FF" stroke-width="2"/>
<line x1="-637" y1="2006.1" x2="1617.84" y2="2006.1" stroke="#DEE8FF" stroke-width="2"/>
<line x1="-637" y1="1694.24" x2="1617.84" y2="1694.24" stroke="#DEE8FF" stroke-width="2"/>
<line x1="-637" y1="1850.17" x2="1617.84" y2="1850.17" stroke="#DEE8FF" stroke-width="2"/>
<line x1="-637" y1="1928.14" x2="1617.84" y2="1928.14" stroke="#DEE8FF" stroke-width="2"/>
<line x1="-637" y1="1616.28" x2="1617.84" y2="1616.28" stroke="#DEE8FF" stroke-width="2"/>
</g>
</svg>
