<svg width="157" height="59" viewBox="0 0 157 59" fill="none" xmlns="http://www.w3.org/2000/svg">
<path d="M28.5312 14.4375C29.6875 18.7969 30.0703 23.0625 29.6797 27.2344C29.5703 28.4375 29.3438 30.2109 29 32.5547C28.6719 34.8359 28.4609 36.5312 28.3672 37.6406C28.0547 41.4375 28.4531 44.625 29.5625 47.2031C28.625 47.1406 27.1875 47.2031 25.25 47.3906C23.6562 47.5469 22.2891 47.5156 21.1484 47.2969C19.8672 43.5469 19.7109 39.3984 20.6797 34.8516C19.6953 34.6484 18.0859 34.1797 15.8516 33.4453C13.8672 32.8047 12.2109 32.3906 10.8828 32.2031C9.80469 36.3281 9.72656 40.9375 10.6484 46.0312C10.1797 46.4375 9.125 46.7422 7.48438 46.9453C5.89062 47.1484 4.875 47.5 4.4375 48C2.85938 43.375 2.54688 37.875 3.5 31.5C4.10938 27.4375 4.44531 24.6484 4.50781 23.1328C4.61719 19.9609 4.16406 17.2969 3.14844 15.1406C9.07031 15.0312 11.8828 14.9531 11.5859 14.9062C12.6328 18.1406 12.8594 21.7891 12.2656 25.8516C13.2812 26.1016 14.9062 26.5703 17.1406 27.2578C19.1875 27.9141 20.8281 28.3672 22.0625 28.6172C23.0469 25.2109 23.0156 20.75 21.9688 15.2344C24.5 15.2344 25.6875 15.2344 25.5312 15.2344C26.7188 15.1719 27.6406 14.9062 28.2969 14.4375H28.5312ZM54.3106 14.4844C54.4044 15.1719 54.6466 16.4141 55.0372 18.2109C55.3653 19.7578 55.5606 20.9297 55.6231 21.7266C50.0294 21.5703 46.0684 21.2969 43.7403 20.9062C43.7716 23.2969 43.6153 25.1562 43.2716 26.4844C43.9903 26.5938 45.6153 27.0781 48.1466 27.9375C50.0059 28.5781 51.7481 28.8125 53.3731 28.6406C53.17 29.3281 52.8888 30.3906 52.5294 31.8281C52.1856 33.2812 51.9122 34.3516 51.7091 35.0391C49.9434 35.1484 48.1544 34.9375 46.3419 34.4062C46.4513 34.4375 44.9122 33.8984 41.7247 32.7891C41.0216 34.5234 40.7013 37.1016 40.7638 40.5234C47.6544 41.2578 52.1309 41.5312 54.1934 41.3438C54.3497 42.0156 54.6309 43.1016 55.0372 44.6016C55.4278 45.9766 55.7013 47.0703 55.8575 47.8828C55.92 47.8828 52.4356 47.8047 45.4044 47.6484C44.7794 47.6328 43.8653 47.5859 42.6622 47.5078C41.4591 47.4297 40.5684 47.3828 39.9903 47.3672C37.9747 47.3359 36.3341 47.5469 35.0684 48C33.8028 44.25 33.3263 40.25 33.6388 36C33.7325 34.75 34.0763 32.5938 34.67 29.5312C35.2169 26.7656 35.5059 24.6016 35.5372 23.0391C35.5684 21.1328 35.0528 18.3203 33.9903 14.6016C36.3028 14.3359 39.67 14.3125 44.0919 14.5312C48.6075 14.7344 52.0138 14.7188 54.3106 14.4844ZM69.0041 14.4141C70.7697 18.6016 71.1291 23.5703 70.0822 29.3203C69.9259 30.1953 69.6056 31.3672 69.1213 32.8359C68.6213 34.3828 68.3009 35.5 68.1603 36.1875C67.7384 38.1406 67.7853 40.1641 68.3009 42.2578C68.5822 43.3672 69.2541 45.2344 70.3166 47.8594C69.3478 47.9688 68.0119 48.0156 66.3088 48C64.0119 47.9688 62.6213 47.9609 62.1369 47.9766C60.8244 43.6484 60.1447 40.4453 60.0978 38.3672C60.0509 36.8203 60.5353 34.1875 61.5509 30.4688C62.5353 26.8438 62.9728 23.9375 62.8634 21.75C62.7541 19.8438 62.1525 17.5156 61.0588 14.7656C61.0744 14.6406 61.0353 14.5625 60.9416 14.5312C61.8791 14.4219 63.1916 14.375 64.8791 14.3906C67.1447 14.4219 68.5197 14.4297 69.0041 14.4141ZM81.8225 39.7266C82.5256 39.7422 83.4084 39.8125 84.4709 39.9375C85.7678 40.0781 86.5803 40.1641 86.9084 40.1953C88.6741 40.3203 90.0803 40.0469 91.1272 39.375C92.9709 38.2188 94.2991 35.9844 95.1116 32.6719C95.9397 29.3125 95.76 26.6094 94.5725 24.5625C93.7913 23.2031 92.4631 22.2109 90.5881 21.5859C89.135 21.1016 87.0959 20.7891 84.4709 20.6484C84.3928 22.6172 83.8928 25.7422 82.9709 30.0234C82.1272 33.9297 81.7444 37.1641 81.8225 39.7266ZM76.1975 48C75.0256 43.625 74.6428 39.1016 75.0491 34.4297C75.1428 33.3359 75.3459 31.6406 75.6584 29.3438C75.9553 27.125 76.1506 25.4531 76.2444 24.3281C76.5413 20.5 76.1741 17.3906 75.1428 15C76.2053 14.9688 77.51 14.8828 79.0569 14.7422C80.7288 14.5859 82.0334 14.4844 82.9709 14.4375C89.1741 14.125 94.1194 15.2891 97.8069 17.9297C101.854 20.8359 103.69 25.1094 103.315 30.75C103.127 33.5156 102.354 36.1875 100.994 38.7656C99.6975 41.2031 98.135 43.0938 96.3069 44.4375C94.6663 45.625 92.5256 46.2969 89.885 46.4531C88.9944 46.5 87.7444 46.5 86.135 46.4531C84.0725 46.4062 82.6741 46.3828 81.9397 46.3828C79.2678 46.3984 77.3538 46.9375 76.1975 48ZM123.961 26.4141C126.774 23.8672 128.782 20.0078 129.985 14.8359C130.688 15.1641 131.664 15.2578 132.914 15.1172C134.571 14.9453 135.719 14.8906 136.36 14.9531C135.266 22.375 132.055 28.4375 126.727 33.1406C125.352 34.3594 124.657 34.9766 124.641 34.9922C124.391 35.5391 124.203 36.9297 124.078 39.1641C123.891 42.0391 124.196 44.9766 124.993 47.9766C124.664 48.0391 124.235 47.9609 123.703 47.7422C122.969 47.4141 122.477 47.2188 122.227 47.1562C121.946 47.0938 121.039 47.0391 119.508 46.9922C118.399 46.9453 117.602 46.7344 117.118 46.3594C116.539 42.7031 116.5 39.1875 117 35.8125C117.032 35.5938 117.149 35.0234 117.352 34.1016C117.493 33.4141 117.571 32.8594 117.586 32.4375C117.633 29.625 116.36 26.3438 113.766 22.5938C112.641 20.9844 110.321 18.75 106.805 15.8906C107.086 15.8281 108.071 15.5625 109.758 15.0938C110.977 14.75 112 14.5469 112.828 14.4844C114.625 14.3438 115.782 14.3438 116.297 14.4844C116.641 14.5781 117.453 15.4297 118.735 17.0391C121.282 20.2109 123.024 23.3359 123.961 26.4141Z" fill="#A04668"/>
<path d="M26.5312 14.4375C27.6875 18.7969 28.0703 23.0625 27.6797 27.2344C27.5703 28.4375 27.3438 30.2109 27 32.5547C26.6719 34.8359 26.4609 36.5312 26.3672 37.6406C26.0547 41.4375 26.4531 44.625 27.5625 47.2031C26.625 47.1406 25.1875 47.2031 23.25 47.3906C21.6562 47.5469 20.2891 47.5156 19.1484 47.2969C17.8672 43.5469 17.7109 39.3984 18.6797 34.8516C17.6953 34.6484 16.0859 34.1797 13.8516 33.4453C11.8672 32.8047 10.2109 32.3906 8.88281 32.2031C7.80469 36.3281 7.72656 40.9375 8.64844 46.0312C8.17969 46.4375 7.125 46.7422 5.48438 46.9453C3.89062 47.1484 2.875 47.5 2.4375 48C0.859375 43.375 0.546875 37.875 1.5 31.5C2.10938 27.4375 2.44531 24.6484 2.50781 23.1328C2.61719 19.9609 2.16406 17.2969 1.14844 15.1406C7.07031 15.0312 9.88281 14.9531 9.58594 14.9062C10.6328 18.1406 10.8594 21.7891 10.2656 25.8516C11.2812 26.1016 12.9062 26.5703 15.1406 27.2578C17.1875 27.9141 18.8281 28.3672 20.0625 28.6172C21.0469 25.2109 21.0156 20.75 19.9688 15.2344C22.5 15.2344 23.6875 15.2344 23.5312 15.2344C24.7188 15.1719 25.6406 14.9062 26.2969 14.4375H26.5312ZM52.3106 14.4844C52.4044 15.1719 52.6466 16.4141 53.0372 18.2109C53.3653 19.7578 53.5606 20.9297 53.6231 21.7266C48.0294 21.5703 44.0684 21.2969 41.7403 20.9062C41.7716 23.2969 41.6153 25.1562 41.2716 26.4844C41.9903 26.5938 43.6153 27.0781 46.1466 27.9375C48.0059 28.5781 49.7481 28.8125 51.3731 28.6406C51.17 29.3281 50.8888 30.3906 50.5294 31.8281C50.1856 33.2812 49.9122 34.3516 49.7091 35.0391C47.9434 35.1484 46.1544 34.9375 44.3419 34.4062C44.4513 34.4375 42.9122 33.8984 39.7247 32.7891C39.0216 34.5234 38.7013 37.1016 38.7638 40.5234C45.6544 41.2578 50.1309 41.5312 52.1934 41.3438C52.3497 42.0156 52.6309 43.1016 53.0372 44.6016C53.4278 45.9766 53.7013 47.0703 53.8575 47.8828C53.92 47.8828 50.4356 47.8047 43.4044 47.6484C42.7794 47.6328 41.8653 47.5859 40.6622 47.5078C39.4591 47.4297 38.5684 47.3828 37.9903 47.3672C35.9747 47.3359 34.3341 47.5469 33.0684 48C31.8028 44.25 31.3263 40.25 31.6388 36C31.7325 34.75 32.0763 32.5938 32.67 29.5312C33.2169 26.7656 33.5059 24.6016 33.5372 23.0391C33.5684 21.1328 33.0528 18.3203 31.9903 14.6016C34.3028 14.3359 37.67 14.3125 42.0919 14.5312C46.6075 14.7344 50.0138 14.7188 52.3106 14.4844ZM67.0041 14.4141C68.7697 18.6016 69.1291 23.5703 68.0822 29.3203C67.9259 30.1953 67.6056 31.3672 67.1213 32.8359C66.6213 34.3828 66.3009 35.5 66.1603 36.1875C65.7384 38.1406 65.7853 40.1641 66.3009 42.2578C66.5822 43.3672 67.2541 45.2344 68.3166 47.8594C67.3478 47.9688 66.0119 48.0156 64.3088 48C62.0119 47.9688 60.6213 47.9609 60.1369 47.9766C58.8244 43.6484 58.1447 40.4453 58.0978 38.3672C58.0509 36.8203 58.5353 34.1875 59.5509 30.4688C60.5353 26.8438 60.9728 23.9375 60.8634 21.75C60.7541 19.8438 60.1525 17.5156 59.0588 14.7656C59.0744 14.6406 59.0353 14.5625 58.9416 14.5312C59.8791 14.4219 61.1916 14.375 62.8791 14.3906C65.1447 14.4219 66.5197 14.4297 67.0041 14.4141ZM79.8225 39.7266C80.5256 39.7422 81.4084 39.8125 82.4709 39.9375C83.7678 40.0781 84.5803 40.1641 84.9084 40.1953C86.6741 40.3203 88.0803 40.0469 89.1272 39.375C90.9709 38.2188 92.2991 35.9844 93.1116 32.6719C93.9397 29.3125 93.76 26.6094 92.5725 24.5625C91.7913 23.2031 90.4631 22.2109 88.5881 21.5859C87.135 21.1016 85.0959 20.7891 82.4709 20.6484C82.3928 22.6172 81.8928 25.7422 80.9709 30.0234C80.1272 33.9297 79.7444 37.1641 79.8225 39.7266ZM74.1975 48C73.0256 43.625 72.6428 39.1016 73.0491 34.4297C73.1428 33.3359 73.3459 31.6406 73.6584 29.3438C73.9553 27.125 74.1506 25.4531 74.2444 24.3281C74.5413 20.5 74.1741 17.3906 73.1428 15C74.2053 14.9688 75.51 14.8828 77.0569 14.7422C78.7288 14.5859 80.0334 14.4844 80.9709 14.4375C87.1741 14.125 92.1194 15.2891 95.8069 17.9297C99.8538 20.8359 101.69 25.1094 101.315 30.75C101.127 33.5156 100.354 36.1875 98.9944 38.7656C97.6975 41.2031 96.135 43.0938 94.3069 44.4375C92.6663 45.625 90.5256 46.2969 87.885 46.4531C86.9944 46.5 85.7444 46.5 84.135 46.4531C82.0725 46.4062 80.6741 46.3828 79.9397 46.3828C77.2678 46.3984 75.3538 46.9375 74.1975 48ZM121.961 26.4141C124.774 23.8672 126.782 20.0078 127.985 14.8359C128.688 15.1641 129.664 15.2578 130.914 15.1172C132.571 14.9453 133.719 14.8906 134.36 14.9531C133.266 22.375 130.055 28.4375 124.727 33.1406C123.352 34.3594 122.657 34.9766 122.641 34.9922C122.391 35.5391 122.203 36.9297 122.078 39.1641C121.891 42.0391 122.196 44.9766 122.993 47.9766C122.664 48.0391 122.235 47.9609 121.703 47.7422C120.969 47.4141 120.477 47.2188 120.227 47.1562C119.946 47.0938 119.039 47.0391 117.508 46.9922C116.399 46.9453 115.602 46.7344 115.118 46.3594C114.539 42.7031 114.5 39.1875 115 35.8125C115.032 35.5938 115.149 35.0234 115.352 34.1016C115.493 33.4141 115.571 32.8594 115.586 32.4375C115.633 29.625 114.36 26.3438 111.766 22.5938C110.641 20.9844 108.321 18.75 104.805 15.8906C105.086 15.8281 106.071 15.5625 107.758 15.0938C108.977 14.75 110 14.5469 110.828 14.4844C112.625 14.3438 113.782 14.3438 114.297 14.4844C114.641 14.5781 115.453 15.4297 116.735 17.0391C119.282 20.2109 121.024 23.3359 121.961 26.4141Z" fill="#FFBBC2"/>
</svg>
