<svg width="1440" height="6606" viewBox="0 0 1440 6606" fill="none" xmlns="http://www.w3.org/2000/svg">
<g clip-path="url(#clip0)">
<rect width="1440" height="6606" fill="white"/>
<rect width="1540" height="2198" fill="#F8FAFF"/>
<line x1="657" y1="4.37114e-08" x2="657" y2="2198" stroke="#DEE8FF" stroke-width="2"/>
<line x1="201" y1="4.37114e-08" x2="201" y2="2198" stroke="#DEE8FF" stroke-width="2"/>
<line x1="885" y1="4.37114e-08" x2="885" y2="2198" stroke="#DEE8FF" stroke-width="2"/>
<line x1="429" y1="4.37114e-08" x2="429" y2="2198" stroke="#DEE8FF" stroke-width="2"/>
<line x1="1113" y1="4.37114e-08" x2="1113" y2="2198" stroke="#DEE8FF" stroke-width="2"/>
<line x1="1417" y1="4.37114e-08" x2="1417" y2="2198" stroke="#DEE8FF" stroke-width="2"/>
<line x1="49.0002" y1="4.37114e-08" x2="49.0001" y2="2198" stroke="#DEE8FF" stroke-width="2"/>
<line x1="733" y1="4.37114e-08" x2="733" y2="2198" stroke="#DEE8FF" stroke-width="2"/>
<line x1="277" y1="4.37114e-08" x2="277" y2="2198" stroke="#DEE8FF" stroke-width="2"/>
<line x1="961" y1="4.37114e-08" x2="961" y2="2198" stroke="#DEE8FF" stroke-width="2"/>
<line x1="505" y1="4.37114e-08" x2="505" y2="2198" stroke="#DEE8FF" stroke-width="2"/>
<line x1="1189" y1="4.37114e-08" x2="1189" y2="2198" stroke="#DEE8FF" stroke-width="2"/>
<line x1="125" y1="4.37114e-08" x2="125" y2="2198" stroke="#DEE8FF" stroke-width="2"/>
<line x1="809" y1="4.37114e-08" x2="809" y2="2198" stroke="#DEE8FF" stroke-width="2"/>
<line x1="353" y1="4.37114e-08" x2="353" y2="2198" stroke="#DEE8FF" stroke-width="2"/>
<line x1="1037" y1="4.37114e-08" x2="1037" y2="2198" stroke="#DEE8FF" stroke-width="2"/>
<line x1="1341" y1="4.37114e-08" x2="1341" y2="2198" stroke="#DEE8FF" stroke-width="2"/>
<line x1="581" y1="4.37114e-08" x2="581" y2="2198" stroke="#DEE8FF" stroke-width="2"/>
<line x1="1265" y1="4.37114e-08" x2="1265" y2="2198" stroke="#DEE8FF" stroke-width="2"/>
<line x1="-589" y1="1595" x2="1609" y2="1595" stroke="#DEE8FF" stroke-width="2"/>
<line x1="-589" y1="911" x2="1609" y2="911" stroke="#DEE8FF" stroke-width="2"/>
<line x1="-589" y1="1367" x2="1609" y2="1367" stroke="#DEE8FF" stroke-width="2"/>
<line x1="-589" y1="683" x2="1609" y2="683" stroke="#DEE8FF" stroke-width="2"/>
<line x1="-589" y1="1139" x2="1609" y2="1139" stroke="#DEE8FF" stroke-width="2"/>
<line x1="-589" y1="455" x2="1609" y2="455" stroke="#DEE8FF" stroke-width="2"/>
<line x1="-589" y1="151" x2="1609" y2="151" stroke="#DEE8FF" stroke-width="2"/>
<line x1="-589" y1="1519" x2="1609" y2="1519" stroke="#DEE8FF" stroke-width="2"/>
<line x1="-589" y1="835" x2="1609" y2="835" stroke="#DEE8FF" stroke-width="2"/>
<line x1="-589" y1="1291" x2="1609" y2="1291" stroke="#DEE8FF" stroke-width="2"/>
<line x1="-589" y1="607" x2="1609" y2="607" stroke="#DEE8FF" stroke-width="2"/>
<line x1="-589" y1="1063" x2="1609" y2="1063" stroke="#DEE8FF" stroke-width="2"/>
<line x1="-589" y1="379" x2="1609" y2="379" stroke="#DEE8FF" stroke-width="2"/>
<line x1="-589" y1="74.9999" x2="1609" y2="75" stroke="#DEE8FF" stroke-width="2"/>
<line x1="-589" y1="1443" x2="1609" y2="1443" stroke="#DEE8FF" stroke-width="2"/>
<line x1="-589" y1="759" x2="1609" y2="759" stroke="#DEE8FF" stroke-width="2"/>
<line x1="-589" y1="1215" x2="1609" y2="1215" stroke="#DEE8FF" stroke-width="2"/>
<line x1="-589" y1="531" x2="1609" y2="531" stroke="#DEE8FF" stroke-width="2"/>
<line x1="-589" y1="227" x2="1609" y2="227" stroke="#DEE8FF" stroke-width="2"/>
<line x1="-589" y1="987" x2="1609" y2="987" stroke="#DEE8FF" stroke-width="2"/>
<line x1="-589" y1="303" x2="1609" y2="303" stroke="#DEE8FF" stroke-width="2"/>
<line x1="-589" y1="2051" x2="1609" y2="2051" stroke="#DEE8FF" stroke-width="2"/>
<line x1="-589" y1="1747" x2="1609" y2="1747" stroke="#DEE8FF" stroke-width="2"/>
<line x1="-589" y1="2203" x2="1609" y2="2203" stroke="#DEE8FF" stroke-width="2"/>
<line x1="-589" y1="1975" x2="1609" y2="1975" stroke="#DEE8FF" stroke-width="2"/>
<line x1="-589" y1="1671" x2="1609" y2="1671" stroke="#DEE8FF" stroke-width="2"/>
<line x1="-589" y1="2127" x2="1609" y2="2127" stroke="#DEE8FF" stroke-width="2"/>
<line x1="-589" y1="1823" x2="1609" y2="1823" stroke="#DEE8FF" stroke-width="2"/>
<line x1="-589" y1="1899" x2="1609" y2="1899" stroke="#DEE8FF" stroke-width="2"/>
<line x1="-589" y1="1595" x2="1609" y2="1595" stroke="#DEE8FF" stroke-width="2"/>
<rect y="2204" width="1540" height="2198" fill="#F8FAFF"/>
<line x1="657" y1="2204" x2="657" y2="4402" stroke="#DEE8FF" stroke-width="2"/>
<line x1="201" y1="2204" x2="201" y2="4402" stroke="#DEE8FF" stroke-width="2"/>
<line x1="885" y1="2204" x2="885" y2="4402" stroke="#DEE8FF" stroke-width="2"/>
<line x1="429" y1="2204" x2="429" y2="4402" stroke="#DEE8FF" stroke-width="2"/>
<line x1="1113" y1="2204" x2="1113" y2="4402" stroke="#DEE8FF" stroke-width="2"/>
<line x1="1417" y1="2204" x2="1417" y2="4402" stroke="#DEE8FF" stroke-width="2"/>
<line x1="49.0002" y1="2204" x2="49.0001" y2="4402" stroke="#DEE8FF" stroke-width="2"/>
<line x1="733" y1="2204" x2="733" y2="4402" stroke="#DEE8FF" stroke-width="2"/>
<line x1="277" y1="2204" x2="277" y2="4402" stroke="#DEE8FF" stroke-width="2"/>
<line x1="961" y1="2204" x2="961" y2="4402" stroke="#DEE8FF" stroke-width="2"/>
<line x1="505" y1="2204" x2="505" y2="4402" stroke="#DEE8FF" stroke-width="2"/>
<line x1="1189" y1="2204" x2="1189" y2="4402" stroke="#DEE8FF" stroke-width="2"/>
<line x1="125" y1="2204" x2="125" y2="4402" stroke="#DEE8FF" stroke-width="2"/>
<line x1="809" y1="2204" x2="809" y2="4402" stroke="#DEE8FF" stroke-width="2"/>
<line x1="353" y1="2204" x2="353" y2="4402" stroke="#DEE8FF" stroke-width="2"/>
<line x1="1037" y1="2204" x2="1037" y2="4402" stroke="#DEE8FF" stroke-width="2"/>
<line x1="1341" y1="2204" x2="1341" y2="4402" stroke="#DEE8FF" stroke-width="2"/>
<line x1="581" y1="2204" x2="581" y2="4402" stroke="#DEE8FF" stroke-width="2"/>
<line x1="1265" y1="2204" x2="1265" y2="4402" stroke="#DEE8FF" stroke-width="2"/>
<line x1="-589" y1="3799" x2="1609" y2="3799" stroke="#DEE8FF" stroke-width="2"/>
<line x1="-589" y1="3115" x2="1609" y2="3115" stroke="#DEE8FF" stroke-width="2"/>
<line x1="-589" y1="3571" x2="1609" y2="3571" stroke="#DEE8FF" stroke-width="2"/>
<line x1="-589" y1="2887" x2="1609" y2="2887" stroke="#DEE8FF" stroke-width="2"/>
<line x1="-589" y1="3343" x2="1609" y2="3343" stroke="#DEE8FF" stroke-width="2"/>
<line x1="-589" y1="2659" x2="1609" y2="2659" stroke="#DEE8FF" stroke-width="2"/>
<line x1="-589" y1="2355" x2="1609" y2="2355" stroke="#DEE8FF" stroke-width="2"/>
<line x1="-589" y1="3723" x2="1609" y2="3723" stroke="#DEE8FF" stroke-width="2"/>
<line x1="-589" y1="3039" x2="1609" y2="3039" stroke="#DEE8FF" stroke-width="2"/>
<line x1="-589" y1="3495" x2="1609" y2="3495" stroke="#DEE8FF" stroke-width="2"/>
<line x1="-589" y1="2811" x2="1609" y2="2811" stroke="#DEE8FF" stroke-width="2"/>
<line x1="-589" y1="3267" x2="1609" y2="3267" stroke="#DEE8FF" stroke-width="2"/>
<line x1="-589" y1="2583" x2="1609" y2="2583" stroke="#DEE8FF" stroke-width="2"/>
<line x1="-589" y1="2279" x2="1609" y2="2279" stroke="#DEE8FF" stroke-width="2"/>
<line x1="-589" y1="3647" x2="1609" y2="3647" stroke="#DEE8FF" stroke-width="2"/>
<line x1="-589" y1="2963" x2="1609" y2="2963" stroke="#DEE8FF" stroke-width="2"/>
<line x1="-589" y1="3419" x2="1609" y2="3419" stroke="#DEE8FF" stroke-width="2"/>
<line x1="-589" y1="2735" x2="1609" y2="2735" stroke="#DEE8FF" stroke-width="2"/>
<line x1="-589" y1="2431" x2="1609" y2="2431" stroke="#DEE8FF" stroke-width="2"/>
<line x1="-589" y1="3191" x2="1609" y2="3191" stroke="#DEE8FF" stroke-width="2"/>
<line x1="-589" y1="2507" x2="1609" y2="2507" stroke="#DEE8FF" stroke-width="2"/>
<line x1="-589" y1="2203" x2="1609" y2="2203" stroke="#DEE8FF" stroke-width="2"/>
<line x1="-589" y1="4255" x2="1609" y2="4255" stroke="#DEE8FF" stroke-width="2"/>
<line x1="-589" y1="3951" x2="1609" y2="3951" stroke="#DEE8FF" stroke-width="2"/>
<line x1="-589" y1="4407" x2="1609" y2="4407" stroke="#DEE8FF" stroke-width="2"/>
<line x1="-589" y1="4179" x2="1609" y2="4179" stroke="#DEE8FF" stroke-width="2"/>
<line x1="-589" y1="3875" x2="1609" y2="3875" stroke="#DEE8FF" stroke-width="2"/>
<line x1="-589" y1="4331" x2="1609" y2="4331" stroke="#DEE8FF" stroke-width="2"/>
<line x1="-589" y1="4027" x2="1609" y2="4027" stroke="#DEE8FF" stroke-width="2"/>
<line x1="-589" y1="4103" x2="1609" y2="4103" stroke="#DEE8FF" stroke-width="2"/>
<line x1="-589" y1="3799" x2="1609" y2="3799" stroke="#DEE8FF" stroke-width="2"/>
<rect y="4402" width="1540" height="2198" fill="#F8FAFF"/>
<line x1="657" y1="4402" x2="657" y2="6600" stroke="#DEE8FF" stroke-width="2"/>
<line x1="201" y1="4402" x2="201" y2="6600" stroke="#DEE8FF" stroke-width="2"/>
<line x1="885" y1="4402" x2="885" y2="6600" stroke="#DEE8FF" stroke-width="2"/>
<line x1="429" y1="4402" x2="429" y2="6600" stroke="#DEE8FF" stroke-width="2"/>
<line x1="1113" y1="4402" x2="1113" y2="6600" stroke="#DEE8FF" stroke-width="2"/>
<line x1="1417" y1="4402" x2="1417" y2="6600" stroke="#DEE8FF" stroke-width="2"/>
<line x1="49.0002" y1="4402" x2="49.0001" y2="6600" stroke="#DEE8FF" stroke-width="2"/>
<line x1="733" y1="4402" x2="733" y2="6600" stroke="#DEE8FF" stroke-width="2"/>
<line x1="277" y1="4402" x2="277" y2="6600" stroke="#DEE8FF" stroke-width="2"/>
<line x1="961" y1="4402" x2="961" y2="6600" stroke="#DEE8FF" stroke-width="2"/>
<line x1="505" y1="4402" x2="505" y2="6600" stroke="#DEE8FF" stroke-width="2"/>
<line x1="1189" y1="4402" x2="1189" y2="6600" stroke="#DEE8FF" stroke-width="2"/>
<line x1="125" y1="4402" x2="125" y2="6600" stroke="#DEE8FF" stroke-width="2"/>
<line x1="809" y1="4402" x2="809" y2="6600" stroke="#DEE8FF" stroke-width="2"/>
<line x1="353" y1="4402" x2="353" y2="6600" stroke="#DEE8FF" stroke-width="2"/>
<line x1="1037" y1="4402" x2="1037" y2="6600" stroke="#DEE8FF" stroke-width="2"/>
<line x1="1341" y1="4402" x2="1341" y2="6600" stroke="#DEE8FF" stroke-width="2"/>
<line x1="581" y1="4402" x2="581" y2="6600" stroke="#DEE8FF" stroke-width="2"/>
<line x1="1265" y1="4402" x2="1265" y2="6600" stroke="#DEE8FF" stroke-width="2"/>
<line x1="-589" y1="5997" x2="1609" y2="5997" stroke="#DEE8FF" stroke-width="2"/>
<line x1="-589" y1="5313" x2="1609" y2="5313" stroke="#DEE8FF" stroke-width="2"/>
<line x1="-589" y1="5769" x2="1609" y2="5769" stroke="#DEE8FF" stroke-width="2"/>
<line x1="-589" y1="5085" x2="1609" y2="5085" stroke="#DEE8FF" stroke-width="2"/>
<line x1="-589" y1="5541" x2="1609" y2="5541" stroke="#DEE8FF" stroke-width="2"/>
<line x1="-589" y1="4857" x2="1609" y2="4857" stroke="#DEE8FF" stroke-width="2"/>
<line x1="-589" y1="4553" x2="1609" y2="4553" stroke="#DEE8FF" stroke-width="2"/>
<line x1="-589" y1="5921" x2="1609" y2="5921" stroke="#DEE8FF" stroke-width="2"/>
<line x1="-589" y1="5237" x2="1609" y2="5237" stroke="#DEE8FF" stroke-width="2"/>
<line x1="-589" y1="5693" x2="1609" y2="5693" stroke="#DEE8FF" stroke-width="2"/>
<line x1="-589" y1="5009" x2="1609" y2="5009" stroke="#DEE8FF" stroke-width="2"/>
<line x1="-589" y1="5465" x2="1609" y2="5465" stroke="#DEE8FF" stroke-width="2"/>
<line x1="-589" y1="4781" x2="1609" y2="4781" stroke="#DEE8FF" stroke-width="2"/>
<line x1="-589" y1="4477" x2="1609" y2="4477" stroke="#DEE8FF" stroke-width="2"/>
<line x1="-589" y1="5845" x2="1609" y2="5845" stroke="#DEE8FF" stroke-width="2"/>
<line x1="-589" y1="5161" x2="1609" y2="5161" stroke="#DEE8FF" stroke-width="2"/>
<line x1="-589" y1="5617" x2="1609" y2="5617" stroke="#DEE8FF" stroke-width="2"/>
<line x1="-589" y1="4933" x2="1609" y2="4933" stroke="#DEE8FF" stroke-width="2"/>
<line x1="-589" y1="4629" x2="1609" y2="4629" stroke="#DEE8FF" stroke-width="2"/>
<line x1="-589" y1="5389" x2="1609" y2="5389" stroke="#DEE8FF" stroke-width="2"/>
<line x1="-589" y1="4705" x2="1609" y2="4705" stroke="#DEE8FF" stroke-width="2"/>
<line x1="-589" y1="4401" x2="1609" y2="4401" stroke="#DEE8FF" stroke-width="2"/>
<line x1="-589" y1="6453" x2="1609" y2="6453" stroke="#DEE8FF" stroke-width="2"/>
<line x1="-589" y1="6149" x2="1609" y2="6149" stroke="#DEE8FF" stroke-width="2"/>
<line x1="-589" y1="6605" x2="1609" y2="6605" stroke="#DEE8FF" stroke-width="2"/>
<line x1="-589" y1="6377" x2="1609" y2="6377" stroke="#DEE8FF" stroke-width="2"/>
<line x1="-589" y1="6073" x2="1609" y2="6073" stroke="#DEE8FF" stroke-width="2"/>
<line x1="-589" y1="6529" x2="1609" y2="6529" stroke="#DEE8FF" stroke-width="2"/>
<line x1="-589" y1="6225" x2="1609" y2="6225" stroke="#DEE8FF" stroke-width="2"/>
<line x1="-589" y1="6301" x2="1609" y2="6301" stroke="#DEE8FF" stroke-width="2"/>
<line x1="-589" y1="5997" x2="1609" y2="5997" stroke="#DEE8FF" stroke-width="2"/>
<mask id="mask0" mask-type="alpha" maskUnits="userSpaceOnUse" x="0" y="0" width="1440" height="798">
<rect width="1440" height="798" fill="#030A49"/>
</mask>
<g mask="url(#mask0)">
<rect x="-760" y="-684" width="1540" height="2198" fill="#030A49"/>
<line x1="125" y1="-684" x2="125" y2="1514" stroke="#3D5A80" stroke-width="2"/>
<line x1="353" y1="-684" x2="353" y2="1514" stroke="#3D5A80" stroke-width="2"/>
<line x1="657" y1="-684" x2="657" y2="1514" stroke="#3D5A80" stroke-width="2"/>
<line x1="201" y1="-684" x2="201" y2="1514" stroke="#3D5A80" stroke-width="2"/>
<line x1="429" y1="-684" x2="429" y2="1514" stroke="#3D5A80" stroke-width="2"/>
<line x1="733" y1="-684" x2="733" y2="1514" stroke="#3D5A80" stroke-width="2"/>
<line x1="49.0002" y1="-684" x2="49.0001" y2="1514" stroke="#3D5A80" stroke-width="2"/>
<line x1="277" y1="-684" x2="277" y2="1514" stroke="#3D5A80" stroke-width="2"/>
<line x1="581" y1="-684" x2="581" y2="1514" stroke="#3D5A80" stroke-width="2"/>
<line x1="505" y1="-684" x2="505" y2="1514" stroke="#3D5A80" stroke-width="2"/>
<line x1="809" y1="-684" x2="809" y2="1514" stroke="#3D5A80" stroke-width="2"/>
<line x1="-1349" y1="227" x2="849" y2="227" stroke="#3D5A80" stroke-width="2"/>
<line x1="-1349" y1="683" x2="849" y2="683" stroke="#3D5A80" stroke-width="2"/>
<line x1="-1349" y1="-1" x2="849" y2="-0.999904" stroke="#3D5A80" stroke-width="2"/>
<line x1="-1349" y1="455" x2="849" y2="455" stroke="#3D5A80" stroke-width="2"/>
<line x1="-1349" y1="151" x2="849" y2="151" stroke="#3D5A80" stroke-width="2"/>
<line x1="-1349" y1="607" x2="849" y2="607" stroke="#3D5A80" stroke-width="2"/>
<line x1="-1349" y1="379" x2="849" y2="379" stroke="#3D5A80" stroke-width="2"/>
<line x1="-1349" y1="759" x2="849" y2="759" stroke="#3D5A80" stroke-width="2"/>
<line x1="-1349" y1="74.9999" x2="849" y2="75" stroke="#3D5A80" stroke-width="2"/>
<line x1="-1349" y1="531" x2="849" y2="531" stroke="#3D5A80" stroke-width="2"/>
<line x1="-1349" y1="303" x2="849" y2="303" stroke="#3D5A80" stroke-width="2"/>
<rect x="760" y="-684" width="1540" height="2198" fill="#030A49"/>
<line x1="733" y1="-684" x2="733" y2="1514" stroke="#3D5A80" stroke-width="2"/>
<line x1="1417" y1="-684" x2="1417" y2="1514" stroke="#3D5A80" stroke-width="2"/>
<line x1="961" y1="-684" x2="961" y2="1514" stroke="#3D5A80" stroke-width="2"/>
<line x1="1189" y1="-684" x2="1189" y2="1514" stroke="#3D5A80" stroke-width="2"/>
<line x1="809" y1="-684" x2="809" y2="1514" stroke="#3D5A80" stroke-width="2"/>
<line x1="1037" y1="-684" x2="1037" y2="1514" stroke="#3D5A80" stroke-width="2"/>
<line x1="1265" y1="-684" x2="1265" y2="1514" stroke="#3D5A80" stroke-width="2"/>
<line x1="885" y1="-684" x2="885" y2="1514" stroke="#3D5A80" stroke-width="2"/>
<line x1="1113" y1="-684" x2="1113" y2="1514" stroke="#3D5A80" stroke-width="2"/>
<line x1="1341" y1="-684" x2="1341" y2="1514" stroke="#3D5A80" stroke-width="2"/>
<line x1="171" y1="227" x2="2369" y2="227" stroke="#3D5A80" stroke-width="2"/>
<line x1="171" y1="683" x2="2369" y2="683" stroke="#3D5A80" stroke-width="2"/>
<line x1="171" y1="-1" x2="2369" y2="-0.999904" stroke="#3D5A80" stroke-width="2"/>
<line x1="171" y1="455" x2="2369" y2="455" stroke="#3D5A80" stroke-width="2"/>
<line x1="171" y1="151" x2="2369" y2="151" stroke="#3D5A80" stroke-width="2"/>
<line x1="171" y1="607" x2="2369" y2="607" stroke="#3D5A80" stroke-width="2"/>
<line x1="171" y1="379" x2="2369" y2="379" stroke="#3D5A80" stroke-width="2"/>
<line x1="171" y1="759" x2="2369" y2="759" stroke="#3D5A80" stroke-width="2"/>
<line x1="171" y1="74.9999" x2="2369" y2="75" stroke="#3D5A80" stroke-width="2"/>
<line x1="171" y1="531" x2="2369" y2="531" stroke="#3D5A80" stroke-width="2"/>
<line x1="171" y1="303" x2="2369" y2="303" stroke="#3D5A80" stroke-width="2"/>
</g>
</g>
<defs>
<clipPath id="clip0">
<rect width="1440" height="6606" fill="white"/>
</clipPath>
</defs>
</svg>
