<svg width="2207" height="16405" viewBox="0 0 2207 16405" fill="none" xmlns="http://www.w3.org/2000/svg">
<rect width="2207" height="16405" fill="white"/>
<rect width="2207" height="13786" fill="#EAF0FF" fill-opacity="0.2"/>
<mask id="mask0" mask-type="alpha" maskUnits="userSpaceOnUse" x="0" y="0" width="2204" height="8203">
<rect width="2204" height="8203" fill="#F4F7FF"/>
</mask>
<g mask="url(#mask0)">
<line x1="876.476" y1="2.0983e-08" x2="876.475" y2="2750" stroke="#EAF0FF"/>
<line x1="426.51" y1="2.0983e-08" x2="426.51" y2="2750" stroke="#EAF0FF"/>
<line x1="1326.44" y1="2.0983e-08" x2="1326.44" y2="2750" stroke="#EAF0FF"/>
<line x1="201.526" y1="2.0983e-08" x2="201.526" y2="2750" stroke="#EAF0FF"/>
<line x1="1101.46" y1="2.0983e-08" x2="1101.46" y2="2750" stroke="#EAF0FF"/>
<line x1="651.492" y1="2.0983e-08" x2="651.492" y2="2750" stroke="#EAF0FF"/>
<line x1="1551.42" y1="2.0983e-08" x2="1551.42" y2="2750" stroke="#EAF0FF"/>
<line x1="51.5371" y1="2.0983e-08" x2="51.537" y2="2750" stroke="#EAF0FF"/>
<line x1="951.47" y1="2.0983e-08" x2="951.47" y2="2750" stroke="#EAF0FF"/>
<line x1="501.504" y1="2.0983e-08" x2="501.504" y2="2750" stroke="#EAF0FF"/>
<line x1="1401.44" y1="2.0983e-08" x2="1401.44" y2="2750" stroke="#EAF0FF"/>
<line x1="276.521" y1="2.0983e-08" x2="276.52" y2="2750" stroke="#EAF0FF"/>
<line x1="1176.45" y1="2.0983e-08" x2="1176.45" y2="2750" stroke="#EAF0FF"/>
<line x1="726.487" y1="2.0983e-08" x2="726.487" y2="2750" stroke="#EAF0FF"/>
<line x1="1626.42" y1="2.0983e-08" x2="1626.42" y2="2750" stroke="#EAF0FF"/>
<line x1="126.532" y1="2.0983e-08" x2="126.532" y2="2750" stroke="#EAF0FF"/>
<line x1="1026.46" y1="2.0983e-08" x2="1026.46" y2="2750" stroke="#EAF0FF"/>
<line x1="576.498" y1="2.0983e-08" x2="576.498" y2="2750" stroke="#EAF0FF"/>
<line x1="1476.43" y1="2.0983e-08" x2="1476.43" y2="2750" stroke="#EAF0FF"/>
<line x1="351.515" y1="2.0983e-08" x2="351.515" y2="2750" stroke="#EAF0FF"/>
<line x1="1251.45" y1="2.0983e-08" x2="1251.45" y2="2750" stroke="#EAF0FF"/>
<line x1="801.48" y1="2.0983e-08" x2="801.48" y2="2750" stroke="#EAF0FF"/>
<line x1="1701.41" y1="2.0983e-08" x2="1701.41" y2="2750" stroke="#EAF0FF"/>
<line x1="876.476" y1="2751" x2="876.475" y2="5501" stroke="#EAF0FF"/>
<line x1="426.51" y1="2751" x2="426.51" y2="5501" stroke="#EAF0FF"/>
<line x1="1326.44" y1="2751" x2="1326.44" y2="5501" stroke="#EAF0FF"/>
<line x1="201.526" y1="2751" x2="201.526" y2="5501" stroke="#EAF0FF"/>
<line x1="1101.46" y1="2751" x2="1101.46" y2="5501" stroke="#EAF0FF"/>
<line x1="651.492" y1="2751" x2="651.492" y2="5501" stroke="#EAF0FF"/>
<line x1="1551.42" y1="2751" x2="1551.42" y2="5501" stroke="#EAF0FF"/>
<line x1="51.5371" y1="2751" x2="51.537" y2="5501" stroke="#EAF0FF"/>
<line x1="951.47" y1="2751" x2="951.47" y2="5501" stroke="#EAF0FF"/>
<line x1="501.504" y1="2751" x2="501.504" y2="5501" stroke="#EAF0FF"/>
<line x1="1401.44" y1="2751" x2="1401.44" y2="5501" stroke="#EAF0FF"/>
<line x1="276.521" y1="2751" x2="276.52" y2="5501" stroke="#EAF0FF"/>
<line x1="1176.45" y1="2751" x2="1176.45" y2="5501" stroke="#EAF0FF"/>
<line x1="726.487" y1="2751" x2="726.487" y2="5501" stroke="#EAF0FF"/>
<line x1="1626.42" y1="2751" x2="1626.42" y2="5501" stroke="#EAF0FF"/>
<line x1="126.532" y1="2751" x2="126.532" y2="5501" stroke="#EAF0FF"/>
<line x1="1026.46" y1="2751" x2="1026.46" y2="5501" stroke="#EAF0FF"/>
<line x1="576.498" y1="2751" x2="576.498" y2="5501" stroke="#EAF0FF"/>
<line x1="1476.43" y1="2751" x2="1476.43" y2="5501" stroke="#EAF0FF"/>
<line x1="351.515" y1="2751" x2="351.515" y2="5501" stroke="#EAF0FF"/>
<line x1="1251.45" y1="2751" x2="1251.45" y2="5501" stroke="#EAF0FF"/>
<line x1="801.48" y1="2751" x2="801.48" y2="5501" stroke="#EAF0FF"/>
<line x1="1701.41" y1="2751" x2="1701.41" y2="5501" stroke="#EAF0FF"/>
<line x1="876.476" y1="5501" x2="876.475" y2="8251" stroke="#EAF0FF"/>
<line x1="426.51" y1="5501" x2="426.51" y2="8251" stroke="#EAF0FF"/>
<line x1="1326.44" y1="5501" x2="1326.44" y2="8251" stroke="#EAF0FF"/>
<line x1="201.526" y1="5501" x2="201.526" y2="8251" stroke="#EAF0FF"/>
<line x1="1101.46" y1="5501" x2="1101.46" y2="8251" stroke="#EAF0FF"/>
<line x1="651.492" y1="5501" x2="651.492" y2="8251" stroke="#EAF0FF"/>
<line x1="1551.42" y1="5501" x2="1551.42" y2="8251" stroke="#EAF0FF"/>
<line x1="51.5371" y1="5501" x2="51.537" y2="8251" stroke="#EAF0FF"/>
<line x1="951.47" y1="5501" x2="951.47" y2="8251" stroke="#EAF0FF"/>
<line x1="501.504" y1="5501" x2="501.504" y2="8251" stroke="#EAF0FF"/>
<line x1="1401.44" y1="5501" x2="1401.44" y2="8251" stroke="#EAF0FF"/>
<line x1="276.521" y1="5501" x2="276.52" y2="8251" stroke="#EAF0FF"/>
<line x1="1176.45" y1="5501" x2="1176.45" y2="8251" stroke="#EAF0FF"/>
<line x1="726.487" y1="5501" x2="726.487" y2="8251" stroke="#EAF0FF"/>
<line x1="1626.42" y1="5501" x2="1626.42" y2="8251" stroke="#EAF0FF"/>
<line x1="126.532" y1="5501" x2="126.532" y2="8251" stroke="#EAF0FF"/>
<line x1="1026.46" y1="5501" x2="1026.46" y2="8251" stroke="#EAF0FF"/>
<line x1="576.498" y1="5501" x2="576.498" y2="8251" stroke="#EAF0FF"/>
<line x1="1476.43" y1="5501" x2="1476.43" y2="8251" stroke="#EAF0FF"/>
<line x1="351.515" y1="5501" x2="351.515" y2="8251" stroke="#EAF0FF"/>
<line x1="1251.45" y1="5501" x2="1251.45" y2="8251" stroke="#EAF0FF"/>
<line x1="801.48" y1="5501" x2="801.48" y2="8251" stroke="#EAF0FF"/>
<line x1="1701.41" y1="5501" x2="1701.41" y2="8251" stroke="#EAF0FF"/>
<line x1="-593.705" y1="1655.5" x2="2335.24" y2="1655.5" stroke="#EAF0FF"/>
<line x1="-593.705" y1="791.5" x2="2335.24" y2="791.5" stroke="#EAF0FF"/>
<line x1="-593.705" y1="1223.5" x2="2335.24" y2="1223.5" stroke="#EAF0FF"/>
<line x1="-593.705" y1="359.5" x2="2335.24" y2="359.5" stroke="#EAF0FF"/>
<line x1="-593.705" y1="1439.5" x2="2335.24" y2="1439.5" stroke="#EAF0FF"/>
<line x1="-593.705" y1="575.5" x2="2335.24" y2="575.5" stroke="#EAF0FF"/>
<line x1="-593.705" y1="1007.5" x2="2335.24" y2="1007.5" stroke="#EAF0FF"/>
<line x1="-593.705" y1="143.5" x2="2335.24" y2="143.5" stroke="#EAF0FF"/>
<line x1="-593.705" y1="1583.5" x2="2335.24" y2="1583.5" stroke="#EAF0FF"/>
<line x1="-593.705" y1="719.5" x2="2335.24" y2="719.5" stroke="#EAF0FF"/>
<line x1="-593.705" y1="1151.5" x2="2335.24" y2="1151.5" stroke="#EAF0FF"/>
<line x1="-593.705" y1="287.5" x2="2335.24" y2="287.5" stroke="#EAF0FF"/>
<line x1="-593.705" y1="1367.5" x2="2335.24" y2="1367.5" stroke="#EAF0FF"/>
<line x1="-593.705" y1="503.5" x2="2335.24" y2="503.5" stroke="#EAF0FF"/>
<line x1="-593.705" y1="935.5" x2="2335.24" y2="935.5" stroke="#EAF0FF"/>
<line x1="-593.705" y1="71.5" x2="2335.24" y2="71.5001" stroke="#EAF0FF"/>
<line x1="-593.705" y1="1511.5" x2="2335.24" y2="1511.5" stroke="#EAF0FF"/>
<line x1="-593.705" y1="647.5" x2="2335.24" y2="647.5" stroke="#EAF0FF"/>
<line x1="-593.705" y1="1079.5" x2="2335.24" y2="1079.5" stroke="#EAF0FF"/>
<line x1="-593.705" y1="215.5" x2="2335.24" y2="215.5" stroke="#EAF0FF"/>
<line x1="-593.705" y1="1295.5" x2="2335.24" y2="1295.5" stroke="#EAF0FF"/>
<line x1="-593.705" y1="431.5" x2="2335.24" y2="431.5" stroke="#EAF0FF"/>
<line x1="-593.705" y1="863.5" x2="2335.24" y2="863.5" stroke="#EAF0FF"/>
<line x1="-593.705" y1="3378.5" x2="2335.24" y2="3378.5" stroke="#EAF0FF"/>
<line x1="-593.705" y1="2514.5" x2="2335.24" y2="2514.5" stroke="#EAF0FF"/>
<line x1="-593.705" y1="2946.5" x2="2335.24" y2="2946.5" stroke="#EAF0FF"/>
<line x1="-593.705" y1="2082.5" x2="2335.24" y2="2082.5" stroke="#EAF0FF"/>
<line x1="-593.705" y1="3162.5" x2="2335.24" y2="3162.5" stroke="#EAF0FF"/>
<line x1="-593.705" y1="2298.5" x2="2335.24" y2="2298.5" stroke="#EAF0FF"/>
<line x1="-593.705" y1="2730.5" x2="2335.24" y2="2730.5" stroke="#EAF0FF"/>
<line x1="-593.705" y1="1866.5" x2="2335.24" y2="1866.5" stroke="#EAF0FF"/>
<line x1="-593.705" y1="3306.5" x2="2335.24" y2="3306.5" stroke="#EAF0FF"/>
<line x1="-593.705" y1="2442.5" x2="2335.24" y2="2442.5" stroke="#EAF0FF"/>
<line x1="-593.705" y1="2874.5" x2="2335.24" y2="2874.5" stroke="#EAF0FF"/>
<line x1="-593.705" y1="2010.5" x2="2335.24" y2="2010.5" stroke="#EAF0FF"/>
<line x1="-593.705" y1="3090.5" x2="2335.24" y2="3090.5" stroke="#EAF0FF"/>
<line x1="-593.705" y1="2226.5" x2="2335.24" y2="2226.5" stroke="#EAF0FF"/>
<line x1="-593.705" y1="2658.5" x2="2335.24" y2="2658.5" stroke="#EAF0FF"/>
<line x1="-593.705" y1="1794.5" x2="2335.24" y2="1794.5" stroke="#EAF0FF"/>
<line x1="-593.705" y1="3234.5" x2="2335.24" y2="3234.5" stroke="#EAF0FF"/>
<line x1="-593.705" y1="2370.5" x2="2335.24" y2="2370.5" stroke="#EAF0FF"/>
<line x1="-593.705" y1="2802.5" x2="2335.24" y2="2802.5" stroke="#EAF0FF"/>
<line x1="-593.705" y1="1938.5" x2="2335.24" y2="1938.5" stroke="#EAF0FF"/>
<line x1="-593.705" y1="3018.5" x2="2335.24" y2="3018.5" stroke="#EAF0FF"/>
<line x1="-593.705" y1="2154.5" x2="2335.24" y2="2154.5" stroke="#EAF0FF"/>
<line x1="-593.705" y1="2586.5" x2="2335.24" y2="2586.5" stroke="#EAF0FF"/>
<line x1="-593.705" y1="1722.5" x2="2335.24" y2="1722.5" stroke="#EAF0FF"/>
<line x1="-593.705" y1="5034.5" x2="2335.24" y2="5034.5" stroke="#EAF0FF"/>
<line x1="-593.705" y1="4170.5" x2="2335.24" y2="4170.5" stroke="#EAF0FF"/>
<line x1="-593.705" y1="4602.5" x2="2335.24" y2="4602.5" stroke="#EAF0FF"/>
<line x1="-593.705" y1="3738.5" x2="2335.24" y2="3738.5" stroke="#EAF0FF"/>
<line x1="-593.705" y1="4818.5" x2="2335.24" y2="4818.5" stroke="#EAF0FF"/>
<line x1="-593.705" y1="3954.5" x2="2335.24" y2="3954.5" stroke="#EAF0FF"/>
<line x1="-593.705" y1="4386.5" x2="2335.24" y2="4386.5" stroke="#EAF0FF"/>
<line x1="-593.705" y1="3522.5" x2="2335.24" y2="3522.5" stroke="#EAF0FF"/>
<line x1="-593.705" y1="4962.5" x2="2335.24" y2="4962.5" stroke="#EAF0FF"/>
<line x1="-593.705" y1="4098.5" x2="2335.24" y2="4098.5" stroke="#EAF0FF"/>
<line x1="-593.705" y1="4530.5" x2="2335.24" y2="4530.5" stroke="#EAF0FF"/>
<line x1="-593.705" y1="3666.5" x2="2335.24" y2="3666.5" stroke="#EAF0FF"/>
<line x1="-593.705" y1="4746.5" x2="2335.24" y2="4746.5" stroke="#EAF0FF"/>
<line x1="-593.705" y1="3882.5" x2="2335.24" y2="3882.5" stroke="#EAF0FF"/>
<line x1="-593.705" y1="4314.5" x2="2335.24" y2="4314.5" stroke="#EAF0FF"/>
<line x1="-593.705" y1="3450.5" x2="2335.24" y2="3450.5" stroke="#EAF0FF"/>
<line x1="-593.705" y1="4890.5" x2="2335.24" y2="4890.5" stroke="#EAF0FF"/>
<line x1="-593.705" y1="4026.5" x2="2335.24" y2="4026.5" stroke="#EAF0FF"/>
<line x1="-593.705" y1="4458.5" x2="2335.24" y2="4458.5" stroke="#EAF0FF"/>
<line x1="-593.705" y1="3594.5" x2="2335.24" y2="3594.5" stroke="#EAF0FF"/>
<line x1="-593.705" y1="4674.5" x2="2335.24" y2="4674.5" stroke="#EAF0FF"/>
<line x1="-593.705" y1="3810.5" x2="2335.24" y2="3810.5" stroke="#EAF0FF"/>
<line x1="-593.705" y1="4242.5" x2="2335.24" y2="4242.5" stroke="#EAF0FF"/>
<line x1="-593.705" y1="3378.5" x2="2335.24" y2="3378.5" stroke="#EAF0FF"/>
<line x1="-593.705" y1="6690.5" x2="2335.24" y2="6690.5" stroke="#EAF0FF"/>
<line x1="-593.705" y1="5826.5" x2="2335.24" y2="5826.5" stroke="#EAF0FF"/>
<line x1="-593.705" y1="6258.5" x2="2335.24" y2="6258.5" stroke="#EAF0FF"/>
<line x1="-593.705" y1="5394.5" x2="2335.24" y2="5394.5" stroke="#EAF0FF"/>
<line x1="-593.705" y1="6474.5" x2="2335.24" y2="6474.5" stroke="#EAF0FF"/>
<line x1="-593.705" y1="5610.5" x2="2335.24" y2="5610.5" stroke="#EAF0FF"/>
<line x1="-593.705" y1="6042.5" x2="2335.24" y2="6042.5" stroke="#EAF0FF"/>
<line x1="-593.705" y1="5178.5" x2="2335.24" y2="5178.5" stroke="#EAF0FF"/>
<line x1="-593.705" y1="6618.5" x2="2335.24" y2="6618.5" stroke="#EAF0FF"/>
<line x1="-593.705" y1="5754.5" x2="2335.24" y2="5754.5" stroke="#EAF0FF"/>
<line x1="-593.705" y1="6186.5" x2="2335.24" y2="6186.5" stroke="#EAF0FF"/>
<line x1="-593.705" y1="5322.5" x2="2335.24" y2="5322.5" stroke="#EAF0FF"/>
<line x1="-593.705" y1="6402.5" x2="2335.24" y2="6402.5" stroke="#EAF0FF"/>
<line x1="-593.705" y1="5538.5" x2="2335.24" y2="5538.5" stroke="#EAF0FF"/>
<line x1="-593.705" y1="5970.5" x2="2335.24" y2="5970.5" stroke="#EAF0FF"/>
<line x1="-593.705" y1="5106.5" x2="2335.24" y2="5106.5" stroke="#EAF0FF"/>
<line x1="-593.705" y1="6546.5" x2="2335.24" y2="6546.5" stroke="#EAF0FF"/>
<line x1="-593.705" y1="5682.5" x2="2335.24" y2="5682.5" stroke="#EAF0FF"/>
<line x1="-593.705" y1="6114.5" x2="2335.24" y2="6114.5" stroke="#EAF0FF"/>
<line x1="-593.705" y1="5250.5" x2="2335.24" y2="5250.5" stroke="#EAF0FF"/>
<line x1="-593.705" y1="6330.5" x2="2335.24" y2="6330.5" stroke="#EAF0FF"/>
<line x1="-593.705" y1="5466.5" x2="2335.24" y2="5466.5" stroke="#EAF0FF"/>
<line x1="-593.705" y1="5898.5" x2="2335.24" y2="5898.5" stroke="#EAF0FF"/>
<line x1="-593.705" y1="5034.5" x2="2335.24" y2="5034.5" stroke="#EAF0FF"/>
<line x1="-593.705" y1="7482.5" x2="2335.24" y2="7482.5" stroke="#EAF0FF"/>
<line x1="-593.705" y1="7914.5" x2="2335.24" y2="7914.5" stroke="#EAF0FF"/>
<line x1="-593.705" y1="7050.5" x2="2335.24" y2="7050.5" stroke="#EAF0FF"/>
<line x1="-593.705" y1="8130.5" x2="2335.24" y2="8130.5" stroke="#EAF0FF"/>
<line x1="-593.705" y1="7266.5" x2="2335.24" y2="7266.5" stroke="#EAF0FF"/>
<line x1="-593.705" y1="7698.5" x2="2335.24" y2="7698.5" stroke="#EAF0FF"/>
<line x1="-593.705" y1="6834.5" x2="2335.24" y2="6834.5" stroke="#EAF0FF"/>
<line x1="-593.705" y1="7410.5" x2="2335.24" y2="7410.5" stroke="#EAF0FF"/>
<line x1="-593.705" y1="7842.5" x2="2335.24" y2="7842.5" stroke="#EAF0FF"/>
<line x1="-593.705" y1="6978.5" x2="2335.24" y2="6978.5" stroke="#EAF0FF"/>
<line x1="-593.705" y1="8058.5" x2="2335.24" y2="8058.5" stroke="#EAF0FF"/>
<line x1="-593.705" y1="7194.5" x2="2335.24" y2="7194.5" stroke="#EAF0FF"/>
<line x1="-593.705" y1="7626.5" x2="2335.24" y2="7626.5" stroke="#EAF0FF"/>
<line x1="-593.705" y1="6762.5" x2="2335.24" y2="6762.5" stroke="#EAF0FF"/>
<line x1="-593.705" y1="8202.5" x2="2335.24" y2="8202.5" stroke="#EAF0FF"/>
<line x1="-593.705" y1="7338.5" x2="2335.24" y2="7338.5" stroke="#EAF0FF"/>
<line x1="-593.705" y1="7770.5" x2="2335.24" y2="7770.5" stroke="#EAF0FF"/>
<line x1="-593.705" y1="6906.5" x2="2335.24" y2="6906.5" stroke="#EAF0FF"/>
<line x1="-593.705" y1="7986.5" x2="2335.24" y2="7986.5" stroke="#EAF0FF"/>
<line x1="-593.705" y1="7122.5" x2="2335.24" y2="7122.5" stroke="#EAF0FF"/>
<line x1="-593.705" y1="7554.5" x2="2335.24" y2="7554.5" stroke="#EAF0FF"/>
<line x1="-593.705" y1="6690.5" x2="2335.24" y2="6690.5" stroke="#EAF0FF"/>
<line x1="1779.53" y1="2.18557e-08" x2="1779.53" y2="2750" stroke="#EAF0FF"/>
<line x1="2004.51" y1="2.0983e-08" x2="2004.51" y2="2750" stroke="#EAF0FF"/>
<line x1="1854.53" y1="2.0983e-08" x2="1854.53" y2="2750" stroke="#EAF0FF"/>
<line x1="2079.51" y1="2.0983e-08" x2="2079.51" y2="2750" stroke="#EAF0FF"/>
<line x1="1929.52" y1="2.0983e-08" x2="1929.52" y2="2750" stroke="#EAF0FF"/>
<line x1="2154.5" y1="2.0983e-08" x2="2154.5" y2="2750" stroke="#EAF0FF"/>
<line x1="1779.53" y1="2751" x2="1779.53" y2="5501" stroke="#EAF0FF"/>
<line x1="2004.51" y1="2751" x2="2004.51" y2="5501" stroke="#EAF0FF"/>
<line x1="1854.53" y1="2751" x2="1854.53" y2="5501" stroke="#EAF0FF"/>
<line x1="2079.51" y1="2751" x2="2079.51" y2="5501" stroke="#EAF0FF"/>
<line x1="1929.52" y1="2751" x2="1929.52" y2="5501" stroke="#EAF0FF"/>
<line x1="2154.5" y1="2751" x2="2154.5" y2="5501" stroke="#EAF0FF"/>
<line x1="1779.53" y1="5501" x2="1779.53" y2="8251" stroke="#EAF0FF"/>
<line x1="2004.51" y1="5501" x2="2004.51" y2="8251" stroke="#EAF0FF"/>
<line x1="1854.53" y1="5501" x2="1854.53" y2="8251" stroke="#EAF0FF"/>
<line x1="2079.51" y1="5501" x2="2079.51" y2="8251" stroke="#EAF0FF"/>
<line x1="1929.52" y1="5501" x2="1929.52" y2="8251" stroke="#EAF0FF"/>
<line x1="2154.5" y1="5501" x2="2154.5" y2="8251" stroke="#EAF0FF"/>
</g>
<mask id="mask1" mask-type="alpha" maskUnits="userSpaceOnUse" x="0" y="8202" width="2204" height="8203">
<rect y="8202" width="2204" height="8203" fill="#F4F7FF"/>
</mask>
<g mask="url(#mask1)">
<line x1="876.476" y1="8202" x2="876.475" y2="10952" stroke="#EAF0FF"/>
<line x1="426.51" y1="8202" x2="426.51" y2="10952" stroke="#EAF0FF"/>
<line x1="1326.44" y1="8202" x2="1326.44" y2="10952" stroke="#EAF0FF"/>
<line x1="201.526" y1="8202" x2="201.526" y2="10952" stroke="#EAF0FF"/>
<line x1="1101.46" y1="8202" x2="1101.46" y2="10952" stroke="#EAF0FF"/>
<line x1="651.492" y1="8202" x2="651.492" y2="10952" stroke="#EAF0FF"/>
<line x1="1551.42" y1="8202" x2="1551.42" y2="10952" stroke="#EAF0FF"/>
<line x1="51.5371" y1="8202" x2="51.537" y2="10952" stroke="#EAF0FF"/>
<line x1="951.47" y1="8202" x2="951.47" y2="10952" stroke="#EAF0FF"/>
<line x1="501.504" y1="8202" x2="501.504" y2="10952" stroke="#EAF0FF"/>
<line x1="1401.44" y1="8202" x2="1401.44" y2="10952" stroke="#EAF0FF"/>
<line x1="276.521" y1="8202" x2="276.52" y2="10952" stroke="#EAF0FF"/>
<line x1="1176.45" y1="8202" x2="1176.45" y2="10952" stroke="#EAF0FF"/>
<line x1="726.487" y1="8202" x2="726.487" y2="10952" stroke="#EAF0FF"/>
<line x1="1626.42" y1="8202" x2="1626.42" y2="10952" stroke="#EAF0FF"/>
<line x1="126.532" y1="8202" x2="126.532" y2="10952" stroke="#EAF0FF"/>
<line x1="1026.46" y1="8202" x2="1026.46" y2="10952" stroke="#EAF0FF"/>
<line x1="576.498" y1="8202" x2="576.498" y2="10952" stroke="#EAF0FF"/>
<line x1="1476.43" y1="8202" x2="1476.43" y2="10952" stroke="#EAF0FF"/>
<line x1="351.515" y1="8202" x2="351.515" y2="10952" stroke="#EAF0FF"/>
<line x1="1251.45" y1="8202" x2="1251.45" y2="10952" stroke="#EAF0FF"/>
<line x1="801.48" y1="8202" x2="801.48" y2="10952" stroke="#EAF0FF"/>
<line x1="1701.41" y1="8202" x2="1701.41" y2="10952" stroke="#EAF0FF"/>
<line x1="876.476" y1="10953" x2="876.475" y2="13703" stroke="#EAF0FF"/>
<line x1="426.51" y1="10953" x2="426.51" y2="13703" stroke="#EAF0FF"/>
<line x1="1326.44" y1="10953" x2="1326.44" y2="13703" stroke="#EAF0FF"/>
<line x1="201.526" y1="10953" x2="201.526" y2="13703" stroke="#EAF0FF"/>
<line x1="1101.46" y1="10953" x2="1101.46" y2="13703" stroke="#EAF0FF"/>
<line x1="651.492" y1="10953" x2="651.492" y2="13703" stroke="#EAF0FF"/>
<line x1="1551.42" y1="10953" x2="1551.42" y2="13703" stroke="#EAF0FF"/>
<line x1="51.5371" y1="10953" x2="51.537" y2="13703" stroke="#EAF0FF"/>
<line x1="951.47" y1="10953" x2="951.47" y2="13703" stroke="#EAF0FF"/>
<line x1="501.504" y1="10953" x2="501.504" y2="13703" stroke="#EAF0FF"/>
<line x1="1401.44" y1="10953" x2="1401.44" y2="13703" stroke="#EAF0FF"/>
<line x1="276.521" y1="10953" x2="276.52" y2="13703" stroke="#EAF0FF"/>
<line x1="1176.45" y1="10953" x2="1176.45" y2="13703" stroke="#EAF0FF"/>
<line x1="726.487" y1="10953" x2="726.487" y2="13703" stroke="#EAF0FF"/>
<line x1="1626.42" y1="10953" x2="1626.42" y2="13703" stroke="#EAF0FF"/>
<line x1="126.532" y1="10953" x2="126.532" y2="13703" stroke="#EAF0FF"/>
<line x1="1026.46" y1="10953" x2="1026.46" y2="13703" stroke="#EAF0FF"/>
<line x1="576.498" y1="10953" x2="576.498" y2="13703" stroke="#EAF0FF"/>
<line x1="1476.43" y1="10953" x2="1476.43" y2="13703" stroke="#EAF0FF"/>
<line x1="351.515" y1="10953" x2="351.515" y2="13703" stroke="#EAF0FF"/>
<line x1="1251.45" y1="10953" x2="1251.45" y2="13703" stroke="#EAF0FF"/>
<line x1="801.48" y1="10953" x2="801.48" y2="13703" stroke="#EAF0FF"/>
<line x1="1701.41" y1="10953" x2="1701.41" y2="13703" stroke="#EAF0FF"/>
<line x1="876.476" y1="13703" x2="876.475" y2="16453" stroke="#EAF0FF"/>
<line x1="426.51" y1="13703" x2="426.51" y2="16453" stroke="#EAF0FF"/>
<line x1="1326.44" y1="13703" x2="1326.44" y2="16453" stroke="#EAF0FF"/>
<line x1="201.526" y1="13703" x2="201.526" y2="16453" stroke="#EAF0FF"/>
<line x1="1101.46" y1="13703" x2="1101.46" y2="16453" stroke="#EAF0FF"/>
<line x1="651.492" y1="13703" x2="651.492" y2="16453" stroke="#EAF0FF"/>
<line x1="1551.42" y1="13703" x2="1551.42" y2="16453" stroke="#EAF0FF"/>
<line x1="51.5371" y1="13703" x2="51.537" y2="16453" stroke="#EAF0FF"/>
<line x1="951.47" y1="13703" x2="951.47" y2="16453" stroke="#EAF0FF"/>
<line x1="501.504" y1="13703" x2="501.504" y2="16453" stroke="#EAF0FF"/>
<line x1="1401.44" y1="13703" x2="1401.44" y2="16453" stroke="#EAF0FF"/>
<line x1="276.521" y1="13703" x2="276.52" y2="16453" stroke="#EAF0FF"/>
<line x1="1176.45" y1="13703" x2="1176.45" y2="16453" stroke="#EAF0FF"/>
<line x1="726.487" y1="13703" x2="726.487" y2="16453" stroke="#EAF0FF"/>
<line x1="1626.42" y1="13703" x2="1626.42" y2="16453" stroke="#EAF0FF"/>
<line x1="126.532" y1="13703" x2="126.532" y2="16453" stroke="#EAF0FF"/>
<line x1="1026.46" y1="13703" x2="1026.46" y2="16453" stroke="#EAF0FF"/>
<line x1="576.498" y1="13703" x2="576.498" y2="16453" stroke="#EAF0FF"/>
<line x1="1476.43" y1="13703" x2="1476.43" y2="16453" stroke="#EAF0FF"/>
<line x1="351.515" y1="13703" x2="351.515" y2="16453" stroke="#EAF0FF"/>
<line x1="1251.45" y1="13703" x2="1251.45" y2="16453" stroke="#EAF0FF"/>
<line x1="801.48" y1="13703" x2="801.48" y2="16453" stroke="#EAF0FF"/>
<line x1="1701.41" y1="13703" x2="1701.41" y2="16453" stroke="#EAF0FF"/>
<line x1="-593.705" y1="9857.5" x2="2335.24" y2="9857.5" stroke="#EAF0FF"/>
<line x1="-593.705" y1="8993.5" x2="2335.24" y2="8993.5" stroke="#EAF0FF"/>
<line x1="-593.705" y1="9425.5" x2="2335.24" y2="9425.5" stroke="#EAF0FF"/>
<line x1="-593.705" y1="8561.5" x2="2335.24" y2="8561.5" stroke="#EAF0FF"/>
<line x1="-593.705" y1="9641.5" x2="2335.24" y2="9641.5" stroke="#EAF0FF"/>
<line x1="-593.705" y1="8777.5" x2="2335.24" y2="8777.5" stroke="#EAF0FF"/>
<line x1="-593.705" y1="9209.5" x2="2335.24" y2="9209.5" stroke="#EAF0FF"/>
<line x1="-593.705" y1="8345.5" x2="2335.24" y2="8345.5" stroke="#EAF0FF"/>
<line x1="-593.705" y1="9785.5" x2="2335.24" y2="9785.5" stroke="#EAF0FF"/>
<line x1="-593.705" y1="8921.5" x2="2335.24" y2="8921.5" stroke="#EAF0FF"/>
<line x1="-593.705" y1="9353.5" x2="2335.24" y2="9353.5" stroke="#EAF0FF"/>
<line x1="-593.705" y1="8489.5" x2="2335.24" y2="8489.5" stroke="#EAF0FF"/>
<line x1="-593.705" y1="9569.5" x2="2335.24" y2="9569.5" stroke="#EAF0FF"/>
<line x1="-593.705" y1="8705.5" x2="2335.24" y2="8705.5" stroke="#EAF0FF"/>
<line x1="-593.705" y1="9137.5" x2="2335.24" y2="9137.5" stroke="#EAF0FF"/>
<line x1="-593.705" y1="8273.5" x2="2335.24" y2="8273.5" stroke="#EAF0FF"/>
<line x1="-593.705" y1="9713.5" x2="2335.24" y2="9713.5" stroke="#EAF0FF"/>
<line x1="-593.705" y1="8849.5" x2="2335.24" y2="8849.5" stroke="#EAF0FF"/>
<line x1="-593.705" y1="9281.5" x2="2335.24" y2="9281.5" stroke="#EAF0FF"/>
<line x1="-593.705" y1="8417.5" x2="2335.24" y2="8417.5" stroke="#EAF0FF"/>
<line x1="-593.705" y1="9497.5" x2="2335.24" y2="9497.5" stroke="#EAF0FF"/>
<line x1="-593.705" y1="8633.5" x2="2335.24" y2="8633.5" stroke="#EAF0FF"/>
<line x1="-593.705" y1="9065.5" x2="2335.24" y2="9065.5" stroke="#EAF0FF"/>
<line x1="-593.705" y1="11580.5" x2="2335.24" y2="11580.5" stroke="#EAF0FF"/>
<line x1="-593.705" y1="10716.5" x2="2335.24" y2="10716.5" stroke="#EAF0FF"/>
<line x1="-593.705" y1="11148.5" x2="2335.24" y2="11148.5" stroke="#EAF0FF"/>
<line x1="-593.705" y1="10284.5" x2="2335.24" y2="10284.5" stroke="#EAF0FF"/>
<line x1="-593.705" y1="11364.5" x2="2335.24" y2="11364.5" stroke="#EAF0FF"/>
<line x1="-593.705" y1="10500.5" x2="2335.24" y2="10500.5" stroke="#EAF0FF"/>
<line x1="-593.705" y1="10932.5" x2="2335.24" y2="10932.5" stroke="#EAF0FF"/>
<line x1="-593.705" y1="10068.5" x2="2335.24" y2="10068.5" stroke="#EAF0FF"/>
<line x1="-593.705" y1="11508.5" x2="2335.24" y2="11508.5" stroke="#EAF0FF"/>
<line x1="-593.705" y1="10644.5" x2="2335.24" y2="10644.5" stroke="#EAF0FF"/>
<line x1="-593.705" y1="11076.5" x2="2335.24" y2="11076.5" stroke="#EAF0FF"/>
<line x1="-593.705" y1="10212.5" x2="2335.24" y2="10212.5" stroke="#EAF0FF"/>
<line x1="-593.705" y1="11292.5" x2="2335.24" y2="11292.5" stroke="#EAF0FF"/>
<line x1="-593.705" y1="10428.5" x2="2335.24" y2="10428.5" stroke="#EAF0FF"/>
<line x1="-593.705" y1="10860.5" x2="2335.24" y2="10860.5" stroke="#EAF0FF"/>
<line x1="-593.705" y1="9996.5" x2="2335.24" y2="9996.5" stroke="#EAF0FF"/>
<line x1="-593.705" y1="11436.5" x2="2335.24" y2="11436.5" stroke="#EAF0FF"/>
<line x1="-593.705" y1="10572.5" x2="2335.24" y2="10572.5" stroke="#EAF0FF"/>
<line x1="-593.705" y1="11004.5" x2="2335.24" y2="11004.5" stroke="#EAF0FF"/>
<line x1="-593.705" y1="10140.5" x2="2335.24" y2="10140.5" stroke="#EAF0FF"/>
<line x1="-593.705" y1="11220.5" x2="2335.24" y2="11220.5" stroke="#EAF0FF"/>
<line x1="-593.705" y1="10356.5" x2="2335.24" y2="10356.5" stroke="#EAF0FF"/>
<line x1="-593.705" y1="10788.5" x2="2335.24" y2="10788.5" stroke="#EAF0FF"/>
<line x1="-593.705" y1="9924.5" x2="2335.24" y2="9924.5" stroke="#EAF0FF"/>
<line x1="-593.705" y1="13236.5" x2="2335.24" y2="13236.5" stroke="#EAF0FF"/>
<line x1="-593.705" y1="12372.5" x2="2335.24" y2="12372.5" stroke="#EAF0FF"/>
<line x1="-593.705" y1="12804.5" x2="2335.24" y2="12804.5" stroke="#EAF0FF"/>
<line x1="-593.705" y1="11940.5" x2="2335.24" y2="11940.5" stroke="#EAF0FF"/>
<line x1="-593.705" y1="13020.5" x2="2335.24" y2="13020.5" stroke="#EAF0FF"/>
<line x1="-593.705" y1="12156.5" x2="2335.24" y2="12156.5" stroke="#EAF0FF"/>
<line x1="-593.705" y1="12588.5" x2="2335.24" y2="12588.5" stroke="#EAF0FF"/>
<line x1="-593.705" y1="11724.5" x2="2335.24" y2="11724.5" stroke="#EAF0FF"/>
<line x1="-593.705" y1="13164.5" x2="2335.24" y2="13164.5" stroke="#EAF0FF"/>
<line x1="-593.705" y1="12300.5" x2="2335.24" y2="12300.5" stroke="#EAF0FF"/>
<line x1="-593.705" y1="12732.5" x2="2335.24" y2="12732.5" stroke="#EAF0FF"/>
<line x1="-593.705" y1="11868.5" x2="2335.24" y2="11868.5" stroke="#EAF0FF"/>
<line x1="-593.705" y1="12948.5" x2="2335.24" y2="12948.5" stroke="#EAF0FF"/>
<line x1="-593.705" y1="12084.5" x2="2335.24" y2="12084.5" stroke="#EAF0FF"/>
<line x1="-593.705" y1="12516.5" x2="2335.24" y2="12516.5" stroke="#EAF0FF"/>
<line x1="-593.705" y1="11652.5" x2="2335.24" y2="11652.5" stroke="#EAF0FF"/>
<line x1="-593.705" y1="13092.5" x2="2335.24" y2="13092.5" stroke="#EAF0FF"/>
<line x1="-593.705" y1="12228.5" x2="2335.24" y2="12228.5" stroke="#EAF0FF"/>
<line x1="-593.705" y1="12660.5" x2="2335.24" y2="12660.5" stroke="#EAF0FF"/>
<line x1="-593.705" y1="11796.5" x2="2335.24" y2="11796.5" stroke="#EAF0FF"/>
<line x1="-593.705" y1="12876.5" x2="2335.24" y2="12876.5" stroke="#EAF0FF"/>
<line x1="-593.705" y1="12012.5" x2="2335.24" y2="12012.5" stroke="#EAF0FF"/>
<line x1="-593.705" y1="12444.5" x2="2335.24" y2="12444.5" stroke="#EAF0FF"/>
<line x1="-593.705" y1="11580.5" x2="2335.24" y2="11580.5" stroke="#EAF0FF"/>
<line x1="-593.705" y1="14892.5" x2="2335.24" y2="14892.5" stroke="#EAF0FF"/>
<line x1="-593.705" y1="14028.5" x2="2335.24" y2="14028.5" stroke="#EAF0FF"/>
<line x1="-593.705" y1="14460.5" x2="2335.24" y2="14460.5" stroke="#EAF0FF"/>
<line x1="-593.705" y1="13596.5" x2="2335.24" y2="13596.5" stroke="#EAF0FF"/>
<line x1="-593.705" y1="14676.5" x2="2335.24" y2="14676.5" stroke="#EAF0FF"/>
<line x1="-593.705" y1="13812.5" x2="2335.24" y2="13812.5" stroke="#EAF0FF"/>
<line x1="-593.705" y1="14244.5" x2="2335.24" y2="14244.5" stroke="#EAF0FF"/>
<line x1="-593.705" y1="13380.5" x2="2335.24" y2="13380.5" stroke="#EAF0FF"/>
<line x1="-593.705" y1="14820.5" x2="2335.24" y2="14820.5" stroke="#EAF0FF"/>
<line x1="-593.705" y1="13956.5" x2="2335.24" y2="13956.5" stroke="#EAF0FF"/>
<line x1="-593.705" y1="14388.5" x2="2335.24" y2="14388.5" stroke="#EAF0FF"/>
<line x1="-593.705" y1="13524.5" x2="2335.24" y2="13524.5" stroke="#EAF0FF"/>
<line x1="-593.705" y1="14604.5" x2="2335.24" y2="14604.5" stroke="#EAF0FF"/>
<line x1="-593.705" y1="13740.5" x2="2335.24" y2="13740.5" stroke="#EAF0FF"/>
<line x1="-593.705" y1="14172.5" x2="2335.24" y2="14172.5" stroke="#EAF0FF"/>
<line x1="-593.705" y1="13308.5" x2="2335.24" y2="13308.5" stroke="#EAF0FF"/>
<line x1="-593.705" y1="14748.5" x2="2335.24" y2="14748.5" stroke="#EAF0FF"/>
<line x1="-593.705" y1="13884.5" x2="2335.24" y2="13884.5" stroke="#EAF0FF"/>
<line x1="-593.705" y1="14316.5" x2="2335.24" y2="14316.5" stroke="#EAF0FF"/>
<line x1="-593.705" y1="13452.5" x2="2335.24" y2="13452.5" stroke="#EAF0FF"/>
<line x1="-593.705" y1="14532.5" x2="2335.24" y2="14532.5" stroke="#EAF0FF"/>
<line x1="-593.705" y1="13668.5" x2="2335.24" y2="13668.5" stroke="#EAF0FF"/>
<line x1="-593.705" y1="14100.5" x2="2335.24" y2="14100.5" stroke="#EAF0FF"/>
<line x1="-593.705" y1="13236.5" x2="2335.24" y2="13236.5" stroke="#EAF0FF"/>
<line x1="-593.705" y1="15684.5" x2="2335.24" y2="15684.5" stroke="#EAF0FF"/>
<line x1="-593.705" y1="16116.5" x2="2335.24" y2="16116.5" stroke="#EAF0FF"/>
<line x1="-593.705" y1="15252.5" x2="2335.24" y2="15252.5" stroke="#EAF0FF"/>
<line x1="-593.705" y1="16332.5" x2="2335.24" y2="16332.5" stroke="#EAF0FF"/>
<line x1="-593.705" y1="15468.5" x2="2335.24" y2="15468.5" stroke="#EAF0FF"/>
<line x1="-593.705" y1="15900.5" x2="2335.24" y2="15900.5" stroke="#EAF0FF"/>
<line x1="-593.705" y1="15036.5" x2="2335.24" y2="15036.5" stroke="#EAF0FF"/>
<line x1="-593.705" y1="15612.5" x2="2335.24" y2="15612.5" stroke="#EAF0FF"/>
<line x1="-593.705" y1="16044.5" x2="2335.24" y2="16044.5" stroke="#EAF0FF"/>
<line x1="-593.705" y1="15180.5" x2="2335.24" y2="15180.5" stroke="#EAF0FF"/>
<line x1="-593.705" y1="16260.5" x2="2335.24" y2="16260.5" stroke="#EAF0FF"/>
<line x1="-593.705" y1="15396.5" x2="2335.24" y2="15396.5" stroke="#EAF0FF"/>
<line x1="-593.705" y1="15828.5" x2="2335.24" y2="15828.5" stroke="#EAF0FF"/>
<line x1="-593.705" y1="14964.5" x2="2335.24" y2="14964.5" stroke="#EAF0FF"/>
<line x1="-593.705" y1="16404.5" x2="2335.24" y2="16404.5" stroke="#EAF0FF"/>
<line x1="-593.705" y1="15540.5" x2="2335.24" y2="15540.5" stroke="#EAF0FF"/>
<line x1="-593.705" y1="15972.5" x2="2335.24" y2="15972.5" stroke="#EAF0FF"/>
<line x1="-593.705" y1="15108.5" x2="2335.24" y2="15108.5" stroke="#EAF0FF"/>
<line x1="-593.705" y1="16188.5" x2="2335.24" y2="16188.5" stroke="#EAF0FF"/>
<line x1="-593.705" y1="15324.5" x2="2335.24" y2="15324.5" stroke="#EAF0FF"/>
<line x1="-593.705" y1="15756.5" x2="2335.24" y2="15756.5" stroke="#EAF0FF"/>
<line x1="-593.705" y1="14892.5" x2="2335.24" y2="14892.5" stroke="#EAF0FF"/>
<line x1="1779.53" y1="8202" x2="1779.53" y2="10952" stroke="#EAF0FF"/>
<line x1="2004.51" y1="8202" x2="2004.51" y2="10952" stroke="#EAF0FF"/>
<line x1="1854.53" y1="8202" x2="1854.53" y2="10952" stroke="#EAF0FF"/>
<line x1="2079.51" y1="8202" x2="2079.51" y2="10952" stroke="#EAF0FF"/>
<line x1="1929.52" y1="8202" x2="1929.52" y2="10952" stroke="#EAF0FF"/>
<line x1="2154.5" y1="8202" x2="2154.5" y2="10952" stroke="#EAF0FF"/>
<line x1="1779.53" y1="10953" x2="1779.53" y2="13703" stroke="#EAF0FF"/>
<line x1="2004.51" y1="10953" x2="2004.51" y2="13703" stroke="#EAF0FF"/>
<line x1="1854.53" y1="10953" x2="1854.53" y2="13703" stroke="#EAF0FF"/>
<line x1="2079.51" y1="10953" x2="2079.51" y2="13703" stroke="#EAF0FF"/>
<line x1="1929.52" y1="10953" x2="1929.52" y2="13703" stroke="#EAF0FF"/>
<line x1="2154.5" y1="10953" x2="2154.5" y2="13703" stroke="#EAF0FF"/>
<line x1="1779.53" y1="13703" x2="1779.53" y2="16453" stroke="#EAF0FF"/>
<line x1="2004.51" y1="13703" x2="2004.51" y2="16453" stroke="#EAF0FF"/>
<line x1="1854.53" y1="13703" x2="1854.53" y2="16453" stroke="#EAF0FF"/>
<line x1="2079.51" y1="13703" x2="2079.51" y2="16453" stroke="#EAF0FF"/>
<line x1="1929.52" y1="13703" x2="1929.52" y2="16453" stroke="#EAF0FF"/>
<line x1="2154.5" y1="13703" x2="2154.5" y2="16453" stroke="#EAF0FF"/>
</g>
</svg>
