<svg width="49" height="49" viewBox="0 0 49 49" fill="none" xmlns="http://www.w3.org/2000/svg">
<path d="M24.5 0C10.9699 0 0 10.9699 0 24.5C0 38.0301 10.9699 49 24.5 49C38.0301 49 49 38.0301 49 24.5C49 10.9699 38.0301 0 24.5 0ZM36.75 38.2812C22.3961 38.2812 10.7188 26.6039 10.7188 12.25C10.7188 11.4047 11.4047 10.7188 12.25 10.7188H17.9034C18.7486 10.7188 19.4346 11.4047 19.4346 12.25C19.4346 14.896 20.0104 17.4164 21.1466 19.7378C21.3273 20.1053 21.3517 20.5249 21.217 20.9107C21.0853 21.2966 20.8036 21.6121 20.4361 21.7897L18.1514 22.8922C20.0532 26.2027 22.7973 28.9498 26.1047 30.8455L27.2072 28.5639C27.3849 28.1964 27.7003 27.9177 28.0862 27.783C28.4721 27.6513 28.8947 27.6758 29.2591 27.8534C31.5866 28.9896 34.104 29.5654 36.7469 29.5654C37.5922 29.5654 38.2782 30.2514 38.2782 31.0966V36.75H38.2812C38.2812 37.5952 37.5952 38.2812 36.75 38.2812Z" fill="#98C1D9"/>
</svg>
