<svg width="1440" height="879" viewBox="0 0 1440 879" fill="none" xmlns="http://www.w3.org/2000/svg">
<mask id="mask0" mask-type="alpha" maskUnits="userSpaceOnUse" x="0" y="0" width="1440" height="879">
<mask id="mask1" maskUnits="userSpaceOnUse" x="0" y="0" width="1440" height="879">
<rect width="1440" height="879" fill="#030A49"/>
</mask>
<g mask="url(#mask1)">
<rect x="-772" y="-701" width="1540" height="2198" fill="#030A49"/>
<line x1="113" y1="-701" x2="113" y2="1497" stroke="#3D5A80" stroke-width="2"/>
<line x1="341" y1="-701" x2="341" y2="1497" stroke="#3D5A80" stroke-width="2"/>
<line x1="645" y1="-701" x2="645" y2="1497" stroke="#3D5A80" stroke-width="2"/>
<line x1="189" y1="-701" x2="189" y2="1497" stroke="#3D5A80" stroke-width="2"/>
<line x1="417" y1="-701" x2="417" y2="1497" stroke="#3D5A80" stroke-width="2"/>
<line x1="721" y1="-701" x2="721" y2="1497" stroke="#3D5A80" stroke-width="2"/>
<line x1="37.0002" y1="-701" x2="37.0001" y2="1497" stroke="#3D5A80" stroke-width="2"/>
<line x1="265" y1="-701" x2="265" y2="1497" stroke="#3D5A80" stroke-width="2"/>
<line x1="569" y1="-701" x2="569" y2="1497" stroke="#3D5A80" stroke-width="2"/>
<line x1="493" y1="-701" x2="493" y2="1497" stroke="#3D5A80" stroke-width="2"/>
<line x1="797" y1="-701" x2="797" y2="1497" stroke="#3D5A80" stroke-width="2"/>
<line x1="-1361" y1="210" x2="837" y2="210" stroke="#3D5A80" stroke-width="2"/>
<line x1="-1361" y1="666" x2="837" y2="666" stroke="#3D5A80" stroke-width="2"/>
<line x1="-1361" y1="438" x2="837" y2="438" stroke="#3D5A80" stroke-width="2"/>
<line x1="-1361" y1="818" x2="837" y2="818" stroke="#3D5A80" stroke-width="2"/>
<line x1="-1361" y1="134" x2="837" y2="134" stroke="#3D5A80" stroke-width="2"/>
<line x1="-1361" y1="590" x2="837" y2="590" stroke="#3D5A80" stroke-width="2"/>
<line x1="-1361" y1="362" x2="837" y2="362" stroke="#3D5A80" stroke-width="2"/>
<line x1="-1361" y1="742" x2="837" y2="742" stroke="#3D5A80" stroke-width="2"/>
<line x1="-1361" y1="57.9999" x2="837" y2="58" stroke="#3D5A80" stroke-width="2"/>
<line x1="-1361" y1="514" x2="837" y2="514" stroke="#3D5A80" stroke-width="2"/>
<line x1="-1361" y1="286" x2="837" y2="286" stroke="#3D5A80" stroke-width="2"/>
<rect x="748" y="-701" width="1540" height="2198" fill="#030A49"/>
<line x1="721" y1="-701" x2="721" y2="1497" stroke="#3D5A80" stroke-width="2"/>
<line x1="1405" y1="-701" x2="1405" y2="1497" stroke="#3D5A80" stroke-width="2"/>
<line x1="949" y1="-701" x2="949" y2="1497" stroke="#3D5A80" stroke-width="2"/>
<line x1="1177" y1="-701" x2="1177" y2="1497" stroke="#3D5A80" stroke-width="2"/>
<line x1="797" y1="-701" x2="797" y2="1497" stroke="#3D5A80" stroke-width="2"/>
<line x1="1025" y1="-701" x2="1025" y2="1497" stroke="#3D5A80" stroke-width="2"/>
<line x1="1253" y1="-701" x2="1253" y2="1497" stroke="#3D5A80" stroke-width="2"/>
<line x1="873" y1="-701" x2="873" y2="1497" stroke="#3D5A80" stroke-width="2"/>
<line x1="1101" y1="-701" x2="1101" y2="1497" stroke="#3D5A80" stroke-width="2"/>
<line x1="1329" y1="-701" x2="1329" y2="1497" stroke="#3D5A80" stroke-width="2"/>
<line x1="159" y1="210" x2="2357" y2="210" stroke="#3D5A80" stroke-width="2"/>
<line x1="159" y1="666" x2="2357" y2="666" stroke="#3D5A80" stroke-width="2"/>
<line x1="159" y1="438" x2="2357" y2="438" stroke="#3D5A80" stroke-width="2"/>
<line x1="159" y1="818" x2="2357" y2="818" stroke="#3D5A80" stroke-width="2"/>
<line x1="159" y1="134" x2="2357" y2="134" stroke="#3D5A80" stroke-width="2"/>
<line x1="159" y1="590" x2="2357" y2="590" stroke="#3D5A80" stroke-width="2"/>
<line x1="159" y1="362" x2="2357" y2="362" stroke="#3D5A80" stroke-width="2"/>
<line x1="159" y1="742" x2="2357" y2="742" stroke="#3D5A80" stroke-width="2"/>
<line x1="159" y1="57.9999" x2="2357" y2="58" stroke="#3D5A80" stroke-width="2"/>
<line x1="159" y1="514" x2="2357" y2="514" stroke="#3D5A80" stroke-width="2"/>
<line x1="159" y1="286" x2="2357" y2="286" stroke="#3D5A80" stroke-width="2"/>
</g>
</mask>
<g mask="url(#mask0)">
<rect width="1440" height="879" fill="#C4C4C4"/>
<rect width="1540" height="2198" fill="#FFBBC2"/>
<line x1="657" y1="4.37114e-08" x2="657" y2="2198" stroke="#A04668" stroke-opacity="0.25" stroke-width="2"/>
<line x1="201" y1="4.37114e-08" x2="201" y2="2198" stroke="#A04668" stroke-opacity="0.25" stroke-width="2"/>
<line x1="885" y1="4.37114e-08" x2="885" y2="2198" stroke="#A04668" stroke-opacity="0.25" stroke-width="2"/>
<line x1="429" y1="4.37114e-08" x2="429" y2="2198" stroke="#A04668" stroke-opacity="0.25" stroke-width="2"/>
<line x1="1113" y1="4.37114e-08" x2="1113" y2="2198" stroke="#A04668" stroke-opacity="0.25" stroke-width="2"/>
<line x1="1417" y1="4.37114e-08" x2="1417" y2="2198" stroke="#A04668" stroke-opacity="0.25" stroke-width="2"/>
<line x1="49.0002" y1="4.37114e-08" x2="49.0001" y2="2198" stroke="#A04668" stroke-opacity="0.25" stroke-width="2"/>
<line x1="733" y1="4.37114e-08" x2="733" y2="2198" stroke="#A04668" stroke-opacity="0.25" stroke-width="2"/>
<line x1="277" y1="4.37114e-08" x2="277" y2="2198" stroke="#A04668" stroke-opacity="0.25" stroke-width="2"/>
<line x1="961" y1="4.37114e-08" x2="961" y2="2198" stroke="#A04668" stroke-opacity="0.25" stroke-width="2"/>
<line x1="505" y1="4.37114e-08" x2="505" y2="2198" stroke="#A04668" stroke-opacity="0.25" stroke-width="2"/>
<line x1="1189" y1="4.37114e-08" x2="1189" y2="2198" stroke="#A04668" stroke-opacity="0.25" stroke-width="2"/>
<line x1="125" y1="4.37114e-08" x2="125" y2="2198" stroke="#A04668" stroke-opacity="0.25" stroke-width="2"/>
<line x1="809" y1="4.37114e-08" x2="809" y2="2198" stroke="#A04668" stroke-opacity="0.25" stroke-width="2"/>
<line x1="353" y1="4.37114e-08" x2="353" y2="2198" stroke="#A04668" stroke-opacity="0.25" stroke-width="2"/>
<line x1="1037" y1="4.37114e-08" x2="1037" y2="2198" stroke="#A04668" stroke-opacity="0.25" stroke-width="2"/>
<line x1="1341" y1="4.37114e-08" x2="1341" y2="2198" stroke="#A04668" stroke-opacity="0.25" stroke-width="2"/>
<line x1="581" y1="4.37114e-08" x2="581" y2="2198" stroke="#A04668" stroke-opacity="0.25" stroke-width="2"/>
<line x1="1265" y1="4.37114e-08" x2="1265" y2="2198" stroke="#A04668" stroke-opacity="0.25" stroke-width="2"/>
<line x1="-589" y1="683" x2="1609" y2="683" stroke="#A04668" stroke-opacity="0.25" stroke-width="2"/>
<line x1="-589" y1="455" x2="1609" y2="455" stroke="#A04668" stroke-opacity="0.25" stroke-width="2"/>
<line x1="-589" y1="151" x2="1609" y2="151" stroke="#A04668" stroke-opacity="0.25" stroke-width="2"/>
<line x1="-589" y1="835" x2="1609" y2="835" stroke="#A04668" stroke-opacity="0.25" stroke-width="2"/>
<line x1="-589" y1="607" x2="1609" y2="607" stroke="#A04668" stroke-opacity="0.25" stroke-width="2"/>
<line x1="-589" y1="379" x2="1609" y2="379" stroke="#A04668" stroke-opacity="0.25" stroke-width="2"/>
<line x1="-589" y1="74.9999" x2="1609" y2="75" stroke="#A04668" stroke-opacity="0.25" stroke-width="2"/>
<line x1="-589" y1="759" x2="1609" y2="759" stroke="#A04668" stroke-opacity="0.25" stroke-width="2"/>
<line x1="-589" y1="531" x2="1609" y2="531" stroke="#A04668" stroke-opacity="0.25" stroke-width="2"/>
<line x1="-589" y1="227" x2="1609" y2="227" stroke="#A04668" stroke-opacity="0.25" stroke-width="2"/>
<line x1="-589" y1="303" x2="1609" y2="303" stroke="#A04668" stroke-opacity="0.25" stroke-width="2"/>
</g>
</svg>
