<svg width="269" height="364" viewBox="0 0 269 364" fill="none" xmlns="http://www.w3.org/2000/svg">
<circle cx="134.5" cy="93.5" r="93.5" fill="#98C1D9"/>
<rect x="49" y="43.75" width="156.444" height="97.792" fill="white" stroke="#3D5A80" stroke-width="5"/>
<rect x="68.9536" y="55.8428" width="47.0006" height="28.2562" fill="#3D5A80" stroke="#3D5A80" stroke-width="5"/>
<rect x="127.001" y="55.8428" width="58.4891" height="5.2792" fill="#3D5A80" stroke="#3D5A80" stroke-width="5"/>
<rect x="127.001" y="70.355" width="58.4891" height="13.7444" stroke="#3D5A80" stroke-width="5"/>
<rect x="68.9536" y="95.146" width="116.536" height="13.7444" fill="#3D5A80" stroke="#3D5A80" stroke-width="5"/>
<rect x="68.9536" y="118.123" width="116.536" height="13.7444" stroke="#3D5A80" stroke-width="5"/>
<rect x="176.374" y="71.355" width="42.582" height="78.8615" fill="white" stroke="#3D5A80" stroke-width="7"/>
<rect x="-2.5" y="2.5" width="27.6516" height="17.977" transform="matrix(-1 0 0 1 208.99 75.7158)" fill="#3D5A80" stroke="#3D5A80" stroke-width="5"/>
<rect x="-2.41863" y="2.41863" width="27.8143" height="4.83727" transform="matrix(-1 0 0 1 209.153 100.506)" stroke="#3D5A80" stroke-width="4.83727"/>
<rect x="-2.5" y="2.5" width="27.6516" height="15.5584" transform="matrix(-1 0 0 1 208.99 111.995)" stroke="#3D5A80" stroke-width="5"/>
<rect x="-2.26747" y="2.26747" width="28.1166" height="4.53494" transform="matrix(-1 0 0 1 209.455 134.973)" fill="#3D5A80" stroke="#3D5A80" stroke-width="4.53494"/>
<path d="M62.2781 223H58.1414L55.8211 214C55.7352 213.68 55.5867 213.02 55.3758 212.02C55.1727 211.012 55.0555 210.336 55.0242 209.992C54.9773 210.414 54.8602 211.094 54.6727 212.031C54.4852 212.961 54.3406 213.625 54.2391 214.023L51.9305 223H47.8055L43.4344 205.867H47.0086L49.2 215.219C49.5828 216.945 49.8602 218.441 50.032 219.707C50.0789 219.262 50.1844 218.574 50.3484 217.645C50.5203 216.707 50.6805 215.98 50.8289 215.465L53.325 205.867H56.7586L59.2547 215.465C59.3641 215.895 59.5008 216.551 59.6648 217.434C59.8289 218.316 59.9539 219.074 60.0398 219.707C60.118 219.098 60.243 218.34 60.4148 217.434C60.5867 216.52 60.743 215.781 60.8836 215.219L63.0633 205.867H66.6375L62.2781 223ZM69.7537 223V205.867H73.3866V223H69.7537ZM82.2919 213.473H83.4637C84.6122 213.473 85.4598 213.281 86.0067 212.898C86.5536 212.516 86.827 211.914 86.827 211.094C86.827 210.281 86.5458 209.703 85.9833 209.359C85.4286 209.016 84.5653 208.844 83.3934 208.844H82.2919V213.473ZM82.2919 216.426V223H78.6591V205.867H83.6512C85.9794 205.867 87.702 206.293 88.8192 207.145C89.9364 207.988 90.495 209.273 90.495 211C90.495 212.008 90.2177 212.906 89.663 213.695C89.1083 214.477 88.3231 215.09 87.3075 215.535C89.8856 219.387 91.5653 221.875 92.3466 223H88.3153L84.2255 216.426H82.2919ZM105.33 223H95.4628V205.867H105.33V208.844H99.0956V212.605H104.896V215.582H99.0956V220H105.33V223ZM113.45 223H109.876V205.867H119.696V208.844H113.45V213.262H119.263V216.227H113.45V223ZM127.641 213.473H128.812C129.961 213.473 130.809 213.281 131.355 212.898C131.902 212.516 132.176 211.914 132.176 211.094C132.176 210.281 131.895 209.703 131.332 209.359C130.777 209.016 129.914 208.844 128.742 208.844H127.641V213.473ZM127.641 216.426V223H124.008V205.867H129C131.328 205.867 133.051 206.293 134.168 207.145C135.285 207.988 135.844 209.273 135.844 211C135.844 212.008 135.566 212.906 135.012 213.695C134.457 214.477 133.672 215.09 132.656 215.535C135.234 219.387 136.914 221.875 137.695 223H133.664L129.574 216.426H127.641ZM151.3 223L150.058 218.922H143.812L142.569 223H138.655L144.702 205.797H149.144L155.214 223H151.3ZM149.19 215.875C148.042 212.18 147.394 210.09 147.245 209.605C147.105 209.121 147.003 208.738 146.94 208.457C146.683 209.457 145.944 211.93 144.726 215.875H149.19ZM165.596 223L161.471 209.559H161.365C161.514 212.293 161.588 214.117 161.588 215.031V223H158.342V205.867H163.287L167.342 218.969H167.412L171.713 205.867H176.658V223H173.272V214.891C173.272 214.508 173.275 214.066 173.283 213.566C173.299 213.066 173.354 211.738 173.447 209.582H173.342L168.924 223H165.596ZM181.942 223V205.867H185.575V223H181.942ZM206.047 223H201.43L193.977 210.039H193.871C194.02 212.328 194.094 213.961 194.094 214.938V223H190.848V205.867H195.43L202.871 218.699H202.953C202.836 216.473 202.777 214.898 202.777 213.977V205.867H206.047V223ZM217.835 213.379H224.632V222.262C223.53 222.621 222.491 222.871 221.515 223.012C220.546 223.16 219.554 223.234 218.538 223.234C215.952 223.234 213.976 222.477 212.609 220.961C211.249 219.438 210.57 217.254 210.57 214.41C210.57 211.645 211.359 209.488 212.937 207.941C214.523 206.395 216.718 205.621 219.523 205.621C221.28 205.621 222.976 205.973 224.609 206.676L223.402 209.582C222.152 208.957 220.851 208.645 219.499 208.645C217.929 208.645 216.671 209.172 215.726 210.227C214.78 211.281 214.308 212.699 214.308 214.48C214.308 216.34 214.687 217.762 215.445 218.746C216.21 219.723 217.32 220.211 218.773 220.211C219.53 220.211 220.3 220.133 221.081 219.977V216.402H217.835V213.379Z" fill="#3D5A80"/>
<path d="M21.904 252.452C21.904 254.573 21.3269 256.196 20.1726 257.321C19.0241 258.44 17.3689 259 15.2068 259H11.6472V246.15H15.5847C17.5827 246.15 19.1355 246.704 20.2429 247.812C21.3503 248.919 21.904 250.466 21.904 252.452ZM20.322 252.505C20.322 250.829 19.9001 249.566 19.0564 248.717C18.2185 247.867 16.9704 247.442 15.3122 247.442H13.1413V257.708H14.9607C16.7419 257.708 18.0808 257.271 18.9773 256.398C19.8737 255.52 20.322 254.222 20.322 252.505ZM29.3477 259.176C27.9238 259.176 26.7988 258.742 25.9727 257.875C25.1523 257.008 24.7422 255.804 24.7422 254.263C24.7422 252.71 25.123 251.477 25.8848 250.562C26.6523 249.648 27.6807 249.191 28.9697 249.191C30.1768 249.191 31.1318 249.59 31.835 250.387C32.5381 251.178 32.8896 252.224 32.8896 253.524V254.447H26.2539C26.2832 255.578 26.5674 256.437 27.1064 257.022C27.6514 257.608 28.416 257.901 29.4004 257.901C30.4375 257.901 31.4629 257.685 32.4766 257.251V258.552C31.9609 258.774 31.4717 258.933 31.0088 259.026C30.5518 259.126 29.998 259.176 29.3477 259.176ZM28.9521 250.413C28.1787 250.413 27.5605 250.665 27.0977 251.169C26.6406 251.673 26.3711 252.37 26.2891 253.261H31.3252C31.3252 252.341 31.1201 251.638 30.71 251.151C30.2998 250.659 29.7139 250.413 28.9521 250.413ZM42.3196 256.372C42.3196 257.269 41.9856 257.96 41.3177 258.446C40.6497 258.933 39.7122 259.176 38.5052 259.176C37.2278 259.176 36.2317 258.974 35.5169 258.569V257.216C35.9798 257.45 36.4749 257.635 37.0022 257.77C37.5354 257.904 38.0481 257.972 38.5403 257.972C39.302 257.972 39.888 257.852 40.2981 257.611C40.7083 257.365 40.9134 256.993 40.9134 256.495C40.9134 256.12 40.7493 255.801 40.4212 255.537C40.0989 255.268 39.4661 254.951 38.5227 254.588C37.6263 254.254 36.9876 253.964 36.6067 253.718C36.2317 253.466 35.9505 253.182 35.763 252.865C35.5813 252.549 35.4905 252.171 35.4905 251.731C35.4905 250.946 35.8098 250.328 36.4485 249.877C37.0872 249.42 37.9632 249.191 39.0764 249.191C40.1136 249.191 41.1272 249.402 42.1175 249.824L41.5989 251.011C40.6321 250.612 39.7561 250.413 38.971 250.413C38.2796 250.413 37.7581 250.521 37.4065 250.738C37.055 250.955 36.8792 251.254 36.8792 251.635C36.8792 251.893 36.9436 252.112 37.0725 252.294C37.2073 252.476 37.4212 252.648 37.7141 252.812C38.0071 252.977 38.5696 253.214 39.4016 253.524C40.5442 253.94 41.3147 254.359 41.7132 254.781C42.1175 255.203 42.3196 255.733 42.3196 256.372ZM46.8804 259H45.4214V249.367H46.8804V259ZM45.2984 246.757C45.2984 246.423 45.3804 246.18 45.5445 246.027C45.7086 245.869 45.9136 245.79 46.1597 245.79C46.3941 245.79 46.5962 245.869 46.7662 246.027C46.9361 246.186 47.0211 246.429 47.0211 246.757C47.0211 247.085 46.9361 247.331 46.7662 247.495C46.5962 247.653 46.3941 247.732 46.1597 247.732C45.9136 247.732 45.7086 247.653 45.5445 247.495C45.3804 247.331 45.2984 247.085 45.2984 246.757ZM58.578 249.367V250.29L56.7938 250.501C56.9579 250.706 57.1043 250.976 57.2332 251.31C57.3621 251.638 57.4266 252.01 57.4266 252.426C57.4266 253.369 57.1043 254.122 56.4598 254.685C55.8153 255.247 54.9305 255.528 53.8055 255.528C53.5184 255.528 53.2489 255.505 52.9969 255.458C52.3758 255.786 52.0653 256.199 52.0653 256.697C52.0653 256.961 52.1737 257.157 52.3905 257.286C52.6073 257.409 52.9793 257.471 53.5067 257.471H55.2118C56.2547 257.471 57.0545 257.69 57.6112 258.13C58.1737 258.569 58.4549 259.208 58.4549 260.046C58.4549 261.112 58.0272 261.924 57.1717 262.48C56.3162 263.043 55.0682 263.324 53.4276 263.324C52.1678 263.324 51.1952 263.09 50.5096 262.621C49.8299 262.152 49.4901 261.49 49.4901 260.635C49.4901 260.049 49.6776 259.542 50.0526 259.114C50.4276 258.687 50.9549 258.396 51.6346 258.244C51.3885 258.133 51.1805 257.96 51.0106 257.726C50.8465 257.491 50.7645 257.219 50.7645 256.908C50.7645 256.557 50.8582 256.249 51.0457 255.985C51.2332 255.722 51.5291 255.467 51.9334 255.221C51.4354 255.016 51.0282 254.667 50.7118 254.175C50.4012 253.683 50.2459 253.12 50.2459 252.487C50.2459 251.433 50.5623 250.621 51.1952 250.053C51.828 249.479 52.7245 249.191 53.8846 249.191C54.3885 249.191 54.8426 249.25 55.2469 249.367H58.578ZM50.8963 260.617C50.8963 261.139 51.1161 261.534 51.5555 261.804C51.995 262.073 52.6248 262.208 53.4452 262.208C54.6698 262.208 55.575 262.023 56.161 261.654C56.7528 261.291 57.0487 260.796 57.0487 260.169C57.0487 259.647 56.8875 259.284 56.5653 259.079C56.243 258.88 55.6366 258.78 54.7459 258.78H52.9969C52.3348 258.78 51.8192 258.938 51.45 259.255C51.0809 259.571 50.8963 260.025 50.8963 260.617ZM51.6873 252.452C51.6873 253.126 51.8778 253.636 52.2586 253.981C52.6395 254.327 53.1698 254.5 53.8495 254.5C55.2733 254.5 55.9852 253.809 55.9852 252.426C55.9852 250.979 55.2645 250.255 53.8231 250.255C53.1375 250.255 52.6102 250.439 52.2411 250.809C51.8719 251.178 51.6873 251.726 51.6873 252.452ZM67.8673 259V252.769C67.8673 251.983 67.6886 251.397 67.3312 251.011C66.9737 250.624 66.4142 250.431 65.6525 250.431C64.6446 250.431 63.9064 250.703 63.4376 251.248C62.9689 251.793 62.7345 252.692 62.7345 253.946V259H61.2755V249.367H62.462L62.6993 250.686H62.7696C63.0685 250.211 63.4874 249.845 64.0265 249.587C64.5655 249.323 65.1661 249.191 65.8282 249.191C66.9884 249.191 67.8614 249.473 68.4474 250.035C69.0333 250.592 69.3263 251.485 69.3263 252.716V259H67.8673ZM74.5111 259H73.0521V249.367H74.5111V259ZM72.9291 246.757C72.9291 246.423 73.0111 246.18 73.1752 246.027C73.3393 245.869 73.5443 245.79 73.7904 245.79C74.0248 245.79 74.227 245.869 74.3969 246.027C74.5668 246.186 74.6518 246.429 74.6518 246.757C74.6518 247.085 74.5668 247.331 74.3969 247.495C74.227 247.653 74.0248 247.732 73.7904 247.732C73.5443 247.732 73.3393 247.653 73.1752 247.495C73.0111 247.331 72.9291 247.085 72.9291 246.757ZM84.9167 259V252.769C84.9167 251.983 84.738 251.397 84.3805 251.011C84.0231 250.624 83.4636 250.431 82.7018 250.431C81.694 250.431 80.9557 250.703 80.487 251.248C80.0182 251.793 79.7839 252.692 79.7839 253.946V259H78.3249V249.367H79.5114L79.7487 250.686H79.819C80.1179 250.211 80.5368 249.845 81.0759 249.587C81.6149 249.323 82.2155 249.191 82.8776 249.191C84.0378 249.191 84.9108 249.473 85.4968 250.035C86.0827 250.592 86.3757 251.485 86.3757 252.716V259H84.9167ZM97.9853 249.367V250.29L96.2011 250.501C96.3652 250.706 96.5117 250.976 96.6406 251.31C96.7695 251.638 96.8339 252.01 96.8339 252.426C96.8339 253.369 96.5117 254.122 95.8671 254.685C95.2226 255.247 94.3379 255.528 93.2129 255.528C92.9257 255.528 92.6562 255.505 92.4043 255.458C91.7832 255.786 91.4726 256.199 91.4726 256.697C91.4726 256.961 91.581 257.157 91.7978 257.286C92.0146 257.409 92.3867 257.471 92.914 257.471H94.6191C95.6621 257.471 96.4619 257.69 97.0185 258.13C97.581 258.569 97.8623 259.208 97.8623 260.046C97.8623 261.112 97.4345 261.924 96.5791 262.48C95.7236 263.043 94.4755 263.324 92.8349 263.324C91.5752 263.324 90.6025 263.09 89.917 262.621C89.2373 262.152 88.8974 261.49 88.8974 260.635C88.8974 260.049 89.0849 259.542 89.4599 259.114C89.8349 258.687 90.3623 258.396 91.042 258.244C90.7959 258.133 90.5879 257.96 90.4179 257.726C90.2539 257.491 90.1718 257.219 90.1718 256.908C90.1718 256.557 90.2656 256.249 90.4531 255.985C90.6406 255.722 90.9365 255.467 91.3408 255.221C90.8427 255.016 90.4355 254.667 90.1191 254.175C89.8086 253.683 89.6533 253.12 89.6533 252.487C89.6533 251.433 89.9697 250.621 90.6025 250.053C91.2353 249.479 92.1318 249.191 93.292 249.191C93.7959 249.191 94.25 249.25 94.6543 249.367H97.9853ZM90.3037 260.617C90.3037 261.139 90.5234 261.534 90.9629 261.804C91.4023 262.073 92.0322 262.208 92.8525 262.208C94.0771 262.208 94.9824 262.023 95.5683 261.654C96.1601 261.291 96.456 260.796 96.456 260.169C96.456 259.647 96.2949 259.284 95.9726 259.079C95.6504 258.88 95.0439 258.78 94.1533 258.78H92.4043C91.7421 258.78 91.2265 258.938 90.8574 259.255C90.4882 259.571 90.3037 260.025 90.3037 260.617ZM91.0947 252.452C91.0947 253.126 91.2851 253.636 91.666 253.981C92.0468 254.327 92.5771 254.5 93.2568 254.5C94.6806 254.5 95.3925 253.809 95.3925 252.426C95.3925 250.979 94.6718 250.255 93.2304 250.255C92.5449 250.255 92.0175 250.439 91.6484 250.809C91.2793 251.178 91.0947 251.726 91.0947 252.452ZM109.19 257.972C109.448 257.972 109.697 257.954 109.937 257.919C110.177 257.878 110.368 257.837 110.508 257.796V258.912C110.35 258.988 110.116 259.05 109.805 259.097C109.501 259.149 109.225 259.176 108.979 259.176C107.116 259.176 106.184 258.194 106.184 256.231V250.501H104.804V249.798L106.184 249.191L106.799 247.135H107.643V249.367H110.438V250.501H107.643V256.17C107.643 256.75 107.781 257.195 108.056 257.506C108.332 257.816 108.709 257.972 109.19 257.972ZM119.754 259V252.769C119.754 251.983 119.575 251.397 119.218 251.011C118.86 250.624 118.301 250.431 117.539 250.431C116.525 250.431 115.784 250.706 115.315 251.257C114.852 251.808 114.621 252.71 114.621 253.964V259H113.162V245.324H114.621V249.464C114.621 249.962 114.597 250.375 114.551 250.703H114.638C114.926 250.24 115.333 249.877 115.86 249.613C116.393 249.344 117 249.209 117.679 249.209C118.857 249.209 119.739 249.49 120.325 250.053C120.917 250.609 121.213 251.497 121.213 252.716V259H119.754ZM129.008 259.176C127.584 259.176 126.459 258.742 125.633 257.875C124.813 257.008 124.402 255.804 124.402 254.263C124.402 252.71 124.783 251.477 125.545 250.562C126.313 249.648 127.341 249.191 128.63 249.191C129.837 249.191 130.792 249.59 131.495 250.387C132.198 251.178 132.55 252.224 132.55 253.524V254.447H125.914C125.943 255.578 126.228 256.437 126.767 257.022C127.312 257.608 128.076 257.901 129.061 257.901C130.098 257.901 131.123 257.685 132.137 257.251V258.552C131.621 258.774 131.132 258.933 130.669 259.026C130.212 259.126 129.658 259.176 129.008 259.176ZM128.612 250.413C127.839 250.413 127.221 250.665 126.758 251.169C126.301 251.673 126.031 252.37 125.949 253.261H130.985C130.985 252.341 130.78 251.638 130.37 251.151C129.96 250.659 129.374 250.413 128.612 250.413ZM145.644 249.209C146.91 249.209 147.891 249.643 148.589 250.51C149.292 251.371 149.643 252.593 149.643 254.175C149.643 255.757 149.289 256.987 148.58 257.866C147.877 258.739 146.898 259.176 145.644 259.176C145.017 259.176 144.443 259.062 143.922 258.833C143.406 258.599 142.972 258.241 142.621 257.761H142.515L142.208 259H141.162V245.324H142.621V248.646C142.621 249.391 142.597 250.059 142.55 250.65H142.621C143.3 249.689 144.308 249.209 145.644 249.209ZM145.433 250.431C144.437 250.431 143.719 250.718 143.28 251.292C142.84 251.86 142.621 252.821 142.621 254.175C142.621 255.528 142.846 256.498 143.298 257.084C143.749 257.664 144.472 257.954 145.468 257.954C146.365 257.954 147.033 257.629 147.472 256.979C147.912 256.322 148.131 255.382 148.131 254.157C148.131 252.903 147.912 251.969 147.472 251.354C147.033 250.738 146.353 250.431 145.433 250.431ZM156.99 259.176C155.566 259.176 154.441 258.742 153.615 257.875C152.795 257.008 152.385 255.804 152.385 254.263C152.385 252.71 152.766 251.477 153.527 250.562C154.295 249.648 155.323 249.191 156.612 249.191C157.819 249.191 158.774 249.59 159.477 250.387C160.181 251.178 160.532 252.224 160.532 253.524V254.447H153.896C153.926 255.578 154.21 256.437 154.749 257.022C155.294 257.608 156.059 257.901 157.043 257.901C158.08 257.901 159.105 257.685 160.119 257.251V258.552C159.603 258.774 159.114 258.933 158.651 259.026C158.194 259.126 157.641 259.176 156.99 259.176ZM156.595 250.413C155.821 250.413 155.203 250.665 154.74 251.169C154.283 251.673 154.014 252.37 153.932 253.261H158.968C158.968 252.341 158.763 251.638 158.352 251.151C157.942 250.659 157.356 250.413 156.595 250.413ZM169.962 256.372C169.962 257.269 169.628 257.96 168.96 258.446C168.292 258.933 167.355 259.176 166.148 259.176C164.87 259.176 163.874 258.974 163.159 258.569V257.216C163.622 257.45 164.117 257.635 164.645 257.77C165.178 257.904 165.691 257.972 166.183 257.972C166.945 257.972 167.53 257.852 167.941 257.611C168.351 257.365 168.556 256.993 168.556 256.495C168.556 256.12 168.392 255.801 168.064 255.537C167.741 255.268 167.109 254.951 166.165 254.588C165.269 254.254 164.63 253.964 164.249 253.718C163.874 253.466 163.593 253.182 163.405 252.865C163.224 252.549 163.133 252.171 163.133 251.731C163.133 250.946 163.452 250.328 164.091 249.877C164.73 249.42 165.606 249.191 166.719 249.191C167.756 249.191 168.77 249.402 169.76 249.824L169.241 251.011C168.275 250.612 167.399 250.413 166.613 250.413C165.922 250.413 165.401 250.521 165.049 250.738C164.697 250.955 164.522 251.254 164.522 251.635C164.522 251.893 164.586 252.112 164.715 252.294C164.85 252.476 165.064 252.648 165.357 252.812C165.65 252.977 166.212 253.214 167.044 253.524C168.187 253.94 168.957 254.359 169.356 254.781C169.76 255.203 169.962 255.733 169.962 256.372ZM176.175 257.972C176.433 257.972 176.682 257.954 176.922 257.919C177.163 257.878 177.353 257.837 177.494 257.796V258.912C177.335 258.988 177.101 259.05 176.791 259.097C176.486 259.149 176.21 259.176 175.964 259.176C174.101 259.176 173.169 258.194 173.169 256.231V250.501H171.79V249.798L173.169 249.191L173.785 247.135H174.628V249.367H177.423V250.501H174.628V256.17C174.628 256.75 174.766 257.195 175.041 257.506C175.317 257.816 175.695 257.972 176.175 257.972ZM190.025 259.176C189.398 259.176 188.824 259.062 188.303 258.833C187.787 258.599 187.354 258.241 187.002 257.761H186.897C186.967 258.323 187.002 258.856 187.002 259.36V263.324H185.543V249.367H186.73L186.932 250.686H187.002C187.377 250.158 187.814 249.777 188.312 249.543C188.81 249.309 189.381 249.191 190.025 249.191C191.303 249.191 192.287 249.628 192.979 250.501C193.676 251.374 194.024 252.599 194.024 254.175C194.024 255.757 193.67 256.987 192.961 257.866C192.258 258.739 191.279 259.176 190.025 259.176ZM189.814 250.431C188.83 250.431 188.118 250.703 187.679 251.248C187.239 251.793 187.014 252.66 187.002 253.85V254.175C187.002 255.528 187.228 256.498 187.679 257.084C188.13 257.664 188.854 257.954 189.85 257.954C190.682 257.954 191.332 257.617 191.801 256.943C192.275 256.27 192.513 255.341 192.513 254.157C192.513 252.956 192.275 252.036 191.801 251.397C191.332 250.753 190.67 250.431 189.814 250.431ZM205.617 254.175C205.617 255.745 205.221 256.973 204.43 257.857C203.639 258.736 202.546 259.176 201.152 259.176C200.29 259.176 199.526 258.974 198.858 258.569C198.19 258.165 197.674 257.585 197.311 256.829C196.948 256.073 196.766 255.188 196.766 254.175C196.766 252.604 197.159 251.383 197.944 250.51C198.729 249.631 199.819 249.191 201.213 249.191C202.561 249.191 203.63 249.64 204.421 250.536C205.218 251.433 205.617 252.646 205.617 254.175ZM198.278 254.175C198.278 255.405 198.524 256.343 199.016 256.987C199.508 257.632 200.232 257.954 201.187 257.954C202.142 257.954 202.866 257.635 203.358 256.996C203.856 256.352 204.105 255.411 204.105 254.175C204.105 252.95 203.856 252.021 203.358 251.389C202.866 250.75 202.136 250.431 201.169 250.431C200.214 250.431 199.493 250.744 199.007 251.371C198.521 251.998 198.278 252.933 198.278 254.175ZM215.117 256.372C215.117 257.269 214.783 257.96 214.115 258.446C213.447 258.933 212.509 259.176 211.302 259.176C210.025 259.176 209.029 258.974 208.314 258.569V257.216C208.777 257.45 209.272 257.635 209.799 257.77C210.333 257.904 210.845 257.972 211.337 257.972C212.099 257.972 212.685 257.852 213.095 257.611C213.505 257.365 213.711 256.993 213.711 256.495C213.711 256.12 213.546 255.801 213.218 255.537C212.896 255.268 212.263 254.951 211.32 254.588C210.423 254.254 209.785 253.964 209.404 253.718C209.029 253.466 208.748 253.182 208.56 252.865C208.379 252.549 208.288 252.171 208.288 251.731C208.288 250.946 208.607 250.328 209.246 249.877C209.884 249.42 210.76 249.191 211.874 249.191C212.911 249.191 213.924 249.402 214.915 249.824L214.396 251.011C213.429 250.612 212.553 250.413 211.768 250.413C211.077 250.413 210.555 250.521 210.204 250.738C209.852 250.955 209.676 251.254 209.676 251.635C209.676 251.893 209.741 252.112 209.87 252.294C210.004 252.476 210.218 252.648 210.511 252.812C210.804 252.977 211.367 253.214 212.199 253.524C213.341 253.94 214.112 254.359 214.51 254.781C214.915 255.203 215.117 255.733 215.117 256.372ZM224.432 256.372C224.432 257.269 224.099 257.96 223.431 258.446C222.763 258.933 221.825 259.176 220.618 259.176C219.341 259.176 218.345 258.974 217.63 258.569V257.216C218.093 257.45 218.588 257.635 219.115 257.77C219.648 257.904 220.161 257.972 220.653 257.972C221.415 257.972 222.001 257.852 222.411 257.611C222.821 257.365 223.026 256.993 223.026 256.495C223.026 256.12 222.862 255.801 222.534 255.537C222.212 255.268 221.579 254.951 220.636 254.588C219.739 254.254 219.1 253.964 218.72 253.718C218.345 253.466 218.063 253.182 217.876 252.865C217.694 252.549 217.603 252.171 217.603 251.731C217.603 250.946 217.923 250.328 218.561 249.877C219.2 249.42 220.076 249.191 221.189 249.191C222.226 249.191 223.24 249.402 224.23 249.824L223.712 251.011C222.745 250.612 221.869 250.413 221.084 250.413C220.392 250.413 219.871 250.521 219.519 250.738C219.168 250.955 218.992 251.254 218.992 251.635C218.992 251.893 219.057 252.112 219.185 252.294C219.32 252.476 219.534 252.648 219.827 252.812C220.12 252.977 220.682 253.214 221.515 253.524C222.657 253.94 223.428 254.359 223.826 254.781C224.23 255.203 224.432 255.733 224.432 256.372ZM228.993 259H227.534V249.367H228.993V259ZM227.411 246.757C227.411 246.423 227.493 246.18 227.657 246.027C227.821 245.869 228.027 245.79 228.273 245.79C228.507 245.79 228.709 245.869 228.879 246.027C229.049 246.186 229.134 246.429 229.134 246.757C229.134 247.085 229.049 247.331 228.879 247.495C228.709 247.653 228.507 247.732 228.273 247.732C228.027 247.732 227.821 247.653 227.657 247.495C227.493 247.331 227.411 247.085 227.411 246.757ZM237.289 249.209C238.555 249.209 239.537 249.643 240.234 250.51C240.937 251.371 241.289 252.593 241.289 254.175C241.289 255.757 240.934 256.987 240.225 257.866C239.522 258.739 238.543 259.176 237.289 259.176C236.663 259.176 236.088 259.062 235.567 258.833C235.051 258.599 234.618 258.241 234.266 257.761H234.161L233.853 259H232.807V245.324H234.266V248.646C234.266 249.391 234.243 250.059 234.196 250.65H234.266C234.946 249.689 235.954 249.209 237.289 249.209ZM237.079 250.431C236.082 250.431 235.365 250.718 234.925 251.292C234.486 251.86 234.266 252.821 234.266 254.175C234.266 255.528 234.492 256.498 234.943 257.084C235.394 257.664 236.118 257.954 237.114 257.954C238.01 257.954 238.678 257.629 239.118 256.979C239.557 256.322 239.777 255.382 239.777 254.157C239.777 252.903 239.557 251.969 239.118 251.354C238.678 250.738 237.998 250.431 237.079 250.431ZM246.025 259H244.566V245.324H246.025V259ZM253.908 259.176C252.484 259.176 251.359 258.742 250.533 257.875C249.713 257.008 249.303 255.804 249.303 254.263C249.303 252.71 249.684 251.477 250.445 250.562C251.213 249.648 252.241 249.191 253.53 249.191C254.737 249.191 255.692 249.59 256.396 250.387C257.099 251.178 257.45 252.224 257.45 253.524V254.447H250.814C250.844 255.578 251.128 256.437 251.667 257.022C252.212 257.608 252.977 257.901 253.961 257.901C254.998 257.901 256.023 257.685 257.037 257.251V258.552C256.521 258.774 256.032 258.933 255.569 259.026C255.112 259.126 254.559 259.176 253.908 259.176ZM253.513 250.413C252.739 250.413 252.121 250.665 251.658 251.169C251.201 251.673 250.932 252.37 250.85 253.261H255.886C255.886 252.341 255.681 251.638 255.271 251.151C254.86 250.659 254.274 250.413 253.513 250.413ZM26.4564 281.372C26.4564 282.269 26.1224 282.96 25.4545 283.446C24.7865 283.933 23.849 284.176 22.642 284.176C21.3646 284.176 20.3685 283.974 19.6537 283.569V282.216C20.1166 282.45 20.6117 282.635 21.139 282.77C21.6722 282.904 22.1849 282.972 22.6771 282.972C23.4388 282.972 24.0248 282.852 24.4349 282.611C24.8451 282.365 25.0502 281.993 25.0502 281.495C25.0502 281.12 24.8861 280.801 24.558 280.537C24.2357 280.268 23.6029 279.951 22.6595 279.588C21.763 279.254 21.1244 278.964 20.7435 278.718C20.3685 278.466 20.0873 278.182 19.8998 277.865C19.7181 277.549 19.6273 277.171 19.6273 276.731C19.6273 275.946 19.9466 275.328 20.5853 274.877C21.224 274.42 22.1 274.191 23.2132 274.191C24.2504 274.191 25.264 274.402 26.2543 274.824L25.7357 276.011C24.7689 275.612 23.8929 275.413 23.1078 275.413C22.4164 275.413 21.8949 275.521 21.5433 275.738C21.1918 275.955 21.016 276.254 21.016 276.635C21.016 276.893 21.0804 277.112 21.2093 277.294C21.3441 277.476 21.558 277.648 21.8509 277.812C22.1439 277.977 22.7064 278.214 23.5384 278.524C24.681 278.94 25.4515 279.359 25.85 279.781C26.2543 280.203 26.4564 280.733 26.4564 281.372ZM37.8727 279.175C37.8727 280.745 37.4772 281.973 36.6862 282.857C35.8952 283.736 34.8024 284.176 33.4079 284.176C32.5465 284.176 31.7819 283.974 31.1139 283.569C30.4459 283.165 29.9303 282.585 29.567 281.829C29.2038 281.073 29.0221 280.188 29.0221 279.175C29.0221 277.604 29.4147 276.383 30.1998 275.51C30.985 274.631 32.0748 274.191 33.4694 274.191C34.817 274.191 35.8864 274.64 36.6774 275.536C37.4743 276.433 37.8727 277.646 37.8727 279.175ZM30.5338 279.175C30.5338 280.405 30.7799 281.343 31.2721 281.987C31.7643 282.632 32.4879 282.954 33.443 282.954C34.3981 282.954 35.1217 282.635 35.6139 281.996C36.112 281.352 36.361 280.411 36.361 279.175C36.361 277.95 36.112 277.021 35.6139 276.389C35.1217 275.75 34.3922 275.431 33.4254 275.431C32.4704 275.431 31.7496 275.744 31.2633 276.371C30.777 276.998 30.5338 277.933 30.5338 279.175ZM42.6181 284H41.1591V270.324H42.6181V284ZM47.8029 274.367V280.616C47.8029 281.401 47.9816 281.987 48.3391 282.374C48.6965 282.761 49.2561 282.954 50.0178 282.954C51.0256 282.954 51.7609 282.679 52.2238 282.128C52.6926 281.577 52.927 280.678 52.927 279.43V274.367H54.3859V284H53.1818L52.9709 282.708H52.8918C52.593 283.183 52.177 283.546 51.6437 283.798C51.1164 284.05 50.5129 284.176 49.8332 284.176C48.6613 284.176 47.7824 283.897 47.1965 283.341C46.6164 282.784 46.3264 281.894 46.3264 280.669V274.367H47.8029ZM61.3198 282.972C61.5776 282.972 61.8266 282.954 62.0669 282.919C62.3071 282.878 62.4975 282.837 62.6382 282.796V283.912C62.48 283.988 62.2456 284.05 61.935 284.097C61.6304 284.149 61.355 284.176 61.1089 284.176C59.2456 284.176 58.3139 283.194 58.3139 281.231V275.501H56.9341V274.798L58.3139 274.191L58.9292 272.135H59.7729V274.367H62.5679V275.501H59.7729V281.17C59.7729 281.75 59.9106 282.195 60.186 282.506C60.4614 282.816 60.8393 282.972 61.3198 282.972ZM66.7507 284H65.2918V274.367H66.7507V284ZM65.1687 271.757C65.1687 271.423 65.2507 271.18 65.4148 271.027C65.5789 270.869 65.7839 270.79 66.03 270.79C66.2644 270.79 66.4666 270.869 66.6365 271.027C66.8064 271.186 66.8914 271.429 66.8914 271.757C66.8914 272.085 66.8064 272.331 66.6365 272.495C66.4666 272.653 66.2644 272.732 66.03 272.732C65.7839 272.732 65.5789 272.653 65.4148 272.495C65.2507 272.331 65.1687 272.085 65.1687 271.757ZM78.8789 279.175C78.8789 280.745 78.4834 281.973 77.6924 282.857C76.9014 283.736 75.8086 284.176 74.4141 284.176C73.5528 284.176 72.7881 283.974 72.1202 283.569C71.4522 283.165 70.9366 282.585 70.5733 281.829C70.21 281.073 70.0284 280.188 70.0284 279.175C70.0284 277.604 70.4209 276.383 71.2061 275.51C71.9912 274.631 73.0811 274.191 74.4756 274.191C75.8233 274.191 76.8926 274.64 77.6836 275.536C78.4805 276.433 78.8789 277.646 78.8789 279.175ZM71.5401 279.175C71.5401 280.405 71.7862 281.343 72.2784 281.987C72.7705 282.632 73.4942 282.954 74.4493 282.954C75.4043 282.954 76.128 282.635 76.6202 281.996C77.1182 281.352 77.3672 280.411 77.3672 279.175C77.3672 277.95 77.1182 277.021 76.6202 276.389C76.128 275.75 75.3985 275.431 74.4317 275.431C73.4766 275.431 72.7559 275.744 72.2696 276.371C71.7832 276.998 71.5401 277.933 71.5401 279.175ZM88.7571 284V277.769C88.7571 276.983 88.5784 276.397 88.221 276.011C87.8636 275.624 87.304 275.431 86.5423 275.431C85.5345 275.431 84.7962 275.703 84.3275 276.248C83.8587 276.793 83.6243 277.692 83.6243 278.946V284H82.1654V274.367H83.3519L83.5892 275.686H83.6595C83.9583 275.211 84.3773 274.845 84.9163 274.587C85.4554 274.323 86.056 274.191 86.7181 274.191C87.8782 274.191 88.7513 274.473 89.3372 275.035C89.9232 275.592 90.2161 276.485 90.2161 277.716V284H88.7571ZM103.68 275.501H101.227V284H99.7684V275.501H98.0458V274.842L99.7684 274.314V273.778C99.7684 271.411 100.803 270.228 102.871 270.228C103.381 270.228 103.978 270.33 104.664 270.535L104.286 271.704C103.724 271.522 103.243 271.432 102.845 271.432C102.294 271.432 101.887 271.616 101.623 271.985C101.359 272.349 101.227 272.935 101.227 273.743V274.367H103.68V275.501ZM114.472 279.175C114.472 280.745 114.076 281.973 113.285 282.857C112.494 283.736 111.402 284.176 110.007 284.176C109.146 284.176 108.381 283.974 107.713 283.569C107.045 283.165 106.529 282.585 106.166 281.829C105.803 281.073 105.621 280.188 105.621 279.175C105.621 277.604 106.014 276.383 106.799 275.51C107.584 274.631 108.674 274.191 110.069 274.191C111.416 274.191 112.486 274.64 113.277 275.536C114.073 276.433 114.472 277.646 114.472 279.175ZM107.133 279.175C107.133 280.405 107.379 281.343 107.871 281.987C108.363 282.632 109.087 282.954 110.042 282.954C110.997 282.954 111.721 282.635 112.213 281.996C112.711 281.352 112.96 280.411 112.96 279.175C112.96 277.95 112.711 277.021 112.213 276.389C111.721 275.75 110.991 275.431 110.025 275.431C109.069 275.431 108.349 275.744 107.862 276.371C107.376 276.998 107.133 277.933 107.133 279.175ZM122.153 274.191C122.581 274.191 122.964 274.227 123.304 274.297L123.102 275.65C122.704 275.562 122.352 275.519 122.047 275.519C121.268 275.519 120.6 275.835 120.043 276.468C119.493 277.101 119.217 277.889 119.217 278.832V284H117.758V274.367H118.962L119.129 276.151H119.2C119.557 275.524 119.988 275.041 120.492 274.701C120.996 274.361 121.549 274.191 122.153 274.191ZM137.146 284L136.855 282.629H136.785C136.305 283.232 135.824 283.643 135.344 283.859C134.869 284.07 134.274 284.176 133.56 284.176C132.604 284.176 131.854 283.93 131.31 283.438C130.771 282.945 130.501 282.245 130.501 281.337C130.501 279.392 132.057 278.372 135.168 278.278L136.803 278.226V277.628C136.803 276.872 136.639 276.315 136.311 275.958C135.988 275.595 135.47 275.413 134.755 275.413C133.952 275.413 133.044 275.659 132.03 276.151L131.582 275.035C132.057 274.777 132.575 274.575 133.138 274.429C133.706 274.282 134.274 274.209 134.843 274.209C135.991 274.209 136.841 274.464 137.392 274.974C137.948 275.483 138.227 276.301 138.227 277.426V284H137.146ZM133.85 282.972C134.758 282.972 135.47 282.723 135.985 282.225C136.507 281.727 136.768 281.029 136.768 280.133V279.263L135.309 279.324C134.148 279.365 133.311 279.547 132.795 279.869C132.285 280.186 132.03 280.681 132.03 281.354C132.03 281.882 132.188 282.283 132.505 282.559C132.827 282.834 133.275 282.972 133.85 282.972ZM148.553 284V277.769C148.553 276.983 148.374 276.397 148.017 276.011C147.659 275.624 147.1 275.431 146.338 275.431C145.33 275.431 144.592 275.703 144.123 276.248C143.655 276.793 143.42 277.692 143.42 278.946V284H141.961V274.367H143.148L143.385 275.686H143.455C143.754 275.211 144.173 274.845 144.712 274.587C145.251 274.323 145.852 274.191 146.514 274.191C147.674 274.191 148.547 274.473 149.133 275.035C149.719 275.592 150.012 276.485 150.012 277.716V284H148.553ZM160.593 284H159.134V274.367H160.593V284ZM159.011 271.757C159.011 271.423 159.093 271.18 159.257 271.027C159.421 270.869 159.626 270.79 159.872 270.79C160.106 270.79 160.308 270.869 160.478 271.027C160.648 271.186 160.733 271.429 160.733 271.757C160.733 272.085 160.648 272.331 160.478 272.495C160.308 272.653 160.106 272.732 159.872 272.732C159.626 272.732 159.421 272.653 159.257 272.495C159.093 272.331 159.011 272.085 159.011 271.757ZM170.963 282.708H170.884C170.21 283.687 169.202 284.176 167.86 284.176C166.601 284.176 165.619 283.745 164.916 282.884C164.219 282.022 163.87 280.798 163.87 279.21C163.87 277.622 164.222 276.389 164.925 275.51C165.628 274.631 166.607 274.191 167.86 274.191C169.167 274.191 170.169 274.666 170.866 275.615H170.981L170.919 274.921L170.884 274.244V270.324H172.343V284H171.156L170.963 282.708ZM168.045 282.954C169.041 282.954 169.762 282.685 170.207 282.146C170.658 281.601 170.884 280.725 170.884 279.518V279.21C170.884 277.845 170.655 276.872 170.198 276.292C169.747 275.706 169.024 275.413 168.027 275.413C167.172 275.413 166.516 275.747 166.059 276.415C165.608 277.077 165.382 278.015 165.382 279.228C165.382 280.458 165.608 281.387 166.059 282.014C166.51 282.641 167.172 282.954 168.045 282.954ZM180.235 284.176C178.811 284.176 177.686 283.742 176.86 282.875C176.039 282.008 175.629 280.804 175.629 279.263C175.629 277.71 176.01 276.477 176.772 275.562C177.539 274.648 178.568 274.191 179.857 274.191C181.064 274.191 182.019 274.59 182.722 275.387C183.425 276.178 183.777 277.224 183.777 278.524V279.447H177.141C177.17 280.578 177.454 281.437 177.994 282.022C178.538 282.608 179.303 282.901 180.288 282.901C181.325 282.901 182.35 282.685 183.364 282.251V283.552C182.848 283.774 182.359 283.933 181.896 284.026C181.439 284.126 180.885 284.176 180.235 284.176ZM179.839 275.413C179.066 275.413 178.448 275.665 177.985 276.169C177.528 276.673 177.258 277.37 177.176 278.261H182.212C182.212 277.341 182.007 276.638 181.597 276.151C181.187 275.659 180.601 275.413 179.839 275.413ZM192.917 284L192.627 282.629H192.556C192.076 283.232 191.595 283.643 191.115 283.859C190.64 284.07 190.046 284.176 189.331 284.176C188.376 284.176 187.626 283.93 187.081 283.438C186.542 282.945 186.272 282.245 186.272 281.337C186.272 279.392 187.828 278.372 190.939 278.278L192.574 278.226V277.628C192.574 276.872 192.41 276.315 192.082 275.958C191.759 275.595 191.241 275.413 190.526 275.413C189.723 275.413 188.815 275.659 187.801 276.151L187.353 275.035C187.828 274.777 188.346 274.575 188.909 274.429C189.477 274.282 190.046 274.209 190.614 274.209C191.762 274.209 192.612 274.464 193.163 274.974C193.719 275.483 193.998 276.301 193.998 277.426V284H192.917ZM189.621 282.972C190.529 282.972 191.241 282.723 191.757 282.225C192.278 281.727 192.539 281.029 192.539 280.133V279.263L191.08 279.324C189.92 279.365 189.082 279.547 188.566 279.869C188.056 280.186 187.801 280.681 187.801 281.354C187.801 281.882 187.96 282.283 188.276 282.559C188.598 282.834 189.047 282.972 189.621 282.972ZM204.499 274.367V280.616C204.499 281.401 204.678 281.987 205.035 282.374C205.393 282.761 205.952 282.954 206.714 282.954C207.722 282.954 208.457 282.679 208.92 282.128C209.389 281.577 209.623 280.678 209.623 279.43V274.367H211.082V284H209.878L209.667 282.708H209.588C209.289 283.183 208.873 283.546 208.34 283.798C207.813 284.05 207.209 284.176 206.53 284.176C205.358 284.176 204.479 283.897 203.893 283.341C203.313 282.784 203.023 281.894 203.023 280.669V274.367H204.499ZM221.119 281.372C221.119 282.269 220.785 282.96 220.117 283.446C219.449 283.933 218.511 284.176 217.304 284.176C216.027 284.176 215.031 283.974 214.316 283.569V282.216C214.779 282.45 215.274 282.635 215.801 282.77C216.334 282.904 216.847 282.972 217.339 282.972C218.101 282.972 218.687 282.852 219.097 282.611C219.507 282.365 219.712 281.993 219.712 281.495C219.712 281.12 219.548 280.801 219.22 280.537C218.898 280.268 218.265 279.951 217.322 279.588C216.425 279.254 215.787 278.964 215.406 278.718C215.031 278.466 214.75 278.182 214.562 277.865C214.38 277.549 214.29 277.171 214.29 276.731C214.29 275.946 214.609 275.328 215.248 274.877C215.886 274.42 216.762 274.191 217.876 274.191C218.913 274.191 219.926 274.402 220.917 274.824L220.398 276.011C219.431 275.612 218.555 275.413 217.77 275.413C217.079 275.413 216.557 275.521 216.206 275.738C215.854 275.955 215.678 276.254 215.678 276.635C215.678 276.893 215.743 277.112 215.872 277.294C216.006 277.476 216.22 277.648 216.513 277.812C216.806 277.977 217.369 278.214 218.201 278.524C219.343 278.94 220.114 279.359 220.512 279.781C220.917 280.203 221.119 280.733 221.119 281.372ZM225.679 284H224.221V274.367H225.679V284ZM224.097 271.757C224.097 271.423 224.179 271.18 224.344 271.027C224.508 270.869 224.713 270.79 224.959 270.79C225.193 270.79 225.395 270.869 225.565 271.027C225.735 271.186 225.82 271.429 225.82 271.757C225.82 272.085 225.735 272.331 225.565 272.495C225.395 272.653 225.193 272.732 224.959 272.732C224.713 272.732 224.508 272.653 224.344 272.495C224.179 272.331 224.097 272.085 224.097 271.757ZM236.085 284V277.769C236.085 276.983 235.906 276.397 235.549 276.011C235.191 275.624 234.632 275.431 233.87 275.431C232.862 275.431 232.124 275.703 231.655 276.248C231.187 276.793 230.952 277.692 230.952 278.946V284H229.493V274.367H230.68L230.917 275.686H230.987C231.286 275.211 231.705 274.845 232.244 274.587C232.783 274.323 233.384 274.191 234.046 274.191C235.206 274.191 236.079 274.473 236.665 275.035C237.251 275.592 237.544 276.485 237.544 277.716V284H236.085ZM249.154 274.367V275.29L247.369 275.501C247.534 275.706 247.68 275.976 247.809 276.31C247.938 276.638 248.002 277.01 248.002 277.426C248.002 278.369 247.68 279.122 247.036 279.685C246.391 280.247 245.506 280.528 244.381 280.528C244.094 280.528 243.825 280.505 243.573 280.458C242.952 280.786 242.641 281.199 242.641 281.697C242.641 281.961 242.749 282.157 242.966 282.286C243.183 282.409 243.555 282.471 244.082 282.471H245.787C246.83 282.471 247.63 282.69 248.187 283.13C248.749 283.569 249.031 284.208 249.031 285.046C249.031 286.112 248.603 286.924 247.747 287.48C246.892 288.043 245.644 288.324 244.003 288.324C242.744 288.324 241.771 288.09 241.085 287.621C240.406 287.152 240.066 286.49 240.066 285.635C240.066 285.049 240.253 284.542 240.628 284.114C241.003 283.687 241.531 283.396 242.21 283.244C241.964 283.133 241.756 282.96 241.586 282.726C241.422 282.491 241.34 282.219 241.34 281.908C241.34 281.557 241.434 281.249 241.621 280.985C241.809 280.722 242.105 280.467 242.509 280.221C242.011 280.016 241.604 279.667 241.287 279.175C240.977 278.683 240.822 278.12 240.822 277.487C240.822 276.433 241.138 275.621 241.771 275.053C242.404 274.479 243.3 274.191 244.46 274.191C244.964 274.191 245.418 274.25 245.823 274.367H249.154ZM241.472 285.617C241.472 286.139 241.692 286.534 242.131 286.804C242.571 287.073 243.201 287.208 244.021 287.208C245.245 287.208 246.151 287.023 246.737 286.654C247.328 286.291 247.624 285.796 247.624 285.169C247.624 284.647 247.463 284.284 247.141 284.079C246.819 283.88 246.212 283.78 245.322 283.78H243.573C242.911 283.78 242.395 283.938 242.026 284.255C241.657 284.571 241.472 285.025 241.472 285.617ZM242.263 277.452C242.263 278.126 242.453 278.636 242.834 278.981C243.215 279.327 243.745 279.5 244.425 279.5C245.849 279.5 246.561 278.809 246.561 277.426C246.561 275.979 245.84 275.255 244.399 275.255C243.713 275.255 243.186 275.439 242.817 275.809C242.448 276.178 242.263 276.726 242.263 277.452ZM21.6136 307.954C22.5863 307.954 23.2953 307.693 23.7406 307.172C24.1859 306.65 24.4232 305.771 24.4525 304.535V304.21C24.4525 302.862 24.224 301.893 23.767 301.301C23.3099 300.709 22.5863 300.413 21.5961 300.413C20.7406 300.413 20.0843 300.747 19.6273 301.415C19.1761 302.077 18.9505 303.015 18.9505 304.228C18.9505 305.44 19.1732 306.366 19.6185 307.005C20.0697 307.638 20.7347 307.954 21.6136 307.954ZM21.3939 309.176C20.1517 309.176 19.182 308.739 18.4847 307.866C17.7875 306.993 17.4388 305.774 17.4388 304.21C17.4388 302.634 17.7904 301.403 18.4935 300.519C19.1966 299.634 20.1752 299.191 21.4291 299.191C22.7474 299.191 23.7611 299.689 24.4701 300.686H24.5492L24.7601 299.367H25.9115V313.324H24.4525V309.202C24.4525 308.616 24.4847 308.118 24.5492 307.708H24.4349C23.7611 308.687 22.7474 309.176 21.3939 309.176ZM31.1051 299.367V305.616C31.1051 306.401 31.2838 306.987 31.6413 307.374C31.9987 307.761 32.5582 307.954 33.32 307.954C34.3278 307.954 35.0631 307.679 35.526 307.128C35.9948 306.577 36.2291 305.678 36.2291 304.43V299.367H37.6881V309H36.484L36.2731 307.708H36.194C35.8952 308.183 35.4791 308.546 34.9459 308.798C34.4186 309.05 33.8151 309.176 33.1354 309.176C31.9635 309.176 31.0846 308.897 30.4987 308.341C29.9186 307.784 29.6286 306.894 29.6286 305.669V299.367H31.1051ZM42.9697 309H41.5107V299.367H42.9697V309ZM41.3876 296.757C41.3876 296.423 41.4697 296.18 41.6337 296.027C41.7978 295.869 42.0029 295.79 42.2489 295.79C42.4833 295.79 42.6855 295.869 42.8554 296.027C43.0253 296.186 43.1103 296.429 43.1103 296.757C43.1103 297.085 43.0253 297.331 42.8554 297.495C42.6855 297.653 42.4833 297.732 42.2489 297.732C42.0029 297.732 41.7978 297.653 41.6337 297.495C41.4697 297.331 41.3876 297.085 41.3876 296.757ZM50.633 309.176C49.2385 309.176 48.1574 308.748 47.3898 307.893C46.6281 307.031 46.2473 305.815 46.2473 304.245C46.2473 302.634 46.634 301.389 47.4074 300.51C48.1867 299.631 49.2941 299.191 50.7297 299.191C51.1926 299.191 51.6555 299.241 52.1184 299.341C52.5812 299.44 52.9445 299.558 53.2082 299.692L52.76 300.932C52.4377 300.803 52.0861 300.697 51.7053 300.615C51.3244 300.527 50.9875 300.483 50.6945 300.483C48.7375 300.483 47.759 301.731 47.759 304.228C47.759 305.411 47.9963 306.319 48.4709 306.952C48.9514 307.585 49.6604 307.901 50.5979 307.901C51.4006 307.901 52.2238 307.729 53.0676 307.383V308.675C52.423 309.009 51.6115 309.176 50.633 309.176ZM57.5229 304.069C57.7749 303.712 58.1587 303.243 58.6743 302.663L61.7856 299.367H63.5171L59.6147 303.472L63.7895 309H62.0229L58.6216 304.447L57.5229 305.396V309H56.0815V295.324H57.5229V302.575C57.5229 302.897 57.4995 303.396 57.4526 304.069H57.5229ZM76.1368 309.176C75.5098 309.176 74.9356 309.062 74.4141 308.833C73.8985 308.599 73.4649 308.241 73.1133 307.761H73.0079C73.0782 308.323 73.1133 308.856 73.1133 309.36V313.324H71.6543V299.367H72.8409L73.043 300.686H73.1133C73.4883 300.158 73.9248 299.777 74.4229 299.543C74.9209 299.309 75.4922 299.191 76.1368 299.191C77.4141 299.191 78.3985 299.628 79.0899 300.501C79.7871 301.374 80.1358 302.599 80.1358 304.175C80.1358 305.757 79.7813 306.987 79.0723 307.866C78.3692 308.739 77.3907 309.176 76.1368 309.176ZM75.9258 300.431C74.9414 300.431 74.2295 300.703 73.7901 301.248C73.3506 301.793 73.125 302.66 73.1133 303.85V304.175C73.1133 305.528 73.3389 306.498 73.7901 307.084C74.2412 307.664 74.9649 307.954 75.961 307.954C76.793 307.954 77.4434 307.617 77.9121 306.943C78.3868 306.27 78.6241 305.341 78.6241 304.157C78.6241 302.956 78.3868 302.036 77.9121 301.397C77.4434 300.753 76.7813 300.431 75.9258 300.431ZM89.3372 309L89.0472 307.629H88.9769C88.4964 308.232 88.0159 308.643 87.5355 308.859C87.0609 309.07 86.4661 309.176 85.7513 309.176C84.7962 309.176 84.0462 308.93 83.5013 308.438C82.9622 307.945 82.6927 307.245 82.6927 306.337C82.6927 304.392 84.2484 303.372 87.3597 303.278L88.9945 303.226V302.628C88.9945 301.872 88.8304 301.315 88.5023 300.958C88.18 300.595 87.6614 300.413 86.9466 300.413C86.1439 300.413 85.2357 300.659 84.222 301.151L83.7738 300.035C84.2484 299.777 84.7669 299.575 85.3294 299.429C85.8978 299.282 86.4661 299.209 87.0345 299.209C88.1829 299.209 89.0325 299.464 89.5833 299.974C90.14 300.483 90.4183 301.301 90.4183 302.426V309H89.3372ZM86.0413 307.972C86.9495 307.972 87.6614 307.723 88.1771 307.225C88.6986 306.727 88.9593 306.029 88.9593 305.133V304.263L87.5003 304.324C86.3402 304.365 85.5023 304.547 84.9866 304.869C84.4769 305.186 84.222 305.681 84.222 306.354C84.222 306.882 84.3802 307.283 84.6966 307.559C85.0189 307.834 85.4671 307.972 86.0413 307.972ZM98.6354 309.176C98.0084 309.176 97.4342 309.062 96.9127 308.833C96.3971 308.599 95.9635 308.241 95.6119 307.761H95.5064C95.5768 308.323 95.6119 308.856 95.6119 309.36V313.324H94.1529V299.367H95.3395L95.5416 300.686H95.6119C95.9869 300.158 96.4234 299.777 96.9215 299.543C97.4195 299.309 97.9908 299.191 98.6354 299.191C99.9127 299.191 100.897 299.628 101.588 300.501C102.286 301.374 102.634 302.599 102.634 304.175C102.634 305.757 102.28 306.987 101.571 307.866C100.868 308.739 99.8893 309.176 98.6354 309.176ZM98.4244 300.431C97.44 300.431 96.7281 300.703 96.2887 301.248C95.8492 301.793 95.6236 302.66 95.6119 303.85V304.175C95.6119 305.528 95.8375 306.498 96.2887 307.084C96.7398 307.664 97.4635 307.954 98.4596 307.954C99.2916 307.954 99.942 307.617 100.411 306.943C100.885 306.27 101.123 305.341 101.123 304.157C101.123 302.956 100.885 302.036 100.411 301.397C99.942 300.753 99.2799 300.431 98.4244 300.431ZM109.981 309.176C108.558 309.176 107.433 308.742 106.606 307.875C105.786 307.008 105.376 305.804 105.376 304.263C105.376 302.71 105.757 301.477 106.518 300.562C107.286 299.648 108.314 299.191 109.603 299.191C110.81 299.191 111.766 299.59 112.469 300.387C113.172 301.178 113.523 302.224 113.523 303.524V304.447H106.888C106.917 305.578 107.201 306.437 107.74 307.022C108.285 307.608 109.05 307.901 110.034 307.901C111.071 307.901 112.097 307.685 113.11 307.251V308.552C112.595 308.774 112.105 308.933 111.642 309.026C111.185 309.126 110.632 309.176 109.981 309.176ZM109.586 300.413C108.812 300.413 108.194 300.665 107.731 301.169C107.274 301.673 107.005 302.37 106.923 303.261H111.959C111.959 302.341 111.754 301.638 111.344 301.151C110.933 300.659 110.348 300.413 109.586 300.413ZM121.134 299.191C121.562 299.191 121.945 299.227 122.285 299.297L122.083 300.65C121.685 300.562 121.333 300.519 121.028 300.519C120.249 300.519 119.581 300.835 119.025 301.468C118.474 302.101 118.198 302.889 118.198 303.832V309H116.739V299.367H117.944L118.111 301.151H118.181C118.538 300.524 118.969 300.041 119.473 299.701C119.977 299.361 120.53 299.191 121.134 299.191ZM136.417 306.372C136.417 307.269 136.083 307.96 135.415 308.446C134.747 308.933 133.809 309.176 132.602 309.176C131.325 309.176 130.329 308.974 129.614 308.569V307.216C130.077 307.45 130.572 307.635 131.099 307.77C131.633 307.904 132.145 307.972 132.637 307.972C133.399 307.972 133.985 307.852 134.395 307.611C134.805 307.365 135.01 306.993 135.01 306.495C135.01 306.12 134.846 305.801 134.518 305.537C134.196 305.268 133.563 304.951 132.62 304.588C131.723 304.254 131.085 303.964 130.704 303.718C130.329 303.466 130.048 303.182 129.86 302.865C129.678 302.549 129.588 302.171 129.588 301.731C129.588 300.946 129.907 300.328 130.546 299.877C131.184 299.42 132.06 299.191 133.174 299.191C134.211 299.191 135.224 299.402 136.215 299.824L135.696 301.011C134.729 300.612 133.853 300.413 133.068 300.413C132.377 300.413 131.855 300.521 131.504 300.738C131.152 300.955 130.976 301.254 130.976 301.635C130.976 301.893 131.041 302.112 131.17 302.294C131.304 302.476 131.518 302.648 131.811 302.812C132.104 302.977 132.667 303.214 133.499 303.524C134.641 303.94 135.412 304.359 135.81 304.781C136.215 305.203 136.417 305.733 136.417 306.372ZM140.96 304.069C141.212 303.712 141.596 303.243 142.111 302.663L145.223 299.367H146.954L143.052 303.472L147.227 309H145.46L142.059 304.447L140.96 305.396V309H139.519V295.324H140.96V302.575C140.96 302.897 140.937 303.396 140.89 304.069H140.96ZM153.765 309.176C152.341 309.176 151.216 308.742 150.39 307.875C149.57 307.008 149.159 305.804 149.159 304.263C149.159 302.71 149.54 301.477 150.302 300.562C151.07 299.648 152.098 299.191 153.387 299.191C154.594 299.191 155.549 299.59 156.252 300.387C156.955 301.178 157.307 302.224 157.307 303.524V304.447H150.671C150.7 305.578 150.985 306.437 151.524 307.022C152.069 307.608 152.833 307.901 153.818 307.901C154.855 307.901 155.88 307.685 156.894 307.251V308.552C156.378 308.774 155.889 308.933 155.426 309.026C154.969 309.126 154.415 309.176 153.765 309.176ZM153.369 300.413C152.596 300.413 151.978 300.665 151.515 301.169C151.058 301.673 150.788 302.37 150.706 303.261H155.742C155.742 302.341 155.537 301.638 155.127 301.151C154.717 300.659 154.131 300.413 153.369 300.413ZM163.634 307.972C163.892 307.972 164.141 307.954 164.381 307.919C164.622 307.878 164.812 307.837 164.953 307.796V308.912C164.794 308.988 164.56 309.05 164.25 309.097C163.945 309.149 163.669 309.176 163.423 309.176C161.56 309.176 160.628 308.194 160.628 306.231V300.501H159.249V299.798L160.628 299.191L161.244 297.135H162.087V299.367H164.882V300.501H162.087V306.17C162.087 306.75 162.225 307.195 162.501 307.506C162.776 307.816 163.154 307.972 163.634 307.972ZM171.456 309.176C170.061 309.176 168.98 308.748 168.213 307.893C167.451 307.031 167.07 305.815 167.07 304.245C167.07 302.634 167.457 301.389 168.23 300.51C169.01 299.631 170.117 299.191 171.553 299.191C172.015 299.191 172.478 299.241 172.941 299.341C173.404 299.44 173.767 299.558 174.031 299.692L173.583 300.932C173.261 300.803 172.909 300.697 172.528 300.615C172.147 300.527 171.81 300.483 171.517 300.483C169.56 300.483 168.582 301.731 168.582 304.228C168.582 305.411 168.819 306.319 169.294 306.952C169.774 307.585 170.483 307.901 171.421 307.901C172.223 307.901 173.047 307.729 173.89 307.383V308.675C173.246 309.009 172.434 309.176 171.456 309.176ZM183.496 309V302.769C183.496 301.983 183.318 301.397 182.96 301.011C182.603 300.624 182.043 300.431 181.281 300.431C180.268 300.431 179.526 300.706 179.058 301.257C178.595 301.808 178.363 302.71 178.363 303.964V309H176.904V295.324H178.363V299.464C178.363 299.962 178.34 300.375 178.293 300.703H178.381C178.668 300.24 179.075 299.877 179.603 299.613C180.136 299.344 180.742 299.209 181.422 299.209C182.6 299.209 183.482 299.49 184.068 300.053C184.659 300.609 184.955 301.497 184.955 302.716V309H183.496ZM192.75 309.176C191.327 309.176 190.202 308.742 189.375 307.875C188.555 307.008 188.145 305.804 188.145 304.263C188.145 302.71 188.526 301.477 189.288 300.562C190.055 299.648 191.083 299.191 192.372 299.191C193.579 299.191 194.535 299.59 195.238 300.387C195.941 301.178 196.292 302.224 196.292 303.524V304.447H189.657C189.686 305.578 189.97 306.437 190.509 307.022C191.054 307.608 191.819 307.901 192.803 307.901C193.84 307.901 194.866 307.685 195.879 307.251V308.552C195.364 308.774 194.874 308.933 194.412 309.026C193.954 309.126 193.401 309.176 192.75 309.176ZM192.355 300.413C191.581 300.413 190.963 300.665 190.5 301.169C190.043 301.673 189.774 302.37 189.692 303.261H194.728C194.728 302.341 194.523 301.638 194.113 301.151C193.703 300.659 193.117 300.413 192.355 300.413ZM205.722 306.372C205.722 307.269 205.388 307.96 204.72 308.446C204.052 308.933 203.115 309.176 201.908 309.176C200.631 309.176 199.634 308.974 198.92 308.569V307.216C199.383 307.45 199.878 307.635 200.405 307.77C200.938 307.904 201.451 307.972 201.943 307.972C202.705 307.972 203.291 307.852 203.701 307.611C204.111 307.365 204.316 306.993 204.316 306.495C204.316 306.12 204.152 305.801 203.824 305.537C203.502 305.268 202.869 304.951 201.925 304.588C201.029 304.254 200.39 303.964 200.009 303.718C199.634 303.466 199.353 303.182 199.166 302.865C198.984 302.549 198.893 302.171 198.893 301.731C198.893 300.946 199.213 300.328 199.851 299.877C200.49 299.42 201.366 299.191 202.479 299.191C203.516 299.191 204.53 299.402 205.52 299.824L205.002 301.011C204.035 300.612 203.159 300.413 202.374 300.413C201.682 300.413 201.161 300.521 200.809 300.738C200.458 300.955 200.282 301.254 200.282 301.635C200.282 301.893 200.346 302.112 200.475 302.294C200.61 302.476 200.824 302.648 201.117 302.812C201.41 302.977 201.972 303.214 202.804 303.524C203.947 303.94 204.717 304.359 205.116 304.781C205.52 305.203 205.722 305.733 205.722 306.372ZM210.353 306.908L210.485 307.11C210.333 307.696 210.113 308.376 209.826 309.149C209.539 309.929 209.24 310.652 208.93 311.32H207.831C207.989 310.711 208.162 309.958 208.35 309.062C208.543 308.165 208.678 307.447 208.754 306.908H210.353ZM220.811 309H219.352V295.324H220.811V309ZM232.939 304.175C232.939 305.745 232.544 306.973 231.753 307.857C230.962 308.736 229.869 309.176 228.474 309.176C227.613 309.176 226.848 308.974 226.18 308.569C225.512 308.165 224.997 307.585 224.634 306.829C224.27 306.073 224.089 305.188 224.089 304.175C224.089 302.604 224.481 301.383 225.266 300.51C226.052 299.631 227.141 299.191 228.536 299.191C229.884 299.191 230.953 299.64 231.744 300.536C232.541 301.433 232.939 302.646 232.939 304.175ZM225.6 304.175C225.6 305.405 225.846 306.343 226.339 306.987C226.831 307.632 227.554 307.954 228.51 307.954C229.465 307.954 230.188 307.635 230.68 306.996C231.179 306.352 231.428 305.411 231.428 304.175C231.428 302.95 231.179 302.021 230.68 301.389C230.188 300.75 229.459 300.431 228.492 300.431C227.537 300.431 226.816 300.744 226.33 301.371C225.844 301.998 225.6 302.933 225.6 304.175ZM235.417 304.843V303.507H239.732V304.843H235.417ZM247.088 300.501H244.636V309H243.177V300.501H241.454V299.842L243.177 299.314V298.778C243.177 296.411 244.211 295.228 246.28 295.228C246.789 295.228 247.387 295.33 248.073 295.535L247.695 296.704C247.132 296.522 246.652 296.432 246.253 296.432C245.702 296.432 245.295 296.616 245.032 296.985C244.768 297.349 244.636 297.935 244.636 298.743V299.367H247.088V300.501ZM250.305 309H248.846V299.367H250.305V309ZM248.723 296.757C248.723 296.423 248.805 296.18 248.969 296.027C249.133 295.869 249.338 295.79 249.584 295.79C249.819 295.79 250.021 295.869 250.191 296.027C250.361 296.186 250.446 296.429 250.446 296.757C250.446 297.085 250.361 297.331 250.191 297.495C250.021 297.653 249.819 297.732 249.584 297.732C249.338 297.732 249.133 297.653 248.969 297.495C248.805 297.331 248.723 297.085 248.723 296.757ZM29.1715 334L27.4049 328.349C27.2936 328.003 27.0856 327.218 26.7809 325.993H26.7106C26.4762 327.019 26.2711 327.81 26.0954 328.366L24.276 334H22.5885L19.9606 324.367H21.4899C22.111 326.787 22.5827 328.63 22.9049 329.896C23.233 331.161 23.4205 332.014 23.4674 332.453H23.5377C23.6022 332.119 23.7047 331.688 23.8454 331.161C23.9918 330.628 24.1178 330.206 24.2233 329.896L25.9899 324.367H27.5719L29.2946 329.896C29.6227 330.903 29.8454 331.75 29.9625 332.436H30.0329C30.0563 332.225 30.1178 331.899 30.2174 331.46C30.3229 331.021 30.9352 328.656 32.0543 324.367H33.5661L30.903 334H29.1715ZM37.4941 334H36.0351V324.367H37.4941V334ZM35.912 321.757C35.912 321.423 35.9941 321.18 36.1581 321.027C36.3222 320.869 36.5273 320.79 36.7734 320.79C37.0077 320.79 37.2099 320.869 37.3798 321.027C37.5497 321.186 37.6347 321.429 37.6347 321.757C37.6347 322.085 37.5497 322.331 37.3798 322.495C37.2099 322.653 37.0077 322.732 36.7734 322.732C36.5273 322.732 36.3222 322.653 36.1581 322.495C35.9941 322.331 35.912 322.085 35.912 321.757ZM45.7023 324.191C46.1301 324.191 46.5139 324.227 46.8537 324.297L46.6516 325.65C46.2531 325.562 45.9016 325.519 45.5969 325.519C44.8176 325.519 44.1496 325.835 43.593 326.468C43.0422 327.101 42.7668 327.889 42.7668 328.832V334H41.3078V324.367H42.5119L42.6789 326.151H42.7492C43.1066 325.524 43.5373 325.041 44.0412 324.701C44.5451 324.361 45.0988 324.191 45.7023 324.191ZM53.4448 334.176C52.021 334.176 50.896 333.742 50.0698 332.875C49.2495 332.008 48.8393 330.804 48.8393 329.263C48.8393 327.71 49.2202 326.477 49.9819 325.562C50.7495 324.648 51.7778 324.191 53.0669 324.191C54.2739 324.191 55.229 324.59 55.9321 325.387C56.6352 326.178 56.9868 327.224 56.9868 328.524V329.447H50.3511C50.3804 330.578 50.6645 331.437 51.2036 332.022C51.7485 332.608 52.5132 332.901 53.4975 332.901C54.5346 332.901 55.56 332.685 56.5737 332.251V333.552C56.0581 333.774 55.5688 333.933 55.1059 334.026C54.6489 334.126 54.0952 334.176 53.4448 334.176ZM53.0493 325.413C52.2759 325.413 51.6577 325.665 51.1948 326.169C50.7378 326.673 50.4682 327.37 50.3862 328.261H55.4223C55.4223 327.341 55.2173 326.638 54.8071 326.151C54.397 325.659 53.811 325.413 53.0493 325.413ZM64.5447 325.501H62.0925V334H60.6336V325.501H58.9109V324.842L60.6336 324.314V323.778C60.6336 321.411 61.6677 320.228 63.7361 320.228C64.2459 320.228 64.8435 320.33 65.5291 320.535L65.1511 321.704C64.5886 321.522 64.1082 321.432 63.7097 321.432C63.1589 321.432 62.7517 321.616 62.488 321.985C62.2244 322.349 62.0925 322.935 62.0925 323.743V324.367H64.5447V325.501ZM71.417 324.191C71.8448 324.191 72.2286 324.227 72.5684 324.297L72.3662 325.65C71.9678 325.562 71.6162 325.519 71.3116 325.519C70.5323 325.519 69.8643 325.835 69.3077 326.468C68.7569 327.101 68.4815 327.889 68.4815 328.832V334H67.0225V324.367H68.2266L68.3936 326.151H68.4639C68.8213 325.524 69.252 325.041 69.7559 324.701C70.2598 324.361 70.8135 324.191 71.417 324.191ZM87.3685 334V327.733C87.3685 326.966 87.2044 326.392 86.8763 326.011C86.5482 325.624 86.0384 325.431 85.347 325.431C84.4388 325.431 83.7679 325.691 83.3343 326.213C82.9007 326.734 82.6839 327.537 82.6839 328.621V334H81.2249V327.733C81.2249 326.966 81.0609 326.392 80.7327 326.011C80.4046 325.624 79.8919 325.431 79.1946 325.431C78.2806 325.431 77.6097 325.706 77.182 326.257C76.7601 326.802 76.5491 327.698 76.5491 328.946V334H75.0902V324.367H76.2767L76.514 325.686H76.5843C76.8597 325.217 77.2464 324.851 77.7445 324.587C78.2484 324.323 78.8109 324.191 79.432 324.191C80.9378 324.191 81.9222 324.736 82.3851 325.826H82.4554C82.7425 325.322 83.1585 324.924 83.7034 324.631C84.2484 324.338 84.8695 324.191 85.5667 324.191C86.6566 324.191 87.471 324.473 88.0101 325.035C88.555 325.592 88.8275 326.485 88.8275 327.716V334H87.3685ZM98.4859 334L98.1959 332.629H98.1256C97.6451 333.232 97.1646 333.643 96.6842 333.859C96.2096 334.07 95.6148 334.176 94.9 334.176C93.9449 334.176 93.1949 333.93 92.65 333.438C92.1109 332.945 91.8414 332.245 91.8414 331.337C91.8414 329.392 93.3971 328.372 96.5084 328.278L98.1432 328.226V327.628C98.1432 326.872 97.9791 326.315 97.651 325.958C97.3287 325.595 96.8102 325.413 96.0953 325.413C95.2926 325.413 94.3844 325.659 93.3707 326.151L92.9225 325.035C93.3971 324.777 93.9156 324.575 94.4781 324.429C95.0465 324.282 95.6148 324.209 96.1832 324.209C97.3316 324.209 98.1813 324.464 98.732 324.974C99.2887 325.483 99.567 326.301 99.567 327.426V334H98.4859ZM95.19 332.972C96.0982 332.972 96.8102 332.723 97.3258 332.225C97.8473 331.727 98.108 331.029 98.108 330.133V329.263L96.649 329.324C95.4889 329.365 94.651 329.547 94.1354 329.869C93.6256 330.186 93.3707 330.681 93.3707 331.354C93.3707 331.882 93.5289 332.283 93.8453 332.559C94.1676 332.834 94.6158 332.972 95.19 332.972ZM107.371 334.176C105.947 334.176 104.822 333.742 103.996 332.875C103.176 332.008 102.766 330.804 102.766 329.263C102.766 327.71 103.146 326.477 103.908 325.562C104.676 324.648 105.704 324.191 106.993 324.191C108.2 324.191 109.155 324.59 109.858 325.387C110.561 326.178 110.913 327.224 110.913 328.524V329.447H104.277C104.307 330.578 104.591 331.437 105.13 332.022C105.675 332.608 106.439 332.901 107.424 332.901C108.461 332.901 109.486 332.685 110.5 332.251V333.552C109.984 333.774 109.495 333.933 109.032 334.026C108.575 334.126 108.021 334.176 107.371 334.176ZM106.975 325.413C106.202 325.413 105.584 325.665 105.121 326.169C104.664 326.673 104.394 327.37 104.312 328.261H109.349C109.349 327.341 109.143 326.638 108.733 326.151C108.323 325.659 107.737 325.413 106.975 325.413ZM120.343 331.372C120.343 332.269 120.009 332.96 119.341 333.446C118.673 333.933 117.736 334.176 116.528 334.176C115.251 334.176 114.255 333.974 113.54 333.569V332.216C114.003 332.45 114.498 332.635 115.026 332.77C115.559 332.904 116.071 332.972 116.564 332.972C117.325 332.972 117.911 332.852 118.321 332.611C118.732 332.365 118.937 331.993 118.937 331.495C118.937 331.12 118.773 330.801 118.444 330.537C118.122 330.268 117.489 329.951 116.546 329.588C115.65 329.254 115.011 328.964 114.63 328.718C114.255 328.466 113.974 328.182 113.786 327.865C113.605 327.549 113.514 327.171 113.514 326.731C113.514 325.946 113.833 325.328 114.472 324.877C115.111 324.42 115.986 324.191 117.1 324.191C118.137 324.191 119.151 324.402 120.141 324.824L119.622 326.011C118.655 325.612 117.779 325.413 116.994 325.413C116.303 325.413 115.781 325.521 115.43 325.738C115.078 325.955 114.903 326.254 114.903 326.635C114.903 326.893 114.967 327.112 115.096 327.294C115.231 327.476 115.444 327.648 115.737 327.812C116.03 327.977 116.593 328.214 117.425 328.524C118.568 328.94 119.338 329.359 119.736 329.781C120.141 330.203 120.343 330.733 120.343 331.372ZM131.952 332.972C132.21 332.972 132.459 332.954 132.699 332.919C132.939 332.878 133.13 332.837 133.27 332.796V333.912C133.112 333.988 132.878 334.05 132.567 334.097C132.262 334.149 131.987 334.176 131.741 334.176C129.878 334.176 128.946 333.194 128.946 331.231V325.501H127.566V324.798L128.946 324.191L129.561 322.135H130.405V324.367H133.2V325.501H130.405V331.17C130.405 331.75 130.543 332.195 130.818 332.506C131.093 332.816 131.471 332.972 131.952 332.972ZM142.516 334V327.769C142.516 326.983 142.337 326.397 141.979 326.011C141.622 325.624 141.062 325.431 140.301 325.431C139.287 325.431 138.546 325.706 138.077 326.257C137.614 326.808 137.383 327.71 137.383 328.964V334H135.924V320.324H137.383V324.464C137.383 324.962 137.359 325.375 137.312 325.703H137.4C137.688 325.24 138.095 324.877 138.622 324.613C139.155 324.344 139.762 324.209 140.441 324.209C141.619 324.209 142.501 324.49 143.087 325.053C143.679 325.609 143.975 326.497 143.975 327.716V334H142.516ZM151.77 334.176C150.346 334.176 149.221 333.742 148.395 332.875C147.574 332.008 147.164 330.804 147.164 329.263C147.164 327.71 147.545 326.477 148.307 325.562C149.074 324.648 150.103 324.191 151.392 324.191C152.599 324.191 153.554 324.59 154.257 325.387C154.96 326.178 155.312 327.224 155.312 328.524V329.447H148.676C148.705 330.578 148.99 331.437 149.529 332.022C150.074 332.608 150.838 332.901 151.823 332.901C152.86 332.901 153.885 332.685 154.899 332.251V333.552C154.383 333.774 153.894 333.933 153.431 334.026C152.974 334.126 152.42 334.176 151.77 334.176ZM151.374 325.413C150.601 325.413 149.983 325.665 149.52 326.169C149.063 326.673 148.793 327.37 148.711 328.261H153.747C153.747 327.341 153.542 326.638 153.132 326.151C152.722 325.659 152.136 325.413 151.374 325.413ZM165.12 334V327.769C165.12 326.983 164.941 326.397 164.584 326.011C164.226 325.624 163.667 325.431 162.905 325.431C161.897 325.431 161.159 325.703 160.69 326.248C160.221 326.793 159.987 327.692 159.987 328.946V334H158.528V324.367H159.714L159.952 325.686H160.022C160.321 325.211 160.74 324.845 161.279 324.587C161.818 324.323 162.419 324.191 163.081 324.191C164.241 324.191 165.114 324.473 165.7 325.035C166.286 325.592 166.579 326.485 166.579 327.716V334H165.12ZM180.183 324.209C181.448 324.209 182.43 324.643 183.127 325.51C183.83 326.371 184.182 327.593 184.182 329.175C184.182 330.757 183.827 331.987 183.118 332.866C182.415 333.739 181.437 334.176 180.183 334.176C179.556 334.176 178.982 334.062 178.46 333.833C177.944 333.599 177.511 333.241 177.159 332.761H177.054L176.746 334H175.7V320.324H177.159V323.646C177.159 324.391 177.136 325.059 177.089 325.65H177.159C177.839 324.689 178.847 324.209 180.183 324.209ZM179.972 325.431C178.976 325.431 178.258 325.718 177.818 326.292C177.379 326.86 177.159 327.821 177.159 329.175C177.159 330.528 177.385 331.498 177.836 332.084C178.287 332.664 179.011 332.954 180.007 332.954C180.903 332.954 181.571 332.629 182.011 331.979C182.45 331.322 182.67 330.382 182.67 329.157C182.67 327.903 182.45 326.969 182.011 326.354C181.571 325.738 180.892 325.431 179.972 325.431ZM191.854 324.191C192.282 324.191 192.665 324.227 193.005 324.297L192.803 325.65C192.405 325.562 192.053 325.519 191.748 325.519C190.969 325.519 190.301 325.835 189.745 326.468C189.194 327.101 188.918 327.889 188.918 328.832V334H187.459V324.367H188.663L188.83 326.151H188.901C189.258 325.524 189.689 325.041 190.193 324.701C190.697 324.361 191.25 324.191 191.854 324.191ZM196.986 334H195.527V324.367H196.986V334ZM195.404 321.757C195.404 321.423 195.486 321.18 195.65 321.027C195.814 320.869 196.019 320.79 196.265 320.79C196.5 320.79 196.702 320.869 196.872 321.027C197.042 321.186 197.127 321.429 197.127 321.757C197.127 322.085 197.042 322.331 196.872 322.495C196.702 322.653 196.5 322.732 196.265 322.732C196.019 322.732 195.814 322.653 195.65 322.495C195.486 322.331 195.404 322.085 195.404 321.757ZM207.392 334V327.769C207.392 326.983 207.213 326.397 206.855 326.011C206.498 325.624 205.938 325.431 205.177 325.431C204.169 325.431 203.431 325.703 202.962 326.248C202.493 326.793 202.259 327.692 202.259 328.946V334H200.8V324.367H201.986L202.224 325.686H202.294C202.593 325.211 203.012 324.845 203.551 324.587C204.09 324.323 204.69 324.191 205.353 324.191C206.513 324.191 207.386 324.473 207.972 325.035C208.558 325.592 208.851 326.485 208.851 327.716V334H207.392ZM220.46 324.367V325.29L218.676 325.501C218.84 325.706 218.987 325.976 219.115 326.31C219.244 326.638 219.309 327.01 219.309 327.426C219.309 328.369 218.987 329.122 218.342 329.685C217.697 330.247 216.813 330.528 215.688 330.528C215.401 330.528 215.131 330.505 214.879 330.458C214.258 330.786 213.947 331.199 213.947 331.697C213.947 331.961 214.056 332.157 214.273 332.286C214.489 332.409 214.862 332.471 215.389 332.471H217.094C218.137 332.471 218.937 332.69 219.493 333.13C220.056 333.569 220.337 334.208 220.337 335.046C220.337 336.112 219.909 336.924 219.054 337.48C218.198 338.043 216.95 338.324 215.31 338.324C214.05 338.324 213.077 338.09 212.392 337.621C211.712 337.152 211.372 336.49 211.372 335.635C211.372 335.049 211.56 334.542 211.935 334.114C212.31 333.687 212.837 333.396 213.517 333.244C213.271 333.133 213.063 332.96 212.893 332.726C212.729 332.491 212.647 332.219 212.647 331.908C212.647 331.557 212.74 331.249 212.928 330.985C213.115 330.722 213.411 330.467 213.816 330.221C213.318 330.016 212.91 329.667 212.594 329.175C212.283 328.683 212.128 328.12 212.128 327.487C212.128 326.433 212.445 325.621 213.077 325.053C213.71 324.479 214.607 324.191 215.767 324.191C216.271 324.191 216.725 324.25 217.129 324.367H220.46ZM212.779 335.617C212.779 336.139 212.998 336.534 213.438 336.804C213.877 337.073 214.507 337.208 215.327 337.208C216.552 337.208 217.457 337.023 218.043 336.654C218.635 336.291 218.931 335.796 218.931 335.169C218.931 334.647 218.77 334.284 218.447 334.079C218.125 333.88 217.519 333.78 216.628 333.78H214.879C214.217 333.78 213.701 333.938 213.332 334.255C212.963 334.571 212.779 335.025 212.779 335.617ZM213.57 327.452C213.57 328.126 213.76 328.636 214.141 328.981C214.522 329.327 215.052 329.5 215.732 329.5C217.156 329.5 217.867 328.809 217.867 327.426C217.867 325.979 217.147 325.255 215.705 325.255C215.02 325.255 214.492 325.439 214.123 325.809C213.754 326.178 213.57 326.726 213.57 327.452ZM224.617 334H223.158V324.367H224.617V334ZM223.035 321.757C223.035 321.423 223.117 321.18 223.281 321.027C223.445 320.869 223.65 320.79 223.896 320.79C224.13 320.79 224.333 320.869 224.502 321.027C224.672 321.186 224.757 321.429 224.757 321.757C224.757 322.085 224.672 322.331 224.502 322.495C224.333 322.653 224.13 322.732 223.896 322.732C223.65 322.732 223.445 322.653 223.281 322.495C223.117 322.331 223.035 322.085 223.035 321.757ZM235.022 334V327.769C235.022 326.983 234.844 326.397 234.486 326.011C234.129 325.624 233.569 325.431 232.807 325.431C231.8 325.431 231.061 325.703 230.593 326.248C230.124 326.793 229.889 327.692 229.889 328.946V334H228.43V324.367H229.617L229.854 325.686H229.925C230.223 325.211 230.642 324.845 231.181 324.587C231.721 324.323 232.321 324.191 232.983 324.191C234.143 324.191 235.016 324.473 235.602 325.035C236.188 325.592 236.481 326.485 236.481 327.716V334H235.022ZM248.091 324.367V325.29L246.307 325.501C246.471 325.706 246.617 325.976 246.746 326.31C246.875 326.638 246.94 327.01 246.94 327.426C246.94 328.369 246.617 329.122 245.973 329.685C245.328 330.247 244.443 330.528 243.318 330.528C243.031 330.528 242.762 330.505 242.51 330.458C241.889 330.786 241.578 331.199 241.578 331.697C241.578 331.961 241.687 332.157 241.903 332.286C242.12 332.409 242.492 332.471 243.02 332.471H244.725C245.768 332.471 246.567 332.69 247.124 333.13C247.687 333.569 247.968 334.208 247.968 335.046C247.968 336.112 247.54 336.924 246.685 337.48C245.829 338.043 244.581 338.324 242.941 338.324C241.681 338.324 240.708 338.09 240.023 337.621C239.343 337.152 239.003 336.49 239.003 335.635C239.003 335.049 239.191 334.542 239.566 334.114C239.941 333.687 240.468 333.396 241.148 333.244C240.901 333.133 240.693 332.96 240.524 332.726C240.359 332.491 240.277 332.219 240.277 331.908C240.277 331.557 240.371 331.249 240.559 330.985C240.746 330.722 241.042 330.467 241.446 330.221C240.948 330.016 240.541 329.667 240.225 329.175C239.914 328.683 239.759 328.12 239.759 327.487C239.759 326.433 240.075 325.621 240.708 325.053C241.341 324.479 242.237 324.191 243.398 324.191C243.901 324.191 244.356 324.25 244.76 324.367H248.091ZM240.409 335.617C240.409 336.139 240.629 336.534 241.068 336.804C241.508 337.073 242.138 337.208 242.958 337.208C244.183 337.208 245.088 337.023 245.674 336.654C246.266 336.291 246.562 335.796 246.562 335.169C246.562 334.647 246.4 334.284 246.078 334.079C245.756 333.88 245.149 333.78 244.259 333.78H242.51C241.848 333.78 241.332 333.938 240.963 334.255C240.594 334.571 240.409 335.025 240.409 335.617ZM241.2 327.452C241.2 328.126 241.391 328.636 241.772 328.981C242.152 329.327 242.683 329.5 243.362 329.5C244.786 329.5 245.498 328.809 245.498 327.426C245.498 325.979 244.777 325.255 243.336 325.255C242.65 325.255 242.123 325.439 241.754 325.809C241.385 326.178 241.2 326.726 241.2 327.452ZM43.6285 357.972C43.8863 357.972 44.1353 357.954 44.3755 357.919C44.6158 357.878 44.8062 357.837 44.9468 357.796V358.912C44.7886 358.988 44.5543 359.05 44.2437 359.097C43.939 359.149 43.6636 359.176 43.4175 359.176C41.5543 359.176 40.6226 358.194 40.6226 356.231V350.501H39.2427V349.798L40.6226 349.191L41.2379 347.135H42.0816V349.367H44.8765V350.501H42.0816V356.17C42.0816 356.75 42.2193 357.195 42.4947 357.506C42.7701 357.816 43.148 357.972 43.6285 357.972ZM54.1922 359V352.769C54.1922 351.983 54.0135 351.397 53.6561 351.011C53.2987 350.624 52.7391 350.431 51.9774 350.431C50.9637 350.431 50.2225 350.706 49.7538 351.257C49.2909 351.808 49.0594 352.71 49.0594 353.964V359H47.6004V345.324H49.0594V349.464C49.0594 349.962 49.036 350.375 48.9891 350.703H49.077C49.3641 350.24 49.7713 349.877 50.2987 349.613C50.8319 349.344 51.4383 349.209 52.118 349.209C53.2957 349.209 54.1776 349.49 54.7635 350.053C55.3553 350.609 55.6512 351.497 55.6512 352.716V359H54.1922ZM67.6915 354.175C67.6915 355.745 67.296 356.973 66.505 357.857C65.714 358.736 64.6212 359.176 63.2267 359.176C62.3654 359.176 61.6007 358.974 60.9327 358.569C60.2648 358.165 59.7491 357.585 59.3859 356.829C59.0226 356.073 58.8409 355.188 58.8409 354.175C58.8409 352.604 59.2335 351.383 60.0187 350.51C60.8038 349.631 61.8937 349.191 63.2882 349.191C64.6359 349.191 65.7052 349.64 66.4962 350.536C67.2931 351.433 67.6915 352.646 67.6915 354.175ZM60.3527 354.175C60.3527 355.405 60.5988 356.343 61.0909 356.987C61.5831 357.632 62.3068 357.954 63.2618 357.954C64.2169 357.954 64.9406 357.635 65.4327 356.996C65.9308 356.352 66.1798 355.411 66.1798 354.175C66.1798 352.95 65.9308 352.021 65.4327 351.389C64.9406 350.75 64.2111 350.431 63.2443 350.431C62.2892 350.431 61.5685 350.744 61.0822 351.371C60.5958 351.998 60.3527 352.933 60.3527 354.175ZM77.1918 356.372C77.1918 357.269 76.8578 357.96 76.1898 358.446C75.5219 358.933 74.5844 359.176 73.3773 359.176C72.1 359.176 71.1039 358.974 70.3891 358.569V357.216C70.852 357.45 71.3471 357.635 71.8744 357.77C72.4076 357.904 72.9203 357.972 73.4125 357.972C74.1742 357.972 74.7602 357.852 75.1703 357.611C75.5805 357.365 75.7856 356.993 75.7856 356.495C75.7856 356.12 75.6215 355.801 75.2934 355.537C74.9711 355.268 74.3383 354.951 73.3949 354.588C72.4984 354.254 71.8598 353.964 71.4789 353.718C71.1039 353.466 70.8227 353.182 70.6352 352.865C70.4535 352.549 70.3627 352.171 70.3627 351.731C70.3627 350.946 70.682 350.328 71.3207 349.877C71.9594 349.42 72.8354 349.191 73.9486 349.191C74.9857 349.191 75.9994 349.402 76.9897 349.824L76.4711 351.011C75.5043 350.612 74.6283 350.413 73.8432 350.413C73.1518 350.413 72.6303 350.521 72.2787 350.738C71.9272 350.955 71.7514 351.254 71.7514 351.635C71.7514 351.893 71.8158 352.112 71.9447 352.294C72.0795 352.476 72.2934 352.648 72.5863 352.812C72.8793 352.977 73.4418 353.214 74.2738 353.524C75.4164 353.94 76.1869 354.359 76.5854 354.781C76.9897 355.203 77.1918 355.733 77.1918 356.372ZM84.363 359.176C82.9391 359.176 81.8141 358.742 80.988 357.875C80.1677 357.008 79.7575 355.804 79.7575 354.263C79.7575 352.71 80.1384 351.477 80.9001 350.562C81.6677 349.648 82.696 349.191 83.985 349.191C85.1921 349.191 86.1472 349.59 86.8503 350.387C87.5534 351.178 87.905 352.224 87.905 353.524V354.447H81.2692C81.2985 355.578 81.5827 356.437 82.1218 357.022C82.6667 357.608 83.4313 357.901 84.4157 357.901C85.4528 357.901 86.4782 357.685 87.4919 357.251V358.552C86.9763 358.774 86.487 358.933 86.0241 359.026C85.5671 359.126 85.0134 359.176 84.363 359.176ZM83.9675 350.413C83.194 350.413 82.5759 350.665 82.113 351.169C81.6559 351.673 81.3864 352.37 81.3044 353.261H86.3405C86.3405 352.341 86.1354 351.638 85.7253 351.151C85.3151 350.659 84.7292 350.413 83.9675 350.413ZM99.6282 357.972C99.886 357.972 100.135 357.954 100.375 357.919C100.615 357.878 100.806 357.837 100.947 357.796V358.912C100.788 358.988 100.554 359.05 100.243 359.097C99.9387 359.149 99.6633 359.176 99.4172 359.176C97.5539 359.176 96.6223 358.194 96.6223 356.231V350.501H95.2424V349.798L96.6223 349.191L97.2375 347.135H98.0813V349.367H100.876V350.501H98.0813V356.17C98.0813 356.75 98.219 357.195 98.4944 357.506C98.7698 357.816 99.1477 357.972 99.6282 357.972ZM111.915 354.175C111.915 355.745 111.519 356.973 110.728 357.857C109.937 358.736 108.844 359.176 107.45 359.176C106.588 359.176 105.824 358.974 105.156 358.569C104.488 358.165 103.972 357.585 103.609 356.829C103.246 356.073 103.064 355.188 103.064 354.175C103.064 352.604 103.457 351.383 104.242 350.51C105.027 349.631 106.117 349.191 107.511 349.191C108.859 349.191 109.928 349.64 110.719 350.536C111.516 351.433 111.915 352.646 111.915 354.175ZM104.576 354.175C104.576 355.405 104.822 356.343 105.314 356.987C105.806 357.632 106.53 357.954 107.485 357.954C108.44 357.954 109.164 357.635 109.656 356.996C110.154 356.352 110.403 355.411 110.403 354.175C110.403 352.95 110.154 352.021 109.656 351.389C109.164 350.75 108.434 350.431 107.467 350.431C106.512 350.431 105.792 350.744 105.305 351.371C104.819 351.998 104.576 352.933 104.576 354.175ZM127.189 359V352.769C127.189 351.983 127.01 351.397 126.652 351.011C126.295 350.624 125.735 350.431 124.974 350.431C123.96 350.431 123.219 350.706 122.75 351.257C122.287 351.808 122.056 352.71 122.056 353.964V359H120.597V345.324H122.056V349.464C122.056 349.962 122.032 350.375 121.985 350.703H122.073C122.36 350.24 122.768 349.877 123.295 349.613C123.828 349.344 124.435 349.209 125.114 349.209C126.292 349.209 127.174 349.49 127.76 350.053C128.352 350.609 128.648 351.497 128.648 352.716V359H127.189ZM133.832 359H132.373V349.367H133.832V359ZM132.25 346.757C132.25 346.423 132.332 346.18 132.496 346.027C132.661 345.869 132.866 345.79 133.112 345.79C133.346 345.79 133.548 345.869 133.718 346.027C133.888 346.186 133.973 346.429 133.973 346.757C133.973 347.085 133.888 347.331 133.718 347.495C133.548 347.653 133.346 347.732 133.112 347.732C132.866 347.732 132.661 347.653 132.496 347.495C132.332 347.331 132.25 347.085 132.25 346.757ZM145.53 349.367V350.29L143.746 350.501C143.91 350.706 144.056 350.976 144.185 351.31C144.314 351.638 144.379 352.01 144.379 352.426C144.379 353.369 144.056 354.122 143.412 354.685C142.767 355.247 141.882 355.528 140.757 355.528C140.47 355.528 140.201 355.505 139.949 355.458C139.328 355.786 139.017 356.199 139.017 356.697C139.017 356.961 139.126 357.157 139.342 357.286C139.559 357.409 139.931 357.471 140.459 357.471H142.164C143.207 357.471 144.006 357.69 144.563 358.13C145.126 358.569 145.407 359.208 145.407 360.046C145.407 361.112 144.979 361.924 144.124 362.48C143.268 363.043 142.02 363.324 140.38 363.324C139.12 363.324 138.147 363.09 137.462 362.621C136.782 362.152 136.442 361.49 136.442 360.635C136.442 360.049 136.63 359.542 137.005 359.114C137.38 358.687 137.907 358.396 138.587 358.244C138.34 358.133 138.132 357.96 137.963 357.726C137.798 357.491 137.716 357.219 137.716 356.908C137.716 356.557 137.81 356.249 137.998 355.985C138.185 355.722 138.481 355.467 138.885 355.221C138.387 355.016 137.98 354.667 137.664 354.175C137.353 353.683 137.198 353.12 137.198 352.487C137.198 351.433 137.514 350.621 138.147 350.053C138.78 349.479 139.676 349.191 140.837 349.191C141.34 349.191 141.795 349.25 142.199 349.367H145.53ZM137.848 360.617C137.848 361.139 138.068 361.534 138.507 361.804C138.947 362.073 139.577 362.208 140.397 362.208C141.622 362.208 142.527 362.023 143.113 361.654C143.705 361.291 144.001 360.796 144.001 360.169C144.001 359.647 143.839 359.284 143.517 359.079C143.195 358.88 142.589 358.78 141.698 358.78H139.949C139.287 358.78 138.771 358.938 138.402 359.255C138.033 359.571 137.848 360.025 137.848 360.617ZM138.639 352.452C138.639 353.126 138.83 353.636 139.211 353.981C139.591 354.327 140.122 354.5 140.801 354.5C142.225 354.5 142.937 353.809 142.937 352.426C142.937 350.979 142.216 350.255 140.775 350.255C140.089 350.255 139.562 350.439 139.193 350.809C138.824 351.178 138.639 351.726 138.639 352.452ZM154.819 359V352.769C154.819 351.983 154.641 351.397 154.283 351.011C153.926 350.624 153.366 350.431 152.604 350.431C151.591 350.431 150.85 350.706 150.381 351.257C149.918 351.808 149.686 352.71 149.686 353.964V359H148.227V345.324H149.686V349.464C149.686 349.962 149.663 350.375 149.616 350.703H149.704C149.991 350.24 150.398 349.877 150.926 349.613C151.459 349.344 152.065 349.209 152.745 349.209C153.923 349.209 154.805 349.49 155.391 350.053C155.982 350.609 156.278 351.497 156.278 352.716V359H154.819ZM169.742 350.501H167.29V359H165.831V350.501H164.108V349.842L165.831 349.314V348.778C165.831 346.411 166.865 345.228 168.933 345.228C169.443 345.228 170.041 345.33 170.726 345.535L170.348 346.704C169.786 346.522 169.305 346.432 168.907 346.432C168.356 346.432 167.949 346.616 167.685 346.985C167.421 347.349 167.29 347.935 167.29 348.743V349.367H169.742V350.501ZM172.958 359H171.499V349.367H172.958V359ZM171.376 346.757C171.376 346.423 171.458 346.18 171.623 346.027C171.787 345.869 171.992 345.79 172.238 345.79C172.472 345.79 172.674 345.869 172.844 346.027C173.014 346.186 173.099 346.429 173.099 346.757C173.099 347.085 173.014 347.331 172.844 347.495C172.674 347.653 172.472 347.732 172.238 347.732C171.992 347.732 171.787 347.653 171.623 347.495C171.458 347.331 171.376 347.085 171.376 346.757ZM183.329 357.708H183.25C182.576 358.687 181.568 359.176 180.226 359.176C178.967 359.176 177.985 358.745 177.282 357.884C176.585 357.022 176.236 355.798 176.236 354.21C176.236 352.622 176.588 351.389 177.291 350.51C177.994 349.631 178.972 349.191 180.226 349.191C181.533 349.191 182.535 349.666 183.232 350.615H183.346L183.285 349.921L183.25 349.244V345.324H184.709V359H183.522L183.329 357.708ZM180.411 357.954C181.407 357.954 182.128 357.685 182.573 357.146C183.024 356.601 183.25 355.725 183.25 354.518V354.21C183.25 352.845 183.021 351.872 182.564 351.292C182.113 350.706 181.389 350.413 180.393 350.413C179.538 350.413 178.882 350.747 178.425 351.415C177.973 352.077 177.748 353.015 177.748 354.228C177.748 355.458 177.973 356.387 178.425 357.014C178.876 357.641 179.538 357.954 180.411 357.954ZM192.601 359.176C191.177 359.176 190.052 358.742 189.226 357.875C188.405 357.008 187.995 355.804 187.995 354.263C187.995 352.71 188.376 351.477 189.138 350.562C189.905 349.648 190.934 349.191 192.223 349.191C193.43 349.191 194.385 349.59 195.088 350.387C195.791 351.178 196.143 352.224 196.143 353.524V354.447H189.507C189.536 355.578 189.82 356.437 190.359 357.022C190.904 357.608 191.669 357.901 192.653 357.901C193.69 357.901 194.716 357.685 195.73 357.251V358.552C195.214 358.774 194.725 358.933 194.262 359.026C193.805 359.126 193.251 359.176 192.601 359.176ZM192.205 350.413C191.432 350.413 190.814 350.665 190.351 351.169C189.894 351.673 189.624 352.37 189.542 353.261H194.578C194.578 352.341 194.373 351.638 193.963 351.151C193.553 350.659 192.967 350.413 192.205 350.413ZM200.818 359H199.359V345.324H200.818V359ZM206.09 359H204.631V349.367H206.09V359ZM204.508 346.757C204.508 346.423 204.59 346.18 204.755 346.027C204.919 345.869 205.124 345.79 205.37 345.79C205.604 345.79 205.806 345.869 205.976 346.027C206.146 346.186 206.231 346.429 206.231 346.757C206.231 347.085 206.146 347.331 205.976 347.495C205.806 347.653 205.604 347.732 205.37 347.732C205.124 347.732 204.919 347.653 204.755 347.495C204.59 347.331 204.508 347.085 204.508 346.757ZM213.016 357.972C213.273 357.972 213.522 357.954 213.763 357.919C214.003 357.878 214.193 357.837 214.334 357.796V358.912C214.176 358.988 213.941 359.05 213.631 359.097C213.326 359.149 213.051 359.176 212.805 359.176C210.941 359.176 210.01 358.194 210.01 356.231V350.501H208.63V349.798L210.01 349.191L210.625 347.135H211.469V349.367H214.264V350.501H211.469V356.17C211.469 356.75 211.606 357.195 211.882 357.506C212.157 357.816 212.535 357.972 213.016 357.972ZM215.458 349.367H217.023L219.132 354.86C219.595 356.114 219.882 357.02 219.993 357.576H220.064C220.14 357.277 220.298 356.768 220.538 356.047C220.784 355.32 221.581 353.094 222.929 349.367H224.493L220.354 360.336C219.944 361.42 219.463 362.188 218.912 362.639C218.367 363.096 217.696 363.324 216.9 363.324C216.454 363.324 216.015 363.274 215.581 363.175V362.006C215.903 362.076 216.264 362.111 216.662 362.111C217.664 362.111 218.379 361.549 218.807 360.424L219.343 359.053L215.458 349.367ZM226.567 358.068C226.567 357.676 226.655 357.38 226.831 357.181C227.012 356.976 227.27 356.873 227.604 356.873C227.944 356.873 228.207 356.976 228.395 357.181C228.588 357.38 228.685 357.676 228.685 358.068C228.685 358.449 228.588 358.742 228.395 358.947C228.202 359.152 227.938 359.255 227.604 359.255C227.305 359.255 227.056 359.164 226.857 358.982C226.664 358.795 226.567 358.49 226.567 358.068Z" fill="#3D5A80"/>
</svg>
