<svg width="269" height="383" viewBox="0 0 269 383" fill="none" xmlns="http://www.w3.org/2000/svg">
<path d="M28.2131 225V207.867H31.8459V225H28.2131ZM52.3177 225H47.7005L40.2473 212.039H40.1419C40.2903 214.328 40.3645 215.961 40.3645 216.938V225H37.1184V207.867H41.7005L49.1419 220.699H49.2239C49.1067 218.473 49.0481 216.898 49.0481 215.977V207.867H52.3177V225ZM61.1761 225H57.6019V207.867H67.4222V210.844H61.1761V215.262H66.9886V218.227H61.1761V225ZM87.2845 216.41C87.2845 219.246 86.5814 221.426 85.1752 222.949C83.7689 224.473 81.7533 225.234 79.1283 225.234C76.5033 225.234 74.4877 224.473 73.0814 222.949C71.6752 221.426 70.972 219.238 70.972 216.387C70.972 213.535 71.6752 211.359 73.0814 209.859C74.4955 208.352 76.5189 207.598 79.1517 207.598C81.7845 207.598 83.7963 208.355 85.1869 209.871C86.5853 211.387 87.2845 213.566 87.2845 216.41ZM74.7806 216.41C74.7806 218.324 75.1439 219.766 75.8705 220.734C76.597 221.703 77.683 222.188 79.1283 222.188C82.0267 222.188 83.4759 220.262 83.4759 216.41C83.4759 212.551 82.0345 210.621 79.1517 210.621C77.7064 210.621 76.6166 211.109 75.8822 212.086C75.1478 213.055 74.7806 214.496 74.7806 216.41ZM95.4281 215.473H96.6C97.7484 215.473 98.5961 215.281 99.143 214.898C99.6898 214.516 99.9633 213.914 99.9633 213.094C99.9633 212.281 99.682 211.703 99.1195 211.359C98.5648 211.016 97.7016 210.844 96.5297 210.844H95.4281V215.473ZM95.4281 218.426V225H91.7953V207.867H96.7875C99.1156 207.867 100.838 208.293 101.955 209.145C103.073 209.988 103.631 211.273 103.631 213C103.631 214.008 103.354 214.906 102.799 215.695C102.245 216.477 101.459 217.09 100.444 217.535C103.022 221.387 104.702 223.875 105.483 225H101.452L97.3617 218.426H95.4281ZM115.853 225L111.728 211.559H111.623C111.771 214.293 111.845 216.117 111.845 217.031V225H108.599V207.867H113.544L117.599 220.969H117.669L121.97 207.867H126.915V225H123.529V216.891C123.529 216.508 123.533 216.066 123.54 215.566C123.556 215.066 123.611 213.738 123.705 211.582H123.599L119.181 225H115.853ZM142.688 225L141.446 220.922H135.2L133.958 225H130.043L136.09 207.797H140.532L146.602 225H142.688ZM140.579 217.875C139.43 214.18 138.782 212.09 138.633 211.605C138.493 211.121 138.391 210.738 138.329 210.457C138.071 211.457 137.333 213.93 136.114 217.875H140.579ZM156.339 225H152.707V210.891H148.054V207.867H160.992V210.891H156.339V225ZM164.588 225V207.867H168.221V225H164.588ZM189.045 216.41C189.045 219.246 188.341 221.426 186.935 222.949C185.529 224.473 183.513 225.234 180.888 225.234C178.263 225.234 176.248 224.473 174.841 222.949C173.435 221.426 172.732 219.238 172.732 216.387C172.732 213.535 173.435 211.359 174.841 209.859C176.255 208.352 178.279 207.598 180.912 207.598C183.545 207.598 185.556 208.355 186.947 209.871C188.345 211.387 189.045 213.566 189.045 216.41ZM176.541 216.41C176.541 218.324 176.904 219.766 177.63 220.734C178.357 221.703 179.443 222.188 180.888 222.188C183.787 222.188 185.236 220.262 185.236 216.41C185.236 212.551 183.795 210.621 180.912 210.621C179.466 210.621 178.377 211.109 177.642 212.086C176.908 213.055 176.541 214.496 176.541 216.41ZM208.755 225H204.137L196.684 212.039H196.579C196.727 214.328 196.801 215.961 196.801 216.938V225H193.555V207.867H198.137L205.579 220.699H205.661C205.544 218.473 205.485 216.898 205.485 215.977V207.867H208.755V225ZM224.527 225L223.285 220.922H217.039L215.797 225H211.883L217.929 207.797H222.371L228.441 225H224.527ZM222.418 217.875C221.269 214.18 220.621 212.09 220.472 211.605C220.332 211.121 220.23 210.738 220.168 210.457C219.91 211.457 219.172 213.93 217.953 217.875H222.418ZM231.569 225V207.867H235.202V222H242.151V225H231.569ZM53.3489 258L52.1067 253.922H45.8606L44.6184 258H40.7044L46.7513 240.797H51.1927L57.263 258H53.3489ZM51.2395 250.875C50.0911 247.18 49.4427 245.09 49.2942 244.605C49.1536 244.121 49.052 243.738 48.9895 243.457C48.7317 244.457 47.9934 246.93 46.7747 250.875H51.2395ZM64.0238 248.473H65.1956C66.3441 248.473 67.1917 248.281 67.7386 247.898C68.2855 247.516 68.5589 246.914 68.5589 246.094C68.5589 245.281 68.2777 244.703 67.7152 244.359C67.1605 244.016 66.2972 243.844 65.1253 243.844H64.0238V248.473ZM64.0238 251.426V258H60.3909V240.867H65.3831C67.7113 240.867 69.4339 241.293 70.5511 242.145C71.6683 242.988 72.2269 244.273 72.2269 246C72.2269 247.008 71.9495 247.906 71.3948 248.695C70.8402 249.477 70.055 250.09 69.0394 250.535C71.6175 254.387 73.2972 256.875 74.0784 258H70.0472L65.9573 251.426H64.0238ZM84.472 243.645C83.1048 243.645 82.0462 244.16 81.2962 245.191C80.5462 246.215 80.1712 247.645 80.1712 249.48C80.1712 253.301 81.6048 255.211 84.472 255.211C85.6752 255.211 87.1322 254.91 88.8431 254.309V257.355C87.4369 257.941 85.8666 258.234 84.1322 258.234C81.64 258.234 79.7337 257.48 78.4134 255.973C77.0931 254.457 76.433 252.285 76.433 249.457C76.433 247.676 76.7572 246.117 77.4056 244.781C78.0541 243.438 78.9837 242.41 80.1947 241.699C81.4134 240.98 82.8392 240.621 84.472 240.621C86.1361 240.621 87.808 241.023 89.4877 241.828L88.3158 244.781C87.6752 244.477 87.0306 244.211 86.3822 243.984C85.7337 243.758 85.097 243.645 84.472 243.645ZM107.498 258H103.877V250.605H97.0922V258H93.4594V240.867H97.0922V247.582H103.877V240.867H107.498V258ZM112.794 258V240.867H116.427V258H112.794ZM128.309 258H124.676V243.891H120.024V240.867H132.961V243.891H128.309V258ZM146.425 258H136.558V240.867H146.425V243.844H140.191V247.605H145.992V250.582H140.191V255H146.425V258ZM158.249 243.645C156.881 243.645 155.823 244.16 155.073 245.191C154.323 246.215 153.948 247.645 153.948 249.48C153.948 253.301 155.381 255.211 158.249 255.211C159.452 255.211 160.909 254.91 162.62 254.309V257.355C161.213 257.941 159.643 258.234 157.909 258.234C155.417 258.234 153.51 257.48 152.19 255.973C150.87 254.457 150.21 252.285 150.21 249.457C150.21 247.676 150.534 246.117 151.182 244.781C151.831 243.438 152.76 242.41 153.971 241.699C155.19 240.98 156.616 240.621 158.249 240.621C159.913 240.621 161.585 241.023 163.264 241.828L162.092 244.781C161.452 244.477 160.807 244.211 160.159 243.984C159.51 243.758 158.874 243.645 158.249 243.645ZM173.845 258H170.212V243.891H165.56V240.867H178.498V243.891H173.845V258ZM196.04 240.867V251.953C196.04 253.219 195.755 254.328 195.184 255.281C194.622 256.234 193.805 256.965 192.735 257.473C191.665 257.98 190.399 258.234 188.938 258.234C186.735 258.234 185.024 257.672 183.805 256.547C182.587 255.414 181.977 253.867 181.977 251.906V240.867H185.598V251.355C185.598 252.676 185.864 253.645 186.395 254.262C186.926 254.879 187.805 255.188 189.032 255.188C190.219 255.188 191.079 254.879 191.61 254.262C192.149 253.637 192.419 252.66 192.419 251.332V240.867H196.04ZM204.828 248.473H206C207.148 248.473 207.996 248.281 208.543 247.898C209.09 247.516 209.363 246.914 209.363 246.094C209.363 245.281 209.082 244.703 208.519 244.359C207.965 244.016 207.101 243.844 205.929 243.844H204.828V248.473ZM204.828 251.426V258H201.195V240.867H206.187C208.515 240.867 210.238 241.293 211.355 242.145C212.472 242.988 213.031 244.273 213.031 246C213.031 247.008 212.754 247.906 212.199 248.695C211.644 249.477 210.859 250.09 209.843 250.535C212.422 254.387 214.101 256.875 214.883 258H210.851L206.761 251.426H204.828ZM227.866 258H217.999V240.867H227.866V243.844H221.632V247.605H227.432V250.582H221.632V255H227.866V258Z" fill="#3D5A80"/>
<path d="M34.4622 277.15V285.465C34.4622 286.93 34.0198 288.081 33.135 288.919C32.2503 289.757 31.0345 290.176 29.4876 290.176C27.9407 290.176 26.7425 289.754 25.8929 288.91C25.0491 288.066 24.6272 286.906 24.6272 285.43V277.15H26.1214V285.535C26.1214 286.607 26.4143 287.431 27.0003 288.005C27.5862 288.579 28.4475 288.866 29.5843 288.866C30.6682 288.866 31.5032 288.579 32.0891 288.005C32.6751 287.425 32.968 286.596 32.968 285.518V277.15H34.4622ZM44.5865 287.372C44.5865 288.269 44.2525 288.96 43.5845 289.446C42.9166 289.933 41.9791 290.176 40.772 290.176C39.4947 290.176 38.4986 289.974 37.7838 289.569V288.216C38.2466 288.45 38.7418 288.635 39.2691 288.77C39.8023 288.904 40.315 288.972 40.8072 288.972C41.5689 288.972 42.1548 288.852 42.565 288.611C42.9752 288.365 43.1802 287.993 43.1802 287.495C43.1802 287.12 43.0162 286.801 42.688 286.537C42.3658 286.268 41.733 285.951 40.7896 285.588C39.8931 285.254 39.2545 284.964 38.8736 284.718C38.4986 284.466 38.2173 284.182 38.0298 283.865C37.8482 283.549 37.7574 283.171 37.7574 282.731C37.7574 281.946 38.0767 281.328 38.7154 280.877C39.3541 280.42 40.23 280.191 41.3433 280.191C42.3804 280.191 43.3941 280.402 44.3843 280.824L43.8658 282.011C42.899 281.612 42.023 281.413 41.2379 281.413C40.5464 281.413 40.025 281.521 39.6734 281.738C39.3218 281.955 39.1461 282.254 39.1461 282.635C39.1461 282.893 39.2105 283.112 39.3394 283.294C39.4742 283.476 39.688 283.648 39.981 283.812C40.274 283.977 40.8365 284.214 41.6685 284.524C42.8111 284.94 43.5816 285.359 43.98 285.781C44.3843 286.203 44.5865 286.733 44.5865 287.372ZM49.1473 290H47.6883V280.367H49.1473V290ZM47.5653 277.757C47.5653 277.423 47.6473 277.18 47.8114 277.027C47.9754 276.869 48.1805 276.79 48.4266 276.79C48.661 276.79 48.8631 276.869 49.0331 277.027C49.203 277.186 49.2879 277.429 49.2879 277.757C49.2879 278.085 49.203 278.331 49.0331 278.495C48.8631 278.653 48.661 278.732 48.4266 278.732C48.1805 278.732 47.9754 278.653 47.8114 278.495C47.6473 278.331 47.5653 278.085 47.5653 277.757ZM59.5529 290V283.769C59.5529 282.983 59.3741 282.397 59.0167 282.011C58.6593 281.624 58.0997 281.431 57.338 281.431C56.3302 281.431 55.5919 281.703 55.1232 282.248C54.6544 282.793 54.42 283.692 54.42 284.946V290H52.9611V280.367H54.1476L54.3849 281.686H54.4552C54.754 281.211 55.173 280.845 55.712 280.587C56.2511 280.323 56.8517 280.191 57.5138 280.191C58.6739 280.191 59.547 280.473 60.1329 281.035C60.7189 281.592 61.0118 282.485 61.0118 283.716V290H59.5529ZM72.6215 280.367V281.29L70.8373 281.501C71.0014 281.706 71.1479 281.976 71.2768 282.31C71.4057 282.638 71.4701 283.01 71.4701 283.426C71.4701 284.369 71.1479 285.122 70.5033 285.685C69.8588 286.247 68.974 286.528 67.849 286.528C67.5619 286.528 67.2924 286.505 67.0404 286.458C66.4193 286.786 66.1088 287.199 66.1088 287.697C66.1088 287.961 66.2172 288.157 66.434 288.286C66.6508 288.409 67.0229 288.471 67.5502 288.471H69.2553C70.2982 288.471 71.098 288.69 71.6547 289.13C72.2172 289.569 72.4984 290.208 72.4984 291.046C72.4984 292.112 72.0707 292.924 71.2152 293.48C70.3598 294.043 69.1117 294.324 67.4711 294.324C66.2113 294.324 65.2387 294.09 64.5531 293.621C63.8734 293.152 63.5336 292.49 63.5336 291.635C63.5336 291.049 63.7211 290.542 64.0961 290.114C64.4711 289.687 64.9984 289.396 65.6781 289.244C65.432 289.133 65.224 288.96 65.0541 288.726C64.89 288.491 64.808 288.219 64.808 287.908C64.808 287.557 64.9018 287.249 65.0893 286.985C65.2768 286.722 65.5727 286.467 65.977 286.221C65.4789 286.016 65.0717 285.667 64.7553 285.175C64.4447 284.683 64.2895 284.12 64.2895 283.487C64.2895 282.433 64.6059 281.621 65.2387 281.053C65.8715 280.479 66.768 280.191 67.9281 280.191C68.432 280.191 68.8861 280.25 69.2904 280.367H72.6215ZM64.9398 291.617C64.9398 292.139 65.1596 292.534 65.599 292.804C66.0385 293.073 66.6684 293.208 67.4887 293.208C68.7133 293.208 69.6186 293.023 70.2045 292.654C70.7963 292.291 71.0922 291.796 71.0922 291.169C71.0922 290.647 70.9311 290.284 70.6088 290.079C70.2865 289.88 69.6801 289.78 68.7895 289.78H67.0404C66.3783 289.78 65.8627 289.938 65.4936 290.255C65.1244 290.571 64.9398 291.025 64.9398 291.617ZM65.7309 283.452C65.7309 284.126 65.9213 284.636 66.3022 284.981C66.683 285.327 67.2133 285.5 67.893 285.5C69.3168 285.5 70.0287 284.809 70.0287 283.426C70.0287 281.979 69.308 281.255 67.8666 281.255C67.1811 281.255 66.6537 281.439 66.2846 281.809C65.9154 282.178 65.7309 282.726 65.7309 283.452ZM86.9287 287.372C86.9287 288.269 86.5947 288.96 85.9267 289.446C85.2588 289.933 84.3213 290.176 83.1142 290.176C81.8369 290.176 80.8408 289.974 80.1259 289.569V288.216C80.5888 288.45 81.0839 288.635 81.6113 288.77C82.1445 288.904 82.6572 288.972 83.1494 288.972C83.9111 288.972 84.497 288.852 84.9072 288.611C85.3173 288.365 85.5224 287.993 85.5224 287.495C85.5224 287.12 85.3584 286.801 85.0302 286.537C84.708 286.268 84.0752 285.951 83.1318 285.588C82.2353 285.254 81.5966 284.964 81.2158 284.718C80.8408 284.466 80.5595 284.182 80.372 283.865C80.1904 283.549 80.0996 283.171 80.0996 282.731C80.0996 281.946 80.4189 281.328 81.0576 280.877C81.6963 280.42 82.5722 280.191 83.6855 280.191C84.7226 280.191 85.7363 280.402 86.7265 280.824L86.208 282.011C85.2412 281.612 84.3652 281.413 83.58 281.413C82.8886 281.413 82.3671 281.521 82.0156 281.738C81.664 281.955 81.4882 282.254 81.4882 282.635C81.4882 282.893 81.5527 283.112 81.6816 283.294C81.8164 283.476 82.0302 283.648 82.3232 283.812C82.6162 283.977 83.1787 284.214 84.0107 284.524C85.1533 284.94 85.9238 285.359 86.3222 285.781C86.7265 286.203 86.9287 286.733 86.9287 287.372ZM91.4895 290H90.0305V280.367H91.4895V290ZM89.9075 277.757C89.9075 277.423 89.9895 277.18 90.1536 277.027C90.3176 276.869 90.5227 276.79 90.7688 276.79C91.0032 276.79 91.2053 276.869 91.3752 277.027C91.5452 277.186 91.6301 277.429 91.6301 277.757C91.6301 278.085 91.5452 278.331 91.3752 278.495C91.2053 278.653 91.0032 278.732 90.7688 278.732C90.5227 278.732 90.3176 278.653 90.1536 278.495C89.9895 278.331 89.9075 278.085 89.9075 277.757ZM98.4146 288.972C98.6724 288.972 98.9214 288.954 99.1616 288.919C99.4019 288.878 99.5923 288.837 99.7329 288.796V289.912C99.5747 289.988 99.3404 290.05 99.0298 290.097C98.7251 290.149 98.4497 290.176 98.2036 290.176C96.3404 290.176 95.4087 289.194 95.4087 287.231V281.501H94.0288V280.798L95.4087 280.191L96.0239 278.135H96.8677V280.367H99.6626V281.501H96.8677V287.17C96.8677 287.75 97.0054 288.195 97.2808 288.506C97.5562 288.816 97.9341 288.972 98.4146 288.972ZM106.456 290.176C105.032 290.176 103.907 289.742 103.081 288.875C102.261 288.008 101.85 286.804 101.85 285.263C101.85 283.71 102.231 282.477 102.993 281.562C103.761 280.648 104.789 280.191 106.078 280.191C107.285 280.191 108.24 280.59 108.943 281.387C109.646 282.178 109.998 283.224 109.998 284.524V285.447H103.362C103.391 286.578 103.676 287.437 104.215 288.022C104.76 288.608 105.524 288.901 106.509 288.901C107.546 288.901 108.571 288.685 109.585 288.251V289.552C109.069 289.774 108.58 289.933 108.117 290.026C107.66 290.126 107.106 290.176 106.456 290.176ZM106.06 281.413C105.287 281.413 104.669 281.665 104.206 282.169C103.749 282.673 103.479 283.37 103.397 284.261H108.433C108.433 283.341 108.228 282.638 107.818 282.151C107.408 281.659 106.822 281.413 106.06 281.413ZM125.492 290V283.733C125.492 282.966 125.328 282.392 125 282.011C124.672 281.624 124.162 281.431 123.471 281.431C122.563 281.431 121.892 281.691 121.458 282.213C121.024 282.734 120.808 283.537 120.808 284.621V290H119.349V283.733C119.349 282.966 119.185 282.392 118.857 282.011C118.528 281.624 118.016 281.431 117.318 281.431C116.404 281.431 115.733 281.706 115.306 282.257C114.884 282.802 114.673 283.698 114.673 284.946V290H113.214V280.367H114.4L114.638 281.686H114.708C114.983 281.217 115.37 280.851 115.868 280.587C116.372 280.323 116.935 280.191 117.556 280.191C119.062 280.191 120.046 280.736 120.509 281.826H120.579C120.866 281.322 121.282 280.924 121.827 280.631C122.372 280.338 122.993 280.191 123.691 280.191C124.78 280.191 125.595 280.473 126.134 281.035C126.679 281.592 126.951 282.485 126.951 283.716V290H125.492ZM136.61 290L136.32 288.629H136.249C135.769 289.232 135.288 289.643 134.808 289.859C134.333 290.07 133.739 290.176 133.024 290.176C132.069 290.176 131.319 289.93 130.774 289.438C130.235 288.945 129.965 288.245 129.965 287.337C129.965 285.392 131.521 284.372 134.632 284.278L136.267 284.226V283.628C136.267 282.872 136.103 282.315 135.775 281.958C135.452 281.595 134.934 281.413 134.219 281.413C133.416 281.413 132.508 281.659 131.494 282.151L131.046 281.035C131.521 280.777 132.039 280.575 132.602 280.429C133.17 280.282 133.739 280.209 134.307 280.209C135.455 280.209 136.305 280.464 136.856 280.974C137.412 281.483 137.691 282.301 137.691 283.426V290H136.61ZM133.314 288.972C134.222 288.972 134.934 288.723 135.45 288.225C135.971 287.727 136.232 287.029 136.232 286.133V285.263L134.773 285.324C133.613 285.365 132.775 285.547 132.259 285.869C131.749 286.186 131.494 286.681 131.494 287.354C131.494 287.882 131.653 288.283 131.969 288.559C132.291 288.834 132.74 288.972 133.314 288.972ZM145.908 290.176C145.281 290.176 144.707 290.062 144.185 289.833C143.67 289.599 143.236 289.241 142.884 288.761H142.779C142.849 289.323 142.884 289.856 142.884 290.36V294.324H141.425V280.367H142.612L142.814 281.686H142.884C143.259 281.158 143.696 280.777 144.194 280.543C144.692 280.309 145.263 280.191 145.908 280.191C147.185 280.191 148.17 280.628 148.861 281.501C149.558 282.374 149.907 283.599 149.907 285.175C149.907 286.757 149.552 287.987 148.843 288.866C148.14 289.739 147.162 290.176 145.908 290.176ZM145.697 281.431C144.713 281.431 144.001 281.703 143.561 282.248C143.122 282.793 142.896 283.66 142.884 284.85V285.175C142.884 286.528 143.11 287.498 143.561 288.084C144.012 288.664 144.736 288.954 145.732 288.954C146.564 288.954 147.214 288.617 147.683 287.943C148.158 287.27 148.395 286.341 148.395 285.157C148.395 283.956 148.158 283.036 147.683 282.397C147.214 281.753 146.552 281.431 145.697 281.431ZM159.398 287.372C159.398 288.269 159.064 288.96 158.396 289.446C157.728 289.933 156.791 290.176 155.584 290.176C154.307 290.176 153.31 289.974 152.596 289.569V288.216C153.059 288.45 153.554 288.635 154.081 288.77C154.614 288.904 155.127 288.972 155.619 288.972C156.381 288.972 156.967 288.852 157.377 288.611C157.787 288.365 157.992 287.993 157.992 287.495C157.992 287.12 157.828 286.801 157.5 286.537C157.178 286.268 156.545 285.951 155.601 285.588C154.705 285.254 154.066 284.964 153.685 284.718C153.31 284.466 153.029 284.182 152.842 283.865C152.66 283.549 152.569 283.171 152.569 282.731C152.569 281.946 152.889 281.328 153.527 280.877C154.166 280.42 155.042 280.191 156.155 280.191C157.192 280.191 158.206 280.402 159.196 280.824L158.678 282.011C157.711 281.612 156.835 281.413 156.05 281.413C155.358 281.413 154.837 281.521 154.485 281.738C154.134 281.955 153.958 282.254 153.958 282.635C153.958 282.893 154.022 283.112 154.151 283.294C154.286 283.476 154.5 283.648 154.793 283.812C155.086 283.977 155.648 284.214 156.48 284.524C157.623 284.94 158.393 285.359 158.792 285.781C159.196 286.203 159.398 286.733 159.398 287.372ZM173.82 290L173.53 288.629H173.459C172.979 289.232 172.499 289.643 172.018 289.859C171.543 290.07 170.949 290.176 170.234 290.176C169.279 290.176 168.529 289.93 167.984 289.438C167.445 288.945 167.175 288.245 167.175 287.337C167.175 285.392 168.731 284.372 171.842 284.278L173.477 284.226V283.628C173.477 282.872 173.313 282.315 172.985 281.958C172.663 281.595 172.144 281.413 171.429 281.413C170.626 281.413 169.718 281.659 168.705 282.151L168.256 281.035C168.731 280.777 169.249 280.575 169.812 280.429C170.38 280.282 170.949 280.209 171.517 280.209C172.666 280.209 173.515 280.464 174.066 280.974C174.623 281.483 174.901 282.301 174.901 283.426V290H173.82ZM170.524 288.972C171.432 288.972 172.144 288.723 172.66 288.225C173.181 287.727 173.442 287.029 173.442 286.133V285.263L171.983 285.324C170.823 285.365 169.985 285.547 169.469 285.869C168.959 286.186 168.705 286.681 168.705 287.354C168.705 287.882 168.863 288.283 169.179 288.559C169.501 288.834 169.95 288.972 170.524 288.972ZM185.227 290V283.769C185.227 282.983 185.049 282.397 184.691 282.011C184.334 281.624 183.774 281.431 183.012 281.431C182.005 281.431 181.266 281.703 180.798 282.248C180.329 282.793 180.094 283.692 180.094 284.946V290H178.636V280.367H179.822L180.059 281.686H180.13C180.428 281.211 180.847 280.845 181.386 280.587C181.926 280.323 182.526 280.191 183.188 280.191C184.348 280.191 185.221 280.473 185.807 281.035C186.393 281.592 186.686 282.485 186.686 283.716V290H185.227ZM196.969 288.708H196.89C196.216 289.687 195.208 290.176 193.866 290.176C192.606 290.176 191.625 289.745 190.922 288.884C190.225 288.022 189.876 286.798 189.876 285.21C189.876 283.622 190.228 282.389 190.931 281.51C191.634 280.631 192.612 280.191 193.866 280.191C195.173 280.191 196.175 280.666 196.872 281.615H196.986L196.925 280.921L196.89 280.244V276.324H198.349V290H197.162L196.969 288.708ZM194.051 288.954C195.047 288.954 195.768 288.685 196.213 288.146C196.664 287.601 196.89 286.725 196.89 285.518V285.21C196.89 283.845 196.661 282.872 196.204 282.292C195.753 281.706 195.029 281.413 194.033 281.413C193.178 281.413 192.522 281.747 192.064 282.415C191.613 283.077 191.388 284.015 191.388 285.228C191.388 286.458 191.613 287.387 192.064 288.014C192.516 288.641 193.178 288.954 194.051 288.954ZM208.938 280.367V286.616C208.938 287.401 209.117 287.987 209.474 288.374C209.832 288.761 210.391 288.954 211.153 288.954C212.161 288.954 212.896 288.679 213.359 288.128C213.828 287.577 214.062 286.678 214.062 285.43V280.367H215.521V290H214.317L214.106 288.708H214.027C213.728 289.183 213.312 289.546 212.779 289.798C212.252 290.05 211.648 290.176 210.968 290.176C209.796 290.176 208.918 289.897 208.332 289.341C207.752 288.784 207.462 287.894 207.462 286.669V280.367H208.938ZM225.557 287.372C225.557 288.269 225.224 288.96 224.556 289.446C223.888 289.933 222.95 290.176 221.743 290.176C220.466 290.176 219.47 289.974 218.755 289.569V288.216C219.218 288.45 219.713 288.635 220.24 288.77C220.773 288.904 221.286 288.972 221.778 288.972C222.54 288.972 223.126 288.852 223.536 288.611C223.946 288.365 224.151 287.993 224.151 287.495C224.151 287.12 223.987 286.801 223.659 286.537C223.337 286.268 222.704 285.951 221.761 285.588C220.864 285.254 220.225 284.964 219.845 284.718C219.47 284.466 219.188 284.182 219.001 283.865C218.819 283.549 218.728 283.171 218.728 282.731C218.728 281.946 219.048 281.328 219.686 280.877C220.325 280.42 221.201 280.191 222.314 280.191C223.351 280.191 224.365 280.402 225.355 280.824L224.837 282.011C223.87 281.612 222.994 281.413 222.209 281.413C221.517 281.413 220.996 281.521 220.644 281.738C220.293 281.955 220.117 282.254 220.117 282.635C220.117 282.893 220.182 283.112 220.31 283.294C220.445 283.476 220.659 283.648 220.952 283.812C221.245 283.977 221.807 284.214 222.64 284.524C223.782 284.94 224.553 285.359 224.951 285.781C225.355 286.203 225.557 286.733 225.557 287.372ZM232.729 290.176C231.305 290.176 230.18 289.742 229.354 288.875C228.533 288.008 228.123 286.804 228.123 285.263C228.123 283.71 228.504 282.477 229.266 281.562C230.033 280.648 231.062 280.191 232.351 280.191C233.558 280.191 234.513 280.59 235.216 281.387C235.919 282.178 236.271 283.224 236.271 284.524V285.447H229.635C229.664 286.578 229.948 287.437 230.487 288.022C231.032 288.608 231.797 288.901 232.781 288.901C233.819 288.901 234.844 288.685 235.858 288.251V289.552C235.342 289.774 234.853 289.933 234.39 290.026C233.933 290.126 233.379 290.176 232.729 290.176ZM232.333 281.413C231.56 281.413 230.942 281.665 230.479 282.169C230.022 282.673 229.752 283.37 229.67 284.261H234.706C234.706 283.341 234.501 282.638 234.091 282.151C233.681 281.659 233.095 281.413 232.333 281.413ZM243.881 280.191C244.309 280.191 244.693 280.227 245.033 280.297L244.831 281.65C244.432 281.562 244.081 281.519 243.776 281.519C242.997 281.519 242.329 281.835 241.772 282.468C241.221 283.101 240.946 283.889 240.946 284.832V290H239.487V280.367H240.691L240.858 282.151H240.928C241.286 281.524 241.716 281.041 242.22 280.701C242.724 280.361 243.278 280.191 243.881 280.191ZM6.42648 306.501H3.97433V315H2.51535V306.501H0.792694V305.842L2.51535 305.314V304.778C2.51535 302.411 3.54953 301.228 5.61789 301.228C6.12766 301.228 6.72531 301.33 7.41086 301.535L7.03293 302.704C6.47043 302.522 5.98996 302.432 5.59152 302.432C5.04074 302.432 4.63351 302.616 4.36984 302.985C4.10617 303.349 3.97433 303.935 3.97433 304.743V305.367H6.42648V306.501ZM9.64328 315H8.1843V301.324H9.64328V315ZM21.7715 310.175C21.7715 311.745 21.376 312.973 20.585 313.857C19.7939 314.736 18.7012 315.176 17.3066 315.176C16.4453 315.176 15.6807 314.974 15.0127 314.569C14.3447 314.165 13.8291 313.585 13.4658 312.829C13.1025 312.073 12.9209 311.188 12.9209 310.175C12.9209 308.604 13.3135 307.383 14.0986 306.51C14.8838 305.631 15.9736 305.191 17.3682 305.191C18.7158 305.191 19.7852 305.64 20.5762 306.536C21.373 307.433 21.7715 308.646 21.7715 310.175ZM14.4326 310.175C14.4326 311.405 14.6787 312.343 15.1709 312.987C15.6631 313.632 16.3867 313.954 17.3418 313.954C18.2969 313.954 19.0205 313.635 19.5127 312.996C20.0107 312.352 20.2598 311.411 20.2598 310.175C20.2598 308.95 20.0107 308.021 19.5127 307.389C19.0205 306.75 18.291 306.431 17.3242 306.431C16.3691 306.431 15.6484 306.744 15.1621 307.371C14.6758 307.998 14.4326 308.933 14.4326 310.175ZM32.9241 315L31.1575 309.349C31.0462 309.003 30.8382 308.218 30.5335 306.993H30.4632C30.2288 308.019 30.0237 308.81 29.8479 309.366L28.0286 315H26.3411L23.7132 305.367H25.2425C25.8636 307.787 26.3352 309.63 26.6575 310.896C26.9856 312.161 27.1731 313.014 27.22 313.453H27.2903C27.3548 313.119 27.4573 312.688 27.5979 312.161C27.7444 311.628 27.8704 311.206 27.9759 310.896L29.7425 305.367H31.3245L33.0471 310.896C33.3753 311.903 33.5979 312.75 33.7151 313.436H33.7854C33.8089 313.225 33.8704 312.899 33.97 312.46C34.0755 312.021 34.6878 309.656 35.8069 305.367H37.3186L34.6555 315H32.9241ZM46.0015 312.372C46.0015 313.269 45.6675 313.96 44.9996 314.446C44.3316 314.933 43.3941 315.176 42.1871 315.176C40.9097 315.176 39.9136 314.974 39.1988 314.569V313.216C39.6617 313.45 40.1568 313.635 40.6841 313.77C41.2173 313.904 41.73 313.972 42.2222 313.972C42.9839 313.972 43.5699 313.852 43.98 313.611C44.3902 313.365 44.5953 312.993 44.5953 312.495C44.5953 312.12 44.4312 311.801 44.1031 311.537C43.7808 311.268 43.148 310.951 42.2046 310.588C41.3082 310.254 40.6695 309.964 40.2886 309.718C39.9136 309.466 39.6324 309.182 39.4449 308.865C39.2632 308.549 39.1724 308.171 39.1724 307.731C39.1724 306.946 39.4918 306.328 40.1304 305.877C40.7691 305.42 41.6451 305.191 42.7584 305.191C43.7955 305.191 44.8091 305.402 45.7994 305.824L45.2808 307.011C44.314 306.612 43.438 306.413 42.6529 306.413C41.9615 306.413 41.44 306.521 41.0884 306.738C40.7369 306.955 40.5611 307.254 40.5611 307.635C40.5611 307.893 40.6255 308.112 40.7545 308.294C40.8892 308.476 41.1031 308.648 41.3961 308.812C41.689 308.977 42.2515 309.214 43.0836 309.524C44.2261 309.94 44.9966 310.359 45.3951 310.781C45.7994 311.203 46.0015 311.733 46.0015 312.372ZM61.0909 315V308.769C61.0909 307.983 60.9122 307.397 60.5548 307.011C60.1974 306.624 59.6378 306.431 58.8761 306.431C57.8624 306.431 57.1212 306.706 56.6525 307.257C56.1896 307.808 55.9581 308.71 55.9581 309.964V315H54.4991V301.324H55.9581V305.464C55.9581 305.962 55.9347 306.375 55.8878 306.703H55.9757C56.2628 306.24 56.67 305.877 57.1974 305.613C57.7306 305.344 58.337 305.209 59.0167 305.209C60.1945 305.209 61.0763 305.49 61.6622 306.053C62.254 306.609 62.5499 307.497 62.5499 308.716V315H61.0909ZM70.3451 315.176C68.9213 315.176 67.7963 314.742 66.9701 313.875C66.1498 313.008 65.7396 311.804 65.7396 310.263C65.7396 308.71 66.1205 307.477 66.8822 306.562C67.6498 305.648 68.6781 305.191 69.9672 305.191C71.1742 305.191 72.1293 305.59 72.8324 306.387C73.5355 307.178 73.8871 308.224 73.8871 309.524V310.447H67.2514C67.2807 311.578 67.5648 312.437 68.1039 313.022C68.6488 313.608 69.4135 313.901 70.3979 313.901C71.435 313.901 72.4604 313.685 73.474 313.251V314.552C72.9584 314.774 72.4691 314.933 72.0062 315.026C71.5492 315.126 70.9955 315.176 70.3451 315.176ZM69.9496 306.413C69.1762 306.413 68.558 306.665 68.0951 307.169C67.6381 307.673 67.3686 308.37 67.2865 309.261H72.3227C72.3227 308.341 72.1176 307.638 71.7074 307.151C71.2973 306.659 70.7113 306.413 69.9496 306.413ZM78.5622 315H77.1032V301.324H78.5622V315ZM86.8584 315.176C86.2314 315.176 85.6572 315.062 85.1357 314.833C84.6201 314.599 84.1865 314.241 83.8349 313.761H83.7295C83.7998 314.323 83.8349 314.856 83.8349 315.36V319.324H82.3759V305.367H83.5625L83.7646 306.686H83.8349C84.2099 306.158 84.6464 305.777 85.1445 305.543C85.6425 305.309 86.2138 305.191 86.8584 305.191C88.1357 305.191 89.1201 305.628 89.8115 306.501C90.5088 307.374 90.8574 308.599 90.8574 310.175C90.8574 311.757 90.5029 312.987 89.7939 313.866C89.0908 314.739 88.1123 315.176 86.8584 315.176ZM86.6474 306.431C85.663 306.431 84.9511 306.703 84.5117 307.248C84.0722 307.793 83.8466 308.66 83.8349 309.85V310.175C83.8349 311.528 84.0605 312.498 84.5117 313.084C84.9629 313.664 85.6865 313.954 86.6826 313.954C87.5146 313.954 88.165 313.617 88.6338 312.943C89.1084 312.27 89.3457 311.341 89.3457 310.157C89.3457 308.956 89.1084 308.036 88.6338 307.397C88.165 306.753 87.5029 306.431 86.6474 306.431ZM98.2043 315.176C96.7805 315.176 95.6555 314.742 94.8293 313.875C94.009 313.008 93.5989 311.804 93.5989 310.263C93.5989 308.71 93.9797 307.477 94.7414 306.562C95.509 305.648 96.5373 305.191 97.8264 305.191C99.0334 305.191 99.9885 305.59 100.692 306.387C101.395 307.178 101.746 308.224 101.746 309.524V310.447H95.1106C95.1399 311.578 95.4241 312.437 95.9631 313.022C96.508 313.608 97.2727 313.901 98.2571 313.901C99.2942 313.901 100.32 313.685 101.333 313.251V314.552C100.818 314.774 100.328 314.933 99.8655 315.026C99.4084 315.126 98.8547 315.176 98.2043 315.176ZM97.8088 306.413C97.0354 306.413 96.4172 306.665 95.9543 307.169C95.4973 307.673 95.2278 308.37 95.1457 309.261H100.182C100.182 308.341 99.9768 307.638 99.5666 307.151C99.1565 306.659 98.5705 306.413 97.8088 306.413ZM111.519 313.708H111.44C110.766 314.687 109.758 315.176 108.417 315.176C107.157 315.176 106.175 314.745 105.472 313.884C104.775 313.022 104.426 311.798 104.426 310.21C104.426 308.622 104.778 307.389 105.481 306.51C106.184 305.631 107.163 305.191 108.417 305.191C109.723 305.191 110.725 305.666 111.422 306.615H111.537L111.475 305.921L111.44 305.244V301.324H112.899V315H111.712L111.519 313.708ZM108.601 313.954C109.597 313.954 110.318 313.685 110.763 313.146C111.214 312.601 111.44 311.725 111.44 310.518V310.21C111.44 308.845 111.211 307.872 110.754 307.292C110.303 306.706 109.58 306.413 108.584 306.413C107.728 306.413 107.072 306.747 106.615 307.415C106.164 308.077 105.938 309.015 105.938 310.228C105.938 311.458 106.164 312.387 106.615 313.014C107.066 313.641 107.728 313.954 108.601 313.954ZM130.432 310.175C130.432 311.745 130.036 312.973 129.245 313.857C128.454 314.736 127.361 315.176 125.967 315.176C125.106 315.176 124.341 314.974 123.673 314.569C123.005 314.165 122.489 313.585 122.126 312.829C121.763 312.073 121.581 311.188 121.581 310.175C121.581 308.604 121.974 307.383 122.759 306.51C123.544 305.631 124.634 305.191 126.028 305.191C127.376 305.191 128.445 305.64 129.236 306.536C130.033 307.433 130.432 308.646 130.432 310.175ZM123.093 310.175C123.093 311.405 123.339 312.343 123.831 312.987C124.323 313.632 125.047 313.954 126.002 313.954C126.957 313.954 127.681 313.635 128.173 312.996C128.671 312.352 128.92 311.411 128.92 310.175C128.92 308.95 128.671 308.021 128.173 307.389C127.681 306.75 126.951 306.431 125.984 306.431C125.029 306.431 124.309 306.744 123.822 307.371C123.336 307.998 123.093 308.933 123.093 310.175ZM135.089 305.367V311.616C135.089 312.401 135.268 312.987 135.625 313.374C135.983 313.761 136.542 313.954 137.304 313.954C138.312 313.954 139.047 313.679 139.51 313.128C139.979 312.577 140.213 311.678 140.213 310.43V305.367H141.672V315H140.468L140.257 313.708H140.178C139.879 314.183 139.463 314.546 138.93 314.798C138.403 315.05 137.799 315.176 137.119 315.176C135.948 315.176 135.069 314.897 134.483 314.341C133.903 313.784 133.613 312.894 133.613 311.669V305.367H135.089ZM149.889 305.191C150.317 305.191 150.701 305.227 151.041 305.297L150.839 306.65C150.44 306.562 150.089 306.519 149.784 306.519C149.005 306.519 148.337 306.835 147.78 307.468C147.229 308.101 146.954 308.889 146.954 309.832V315H145.495V305.367H146.699L146.866 307.151H146.936C147.294 306.524 147.724 306.041 148.228 305.701C148.732 305.361 149.286 305.191 149.889 305.191ZM165.515 313.708H165.436C164.762 314.687 163.754 315.176 162.412 315.176C161.153 315.176 160.171 314.745 159.468 313.884C158.771 313.022 158.422 311.798 158.422 310.21C158.422 308.622 158.774 307.389 159.477 306.51C160.18 305.631 161.158 305.191 162.412 305.191C163.719 305.191 164.721 305.666 165.418 306.615H165.532L165.471 305.921L165.436 305.244V301.324H166.895V315H165.708L165.515 313.708ZM162.597 313.954C163.593 313.954 164.314 313.685 164.759 313.146C165.21 312.601 165.436 311.725 165.436 310.518V310.21C165.436 308.845 165.207 307.872 164.75 307.292C164.299 306.706 163.575 306.413 162.579 306.413C161.724 306.413 161.068 306.747 160.611 307.415C160.159 308.077 159.934 309.015 159.934 310.228C159.934 311.458 160.159 312.387 160.611 313.014C161.062 313.641 161.724 313.954 162.597 313.954ZM174.787 315.176C173.363 315.176 172.238 314.742 171.412 313.875C170.591 313.008 170.181 311.804 170.181 310.263C170.181 308.71 170.562 307.477 171.324 306.562C172.091 305.648 173.12 305.191 174.409 305.191C175.616 305.191 176.571 305.59 177.274 306.387C177.977 307.178 178.329 308.224 178.329 309.524V310.447H171.693C171.722 311.578 172.006 312.437 172.545 313.022C173.09 313.608 173.855 313.901 174.839 313.901C175.876 313.901 176.902 313.685 177.916 313.251V314.552C177.4 314.774 176.911 314.933 176.448 315.026C175.991 315.126 175.437 315.176 174.787 315.176ZM174.391 306.413C173.618 306.413 172.999 306.665 172.537 307.169C172.08 307.673 171.81 308.37 171.728 309.261H176.764C176.764 308.341 176.559 307.638 176.149 307.151C175.739 306.659 175.153 306.413 174.391 306.413ZM187.759 312.372C187.759 313.269 187.425 313.96 186.757 314.446C186.089 314.933 185.151 315.176 183.944 315.176C182.667 315.176 181.671 314.974 180.956 314.569V313.216C181.419 313.45 181.914 313.635 182.441 313.77C182.974 313.904 183.487 313.972 183.979 313.972C184.741 313.972 185.327 313.852 185.737 313.611C186.147 313.365 186.352 312.993 186.352 312.495C186.352 312.12 186.188 311.801 185.86 311.537C185.538 311.268 184.905 310.951 183.962 310.588C183.065 310.254 182.427 309.964 182.046 309.718C181.671 309.466 181.389 309.182 181.202 308.865C181.02 308.549 180.929 308.171 180.929 307.731C180.929 306.946 181.249 306.328 181.887 305.877C182.526 305.42 183.402 305.191 184.515 305.191C185.553 305.191 186.566 305.402 187.556 305.824L187.038 307.011C186.071 306.612 185.195 306.413 184.41 306.413C183.719 306.413 183.197 306.521 182.845 306.738C182.494 306.955 182.318 307.254 182.318 307.635C182.318 307.893 182.383 308.112 182.511 308.294C182.646 308.476 182.86 308.648 183.153 308.812C183.446 308.977 184.009 309.214 184.841 309.524C185.983 309.94 186.754 310.359 187.152 310.781C187.556 311.203 187.759 311.733 187.759 312.372ZM192.319 315H190.86V305.367H192.319V315ZM190.737 302.757C190.737 302.423 190.819 302.18 190.983 302.027C191.148 301.869 191.353 301.79 191.599 301.79C191.833 301.79 192.035 301.869 192.205 302.027C192.375 302.186 192.46 302.429 192.46 302.757C192.46 303.085 192.375 303.331 192.205 303.495C192.035 303.653 191.833 303.732 191.599 303.732C191.353 303.732 191.148 303.653 190.983 303.495C190.819 303.331 190.737 303.085 190.737 302.757ZM204.017 305.367V306.29L202.233 306.501C202.397 306.706 202.543 306.976 202.672 307.31C202.801 307.638 202.866 308.01 202.866 308.426C202.866 309.369 202.543 310.122 201.899 310.685C201.254 311.247 200.369 311.528 199.244 311.528C198.957 311.528 198.688 311.505 198.436 311.458C197.815 311.786 197.504 312.199 197.504 312.697C197.504 312.961 197.613 313.157 197.829 313.286C198.046 313.409 198.418 313.471 198.946 313.471H200.651C201.694 313.471 202.493 313.69 203.05 314.13C203.613 314.569 203.894 315.208 203.894 316.046C203.894 317.112 203.466 317.924 202.611 318.48C201.755 319.043 200.507 319.324 198.867 319.324C197.607 319.324 196.634 319.09 195.949 318.621C195.269 318.152 194.929 317.49 194.929 316.635C194.929 316.049 195.117 315.542 195.492 315.114C195.867 314.687 196.394 314.396 197.074 314.244C196.827 314.133 196.619 313.96 196.45 313.726C196.285 313.491 196.203 313.219 196.203 312.908C196.203 312.557 196.297 312.249 196.485 311.985C196.672 311.722 196.968 311.467 197.372 311.221C196.874 311.016 196.467 310.667 196.151 310.175C195.84 309.683 195.685 309.12 195.685 308.487C195.685 307.433 196.001 306.621 196.634 306.053C197.267 305.479 198.163 305.191 199.324 305.191C199.827 305.191 200.282 305.25 200.686 305.367H204.017ZM196.335 316.617C196.335 317.139 196.555 317.534 196.994 317.804C197.434 318.073 198.064 318.208 198.884 318.208C200.109 318.208 201.014 318.023 201.6 317.654C202.192 317.291 202.488 316.796 202.488 316.169C202.488 315.647 202.326 315.284 202.004 315.079C201.682 314.88 201.076 314.78 200.185 314.78H198.436C197.774 314.78 197.258 314.938 196.889 315.255C196.52 315.571 196.335 316.025 196.335 316.617ZM197.126 308.452C197.126 309.126 197.317 309.636 197.698 309.981C198.078 310.327 198.609 310.5 199.288 310.5C200.712 310.5 201.424 309.809 201.424 308.426C201.424 306.979 200.703 306.255 199.262 306.255C198.576 306.255 198.049 306.439 197.68 306.809C197.311 307.178 197.126 307.726 197.126 308.452ZM213.306 315V308.769C213.306 307.983 213.128 307.397 212.77 307.011C212.413 306.624 211.853 306.431 211.091 306.431C210.084 306.431 209.345 306.703 208.877 307.248C208.408 307.793 208.173 308.692 208.173 309.946V315H206.714V305.367H207.901L208.138 306.686H208.209C208.507 306.211 208.926 305.845 209.465 305.587C210.004 305.323 210.605 305.191 211.267 305.191C212.427 305.191 213.3 305.473 213.886 306.035C214.472 306.592 214.765 307.485 214.765 308.716V315H213.306ZM226.998 313.972C227.256 313.972 227.505 313.954 227.745 313.919C227.986 313.878 228.176 313.837 228.317 313.796V314.912C228.158 314.988 227.924 315.05 227.613 315.097C227.309 315.149 227.033 315.176 226.787 315.176C224.924 315.176 223.992 314.194 223.992 312.231V306.501H222.612V305.798L223.992 305.191L224.608 303.135H225.451V305.367H228.246V306.501H225.451V312.17C225.451 312.75 225.589 313.195 225.864 313.506C226.14 313.816 226.518 313.972 226.998 313.972ZM235.039 315.176C233.616 315.176 232.491 314.742 231.664 313.875C230.844 313.008 230.434 311.804 230.434 310.263C230.434 308.71 230.815 307.477 231.577 306.562C232.344 305.648 233.372 305.191 234.662 305.191C235.869 305.191 236.824 305.59 237.527 306.387C238.23 307.178 238.581 308.224 238.581 309.524V310.447H231.946C231.975 311.578 232.259 312.437 232.798 313.022C233.343 313.608 234.108 313.901 235.092 313.901C236.129 313.901 237.155 313.685 238.168 313.251V314.552C237.653 314.774 237.164 314.933 236.701 315.026C236.244 315.126 235.69 315.176 235.039 315.176ZM234.644 306.413C233.871 306.413 233.252 306.665 232.789 307.169C232.332 307.673 232.063 308.37 231.981 309.261H237.017C237.017 308.341 236.812 307.638 236.402 307.151C235.992 306.659 235.406 306.413 234.644 306.413ZM247.721 315L247.431 313.629H247.361C246.881 314.232 246.4 314.643 245.92 314.859C245.445 315.07 244.85 315.176 244.135 315.176C243.18 315.176 242.43 314.93 241.885 314.438C241.346 313.945 241.077 313.245 241.077 312.337C241.077 310.392 242.633 309.372 245.744 309.278L247.379 309.226V308.628C247.379 307.872 247.215 307.315 246.886 306.958C246.564 306.595 246.046 306.413 245.331 306.413C244.528 306.413 243.62 306.659 242.606 307.151L242.158 306.035C242.633 305.777 243.151 305.575 243.714 305.429C244.282 305.282 244.85 305.209 245.419 305.209C246.567 305.209 247.417 305.464 247.967 305.974C248.524 306.483 248.802 307.301 248.802 308.426V315H247.721ZM244.426 313.972C245.334 313.972 246.046 313.723 246.561 313.225C247.083 312.727 247.343 312.029 247.343 311.133V310.263L245.884 310.324C244.724 310.365 243.886 310.547 243.371 310.869C242.861 311.186 242.606 311.681 242.606 312.354C242.606 312.882 242.764 313.283 243.081 313.559C243.403 313.834 243.851 313.972 244.426 313.972ZM264.815 315V308.733C264.815 307.966 264.651 307.392 264.323 307.011C263.995 306.624 263.485 306.431 262.794 306.431C261.886 306.431 261.215 306.691 260.781 307.213C260.348 307.734 260.131 308.537 260.131 309.621V315H258.672V308.733C258.672 307.966 258.508 307.392 258.18 307.011C257.852 306.624 257.339 306.431 256.642 306.431C255.728 306.431 255.057 306.706 254.629 307.257C254.207 307.802 253.996 308.698 253.996 309.946V315H252.537V305.367H253.724L253.961 306.686H254.031C254.307 306.217 254.693 305.851 255.191 305.587C255.695 305.323 256.258 305.191 256.879 305.191C258.385 305.191 259.369 305.736 259.832 306.826H259.902C260.189 306.322 260.605 305.924 261.15 305.631C261.695 305.338 262.316 305.191 263.014 305.191C264.104 305.191 264.918 305.473 265.457 306.035C266.002 306.592 266.274 307.485 266.274 308.716V315H264.815ZM16.7705 330.367V336.616C16.7705 337.401 16.9492 337.987 17.3066 338.374C17.6641 338.761 18.2236 338.954 18.9854 338.954C19.9932 338.954 20.7285 338.679 21.1914 338.128C21.6602 337.577 21.8945 336.678 21.8945 335.43V330.367H23.3535V340H22.1494L21.9385 338.708H21.8594C21.5605 339.183 21.1445 339.546 20.6113 339.798C20.084 340.05 19.4805 340.176 18.8008 340.176C17.6289 340.176 16.75 339.897 16.1641 339.341C15.584 338.784 15.2939 337.894 15.2939 336.669V330.367H16.7705ZM33.7679 340V333.769C33.7679 332.983 33.5891 332.397 33.2317 332.011C32.8743 331.624 32.3147 331.431 31.553 331.431C30.5452 331.431 29.8069 331.703 29.3382 332.248C28.8694 332.793 28.635 333.692 28.635 334.946V340H27.1761V330.367H28.3626L28.5999 331.686H28.6702C28.969 331.211 29.388 330.845 29.927 330.587C30.4661 330.323 31.0667 330.191 31.7288 330.191C32.8889 330.191 33.762 330.473 34.3479 331.035C34.9339 331.592 35.2268 332.485 35.2268 333.716V340H33.7679ZM45.5093 338.708H45.4302C44.7564 339.687 43.7486 340.176 42.4068 340.176C41.147 340.176 40.1656 339.745 39.4625 338.884C38.7652 338.022 38.4166 336.798 38.4166 335.21C38.4166 333.622 38.7681 332.389 39.4713 331.51C40.1744 330.631 41.1529 330.191 42.4068 330.191C43.7134 330.191 44.7154 330.666 45.4127 331.615H45.5269L45.4654 330.921L45.4302 330.244V326.324H46.8892V340H45.7027L45.5093 338.708ZM42.5914 338.954C43.5875 338.954 44.3082 338.685 44.7535 338.146C45.2047 337.601 45.4302 336.725 45.4302 335.518V335.21C45.4302 333.845 45.2017 332.872 44.7447 332.292C44.2935 331.706 43.5699 331.413 42.5738 331.413C41.7183 331.413 41.0621 331.747 40.605 332.415C40.1539 333.077 39.9283 334.015 39.9283 335.228C39.9283 336.458 40.1539 337.387 40.605 338.014C41.0562 338.641 41.7183 338.954 42.5914 338.954ZM54.7811 340.176C53.3573 340.176 52.2323 339.742 51.4061 338.875C50.5858 338.008 50.1756 336.804 50.1756 335.263C50.1756 333.71 50.5565 332.477 51.3182 331.562C52.0858 330.648 53.1141 330.191 54.4032 330.191C55.6102 330.191 56.5653 330.59 57.2684 331.387C57.9715 332.178 58.3231 333.224 58.3231 334.524V335.447H51.6873C51.7166 336.578 52.0008 337.437 52.5399 338.022C53.0848 338.608 53.8495 338.901 54.8338 338.901C55.8709 338.901 56.8963 338.685 57.91 338.251V339.552C57.3944 339.774 56.9051 339.933 56.4422 340.026C55.9852 340.126 55.4315 340.176 54.7811 340.176ZM54.3856 331.413C53.6121 331.413 52.994 331.665 52.5311 332.169C52.0741 332.673 51.8045 333.37 51.7225 334.261H56.7586C56.7586 333.341 56.5536 332.638 56.1434 332.151C55.7332 331.659 55.1473 331.413 54.3856 331.413ZM65.9337 330.191C66.3614 330.191 66.7452 330.227 67.0851 330.297L66.8829 331.65C66.4845 331.562 66.1329 331.519 65.8282 331.519C65.0489 331.519 64.381 331.835 63.8243 332.468C63.2736 333.101 62.9982 333.889 62.9982 334.832V340H61.5392V330.367H62.7433L62.9103 332.151H62.9806C63.338 331.524 63.7687 331.041 64.2726 330.701C64.7765 330.361 65.3302 330.191 65.9337 330.191ZM75.8207 337.372C75.8207 338.269 75.4867 338.96 74.8187 339.446C74.1508 339.933 73.2133 340.176 72.0062 340.176C70.7289 340.176 69.7328 339.974 69.018 339.569V338.216C69.4809 338.45 69.976 338.635 70.5033 338.77C71.0365 338.904 71.5492 338.972 72.0414 338.972C72.8031 338.972 73.3891 338.852 73.7992 338.611C74.2094 338.365 74.4145 337.993 74.4145 337.495C74.4145 337.12 74.2504 336.801 73.9223 336.537C73.6 336.268 72.9672 335.951 72.0238 335.588C71.1273 335.254 70.4887 334.964 70.1078 334.718C69.7328 334.466 69.4516 334.182 69.2641 333.865C69.0824 333.549 68.9916 333.171 68.9916 332.731C68.9916 331.946 69.3109 331.328 69.9496 330.877C70.5883 330.42 71.4643 330.191 72.5775 330.191C73.6146 330.191 74.6283 330.402 75.6186 330.824L75.1 332.011C74.1332 331.612 73.2572 331.413 72.4721 331.413C71.7807 331.413 71.2592 331.521 70.9076 331.738C70.5561 331.955 70.3803 332.254 70.3803 332.635C70.3803 332.893 70.4447 333.112 70.5736 333.294C70.7084 333.476 70.9223 333.648 71.2152 333.812C71.5082 333.977 72.0707 334.214 72.9027 334.524C74.0453 334.94 74.8158 335.359 75.2143 335.781C75.6186 336.203 75.8207 336.733 75.8207 337.372ZM82.0339 338.972C82.2917 338.972 82.5407 338.954 82.7809 338.919C83.0212 338.878 83.2116 338.837 83.3522 338.796V339.912C83.194 339.988 82.9596 340.05 82.6491 340.097C82.3444 340.149 82.069 340.176 81.8229 340.176C79.9596 340.176 79.028 339.194 79.028 337.231V331.501H77.6481V330.798L79.028 330.191L79.6432 328.135H80.487V330.367H83.2819V331.501H80.487V337.17C80.487 337.75 80.6247 338.195 80.9001 338.506C81.1755 338.816 81.5534 338.972 82.0339 338.972ZM91.9296 340L91.6396 338.629H91.5693C91.0888 339.232 90.6084 339.643 90.1279 339.859C89.6533 340.07 89.0586 340.176 88.3437 340.176C87.3886 340.176 86.6386 339.93 86.0937 339.438C85.5546 338.945 85.2851 338.245 85.2851 337.337C85.2851 335.392 86.8408 334.372 89.9521 334.278L91.5869 334.226V333.628C91.5869 332.872 91.4228 332.315 91.0947 331.958C90.7724 331.595 90.2539 331.413 89.539 331.413C88.7363 331.413 87.8281 331.659 86.8144 332.151L86.3662 331.035C86.8408 330.777 87.3593 330.575 87.9218 330.429C88.4902 330.282 89.0586 330.209 89.6269 330.209C90.7754 330.209 91.625 330.464 92.1757 330.974C92.7324 331.483 93.0107 332.301 93.0107 333.426V340H91.9296ZM88.6338 338.972C89.542 338.972 90.2539 338.723 90.7695 338.225C91.291 337.727 91.5517 337.029 91.5517 336.133V335.263L90.0927 335.324C88.9326 335.365 88.0947 335.547 87.5791 335.869C87.0693 336.186 86.8144 336.681 86.8144 337.354C86.8144 337.882 86.9726 338.283 87.289 338.559C87.6113 338.834 88.0595 338.972 88.6338 338.972ZM103.337 340V333.769C103.337 332.983 103.158 332.397 102.801 332.011C102.444 331.624 101.884 331.431 101.122 331.431C100.114 331.431 99.3762 331.703 98.9075 332.248C98.4387 332.793 98.2043 333.692 98.2043 334.946V340H96.7454V330.367H97.9319L98.1692 331.686H98.2395C98.5383 331.211 98.9573 330.845 99.4963 330.587C100.035 330.323 100.636 330.191 101.298 330.191C102.458 330.191 103.331 330.473 103.917 331.035C104.503 331.592 104.796 332.485 104.796 333.716V340H103.337ZM115.079 338.708H115C114.326 339.687 113.318 340.176 111.976 340.176C110.716 340.176 109.735 339.745 109.032 338.884C108.334 338.022 107.986 336.798 107.986 335.21C107.986 333.622 108.337 332.389 109.041 331.51C109.744 330.631 110.722 330.191 111.976 330.191C113.283 330.191 114.285 330.666 114.982 331.615H115.096L115.035 330.921L115 330.244V326.324H116.459V340H115.272L115.079 338.708ZM112.161 338.954C113.157 338.954 113.877 338.685 114.323 338.146C114.774 337.601 115 336.725 115 335.518V335.21C115 333.845 114.771 332.872 114.314 332.292C113.863 331.706 113.139 331.413 112.143 331.413C111.288 331.413 110.631 331.747 110.174 332.415C109.723 333.077 109.498 334.015 109.498 335.228C109.498 336.458 109.723 337.387 110.174 338.014C110.626 338.641 111.288 338.954 112.161 338.954ZM128.788 338.972C129.046 338.972 129.295 338.954 129.535 338.919C129.775 338.878 129.966 338.837 130.107 338.796V339.912C129.948 339.988 129.714 340.05 129.403 340.097C129.099 340.149 128.823 340.176 128.577 340.176C126.714 340.176 125.782 339.194 125.782 337.231V331.501H124.402V330.798L125.782 330.191L126.398 328.135H127.241V330.367H130.036V331.501H127.241V337.17C127.241 337.75 127.379 338.195 127.654 338.506C127.93 338.816 128.308 338.972 128.788 338.972ZM139.352 340V333.769C139.352 332.983 139.173 332.397 138.816 332.011C138.458 331.624 137.899 331.431 137.137 331.431C136.123 331.431 135.382 331.706 134.913 332.257C134.451 332.808 134.219 333.71 134.219 334.964V340H132.76V326.324H134.219V330.464C134.219 330.962 134.196 331.375 134.149 331.703H134.237C134.524 331.24 134.931 330.877 135.458 330.613C135.992 330.344 136.598 330.209 137.278 330.209C138.455 330.209 139.337 330.49 139.923 331.053C140.515 331.609 140.811 332.497 140.811 333.716V340H139.352ZM148.606 340.176C147.182 340.176 146.057 339.742 145.231 338.875C144.411 338.008 144.001 336.804 144.001 335.263C144.001 333.71 144.381 332.477 145.143 331.562C145.911 330.648 146.939 330.191 148.228 330.191C149.435 330.191 150.39 330.59 151.093 331.387C151.797 332.178 152.148 333.224 152.148 334.524V335.447H145.512C145.542 336.578 145.826 337.437 146.365 338.022C146.91 338.608 147.674 338.901 148.659 338.901C149.696 338.901 150.721 338.685 151.735 338.251V339.552C151.219 339.774 150.73 339.933 150.267 340.026C149.81 340.126 149.256 340.176 148.606 340.176ZM148.211 331.413C147.437 331.413 146.819 331.665 146.356 332.169C145.899 332.673 145.63 333.37 145.548 334.261H150.584C150.584 333.341 150.379 332.638 149.968 332.151C149.558 331.659 148.972 331.413 148.211 331.413ZM162.219 340H160.76V326.324H162.219V340ZM171.957 340L171.666 338.629H171.596C171.116 339.232 170.635 339.643 170.155 339.859C169.68 340.07 169.085 340.176 168.371 340.176C167.416 340.176 166.666 339.93 166.121 339.438C165.582 338.945 165.312 338.245 165.312 337.337C165.312 335.392 166.868 334.372 169.979 334.278L171.614 334.226V333.628C171.614 332.872 171.45 332.315 171.122 331.958C170.799 331.595 170.281 331.413 169.566 331.413C168.763 331.413 167.855 331.659 166.841 332.151L166.393 331.035C166.868 330.777 167.386 330.575 167.949 330.429C168.517 330.282 169.085 330.209 169.654 330.209C170.802 330.209 171.652 330.464 172.203 330.974C172.759 331.483 173.038 332.301 173.038 333.426V340H171.957ZM168.661 338.972C169.569 338.972 170.281 338.723 170.796 338.225C171.318 337.727 171.579 337.029 171.579 336.133V335.263L170.12 335.324C168.959 335.365 168.122 335.547 167.606 335.869C167.096 336.186 166.841 336.681 166.841 337.354C166.841 337.882 166.999 338.283 167.316 338.559C167.638 338.834 168.086 338.972 168.661 338.972ZM175.243 330.367H176.807L178.917 335.86C179.38 337.114 179.667 338.02 179.778 338.576H179.848C179.925 338.277 180.083 337.768 180.323 337.047C180.569 336.32 181.366 334.094 182.714 330.367H184.278L180.138 341.336C179.728 342.42 179.248 343.188 178.697 343.639C178.152 344.096 177.481 344.324 176.684 344.324C176.239 344.324 175.8 344.274 175.366 344.175V343.006C175.688 343.076 176.049 343.111 176.447 343.111C177.449 343.111 178.164 342.549 178.592 341.424L179.128 340.053L175.243 330.367ZM194.877 335.175C194.877 336.745 194.481 337.973 193.69 338.857C192.899 339.736 191.807 340.176 190.412 340.176C189.551 340.176 188.786 339.974 188.118 339.569C187.45 339.165 186.935 338.585 186.571 337.829C186.208 337.073 186.026 336.188 186.026 335.175C186.026 333.604 186.419 332.383 187.204 331.51C187.989 330.631 189.079 330.191 190.474 330.191C191.821 330.191 192.891 330.64 193.682 331.536C194.479 332.433 194.877 333.646 194.877 335.175ZM187.538 335.175C187.538 336.405 187.784 337.343 188.276 337.987C188.769 338.632 189.492 338.954 190.447 338.954C191.402 338.954 192.126 338.635 192.618 337.996C193.116 337.352 193.365 336.411 193.365 335.175C193.365 333.95 193.116 333.021 192.618 332.389C192.126 331.75 191.397 331.431 190.43 331.431C189.475 331.431 188.754 331.744 188.268 332.371C187.781 332.998 187.538 333.933 187.538 335.175ZM199.535 330.367V336.616C199.535 337.401 199.713 337.987 200.071 338.374C200.428 338.761 200.988 338.954 201.749 338.954C202.757 338.954 203.493 338.679 203.955 338.128C204.424 337.577 204.659 336.678 204.659 335.43V330.367H206.118V340H204.913L204.702 338.708H204.623C204.325 339.183 203.909 339.546 203.375 339.798C202.848 340.05 202.244 340.176 201.565 340.176C200.393 340.176 199.514 339.897 198.928 339.341C198.348 338.784 198.058 337.894 198.058 336.669V330.367H199.535ZM213.051 338.972C213.309 338.972 213.558 338.954 213.798 338.919C214.039 338.878 214.229 338.837 214.37 338.796V339.912C214.212 339.988 213.977 340.05 213.667 340.097C213.362 340.149 213.087 340.176 212.84 340.176C210.977 340.176 210.046 339.194 210.046 337.231V331.501H208.666V330.798L210.046 330.191L210.661 328.135H211.504V330.367H214.299V331.501H211.504V337.17C211.504 337.75 211.642 338.195 211.918 338.506C212.193 338.816 212.571 338.972 213.051 338.972ZM228.343 340L228.053 338.629H227.983C227.502 339.232 227.022 339.643 226.541 339.859C226.067 340.07 225.472 340.176 224.757 340.176C223.802 340.176 223.052 339.93 222.507 339.438C221.968 338.945 221.698 338.245 221.698 337.337C221.698 335.392 223.254 334.372 226.365 334.278L228 334.226V333.628C228 332.872 227.836 332.315 227.508 331.958C227.186 331.595 226.667 331.413 225.952 331.413C225.15 331.413 224.241 331.659 223.228 332.151L222.779 331.035C223.254 330.777 223.773 330.575 224.335 330.429C224.903 330.282 225.472 330.209 226.04 330.209C227.189 330.209 228.038 330.464 228.589 330.974C229.146 331.483 229.424 332.301 229.424 333.426V340H228.343ZM225.047 338.972C225.955 338.972 226.667 338.723 227.183 338.225C227.704 337.727 227.965 337.029 227.965 336.133V335.263L226.506 335.324C225.346 335.365 224.508 335.547 223.992 335.869C223.483 336.186 223.228 336.681 223.228 337.354C223.228 337.882 223.386 338.283 223.702 338.559C224.025 338.834 224.473 338.972 225.047 338.972ZM239.75 340V333.769C239.75 332.983 239.572 332.397 239.214 332.011C238.857 331.624 238.297 331.431 237.536 331.431C236.528 331.431 235.789 331.703 235.321 332.248C234.852 332.793 234.618 333.692 234.618 334.946V340H233.159V330.367H234.345L234.582 331.686H234.653C234.952 331.211 235.371 330.845 235.91 330.587C236.449 330.323 237.049 330.191 237.711 330.191C238.872 330.191 239.745 330.473 240.331 331.035C240.916 331.592 241.209 332.485 241.209 333.716V340H239.75ZM251.492 338.708H251.413C250.739 339.687 249.731 340.176 248.389 340.176C247.13 340.176 246.148 339.745 245.445 338.884C244.748 338.022 244.399 336.798 244.399 335.21C244.399 333.622 244.751 332.389 245.454 331.51C246.157 330.631 247.135 330.191 248.389 330.191C249.696 330.191 250.698 330.666 251.395 331.615H251.509L251.448 330.921L251.413 330.244V326.324H252.872V340H251.685L251.492 338.708ZM248.574 338.954C249.57 338.954 250.291 338.685 250.736 338.146C251.187 337.601 251.413 336.725 251.413 335.518V335.21C251.413 333.845 251.184 332.872 250.727 332.292C250.276 331.706 249.552 331.413 248.556 331.413C247.701 331.413 247.045 331.747 246.588 332.415C246.136 333.077 245.911 334.015 245.911 335.228C245.911 336.458 246.136 337.387 246.588 338.014C247.039 338.641 247.701 338.954 248.574 338.954ZM17.4568 365L17.1667 363.629H17.0964C16.6159 364.232 16.1355 364.643 15.655 364.859C15.1804 365.07 14.5857 365.176 13.8708 365.176C12.9157 365.176 12.1657 364.93 11.6208 364.438C11.0818 363.945 10.8122 363.245 10.8122 362.337C10.8122 360.392 12.3679 359.372 15.4792 359.278L17.114 359.226V358.628C17.114 357.872 16.9499 357.315 16.6218 356.958C16.2995 356.595 15.781 356.413 15.0661 356.413C14.2634 356.413 13.3552 356.659 12.3415 357.151L11.8933 356.035C12.3679 355.777 12.8864 355.575 13.4489 355.429C14.0173 355.282 14.5857 355.209 15.154 355.209C16.3025 355.209 17.1521 355.464 17.7029 355.974C18.2595 356.483 18.5378 357.301 18.5378 358.426V365H17.4568ZM14.1609 363.972C15.0691 363.972 15.781 363.723 16.2966 363.225C16.8181 362.727 17.0788 362.029 17.0788 361.133V360.263L15.6198 360.324C14.4597 360.365 13.6218 360.547 13.1062 360.869C12.5964 361.186 12.3415 361.681 12.3415 362.354C12.3415 362.882 12.4997 363.283 12.8161 363.559C13.1384 363.834 13.5866 363.972 14.1609 363.972ZM26.667 355.191C27.0947 355.191 27.4785 355.227 27.8184 355.297L27.6162 356.65C27.2178 356.562 26.8662 356.519 26.5615 356.519C25.7822 356.519 25.1143 356.835 24.5576 357.468C24.0068 358.101 23.7314 358.889 23.7314 359.832V365H22.2725V355.367H23.4766L23.6436 357.151H23.7139C24.0713 356.524 24.502 356.041 25.0059 355.701C25.5098 355.361 26.0635 355.191 26.667 355.191ZM34.1897 365.176C32.7952 365.176 31.7141 364.748 30.9466 363.893C30.1848 363.031 29.804 361.815 29.804 360.245C29.804 358.634 30.1907 357.389 30.9641 356.51C31.7434 355.631 32.8509 355.191 34.2864 355.191C34.7493 355.191 35.2122 355.241 35.6751 355.341C36.138 355.44 36.5012 355.558 36.7649 355.692L36.3167 356.932C35.9944 356.803 35.6429 356.697 35.262 356.615C34.8811 356.527 34.5442 356.483 34.2512 356.483C32.2942 356.483 31.3157 357.731 31.3157 360.228C31.3157 361.411 31.553 362.319 32.0276 362.952C32.5081 363.585 33.2171 363.901 34.1546 363.901C34.9573 363.901 35.7805 363.729 36.6243 363.383V364.675C35.9798 365.009 35.1682 365.176 34.1897 365.176ZM46.23 365V358.769C46.23 357.983 46.0513 357.397 45.6939 357.011C45.3365 356.624 44.7769 356.431 44.0152 356.431C43.0015 356.431 42.2603 356.706 41.7916 357.257C41.3287 357.808 41.0972 358.71 41.0972 359.964V365H39.6382V351.324H41.0972V355.464C41.0972 355.962 41.0738 356.375 41.0269 356.703H41.1148C41.4019 356.24 41.8091 355.877 42.3365 355.613C42.8697 355.344 43.4761 355.209 44.1558 355.209C45.3336 355.209 46.2154 355.49 46.8013 356.053C47.3931 356.609 47.689 357.497 47.689 358.716V365H46.23ZM52.8739 365H51.4149V355.367H52.8739V365ZM51.2918 352.757C51.2918 352.423 51.3739 352.18 51.5379 352.027C51.702 351.869 51.9071 351.79 52.1532 351.79C52.3875 351.79 52.5897 351.869 52.7596 352.027C52.9295 352.186 53.0145 352.429 53.0145 352.757C53.0145 353.085 52.9295 353.331 52.7596 353.495C52.5897 353.653 52.3875 353.732 52.1532 353.732C51.9071 353.732 51.702 353.653 51.5379 353.495C51.3739 353.331 51.2918 353.085 51.2918 352.757ZM59.7989 363.972C60.0568 363.972 60.3058 363.954 60.546 363.919C60.7862 363.878 60.9767 363.837 61.1173 363.796V364.912C60.9591 364.988 60.7247 365.05 60.4142 365.097C60.1095 365.149 59.8341 365.176 59.588 365.176C57.7247 365.176 56.7931 364.194 56.7931 362.231V356.501H55.4132V355.798L56.7931 355.191L57.4083 353.135H58.2521V355.367H61.047V356.501H58.2521V362.17C58.2521 362.75 58.3898 363.195 58.6652 363.506C58.9405 363.816 59.3185 363.972 59.7989 363.972ZM67.8402 365.176C66.4164 365.176 65.2914 364.742 64.4652 363.875C63.6449 363.008 63.2348 361.804 63.2348 360.263C63.2348 358.71 63.6156 357.477 64.3773 356.562C65.1449 355.648 66.1732 355.191 67.4623 355.191C68.6693 355.191 69.6244 355.59 70.3275 356.387C71.0307 357.178 71.3822 358.224 71.3822 359.524V360.447H64.7465C64.7758 361.578 65.06 362.437 65.599 363.022C66.1439 363.608 66.9086 363.901 67.893 363.901C68.9301 363.901 69.9555 363.685 70.9691 363.251V364.552C70.4535 364.774 69.9643 364.933 69.5014 365.026C69.0443 365.126 68.4906 365.176 67.8402 365.176ZM67.4447 356.413C66.6713 356.413 66.0531 356.665 65.5902 357.169C65.1332 357.673 64.8637 358.37 64.7816 359.261H69.8178C69.8178 358.341 69.6127 357.638 69.2025 357.151C68.7924 356.659 68.2064 356.413 67.4447 356.413ZM78.4479 365.176C77.0534 365.176 75.9723 364.748 75.2048 363.893C74.443 363.031 74.0622 361.815 74.0622 360.245C74.0622 358.634 74.4489 357.389 75.2223 356.51C76.0016 355.631 77.1091 355.191 78.5446 355.191C79.0075 355.191 79.4704 355.241 79.9333 355.341C80.3962 355.44 80.7595 355.558 81.0231 355.692L80.5749 356.932C80.2526 356.803 79.9011 356.697 79.5202 356.615C79.1393 356.527 78.8024 356.483 78.5095 356.483C76.5524 356.483 75.5739 357.731 75.5739 360.228C75.5739 361.411 75.8112 362.319 76.2858 362.952C76.7663 363.585 77.4753 363.901 78.4128 363.901C79.2155 363.901 80.0387 363.729 80.8825 363.383V364.675C80.238 365.009 79.4264 365.176 78.4479 365.176ZM87.0078 363.972C87.2656 363.972 87.5146 363.954 87.7548 363.919C87.9951 363.878 88.1855 363.837 88.3261 363.796V364.912C88.1679 364.988 87.9336 365.05 87.623 365.097C87.3183 365.149 87.0429 365.176 86.7968 365.176C84.9336 365.176 84.0019 364.194 84.0019 362.231V356.501H82.622V355.798L84.0019 355.191L84.6171 353.135H85.4609V355.367H88.2558V356.501H85.4609V362.17C85.4609 362.75 85.5986 363.195 85.874 363.506C86.1494 363.816 86.5273 363.972 87.0078 363.972ZM92.3508 355.367V361.616C92.3508 362.401 92.5295 362.987 92.887 363.374C93.2444 363.761 93.8039 363.954 94.5657 363.954C95.5735 363.954 96.3088 363.679 96.7717 363.128C97.2405 362.577 97.4748 361.678 97.4748 360.43V355.367H98.9338V365H97.7297L97.5188 363.708H97.4397C97.1409 364.183 96.7248 364.546 96.1916 364.798C95.6643 365.05 95.0608 365.176 94.3811 365.176C93.2092 365.176 92.3303 364.897 91.7444 364.341C91.1643 363.784 90.8743 362.894 90.8743 361.669V355.367H92.3508ZM107.151 355.191C107.579 355.191 107.962 355.227 108.302 355.297L108.1 356.65C107.702 356.562 107.35 356.519 107.045 356.519C106.266 356.519 105.598 356.835 105.042 357.468C104.491 358.101 104.215 358.889 104.215 359.832V365H102.756V355.367H103.96L104.127 357.151H104.198C104.555 356.524 104.986 356.041 105.49 355.701C105.994 355.361 106.547 355.191 107.151 355.191ZM114.893 365.176C113.47 365.176 112.345 364.742 111.518 363.875C110.698 363.008 110.288 361.804 110.288 360.263C110.288 358.71 110.669 357.477 111.43 356.562C112.198 355.648 113.226 355.191 114.515 355.191C115.722 355.191 116.678 355.59 117.381 356.387C118.084 357.178 118.435 358.224 118.435 359.524V360.447H111.8C111.829 361.578 112.113 362.437 112.652 363.022C113.197 363.608 113.962 363.901 114.946 363.901C115.983 363.901 117.009 363.685 118.022 363.251V364.552C117.507 364.774 117.017 364.933 116.554 365.026C116.097 365.126 115.544 365.176 114.893 365.176ZM114.498 356.413C113.724 356.413 113.106 356.665 112.643 357.169C112.186 357.673 111.917 358.37 111.835 359.261H116.871C116.871 358.341 116.666 357.638 116.256 357.151C115.846 356.659 115.26 356.413 114.498 356.413ZM135.362 360.175C135.362 361.745 134.966 362.973 134.175 363.857C133.384 364.736 132.291 365.176 130.897 365.176C130.036 365.176 129.271 364.974 128.603 364.569C127.935 364.165 127.419 363.585 127.056 362.829C126.693 362.073 126.511 361.188 126.511 360.175C126.511 358.604 126.904 357.383 127.689 356.51C128.474 355.631 129.564 355.191 130.958 355.191C132.306 355.191 133.375 355.64 134.166 356.536C134.963 357.433 135.362 358.646 135.362 360.175ZM128.023 360.175C128.023 361.405 128.269 362.343 128.761 362.987C129.253 363.632 129.977 363.954 130.932 363.954C131.887 363.954 132.611 363.635 133.103 362.996C133.601 362.352 133.85 361.411 133.85 360.175C133.85 358.95 133.601 358.021 133.103 357.389C132.611 356.75 131.881 356.431 130.914 356.431C129.959 356.431 129.239 356.744 128.752 357.371C128.266 357.998 128.023 358.933 128.023 360.175ZM142.99 356.501H140.538V365H139.079V356.501H137.356V355.842L139.079 355.314V354.778C139.079 352.411 140.113 351.228 142.181 351.228C142.691 351.228 143.289 351.33 143.974 351.535L143.596 352.704C143.034 352.522 142.553 352.432 142.155 352.432C141.604 352.432 141.197 352.616 140.933 352.985C140.67 353.349 140.538 353.935 140.538 354.743V355.367H142.99V356.501ZM153.975 363.972C154.233 363.972 154.482 363.954 154.722 363.919C154.962 363.878 155.153 363.837 155.293 363.796V364.912C155.135 364.988 154.901 365.05 154.59 365.097C154.285 365.149 154.01 365.176 153.764 365.176C151.901 365.176 150.969 364.194 150.969 362.231V356.501H149.589V355.798L150.969 355.191L151.584 353.135H152.428V355.367H155.223V356.501H152.428V362.17C152.428 362.75 152.566 363.195 152.841 363.506C153.116 363.816 153.494 363.972 153.975 363.972ZM164.539 365V358.769C164.539 357.983 164.36 357.397 164.002 357.011C163.645 356.624 163.085 356.431 162.324 356.431C161.31 356.431 160.569 356.706 160.1 357.257C159.637 357.808 159.406 358.71 159.406 359.964V365H157.947V351.324H159.406V355.464C159.406 355.962 159.382 356.375 159.335 356.703H159.423C159.71 356.24 160.118 355.877 160.645 355.613C161.178 355.344 161.785 355.209 162.464 355.209C163.642 355.209 164.524 355.49 165.11 356.053C165.702 356.609 165.998 357.497 165.998 358.716V365H164.539ZM173.793 365.176C172.369 365.176 171.244 364.742 170.418 363.875C169.597 363.008 169.187 361.804 169.187 360.263C169.187 358.71 169.568 357.477 170.33 356.562C171.097 355.648 172.126 355.191 173.415 355.191C174.622 355.191 175.577 355.59 176.28 356.387C176.983 357.178 177.335 358.224 177.335 359.524V360.447H170.699C170.728 361.578 171.012 362.437 171.552 363.022C172.096 363.608 172.861 363.901 173.845 363.901C174.883 363.901 175.908 363.685 176.922 363.251V364.552C176.406 364.774 175.917 364.933 175.454 365.026C174.997 365.126 174.443 365.176 173.793 365.176ZM173.397 356.413C172.624 356.413 172.006 356.665 171.543 357.169C171.086 357.673 170.816 358.37 170.734 359.261H175.77C175.77 358.341 175.565 357.638 175.155 357.151C174.745 356.659 174.159 356.413 173.397 356.413ZM193.813 365L192.046 359.349C191.935 359.003 191.727 358.218 191.422 356.993H191.352C191.117 358.019 190.912 358.81 190.737 359.366L188.917 365H187.23L184.602 355.367H186.131C186.752 357.787 187.224 359.63 187.546 360.896C187.874 362.161 188.062 363.014 188.109 363.453H188.179C188.243 363.119 188.346 362.688 188.487 362.161C188.633 361.628 188.759 361.206 188.865 360.896L190.631 355.367H192.213L193.936 360.896C194.264 361.903 194.487 362.75 194.604 363.436H194.674C194.698 363.225 194.759 362.899 194.859 362.46C194.964 362.021 195.576 359.656 196.696 355.367H198.207L195.544 365H193.813ZM204.746 365.176C203.322 365.176 202.197 364.742 201.371 363.875C200.55 363.008 200.14 361.804 200.14 360.263C200.14 358.71 200.521 357.477 201.283 356.562C202.05 355.648 203.079 355.191 204.368 355.191C205.575 355.191 206.53 355.59 207.233 356.387C207.936 357.178 208.288 358.224 208.288 359.524V360.447H201.652C201.681 361.578 201.965 362.437 202.504 363.022C203.049 363.608 203.814 363.901 204.798 363.901C205.836 363.901 206.861 363.685 207.875 363.251V364.552C207.359 364.774 206.87 364.933 206.407 365.026C205.95 365.126 205.396 365.176 204.746 365.176ZM204.35 356.413C203.577 356.413 202.959 356.665 202.496 357.169C202.039 357.673 201.769 358.37 201.687 359.261H206.723C206.723 358.341 206.518 357.638 206.108 357.151C205.698 356.659 205.112 356.413 204.35 356.413ZM215.986 355.209C217.252 355.209 218.233 355.643 218.931 356.51C219.634 357.371 219.985 358.593 219.985 360.175C219.985 361.757 219.631 362.987 218.922 363.866C218.219 364.739 217.24 365.176 215.986 365.176C215.359 365.176 214.785 365.062 214.264 364.833C213.748 364.599 213.314 364.241 212.963 363.761H212.857L212.55 365H211.504V351.324H212.963V354.646C212.963 355.391 212.939 356.059 212.892 356.65H212.963C213.642 355.689 214.65 355.209 215.986 355.209ZM215.775 356.431C214.779 356.431 214.061 356.718 213.622 357.292C213.182 357.86 212.963 358.821 212.963 360.175C212.963 361.528 213.188 362.498 213.64 363.084C214.091 363.664 214.814 363.954 215.81 363.954C216.707 363.954 217.375 363.629 217.814 362.979C218.254 362.322 218.474 361.382 218.474 360.157C218.474 358.903 218.254 357.969 217.814 357.354C217.375 356.738 216.695 356.431 215.775 356.431ZM229.477 362.372C229.477 363.269 229.143 363.96 228.475 364.446C227.807 364.933 226.869 365.176 225.662 365.176C224.385 365.176 223.389 364.974 222.674 364.569V363.216C223.137 363.45 223.632 363.635 224.159 363.77C224.693 363.904 225.205 363.972 225.697 363.972C226.459 363.972 227.045 363.852 227.455 363.611C227.865 363.365 228.07 362.993 228.07 362.495C228.07 362.12 227.906 361.801 227.578 361.537C227.256 361.268 226.623 360.951 225.68 360.588C224.783 360.254 224.145 359.964 223.764 359.718C223.389 359.466 223.108 359.182 222.92 358.865C222.738 358.549 222.648 358.171 222.648 357.731C222.648 356.946 222.967 356.328 223.606 355.877C224.244 355.42 225.12 355.191 226.234 355.191C227.271 355.191 228.284 355.402 229.275 355.824L228.756 357.011C227.789 356.612 226.913 356.413 226.128 356.413C225.437 356.413 224.915 356.521 224.564 356.738C224.212 356.955 224.036 357.254 224.036 357.635C224.036 357.893 224.101 358.112 224.23 358.294C224.364 358.476 224.578 358.648 224.871 358.812C225.164 358.977 225.727 359.214 226.559 359.524C227.701 359.94 228.472 360.359 228.87 360.781C229.275 361.203 229.477 361.733 229.477 362.372ZM234.038 365H232.579V355.367H234.038V365ZM232.456 352.757C232.456 352.423 232.538 352.18 232.702 352.027C232.866 351.869 233.071 351.79 233.317 351.79C233.551 351.79 233.753 351.869 233.923 352.027C234.093 352.186 234.178 352.429 234.178 352.757C234.178 353.085 234.093 353.331 233.923 353.495C233.753 353.653 233.551 353.732 233.317 353.732C233.071 353.732 232.866 353.653 232.702 353.495C232.538 353.331 232.456 353.085 232.456 352.757ZM240.963 363.972C241.22 363.972 241.469 363.954 241.71 363.919C241.95 363.878 242.14 363.837 242.281 363.796V364.912C242.123 364.988 241.888 365.05 241.578 365.097C241.273 365.149 240.998 365.176 240.752 365.176C238.888 365.176 237.957 364.194 237.957 362.231V356.501H236.577V355.798L237.957 355.191L238.572 353.135H239.416V355.367H242.211V356.501H239.416V362.17C239.416 362.75 239.553 363.195 239.829 363.506C240.104 363.816 240.482 363.972 240.963 363.972ZM249.004 365.176C247.58 365.176 246.455 364.742 245.629 363.875C244.809 363.008 244.398 361.804 244.398 360.263C244.398 358.71 244.779 357.477 245.541 356.562C246.309 355.648 247.337 355.191 248.626 355.191C249.833 355.191 250.788 355.59 251.491 356.387C252.194 357.178 252.546 358.224 252.546 359.524V360.447H245.91C245.939 361.578 246.224 362.437 246.763 363.022C247.308 363.608 248.072 363.901 249.057 363.901C250.094 363.901 251.119 363.685 252.133 363.251V364.552C251.617 364.774 251.128 364.933 250.665 365.026C250.208 365.126 249.654 365.176 249.004 365.176ZM248.608 356.413C247.835 356.413 247.217 356.665 246.754 357.169C246.297 357.673 246.027 358.37 245.945 359.261H250.981C250.981 358.341 250.776 357.638 250.366 357.151C249.956 356.659 249.37 356.413 248.608 356.413ZM255.551 364.068C255.551 363.676 255.639 363.38 255.815 363.181C255.996 362.976 256.254 362.873 256.588 362.873C256.928 362.873 257.192 362.976 257.379 363.181C257.573 363.38 257.669 363.676 257.669 364.068C257.669 364.449 257.573 364.742 257.379 364.947C257.186 365.152 256.922 365.255 256.588 365.255C256.289 365.255 256.04 365.164 255.841 364.982C255.648 364.795 255.551 364.49 255.551 364.068Z" fill="#3D5A80"/>
<circle cx="134.5" cy="94.5" r="94.5" fill="#98C1D9"/>
<rect x="112.5" y="124.5" width="44" height="27" fill="white" stroke="#3D5A80" stroke-width="3"/>
<rect x="33.5" y="124.5" width="44" height="27" fill="white" stroke="#3D5A80" stroke-width="3"/>
<rect x="191.5" y="124.5" width="44" height="27" fill="white" stroke="#3D5A80" stroke-width="3"/>
<rect x="80.5" y="66.5" width="43" height="27" fill="white" stroke="#3D5A80" stroke-width="3"/>
<rect x="112.5" y="10.5" width="43" height="27" fill="white" stroke="#3D5A80" stroke-width="3"/>
<rect x="145.5" y="66.5" width="43" height="27" fill="white" stroke="#3D5A80" stroke-width="3"/>
<line x1="134.5" y1="39" x2="134.5" y2="55" stroke="#3D5A80" stroke-width="3"/>
<line x1="96.5" y1="95" x2="96.5" y2="111" stroke="#3D5A80" stroke-width="3"/>
<line x1="168.5" y1="95" x2="168.5" y2="111" stroke="#3D5A80" stroke-width="3"/>
<line x1="165.5" y1="52" x2="165.5" y2="67" stroke="#3D5A80" stroke-width="3"/>
<line x1="104.5" y1="52" x2="104.5" y2="67" stroke="#3D5A80" stroke-width="3"/>
<line x1="55.5" y1="108" x2="55.5" y2="123" stroke="#3D5A80" stroke-width="3"/>
<line x1="133.5" y1="108" x2="133.5" y2="123" stroke="#3D5A80" stroke-width="3"/>
<line x1="214.5" y1="108" x2="214.5" y2="123" stroke="#3D5A80" stroke-width="3"/>
<line x1="104" y1="53.5" x2="166" y2="53.5" stroke="#3D5A80" stroke-width="3"/>
<line x1="54" y1="109.5" x2="134" y2="109.5" stroke="#3D5A80" stroke-width="3"/>
<line x1="167" y1="109.5" x2="215" y2="109.5" stroke="#3D5A80" stroke-width="3"/>
</svg>
