<svg width="285" height="375" viewBox="0 0 285 375" fill="none" xmlns="http://www.w3.org/2000/svg">
<path d="M98.7216 254H95.0887V239.891H90.4364V236.867H103.374V239.891H98.7216V254ZM116.838 254H106.971V236.867H116.838V239.844H110.603V243.605H116.404V246.582H110.603V251H116.838V254ZM131.497 249.242C131.497 250.789 130.938 252.008 129.821 252.898C128.712 253.789 127.165 254.234 125.181 254.234C123.353 254.234 121.735 253.891 120.329 253.203V249.828C121.485 250.344 122.462 250.707 123.259 250.918C124.063 251.129 124.798 251.234 125.462 251.234C126.259 251.234 126.868 251.082 127.29 250.777C127.72 250.473 127.935 250.02 127.935 249.418C127.935 249.082 127.841 248.785 127.653 248.527C127.466 248.262 127.188 248.008 126.821 247.766C126.462 247.523 125.724 247.137 124.606 246.605C123.56 246.113 122.774 245.641 122.251 245.188C121.728 244.734 121.31 244.207 120.997 243.605C120.685 243.004 120.528 242.301 120.528 241.496C120.528 239.98 121.04 238.789 122.063 237.922C123.095 237.055 124.517 236.621 126.329 236.621C127.22 236.621 128.067 236.727 128.872 236.938C129.685 237.148 130.532 237.445 131.415 237.828L130.243 240.652C129.329 240.277 128.571 240.016 127.97 239.867C127.376 239.719 126.79 239.645 126.212 239.645C125.524 239.645 124.997 239.805 124.63 240.125C124.263 240.445 124.079 240.863 124.079 241.379C124.079 241.699 124.153 241.98 124.302 242.223C124.45 242.457 124.685 242.688 125.005 242.914C125.333 243.133 126.103 243.531 127.313 244.109C128.915 244.875 130.013 245.645 130.606 246.418C131.2 247.184 131.497 248.125 131.497 249.242ZM142.172 254H138.539V239.891H133.887V236.867H146.824V239.891H142.172V254ZM150.421 254V236.867H154.054V254H150.421ZM174.525 254H169.908L162.455 241.039H162.35C162.498 243.328 162.572 244.961 162.572 245.938V254H159.326V236.867H163.908L171.35 249.699H171.432C171.315 247.473 171.256 245.898 171.256 244.977V236.867H174.525V254ZM186.314 244.379H193.11V253.262C192.009 253.621 190.97 253.871 189.993 254.012C189.025 254.16 188.032 254.234 187.017 254.234C184.431 254.234 182.454 253.477 181.087 251.961C179.728 250.438 179.048 248.254 179.048 245.41C179.048 242.645 179.837 240.488 181.415 238.941C183.001 237.395 185.196 236.621 188.001 236.621C189.759 236.621 191.454 236.973 193.087 237.676L191.88 240.582C190.63 239.957 189.329 239.645 187.978 239.645C186.407 239.645 185.15 240.172 184.204 241.227C183.259 242.281 182.786 243.699 182.786 245.48C182.786 247.34 183.165 248.762 183.923 249.746C184.689 250.723 185.798 251.211 187.251 251.211C188.009 251.211 188.778 251.133 189.56 250.977V247.402H186.314V244.379Z" fill="#3D5A80"/>
<path d="M32.2767 280.895C32.2767 282.195 31.8314 283.197 30.9408 283.9C30.056 284.598 28.7875 284.946 27.1351 284.946H25.6234V290H24.1293V277.15H27.4603C30.6712 277.15 32.2767 278.398 32.2767 280.895ZM25.6234 283.663H26.9681C28.2923 283.663 29.2504 283.449 29.8421 283.021C30.4339 282.594 30.7298 281.908 30.7298 280.965C30.7298 280.115 30.4515 279.482 29.8949 279.066C29.3382 278.65 28.4711 278.442 27.2933 278.442H25.6234V283.663ZM39.8698 280.191C40.2975 280.191 40.6813 280.227 41.0211 280.297L40.819 281.65C40.4205 281.562 40.069 281.519 39.7643 281.519C38.985 281.519 38.317 281.835 37.7604 282.468C37.2096 283.101 36.9342 283.889 36.9342 284.832V290H35.4752V280.367H36.6793L36.8463 282.151H36.9166C37.2741 281.524 37.7047 281.041 38.2086 280.701C38.7125 280.361 39.2663 280.191 39.8698 280.191ZM51.8573 285.175C51.8573 286.745 51.4618 287.973 50.6708 288.857C49.8798 289.736 48.787 290.176 47.3925 290.176C46.5312 290.176 45.7665 289.974 45.0986 289.569C44.4306 289.165 43.915 288.585 43.5517 287.829C43.1884 287.073 43.0068 286.188 43.0068 285.175C43.0068 283.604 43.3993 282.383 44.1845 281.51C44.9697 280.631 46.0595 280.191 47.454 280.191C48.8017 280.191 49.871 280.64 50.662 281.536C51.4589 282.433 51.8573 283.646 51.8573 285.175ZM44.5185 285.175C44.5185 286.405 44.7646 287.343 45.2568 287.987C45.7489 288.632 46.4726 288.954 47.4277 288.954C48.3827 288.954 49.1064 288.635 49.5986 287.996C50.0966 287.352 50.3456 286.411 50.3456 285.175C50.3456 283.95 50.0966 283.021 49.5986 282.389C49.1064 281.75 48.3769 281.431 47.4101 281.431C46.455 281.431 45.7343 281.744 45.248 282.371C44.7616 282.998 44.5185 283.933 44.5185 285.175ZM58.2551 288.972C58.5129 288.972 58.7619 288.954 59.0021 288.919C59.2424 288.878 59.4328 288.837 59.5734 288.796V289.912C59.4152 289.988 59.1809 290.05 58.8703 290.097C58.5656 290.149 58.2902 290.176 58.0441 290.176C56.1809 290.176 55.2492 289.194 55.2492 287.231V281.501H53.8693V280.798L55.2492 280.191L55.8645 278.135H56.7082V280.367H59.5031V281.501H56.7082V287.17C56.7082 287.75 56.8459 288.195 57.1213 288.506C57.3967 288.816 57.7746 288.972 58.2551 288.972ZM70.5415 285.175C70.5415 286.745 70.146 287.973 69.355 288.857C68.5639 289.736 67.4712 290.176 66.0766 290.176C65.2153 290.176 64.4507 289.974 63.7827 289.569C63.1147 289.165 62.5991 288.585 62.2358 287.829C61.8725 287.073 61.6909 286.188 61.6909 285.175C61.6909 283.604 62.0835 282.383 62.8686 281.51C63.6538 280.631 64.7436 280.191 66.1382 280.191C67.4858 280.191 68.5552 280.64 69.3462 281.536C70.143 282.433 70.5415 283.646 70.5415 285.175ZM63.2026 285.175C63.2026 286.405 63.4487 287.343 63.9409 287.987C64.4331 288.632 65.1567 288.954 66.1118 288.954C67.0669 288.954 67.7905 288.635 68.2827 287.996C68.7807 287.352 69.0298 286.411 69.0298 285.175C69.0298 283.95 68.7807 283.021 68.2827 282.389C67.7905 281.75 67.061 281.431 66.0942 281.431C65.1391 281.431 64.4184 281.744 63.9321 282.371C63.4458 282.998 63.2026 283.933 63.2026 285.175ZM72.2986 280.367H73.863L75.9724 285.86C76.4353 287.114 76.7224 288.02 76.8337 288.576H76.9041C76.9802 288.277 77.1384 287.768 77.3787 287.047C77.6248 286.32 78.4216 284.094 79.7693 280.367H81.3337L77.1941 291.336C76.7839 292.42 76.3035 293.188 75.7527 293.639C75.2078 294.096 74.5369 294.324 73.74 294.324C73.2947 294.324 72.8552 294.274 72.4216 294.175V293.006C72.7439 293.076 73.1043 293.111 73.5027 293.111C74.5046 293.111 75.2195 292.549 75.6472 291.424L76.1834 290.053L72.2986 280.367ZM88.1006 290.176C87.4737 290.176 86.8995 290.062 86.378 289.833C85.8623 289.599 85.4287 289.241 85.0772 288.761H84.9717C85.042 289.323 85.0772 289.856 85.0772 290.36V294.324H83.6182V280.367H84.8047L85.0069 281.686H85.0772C85.4522 281.158 85.8887 280.777 86.3868 280.543C86.8848 280.309 87.4561 280.191 88.1006 280.191C89.378 280.191 90.3623 280.628 91.0537 281.501C91.751 282.374 92.0996 283.599 92.0996 285.175C92.0996 286.757 91.7452 287.987 91.0362 288.866C90.333 289.739 89.3545 290.176 88.1006 290.176ZM87.8897 281.431C86.9053 281.431 86.1934 281.703 85.7539 282.248C85.3145 282.793 85.0889 283.66 85.0772 284.85V285.175C85.0772 286.528 85.3028 287.498 85.7539 288.084C86.2051 288.664 86.9287 288.954 87.9248 288.954C88.7569 288.954 89.4073 288.617 89.876 287.943C90.3506 287.27 90.5879 286.341 90.5879 285.157C90.5879 283.956 90.3506 283.036 89.876 282.397C89.4073 281.753 88.7452 281.431 87.8897 281.431ZM99.4466 290.176C98.0228 290.176 96.8978 289.742 96.0716 288.875C95.2513 288.008 94.8411 286.804 94.8411 285.263C94.8411 283.71 95.222 282.477 95.9837 281.562C96.7513 280.648 97.7796 280.191 99.0687 280.191C100.276 280.191 101.231 280.59 101.934 281.387C102.637 282.178 102.989 283.224 102.989 284.524V285.447H96.3529C96.3821 286.578 96.6663 287.437 97.2054 288.022C97.7503 288.608 98.515 288.901 99.4993 288.901C100.536 288.901 101.562 288.685 102.576 288.251V289.552C102.06 289.774 101.571 289.933 101.108 290.026C100.651 290.126 100.097 290.176 99.4466 290.176ZM99.0511 281.413C98.2777 281.413 97.6595 281.665 97.1966 282.169C96.7396 282.673 96.47 283.37 96.388 284.261H101.424C101.424 283.341 101.219 282.638 100.809 282.151C100.399 281.659 99.8128 281.413 99.0511 281.413ZM114.712 288.972C114.97 288.972 115.219 288.954 115.459 288.919C115.699 288.878 115.89 288.837 116.03 288.796V289.912C115.872 289.988 115.638 290.05 115.327 290.097C115.022 290.149 114.747 290.176 114.501 290.176C112.638 290.176 111.706 289.194 111.706 287.231V281.501H110.326V280.798L111.706 280.191L112.321 278.135H113.165V280.367H115.96V281.501H113.165V287.17C113.165 287.75 113.303 288.195 113.578 288.506C113.853 288.816 114.231 288.972 114.712 288.972ZM125.276 290V283.769C125.276 282.983 125.097 282.397 124.739 282.011C124.382 281.624 123.822 281.431 123.061 281.431C122.047 281.431 121.306 281.706 120.837 282.257C120.374 282.808 120.143 283.71 120.143 284.964V290H118.684V276.324H120.143V280.464C120.143 280.962 120.119 281.375 120.072 281.703H120.16C120.447 281.24 120.855 280.877 121.382 280.613C121.915 280.344 122.522 280.209 123.201 280.209C124.379 280.209 125.261 280.49 125.847 281.053C126.439 281.609 126.735 282.497 126.735 283.716V290H125.276ZM134.53 290.176C133.106 290.176 131.981 289.742 131.155 288.875C130.334 288.008 129.924 286.804 129.924 285.263C129.924 283.71 130.305 282.477 131.067 281.562C131.834 280.648 132.863 280.191 134.152 280.191C135.359 280.191 136.314 280.59 137.017 281.387C137.72 282.178 138.072 283.224 138.072 284.524V285.447H131.436C131.465 286.578 131.749 287.437 132.289 288.022C132.833 288.608 133.598 288.901 134.582 288.901C135.62 288.901 136.645 288.685 137.659 288.251V289.552C137.143 289.774 136.654 289.933 136.191 290.026C135.734 290.126 135.18 290.176 134.53 290.176ZM134.134 281.413C133.361 281.413 132.743 281.665 132.28 282.169C131.823 282.673 131.553 283.37 131.471 284.261H136.507C136.507 283.341 136.302 282.638 135.892 282.151C135.482 281.659 134.896 281.413 134.134 281.413ZM153.24 288.708H153.161C152.487 289.687 151.479 290.176 150.138 290.176C148.878 290.176 147.896 289.745 147.193 288.884C146.496 288.022 146.147 286.798 146.147 285.21C146.147 283.622 146.499 282.389 147.202 281.51C147.905 280.631 148.884 280.191 150.138 280.191C151.444 280.191 152.446 280.666 153.144 281.615H153.258L153.196 280.921L153.161 280.244V276.324H154.62V290H153.434L153.24 288.708ZM150.322 288.954C151.318 288.954 152.039 288.685 152.484 288.146C152.936 287.601 153.161 286.725 153.161 285.518V285.21C153.161 283.845 152.933 282.872 152.476 282.292C152.024 281.706 151.301 281.413 150.305 281.413C149.449 281.413 148.793 281.747 148.336 282.415C147.885 283.077 147.659 284.015 147.659 285.228C147.659 286.458 147.885 287.387 148.336 288.014C148.787 288.641 149.449 288.954 150.322 288.954ZM162.512 290.176C161.088 290.176 159.963 289.742 159.137 288.875C158.317 288.008 157.907 286.804 157.907 285.263C157.907 283.71 158.287 282.477 159.049 281.562C159.817 280.648 160.845 280.191 162.134 280.191C163.341 280.191 164.296 280.59 164.999 281.387C165.702 282.178 166.054 283.224 166.054 284.524V285.447H159.418C159.448 286.578 159.732 287.437 160.271 288.022C160.816 288.608 161.58 288.901 162.565 288.901C163.602 288.901 164.627 288.685 165.641 288.251V289.552C165.125 289.774 164.636 289.933 164.173 290.026C163.716 290.126 163.162 290.176 162.512 290.176ZM162.116 281.413C161.343 281.413 160.725 281.665 160.262 282.169C159.805 282.673 159.535 283.37 159.453 284.261H164.49C164.49 283.341 164.284 282.638 163.874 282.151C163.464 281.659 162.878 281.413 162.116 281.413ZM175.484 287.372C175.484 288.269 175.15 288.96 174.482 289.446C173.814 289.933 172.877 290.176 171.669 290.176C170.392 290.176 169.396 289.974 168.681 289.569V288.216C169.144 288.45 169.639 288.635 170.167 288.77C170.7 288.904 171.212 288.972 171.705 288.972C172.466 288.972 173.052 288.852 173.462 288.611C173.873 288.365 174.078 287.993 174.078 287.495C174.078 287.12 173.914 286.801 173.586 286.537C173.263 286.268 172.63 285.951 171.687 285.588C170.791 285.254 170.152 284.964 169.771 284.718C169.396 284.466 169.115 284.182 168.927 283.865C168.746 283.549 168.655 283.171 168.655 282.731C168.655 281.946 168.974 281.328 169.613 280.877C170.252 280.42 171.128 280.191 172.241 280.191C173.278 280.191 174.292 280.402 175.282 280.824L174.763 282.011C173.796 281.612 172.92 281.413 172.135 281.413C171.444 281.413 170.922 281.521 170.571 281.738C170.219 281.955 170.044 282.254 170.044 282.635C170.044 282.893 170.108 283.112 170.237 283.294C170.372 283.476 170.586 283.648 170.878 283.812C171.171 283.977 171.734 284.214 172.566 284.524C173.709 284.94 174.479 285.359 174.878 285.781C175.282 286.203 175.484 286.733 175.484 287.372ZM180.045 290H178.586V280.367H180.045V290ZM178.463 277.757C178.463 277.423 178.545 277.18 178.709 277.027C178.873 276.869 179.078 276.79 179.324 276.79C179.558 276.79 179.761 276.869 179.931 277.027C180.1 277.186 180.185 277.429 180.185 277.757C180.185 278.085 180.1 278.331 179.931 278.495C179.761 278.653 179.558 278.732 179.324 278.732C179.078 278.732 178.873 278.653 178.709 278.495C178.545 278.331 178.463 278.085 178.463 277.757ZM191.742 280.367V281.29L189.958 281.501C190.122 281.706 190.269 281.976 190.398 282.31C190.526 282.638 190.591 283.01 190.591 283.426C190.591 284.369 190.269 285.122 189.624 285.685C188.98 286.247 188.095 286.528 186.97 286.528C186.683 286.528 186.413 286.505 186.161 286.458C185.54 286.786 185.23 287.199 185.23 287.697C185.23 287.961 185.338 288.157 185.555 288.286C185.772 288.409 186.144 288.471 186.671 288.471H188.376C189.419 288.471 190.219 288.69 190.776 289.13C191.338 289.569 191.619 290.208 191.619 291.046C191.619 292.112 191.192 292.924 190.336 293.48C189.481 294.043 188.233 294.324 186.592 294.324C185.332 294.324 184.359 294.09 183.674 293.621C182.994 293.152 182.654 292.49 182.654 291.635C182.654 291.049 182.842 290.542 183.217 290.114C183.592 289.687 184.119 289.396 184.799 289.244C184.553 289.133 184.345 288.96 184.175 288.726C184.011 288.491 183.929 288.219 183.929 287.908C183.929 287.557 184.023 287.249 184.21 286.985C184.398 286.722 184.693 286.467 185.098 286.221C184.6 286.016 184.193 285.667 183.876 285.175C183.566 284.683 183.41 284.12 183.41 283.487C183.41 282.433 183.727 281.621 184.359 281.053C184.992 280.479 185.889 280.191 187.049 280.191C187.553 280.191 188.007 280.25 188.411 280.367H191.742ZM184.061 291.617C184.061 292.139 184.28 292.534 184.72 292.804C185.159 293.073 185.789 293.208 186.609 293.208C187.834 293.208 188.739 293.023 189.325 292.654C189.917 292.291 190.213 291.796 190.213 291.169C190.213 290.647 190.052 290.284 189.73 290.079C189.407 289.88 188.801 289.78 187.91 289.78H186.161C185.499 289.78 184.984 289.938 184.614 290.255C184.245 290.571 184.061 291.025 184.061 291.617ZM184.852 283.452C184.852 284.126 185.042 284.636 185.423 284.981C185.804 285.327 186.334 285.5 187.014 285.5C188.438 285.5 189.15 284.809 189.15 283.426C189.15 281.979 188.429 281.255 186.987 281.255C186.302 281.255 185.775 281.439 185.405 281.809C185.036 282.178 184.852 282.726 184.852 283.452ZM201.032 290V283.769C201.032 282.983 200.853 282.397 200.496 282.011C200.138 281.624 199.579 281.431 198.817 281.431C197.809 281.431 197.071 281.703 196.602 282.248C196.133 282.793 195.899 283.692 195.899 284.946V290H194.44V280.367H195.626L195.864 281.686H195.934C196.233 281.211 196.652 280.845 197.191 280.587C197.73 280.323 198.33 280.191 198.993 280.191C200.153 280.191 201.026 280.473 201.612 281.035C202.198 281.592 202.491 282.485 202.491 283.716V290H201.032ZM214.724 288.972C214.981 288.972 215.23 288.954 215.471 288.919C215.711 288.878 215.901 288.837 216.042 288.796V289.912C215.884 289.988 215.649 290.05 215.339 290.097C215.034 290.149 214.759 290.176 214.513 290.176C212.649 290.176 211.718 289.194 211.718 287.231V281.501H210.338V280.798L211.718 280.191L212.333 278.135H213.177V280.367H215.972V281.501H213.177V287.17C213.177 287.75 213.314 288.195 213.59 288.506C213.865 288.816 214.243 288.972 214.724 288.972ZM227.01 285.175C227.01 286.745 226.614 287.973 225.823 288.857C225.032 289.736 223.94 290.176 222.545 290.176C221.684 290.176 220.919 289.974 220.251 289.569C219.583 289.165 219.068 288.585 218.704 287.829C218.341 287.073 218.159 286.188 218.159 285.175C218.159 283.604 218.552 282.383 219.337 281.51C220.122 280.631 221.212 280.191 222.607 280.191C223.954 280.191 225.024 280.64 225.815 281.536C226.612 282.433 227.01 283.646 227.01 285.175ZM219.671 285.175C219.671 286.405 219.917 287.343 220.409 287.987C220.902 288.632 221.625 288.954 222.58 288.954C223.535 288.954 224.259 288.635 224.751 287.996C225.249 287.352 225.498 286.411 225.498 285.175C225.498 283.95 225.249 283.021 224.751 282.389C224.259 281.75 223.53 281.431 222.563 281.431C221.608 281.431 220.887 281.744 220.401 282.371C219.914 282.998 219.671 283.933 219.671 285.175ZM243.576 280.367V281.29L241.792 281.501C241.956 281.706 242.102 281.976 242.231 282.31C242.36 282.638 242.425 283.01 242.425 283.426C242.425 284.369 242.102 285.122 241.458 285.685C240.813 286.247 239.929 286.528 238.804 286.528C238.516 286.528 238.247 286.505 237.995 286.458C237.374 286.786 237.063 287.199 237.063 287.697C237.063 287.961 237.172 288.157 237.388 288.286C237.605 288.409 237.977 288.471 238.505 288.471H240.21C241.253 288.471 242.053 288.69 242.609 289.13C243.172 289.569 243.453 290.208 243.453 291.046C243.453 292.112 243.025 292.924 242.17 293.48C241.314 294.043 240.066 294.324 238.426 294.324C237.166 294.324 236.193 294.09 235.508 293.621C234.828 293.152 234.488 292.49 234.488 291.635C234.488 291.049 234.676 290.542 235.051 290.114C235.426 289.687 235.953 289.396 236.633 289.244C236.387 289.133 236.179 288.96 236.009 288.726C235.845 288.491 235.762 288.219 235.762 287.908C235.762 287.557 235.856 287.249 236.044 286.985C236.231 286.722 236.527 286.467 236.931 286.221C236.433 286.016 236.026 285.667 235.71 285.175C235.399 284.683 235.244 284.12 235.244 283.487C235.244 282.433 235.56 281.621 236.193 281.053C236.826 280.479 237.722 280.191 238.883 280.191C239.387 280.191 239.841 280.25 240.245 280.367H243.576ZM235.894 291.617C235.894 292.139 236.114 292.534 236.554 292.804C236.993 293.073 237.623 293.208 238.443 293.208C239.668 293.208 240.573 293.023 241.159 292.654C241.751 292.291 242.047 291.796 242.047 291.169C242.047 290.647 241.886 290.284 241.563 290.079C241.241 289.88 240.635 289.78 239.744 289.78H237.995C237.333 289.78 236.817 289.938 236.448 290.255C236.079 290.571 235.894 291.025 235.894 291.617ZM236.685 283.452C236.685 284.126 236.876 284.636 237.257 284.981C237.637 285.327 238.168 285.5 238.847 285.5C240.271 285.5 240.983 284.809 240.983 283.426C240.983 281.979 240.262 281.255 238.821 281.255C238.136 281.255 237.608 281.439 237.239 281.809C236.87 282.178 236.685 282.726 236.685 283.452ZM250.343 290.176C248.919 290.176 247.794 289.742 246.968 288.875C246.148 288.008 245.737 286.804 245.737 285.263C245.737 283.71 246.118 282.477 246.88 281.562C247.648 280.648 248.676 280.191 249.965 280.191C251.172 280.191 252.127 280.59 252.83 281.387C253.533 282.178 253.885 283.224 253.885 284.524V285.447H247.249C247.278 286.578 247.563 287.437 248.102 288.022C248.647 288.608 249.411 288.901 250.396 288.901C251.433 288.901 252.458 288.685 253.472 288.251V289.552C252.956 289.774 252.467 289.933 252.004 290.026C251.547 290.126 250.993 290.176 250.343 290.176ZM249.947 281.413C249.174 281.413 248.556 281.665 248.093 282.169C247.636 282.673 247.366 283.37 247.284 284.261H252.32C252.32 283.341 252.115 282.638 251.705 282.151C251.295 281.659 250.709 281.413 249.947 281.413ZM260.212 288.972C260.47 288.972 260.719 288.954 260.959 288.919C261.2 288.878 261.39 288.837 261.531 288.796V289.912C261.372 289.988 261.138 290.05 260.827 290.097C260.523 290.149 260.247 290.176 260.001 290.176C258.138 290.176 257.206 289.194 257.206 287.231V281.501H255.827V280.798L257.206 280.191L257.822 278.135H258.665V280.367H261.46V281.501H258.665V287.17C258.665 287.75 258.803 288.195 259.078 288.506C259.354 288.816 259.732 288.972 260.212 288.972ZM55.1968 313.708H55.1177C54.4439 314.687 53.4361 315.176 52.0943 315.176C50.8345 315.176 49.8531 314.745 49.15 313.884C48.4527 313.022 48.1041 311.798 48.1041 310.21C48.1041 308.622 48.4556 307.389 49.1588 306.51C49.8619 305.631 50.8404 305.191 52.0943 305.191C53.4009 305.191 54.4029 305.666 55.1002 306.615H55.2144L55.1529 305.921L55.1177 305.244V301.324H56.5767V315H55.3902L55.1968 313.708ZM52.2789 313.954C53.275 313.954 53.9957 313.685 54.441 313.146C54.8922 312.601 55.1177 311.725 55.1177 310.518V310.21C55.1177 308.845 54.8892 307.872 54.4322 307.292C53.981 306.706 53.2574 306.413 52.2613 306.413C51.4058 306.413 50.7496 306.747 50.2925 307.415C49.8414 308.077 49.6158 309.015 49.6158 310.228C49.6158 311.458 49.8414 312.387 50.2925 313.014C50.7437 313.641 51.4058 313.954 52.2789 313.954ZM61.8582 315H60.3993V305.367H61.8582V315ZM60.2762 302.757C60.2762 302.423 60.3582 302.18 60.5223 302.027C60.6864 301.869 60.8914 301.79 61.1375 301.79C61.3719 301.79 61.5741 301.869 61.744 302.027C61.9139 302.186 61.9989 302.429 61.9989 302.757C61.9989 303.085 61.9139 303.331 61.744 303.495C61.5741 303.653 61.3719 303.732 61.1375 303.732C60.8914 303.732 60.6864 303.653 60.5223 303.495C60.3582 303.331 60.2762 303.085 60.2762 302.757ZM70.0665 305.191C70.4943 305.191 70.8781 305.227 71.2179 305.297L71.0157 306.65C70.6173 306.562 70.2657 306.519 69.9611 306.519C69.1818 306.519 68.5138 306.835 67.9572 307.468C67.4064 308.101 67.131 308.889 67.131 309.832V315H65.672V305.367H66.8761L67.0431 307.151H67.1134C67.4708 306.524 67.9015 306.041 68.4054 305.701C68.9093 305.361 69.463 305.191 70.0665 305.191ZM77.809 315.176C76.3852 315.176 75.2602 314.742 74.434 313.875C73.6137 313.008 73.2035 311.804 73.2035 310.263C73.2035 308.71 73.5844 307.477 74.3461 306.562C75.1137 305.648 76.142 305.191 77.4311 305.191C78.6381 305.191 79.5932 305.59 80.2963 306.387C80.9994 307.178 81.351 308.224 81.351 309.524V310.447H74.7152C74.7445 311.578 75.0287 312.437 75.5678 313.022C76.1127 313.608 76.8773 313.901 77.8617 313.901C78.8988 313.901 79.9242 313.685 80.9379 313.251V314.552C80.4223 314.774 79.933 314.933 79.4701 315.026C79.0131 315.126 78.4594 315.176 77.809 315.176ZM77.4135 306.413C76.64 306.413 76.0219 306.665 75.559 307.169C75.102 307.673 74.8324 308.37 74.7504 309.261H79.7865C79.7865 308.341 79.5815 307.638 79.1713 307.151C78.7611 306.659 78.1752 306.413 77.4135 306.413ZM88.4167 315.176C87.0222 315.176 85.9411 314.748 85.1735 313.893C84.4118 313.031 84.0309 311.815 84.0309 310.245C84.0309 308.634 84.4177 307.389 85.1911 306.51C85.9704 305.631 87.0778 305.191 88.5134 305.191C88.9763 305.191 89.4391 305.241 89.902 305.341C90.3649 305.44 90.7282 305.558 90.9919 305.692L90.5436 306.932C90.2214 306.803 89.8698 306.697 89.489 306.615C89.1081 306.527 88.7712 306.483 88.4782 306.483C86.5212 306.483 85.5427 307.731 85.5427 310.228C85.5427 311.411 85.78 312.319 86.2546 312.952C86.735 313.585 87.444 313.901 88.3815 313.901C89.1843 313.901 90.0075 313.729 90.8513 313.383V314.675C90.2067 315.009 89.3952 315.176 88.4167 315.176ZM96.9765 313.972C97.2343 313.972 97.4834 313.954 97.7236 313.919C97.9638 313.878 98.1543 313.837 98.2949 313.796V314.912C98.1367 314.988 97.9023 315.05 97.5918 315.097C97.2871 315.149 97.0117 315.176 96.7656 315.176C94.9023 315.176 93.9707 314.194 93.9707 312.231V306.501H92.5908V305.798L93.9707 305.191L94.5859 303.135H95.4296V305.367H98.2246V306.501H95.4296V312.17C95.4296 312.75 95.5673 313.195 95.8427 313.506C96.1181 313.816 96.4961 313.972 96.9765 313.972ZM107.715 305.367V311.616C107.715 312.401 107.894 312.987 108.251 313.374C108.609 313.761 109.168 313.954 109.93 313.954C110.938 313.954 111.673 313.679 112.136 313.128C112.605 312.577 112.839 311.678 112.839 310.43V305.367H114.298V315H113.094L112.883 313.708H112.804C112.505 314.183 112.089 314.546 111.556 314.798C111.029 315.05 110.425 315.176 109.746 315.176C108.574 315.176 107.695 314.897 107.109 314.341C106.529 313.784 106.239 312.894 106.239 311.669V305.367H107.715ZM124.335 312.372C124.335 313.269 124.001 313.96 123.333 314.446C122.665 314.933 121.727 315.176 120.52 315.176C119.243 315.176 118.247 314.974 117.532 314.569V313.216C117.995 313.45 118.49 313.635 119.017 313.77C119.551 313.904 120.063 313.972 120.555 313.972C121.317 313.972 121.903 313.852 122.313 313.611C122.723 313.365 122.929 312.993 122.929 312.495C122.929 312.12 122.764 311.801 122.436 311.537C122.114 311.268 121.481 310.951 120.538 310.588C119.641 310.254 119.003 309.964 118.622 309.718C118.247 309.466 117.966 309.182 117.778 308.865C117.596 308.549 117.506 308.171 117.506 307.731C117.506 306.946 117.825 306.328 118.464 305.877C119.102 305.42 119.978 305.191 121.092 305.191C122.129 305.191 123.142 305.402 124.133 305.824L123.614 307.011C122.647 306.612 121.771 306.413 120.986 306.413C120.295 306.413 119.773 306.521 119.422 306.738C119.07 306.955 118.894 307.254 118.894 307.635C118.894 307.893 118.959 308.112 119.088 308.294C119.222 308.476 119.436 308.648 119.729 308.812C120.022 308.977 120.585 309.214 121.417 309.524C122.559 309.94 123.33 310.359 123.728 310.781C124.133 311.203 124.335 311.733 124.335 312.372ZM131.506 315.176C130.082 315.176 128.957 314.742 128.131 313.875C127.311 313.008 126.9 311.804 126.9 310.263C126.9 308.71 127.281 307.477 128.043 306.562C128.811 305.648 129.839 305.191 131.128 305.191C132.335 305.191 133.29 305.59 133.993 306.387C134.696 307.178 135.048 308.224 135.048 309.524V310.447H128.412C128.441 311.578 128.726 312.437 129.265 313.022C129.81 313.608 130.574 313.901 131.559 313.901C132.596 313.901 133.621 313.685 134.635 313.251V314.552C134.119 314.774 133.63 314.933 133.167 315.026C132.71 315.126 132.156 315.176 131.506 315.176ZM131.11 306.413C130.337 306.413 129.719 306.665 129.256 307.169C128.799 307.673 128.529 308.37 128.447 309.261H133.483C133.483 308.341 133.278 307.638 132.868 307.151C132.458 306.659 131.872 306.413 131.11 306.413ZM142.659 305.191C143.086 305.191 143.47 305.227 143.81 305.297L143.608 306.65C143.209 306.562 142.858 306.519 142.553 306.519C141.774 306.519 141.106 306.835 140.549 307.468C139.998 308.101 139.723 308.889 139.723 309.832V315H138.264V305.367H139.468L139.635 307.151H139.705C140.063 306.524 140.494 306.041 140.997 305.701C141.501 305.361 142.055 305.191 142.659 305.191ZM156.069 306.501H153.617V315H152.158V306.501H150.435V305.842L152.158 305.314V304.778C152.158 302.411 153.192 301.228 155.261 301.228C155.77 301.228 156.368 301.33 157.054 301.535L156.676 302.704C156.113 302.522 155.633 302.432 155.234 302.432C154.684 302.432 154.276 302.616 154.013 302.985C153.749 303.349 153.617 303.935 153.617 304.743V305.367H156.069V306.501ZM162.616 315.176C161.193 315.176 160.068 314.742 159.241 313.875C158.421 313.008 158.011 311.804 158.011 310.263C158.011 308.71 158.392 307.477 159.154 306.562C159.921 305.648 160.949 305.191 162.238 305.191C163.446 305.191 164.401 305.59 165.104 306.387C165.807 307.178 166.158 308.224 166.158 309.524V310.447H159.523C159.552 311.578 159.836 312.437 160.375 313.022C160.92 313.608 161.685 313.901 162.669 313.901C163.706 313.901 164.732 313.685 165.745 313.251V314.552C165.23 314.774 164.74 314.933 164.278 315.026C163.821 315.126 163.267 315.176 162.616 315.176ZM162.221 306.413C161.447 306.413 160.829 306.665 160.366 307.169C159.909 307.673 159.64 308.37 159.558 309.261H164.594C164.594 308.341 164.389 307.638 163.979 307.151C163.569 306.659 162.983 306.413 162.221 306.413ZM173.444 315.176C172.02 315.176 170.895 314.742 170.069 313.875C169.249 313.008 168.838 311.804 168.838 310.263C168.838 308.71 169.219 307.477 169.981 306.562C170.749 305.648 171.777 305.191 173.066 305.191C174.273 305.191 175.228 305.59 175.931 306.387C176.634 307.178 176.986 308.224 176.986 309.524V310.447H170.35C170.379 311.578 170.664 312.437 171.203 313.022C171.748 313.608 172.512 313.901 173.497 313.901C174.534 313.901 175.559 313.685 176.573 313.251V314.552C176.057 314.774 175.568 314.933 175.105 315.026C174.648 315.126 174.094 315.176 173.444 315.176ZM173.048 306.413C172.275 306.413 171.657 306.665 171.194 307.169C170.737 307.673 170.467 308.37 170.385 309.261H175.421C175.421 308.341 175.216 307.638 174.806 307.151C174.396 306.659 173.81 306.413 173.048 306.413ZM186.759 313.708H186.679C186.006 314.687 184.998 315.176 183.656 315.176C182.396 315.176 181.415 314.745 180.712 313.884C180.014 313.022 179.666 311.798 179.666 310.21C179.666 308.622 180.017 307.389 180.72 306.51C181.424 305.631 182.402 305.191 183.656 305.191C184.963 305.191 185.965 305.666 186.662 306.615H186.776L186.715 305.921L186.679 305.244V301.324H188.138V315H186.952L186.759 313.708ZM183.841 313.954C184.837 313.954 185.557 313.685 186.003 313.146C186.454 312.601 186.679 311.725 186.679 310.518V310.21C186.679 308.845 186.451 307.872 185.994 307.292C185.543 306.706 184.819 306.413 183.823 306.413C182.968 306.413 182.311 306.747 181.854 307.415C181.403 308.077 181.178 309.015 181.178 310.228C181.178 311.458 181.403 312.387 181.854 313.014C182.305 313.641 182.968 313.954 183.841 313.954ZM196.443 305.209C197.709 305.209 198.69 305.643 199.388 306.51C200.091 307.371 200.442 308.593 200.442 310.175C200.442 311.757 200.088 312.987 199.379 313.866C198.676 314.739 197.697 315.176 196.443 315.176C195.816 315.176 195.242 315.062 194.721 314.833C194.205 314.599 193.772 314.241 193.42 313.761H193.314L193.007 315H191.961V301.324H193.42V304.646C193.42 305.391 193.397 306.059 193.35 306.65H193.42C194.1 305.689 195.107 305.209 196.443 305.209ZM196.232 306.431C195.236 306.431 194.519 306.718 194.079 307.292C193.64 307.86 193.42 308.821 193.42 310.175C193.42 311.528 193.646 312.498 194.097 313.084C194.548 313.664 195.272 313.954 196.268 313.954C197.164 313.954 197.832 313.629 198.272 312.979C198.711 312.322 198.931 311.382 198.931 310.157C198.931 308.903 198.711 307.969 198.272 307.354C197.832 306.738 197.152 306.431 196.232 306.431ZM209.644 315L209.354 313.629H209.284C208.803 314.232 208.323 314.643 207.842 314.859C207.368 315.07 206.773 315.176 206.058 315.176C205.103 315.176 204.353 314.93 203.808 314.438C203.269 313.945 202.999 313.245 202.999 312.337C202.999 310.392 204.555 309.372 207.666 309.278L209.301 309.226V308.628C209.301 307.872 209.137 307.315 208.809 306.958C208.487 306.595 207.968 306.413 207.253 306.413C206.451 306.413 205.542 306.659 204.529 307.151L204.08 306.035C204.555 305.777 205.074 305.575 205.636 305.429C206.204 305.282 206.773 305.209 207.341 305.209C208.49 305.209 209.339 305.464 209.89 305.974C210.447 306.483 210.725 307.301 210.725 308.426V315H209.644ZM206.348 313.972C207.256 313.972 207.968 313.723 208.484 313.225C209.005 312.727 209.266 312.029 209.266 311.133V310.263L207.807 310.324C206.647 310.365 205.809 310.547 205.293 310.869C204.784 311.186 204.529 311.681 204.529 312.354C204.529 312.882 204.687 313.283 205.003 313.559C205.326 313.834 205.774 313.972 206.348 313.972ZM218.309 315.176C216.915 315.176 215.834 314.748 215.066 313.893C214.304 313.031 213.923 311.815 213.923 310.245C213.923 308.634 214.31 307.389 215.084 306.51C215.863 305.631 216.97 305.191 218.406 305.191C218.869 305.191 219.332 305.241 219.795 305.341C220.257 305.44 220.621 305.558 220.884 305.692L220.436 306.932C220.114 306.803 219.762 306.697 219.381 306.615C219.001 306.527 218.664 306.483 218.371 306.483C216.414 306.483 215.435 307.731 215.435 310.228C215.435 311.411 215.672 312.319 216.147 312.952C216.628 313.585 217.337 313.901 218.274 313.901C219.077 313.901 219.9 313.729 220.744 313.383V314.675C220.099 315.009 219.288 315.176 218.309 315.176ZM225.199 310.069C225.451 309.712 225.835 309.243 226.35 308.663L229.462 305.367H231.193L227.291 309.472L231.466 315H229.699L226.298 310.447L225.199 311.396V315H223.758V301.324H225.199V308.575C225.199 308.897 225.176 309.396 225.129 310.069H225.199ZM233.724 314.068C233.724 313.676 233.812 313.38 233.987 313.181C234.169 312.976 234.427 312.873 234.761 312.873C235.101 312.873 235.364 312.976 235.552 313.181C235.745 313.38 235.842 313.676 235.842 314.068C235.842 314.449 235.745 314.742 235.552 314.947C235.359 315.152 235.095 315.255 234.761 315.255C234.462 315.255 234.213 315.164 234.014 314.982C233.82 314.795 233.724 314.49 233.724 314.068Z" fill="#3D5A80"/>
<circle cx="142.5" cy="93.5" r="93.5" fill="#98C1D9"/>
<rect x="78.5142" y="54.1016" width="115.551" height="72.898" rx="5" fill="#F9FAFF"/>
<rect x="94.8" y="66.5098" width="106.245" height="41.8775" rx="5" fill="#3D5A80"/>
<path d="M120.828 81.8008H123.494C124.709 81.8008 125.59 81.9746 126.137 82.3223C126.688 82.666 126.963 83.2148 126.963 83.9688C126.963 84.4805 126.842 84.9004 126.6 85.2285C126.362 85.5566 126.043 85.7539 125.645 85.8203V85.8789C126.188 86 126.578 86.2266 126.817 86.5586C127.059 86.8906 127.18 87.332 127.18 87.8828C127.18 88.6641 126.897 89.2734 126.33 89.7109C125.768 90.1484 125.002 90.3672 124.033 90.3672H120.828V81.8008ZM122.645 85.1934H123.699C124.192 85.1934 124.547 85.1172 124.766 84.9648C124.988 84.8125 125.1 84.5605 125.1 84.209C125.1 83.8809 124.979 83.6465 124.737 83.5059C124.498 83.3613 124.119 83.2891 123.6 83.2891H122.645V85.1934ZM122.645 86.6348V88.8672H123.828C124.328 88.8672 124.697 88.7715 124.936 88.5801C125.174 88.3887 125.293 88.0957 125.293 87.7012C125.293 86.9902 124.785 86.6348 123.77 86.6348H122.645ZM137.063 81.8008V87.3438C137.063 87.9766 136.921 88.5312 136.636 89.0078C136.354 89.4844 135.946 89.8496 135.411 90.1035C134.876 90.3574 134.243 90.4844 133.513 90.4844C132.411 90.4844 131.556 90.2031 130.946 89.6406C130.337 89.0742 130.032 88.3008 130.032 87.3203V81.8008H131.843V87.0449C131.843 87.7051 131.976 88.1895 132.241 88.498C132.507 88.8066 132.946 88.9609 133.56 88.9609C134.153 88.9609 134.583 88.8066 134.849 88.498C135.118 88.1855 135.253 87.6973 135.253 87.0332V81.8008H137.063ZM143.666 90.3672H141.849V83.3125H139.523V81.8008H145.992V83.3125H143.666V90.3672ZM151.815 90.3672H149.999V83.3125H147.672V81.8008H154.141V83.3125H151.815V90.3672ZM164.435 86.0723C164.435 87.4902 164.083 88.5801 163.38 89.3418C162.677 90.1035 161.669 90.4844 160.357 90.4844C159.044 90.4844 158.037 90.1035 157.333 89.3418C156.63 88.5801 156.279 87.4863 156.279 86.0605C156.279 84.6348 156.63 83.5469 157.333 82.7969C158.04 82.043 159.052 81.666 160.369 81.666C161.685 81.666 162.691 82.0449 163.386 82.8027C164.085 83.5605 164.435 84.6504 164.435 86.0723ZM158.183 86.0723C158.183 87.0293 158.365 87.75 158.728 88.2344C159.091 88.7188 159.634 88.9609 160.357 88.9609C161.806 88.9609 162.531 87.998 162.531 86.0723C162.531 84.1426 161.81 83.1777 160.369 83.1777C159.646 83.1777 159.101 83.4219 158.734 83.9102C158.367 84.3945 158.183 85.1152 158.183 86.0723ZM175.01 90.3672H172.701L168.975 83.8867H168.922C168.996 85.0312 169.033 85.8477 169.033 86.3359V90.3672H167.41V81.8008H169.701L173.422 88.2168H173.463C173.404 87.1035 173.375 86.3164 173.375 85.8555V81.8008H175.01V90.3672Z" fill="#EAF0FF"/>
<line x1="202.596" y1="61.994" x2="213.59" y2="51" stroke="#3D5A80" stroke-width="2" stroke-linecap="round" stroke-linejoin="round"/>
<line x1="207.156" y1="69.5321" x2="219.97" y2="65.8272" stroke="#3D5A80" stroke-width="2" stroke-linecap="round" stroke-linejoin="round"/>
<line x1="73.3825" y1="56.5255" x2="89.209" y2="66.7428" stroke="#3D5A80" stroke-width="2" stroke-linecap="round" stroke-linejoin="round"/>
<line x1="73.4254" y1="71.0693" x2="86.6024" y2="72.7055" stroke="#3D5A80" stroke-width="2" stroke-linecap="round" stroke-linejoin="round"/>
<path fill-rule="evenodd" clip-rule="evenodd" d="M194 94.582L195.97 94.1925L196.359 96.1625L198.174 95.8037L198.563 97.7733L200.429 97.4043L200.819 99.3742L198.849 99.7637L198.46 97.7941L196.749 98.1323L202.054 124.955L204.022 124.558L204.053 124.713L204.419 126.526L202.161 126.981L202.156 126.958L200.469 127.291L194 94.582ZM204.053 124.713L203.656 122.745L205.625 122.348L206.022 124.316L204.053 124.713ZM207.711 103.99L209.629 103.611L209.988 105.425L211.802 105.066L212.192 107.036L214.161 106.647L214.551 108.616L212.581 109.006L212.192 107.036L210.222 107.426L209.863 105.612L208.049 105.971L207.669 104.052L205.751 104.432L205.362 102.462L207.332 102.072L207.711 103.99ZM202.737 98.9948L200.767 99.3844L201.157 101.354L203.075 100.975L203.444 102.841L205.414 102.451L205.024 100.481L203.106 100.861L202.737 98.9948ZM214.551 108.616L216.521 108.227L216.91 110.197L214.941 110.586L214.551 108.616ZM218.725 109.838L216.755 110.228L217.145 112.197L218.959 111.839L219.287 113.497L211.719 114.994L211.73 115.05L211.729 115.05L211.769 115.249L212.108 116.964L212.115 116.963L212.512 118.935L214.481 118.538L214.084 116.573L221.646 115.078L221.318 113.419L221.318 113.419L220.929 111.449L219.114 111.808L218.725 109.838ZM205.249 120.483L205.646 122.451L207.614 122.054L207.217 120.086L205.249 120.483ZM207.25 120.141L206.853 118.172L208.821 117.775L209.188 119.594L210.735 119.282L211.476 122.956L209.508 123.353L208.797 119.829L207.25 120.141ZM212.174 126.758L211.433 123.084L213.402 122.687L214.112 126.209L217.775 125.485L218.165 127.455L214.488 128.182L214.129 126.364L212.174 126.758ZM215.21 122.225L214.469 118.552L216.437 118.154L217.17 121.788L219.021 121.414L219.762 125.088L217.794 125.485L217.061 121.852L215.21 122.225Z" fill="#030A49"/>
<path fill-rule="evenodd" clip-rule="evenodd" d="M194.477 94.542L196.447 94.1524L196.836 96.1222L198.651 95.7633L199.04 97.733L200.906 97.364L201.296 99.3338L203.214 98.9545L203.583 100.82L205.501 100.441L205.891 102.411L203.921 102.801L203.552 100.935L201.634 101.314L201.244 99.344L199.326 99.7234L198.937 97.7537L197.226 98.092L202.53 124.914L204.499 124.517L204.53 124.673L204.896 126.486L202.638 126.941L202.633 126.918L200.946 127.251L194.477 94.542ZM204.53 124.673L204.133 122.704L206.102 122.307L205.725 120.442L207.694 120.045L208.091 122.014L206.122 122.411L206.499 124.276L204.53 124.673ZM208.188 103.95L210.106 103.571L210.465 105.385L212.279 105.026L212.669 106.996L210.699 107.385L210.34 105.571L208.526 105.93L208.146 104.012L206.228 104.391L205.839 102.421L207.809 102.032L208.188 103.95ZM215.028 108.576L216.998 108.186L217.388 110.156L215.418 110.546L215.028 108.576ZM219.202 109.798L217.232 110.187L217.622 112.157L219.436 111.798L219.764 113.457L212.195 114.954L212.206 115.009L212.206 115.009L212.246 115.209L212.585 116.924L212.592 116.922L212.989 118.894L214.958 118.497L214.561 116.533L222.123 115.037L221.795 113.378L221.795 113.378L221.405 111.408L219.591 111.767L219.202 109.798ZM212.669 106.996L214.639 106.606L215.028 108.576L213.058 108.966L212.669 106.996ZM207.727 120.1L207.33 118.132L209.298 117.735L209.665 119.554L211.212 119.242L211.953 122.916L209.985 123.313L209.274 119.788L207.727 120.1ZM212.651 126.718L211.91 123.044L213.878 122.647L214.589 126.169L218.252 125.444L218.642 127.414L214.965 128.141L214.606 126.323L212.651 126.718ZM215.687 122.185L214.946 118.511L216.914 118.114L217.647 121.747L219.498 121.374L220.239 125.048L218.271 125.445L217.538 121.812L215.687 122.185Z" fill="#EAF0FF"/>
</svg>
