<svg width="298" height="375" viewBox="0 0 298 375" fill="none" xmlns="http://www.w3.org/2000/svg">
<path d="M64.365 236.867V247.953C64.365 249.219 64.0798 250.328 63.5095 251.281C62.947 252.234 62.1306 252.965 61.0603 253.473C59.99 253.98 58.7244 254.234 57.2634 254.234C55.0603 254.234 53.3494 253.672 52.1306 252.547C50.9119 251.414 50.3025 249.867 50.3025 247.906V236.867H53.9236V247.355C53.9236 248.676 54.1892 249.645 54.7205 250.262C55.2517 250.879 56.1306 251.188 57.3572 251.188C58.5447 251.188 59.4041 250.879 59.9353 250.262C60.4744 249.637 60.7439 248.66 60.7439 247.332V236.867H64.365ZM79.6336 249.242C79.6336 250.789 79.075 252.008 77.9578 252.898C76.8484 253.789 75.3016 254.234 73.3172 254.234C71.4891 254.234 69.8719 253.891 68.4656 253.203V249.828C69.6219 250.344 70.5984 250.707 71.3953 250.918C72.2 251.129 72.9344 251.234 73.5984 251.234C74.3953 251.234 75.0047 251.082 75.4266 250.777C75.8562 250.473 76.0711 250.02 76.0711 249.418C76.0711 249.082 75.9773 248.785 75.7898 248.527C75.6023 248.262 75.325 248.008 74.9578 247.766C74.5984 247.523 73.8602 247.137 72.743 246.605C71.6961 246.113 70.9109 245.641 70.3875 245.188C69.8641 244.734 69.4461 244.207 69.1336 243.605C68.8211 243.004 68.6648 242.301 68.6648 241.496C68.6648 239.98 69.1766 238.789 70.2 237.922C71.2312 237.055 72.6531 236.621 74.4656 236.621C75.3562 236.621 76.2039 236.727 77.0086 236.938C77.8211 237.148 78.6687 237.445 79.5516 237.828L78.3797 240.652C77.4656 240.277 76.7078 240.016 76.1062 239.867C75.5125 239.719 74.9266 239.645 74.3484 239.645C73.6609 239.645 73.1336 239.805 72.7664 240.125C72.3992 240.445 72.2156 240.863 72.2156 241.379C72.2156 241.699 72.2898 241.98 72.4383 242.223C72.5867 242.457 72.8211 242.688 73.1414 242.914C73.4695 243.133 74.2391 243.531 75.45 244.109C77.0516 244.875 78.1492 245.645 78.743 246.418C79.3367 247.184 79.6336 248.125 79.6336 249.242ZM93.5662 254H83.6991V236.867H93.5662V239.844H87.3319V243.605H93.1327V246.582H87.3319V251H93.5662V254ZM101.745 244.473H102.917C104.065 244.473 104.913 244.281 105.46 243.898C106.007 243.516 106.28 242.914 106.28 242.094C106.28 241.281 105.999 240.703 105.436 240.359C104.882 240.016 104.018 239.844 102.847 239.844H101.745V244.473ZM101.745 247.426V254H98.1122V236.867H103.104C105.432 236.867 107.155 237.293 108.272 238.145C109.39 238.988 109.948 240.273 109.948 242C109.948 243.008 109.671 243.906 109.116 244.695C108.561 245.477 107.776 246.09 106.761 246.535C109.339 250.387 111.018 252.875 111.8 254H107.768L103.679 247.426H101.745ZM125.743 244.473H126.915C128.063 244.473 128.911 244.281 129.458 243.898C130.005 243.516 130.278 242.914 130.278 242.094C130.278 241.281 129.997 240.703 129.435 240.359C128.88 240.016 128.017 239.844 126.845 239.844H125.743V244.473ZM125.743 247.426V254H122.11V236.867H127.103C129.431 236.867 131.153 237.293 132.27 238.145C133.388 238.988 133.946 240.273 133.946 242C133.946 243.008 133.669 243.906 133.114 244.695C132.56 245.477 131.774 246.09 130.759 246.535C133.337 250.387 135.017 252.875 135.798 254H131.767L127.677 247.426H125.743ZM148.781 254H138.914V236.867H148.781V239.844H142.547V243.605H148.348V246.582H142.547V251H148.781V254ZM163.44 249.242C163.44 250.789 162.882 252.008 161.765 252.898C160.655 253.789 159.108 254.234 157.124 254.234C155.296 254.234 153.679 253.891 152.272 253.203V249.828C153.429 250.344 154.405 250.707 155.202 250.918C156.007 251.129 156.741 251.234 157.405 251.234C158.202 251.234 158.812 251.082 159.233 250.777C159.663 250.473 159.878 250.02 159.878 249.418C159.878 249.082 159.784 248.785 159.597 248.527C159.409 248.262 159.132 248.008 158.765 247.766C158.405 247.523 157.667 247.137 156.55 246.605C155.503 246.113 154.718 245.641 154.194 245.188C153.671 244.734 153.253 244.207 152.94 243.605C152.628 243.004 152.472 242.301 152.472 241.496C152.472 239.98 152.983 238.789 154.007 237.922C155.038 237.055 156.46 236.621 158.272 236.621C159.163 236.621 160.011 236.727 160.815 236.938C161.628 237.148 162.476 237.445 163.358 237.828L162.187 240.652C161.272 240.277 160.515 240.016 159.913 239.867C159.319 239.719 158.733 239.645 158.155 239.645C157.468 239.645 156.94 239.805 156.573 240.125C156.206 240.445 156.022 240.863 156.022 241.379C156.022 241.699 156.097 241.98 156.245 242.223C156.394 242.457 156.628 242.688 156.948 242.914C157.276 243.133 158.046 243.531 159.257 244.109C160.858 244.875 161.956 245.645 162.55 246.418C163.144 247.184 163.44 248.125 163.44 249.242ZM177.373 254H167.506V236.867H177.373V239.844H171.139V243.605H176.94V246.582H171.139V251H177.373V254ZM192.407 254L191.165 249.922H184.919L183.677 254H179.763L185.81 236.797H190.251L196.321 254H192.407ZM190.298 246.875C189.15 243.18 188.501 241.09 188.353 240.605C188.212 240.121 188.11 239.738 188.048 239.457C187.79 240.457 187.052 242.93 185.833 246.875H190.298ZM203.082 244.473H204.254C205.402 244.473 206.25 244.281 206.797 243.898C207.344 243.516 207.617 242.914 207.617 242.094C207.617 241.281 207.336 240.703 206.774 240.359C206.219 240.016 205.356 239.844 204.184 239.844H203.082V244.473ZM203.082 247.426V254H199.449V236.867H204.442C206.77 236.867 208.492 237.293 209.61 238.145C210.727 238.988 211.285 240.273 211.285 242C211.285 243.008 211.008 243.906 210.453 244.695C209.899 245.477 209.113 246.09 208.098 246.535C210.676 250.387 212.356 252.875 213.137 254H209.106L205.016 247.426H203.082ZM223.53 239.645C222.163 239.645 221.105 240.16 220.355 241.191C219.605 242.215 219.23 243.645 219.23 245.48C219.23 249.301 220.663 251.211 223.53 251.211C224.734 251.211 226.191 250.91 227.902 250.309V253.355C226.495 253.941 224.925 254.234 223.191 254.234C220.698 254.234 218.792 253.48 217.472 251.973C216.152 250.457 215.491 248.285 215.491 245.457C215.491 243.676 215.816 242.117 216.464 240.781C217.112 239.438 218.042 238.41 219.253 237.699C220.472 236.98 221.898 236.621 223.53 236.621C225.195 236.621 226.866 237.023 228.546 237.828L227.374 240.781C226.734 240.477 226.089 240.211 225.441 239.984C224.792 239.758 224.155 239.645 223.53 239.645ZM246.557 254H242.936V246.605H236.151V254H232.518V236.867H236.151V243.582H242.936V236.867H246.557V254Z" fill="#3D5A80"/>
<path d="M16.8494 283.452C16.8494 285.573 16.2723 287.196 15.118 288.321C13.9695 289.44 12.3143 290 10.1521 290H6.59258V277.15H10.5301C12.5281 277.15 14.0809 277.704 15.1883 278.812C16.2957 279.919 16.8494 281.466 16.8494 283.452ZM15.2674 283.505C15.2674 281.829 14.8455 280.566 14.0018 279.717C13.1639 278.867 11.9158 278.442 10.2576 278.442H8.08672V288.708H9.90605C11.6873 288.708 13.0262 288.271 13.9227 287.398C14.8191 286.52 15.2674 285.222 15.2674 283.505ZM24.293 290.176C22.8692 290.176 21.7442 289.742 20.918 288.875C20.0977 288.008 19.6876 286.804 19.6876 285.263C19.6876 283.71 20.0684 282.477 20.8302 281.562C21.5977 280.648 22.6261 280.191 23.9151 280.191C25.1221 280.191 26.0772 280.59 26.7803 281.387C27.4835 282.178 27.835 283.224 27.835 284.524V285.447H21.1993C21.2286 286.578 21.5128 287.437 22.0518 288.022C22.5968 288.608 23.3614 288.901 24.3458 288.901C25.3829 288.901 26.4083 288.685 27.422 288.251V289.552C26.9063 289.774 26.4171 289.933 25.9542 290.026C25.4971 290.126 24.9434 290.176 24.293 290.176ZM23.8975 281.413C23.1241 281.413 22.5059 281.665 22.043 282.169C21.586 282.673 21.3165 283.37 21.2345 284.261H26.2706C26.2706 283.341 26.0655 282.638 25.6553 282.151C25.2452 281.659 24.6593 281.413 23.8975 281.413ZM33.1605 290L29.5043 280.367H31.0687L33.1429 286.08C33.6117 287.416 33.8871 288.283 33.9691 288.682H34.0394C34.1039 288.371 34.306 287.729 34.6459 286.757C34.9916 285.778 35.7621 283.648 36.9574 280.367H38.5218L34.8656 290H33.1605ZM44.858 290.176C43.4342 290.176 42.3092 289.742 41.483 288.875C40.6627 288.008 40.2526 286.804 40.2526 285.263C40.2526 283.71 40.6334 282.477 41.3952 281.562C42.1627 280.648 43.1911 280.191 44.4801 280.191C45.6871 280.191 46.6422 280.59 47.3453 281.387C48.0485 282.178 48.4 283.224 48.4 284.524V285.447H41.7643C41.7936 286.578 42.0778 287.437 42.6168 288.022C43.1618 288.608 43.9264 288.901 44.9108 288.901C45.9479 288.901 46.9733 288.685 47.9869 288.251V289.552C47.4713 289.774 46.9821 289.933 46.5192 290.026C46.0621 290.126 45.5084 290.176 44.858 290.176ZM44.4625 281.413C43.6891 281.413 43.0709 281.665 42.608 282.169C42.151 282.673 41.8815 283.37 41.7994 284.261H46.8356C46.8356 283.341 46.6305 282.638 46.2203 282.151C45.8102 281.659 45.2243 281.413 44.4625 281.413ZM53.0751 290H51.6161V276.324H53.0751V290ZM65.2033 285.175C65.2033 286.745 64.8078 287.973 64.0168 288.857C63.2258 289.736 62.133 290.176 60.7385 290.176C59.8771 290.176 59.1125 289.974 58.4445 289.569C57.7766 289.165 57.2609 288.585 56.8977 287.829C56.5344 287.073 56.3527 286.188 56.3527 285.175C56.3527 283.604 56.7453 282.383 57.5305 281.51C58.3156 280.631 59.4055 280.191 60.8 280.191C62.1477 280.191 63.217 280.64 64.008 281.536C64.8049 282.433 65.2033 283.646 65.2033 285.175ZM57.8644 285.175C57.8644 286.405 58.1105 287.343 58.6027 287.987C59.0949 288.632 59.8186 288.954 60.7736 288.954C61.7287 288.954 62.4523 288.635 62.9445 287.996C63.4426 287.352 63.6916 286.411 63.6916 285.175C63.6916 283.95 63.4426 283.021 62.9445 282.389C62.4523 281.75 61.7228 281.431 60.7561 281.431C59.801 281.431 59.0803 281.744 58.5939 282.371C58.1076 282.998 57.8644 283.933 57.8644 285.175ZM72.9721 290.176C72.3452 290.176 71.771 290.062 71.2495 289.833C70.7339 289.599 70.3003 289.241 69.9487 288.761H69.8432C69.9136 289.323 69.9487 289.856 69.9487 290.36V294.324H68.4897V280.367H69.6762L69.8784 281.686H69.9487C70.3237 281.158 70.7602 280.777 71.2583 280.543C71.7563 280.309 72.3276 280.191 72.9721 280.191C74.2495 280.191 75.2339 280.628 75.9253 281.501C76.6225 282.374 76.9712 283.599 76.9712 285.175C76.9712 286.757 76.6167 287.987 75.9077 288.866C75.2046 289.739 74.2261 290.176 72.9721 290.176ZM72.7612 281.431C71.7768 281.431 71.0649 281.703 70.6255 282.248C70.186 282.793 69.9604 283.66 69.9487 284.85V285.175C69.9487 286.528 70.1743 287.498 70.6255 288.084C71.0766 288.664 71.8003 288.954 72.7964 288.954C73.6284 288.954 74.2788 288.617 74.7475 287.943C75.2221 287.27 75.4594 286.341 75.4594 285.157C75.4594 283.956 75.2221 283.036 74.7475 282.397C74.2788 281.753 73.6167 281.431 72.7612 281.431ZM84.3181 290.176C82.8943 290.176 81.7693 289.742 80.9431 288.875C80.1228 288.008 79.7127 286.804 79.7127 285.263C79.7127 283.71 80.0935 282.477 80.8552 281.562C81.6228 280.648 82.6511 280.191 83.9402 280.191C85.1472 280.191 86.1023 280.59 86.8054 281.387C87.5086 282.178 87.8601 283.224 87.8601 284.524V285.447H81.2244C81.2537 286.578 81.5378 287.437 82.0769 288.022C82.6218 288.608 83.3865 288.901 84.3709 288.901C85.408 288.901 86.4334 288.685 87.447 288.251V289.552C86.9314 289.774 86.4421 289.933 85.9793 290.026C85.5222 290.126 84.9685 290.176 84.3181 290.176ZM83.9226 281.413C83.1492 281.413 82.531 281.665 82.0681 282.169C81.6111 282.673 81.3416 283.37 81.2595 284.261H86.2957C86.2957 283.341 86.0906 282.638 85.6804 282.151C85.2703 281.659 84.6843 281.413 83.9226 281.413ZM102.396 290L102.106 288.629H102.035C101.555 289.232 101.075 289.643 100.594 289.859C100.119 290.07 99.5247 290.176 98.8099 290.176C97.8548 290.176 97.1048 289.93 96.5599 289.438C96.0208 288.945 95.7513 288.245 95.7513 287.337C95.7513 285.392 97.307 284.372 100.418 284.278L102.053 284.226V283.628C102.053 282.872 101.889 282.315 101.561 281.958C101.239 281.595 100.72 281.413 100.005 281.413C99.2025 281.413 98.2943 281.659 97.2806 282.151L96.8323 281.035C97.307 280.777 97.8255 280.575 98.388 280.429C98.9564 280.282 99.5247 280.209 100.093 280.209C101.242 280.209 102.091 280.464 102.642 280.974C103.199 281.483 103.477 282.301 103.477 283.426V290H102.396ZM99.0999 288.972C100.008 288.972 100.72 288.723 101.236 288.225C101.757 287.727 102.018 287.029 102.018 286.133V285.263L100.559 285.324C99.3988 285.365 98.5609 285.547 98.0452 285.869C97.5355 286.186 97.2806 286.681 97.2806 287.354C97.2806 287.882 97.4388 288.283 97.7552 288.559C98.0775 288.834 98.5257 288.972 99.0999 288.972ZM116.457 290.176C115.062 290.176 113.981 289.748 113.214 288.893C112.452 288.031 112.071 286.815 112.071 285.245C112.071 283.634 112.458 282.389 113.231 281.51C114.011 280.631 115.118 280.191 116.554 280.191C117.016 280.191 117.479 280.241 117.942 280.341C118.405 280.44 118.768 280.558 119.032 280.692L118.584 281.932C118.262 281.803 117.91 281.697 117.529 281.615C117.148 281.527 116.811 281.483 116.518 281.483C114.561 281.483 113.583 282.731 113.583 285.228C113.583 286.411 113.82 287.319 114.295 287.952C114.775 288.585 115.484 288.901 116.422 288.901C117.224 288.901 118.048 288.729 118.891 288.383V289.675C118.247 290.009 117.435 290.176 116.457 290.176ZM123.364 290H121.905V276.324H123.364V290ZM131.247 290.176C129.824 290.176 128.699 289.742 127.872 288.875C127.052 288.008 126.642 286.804 126.642 285.263C126.642 283.71 127.023 282.477 127.785 281.562C128.552 280.648 129.581 280.191 130.87 280.191C132.077 280.191 133.032 280.59 133.735 281.387C134.438 282.178 134.789 283.224 134.789 284.524V285.447H128.154C128.183 286.578 128.467 287.437 129.006 288.022C129.551 288.608 130.316 288.901 131.3 288.901C132.337 288.901 133.363 288.685 134.376 288.251V289.552C133.861 289.774 133.372 289.933 132.909 290.026C132.452 290.126 131.898 290.176 131.247 290.176ZM130.852 281.413C130.079 281.413 129.46 281.665 128.997 282.169C128.54 282.673 128.271 283.37 128.189 284.261H133.225C133.225 283.341 133.02 282.638 132.61 282.151C132.2 281.659 131.614 281.413 130.852 281.413ZM143.929 290L143.639 288.629H143.569C143.089 289.232 142.608 289.643 142.128 289.859C141.653 290.07 141.058 290.176 140.343 290.176C139.388 290.176 138.638 289.93 138.093 289.438C137.554 288.945 137.285 288.245 137.285 287.337C137.285 285.392 138.841 284.372 141.952 284.278L143.587 284.226V283.628C143.587 282.872 143.423 282.315 143.094 281.958C142.772 281.595 142.254 281.413 141.539 281.413C140.736 281.413 139.828 281.659 138.814 282.151L138.366 281.035C138.841 280.777 139.359 280.575 139.922 280.429C140.49 280.282 141.058 280.209 141.627 280.209C142.775 280.209 143.625 280.464 144.176 280.974C144.732 281.483 145.01 282.301 145.01 283.426V290H143.929ZM140.634 288.972C141.542 288.972 142.254 288.723 142.769 288.225C143.291 287.727 143.551 287.029 143.551 286.133V285.263L142.092 285.324C140.932 285.365 140.094 285.547 139.579 285.869C139.069 286.186 138.814 286.681 138.814 287.354C138.814 287.882 138.972 288.283 139.289 288.559C139.611 288.834 140.059 288.972 140.634 288.972ZM153.14 280.191C153.567 280.191 153.951 280.227 154.291 280.297L154.089 281.65C153.69 281.562 153.339 281.519 153.034 281.519C152.255 281.519 151.587 281.835 151.03 282.468C150.479 283.101 150.204 283.889 150.204 284.832V290H148.745V280.367H149.949L150.116 282.151H150.187C150.544 281.524 150.975 281.041 151.479 280.701C151.982 280.361 152.536 280.191 153.14 280.191ZM163.58 280.367V286.616C163.58 287.401 163.758 287.987 164.116 288.374C164.473 288.761 165.033 288.954 165.794 288.954C166.802 288.954 167.538 288.679 168.001 288.128C168.469 287.577 168.704 286.678 168.704 285.43V280.367H170.163V290H168.959L168.748 288.708H168.669C168.37 289.183 167.954 289.546 167.42 289.798C166.893 290.05 166.29 290.176 165.61 290.176C164.438 290.176 163.559 289.897 162.973 289.341C162.393 288.784 162.103 287.894 162.103 286.669V280.367H163.58ZM180.577 290V283.769C180.577 282.983 180.398 282.397 180.041 282.011C179.683 281.624 179.124 281.431 178.362 281.431C177.354 281.431 176.616 281.703 176.147 282.248C175.679 282.793 175.444 283.692 175.444 284.946V290H173.985V280.367H175.172L175.409 281.686H175.479C175.778 281.211 176.197 280.845 176.736 280.587C177.275 280.323 177.876 280.191 178.538 280.191C179.698 280.191 180.571 280.473 181.157 281.035C181.743 281.592 182.036 282.485 182.036 283.716V290H180.577ZM192.318 288.708H192.239C191.566 289.687 190.558 290.176 189.216 290.176C187.956 290.176 186.975 289.745 186.272 288.884C185.574 288.022 185.226 286.798 185.226 285.21C185.226 283.622 185.577 282.389 186.28 281.51C186.984 280.631 187.962 280.191 189.216 280.191C190.523 280.191 191.525 280.666 192.222 281.615H192.336L192.275 280.921L192.239 280.244V276.324H193.698V290H192.512L192.318 288.708ZM189.401 288.954C190.397 288.954 191.117 288.685 191.563 288.146C192.014 287.601 192.239 286.725 192.239 285.518V285.21C192.239 283.845 192.011 282.872 191.554 282.292C191.103 281.706 190.379 281.413 189.383 281.413C188.527 281.413 187.871 281.747 187.414 282.415C186.963 283.077 186.737 284.015 186.737 285.228C186.737 286.458 186.963 287.387 187.414 288.014C187.865 288.641 188.527 288.954 189.401 288.954ZM201.59 290.176C200.166 290.176 199.041 289.742 198.215 288.875C197.395 288.008 196.985 286.804 196.985 285.263C196.985 283.71 197.366 282.477 198.127 281.562C198.895 280.648 199.923 280.191 201.212 280.191C202.419 280.191 203.374 280.59 204.078 281.387C204.781 282.178 205.132 283.224 205.132 284.524V285.447H198.496C198.526 286.578 198.81 287.437 199.349 288.022C199.894 288.608 200.659 288.901 201.643 288.901C202.68 288.901 203.705 288.685 204.719 288.251V289.552C204.204 289.774 203.714 289.933 203.251 290.026C202.794 290.126 202.241 290.176 201.59 290.176ZM201.195 281.413C200.421 281.413 199.803 281.665 199.34 282.169C198.883 282.673 198.614 283.37 198.532 284.261H203.568C203.568 283.341 203.363 282.638 202.953 282.151C202.542 281.659 201.956 281.413 201.195 281.413ZM212.743 280.191C213.171 280.191 213.554 280.227 213.894 280.297L213.692 281.65C213.294 281.562 212.942 281.519 212.637 281.519C211.858 281.519 211.19 281.835 210.633 282.468C210.083 283.101 209.807 283.889 209.807 284.832V290H208.348V280.367H209.552L209.719 282.151H209.79C210.147 281.524 210.578 281.041 211.082 280.701C211.586 280.361 212.139 280.191 212.743 280.191ZM222.63 287.372C222.63 288.269 222.296 288.96 221.628 289.446C220.96 289.933 220.022 290.176 218.815 290.176C217.538 290.176 216.542 289.974 215.827 289.569V288.216C216.29 288.45 216.785 288.635 217.312 288.77C217.846 288.904 218.358 288.972 218.851 288.972C219.612 288.972 220.198 288.852 220.608 288.611C221.019 288.365 221.224 287.993 221.224 287.495C221.224 287.12 221.06 286.801 220.731 286.537C220.409 286.268 219.776 285.951 218.833 285.588C217.936 285.254 217.298 284.964 216.917 284.718C216.542 284.466 216.261 284.182 216.073 283.865C215.892 283.549 215.801 283.171 215.801 282.731C215.801 281.946 216.12 281.328 216.759 280.877C217.397 280.42 218.273 280.191 219.387 280.191C220.424 280.191 221.437 280.402 222.428 280.824L221.909 282.011C220.942 281.612 220.066 281.413 219.281 281.413C218.59 281.413 218.068 281.521 217.717 281.738C217.365 281.955 217.189 282.254 217.189 282.635C217.189 282.893 217.254 283.112 217.383 283.294C217.518 283.476 217.731 283.648 218.024 283.812C218.317 283.977 218.88 284.214 219.712 284.524C220.854 284.94 221.625 285.359 222.023 285.781C222.428 286.203 222.63 286.733 222.63 287.372ZM228.843 288.972C229.101 288.972 229.35 288.954 229.59 288.919C229.83 288.878 230.021 288.837 230.161 288.796V289.912C230.003 289.988 229.769 290.05 229.458 290.097C229.154 290.149 228.878 290.176 228.632 290.176C226.769 290.176 225.837 289.194 225.837 287.231V281.501H224.457V280.798L225.837 280.191L226.452 278.135H227.296V280.367H230.091V281.501H227.296V287.17C227.296 287.75 227.434 288.195 227.709 288.506C227.985 288.816 228.363 288.972 228.843 288.972ZM238.739 290L238.449 288.629H238.378C237.898 289.232 237.417 289.643 236.937 289.859C236.462 290.07 235.868 290.176 235.153 290.176C234.198 290.176 233.448 289.93 232.903 289.438C232.364 288.945 232.094 288.245 232.094 287.337C232.094 285.392 233.65 284.372 236.761 284.278L238.396 284.226V283.628C238.396 282.872 238.232 282.315 237.904 281.958C237.582 281.595 237.063 281.413 236.348 281.413C235.545 281.413 234.637 281.659 233.624 282.151L233.175 281.035C233.65 280.777 234.168 280.575 234.731 280.429C235.299 280.282 235.868 280.209 236.436 280.209C237.584 280.209 238.434 280.464 238.985 280.974C239.542 281.483 239.82 282.301 239.82 283.426V290H238.739ZM235.443 288.972C236.351 288.972 237.063 288.723 237.579 288.225C238.1 287.727 238.361 287.029 238.361 286.133V285.263L236.902 285.324C235.742 285.365 234.904 285.547 234.388 285.869C233.878 286.186 233.624 286.681 233.624 287.354C233.624 287.882 233.782 288.283 234.098 288.559C234.42 288.834 234.869 288.972 235.443 288.972ZM250.146 290V283.769C250.146 282.983 249.968 282.397 249.61 282.011C249.253 281.624 248.693 281.431 247.931 281.431C246.924 281.431 246.185 281.703 245.717 282.248C245.248 282.793 245.013 283.692 245.013 284.946V290H243.554V280.367H244.741L244.978 281.686H245.049C245.347 281.211 245.766 280.845 246.305 280.587C246.845 280.323 247.445 280.191 248.107 280.191C249.267 280.191 250.14 280.473 250.726 281.035C251.312 281.592 251.605 282.485 251.605 283.716V290H250.146ZM261.888 288.708H261.809C261.135 289.687 260.127 290.176 258.785 290.176C257.525 290.176 256.544 289.745 255.841 288.884C255.144 288.022 254.795 286.798 254.795 285.21C254.795 283.622 255.147 282.389 255.85 281.51C256.553 280.631 257.531 280.191 258.785 280.191C260.092 280.191 261.094 280.666 261.791 281.615H261.905L261.844 280.921L261.809 280.244V276.324H263.268V290H262.081L261.888 288.708ZM258.97 288.954C259.966 288.954 260.687 288.685 261.132 288.146C261.583 287.601 261.809 286.725 261.809 285.518V285.21C261.809 283.845 261.58 282.872 261.123 282.292C260.672 281.706 259.948 281.413 258.952 281.413C258.097 281.413 257.441 281.747 256.983 282.415C256.532 283.077 256.307 284.015 256.307 285.228C256.307 286.458 256.532 287.387 256.983 288.014C257.435 288.641 258.097 288.954 258.97 288.954ZM268.549 290H267.09V280.367H268.549V290ZM266.967 277.757C266.967 277.423 267.049 277.18 267.213 277.027C267.377 276.869 267.582 276.79 267.828 276.79C268.063 276.79 268.265 276.869 268.435 277.027C268.605 277.186 268.69 277.429 268.69 277.757C268.69 278.085 268.605 278.331 268.435 278.495C268.265 278.653 268.063 278.732 267.828 278.732C267.582 278.732 267.377 278.653 267.213 278.495C267.049 278.331 266.967 278.085 266.967 277.757ZM278.955 290V283.769C278.955 282.983 278.776 282.397 278.419 282.011C278.061 281.624 277.502 281.431 276.74 281.431C275.732 281.431 274.994 281.703 274.525 282.248C274.056 282.793 273.822 283.692 273.822 284.946V290H272.363V280.367H273.549L273.787 281.686H273.857C274.156 281.211 274.575 280.845 275.114 280.587C275.653 280.323 276.254 280.191 276.916 280.191C278.076 280.191 278.949 280.473 279.535 281.035C280.121 281.592 280.414 282.485 280.414 283.716V290H278.955ZM292.023 280.367V281.29L290.239 281.501C290.403 281.706 290.55 281.976 290.679 282.31C290.808 282.638 290.872 283.01 290.872 283.426C290.872 284.369 290.55 285.122 289.905 285.685C289.261 286.247 288.376 286.528 287.251 286.528C286.964 286.528 286.694 286.505 286.442 286.458C285.821 286.786 285.511 287.199 285.511 287.697C285.511 287.961 285.619 288.157 285.836 288.286C286.053 288.409 286.425 288.471 286.952 288.471H288.657C289.7 288.471 290.5 288.69 291.057 289.13C291.619 289.569 291.9 290.208 291.9 291.046C291.9 292.112 291.473 292.924 290.617 293.48C289.762 294.043 288.514 294.324 286.873 294.324C285.613 294.324 284.641 294.09 283.955 293.621C283.275 293.152 282.935 292.49 282.935 291.635C282.935 291.049 283.123 290.542 283.498 290.114C283.873 289.687 284.4 289.396 285.08 289.244C284.834 289.133 284.626 288.96 284.456 288.726C284.292 288.491 284.21 288.219 284.21 287.908C284.21 287.557 284.304 287.249 284.491 286.985C284.679 286.722 284.975 286.467 285.379 286.221C284.881 286.016 284.474 285.667 284.157 285.175C283.847 284.683 283.691 284.12 283.691 283.487C283.691 282.433 284.008 281.621 284.641 281.053C285.273 280.479 286.17 280.191 287.33 280.191C287.834 280.191 288.288 280.25 288.692 280.367H292.023ZM284.342 291.617C284.342 292.139 284.561 292.534 285.001 292.804C285.44 293.073 286.07 293.208 286.891 293.208C288.115 293.208 289.02 293.023 289.606 292.654C290.198 292.291 290.494 291.796 290.494 291.169C290.494 290.647 290.333 290.284 290.011 290.079C289.688 289.88 289.082 289.78 288.191 289.78H286.442C285.78 289.78 285.265 289.938 284.895 290.255C284.526 290.571 284.342 291.025 284.342 291.617ZM285.133 283.452C285.133 284.126 285.323 284.636 285.704 284.981C286.085 285.327 286.615 285.5 287.295 285.5C288.719 285.5 289.431 284.809 289.431 283.426C289.431 281.979 288.71 281.255 287.268 281.255C286.583 281.255 286.056 281.439 285.686 281.809C285.317 282.178 285.133 282.726 285.133 283.452ZM31.8073 310.175C31.8073 311.745 31.4118 312.973 30.6208 313.857C29.8298 314.736 28.737 315.176 27.3425 315.176C26.4812 315.176 25.7165 314.974 25.0486 314.569C24.3806 314.165 23.865 313.585 23.5017 312.829C23.1384 312.073 22.9568 311.188 22.9568 310.175C22.9568 308.604 23.3493 307.383 24.1345 306.51C24.9196 305.631 26.0095 305.191 27.404 305.191C28.7517 305.191 29.821 305.64 30.612 306.536C31.4089 307.433 31.8073 308.646 31.8073 310.175ZM24.4685 310.175C24.4685 311.405 24.7146 312.343 25.2068 312.987C25.6989 313.632 26.4226 313.954 27.3777 313.954C28.3327 313.954 29.0564 313.635 29.5486 312.996C30.0466 312.352 30.2956 311.411 30.2956 310.175C30.2956 308.95 30.0466 308.021 29.5486 307.389C29.0564 306.75 28.3269 306.431 27.3601 306.431C26.405 306.431 25.6843 306.744 25.198 307.371C24.7116 307.998 24.4685 308.933 24.4685 310.175ZM39.4355 306.501H36.9834V315H35.5244V306.501H33.8018V305.842L35.5244 305.314V304.778C35.5244 302.411 36.5586 301.228 38.627 301.228C39.1367 301.228 39.7344 301.33 40.4199 301.535L40.042 302.704C39.4795 302.522 38.999 302.432 38.6006 302.432C38.0498 302.432 37.6426 302.616 37.3789 302.985C37.1152 303.349 36.9834 303.935 36.9834 304.743V305.367H39.4355V306.501ZM48.6802 305.367V311.616C48.6802 312.401 48.8589 312.987 49.2164 313.374C49.5738 313.761 50.1334 313.954 50.8951 313.954C51.9029 313.954 52.6382 313.679 53.1011 313.128C53.5699 312.577 53.8043 311.678 53.8043 310.43V305.367H55.2632V315H54.0591L53.8482 313.708H53.7691C53.4703 314.183 53.0543 314.546 52.5211 314.798C51.9937 315.05 51.3902 315.176 50.7105 315.176C49.5386 315.176 48.6597 314.897 48.0738 314.341C47.4937 313.784 47.2037 312.894 47.2037 311.669V305.367H48.6802ZM65.2996 312.372C65.2996 313.269 64.9657 313.96 64.2977 314.446C63.6297 314.933 62.6922 315.176 61.4852 315.176C60.2079 315.176 59.2118 314.974 58.4969 314.569V313.216C58.9598 313.45 59.4549 313.635 59.9823 313.77C60.5155 313.904 61.0282 313.972 61.5204 313.972C62.2821 313.972 62.868 313.852 63.2782 313.611C63.6883 313.365 63.8934 312.993 63.8934 312.495C63.8934 312.12 63.7293 311.801 63.4012 311.537C63.0789 311.268 62.4461 310.951 61.5028 310.588C60.6063 310.254 59.9676 309.964 59.5868 309.718C59.2118 309.466 58.9305 309.182 58.743 308.865C58.5614 308.549 58.4705 308.171 58.4705 307.731C58.4705 306.946 58.7899 306.328 59.4286 305.877C60.0672 305.42 60.9432 305.191 62.0565 305.191C63.0936 305.191 64.1073 305.402 65.0975 305.824L64.5789 307.011C63.6121 306.612 62.7362 306.413 61.951 306.413C61.2596 306.413 60.7381 306.521 60.3866 306.738C60.035 306.955 59.8592 307.254 59.8592 307.635C59.8592 307.893 59.9237 308.112 60.0526 308.294C60.1873 308.476 60.4012 308.648 60.6942 308.812C60.9871 308.977 61.5496 309.214 62.3817 309.524C63.5243 309.94 64.2948 310.359 64.6932 310.781C65.0975 311.203 65.2996 311.733 65.2996 312.372ZM72.4708 315.176C71.047 315.176 69.922 314.742 69.0958 313.875C68.2755 313.008 67.8653 311.804 67.8653 310.263C67.8653 308.71 68.2462 307.477 69.0079 306.562C69.7755 305.648 70.8038 305.191 72.0929 305.191C73.2999 305.191 74.255 305.59 74.9581 306.387C75.6612 307.178 76.0128 308.224 76.0128 309.524V310.447H69.3771C69.4064 311.578 69.6905 312.437 70.2296 313.022C70.7745 313.608 71.5392 313.901 72.5236 313.901C73.5607 313.901 74.5861 313.685 75.5997 313.251V314.552C75.0841 314.774 74.5948 314.933 74.132 315.026C73.6749 315.126 73.1212 315.176 72.4708 315.176ZM72.0753 306.413C71.3019 306.413 70.6837 306.665 70.2208 307.169C69.7638 307.673 69.4943 308.37 69.4122 309.261H74.4484C74.4484 308.341 74.2433 307.638 73.8331 307.151C73.423 306.659 72.837 306.413 72.0753 306.413ZM83.6234 305.191C84.0512 305.191 84.435 305.227 84.7748 305.297L84.5727 306.65C84.1742 306.562 83.8227 306.519 83.518 306.519C82.7387 306.519 82.0707 306.835 81.5141 307.468C80.9633 308.101 80.6879 308.889 80.6879 309.832V315H79.2289V305.367H80.433L80.6 307.151H80.6703C81.0277 306.524 81.4584 306.041 81.9623 305.701C82.4662 305.361 83.0199 305.191 83.6234 305.191ZM93.5104 312.372C93.5104 313.269 93.1764 313.96 92.5085 314.446C91.8405 314.933 90.903 315.176 89.696 315.176C88.4186 315.176 87.4225 314.974 86.7077 314.569V313.216C87.1706 313.45 87.6657 313.635 88.193 313.77C88.7262 313.904 89.2389 313.972 89.7311 313.972C90.4929 313.972 91.0788 313.852 91.4889 313.611C91.8991 313.365 92.1042 312.993 92.1042 312.495C92.1042 312.12 91.9401 311.801 91.612 311.537C91.2897 311.268 90.6569 310.951 89.7136 310.588C88.8171 310.254 88.1784 309.964 87.7975 309.718C87.4225 309.466 87.1413 309.182 86.9538 308.865C86.7721 308.549 86.6813 308.171 86.6813 307.731C86.6813 306.946 87.0007 306.328 87.6393 305.877C88.278 305.42 89.154 305.191 90.2673 305.191C91.3044 305.191 92.318 305.402 93.3083 305.824L92.7897 307.011C91.8229 306.612 90.947 306.413 90.1618 306.413C89.4704 306.413 88.9489 306.521 88.5973 306.738C88.2458 306.955 88.07 307.254 88.07 307.635C88.07 307.893 88.1345 308.112 88.2634 308.294C88.3981 308.476 88.612 308.648 88.905 308.812C89.1979 308.977 89.7604 309.214 90.5925 309.524C91.735 309.94 92.5055 310.359 92.904 310.781C93.3083 311.203 93.5104 311.733 93.5104 312.372ZM110.323 310.175C110.323 311.745 109.927 312.973 109.136 313.857C108.345 314.736 107.252 315.176 105.858 315.176C104.996 315.176 104.232 314.974 103.564 314.569C102.896 314.165 102.38 313.585 102.017 312.829C101.654 312.073 101.472 311.188 101.472 310.175C101.472 308.604 101.864 307.383 102.65 306.51C103.435 305.631 104.525 305.191 105.919 305.191C107.267 305.191 108.336 305.64 109.127 306.536C109.924 307.433 110.323 308.646 110.323 310.175ZM102.984 310.175C102.984 311.405 103.23 312.343 103.722 312.987C104.214 313.632 104.938 313.954 105.893 313.954C106.848 313.954 107.572 313.635 108.064 312.996C108.562 312.352 108.811 311.411 108.811 310.175C108.811 308.95 108.562 308.021 108.064 307.389C107.572 306.75 106.842 306.431 105.875 306.431C104.92 306.431 104.199 306.744 103.713 307.371C103.227 307.998 102.984 308.933 102.984 310.175ZM120.201 315V308.769C120.201 307.983 120.022 307.397 119.665 307.011C119.307 306.624 118.748 306.431 117.986 306.431C116.978 306.431 116.24 306.703 115.771 307.248C115.302 307.793 115.068 308.692 115.068 309.946V315H113.609V305.367H114.795L115.033 306.686H115.103C115.402 306.211 115.821 305.845 116.36 305.587C116.899 305.323 117.5 305.191 118.162 305.191C119.322 305.191 120.195 305.473 120.781 306.035C121.367 306.592 121.66 307.485 121.66 308.716V315H120.201ZM135.264 315.176C134.637 315.176 134.063 315.062 133.541 314.833C133.025 314.599 132.592 314.241 132.24 313.761H132.135C132.205 314.323 132.24 314.856 132.24 315.36V319.324H130.781V305.367H131.968L132.17 306.686H132.24C132.615 306.158 133.052 305.777 133.55 305.543C134.048 305.309 134.619 305.191 135.264 305.191C136.541 305.191 137.525 305.628 138.217 306.501C138.914 307.374 139.263 308.599 139.263 310.175C139.263 311.757 138.908 312.987 138.199 313.866C137.496 314.739 136.518 315.176 135.264 315.176ZM135.053 306.431C134.068 306.431 133.357 306.703 132.917 307.248C132.478 307.793 132.252 308.66 132.24 309.85V310.175C132.24 311.528 132.466 312.498 132.917 313.084C133.368 313.664 134.092 313.954 135.088 313.954C135.92 313.954 136.57 313.617 137.039 312.943C137.514 312.27 137.751 311.341 137.751 310.157C137.751 308.956 137.514 308.036 137.039 307.397C136.57 306.753 135.908 306.431 135.053 306.431ZM146.935 305.191C147.363 305.191 147.746 305.227 148.086 305.297L147.884 306.65C147.486 306.562 147.134 306.519 146.829 306.519C146.05 306.519 145.382 306.835 144.826 307.468C144.275 308.101 143.999 308.889 143.999 309.832V315H142.54V305.367H143.744L143.911 307.151H143.982C144.339 306.524 144.77 306.041 145.274 305.701C145.778 305.361 146.331 305.191 146.935 305.191ZM158.923 310.175C158.923 311.745 158.527 312.973 157.736 313.857C156.945 314.736 155.852 315.176 154.458 315.176C153.596 315.176 152.832 314.974 152.164 314.569C151.496 314.165 150.98 313.585 150.617 312.829C150.254 312.073 150.072 311.188 150.072 310.175C150.072 308.604 150.464 307.383 151.25 306.51C152.035 305.631 153.125 305.191 154.519 305.191C155.867 305.191 156.936 305.64 157.727 306.536C158.524 307.433 158.923 308.646 158.923 310.175ZM151.584 310.175C151.584 311.405 151.83 312.343 152.322 312.987C152.814 313.632 153.538 313.954 154.493 313.954C155.448 313.954 156.172 313.635 156.664 312.996C157.162 312.352 157.411 311.411 157.411 310.175C157.411 308.95 157.162 308.021 156.664 307.389C156.172 306.75 155.442 306.431 154.475 306.431C153.52 306.431 152.799 306.744 152.313 307.371C151.827 307.998 151.584 308.933 151.584 310.175ZM168.766 313.708H168.686C168.013 314.687 167.005 315.176 165.663 315.176C164.403 315.176 163.422 314.745 162.719 313.884C162.021 313.022 161.673 311.798 161.673 310.21C161.673 308.622 162.024 307.389 162.727 306.51C163.431 305.631 164.409 305.191 165.663 305.191C166.97 305.191 167.972 305.666 168.669 306.615H168.783L168.722 305.921L168.686 305.244V301.324H170.145V315H168.959L168.766 313.708ZM165.848 313.954C166.844 313.954 167.564 313.685 168.01 313.146C168.461 312.601 168.686 311.725 168.686 310.518V310.21C168.686 308.845 168.458 307.872 168.001 307.292C167.55 306.706 166.826 306.413 165.83 306.413C164.975 306.413 164.318 306.747 163.861 307.415C163.41 308.077 163.184 309.015 163.184 310.228C163.184 311.458 163.41 312.387 163.861 313.014C164.312 313.641 164.975 313.954 165.848 313.954ZM175.339 305.367V311.616C175.339 312.401 175.518 312.987 175.875 313.374C176.233 313.761 176.792 313.954 177.554 313.954C178.562 313.954 179.297 313.679 179.76 313.128C180.229 312.577 180.463 311.678 180.463 310.43V305.367H181.922V315H180.718L180.507 313.708H180.428C180.129 314.183 179.713 314.546 179.18 314.798C178.653 315.05 178.049 315.176 177.369 315.176C176.197 315.176 175.319 314.897 174.733 314.341C174.153 313.784 173.863 312.894 173.863 311.669V305.367H175.339ZM189.594 315.176C188.2 315.176 187.119 314.748 186.351 313.893C185.589 313.031 185.208 311.815 185.208 310.245C185.208 308.634 185.595 307.389 186.369 306.51C187.148 305.631 188.255 305.191 189.691 305.191C190.154 305.191 190.617 305.241 191.08 305.341C191.542 305.44 191.906 305.558 192.169 305.692L191.721 306.932C191.399 306.803 191.047 306.697 190.666 306.615C190.286 306.527 189.949 306.483 189.656 306.483C187.699 306.483 186.72 307.731 186.72 310.228C186.72 311.411 186.958 312.319 187.432 312.952C187.913 313.585 188.622 313.901 189.559 313.901C190.362 313.901 191.185 313.729 192.029 313.383V314.675C191.384 315.009 190.573 315.176 189.594 315.176ZM198.154 313.972C198.412 313.972 198.661 313.954 198.901 313.919C199.141 313.878 199.332 313.837 199.472 313.796V314.912C199.314 314.988 199.08 315.05 198.769 315.097C198.465 315.149 198.189 315.176 197.943 315.176C196.08 315.176 195.148 314.194 195.148 312.231V306.501H193.768V305.798L195.148 305.191L195.763 303.135H196.607V305.367H199.402V306.501H196.607V312.17C196.607 312.75 196.745 313.195 197.02 313.506C197.296 313.816 197.674 313.972 198.154 313.972ZM207.004 302.15L202.214 315H200.755L205.545 302.15H207.004ZM215.669 312.372C215.669 313.269 215.335 313.96 214.667 314.446C213.999 314.933 213.062 315.176 211.855 315.176C210.577 315.176 209.581 314.974 208.867 314.569V313.216C209.329 313.45 209.825 313.635 210.352 313.77C210.885 313.904 211.398 313.972 211.89 313.972C212.652 313.972 213.238 313.852 213.648 313.611C214.058 313.365 214.263 312.993 214.263 312.495C214.263 312.12 214.099 311.801 213.771 311.537C213.449 311.268 212.816 310.951 211.872 310.588C210.976 310.254 210.337 309.964 209.956 309.718C209.581 309.466 209.3 309.182 209.113 308.865C208.931 308.549 208.84 308.171 208.84 307.731C208.84 306.946 209.159 306.328 209.798 305.877C210.437 305.42 211.313 305.191 212.426 305.191C213.463 305.191 214.477 305.402 215.467 305.824L214.949 307.011C213.982 306.612 213.106 306.413 212.321 306.413C211.629 306.413 211.108 306.521 210.756 306.738C210.405 306.955 210.229 307.254 210.229 307.635C210.229 307.893 210.293 308.112 210.422 308.294C210.557 308.476 210.771 308.648 211.064 308.812C211.357 308.977 211.919 309.214 212.751 309.524C213.894 309.94 214.664 310.359 215.063 310.781C215.467 311.203 215.669 311.733 215.669 312.372ZM222.84 315.176C221.417 315.176 220.292 314.742 219.465 313.875C218.645 313.008 218.235 311.804 218.235 310.263C218.235 308.71 218.616 307.477 219.378 306.562C220.145 305.648 221.173 305.191 222.462 305.191C223.67 305.191 224.625 305.59 225.328 306.387C226.031 307.178 226.382 308.224 226.382 309.524V310.447H219.747C219.776 311.578 220.06 312.437 220.599 313.022C221.144 313.608 221.909 313.901 222.893 313.901C223.93 313.901 224.956 313.685 225.969 313.251V314.552C225.454 314.774 224.964 314.933 224.502 315.026C224.045 315.126 223.491 315.176 222.84 315.176ZM222.445 306.413C221.671 306.413 221.053 306.665 220.59 307.169C220.133 307.673 219.864 308.37 219.782 309.261H224.818C224.818 308.341 224.613 307.638 224.203 307.151C223.793 306.659 223.207 306.413 222.445 306.413ZM233.993 305.191C234.421 305.191 234.805 305.227 235.144 305.297L234.942 306.65C234.544 306.562 234.192 306.519 233.888 306.519C233.108 306.519 232.44 306.835 231.884 307.468C231.333 308.101 231.057 308.889 231.057 309.832V315H229.599V305.367H230.803L230.97 307.151H231.04C231.397 306.524 231.828 306.041 232.332 305.701C232.836 305.361 233.39 305.191 233.993 305.191ZM239.776 315L236.119 305.367H237.684L239.758 311.08C240.227 312.416 240.502 313.283 240.584 313.682H240.654C240.719 313.371 240.921 312.729 241.261 311.757C241.607 310.778 242.377 308.648 243.572 305.367H245.137L241.481 315H239.776ZM248.863 315H247.404V305.367H248.863V315ZM247.281 302.757C247.281 302.423 247.363 302.18 247.527 302.027C247.691 301.869 247.896 301.79 248.142 301.79C248.376 301.79 248.579 301.869 248.748 302.027C248.918 302.186 249.003 302.429 249.003 302.757C249.003 303.085 248.918 303.331 248.748 303.495C248.579 303.653 248.376 303.732 248.142 303.732C247.896 303.732 247.691 303.653 247.527 303.495C247.363 303.331 247.281 303.085 247.281 302.757ZM256.526 315.176C255.132 315.176 254.051 314.748 253.283 313.893C252.521 313.031 252.14 311.815 252.14 310.245C252.14 308.634 252.527 307.389 253.301 306.51C254.08 305.631 255.187 305.191 256.623 305.191C257.086 305.191 257.549 305.241 258.011 305.341C258.474 305.44 258.838 305.558 259.101 305.692L258.653 306.932C258.331 306.803 257.979 306.697 257.598 306.615C257.217 306.527 256.881 306.483 256.588 306.483C254.631 306.483 253.652 307.731 253.652 310.228C253.652 311.411 253.889 312.319 254.364 312.952C254.844 313.585 255.553 313.901 256.491 313.901C257.294 313.901 258.117 313.729 258.961 313.383V314.675C258.316 315.009 257.505 315.176 256.526 315.176ZM266.044 315.176C264.62 315.176 263.495 314.742 262.669 313.875C261.849 313.008 261.438 311.804 261.438 310.263C261.438 308.71 261.819 307.477 262.581 306.562C263.349 305.648 264.377 305.191 265.666 305.191C266.873 305.191 267.828 305.59 268.531 306.387C269.234 307.178 269.586 308.224 269.586 309.524V310.447H262.95C262.979 311.578 263.264 312.437 263.803 313.022C264.348 313.608 265.112 313.901 266.097 313.901C267.134 313.901 268.159 313.685 269.173 313.251V314.552C268.657 314.774 268.168 314.933 267.705 315.026C267.248 315.126 266.694 315.176 266.044 315.176ZM265.648 306.413C264.875 306.413 264.257 306.665 263.794 307.169C263.337 307.673 263.067 308.37 262.985 309.261H268.021C268.021 308.341 267.816 307.638 267.406 307.151C266.996 306.659 266.41 306.413 265.648 306.413ZM272.591 314.068C272.591 313.676 272.679 313.38 272.855 313.181C273.036 312.976 273.294 312.873 273.628 312.873C273.968 312.873 274.232 312.976 274.419 313.181C274.613 313.38 274.709 313.676 274.709 314.068C274.709 314.449 274.613 314.742 274.419 314.947C274.226 315.152 273.962 315.255 273.628 315.255C273.329 315.255 273.08 315.164 272.881 314.982C272.688 314.795 272.591 314.49 272.591 314.068Z" fill="#3D5A80"/>
<circle cx="148.5" cy="93.5" r="93.5" fill="#98C1D9"/>
<mask id="path-4-inside-1" fill="white">
<path fill-rule="evenodd" clip-rule="evenodd" d="M78.9083 138.217C82.7473 115.191 97.6848 95.9202 118.036 86.0903C125.489 94.5841 136.425 99.9462 148.613 99.9462C160.871 99.9462 171.862 94.5222 179.318 85.9434C199.825 95.7274 214.893 115.075 218.751 138.217H78.9083Z"/>
</mask>
<path fill-rule="evenodd" clip-rule="evenodd" d="M78.9083 138.217C82.7473 115.191 97.6848 95.9202 118.036 86.0903C125.489 94.5841 136.425 99.9462 148.613 99.9462C160.871 99.9462 171.862 94.5222 179.318 85.9434C199.825 95.7274 214.893 115.075 218.751 138.217H78.9083Z" fill="#3D5A80"/>
<path d="M118.036 86.0903L118.788 85.4307C118.491 85.0929 118.006 84.9943 117.601 85.1898L118.036 86.0903ZM78.9083 138.217L77.9219 138.052C77.8736 138.342 77.9553 138.639 78.1453 138.863C78.3353 139.087 78.6144 139.217 78.9083 139.217V138.217ZM179.318 85.9434L179.748 85.0408C179.342 84.8473 178.858 84.9482 178.563 85.2874L179.318 85.9434ZM218.751 138.217V139.217C219.045 139.217 219.324 139.087 219.514 138.863C219.704 138.639 219.786 138.342 219.738 138.052L218.751 138.217ZM117.601 85.1898C96.9644 95.1576 81.8155 114.698 77.9219 138.052L79.8947 138.381C83.679 115.683 98.4052 96.6828 118.471 86.9907L117.601 85.1898ZM148.613 98.9462C136.725 98.9462 126.059 93.7174 118.788 85.4307L117.284 86.7498C124.919 95.4509 136.125 100.946 148.613 100.946V98.9462ZM178.563 85.2874C171.289 93.657 160.569 98.9462 148.613 98.9462V100.946C161.172 100.946 172.435 95.3874 180.072 86.5993L178.563 85.2874ZM219.738 138.052C215.825 114.581 200.543 94.9621 179.748 85.0408L178.887 86.8459C199.107 96.4927 213.962 115.569 217.765 138.381L219.738 138.052ZM78.9083 139.217H218.751V137.217H78.9083V139.217Z" fill="#F9FAFF" mask="url(#path-4-inside-1)"/>
<circle cx="148.627" cy="57.9759" r="31.8597" fill="#3D5A80" stroke="#F9FAFF" stroke-linecap="round" stroke-linejoin="round"/>
</svg>
