<svg width="285" height="375" viewBox="0 0 285 375" fill="none" xmlns="http://www.w3.org/2000/svg">
<circle cx="143.5" cy="93.5" r="93.5" fill="#98C1D9"/>
<rect x="58.0002" y="43.75" width="156.444" height="97.792" fill="white" stroke="#3D5A80" stroke-width="5"/>
<rect x="77.9541" y="55.8428" width="47.0006" height="28.2562" fill="#3D5A80" stroke="#3D5A80" stroke-width="5"/>
<rect x="136.001" y="55.8428" width="58.4891" height="5.2792" fill="#3D5A80" stroke="#3D5A80" stroke-width="5"/>
<rect x="136.001" y="70.3545" width="58.4891" height="13.7444" stroke="#3D5A80" stroke-width="5"/>
<rect x="77.9541" y="95.1465" width="116.536" height="13.7444" fill="#3D5A80" stroke="#3D5A80" stroke-width="5"/>
<rect x="77.9541" y="118.123" width="116.536" height="13.7444" stroke="#3D5A80" stroke-width="5"/>
<rect x="185.374" y="71.3555" width="42.582" height="78.8615" fill="white" stroke="#3D5A80" stroke-width="7"/>
<rect x="-2.5" y="2.5" width="27.6516" height="17.977" transform="matrix(-1 0 0 1 217.99 75.7158)" fill="#3D5A80" stroke="#3D5A80" stroke-width="5"/>
<rect x="-2.41863" y="2.41863" width="27.8143" height="4.83727" transform="matrix(-1 0 0 1 218.153 100.507)" stroke="#3D5A80" stroke-width="4.83727"/>
<rect x="-2.5" y="2.5" width="27.6516" height="15.5584" transform="matrix(-1 0 0 1 217.99 111.996)" stroke="#3D5A80" stroke-width="5"/>
<rect x="-2.26747" y="2.26747" width="28.1166" height="4.53494" transform="matrix(-1 0 0 1 218.455 134.973)" fill="#3D5A80" stroke="#3D5A80" stroke-width="4.53494"/>
<path d="M83.4413 254H79.3045L76.9842 245C76.8983 244.68 76.7498 244.02 76.5389 243.02C76.3358 242.012 76.2186 241.336 76.1873 240.992C76.1405 241.414 76.0233 242.094 75.8358 243.031C75.6483 243.961 75.5038 244.625 75.4022 245.023L73.0936 254H68.9686L64.5975 236.867H68.1717L70.3631 246.219C70.7459 247.945 71.0233 249.441 71.1952 250.707C71.242 250.262 71.3475 249.574 71.5116 248.645C71.6834 247.707 71.8436 246.98 71.992 246.465L74.4881 236.867H77.9217L80.4178 246.465C80.5272 246.895 80.6639 247.551 80.828 248.434C80.992 249.316 81.117 250.074 81.203 250.707C81.2811 250.098 81.4061 249.34 81.578 248.434C81.7498 247.52 81.9061 246.781 82.0467 246.219L84.2264 236.867H87.8006L83.4413 254ZM90.9169 254V236.867H94.5497V254H90.9169ZM103.455 244.473H104.627C105.775 244.473 106.623 244.281 107.17 243.898C107.717 243.516 107.99 242.914 107.99 242.094C107.99 241.281 107.709 240.703 107.146 240.359C106.592 240.016 105.728 239.844 104.557 239.844H103.455V244.473ZM103.455 247.426V254H99.8222V236.867H104.814C107.143 236.867 108.865 237.293 109.982 238.145C111.1 238.988 111.658 240.273 111.658 242C111.658 243.008 111.381 243.906 110.826 244.695C110.271 245.477 109.486 246.09 108.471 246.535C111.049 250.387 112.728 252.875 113.51 254H109.478L105.389 247.426H103.455ZM126.493 254H116.626V236.867H126.493V239.844H120.259V243.605H126.06V246.582H120.259V251H126.493V254ZM134.613 254H131.039V236.867H140.859V239.844H134.613V244.262H140.426V247.227H134.613V254ZM148.804 244.473H149.976C151.124 244.473 151.972 244.281 152.519 243.898C153.065 243.516 153.339 242.914 153.339 242.094C153.339 241.281 153.058 240.703 152.495 240.359C151.94 240.016 151.077 239.844 149.905 239.844H148.804V244.473ZM148.804 247.426V254H145.171V236.867H150.163C152.491 236.867 154.214 237.293 155.331 238.145C156.448 238.988 157.007 240.273 157.007 242C157.007 243.008 156.73 243.906 156.175 244.695C155.62 245.477 154.835 246.09 153.819 246.535C156.398 250.387 158.077 252.875 158.858 254H154.827L150.737 247.426H148.804ZM172.463 254L171.221 249.922H164.975L163.733 254H159.818L165.865 236.797H170.307L176.377 254H172.463ZM170.354 246.875C169.205 243.18 168.557 241.09 168.408 240.605C168.268 240.121 168.166 239.738 168.104 239.457C167.846 240.457 167.108 242.93 165.889 246.875H170.354ZM186.759 254L182.634 240.559H182.528C182.677 243.293 182.751 245.117 182.751 246.031V254H179.505V236.867H184.45L188.505 249.969H188.575L192.876 236.867H197.821V254H194.435V245.891C194.435 245.508 194.439 245.066 194.446 244.566C194.462 244.066 194.517 242.738 194.61 240.582H194.505L190.087 254H186.759ZM212.973 254H203.106V236.867H212.973V239.844H206.738V243.605H212.539V246.582H206.738V251H212.973V254Z" fill="#3D5A80"/>
<path d="M12.687 277.15H16.3168C18.0219 277.15 19.2553 277.405 20.017 277.915C20.7787 278.425 21.1596 279.23 21.1596 280.332C21.1596 281.094 20.9457 281.724 20.518 282.222C20.0961 282.714 19.478 283.033 18.6635 283.18V283.268C20.6147 283.602 21.5903 284.627 21.5903 286.344C21.5903 287.492 21.2006 288.389 20.4213 289.033C19.6479 289.678 18.5639 290 17.1694 290H12.687V277.15ZM14.1811 282.652H16.642C17.6967 282.652 18.4555 282.488 18.9184 282.16C19.3813 281.826 19.6127 281.267 19.6127 280.481C19.6127 279.761 19.3549 279.242 18.8393 278.926C18.3237 278.604 17.5034 278.442 16.3784 278.442H14.1811V282.652ZM14.1811 283.918V288.726H16.8618C17.8989 288.726 18.6782 288.526 19.1996 288.128C19.727 287.724 19.9907 287.094 19.9907 286.238C19.9907 285.441 19.7211 284.855 19.1821 284.48C18.6489 284.105 17.8344 283.918 16.7387 283.918H14.1811ZM29.2536 280.191C29.6814 280.191 30.0652 280.227 30.405 280.297L30.2029 281.65C29.8044 281.562 29.4529 281.519 29.1482 281.519C28.3689 281.519 27.7009 281.835 27.1443 282.468C26.5935 283.101 26.3181 283.889 26.3181 284.832V290H24.8591V280.367H26.0632L26.2302 282.151H26.3005C26.6579 281.524 27.0886 281.041 27.5925 280.701C28.0964 280.361 28.6501 280.191 29.2536 280.191ZM38.8506 290L38.5605 288.629H38.4902C38.0098 289.232 37.5293 289.643 37.0488 289.859C36.5742 290.07 35.9795 290.176 35.2646 290.176C34.3096 290.176 33.5596 289.93 33.0146 289.438C32.4756 288.945 32.2061 288.245 32.2061 287.337C32.2061 285.392 33.7617 284.372 36.873 284.278L38.5078 284.226V283.628C38.5078 282.872 38.3437 282.315 38.0156 281.958C37.6934 281.595 37.1748 281.413 36.46 281.413C35.6572 281.413 34.749 281.659 33.7353 282.151L33.2871 281.035C33.7617 280.777 34.2803 280.575 34.8428 280.429C35.4111 280.282 35.9795 280.209 36.5478 280.209C37.6963 280.209 38.5459 280.464 39.0967 280.974C39.6533 281.483 39.9316 282.301 39.9316 283.426V290H38.8506ZM35.5547 288.972C36.4629 288.972 37.1748 288.723 37.6904 288.225C38.2119 287.727 38.4727 287.029 38.4727 286.133V285.263L37.0137 285.324C35.8535 285.365 35.0156 285.547 34.5 285.869C33.9902 286.186 33.7353 286.681 33.7353 287.354C33.7353 287.882 33.8936 288.283 34.21 288.559C34.5322 288.834 34.9805 288.972 35.5547 288.972ZM45.1253 290H43.6663V280.367H45.1253V290ZM43.5432 277.757C43.5432 277.423 43.6253 277.18 43.7893 277.027C43.9534 276.869 44.1585 276.79 44.4046 276.79C44.6389 276.79 44.8411 276.869 45.011 277.027C45.1809 277.186 45.2659 277.429 45.2659 277.757C45.2659 278.085 45.1809 278.331 45.011 278.495C44.8411 278.653 44.6389 278.732 44.4046 278.732C44.1585 278.732 43.9534 278.653 43.7893 278.495C43.6253 278.331 43.5432 278.085 43.5432 277.757ZM55.5308 290V283.769C55.5308 282.983 55.3521 282.397 54.9947 282.011C54.6373 281.624 54.0777 281.431 53.316 281.431C52.3082 281.431 51.5699 281.703 51.1011 282.248C50.6324 282.793 50.398 283.692 50.398 284.946V290H48.939V280.367H50.1255L50.3629 281.686H50.4332C50.732 281.211 51.1509 280.845 51.69 280.587C52.2291 280.323 52.8296 280.191 53.4918 280.191C54.6519 280.191 55.525 280.473 56.1109 281.035C56.6968 281.592 56.9898 282.485 56.9898 283.716V290H55.5308ZM66.9295 287.372C66.9295 288.269 66.5955 288.96 65.9276 289.446C65.2596 289.933 64.3221 290.176 63.1151 290.176C61.8377 290.176 60.8416 289.974 60.1268 289.569V288.216C60.5897 288.45 61.0848 288.635 61.6121 288.77C62.1453 288.904 62.658 288.972 63.1502 288.972C63.9119 288.972 64.4979 288.852 64.908 288.611C65.3182 288.365 65.5233 287.993 65.5233 287.495C65.5233 287.12 65.3592 286.801 65.0311 286.537C64.7088 286.268 64.076 285.951 63.1327 285.588C62.2362 285.254 61.5975 284.964 61.2166 284.718C60.8416 284.466 60.5604 284.182 60.3729 283.865C60.1912 283.549 60.1004 283.171 60.1004 282.731C60.1004 281.946 60.4198 281.328 61.0584 280.877C61.6971 280.42 62.5731 280.191 63.6864 280.191C64.7235 280.191 65.7371 280.402 66.7274 280.824L66.2088 282.011C65.242 281.612 64.3661 281.413 63.5809 281.413C62.8895 281.413 62.368 281.521 62.0164 281.738C61.6649 281.955 61.4891 282.254 61.4891 282.635C61.4891 282.893 61.5536 283.112 61.6825 283.294C61.8172 283.476 62.0311 283.648 62.3241 283.812C62.617 283.977 63.1795 284.214 64.0116 284.524C65.1541 284.94 65.9246 285.359 66.3231 285.781C66.7274 286.203 66.9295 286.733 66.9295 287.372ZM73.1427 288.972C73.4005 288.972 73.6495 288.954 73.8898 288.919C74.13 288.878 74.3204 288.837 74.4611 288.796V289.912C74.3028 289.988 74.0685 290.05 73.7579 290.097C73.4532 290.149 73.1778 290.176 72.9318 290.176C71.0685 290.176 70.1368 289.194 70.1368 287.231V281.501H68.757V280.798L70.1368 280.191L70.7521 278.135H71.5958V280.367H74.3907V281.501H71.5958V287.17C71.5958 287.75 71.7335 288.195 72.0089 288.506C72.2843 288.816 72.6622 288.972 73.1427 288.972ZM85.4291 285.175C85.4291 286.745 85.0336 287.973 84.2426 288.857C83.4516 289.736 82.3588 290.176 80.9643 290.176C80.1029 290.176 79.3383 289.974 78.6703 289.569C78.0023 289.165 77.4867 288.585 77.1234 287.829C76.7602 287.073 76.5785 286.188 76.5785 285.175C76.5785 283.604 76.9711 282.383 77.7562 281.51C78.5414 280.631 79.6312 280.191 81.0258 280.191C82.3734 280.191 83.4428 280.64 84.2338 281.536C85.0307 282.433 85.4291 283.646 85.4291 285.175ZM78.0902 285.175C78.0902 286.405 78.3363 287.343 78.8285 287.987C79.3207 288.632 80.0443 288.954 80.9994 288.954C81.9545 288.954 82.6781 288.635 83.1703 287.996C83.6684 287.352 83.9174 286.411 83.9174 285.175C83.9174 283.95 83.6684 283.021 83.1703 282.389C82.6781 281.75 81.9486 281.431 80.9818 281.431C80.0268 281.431 79.3061 281.744 78.8197 282.371C78.3334 282.998 78.0902 283.933 78.0902 285.175ZM93.11 280.191C93.5378 280.191 93.9216 280.227 94.2614 280.297L94.0593 281.65C93.6608 281.562 93.3093 281.519 93.0046 281.519C92.2253 281.519 91.5573 281.835 91.0007 282.468C90.4499 283.101 90.1745 283.889 90.1745 284.832V290H88.7155V280.367H89.9196L90.0866 282.151H90.1569C90.5143 281.524 90.945 281.041 91.4489 280.701C91.9528 280.361 92.5065 280.191 93.11 280.191ZM109.061 290V283.733C109.061 282.966 108.897 282.392 108.569 282.011C108.241 281.624 107.731 281.431 107.04 281.431C106.132 281.431 105.461 281.691 105.027 282.213C104.594 282.734 104.377 283.537 104.377 284.621V290H102.918V283.733C102.918 282.966 102.754 282.392 102.426 282.011C102.098 281.624 101.585 281.431 100.888 281.431C99.9736 281.431 99.3027 281.706 98.875 282.257C98.4531 282.802 98.2421 283.698 98.2421 284.946V290H96.7832V280.367H97.9697L98.207 281.686H98.2773C98.5527 281.217 98.9394 280.851 99.4375 280.587C99.9414 280.323 100.504 280.191 101.125 280.191C102.631 280.191 103.615 280.736 104.078 281.826H104.148C104.436 281.322 104.852 280.924 105.396 280.631C105.941 280.338 106.562 280.191 107.26 280.191C108.35 280.191 109.164 280.473 109.703 281.035C110.248 281.592 110.52 282.485 110.52 283.716V290H109.061ZM126.208 288.708H126.128C125.455 289.687 124.447 290.176 123.105 290.176C121.845 290.176 120.864 289.745 120.161 288.884C119.463 288.022 119.115 286.798 119.115 285.21C119.115 283.622 119.466 282.389 120.169 281.51C120.873 280.631 121.851 280.191 123.105 280.191C124.412 280.191 125.414 280.666 126.111 281.615H126.225L126.164 280.921L126.128 280.244V276.324H127.587V290H126.401L126.208 288.708ZM123.29 288.954C124.286 288.954 125.006 288.685 125.452 288.146C125.903 287.601 126.128 286.725 126.128 285.518V285.21C126.128 283.845 125.9 282.872 125.443 282.292C124.992 281.706 124.268 281.413 123.272 281.413C122.417 281.413 121.76 281.747 121.303 282.415C120.852 283.077 120.626 284.015 120.626 285.228C120.626 286.458 120.852 287.387 121.303 288.014C121.754 288.641 122.417 288.954 123.29 288.954ZM135.479 290.176C134.055 290.176 132.93 289.742 132.104 288.875C131.284 288.008 130.874 286.804 130.874 285.263C130.874 283.71 131.255 282.477 132.016 281.562C132.784 280.648 133.812 280.191 135.101 280.191C136.308 280.191 137.263 280.59 137.967 281.387C138.67 282.178 139.021 283.224 139.021 284.524V285.447H132.386C132.415 286.578 132.699 287.437 133.238 288.022C133.783 288.608 134.548 288.901 135.532 288.901C136.569 288.901 137.595 288.685 138.608 288.251V289.552C138.093 289.774 137.603 289.933 137.14 290.026C136.683 290.126 136.13 290.176 135.479 290.176ZM135.084 281.413C134.31 281.413 133.692 281.665 133.229 282.169C132.772 282.673 132.503 283.37 132.421 284.261H137.457C137.457 283.341 137.252 282.638 136.842 282.151C136.431 281.659 135.846 281.413 135.084 281.413ZM148.451 287.372C148.451 288.269 148.117 288.96 147.449 289.446C146.781 289.933 145.844 290.176 144.637 290.176C143.359 290.176 142.363 289.974 141.649 289.569V288.216C142.111 288.45 142.607 288.635 143.134 288.77C143.667 288.904 144.18 288.972 144.672 288.972C145.434 288.972 146.02 288.852 146.43 288.611C146.84 288.365 147.045 287.993 147.045 287.495C147.045 287.12 146.881 286.801 146.553 286.537C146.231 286.268 145.598 285.951 144.654 285.588C143.758 285.254 143.119 284.964 142.738 284.718C142.363 284.466 142.082 284.182 141.895 283.865C141.713 283.549 141.622 283.171 141.622 282.731C141.622 281.946 141.941 281.328 142.58 280.877C143.219 280.42 144.095 280.191 145.208 280.191C146.245 280.191 147.259 280.402 148.249 280.824L147.731 282.011C146.764 281.612 145.888 281.413 145.103 281.413C144.411 281.413 143.89 281.521 143.538 281.738C143.187 281.955 143.011 282.254 143.011 282.635C143.011 282.893 143.075 283.112 143.204 283.294C143.339 283.476 143.553 283.648 143.846 283.812C144.139 283.977 144.701 284.214 145.533 284.524C146.676 284.94 147.446 285.359 147.845 285.781C148.249 286.203 148.451 286.733 148.451 287.372ZM153.012 290H151.553V280.367H153.012V290ZM151.43 277.757C151.43 277.423 151.512 277.18 151.676 277.027C151.84 276.869 152.045 276.79 152.291 276.79C152.526 276.79 152.728 276.869 152.898 277.027C153.068 277.186 153.153 277.429 153.153 277.757C153.153 278.085 153.068 278.331 152.898 278.495C152.728 278.653 152.526 278.732 152.291 278.732C152.045 278.732 151.84 278.653 151.676 278.495C151.512 278.331 151.43 278.085 151.43 277.757ZM164.71 280.367V281.29L162.925 281.501C163.089 281.706 163.236 281.976 163.365 282.31C163.494 282.638 163.558 283.01 163.558 283.426C163.558 284.369 163.236 285.122 162.591 285.685C161.947 286.247 161.062 286.528 159.937 286.528C159.65 286.528 159.381 286.505 159.129 286.458C158.507 286.786 158.197 287.199 158.197 287.697C158.197 287.961 158.305 288.157 158.522 288.286C158.739 288.409 159.111 288.471 159.638 288.471H161.343C162.386 288.471 163.186 288.69 163.743 289.13C164.305 289.569 164.587 290.208 164.587 291.046C164.587 292.112 164.159 292.924 163.303 293.48C162.448 294.043 161.2 294.324 159.559 294.324C158.299 294.324 157.327 294.09 156.641 293.621C155.962 293.152 155.622 292.49 155.622 291.635C155.622 291.049 155.809 290.542 156.184 290.114C156.559 289.687 157.087 289.396 157.766 289.244C157.52 289.133 157.312 288.96 157.142 288.726C156.978 288.491 156.896 288.219 156.896 287.908C156.896 287.557 156.99 287.249 157.177 286.985C157.365 286.722 157.661 286.467 158.065 286.221C157.567 286.016 157.16 285.667 156.843 285.175C156.533 284.683 156.378 284.12 156.378 283.487C156.378 282.433 156.694 281.621 157.327 281.053C157.96 280.479 158.856 280.191 160.016 280.191C160.52 280.191 160.974 280.25 161.379 280.367H164.71ZM157.028 291.617C157.028 292.139 157.248 292.534 157.687 292.804C158.127 293.073 158.756 293.208 159.577 293.208C160.801 293.208 161.707 293.023 162.293 292.654C162.884 292.291 163.18 291.796 163.18 291.169C163.18 290.647 163.019 290.284 162.697 290.079C162.375 289.88 161.768 289.78 160.878 289.78H159.129C158.466 289.78 157.951 289.938 157.582 290.255C157.213 290.571 157.028 291.025 157.028 291.617ZM157.819 283.452C157.819 284.126 158.009 284.636 158.39 284.981C158.771 285.327 159.301 285.5 159.981 285.5C161.405 285.5 162.117 284.809 162.117 283.426C162.117 281.979 161.396 281.255 159.955 281.255C159.269 281.255 158.742 281.439 158.373 281.809C158.004 282.178 157.819 282.726 157.819 283.452ZM173.999 290V283.769C173.999 282.983 173.82 282.397 173.463 282.011C173.105 281.624 172.546 281.431 171.784 281.431C170.776 281.431 170.038 281.703 169.569 282.248C169.101 282.793 168.866 283.692 168.866 284.946V290H167.407V280.367H168.594L168.831 281.686H168.901C169.2 281.211 169.619 280.845 170.158 280.587C170.697 280.323 171.298 280.191 171.96 280.191C173.12 280.191 173.993 280.473 174.579 281.035C175.165 281.592 175.458 282.485 175.458 283.716V290H173.999ZM186.039 290H184.58V280.367H186.039V290ZM184.457 277.757C184.457 277.423 184.539 277.18 184.703 277.027C184.867 276.869 185.072 276.79 185.318 276.79C185.552 276.79 185.754 276.869 185.924 277.027C186.094 277.186 186.179 277.429 186.179 277.757C186.179 278.085 186.094 278.331 185.924 278.495C185.754 278.653 185.552 278.732 185.318 278.732C185.072 278.732 184.867 278.653 184.703 278.495C184.539 278.331 184.457 278.085 184.457 277.757ZM196.409 288.708H196.33C195.656 289.687 194.648 290.176 193.306 290.176C192.047 290.176 191.065 289.745 190.362 288.884C189.665 288.022 189.316 286.798 189.316 285.21C189.316 283.622 189.668 282.389 190.371 281.51C191.074 280.631 192.053 280.191 193.306 280.191C194.613 280.191 195.615 280.666 196.312 281.615H196.427L196.365 280.921L196.33 280.244V276.324H197.789V290H196.602L196.409 288.708ZM193.491 288.954C194.487 288.954 195.208 288.685 195.653 288.146C196.104 287.601 196.33 286.725 196.33 285.518V285.21C196.33 283.845 196.101 282.872 195.644 282.292C195.193 281.706 194.469 281.413 193.473 281.413C192.618 281.413 191.962 281.747 191.505 282.415C191.053 283.077 190.828 284.015 190.828 285.228C190.828 286.458 191.053 287.387 191.505 288.014C191.956 288.641 192.618 288.954 193.491 288.954ZM205.681 290.176C204.257 290.176 203.132 289.742 202.306 288.875C201.485 288.008 201.075 286.804 201.075 285.263C201.075 283.71 201.456 282.477 202.218 281.562C202.985 280.648 204.014 280.191 205.303 280.191C206.51 280.191 207.465 280.59 208.168 281.387C208.871 282.178 209.223 283.224 209.223 284.524V285.447H202.587C202.616 286.578 202.9 287.437 203.439 288.022C203.984 288.608 204.749 288.901 205.733 288.901C206.771 288.901 207.796 288.685 208.81 288.251V289.552C208.294 289.774 207.805 289.933 207.342 290.026C206.885 290.126 206.331 290.176 205.681 290.176ZM205.285 281.413C204.512 281.413 203.894 281.665 203.431 282.169C202.974 282.673 202.704 283.37 202.622 284.261H207.658C207.658 283.341 207.453 282.638 207.043 282.151C206.633 281.659 206.047 281.413 205.285 281.413ZM218.363 290L218.073 288.629H218.002C217.522 289.232 217.041 289.643 216.561 289.859C216.086 290.07 215.492 290.176 214.777 290.176C213.822 290.176 213.072 289.93 212.527 289.438C211.988 288.945 211.718 288.245 211.718 287.337C211.718 285.392 213.274 284.372 216.385 284.278L218.02 284.226V283.628C218.02 282.872 217.856 282.315 217.528 281.958C217.205 281.595 216.687 281.413 215.972 281.413C215.169 281.413 214.261 281.659 213.247 282.151L212.799 281.035C213.274 280.777 213.792 280.575 214.355 280.429C214.923 280.282 215.492 280.209 216.06 280.209C217.208 280.209 218.058 280.464 218.609 280.974C219.165 281.483 219.444 282.301 219.444 283.426V290H218.363ZM215.067 288.972C215.975 288.972 216.687 288.723 217.202 288.225C217.724 287.727 217.985 287.029 217.985 286.133V285.263L216.526 285.324C215.366 285.365 214.528 285.547 214.012 285.869C213.502 286.186 213.247 286.681 213.247 287.354C213.247 287.882 213.406 288.283 213.722 288.559C214.044 288.834 214.492 288.972 215.067 288.972ZM224.347 277.15L224.479 277.344C224.327 277.93 224.107 278.612 223.82 279.392C223.533 280.165 223.234 280.886 222.923 281.554H221.851C222.261 279.884 222.56 278.416 222.748 277.15H224.347ZM233.171 287.372C233.171 288.269 232.837 288.96 232.169 289.446C231.501 289.933 230.563 290.176 229.356 290.176C228.079 290.176 227.083 289.974 226.368 289.569V288.216C226.831 288.45 227.326 288.635 227.853 288.77C228.387 288.904 228.899 288.972 229.391 288.972C230.153 288.972 230.739 288.852 231.149 288.611C231.559 288.365 231.765 287.993 231.765 287.495C231.765 287.12 231.6 286.801 231.272 286.537C230.95 286.268 230.317 285.951 229.374 285.588C228.477 285.254 227.839 284.964 227.458 284.718C227.083 284.466 226.802 284.182 226.614 283.865C226.432 283.549 226.342 283.171 226.342 282.731C226.342 281.946 226.661 281.328 227.3 280.877C227.938 280.42 228.814 280.191 229.928 280.191C230.965 280.191 231.978 280.402 232.969 280.824L232.45 282.011C231.483 281.612 230.607 281.413 229.822 281.413C229.131 281.413 228.609 281.521 228.258 281.738C227.906 281.955 227.73 282.254 227.73 282.635C227.73 282.893 227.795 283.112 227.924 283.294C228.058 283.476 228.272 283.648 228.565 283.812C228.858 283.977 229.421 284.214 230.253 284.524C231.395 284.94 232.166 285.359 232.564 285.781C232.969 286.203 233.171 286.733 233.171 287.372ZM246.01 281.501H243.558V290H242.099V281.501H240.376V280.842L242.099 280.314V279.778C242.099 277.411 243.133 276.228 245.202 276.228C245.711 276.228 246.309 276.33 246.995 276.535L246.617 277.704C246.054 277.522 245.574 277.432 245.175 277.432C244.624 277.432 244.217 277.616 243.954 277.985C243.69 278.349 243.558 278.935 243.558 279.743V280.367H246.01V281.501ZM254.412 290L254.122 288.629H254.051C253.571 289.232 253.091 289.643 252.61 289.859C252.135 290.07 251.541 290.176 250.826 290.176C249.871 290.176 249.121 289.93 248.576 289.438C248.037 288.945 247.767 288.245 247.767 287.337C247.767 285.392 249.323 284.372 252.434 284.278L254.069 284.226V283.628C254.069 282.872 253.905 282.315 253.577 281.958C253.255 281.595 252.736 281.413 252.021 281.413C251.218 281.413 250.31 281.659 249.297 282.151L248.848 281.035C249.323 280.777 249.842 280.575 250.404 280.429C250.972 280.282 251.541 280.209 252.109 280.209C253.258 280.209 254.107 280.464 254.658 280.974C255.215 281.483 255.493 282.301 255.493 283.426V290H254.412ZM251.116 288.972C252.024 288.972 252.736 288.723 253.252 288.225C253.773 287.727 254.034 287.029 254.034 286.133V285.263L252.575 285.324C251.415 285.365 250.577 285.547 250.061 285.869C249.551 286.186 249.297 286.681 249.297 287.354C249.297 287.882 249.455 288.283 249.771 288.559C250.093 288.834 250.542 288.972 251.116 288.972ZM265.441 287.372C265.441 288.269 265.107 288.96 264.439 289.446C263.771 289.933 262.834 290.176 261.627 290.176C260.35 290.176 259.354 289.974 258.639 289.569V288.216C259.102 288.45 259.597 288.635 260.124 288.77C260.657 288.904 261.17 288.972 261.662 288.972C262.424 288.972 263.01 288.852 263.42 288.611C263.83 288.365 264.035 287.993 264.035 287.495C264.035 287.12 263.871 286.801 263.543 286.537C263.221 286.268 262.588 285.951 261.645 285.588C260.748 285.254 260.109 284.964 259.729 284.718C259.354 284.466 259.072 284.182 258.885 283.865C258.703 283.549 258.612 283.171 258.612 282.731C258.612 281.946 258.932 281.328 259.57 280.877C260.209 280.42 261.085 280.191 262.198 280.191C263.235 280.191 264.249 280.402 265.239 280.824L264.721 282.011C263.754 281.612 262.878 281.413 262.093 281.413C261.401 281.413 260.88 281.521 260.528 281.738C260.177 281.955 260.001 282.254 260.001 282.635C260.001 282.893 260.065 283.112 260.194 283.294C260.329 283.476 260.543 283.648 260.836 283.812C261.129 283.977 261.691 284.214 262.523 284.524C263.666 284.94 264.437 285.359 264.835 285.781C265.239 286.203 265.441 286.733 265.441 287.372ZM271.655 288.972C271.912 288.972 272.161 288.954 272.402 288.919C272.642 288.878 272.832 288.837 272.973 288.796V289.912C272.815 289.988 272.58 290.05 272.27 290.097C271.965 290.149 271.69 290.176 271.444 290.176C269.58 290.176 268.649 289.194 268.649 287.231V281.501H267.269V280.798L268.649 280.191L269.264 278.135H270.108V280.367H272.903V281.501H270.108V287.17C270.108 287.75 270.245 288.195 270.521 288.506C270.796 288.816 271.174 288.972 271.655 288.972ZM53.8254 305.209C55.091 305.209 56.0725 305.643 56.7697 306.51C57.4729 307.371 57.8244 308.593 57.8244 310.175C57.8244 311.757 57.4699 312.987 56.7609 313.866C56.0578 314.739 55.0793 315.176 53.8254 315.176C53.1984 315.176 52.6242 315.062 52.1027 314.833C51.5871 314.599 51.1535 314.241 50.802 313.761H50.6965L50.3889 315H49.343V301.324H50.802V304.646C50.802 305.391 50.7785 306.059 50.7316 306.65H50.802C51.4816 305.689 52.4895 305.209 53.8254 305.209ZM53.6145 306.431C52.6184 306.431 51.9006 306.718 51.4611 307.292C51.0217 307.86 50.802 308.821 50.802 310.175C50.802 311.528 51.0275 312.498 51.4787 313.084C51.9299 313.664 52.6535 313.954 53.6496 313.954C54.5461 313.954 55.2141 313.629 55.6535 312.979C56.093 312.322 56.3127 311.382 56.3127 310.157C56.3127 308.903 56.093 307.969 55.6535 307.354C55.2141 306.738 54.5344 306.431 53.6145 306.431ZM59.5727 305.367H61.1372L63.2466 310.86C63.7095 312.114 63.9966 313.02 64.1079 313.576H64.1782C64.2544 313.277 64.4126 312.768 64.6528 312.047C64.8989 311.32 65.6958 309.094 67.0434 305.367H68.6079L64.4682 316.336C64.0581 317.42 63.5776 318.188 63.0268 318.639C62.4819 319.096 61.811 319.324 61.0141 319.324C60.5688 319.324 60.1294 319.274 59.6958 319.175V318.006C60.0181 318.076 60.3784 318.111 60.7768 318.111C61.7788 318.111 62.4936 317.549 62.9214 316.424L63.4575 315.053L59.5727 305.367ZM80.1377 315.176C78.7432 315.176 77.6622 314.748 76.8946 313.893C76.1329 313.031 75.752 311.815 75.752 310.245C75.752 308.634 76.1387 307.389 76.9122 306.51C77.6915 305.631 78.7989 305.191 80.2344 305.191C80.6973 305.191 81.1602 305.241 81.6231 305.341C82.086 305.44 82.4493 305.558 82.7129 305.692L82.2647 306.932C81.9424 306.803 81.5909 306.697 81.21 306.615C80.8291 306.527 80.4922 306.483 80.1993 306.483C78.2422 306.483 77.2637 307.731 77.2637 310.228C77.2637 311.411 77.501 312.319 77.9756 312.952C78.4561 313.585 79.1651 313.901 80.1026 313.901C80.9053 313.901 81.7286 313.729 82.5723 313.383V314.675C81.9278 315.009 81.1163 315.176 80.1377 315.176ZM89.9808 305.191C90.4085 305.191 90.7923 305.227 91.1322 305.297L90.93 306.65C90.5316 306.562 90.18 306.519 89.8753 306.519C89.096 306.519 88.4281 306.835 87.8714 307.468C87.3206 308.101 87.0452 308.889 87.0452 309.832V315H85.5863V305.367H86.7904L86.9574 307.151H87.0277C87.3851 306.524 87.8158 306.041 88.3197 305.701C88.8236 305.361 89.3773 305.191 89.9808 305.191ZM97.7232 315.176C96.2994 315.176 95.1744 314.742 94.3482 313.875C93.5279 313.008 93.1178 311.804 93.1178 310.263C93.1178 308.71 93.4986 307.477 94.2604 306.562C95.0279 305.648 96.0563 305.191 97.3453 305.191C98.5523 305.191 99.5074 305.59 100.211 306.387C100.914 307.178 101.265 308.224 101.265 309.524V310.447H94.6295C94.6588 311.578 94.943 312.437 95.482 313.022C96.027 313.608 96.7916 313.901 97.776 313.901C98.8131 313.901 99.8385 313.685 100.852 313.251V314.552C100.337 314.774 99.8473 314.933 99.3844 315.026C98.9273 315.126 98.3736 315.176 97.7232 315.176ZM97.3277 306.413C96.5543 306.413 95.9361 306.665 95.4732 307.169C95.0162 307.673 94.7467 308.37 94.6646 309.261H99.7008C99.7008 308.341 99.4957 307.638 99.0855 307.151C98.6754 306.659 98.0895 306.413 97.3277 306.413ZM110.405 315L110.115 313.629H110.045C109.564 314.232 109.084 314.643 108.603 314.859C108.129 315.07 107.534 315.176 106.819 315.176C105.864 315.176 105.114 314.93 104.569 314.438C104.03 313.945 103.761 313.245 103.761 312.337C103.761 310.392 105.316 309.372 108.428 309.278L110.062 309.226V308.628C110.062 307.872 109.898 307.315 109.57 306.958C109.248 306.595 108.729 306.413 108.015 306.413C107.212 306.413 106.304 306.659 105.29 307.151L104.842 306.035C105.316 305.777 105.835 305.575 106.397 305.429C106.966 305.282 107.534 305.209 108.102 305.209C109.251 305.209 110.1 305.464 110.651 305.974C111.208 306.483 111.486 307.301 111.486 308.426V315H110.405ZM107.109 313.972C108.017 313.972 108.729 313.723 109.245 313.225C109.766 312.727 110.027 312.029 110.027 311.133V310.263L108.568 310.324C107.408 310.365 106.57 310.547 106.055 310.869C105.545 311.186 105.29 311.681 105.29 312.354C105.29 312.882 105.448 313.283 105.765 313.559C106.087 313.834 106.535 313.972 107.109 313.972ZM118.332 313.972C118.59 313.972 118.839 313.954 119.079 313.919C119.319 313.878 119.51 313.837 119.651 313.796V314.912C119.492 314.988 119.258 315.05 118.947 315.097C118.643 315.149 118.367 315.176 118.121 315.176C116.258 315.176 115.326 314.194 115.326 312.231V306.501H113.946V305.798L115.326 305.191L115.942 303.135H116.785V305.367H119.58V306.501H116.785V312.17C116.785 312.75 116.923 313.195 117.198 313.506C117.474 313.816 117.852 313.972 118.332 313.972ZM123.763 315H122.304V305.367H123.763V315ZM122.181 302.757C122.181 302.423 122.263 302.18 122.427 302.027C122.591 301.869 122.796 301.79 123.042 301.79C123.277 301.79 123.479 301.869 123.649 302.027C123.819 302.186 123.904 302.429 123.904 302.757C123.904 303.085 123.819 303.331 123.649 303.495C123.479 303.653 123.277 303.732 123.042 303.732C122.796 303.732 122.591 303.653 122.427 303.495C122.263 303.331 122.181 303.085 122.181 302.757ZM134.169 315V308.769C134.169 307.983 133.99 307.397 133.633 307.011C133.275 306.624 132.716 306.431 131.954 306.431C130.946 306.431 130.208 306.703 129.739 307.248C129.27 307.793 129.036 308.692 129.036 309.946V315H127.577V305.367H128.763L129.001 306.686H129.071C129.37 306.211 129.789 305.845 130.328 305.587C130.867 305.323 131.468 305.191 132.13 305.191C133.29 305.191 134.163 305.473 134.749 306.035C135.335 306.592 135.628 307.485 135.628 308.716V315H134.169ZM147.237 305.367V306.29L145.453 306.501C145.617 306.706 145.764 306.976 145.893 307.31C146.021 307.638 146.086 308.01 146.086 308.426C146.086 309.369 145.764 310.122 145.119 310.685C144.475 311.247 143.59 311.528 142.465 311.528C142.178 311.528 141.908 311.505 141.656 311.458C141.035 311.786 140.725 312.199 140.725 312.697C140.725 312.961 140.833 313.157 141.05 313.286C141.267 313.409 141.639 313.471 142.166 313.471H143.871C144.914 313.471 145.714 313.69 146.271 314.13C146.833 314.569 147.114 315.208 147.114 316.046C147.114 317.112 146.687 317.924 145.831 318.48C144.976 319.043 143.728 319.324 142.087 319.324C140.827 319.324 139.854 319.09 139.169 318.621C138.489 318.152 138.149 317.49 138.149 316.635C138.149 316.049 138.337 315.542 138.712 315.114C139.087 314.687 139.614 314.396 140.294 314.244C140.048 314.133 139.84 313.96 139.67 313.726C139.506 313.491 139.424 313.219 139.424 312.908C139.424 312.557 139.518 312.249 139.705 311.985C139.893 311.722 140.188 311.467 140.593 311.221C140.095 311.016 139.688 310.667 139.371 310.175C139.061 309.683 138.905 309.12 138.905 308.487C138.905 307.433 139.222 306.621 139.854 306.053C140.487 305.479 141.384 305.191 142.544 305.191C143.048 305.191 143.502 305.25 143.906 305.367H147.237ZM139.556 316.617C139.556 317.139 139.775 317.534 140.215 317.804C140.654 318.073 141.284 318.208 142.104 318.208C143.329 318.208 144.234 318.023 144.82 317.654C145.412 317.291 145.708 316.796 145.708 316.169C145.708 315.647 145.547 315.284 145.225 315.079C144.902 314.88 144.296 314.78 143.405 314.78H141.656C140.994 314.78 140.479 314.938 140.109 315.255C139.74 315.571 139.556 316.025 139.556 316.617ZM140.347 308.452C140.347 309.126 140.537 309.636 140.918 309.981C141.299 310.327 141.829 310.5 142.509 310.5C143.933 310.5 144.645 309.809 144.645 308.426C144.645 306.979 143.924 306.255 142.482 306.255C141.797 306.255 141.27 306.439 140.9 306.809C140.531 307.178 140.347 307.726 140.347 308.452ZM161.544 312.372C161.544 313.269 161.211 313.96 160.543 314.446C159.875 314.933 158.937 315.176 157.73 315.176C156.453 315.176 155.457 314.974 154.742 314.569V313.216C155.205 313.45 155.7 313.635 156.227 313.77C156.76 313.904 157.273 313.972 157.765 313.972C158.527 313.972 159.113 313.852 159.523 313.611C159.933 313.365 160.138 312.993 160.138 312.495C160.138 312.12 159.974 311.801 159.646 311.537C159.324 311.268 158.691 310.951 157.748 310.588C156.851 310.254 156.212 309.964 155.832 309.718C155.457 309.466 155.175 309.182 154.988 308.865C154.806 308.549 154.715 308.171 154.715 307.731C154.715 306.946 155.035 306.328 155.673 305.877C156.312 305.42 157.188 305.191 158.301 305.191C159.338 305.191 160.352 305.402 161.342 305.824L160.824 307.011C159.857 306.612 158.981 306.413 158.196 306.413C157.504 306.413 156.983 306.521 156.631 306.738C156.28 306.955 156.104 307.254 156.104 307.635C156.104 307.893 156.169 308.112 156.297 308.294C156.432 308.476 156.646 308.648 156.939 308.812C157.232 308.977 157.794 309.214 158.627 309.524C159.769 309.94 160.54 310.359 160.938 310.781C161.342 311.203 161.544 311.733 161.544 312.372ZM166.088 310.069C166.34 309.712 166.723 309.243 167.239 308.663L170.35 305.367H172.082L168.18 309.472L172.354 315H170.588L167.186 310.447L166.088 311.396V315H164.646V301.324H166.088V308.575C166.088 308.897 166.064 309.396 166.017 310.069H166.088ZM178.893 315.176C177.469 315.176 176.344 314.742 175.518 313.875C174.697 313.008 174.287 311.804 174.287 310.263C174.287 308.71 174.668 307.477 175.43 306.562C176.197 305.648 177.226 305.191 178.515 305.191C179.722 305.191 180.677 305.59 181.38 306.387C182.083 307.178 182.435 308.224 182.435 309.524V310.447H175.799C175.828 311.578 176.112 312.437 176.651 313.022C177.196 313.608 177.961 313.901 178.945 313.901C179.983 313.901 181.008 313.685 182.022 313.251V314.552C181.506 314.774 181.017 314.933 180.554 315.026C180.097 315.126 179.543 315.176 178.893 315.176ZM178.497 306.413C177.724 306.413 177.106 306.665 176.643 307.169C176.186 307.673 175.916 308.37 175.834 309.261H180.87C180.87 308.341 180.665 307.638 180.255 307.151C179.845 306.659 179.259 306.413 178.497 306.413ZM188.762 313.972C189.02 313.972 189.269 313.954 189.509 313.919C189.749 313.878 189.94 313.837 190.08 313.796V314.912C189.922 314.988 189.688 315.05 189.377 315.097C189.073 315.149 188.797 315.176 188.551 315.176C186.688 315.176 185.756 314.194 185.756 312.231V306.501H184.376V305.798L185.756 305.191L186.371 303.135H187.215V305.367H190.01V306.501H187.215V312.17C187.215 312.75 187.353 313.195 187.628 313.506C187.904 313.816 188.282 313.972 188.762 313.972ZM196.584 315.176C195.189 315.176 194.108 314.748 193.341 313.893C192.579 313.031 192.198 311.815 192.198 310.245C192.198 308.634 192.585 307.389 193.358 306.51C194.137 305.631 195.245 305.191 196.68 305.191C197.143 305.191 197.606 305.241 198.069 305.341C198.532 305.44 198.895 305.558 199.159 305.692L198.711 306.932C198.388 306.803 198.037 306.697 197.656 306.615C197.275 306.527 196.938 306.483 196.645 306.483C194.688 306.483 193.71 307.731 193.71 310.228C193.71 311.411 193.947 312.319 194.422 312.952C194.902 313.585 195.611 313.901 196.549 313.901C197.351 313.901 198.174 313.729 199.018 313.383V314.675C198.374 315.009 197.562 315.176 196.584 315.176ZM208.624 315V308.769C208.624 307.983 208.445 307.397 208.088 307.011C207.73 306.624 207.171 306.431 206.409 306.431C205.395 306.431 204.654 306.706 204.186 307.257C203.723 307.808 203.491 308.71 203.491 309.964V315H202.032V301.324H203.491V305.464C203.491 305.962 203.468 306.375 203.421 306.703H203.509C203.796 306.24 204.203 305.877 204.73 305.613C205.264 305.344 205.87 305.209 206.55 305.209C207.728 305.209 208.609 305.49 209.195 306.053C209.787 306.609 210.083 307.497 210.083 308.716V315H208.624ZM217.878 315.176C216.454 315.176 215.329 314.742 214.503 313.875C213.683 313.008 213.273 311.804 213.273 310.263C213.273 308.71 213.654 307.477 214.415 306.562C215.183 305.648 216.211 305.191 217.5 305.191C218.707 305.191 219.662 305.59 220.365 306.387C221.069 307.178 221.42 308.224 221.42 309.524V310.447H214.784C214.814 311.578 215.098 312.437 215.637 313.022C216.182 313.608 216.947 313.901 217.931 313.901C218.968 313.901 219.993 313.685 221.007 313.251V314.552C220.491 314.774 220.002 314.933 219.539 315.026C219.082 315.126 218.529 315.176 217.878 315.176ZM217.483 306.413C216.709 306.413 216.091 306.665 215.628 307.169C215.171 307.673 214.902 308.37 214.82 309.261H219.856C219.856 308.341 219.651 307.638 219.24 307.151C218.83 306.659 218.244 306.413 217.483 306.413ZM230.85 312.372C230.85 313.269 230.516 313.96 229.848 314.446C229.18 314.933 228.243 315.176 227.036 315.176C225.758 315.176 224.762 314.974 224.047 314.569V313.216C224.51 313.45 225.005 313.635 225.533 313.77C226.066 313.904 226.579 313.972 227.071 313.972C227.833 313.972 228.418 313.852 228.829 313.611C229.239 313.365 229.444 312.993 229.444 312.495C229.444 312.12 229.28 311.801 228.952 311.537C228.629 311.268 227.997 310.951 227.053 310.588C226.157 310.254 225.518 309.964 225.137 309.718C224.762 309.466 224.481 309.182 224.293 308.865C224.112 308.549 224.021 308.171 224.021 307.731C224.021 306.946 224.34 306.328 224.979 305.877C225.618 305.42 226.494 305.191 227.607 305.191C228.644 305.191 229.658 305.402 230.648 305.824L230.129 307.011C229.163 306.612 228.287 306.413 227.501 306.413C226.81 306.413 226.289 306.521 225.937 306.738C225.585 306.955 225.41 307.254 225.41 307.635C225.41 307.893 225.474 308.112 225.603 308.294C225.738 308.476 225.952 308.648 226.245 308.812C226.538 308.977 227.1 309.214 227.932 309.524C229.075 309.94 229.845 310.359 230.244 310.781C230.648 311.203 230.85 311.733 230.85 312.372ZM233.741 314.068C233.741 313.676 233.829 313.38 234.005 313.181C234.186 312.976 234.444 312.873 234.778 312.873C235.118 312.873 235.382 312.976 235.569 313.181C235.762 313.38 235.859 313.676 235.859 314.068C235.859 314.449 235.762 314.742 235.569 314.947C235.376 315.152 235.112 315.255 234.778 315.255C234.479 315.255 234.23 315.164 234.031 314.982C233.838 314.795 233.741 314.49 233.741 314.068Z" fill="#3D5A80"/>
</svg>
