<svg width="799" height="58" viewBox="0 0 799 58" fill="none" xmlns="http://www.w3.org/2000/svg">
<path d="M5.05423 7.73828L4.96048 7.48047C5.58548 6.06641 6.64798 4.19531 8.14798 1.86719H9.63626C8.37064 4.82812 7.57767 6.78516 7.25735 7.73828H5.05423ZM0.706573 7.73828L0.636261 7.48047C1.40189 5.83203 2.45657 3.96094 3.80032 1.86719H5.2886C4.14017 4.5625 3.3472 6.51953 2.9097 7.73828H0.706573ZM9.60017 19L13.2447 1.86719H15.2134L11.5689 19H9.60017ZM20.7438 17.6289C21.1734 17.6289 21.7359 17.5273 22.4313 17.3242V18.8359C22.1656 18.9453 21.8375 19.0391 21.4469 19.1172C21.0563 19.1953 20.7438 19.2344 20.5094 19.2344C19.5328 19.2344 18.7828 19.0039 18.2594 18.543C17.7438 18.0742 17.4859 17.3789 17.4859 16.457C17.4859 15.9414 17.5563 15.3555 17.6969 14.6992L19.1852 7.64453H17.1695L17.3336 6.78906L19.5016 5.875L20.9664 3.20312H22.1149L21.4703 6.15625H24.6813L24.3766 7.64453H21.1774L19.6656 14.7227C19.525 15.4023 19.4547 15.918 19.4547 16.2695C19.4547 16.707 19.568 17.043 19.7945 17.2773C20.0211 17.5117 20.3375 17.6289 20.7438 17.6289ZM30.903 1.86719L30.9967 2.125C30.6842 2.83594 30.2506 3.69141 29.6959 4.69141C29.1413 5.68359 28.5202 6.69922 27.8327 7.73828H26.3209C27.3678 5.41016 28.1608 3.45312 28.6999 1.86719H30.903ZM38.5075 15.3555C38.5075 16.5742 38.0739 17.5273 37.2067 18.2148C36.3474 18.8945 35.1325 19.2344 33.5622 19.2344C32.2419 19.2344 31.0505 18.9648 29.988 18.4258V16.5742C30.5349 16.9023 31.1247 17.1562 31.7575 17.3359C32.3903 17.5156 32.9763 17.6055 33.5153 17.6055C34.4997 17.6055 35.2419 17.4102 35.7419 17.0195C36.2419 16.6289 36.4919 16.1289 36.4919 15.5195C36.4919 15.0742 36.3552 14.6992 36.0817 14.3945C35.8083 14.0898 35.2184 13.6719 34.3122 13.1406C33.2966 12.5703 32.5778 12.0117 32.1559 11.4648C31.7341 10.918 31.5231 10.2695 31.5231 9.51953C31.5231 8.44141 31.9177 7.57422 32.7067 6.91797C33.4958 6.25391 34.5349 5.92188 35.8239 5.92188C37.1599 5.92188 38.4489 6.21094 39.6911 6.78906L39.0583 8.39453L38.402 8.10156C37.613 7.76562 36.7536 7.59766 35.8239 7.59766C35.0974 7.59766 34.527 7.76953 34.113 8.11328C33.6989 8.44922 33.4919 8.88672 33.4919 9.42578C33.4919 9.86328 33.6286 10.2383 33.902 10.5508C34.1833 10.8633 34.7575 11.2656 35.6247 11.7578C36.4606 12.2266 37.0583 12.6289 37.4177 12.9648C37.7849 13.3008 38.0583 13.6641 38.238 14.0547C38.4177 14.4375 38.5075 14.8711 38.5075 15.3555ZM55.8259 5.92188C56.5447 5.92188 57.1853 6.11719 57.7478 6.50781C58.3103 6.89062 58.7478 7.44531 59.0603 8.17188H59.1892L59.9744 6.15625H61.4627L58.7322 19H57.1736L57.4783 16.5508H57.3845C55.9861 18.3398 54.5134 19.2344 52.9666 19.2344C51.8806 19.2344 51.0291 18.8477 50.4119 18.0742C49.7947 17.3008 49.4861 16.2422 49.4861 14.8984C49.4861 13.2734 49.7634 11.7656 50.3181 10.375C50.8728 8.98438 51.6384 7.89453 52.615 7.10547C53.5916 6.31641 54.6619 5.92188 55.8259 5.92188ZM53.5994 17.6055C54.3572 17.6055 55.1111 17.2461 55.8611 16.5273C56.6111 15.8008 57.2205 14.8594 57.6892 13.7031C58.158 12.5391 58.3923 11.375 58.3923 10.2109C58.3923 9.40625 58.1736 8.76562 57.7361 8.28906C57.2986 7.8125 56.7244 7.57422 56.0134 7.57422C55.2009 7.57422 54.4431 7.91016 53.74 8.58203C53.0447 9.25391 52.4978 10.1641 52.0994 11.3125C51.7009 12.4609 51.5017 13.6719 51.5017 14.9453C51.5017 15.8359 51.6853 16.5039 52.0525 16.9492C52.4197 17.3867 52.9353 17.6055 53.5994 17.6055ZM71.4109 19L73.1453 10.8906C73.3016 10.0781 73.3797 9.51562 73.3797 9.20312C73.3797 8.71094 73.2391 8.31641 72.9578 8.01953C72.6844 7.72266 72.243 7.57422 71.6336 7.57422C70.9383 7.57422 70.2586 7.80859 69.5945 8.27734C68.9383 8.74609 68.3563 9.41406 67.8484 10.2812C67.3484 11.1484 66.9695 12.1992 66.7117 13.4336L65.5281 19H63.5594L66.3016 6.15625H67.9305L67.6727 8.53516H67.7899C68.5399 7.58203 69.2625 6.91016 69.9578 6.51953C70.6609 6.12109 71.3875 5.92188 72.1375 5.92188C73.1297 5.92188 73.9109 6.19531 74.4813 6.74219C75.0594 7.28125 75.3484 8.03906 75.3484 9.01562C75.3484 9.63281 75.2586 10.3359 75.0789 11.125L73.4031 19H71.4109ZM86.2225 19L87.9569 10.8906C88.1131 10.0781 88.1913 9.51562 88.1913 9.20312C88.1913 8.71094 88.0506 8.31641 87.7694 8.01953C87.4959 7.72266 87.0545 7.57422 86.4452 7.57422C85.7499 7.57422 85.0702 7.80859 84.4061 8.27734C83.7499 8.74609 83.1678 9.41406 82.66 10.2812C82.16 11.1484 81.7811 12.1992 81.5233 13.4336L80.3397 19H78.3709L81.1131 6.15625H82.742L82.4842 8.53516H82.6014C83.3514 7.58203 84.0741 6.91016 84.7694 6.51953C85.4725 6.12109 86.1991 5.92188 86.9491 5.92188C87.9413 5.92188 88.7225 6.19531 89.2928 6.74219C89.8709 7.28125 90.16 8.03906 90.16 9.01562C90.16 9.63281 90.0702 10.3359 89.8905 11.125L88.2147 19H86.2225ZM100.026 5.99219C101.511 5.99219 102.683 6.43359 103.542 7.31641C104.401 8.19141 104.831 9.39844 104.831 10.9375C104.831 12.4062 104.55 13.793 103.987 15.0977C103.425 16.4023 102.663 17.4102 101.702 18.1211C100.741 18.832 99.6552 19.1875 98.4442 19.1875C96.9442 19.1875 95.7684 18.7461 94.9169 17.8633C94.0653 16.9805 93.6395 15.7734 93.6395 14.2422C93.6395 12.7578 93.9247 11.3633 94.495 10.0586C95.0653 8.74609 95.8349 7.74219 96.8036 7.04688C97.7724 6.34375 98.8466 5.99219 100.026 5.99219ZM102.792 10.668C102.792 9.76953 102.546 9.04297 102.054 8.48828C101.569 7.92578 100.909 7.64453 100.073 7.64453C99.2216 7.64453 98.4559 7.93359 97.7763 8.51172C97.1044 9.08984 96.5809 9.89453 96.2059 10.9258C95.8388 11.9492 95.6552 13.0898 95.6552 14.3477C95.6552 15.3711 95.9013 16.1641 96.3934 16.7266C96.8934 17.2812 97.6083 17.5586 98.538 17.5586C99.3505 17.5586 100.081 17.2734 100.729 16.7031C101.378 16.1328 101.882 15.3242 102.241 14.2773C102.608 13.2227 102.792 12.0195 102.792 10.668ZM108.076 6.15625H110.045L110.912 12.543C110.99 13.082 111.064 13.8789 111.135 14.9336C111.213 15.9805 111.252 16.8242 111.252 17.4648H111.322C111.596 16.7852 111.935 16.0039 112.342 15.1211C112.748 14.2383 113.049 13.6289 113.244 13.293L117.053 6.15625H119.139L110.982 21.1797C110.256 22.5234 109.537 23.457 108.826 23.9805C108.115 24.5039 107.26 24.7656 106.26 24.7656C105.697 24.7656 105.15 24.6836 104.619 24.5195V22.9375C105.111 23.0781 105.623 23.1484 106.154 23.1484C106.795 23.1484 107.342 22.9492 107.795 22.5508C108.256 22.1602 108.701 21.5781 109.131 20.8047L110.021 19.2109L108.076 6.15625ZM121.634 19H119.665L122.407 6.15625H124.376L121.634 19ZM122.958 2.875C122.958 2.4375 123.083 2.08203 123.333 1.80859C123.583 1.52734 123.907 1.38672 124.306 1.38672C124.993 1.38672 125.337 1.73828 125.337 2.44141C125.337 2.87109 125.204 3.23438 124.938 3.53125C124.681 3.82812 124.38 3.97656 124.036 3.97656C123.724 3.97656 123.466 3.88281 123.263 3.69531C123.06 3.5 122.958 3.22656 122.958 2.875ZM134.57 19L136.305 10.8906C136.461 10.0781 136.539 9.51562 136.539 9.20312C136.539 8.71094 136.398 8.31641 136.117 8.01953C135.844 7.72266 135.402 7.57422 134.793 7.57422C134.098 7.57422 133.418 7.80859 132.754 8.27734C132.098 8.74609 131.516 9.41406 131.008 10.2812C130.508 11.1484 130.129 12.1992 129.871 13.4336L128.688 19H126.719L129.461 6.15625H131.09L130.832 8.53516H130.949C131.699 7.58203 132.422 6.91016 133.117 6.51953C133.82 6.12109 134.547 5.92188 135.297 5.92188C136.289 5.92188 137.07 6.19531 137.641 6.74219C138.219 7.28125 138.508 8.03906 138.508 9.01562C138.508 9.63281 138.418 10.3359 138.238 11.125L136.562 19H134.57ZM153.73 6.15625L153.437 7.41016L150.964 7.69141C151.284 8.17578 151.444 8.79297 151.444 9.54297C151.444 11.0352 150.987 12.2266 150.073 13.1172C149.167 14 147.952 14.4414 146.429 14.4414C145.999 14.4414 145.671 14.4102 145.444 14.3477C144.358 14.7617 143.815 15.2734 143.815 15.8828C143.815 16.2031 143.944 16.418 144.202 16.5273C144.46 16.6289 144.835 16.7109 145.327 16.7734L146.698 16.9375C148.112 17.1094 149.136 17.4531 149.769 17.9688C150.409 18.4844 150.73 19.2422 150.73 20.2422C150.73 21.6797 150.159 22.793 149.019 23.582C147.878 24.3711 146.273 24.7656 144.202 24.7656C142.687 24.7656 141.499 24.4766 140.64 23.8984C139.78 23.3281 139.351 22.5195 139.351 21.4727C139.351 20.6523 139.632 19.9414 140.194 19.3398C140.757 18.7383 141.667 18.2266 142.925 17.8047C142.315 17.4844 142.011 17.0117 142.011 16.3867C142.011 15.8477 142.21 15.3867 142.608 15.0039C143.007 14.6133 143.562 14.25 144.273 13.9141C143.78 13.6641 143.378 13.2969 143.065 12.8125C142.753 12.3203 142.597 11.75 142.597 11.1016C142.597 9.58594 143.062 8.34375 143.991 7.375C144.929 6.40625 146.124 5.92188 147.577 5.92188C148.187 5.92188 148.788 6 149.382 6.15625H153.73ZM141.249 21.2852C141.249 21.8867 141.503 22.3633 142.011 22.7148C142.519 23.0664 143.273 23.2422 144.273 23.2422C145.694 23.2422 146.804 22.9922 147.601 22.4922C148.405 22 148.808 21.3008 148.808 20.3945C148.808 19.9102 148.597 19.5273 148.175 19.2461C147.753 18.9648 147.034 18.7695 146.019 18.6602L144.155 18.4727C143.218 18.668 142.499 19.0117 141.999 19.5039C141.499 19.9961 141.249 20.5898 141.249 21.2852ZM144.507 11.0312C144.507 11.6953 144.683 12.2031 145.034 12.5547C145.386 12.8984 145.874 13.0703 146.499 13.0703C147.116 13.0703 147.655 12.9062 148.116 12.5781C148.577 12.25 148.929 11.8008 149.171 11.2305C149.421 10.6523 149.546 10.0273 149.546 9.35547C149.546 8.71484 149.374 8.22656 149.03 7.89062C148.687 7.55469 148.194 7.38672 147.554 7.38672C146.944 7.38672 146.409 7.54688 145.948 7.86719C145.495 8.17969 145.14 8.62109 144.882 9.19141C144.632 9.75391 144.507 10.3672 144.507 11.0312ZM165.646 17.6289C166.075 17.6289 166.638 17.5273 167.333 17.3242V18.8359C167.068 18.9453 166.739 19.0391 166.349 19.1172C165.958 19.1953 165.646 19.2344 165.411 19.2344C164.435 19.2344 163.685 19.0039 163.161 18.543C162.646 18.0742 162.388 17.3789 162.388 16.457C162.388 15.9414 162.458 15.3555 162.599 14.6992L164.087 7.64453H162.071L162.235 6.78906L164.403 5.875L165.868 3.20312H167.017L166.372 6.15625H169.583L169.278 7.64453H166.079L164.568 14.7227C164.427 15.4023 164.357 15.918 164.357 16.2695C164.357 16.707 164.47 17.043 164.696 17.2773C164.923 17.5117 165.239 17.6289 165.646 17.6289ZM177.293 5.99219C178.778 5.99219 179.949 6.43359 180.809 7.31641C181.668 8.19141 182.098 9.39844 182.098 10.9375C182.098 12.4062 181.817 13.793 181.254 15.0977C180.692 16.4023 179.93 17.4102 178.969 18.1211C178.008 18.832 176.922 19.1875 175.711 19.1875C174.211 19.1875 173.035 18.7461 172.184 17.8633C171.332 16.9805 170.906 15.7734 170.906 14.2422C170.906 12.7578 171.192 11.3633 171.762 10.0586C172.332 8.74609 173.102 7.74219 174.07 7.04688C175.039 6.34375 176.113 5.99219 177.293 5.99219ZM180.059 10.668C180.059 9.76953 179.813 9.04297 179.32 8.48828C178.836 7.92578 178.176 7.64453 177.34 7.64453C176.488 7.64453 175.723 7.93359 175.043 8.51172C174.371 9.08984 173.848 9.89453 173.473 10.9258C173.106 11.9492 172.922 13.0898 172.922 14.3477C172.922 15.3711 173.168 16.1641 173.66 16.7266C174.16 17.2812 174.875 17.5586 175.805 17.5586C176.617 17.5586 177.348 17.2734 177.996 16.7031C178.645 16.1328 179.149 15.3242 179.508 14.2773C179.875 13.2227 180.059 12.0195 180.059 10.668ZM200.002 15.3555C200.002 16.5742 199.569 17.5273 198.701 18.2148C197.842 18.8945 196.627 19.2344 195.057 19.2344C193.737 19.2344 192.545 18.9648 191.483 18.4258V16.5742C192.03 16.9023 192.619 17.1562 193.252 17.3359C193.885 17.5156 194.471 17.6055 195.01 17.6055C195.994 17.6055 196.737 17.4102 197.237 17.0195C197.737 16.6289 197.987 16.1289 197.987 15.5195C197.987 15.0742 197.85 14.6992 197.576 14.3945C197.303 14.0898 196.713 13.6719 195.807 13.1406C194.791 12.5703 194.073 12.0117 193.651 11.4648C193.229 10.918 193.018 10.2695 193.018 9.51953C193.018 8.44141 193.412 7.57422 194.201 6.91797C194.99 6.25391 196.03 5.92188 197.319 5.92188C198.655 5.92188 199.944 6.21094 201.186 6.78906L200.553 8.39453L199.897 8.10156C199.108 7.76562 198.248 7.59766 197.319 7.59766C196.592 7.59766 196.022 7.76953 195.608 8.11328C195.194 8.44922 194.987 8.88672 194.987 9.42578C194.987 9.86328 195.123 10.2383 195.397 10.5508C195.678 10.8633 196.252 11.2656 197.119 11.7578C197.955 12.2266 198.553 12.6289 198.912 12.9648C199.28 13.3008 199.553 13.6641 199.733 14.0547C199.912 14.4375 200.002 14.8711 200.002 15.3555ZM208.568 19.2344C207.052 19.2344 205.876 18.8164 205.04 17.9805C204.204 17.1445 203.786 15.9648 203.786 14.4414C203.786 12.8789 204.075 11.4375 204.654 10.1172C205.232 8.79688 206.029 7.76953 207.044 7.03516C208.068 6.29297 209.216 5.92188 210.49 5.92188C211.56 5.92188 212.607 6.12109 213.63 6.51953L213.079 8.17188C212.142 7.77344 211.286 7.57422 210.513 7.57422C209.638 7.57422 208.837 7.875 208.111 8.47656C207.392 9.07031 206.825 9.90234 206.411 10.9727C206.005 12.0352 205.802 13.1914 205.802 14.4414C205.802 15.4414 206.06 16.2188 206.575 16.7734C207.099 17.3281 207.818 17.6055 208.732 17.6055C209.294 17.6055 209.825 17.5273 210.325 17.3711C210.825 17.2148 211.318 17.0312 211.802 16.8203V18.4961C210.833 18.9883 209.755 19.2344 208.568 19.2344ZM223.215 5.92188C223.754 5.92188 224.223 5.97656 224.621 6.08594L224.2 7.84375C223.785 7.74219 223.375 7.69141 222.969 7.69141C222.258 7.69141 221.59 7.92578 220.965 8.39453C220.348 8.86328 219.805 9.51562 219.336 10.3516C218.875 11.1797 218.535 12.1016 218.317 13.1172L217.063 19H215.094L217.836 6.15625H219.465L219.207 8.53516H219.325C219.887 7.79297 220.352 7.26172 220.719 6.94141C221.086 6.61328 221.469 6.36328 221.868 6.19141C222.274 6.01172 222.723 5.92188 223.215 5.92188ZM232.413 5.99219C233.898 5.99219 235.07 6.43359 235.929 7.31641C236.788 8.19141 237.218 9.39844 237.218 10.9375C237.218 12.4062 236.937 13.793 236.374 15.0977C235.812 16.4023 235.05 17.4102 234.089 18.1211C233.128 18.832 232.042 19.1875 230.831 19.1875C229.331 19.1875 228.156 18.7461 227.304 17.8633C226.453 16.9805 226.027 15.7734 226.027 14.2422C226.027 12.7578 226.312 11.3633 226.882 10.0586C227.453 8.74609 228.222 7.74219 229.191 7.04688C230.16 6.34375 231.234 5.99219 232.413 5.99219ZM235.179 10.668C235.179 9.76953 234.933 9.04297 234.441 8.48828C233.956 7.92578 233.296 7.64453 232.46 7.64453C231.609 7.64453 230.843 7.93359 230.163 8.51172C229.492 9.08984 228.968 9.89453 228.593 10.9258C228.226 11.9492 228.042 13.0898 228.042 14.3477C228.042 15.3711 228.288 16.1641 228.781 16.7266C229.281 17.2812 229.995 17.5586 230.925 17.5586C231.738 17.5586 232.468 17.2734 233.117 16.7031C233.765 16.1328 234.269 15.3242 234.628 14.2773C234.995 13.2227 235.179 12.0195 235.179 10.668ZM241.952 19H239.983L243.873 0.765625H245.842L241.952 19ZM249.005 19H247.037L250.927 0.765625H252.896L249.005 19ZM265.246 17.6289C265.675 17.6289 266.238 17.5273 266.933 17.3242V18.8359C266.668 18.9453 266.339 19.0391 265.949 19.1172C265.558 19.1953 265.246 19.2344 265.011 19.2344C264.035 19.2344 263.285 19.0039 262.761 18.543C262.246 18.0742 261.988 17.3789 261.988 16.457C261.988 15.9414 262.058 15.3555 262.199 14.6992L263.687 7.64453H261.671L261.835 6.78906L264.003 5.875L265.468 3.20312H266.617L265.972 6.15625H269.183L268.878 7.64453H265.679L264.168 14.7227C264.027 15.4023 263.957 15.918 263.957 16.2695C263.957 16.707 264.07 17.043 264.296 17.2773C264.523 17.5117 264.839 17.6289 265.246 17.6289ZM276.893 5.99219C278.378 5.99219 279.549 6.43359 280.409 7.31641C281.268 8.19141 281.698 9.39844 281.698 10.9375C281.698 12.4062 281.417 13.793 280.854 15.0977C280.292 16.4023 279.53 17.4102 278.569 18.1211C277.608 18.832 276.522 19.1875 275.311 19.1875C273.811 19.1875 272.635 18.7461 271.784 17.8633C270.932 16.9805 270.506 15.7734 270.506 14.2422C270.506 12.7578 270.792 11.3633 271.362 10.0586C271.932 8.74609 272.702 7.74219 273.67 7.04688C274.639 6.34375 275.713 5.99219 276.893 5.99219ZM279.659 10.668C279.659 9.76953 279.413 9.04297 278.92 8.48828C278.436 7.92578 277.776 7.64453 276.94 7.64453C276.088 7.64453 275.323 7.93359 274.643 8.51172C273.971 9.08984 273.448 9.89453 273.073 10.9258C272.706 11.9492 272.522 13.0898 272.522 14.3477C272.522 15.3711 272.768 16.1641 273.26 16.7266C273.76 17.2812 274.475 17.5586 275.405 17.5586C276.217 17.5586 276.948 17.2734 277.596 16.7031C278.245 16.1328 278.749 15.3242 279.108 14.2773C279.475 13.2227 279.659 12.0195 279.659 10.668ZM295.618 17.6289C296.048 17.6289 296.61 17.5273 297.305 17.3242V18.8359C297.04 18.9453 296.712 19.0391 296.321 19.1172C295.93 19.1953 295.618 19.2344 295.383 19.2344C294.407 19.2344 293.657 19.0039 293.133 18.543C292.618 18.0742 292.36 17.3789 292.36 16.457C292.36 15.9414 292.43 15.3555 292.571 14.6992L294.059 7.64453H292.044L292.208 6.78906L294.376 5.875L295.84 3.20312H296.989L296.344 6.15625H299.555L299.251 7.64453H296.051L294.54 14.7227C294.399 15.4023 294.329 15.918 294.329 16.2695C294.329 16.707 294.442 17.043 294.669 17.2773C294.895 17.5117 295.212 17.6289 295.618 17.6289ZM308.273 19L310.008 10.8906C310.148 10.1562 310.218 9.62891 310.218 9.30859C310.218 8.15234 309.644 7.57422 308.496 7.57422C307.8 7.57422 307.121 7.80469 306.457 8.26562C305.8 8.72656 305.218 9.39844 304.711 10.2812C304.211 11.1562 303.832 12.2148 303.574 13.457L302.39 19H300.422L304.289 0.765625H306.258C306.117 1.40625 305.98 2.02734 305.847 2.62891C305.722 3.23047 305.59 3.84375 305.449 4.46875C305.316 5.08594 305.168 5.73438 305.004 6.41406C304.847 7.09375 304.664 7.83203 304.453 8.62891H304.582C305.316 7.66797 306.039 6.98047 306.75 6.56641C307.468 6.15234 308.218 5.94531 309 5.94531C310.023 5.94531 310.812 6.22656 311.367 6.78906C311.929 7.35156 312.211 8.14844 312.211 9.17969C312.211 9.66406 312.121 10.3125 311.941 11.125C311.636 12.6328 311.07 15.2578 310.242 19H308.273ZM320.307 19.2344C318.87 19.2344 317.741 18.8086 316.921 17.957C316.1 17.1055 315.69 15.9258 315.69 14.418C315.69 12.9492 315.979 11.543 316.557 10.1992C317.143 8.84766 317.917 7.79688 318.878 7.04688C319.839 6.29688 320.897 5.92188 322.053 5.92188C323.249 5.92188 324.147 6.18359 324.749 6.70703C325.35 7.22266 325.651 7.94531 325.651 8.875C325.651 10.2812 325.003 11.3867 323.706 12.1914C322.409 12.9883 320.553 13.3867 318.139 13.3867H317.753L317.706 14.3242C317.706 15.3477 317.944 16.1484 318.421 16.7266C318.905 17.2969 319.651 17.582 320.659 17.582C321.151 17.582 321.655 17.5117 322.171 17.3711C322.694 17.2305 323.342 16.9727 324.116 16.5977V18.3086C323.382 18.6523 322.733 18.8906 322.171 19.0234C321.608 19.1641 320.987 19.2344 320.307 19.2344ZM321.936 7.59766C321.132 7.59766 320.374 7.96484 319.663 8.69922C318.96 9.43359 318.421 10.4531 318.046 11.7578H318.186C319.967 11.7578 321.331 11.5273 322.276 11.0664C323.229 10.5977 323.706 9.92188 323.706 9.03906C323.706 8.625 323.561 8.28125 323.272 8.00781C322.991 7.73438 322.546 7.59766 321.936 7.59766ZM340.919 19.2344C340.161 19.2344 339.493 19.0352 338.915 18.6367C338.345 18.2383 337.915 17.6953 337.626 17.0078H337.509L336.688 19H335.223L339.091 0.765625H341.059C340.661 2.65625 340.352 4.10547 340.134 5.11328C339.923 6.11328 339.63 7.28516 339.255 8.62891H339.36C340.087 7.70703 340.802 7.03125 341.505 6.60156C342.216 6.16406 342.946 5.94531 343.696 5.94531C344.798 5.94531 345.657 6.33203 346.274 7.10547C346.891 7.87891 347.2 8.94141 347.2 10.293C347.2 11.9258 346.93 13.4375 346.391 14.8281C345.86 16.2109 345.114 17.293 344.153 18.0742C343.2 18.8477 342.122 19.2344 340.919 19.2344ZM343.098 7.57422C342.348 7.57422 341.583 7.94531 340.802 8.6875C340.028 9.42969 339.411 10.3633 338.95 11.4883C338.497 12.6133 338.27 13.7656 338.27 14.9453C338.27 15.8047 338.485 16.4648 338.915 16.9258C339.352 17.3789 339.981 17.6055 340.802 17.6055C341.575 17.6055 342.294 17.2891 342.958 16.6562C343.63 16.0234 344.169 15.125 344.575 13.9609C344.981 12.7891 345.184 11.5469 345.184 10.2344C345.184 8.46094 344.489 7.57422 343.098 7.57422ZM356.879 5.99219C358.363 5.99219 359.535 6.43359 360.394 7.31641C361.254 8.19141 361.683 9.39844 361.683 10.9375C361.683 12.4062 361.402 13.793 360.84 15.0977C360.277 16.4023 359.515 17.4102 358.555 18.1211C357.594 18.832 356.508 19.1875 355.297 19.1875C353.797 19.1875 352.621 18.7461 351.769 17.8633C350.918 16.9805 350.492 15.7734 350.492 14.2422C350.492 12.7578 350.777 11.3633 351.348 10.0586C351.918 8.74609 352.687 7.74219 353.656 7.04688C354.625 6.34375 355.699 5.99219 356.879 5.99219ZM359.644 10.668C359.644 9.76953 359.398 9.04297 358.906 8.48828C358.422 7.92578 357.762 7.64453 356.926 7.64453C356.074 7.64453 355.308 7.93359 354.629 8.51172C353.957 9.08984 353.433 9.89453 353.058 10.9258C352.691 11.9492 352.508 13.0898 352.508 14.3477C352.508 15.3711 352.754 16.1641 353.246 16.7266C353.746 17.2812 354.461 17.5586 355.39 17.5586C356.203 17.5586 356.933 17.2734 357.582 16.7031C358.23 16.1328 358.734 15.3242 359.094 14.2773C359.461 13.2227 359.644 12.0195 359.644 10.668ZM368.409 17.6289C368.839 17.6289 369.401 17.5273 370.097 17.3242V18.8359C369.831 18.9453 369.503 19.0391 369.112 19.1172C368.722 19.1953 368.409 19.2344 368.175 19.2344C367.198 19.2344 366.448 19.0039 365.925 18.543C365.409 18.0742 365.151 17.3789 365.151 16.457C365.151 15.9414 365.222 15.3555 365.362 14.6992L366.85 7.64453H364.835L364.999 6.78906L367.167 5.875L368.632 3.20312H369.78L369.136 6.15625H372.347L372.042 7.64453H368.843L367.331 14.7227C367.19 15.4023 367.12 15.918 367.12 16.2695C367.12 16.707 367.233 17.043 367.46 17.2773C367.686 17.5117 368.003 17.6289 368.409 17.6289ZM377.15 17.6289C377.58 17.6289 378.143 17.5273 378.838 17.3242V18.8359C378.572 18.9453 378.244 19.0391 377.853 19.1172C377.463 19.1953 377.15 19.2344 376.916 19.2344C375.939 19.2344 375.189 19.0039 374.666 18.543C374.15 18.0742 373.893 17.3789 373.893 16.457C373.893 15.9414 373.963 15.3555 374.103 14.6992L375.592 7.64453H373.576L373.74 6.78906L375.908 5.875L377.373 3.20312H378.521L377.877 6.15625H381.088L380.783 7.64453H377.584L376.072 14.7227C375.932 15.4023 375.861 15.918 375.861 16.2695C375.861 16.707 375.975 17.043 376.201 17.2773C376.428 17.5117 376.744 17.6289 377.15 17.6289ZM388.798 5.99219C390.282 5.99219 391.454 6.43359 392.313 7.31641C393.173 8.19141 393.603 9.39844 393.603 10.9375C393.603 12.4062 393.321 13.793 392.759 15.0977C392.196 16.4023 391.435 17.4102 390.474 18.1211C389.513 18.832 388.427 19.1875 387.216 19.1875C385.716 19.1875 384.54 18.7461 383.688 17.8633C382.837 16.9805 382.411 15.7734 382.411 14.2422C382.411 12.7578 382.696 11.3633 383.267 10.0586C383.837 8.74609 384.606 7.74219 385.575 7.04688C386.544 6.34375 387.618 5.99219 388.798 5.99219ZM391.563 10.668C391.563 9.76953 391.317 9.04297 390.825 8.48828C390.341 7.92578 389.681 7.64453 388.845 7.64453C387.993 7.64453 387.228 7.93359 386.548 8.51172C385.876 9.08984 385.353 9.89453 384.978 10.9258C384.61 11.9492 384.427 13.0898 384.427 14.3477C384.427 15.3711 384.673 16.1641 385.165 16.7266C385.665 17.2812 386.38 17.5586 387.31 17.5586C388.122 17.5586 388.853 17.2734 389.501 16.7031C390.149 16.1328 390.653 15.3242 391.013 14.2773C391.38 13.2227 391.563 12.0195 391.563 10.668ZM403.855 19L405.59 10.8906C405.73 10.1562 405.801 9.62891 405.801 9.30859C405.801 8.76172 405.68 8.33594 405.438 8.03125C405.195 7.72656 404.781 7.57422 404.195 7.57422C403.539 7.57422 402.898 7.80859 402.273 8.27734C401.656 8.74609 401.109 9.41797 400.633 10.293C400.164 11.1602 399.801 12.207 399.543 13.4336L398.359 19H396.391L399.133 6.15625H400.762L400.504 8.53516H400.621C401.301 7.60547 401.977 6.9375 402.648 6.53125C403.328 6.125 404.027 5.92188 404.746 5.92188C405.629 5.92188 406.309 6.17578 406.785 6.68359C407.262 7.19141 407.543 7.89844 407.629 8.80469H407.723C408.395 7.82812 409.109 7.10547 409.867 6.63672C410.625 6.16016 411.391 5.92188 412.164 5.92188C413.156 5.92188 413.922 6.1875 414.461 6.71875C415.008 7.25 415.281 8.02344 415.281 9.03906C415.281 9.57031 415.195 10.2656 415.023 11.125L413.336 19H411.344L413.078 10.8906C413.234 10.0781 413.312 9.50781 413.312 9.17969C413.312 8.69531 413.176 8.30859 412.902 8.01953C412.637 7.72266 412.215 7.57422 411.637 7.57422C411.004 7.57422 410.379 7.80078 409.762 8.25391C409.145 8.70703 408.602 9.35156 408.133 10.1875C407.672 11.0156 407.32 12 407.078 13.1406L405.824 19H403.855ZM433.42 3.20312C432.6 3.20312 431.963 3.4375 431.51 3.90625C431.057 4.375 430.83 5.03906 430.83 5.89844C430.83 6.83594 431.15 7.75391 431.791 8.65234C432.877 8.09766 433.623 7.66797 434.029 7.36328C434.436 7.05859 434.76 6.72656 435.002 6.36719C435.244 6.00781 435.365 5.60156 435.365 5.14844C435.365 4.54688 435.197 4.07422 434.861 3.73047C434.533 3.37891 434.053 3.20312 433.42 3.20312ZM430.303 17.6055C430.983 17.6055 431.639 17.4766 432.272 17.2188C432.904 16.9609 433.666 16.4766 434.557 15.7656L430.971 10.6914C429.971 11.2148 429.252 11.668 428.815 12.0508C428.377 12.4336 428.041 12.8555 427.807 13.3164C427.58 13.7695 427.467 14.2812 427.467 14.8516C427.467 15.6797 427.725 16.3477 428.24 16.8555C428.764 17.3555 429.451 17.6055 430.303 17.6055ZM425.557 14.9922C425.557 13.8359 425.908 12.832 426.611 11.9805C427.315 11.1211 428.498 10.293 430.162 9.49609C429.358 8.20703 428.955 7 428.955 5.875C428.955 4.59375 429.369 3.5625 430.197 2.78125C431.025 1.99219 432.123 1.59766 433.49 1.59766C434.654 1.59766 435.576 1.90625 436.256 2.52344C436.943 3.14062 437.287 3.96875 437.287 5.00781C437.287 5.61719 437.158 6.15234 436.9 6.61328C436.65 7.07422 436.311 7.49609 435.881 7.87891C435.451 8.26172 434.951 8.61328 434.381 8.93359C433.818 9.25391 433.221 9.57812 432.588 9.90625L435.846 14.4648C436.838 13.6055 437.615 12.4531 438.178 11.0078H440.147C439.358 12.8516 438.252 14.4609 436.83 15.8359L439.209 19H436.854L435.483 17.0547C434.545 17.8359 433.647 18.3945 432.787 18.7305C431.928 19.0664 430.963 19.2344 429.893 19.2344C428.58 19.2344 427.529 18.8594 426.74 18.1094C425.951 17.3594 425.557 16.3203 425.557 14.9922ZM453.645 17.6289C454.074 17.6289 454.637 17.5273 455.332 17.3242V18.8359C455.067 18.9453 454.738 19.0391 454.348 19.1172C453.957 19.1953 453.645 19.2344 453.41 19.2344C452.434 19.2344 451.684 19.0039 451.16 18.543C450.645 18.0742 450.387 17.3789 450.387 16.457C450.387 15.9414 450.457 15.3555 450.598 14.6992L452.086 7.64453H450.07L450.235 6.78906L452.402 5.875L453.867 3.20312H455.016L454.371 6.15625H457.582L457.277 7.64453H454.078L452.567 14.7227C452.426 15.4023 452.356 15.918 452.356 16.2695C452.356 16.707 452.469 17.043 452.695 17.2773C452.922 17.5117 453.238 17.6289 453.645 17.6289ZM466.57 5.92188C467.109 5.92188 467.577 5.97656 467.976 6.08594L467.554 7.84375C467.14 7.74219 466.73 7.69141 466.323 7.69141C465.613 7.69141 464.945 7.92578 464.32 8.39453C463.702 8.86328 463.159 9.51562 462.691 10.3516C462.23 11.1797 461.89 12.1016 461.671 13.1172L460.417 19H458.448L461.191 6.15625H462.82L462.562 8.53516H462.679C463.241 7.79297 463.706 7.26172 464.073 6.94141C464.441 6.61328 464.823 6.36328 465.222 6.19141C465.628 6.01172 466.077 5.92188 466.57 5.92188ZM475.721 5.92188C476.44 5.92188 477.08 6.11719 477.643 6.50781C478.205 6.89062 478.643 7.44531 478.955 8.17188H479.084L479.869 6.15625H481.358L478.627 19H477.069L477.373 16.5508H477.28C475.881 18.3398 474.408 19.2344 472.862 19.2344C471.776 19.2344 470.924 18.8477 470.307 18.0742C469.69 17.3008 469.381 16.2422 469.381 14.8984C469.381 13.2734 469.658 11.7656 470.213 10.375C470.768 8.98438 471.533 7.89453 472.51 7.10547C473.487 6.31641 474.557 5.92188 475.721 5.92188ZM473.494 17.6055C474.252 17.6055 475.006 17.2461 475.756 16.5273C476.506 15.8008 477.115 14.8594 477.584 13.7031C478.053 12.5391 478.287 11.375 478.287 10.2109C478.287 9.40625 478.069 8.76562 477.631 8.28906C477.194 7.8125 476.619 7.57422 475.908 7.57422C475.096 7.57422 474.338 7.91016 473.635 8.58203C472.94 9.25391 472.393 10.1641 471.994 11.3125C471.596 12.4609 471.397 13.6719 471.397 14.9453C471.397 15.8359 471.58 16.5039 471.948 16.9492C472.315 17.3867 472.83 17.6055 473.494 17.6055ZM491.306 19L493.04 10.8906C493.197 10.0781 493.275 9.51562 493.275 9.20312C493.275 8.71094 493.134 8.31641 492.853 8.01953C492.579 7.72266 492.138 7.57422 491.529 7.57422C490.833 7.57422 490.154 7.80859 489.49 8.27734C488.833 8.74609 488.251 9.41406 487.743 10.2812C487.243 11.1484 486.865 12.1992 486.607 13.4336L485.423 19H483.454L486.197 6.15625H487.825L487.568 8.53516H487.685C488.435 7.58203 489.158 6.91016 489.853 6.51953C490.556 6.12109 491.283 5.92188 492.033 5.92188C493.025 5.92188 493.806 6.19531 494.376 6.74219C494.954 7.28125 495.243 8.03906 495.243 9.01562C495.243 9.63281 495.154 10.3359 494.974 11.125L493.298 19H491.306ZM506.188 15.3555C506.188 16.5742 505.754 17.5273 504.887 18.2148C504.028 18.8945 502.813 19.2344 501.243 19.2344C499.922 19.2344 498.731 18.9648 497.668 18.4258V16.5742C498.215 16.9023 498.805 17.1562 499.438 17.3359C500.071 17.5156 500.657 17.6055 501.196 17.6055C502.18 17.6055 502.922 17.4102 503.422 17.0195C503.922 16.6289 504.172 16.1289 504.172 15.5195C504.172 15.0742 504.036 14.6992 503.762 14.3945C503.489 14.0898 502.899 13.6719 501.993 13.1406C500.977 12.5703 500.258 12.0117 499.836 11.4648C499.414 10.918 499.203 10.2695 499.203 9.51953C499.203 8.44141 499.598 7.57422 500.387 6.91797C501.176 6.25391 502.215 5.92188 503.504 5.92188C504.84 5.92188 506.129 6.21094 507.371 6.78906L506.739 8.39453L506.082 8.10156C505.293 7.76562 504.434 7.59766 503.504 7.59766C502.778 7.59766 502.207 7.76953 501.793 8.11328C501.379 8.44922 501.172 8.88672 501.172 9.42578C501.172 9.86328 501.309 10.2383 501.582 10.5508C501.864 10.8633 502.438 11.2656 503.305 11.7578C504.141 12.2266 504.739 12.6289 505.098 12.9648C505.465 13.3008 505.739 13.6641 505.918 14.0547C506.098 14.4375 506.188 14.8711 506.188 15.3555ZM511.46 19H509.492L513.382 0.765625H515.351L511.46 19ZM523.366 5.92188C524.084 5.92188 524.725 6.11719 525.287 6.50781C525.85 6.89062 526.287 7.44531 526.6 8.17188H526.729L527.514 6.15625H529.002L526.272 19H524.713L525.018 16.5508H524.924C523.526 18.3398 522.053 19.2344 520.506 19.2344C519.42 19.2344 518.569 18.8477 517.952 18.0742C517.334 17.3008 517.026 16.2422 517.026 14.8984C517.026 13.2734 517.303 11.7656 517.858 10.375C518.412 8.98438 519.178 7.89453 520.155 7.10547C521.131 6.31641 522.202 5.92188 523.366 5.92188ZM521.139 17.6055C521.897 17.6055 522.651 17.2461 523.401 16.5273C524.151 15.8008 524.76 14.8594 525.229 13.7031C525.698 12.5391 525.932 11.375 525.932 10.2109C525.932 9.40625 525.713 8.76562 525.276 8.28906C524.838 7.8125 524.264 7.57422 523.553 7.57422C522.741 7.57422 521.983 7.91016 521.28 8.58203C520.584 9.25391 520.037 10.1641 519.639 11.3125C519.241 12.4609 519.041 13.6719 519.041 14.9453C519.041 15.8359 519.225 16.5039 519.592 16.9492C519.959 17.3867 520.475 17.6055 521.139 17.6055ZM535.037 17.6289C535.466 17.6289 536.029 17.5273 536.724 17.3242V18.8359C536.458 18.9453 536.13 19.0391 535.74 19.1172C535.349 19.1953 535.037 19.2344 534.802 19.2344C533.826 19.2344 533.076 19.0039 532.552 18.543C532.037 18.0742 531.779 17.3789 531.779 16.457C531.779 15.9414 531.849 15.3555 531.99 14.6992L533.478 7.64453H531.462L531.626 6.78906L533.794 5.875L535.259 3.20312H536.408L535.763 6.15625H538.974L538.669 7.64453H535.47L533.958 14.7227C533.818 15.4023 533.748 15.918 533.748 16.2695C533.748 16.707 533.861 17.043 534.087 17.2773C534.314 17.5117 534.63 17.6289 535.037 17.6289ZM544.915 19.2344C543.477 19.2344 542.348 18.8086 541.528 17.957C540.708 17.1055 540.297 15.9258 540.297 14.418C540.297 12.9492 540.586 11.543 541.165 10.1992C541.75 8.84766 542.524 7.79688 543.485 7.04688C544.446 6.29688 545.504 5.92188 546.661 5.92188C547.856 5.92188 548.754 6.18359 549.356 6.70703C549.958 7.22266 550.258 7.94531 550.258 8.875C550.258 10.2812 549.61 11.3867 548.313 12.1914C547.016 12.9883 545.161 13.3867 542.747 13.3867H542.36L542.313 14.3242C542.313 15.3477 542.551 16.1484 543.028 16.7266C543.512 17.2969 544.258 17.582 545.266 17.582C545.758 17.582 546.262 17.5117 546.778 17.3711C547.301 17.2305 547.95 16.9727 548.723 16.5977V18.3086C547.989 18.6523 547.34 18.8906 546.778 19.0234C546.215 19.1641 545.594 19.2344 544.915 19.2344ZM546.543 7.59766C545.739 7.59766 544.981 7.96484 544.27 8.69922C543.567 9.43359 543.028 10.4531 542.653 11.7578H542.793C544.575 11.7578 545.938 11.5273 546.883 11.0664C547.836 10.5977 548.313 9.92188 548.313 9.03906C548.313 8.625 548.168 8.28125 547.879 8.00781C547.598 7.73438 547.153 7.59766 546.543 7.59766ZM563.768 17.6289C564.198 17.6289 564.76 17.5273 565.456 17.3242V18.8359C565.19 18.9453 564.862 19.0391 564.471 19.1172C564.081 19.1953 563.768 19.2344 563.534 19.2344C562.557 19.2344 561.807 19.0039 561.284 18.543C560.768 18.0742 560.51 17.3789 560.51 16.457C560.51 15.9414 560.581 15.3555 560.721 14.6992L562.21 7.64453H560.194L560.358 6.78906L562.526 5.875L563.991 3.20312H565.139L564.495 6.15625H567.706L567.401 7.64453H564.202L562.69 14.7227C562.549 15.4023 562.479 15.918 562.479 16.2695C562.479 16.707 562.592 17.043 562.819 17.2773C563.046 17.5117 563.362 17.6289 563.768 17.6289ZM576.423 19L578.158 10.8906C578.298 10.1562 578.369 9.62891 578.369 9.30859C578.369 8.15234 577.795 7.57422 576.646 7.57422C575.951 7.57422 575.271 7.80469 574.607 8.26562C573.951 8.72656 573.369 9.39844 572.861 10.2812C572.361 11.1562 571.982 12.2148 571.724 13.457L570.541 19H568.572L572.439 0.765625H574.408C574.267 1.40625 574.13 2.02734 573.998 2.62891C573.873 3.23047 573.74 3.84375 573.599 4.46875C573.466 5.08594 573.318 5.73438 573.154 6.41406C572.998 7.09375 572.814 7.83203 572.603 8.62891H572.732C573.466 7.66797 574.189 6.98047 574.9 6.56641C575.619 6.15234 576.369 5.94531 577.15 5.94531C578.173 5.94531 578.963 6.22656 579.517 6.78906C580.08 7.35156 580.361 8.14844 580.361 9.17969C580.361 9.66406 580.271 10.3125 580.091 11.125C579.787 12.6328 579.22 15.2578 578.392 19H576.423ZM588.458 19.2344C587.02 19.2344 585.891 18.8086 585.071 17.957C584.251 17.1055 583.84 15.9258 583.84 14.418C583.84 12.9492 584.13 11.543 584.708 10.1992C585.294 8.84766 586.067 7.79688 587.028 7.04688C587.989 6.29688 589.047 5.92188 590.204 5.92188C591.399 5.92188 592.297 6.18359 592.899 6.70703C593.501 7.22266 593.801 7.94531 593.801 8.875C593.801 10.2812 593.153 11.3867 591.856 12.1914C590.559 12.9883 588.704 13.3867 586.29 13.3867H585.903L585.856 14.3242C585.856 15.3477 586.094 16.1484 586.571 16.7266C587.055 17.2969 587.801 17.582 588.809 17.582C589.301 17.582 589.805 17.5117 590.321 17.3711C590.844 17.2305 591.493 16.9727 592.266 16.5977V18.3086C591.532 18.6523 590.883 18.8906 590.321 19.0234C589.758 19.1641 589.137 19.2344 588.458 19.2344ZM590.087 7.59766C589.282 7.59766 588.524 7.96484 587.813 8.69922C587.11 9.43359 586.571 10.4531 586.196 11.7578H586.337C588.118 11.7578 589.481 11.5273 590.426 11.0664C591.38 10.5977 591.856 9.92188 591.856 9.03906C591.856 8.625 591.712 8.28125 591.422 8.00781C591.141 7.73438 590.696 7.59766 590.087 7.59766ZM609.069 19.2344C608.311 19.2344 607.647 19.0391 607.077 18.6484C606.507 18.2578 606.065 17.7109 605.753 17.0078H605.635L605.589 17.4531C605.565 17.6484 605.522 17.9219 605.46 18.2734C605.405 18.625 604.96 20.7891 604.124 24.7656H602.178L606.116 6.15625H607.745L607.44 8.60547H607.534C608.932 6.83203 610.385 5.94531 611.893 5.94531C612.964 5.94531 613.807 6.32812 614.425 7.09375C615.042 7.85156 615.35 8.91797 615.35 10.293C615.35 11.9492 615.081 13.4688 614.542 14.8516C614.003 16.2344 613.257 17.3125 612.303 18.0859C611.35 18.8516 610.272 19.2344 609.069 19.2344ZM611.249 7.57422C610.499 7.57422 609.733 7.94531 608.952 8.6875C608.178 9.42969 607.561 10.3633 607.1 11.4883C606.647 12.6133 606.421 13.7656 606.421 14.9453C606.421 15.8047 606.635 16.4648 607.065 16.9258C607.503 17.3789 608.132 17.6055 608.952 17.6055C609.725 17.6055 610.444 17.2891 611.108 16.6562C611.78 16.0234 612.319 15.125 612.725 13.9609C613.132 12.7891 613.335 11.5469 613.335 10.2344C613.335 8.46094 612.639 7.57422 611.249 7.57422ZM624.982 5.92188C625.701 5.92188 626.342 6.11719 626.904 6.50781C627.467 6.89062 627.904 7.44531 628.217 8.17188H628.345L629.131 6.15625H630.619L627.888 19H626.33L626.635 16.5508H626.541C625.142 18.3398 623.67 19.2344 622.123 19.2344C621.037 19.2344 620.185 18.8477 619.568 18.0742C618.951 17.3008 618.642 16.2422 618.642 14.8984C618.642 13.2734 618.92 11.7656 619.474 10.375C620.029 8.98438 620.795 7.89453 621.771 7.10547C622.748 6.31641 623.818 5.92188 624.982 5.92188ZM622.756 17.6055C623.513 17.6055 624.267 17.2461 625.017 16.5273C625.767 15.8008 626.377 14.8594 626.845 13.7031C627.314 12.5391 627.549 11.375 627.549 10.2109C627.549 9.40625 627.33 8.76562 626.892 8.28906C626.455 7.8125 625.881 7.57422 625.17 7.57422C624.357 7.57422 623.599 7.91016 622.896 8.58203C622.201 9.25391 621.654 10.1641 621.256 11.3125C620.857 12.4609 620.658 13.6719 620.658 14.9453C620.658 15.8359 620.842 16.5039 621.209 16.9492C621.576 17.3867 622.092 17.6055 622.756 17.6055ZM644.915 6.15625L644.622 7.41016L642.149 7.69141C642.469 8.17578 642.63 8.79297 642.63 9.54297C642.63 11.0352 642.173 12.2266 641.259 13.1172C640.352 14 639.137 14.4414 637.614 14.4414C637.184 14.4414 636.856 14.4102 636.63 14.3477C635.544 14.7617 635.001 15.2734 635.001 15.8828C635.001 16.2031 635.13 16.418 635.387 16.5273C635.645 16.6289 636.02 16.7109 636.512 16.7734L637.884 16.9375C639.298 17.1094 640.321 17.4531 640.954 17.9688C641.594 18.4844 641.915 19.2422 641.915 20.2422C641.915 21.6797 641.344 22.793 640.204 23.582C639.063 24.3711 637.458 24.7656 635.387 24.7656C633.872 24.7656 632.684 24.4766 631.825 23.8984C630.966 23.3281 630.536 22.5195 630.536 21.4727C630.536 20.6523 630.817 19.9414 631.38 19.3398C631.942 18.7383 632.852 18.2266 634.11 17.8047C633.501 17.4844 633.196 17.0117 633.196 16.3867C633.196 15.8477 633.395 15.3867 633.794 15.0039C634.192 14.6133 634.747 14.25 635.458 13.9141C634.966 13.6641 634.563 13.2969 634.251 12.8125C633.938 12.3203 633.782 11.75 633.782 11.1016C633.782 9.58594 634.247 8.34375 635.177 7.375C636.114 6.40625 637.309 5.92188 638.762 5.92188C639.372 5.92188 639.973 6 640.567 6.15625H644.915ZM632.434 21.2852C632.434 21.8867 632.688 22.3633 633.196 22.7148C633.704 23.0664 634.458 23.2422 635.458 23.2422C636.88 23.2422 637.989 22.9922 638.786 22.4922C639.591 22 639.993 21.3008 639.993 20.3945C639.993 19.9102 639.782 19.5273 639.36 19.2461C638.938 18.9648 638.219 18.7695 637.204 18.6602L635.341 18.4727C634.403 18.668 633.684 19.0117 633.184 19.5039C632.684 19.9961 632.434 20.5898 632.434 21.2852ZM635.692 11.0312C635.692 11.6953 635.868 12.2031 636.219 12.5547C636.571 12.8984 637.059 13.0703 637.684 13.0703C638.302 13.0703 638.841 12.9062 639.302 12.5781C639.762 12.25 640.114 11.8008 640.356 11.2305C640.606 10.6523 640.731 10.0273 640.731 9.35547C640.731 8.71484 640.559 8.22656 640.216 7.89062C639.872 7.55469 639.38 7.38672 638.739 7.38672C638.13 7.38672 637.594 7.54688 637.134 7.86719C636.68 8.17969 636.325 8.62109 636.067 9.19141C635.817 9.75391 635.692 10.3672 635.692 11.0312ZM650.773 19.2344C649.336 19.2344 648.207 18.8086 647.387 17.957C646.566 17.1055 646.156 15.9258 646.156 14.418C646.156 12.9492 646.445 11.543 647.023 10.1992C647.609 8.84766 648.383 7.79688 649.344 7.04688C650.305 6.29688 651.363 5.92188 652.519 5.92188C653.715 5.92188 654.613 6.18359 655.215 6.70703C655.816 7.22266 656.117 7.94531 656.117 8.875C656.117 10.2812 655.469 11.3867 654.172 12.1914C652.875 12.9883 651.019 13.3867 648.605 13.3867H648.219L648.172 14.3242C648.172 15.3477 648.41 16.1484 648.887 16.7266C649.371 17.2969 650.117 17.582 651.125 17.582C651.617 17.582 652.121 17.5117 652.637 17.3711C653.16 17.2305 653.808 16.9727 654.582 16.5977V18.3086C653.848 18.6523 653.199 18.8906 652.637 19.0234C652.074 19.1641 651.453 19.2344 650.773 19.2344ZM652.402 7.59766C651.598 7.59766 650.84 7.96484 650.129 8.69922C649.426 9.43359 648.887 10.4531 648.512 11.7578H648.652C650.433 11.7578 651.797 11.5273 652.742 11.0664C653.695 10.5977 654.172 9.92188 654.172 9.03906C654.172 8.625 654.027 8.28125 653.738 8.00781C653.457 7.73438 653.012 7.59766 652.402 7.59766ZM663.416 24.7656C662.877 24.7656 662.396 24.6836 661.974 24.5195V22.8672C662.451 23.0391 662.916 23.125 663.369 23.125C664.346 23.125 665.002 22.3242 665.338 20.7227L668.432 6.15625H670.377L667.26 20.8984C666.978 22.2344 666.529 23.2109 665.912 23.8281C665.303 24.4531 664.471 24.7656 663.416 24.7656ZM668.982 2.875C668.982 2.4375 669.107 2.08203 669.357 1.80859C669.607 1.52734 669.932 1.38672 670.33 1.38672C671.002 1.38672 671.338 1.73828 671.338 2.44141C671.338 2.87109 671.205 3.23438 670.939 3.53125C670.682 3.82812 670.381 3.97656 670.037 3.97656C669.74 3.97656 669.49 3.88281 669.287 3.69531C669.084 3.5 668.982 3.22656 668.982 2.875ZM677.337 6.15625L675.579 14.3008C675.438 14.9961 675.368 15.5391 675.368 15.9297C675.368 17.0469 675.942 17.6055 677.091 17.6055C677.778 17.6055 678.454 17.3711 679.118 16.9023C679.782 16.4336 680.368 15.7617 680.876 14.8867C681.384 14.0117 681.771 12.957 682.036 11.7227L683.208 6.15625H685.153L682.446 19H680.817L681.075 16.6211H680.935C680.169 17.5977 679.438 18.2773 678.743 18.6602C678.048 19.043 677.329 19.2344 676.587 19.2344C675.587 19.2344 674.802 18.9648 674.231 18.4258C673.661 17.8789 673.376 17.1016 673.376 16.0938C673.376 15.6094 673.462 14.9375 673.634 14.0781L675.345 6.15625H677.337ZM695.477 15.3555C695.477 16.5742 695.043 17.5273 694.176 18.2148C693.316 18.8945 692.102 19.2344 690.531 19.2344C689.211 19.2344 688.02 18.9648 686.957 18.4258V16.5742C687.504 16.9023 688.094 17.1562 688.727 17.3359C689.359 17.5156 689.945 17.6055 690.484 17.6055C691.469 17.6055 692.211 17.4102 692.711 17.0195C693.211 16.6289 693.461 16.1289 693.461 15.5195C693.461 15.0742 693.324 14.6992 693.051 14.3945C692.777 14.0898 692.188 13.6719 691.281 13.1406C690.266 12.5703 689.547 12.0117 689.125 11.4648C688.703 10.918 688.492 10.2695 688.492 9.51953C688.492 8.44141 688.887 7.57422 689.676 6.91797C690.465 6.25391 691.504 5.92188 692.793 5.92188C694.129 5.92188 695.418 6.21094 696.66 6.78906L696.027 8.39453L695.371 8.10156C694.582 7.76562 693.723 7.59766 692.793 7.59766C692.066 7.59766 691.496 7.76953 691.082 8.11328C690.668 8.44922 690.461 8.88672 690.461 9.42578C690.461 9.86328 690.598 10.2383 690.871 10.5508C691.152 10.8633 691.727 11.2656 692.594 11.7578C693.43 12.2266 694.027 12.6289 694.387 12.9648C694.754 13.3008 695.027 13.6641 695.207 14.0547C695.387 14.4375 695.477 14.8711 695.477 15.3555ZM702.741 17.6289C703.171 17.6289 703.733 17.5273 704.429 17.3242V18.8359C704.163 18.9453 703.835 19.0391 703.444 19.1172C703.054 19.1953 702.741 19.2344 702.507 19.2344C701.53 19.2344 700.78 19.0039 700.257 18.543C699.741 18.0742 699.483 17.3789 699.483 16.457C699.483 15.9414 699.554 15.3555 699.694 14.6992L701.183 7.64453H699.167L699.331 6.78906L701.499 5.875L702.964 3.20312H704.112L703.468 6.15625H706.679L706.374 7.64453H703.175L701.663 14.7227C701.522 15.4023 701.452 15.918 701.452 16.2695C701.452 16.707 701.565 17.043 701.792 17.2773C702.019 17.5117 702.335 17.6289 702.741 17.6289ZM712.829 24.7656C712.29 24.7656 711.802 24.6836 711.364 24.5195V22.8672C711.864 23.0391 712.302 23.125 712.677 23.125C713.271 23.125 713.728 22.8828 714.048 22.3984C714.368 21.9141 714.626 21.2227 714.821 20.3242L717.482 7.64453H715.22L715.372 6.85938L717.786 6.08594L718.056 4.91406C718.415 3.35156 718.911 2.25 719.544 1.60938C720.185 0.960938 721.13 0.636719 722.38 0.636719C722.693 0.636719 723.075 0.683594 723.528 0.777344C723.982 0.863281 724.333 0.960938 724.583 1.07031L724.079 2.58203C723.485 2.35547 722.95 2.24219 722.474 2.24219C721.794 2.24219 721.271 2.43359 720.903 2.81641C720.544 3.19141 720.251 3.88281 720.025 4.89062L719.732 6.15625H722.521L722.228 7.64453H719.45L716.732 20.5117C716.427 21.9883 715.958 23.0664 715.325 23.7461C714.693 24.4258 713.86 24.7656 712.829 24.7656ZM730.067 5.99219C731.551 5.99219 732.723 6.43359 733.582 7.31641C734.442 8.19141 734.871 9.39844 734.871 10.9375C734.871 12.4062 734.59 13.793 734.027 15.0977C733.465 16.4023 732.703 17.4102 731.742 18.1211C730.781 18.832 729.695 19.1875 728.484 19.1875C726.984 19.1875 725.809 18.7461 724.957 17.8633C724.106 16.9805 723.68 15.7734 723.68 14.2422C723.68 12.7578 723.965 11.3633 724.535 10.0586C725.106 8.74609 725.875 7.74219 726.844 7.04688C727.813 6.34375 728.887 5.99219 730.067 5.99219ZM732.832 10.668C732.832 9.76953 732.586 9.04297 732.094 8.48828C731.609 7.92578 730.949 7.64453 730.113 7.64453C729.262 7.64453 728.496 7.93359 727.817 8.51172C727.145 9.08984 726.621 9.89453 726.246 10.9258C725.879 11.9492 725.695 13.0898 725.695 14.3477C725.695 15.3711 725.942 16.1641 726.434 16.7266C726.934 17.2812 727.649 17.5586 728.578 17.5586C729.391 17.5586 730.121 17.2734 730.77 16.7031C731.418 16.1328 731.922 15.3242 732.281 14.2773C732.649 13.2227 732.832 12.0195 732.832 10.668ZM745.781 5.92188C746.32 5.92188 746.788 5.97656 747.187 6.08594L746.765 7.84375C746.351 7.74219 745.941 7.69141 745.534 7.69141C744.823 7.69141 744.156 7.92578 743.531 8.39453C742.913 8.86328 742.37 9.51562 741.902 10.3516C741.441 11.1797 741.101 12.1016 740.882 13.1172L739.628 19H737.659L740.402 6.15625H742.031L741.773 8.53516H741.89C742.452 7.79297 742.917 7.26172 743.284 6.94141C743.652 6.61328 744.034 6.36328 744.433 6.19141C744.839 6.01172 745.288 5.92188 745.781 5.92188ZM757.298 19H755.329L758.072 6.15625H760.04L757.298 19ZM758.622 2.875C758.622 2.4375 758.747 2.08203 758.997 1.80859C759.247 1.52734 759.572 1.38672 759.97 1.38672C760.657 1.38672 761.001 1.73828 761.001 2.44141C761.001 2.87109 760.868 3.23438 760.603 3.53125C760.345 3.82812 760.044 3.97656 759.7 3.97656C759.388 3.97656 759.13 3.88281 758.927 3.69531C758.724 3.5 758.622 3.22656 758.622 2.875ZM766.321 17.6289C766.75 17.6289 767.313 17.5273 768.008 17.3242V18.8359C767.743 18.9453 767.414 19.0391 767.024 19.1172C766.633 19.1953 766.321 19.2344 766.086 19.2344C765.11 19.2344 764.36 19.0039 763.836 18.543C763.321 18.0742 763.063 17.3789 763.063 16.457C763.063 15.9414 763.133 15.3555 763.274 14.6992L764.762 7.64453H762.746L762.911 6.78906L765.078 5.875L766.543 3.20312H767.692L767.047 6.15625H770.258L769.953 7.64453H766.754L765.243 14.7227C765.102 15.4023 765.032 15.918 765.032 16.2695C765.032 16.707 765.145 17.043 765.371 17.2773C765.598 17.5117 765.914 17.6289 766.321 17.6289ZM782.256 17.6289C782.686 17.6289 783.248 17.5273 783.944 17.3242V18.8359C783.678 18.9453 783.35 19.0391 782.959 19.1172C782.569 19.1953 782.256 19.2344 782.022 19.2344C781.045 19.2344 780.295 19.0039 779.772 18.543C779.256 18.0742 778.998 17.3789 778.998 16.457C778.998 15.9414 779.069 15.3555 779.209 14.6992L780.698 7.64453H778.682L778.846 6.78906L781.014 5.875L782.479 3.20312H783.627L782.983 6.15625H786.194L785.889 7.64453H782.69L781.178 14.7227C781.037 15.4023 780.967 15.918 780.967 16.2695C780.967 16.707 781.08 17.043 781.307 17.2773C781.534 17.5117 781.85 17.6289 782.256 17.6289ZM793.904 5.99219C795.388 5.99219 796.56 6.43359 797.419 7.31641C798.279 8.19141 798.708 9.39844 798.708 10.9375C798.708 12.4062 798.427 13.793 797.865 15.0977C797.302 16.4023 796.541 17.4102 795.58 18.1211C794.619 18.832 793.533 19.1875 792.322 19.1875C790.822 19.1875 789.646 18.7461 788.794 17.8633C787.943 16.9805 787.517 15.7734 787.517 14.2422C787.517 12.7578 787.802 11.3633 788.373 10.0586C788.943 8.74609 789.712 7.74219 790.681 7.04688C791.65 6.34375 792.724 5.99219 793.904 5.99219ZM796.669 10.668C796.669 9.76953 796.423 9.04297 795.931 8.48828C795.447 7.92578 794.787 7.64453 793.951 7.64453C793.099 7.64453 792.333 7.93359 791.654 8.51172C790.982 9.08984 790.458 9.89453 790.083 10.9258C789.716 11.9492 789.533 13.0898 789.533 14.3477C789.533 15.3711 789.779 16.1641 790.271 16.7266C790.771 17.2812 791.486 17.5586 792.416 17.5586C793.228 17.5586 793.958 17.2734 794.607 16.7031C795.255 16.1328 795.759 15.3242 796.119 14.2773C796.486 13.2227 796.669 12.0195 796.669 10.668ZM70.3202 50.6289C70.7498 50.6289 71.3123 50.5273 72.0077 50.3242V51.8359C71.742 51.9453 71.4139 52.0391 71.0233 52.1172C70.6327 52.1953 70.3202 52.2344 70.0858 52.2344C69.1092 52.2344 68.3592 52.0039 67.8358 51.543C67.3202 51.0742 67.0623 50.3789 67.0623 49.457C67.0623 48.9414 67.1327 48.3555 67.2733 47.6992L68.7616 40.6445H66.7459L66.91 39.7891L69.078 38.875L70.5428 36.2031H71.6913L71.0467 39.1562H74.2577L73.953 40.6445H70.7538L69.242 47.7227C69.1014 48.4023 69.0311 48.918 69.0311 49.2695C69.0311 49.707 69.1444 50.043 69.3709 50.2773C69.5975 50.5117 69.9139 50.6289 70.3202 50.6289ZM81.9208 38.9219C82.6395 38.9219 83.2802 39.1172 83.8427 39.5078C84.4052 39.8906 84.8427 40.4453 85.1552 41.1719H85.2841L86.0692 39.1562H87.5575L84.827 52H83.2684L83.5731 49.5508H83.4794C82.0809 51.3398 80.6083 52.2344 79.0614 52.2344C77.9755 52.2344 77.1239 51.8477 76.5067 51.0742C75.8895 50.3008 75.5809 49.2422 75.5809 47.8984C75.5809 46.2734 75.8583 44.7656 76.413 43.375C76.9677 41.9844 77.7333 40.8945 78.7098 40.1055C79.6864 39.3164 80.7567 38.9219 81.9208 38.9219ZM79.6942 50.6055C80.452 50.6055 81.2059 50.2461 81.9559 49.5273C82.7059 48.8008 83.3153 47.8594 83.7841 46.7031C84.2528 45.5391 84.4872 44.375 84.4872 43.2109C84.4872 42.4062 84.2684 41.7656 83.8309 41.2891C83.3934 40.8125 82.8192 40.5742 82.1083 40.5742C81.2958 40.5742 80.538 40.9102 79.8348 41.582C79.1395 42.2539 78.5927 43.1641 78.1942 44.3125C77.7958 45.4609 77.5966 46.6719 77.5966 47.9453C77.5966 48.8359 77.7802 49.5039 78.1473 49.9492C78.5145 50.3867 79.0302 50.6055 79.6942 50.6055ZM92.83 45.4492L98.9941 39.1562H101.35L95.8534 44.6289L99.3105 52H97.1191L94.3652 45.8594L92.5839 47.3008L91.623 52H89.6308L93.498 33.7656H95.4902C94.9277 36.3906 94.4238 38.7422 93.9784 40.8203C93.5331 42.8984 93.1347 44.4414 92.7831 45.4492H92.83ZM107.407 52.2344C105.97 52.2344 104.841 51.8086 104.02 50.957C103.2 50.1055 102.79 48.9258 102.79 47.418C102.79 45.9492 103.079 44.543 103.657 43.1992C104.243 41.8477 105.017 40.7969 105.978 40.0469C106.938 39.2969 107.997 38.9219 109.153 38.9219C110.349 38.9219 111.247 39.1836 111.849 39.707C112.45 40.2227 112.751 40.9453 112.751 41.875C112.751 43.2812 112.103 44.3867 110.806 45.1914C109.509 45.9883 107.653 46.3867 105.239 46.3867H104.853L104.806 47.3242C104.806 48.3477 105.044 49.1484 105.52 49.7266C106.005 50.2969 106.751 50.582 107.759 50.582C108.251 50.582 108.755 50.5117 109.27 50.3711C109.794 50.2305 110.442 49.9727 111.216 49.5977V51.3086C110.481 51.6523 109.833 51.8906 109.27 52.0234C108.708 52.1641 108.087 52.2344 107.407 52.2344ZM109.036 40.5977C108.231 40.5977 107.474 40.9648 106.763 41.6992C106.06 42.4336 105.52 43.4531 105.145 44.7578H105.286C107.067 44.7578 108.431 44.5273 109.376 44.0664C110.329 43.5977 110.806 42.9219 110.806 42.0391C110.806 41.625 110.661 41.2812 110.372 41.0078C110.091 40.7344 109.645 40.5977 109.036 40.5977ZM129.788 52L131.523 43.8906C131.663 43.1562 131.733 42.6289 131.733 42.3086C131.733 41.7617 131.612 41.3359 131.37 41.0312C131.128 40.7266 130.714 40.5742 130.128 40.5742C129.472 40.5742 128.831 40.8086 128.206 41.2773C127.589 41.7461 127.042 42.418 126.565 43.293C126.097 44.1602 125.733 45.207 125.476 46.4336L124.292 52H122.323L125.065 39.1562H126.694L126.437 41.5352H126.554C127.233 40.6055 127.909 39.9375 128.581 39.5312C129.261 39.125 129.96 38.9219 130.679 38.9219C131.562 38.9219 132.241 39.1758 132.718 39.6836C133.194 40.1914 133.476 40.8984 133.562 41.8047H133.655C134.327 40.8281 135.042 40.1055 135.8 39.6367C136.558 39.1602 137.323 38.9219 138.097 38.9219C139.089 38.9219 139.855 39.1875 140.394 39.7188C140.94 40.25 141.214 41.0234 141.214 42.0391C141.214 42.5703 141.128 43.2656 140.956 44.125L139.269 52H137.276L139.011 43.8906C139.167 43.0781 139.245 42.5078 139.245 42.1797C139.245 41.6953 139.108 41.3086 138.835 41.0195C138.569 40.7227 138.148 40.5742 137.569 40.5742C136.937 40.5742 136.312 40.8008 135.694 41.2539C135.077 41.707 134.534 42.3516 134.065 43.1875C133.605 44.0156 133.253 45 133.011 46.1406L131.757 52H129.788ZM149.287 52.2344C147.85 52.2344 146.721 51.8086 145.9 50.957C145.08 50.1055 144.67 48.9258 144.67 47.418C144.67 45.9492 144.959 44.543 145.537 43.1992C146.123 41.8477 146.897 40.7969 147.858 40.0469C148.818 39.2969 149.877 38.9219 151.033 38.9219C152.229 38.9219 153.127 39.1836 153.729 39.707C154.33 40.2227 154.631 40.9453 154.631 41.875C154.631 43.2812 153.983 44.3867 152.686 45.1914C151.389 45.9883 149.533 46.3867 147.119 46.3867H146.733L146.686 47.3242C146.686 48.3477 146.924 49.1484 147.4 49.7266C147.885 50.2969 148.631 50.582 149.639 50.582C150.131 50.582 150.635 50.5117 151.15 50.3711C151.674 50.2305 152.322 49.9727 153.096 49.5977V51.3086C152.361 51.6523 151.713 51.8906 151.15 52.0234C150.588 52.1641 149.967 52.2344 149.287 52.2344ZM150.916 40.5977C150.111 40.5977 149.354 40.9648 148.643 41.6992C147.94 42.4336 147.4 43.4531 147.025 44.7578H147.166C148.947 44.7578 150.311 44.5273 151.256 44.0664C152.209 43.5977 152.686 42.9219 152.686 42.0391C152.686 41.625 152.541 41.2812 152.252 41.0078C151.971 40.7344 151.525 40.5977 150.916 40.5977ZM169.899 52.2344C169.141 52.2344 168.473 52.0352 167.895 51.6367C167.324 51.2383 166.895 50.6953 166.606 50.0078H166.488L165.668 52H164.203L168.07 33.7656H170.039C169.641 35.6562 169.332 37.1055 169.113 38.1133C168.902 39.1133 168.61 40.2852 168.235 41.6289H168.34C169.067 40.707 169.781 40.0312 170.485 39.6016C171.195 39.1641 171.926 38.9453 172.676 38.9453C173.777 38.9453 174.637 39.332 175.254 40.1055C175.871 40.8789 176.18 41.9414 176.18 43.293C176.18 44.9258 175.91 46.4375 175.371 47.8281C174.84 49.2109 174.094 50.293 173.133 51.0742C172.18 51.8477 171.102 52.2344 169.899 52.2344ZM172.078 40.5742C171.328 40.5742 170.563 40.9453 169.781 41.6875C169.008 42.4297 168.391 43.3633 167.93 44.4883C167.477 45.6133 167.25 46.7656 167.25 47.9453C167.25 48.8047 167.465 49.4648 167.895 49.9258C168.332 50.3789 168.961 50.6055 169.781 50.6055C170.555 50.6055 171.274 50.2891 171.938 49.6562C172.61 49.0234 173.149 48.125 173.555 46.9609C173.961 45.7891 174.164 44.5469 174.164 43.2344C174.164 41.4609 173.469 40.5742 172.078 40.5742ZM185.812 38.9219C186.53 38.9219 187.171 39.1172 187.734 39.5078C188.296 39.8906 188.734 40.4453 189.046 41.1719H189.175L189.96 39.1562H191.448L188.718 52H187.159L187.464 49.5508H187.37C185.972 51.3398 184.499 52.2344 182.952 52.2344C181.866 52.2344 181.015 51.8477 180.398 51.0742C179.78 50.3008 179.472 49.2422 179.472 47.8984C179.472 46.2734 179.749 44.7656 180.304 43.375C180.859 41.9844 181.624 40.8945 182.601 40.1055C183.577 39.3164 184.648 38.9219 185.812 38.9219ZM183.585 50.6055C184.343 50.6055 185.097 50.2461 185.847 49.5273C186.597 48.8008 187.206 47.8594 187.675 46.7031C188.144 45.5391 188.378 44.375 188.378 43.2109C188.378 42.4062 188.159 41.7656 187.722 41.2891C187.284 40.8125 186.71 40.5742 185.999 40.5742C185.187 40.5742 184.429 40.9102 183.726 41.582C183.03 42.2539 182.484 43.1641 182.085 44.3125C181.687 45.4609 181.488 46.6719 181.488 47.9453C181.488 48.8359 181.671 49.5039 182.038 49.9492C182.405 50.3867 182.921 50.6055 183.585 50.6055ZM198.783 52.2344C197.268 52.2344 196.092 51.8164 195.256 50.9805C194.42 50.1445 194.002 48.9648 194.002 47.4414C194.002 45.8789 194.291 44.4375 194.869 43.1172C195.448 41.7969 196.244 40.7695 197.26 40.0352C198.283 39.293 199.432 38.9219 200.705 38.9219C201.776 38.9219 202.823 39.1211 203.846 39.5195L203.295 41.1719C202.358 40.7734 201.502 40.5742 200.729 40.5742C199.854 40.5742 199.053 40.875 198.326 41.4766C197.608 42.0703 197.041 42.9023 196.627 43.9727C196.221 45.0352 196.018 46.1914 196.018 47.4414C196.018 48.4414 196.276 49.2188 196.791 49.7734C197.315 50.3281 198.033 50.6055 198.948 50.6055C199.51 50.6055 200.041 50.5273 200.541 50.3711C201.041 50.2148 201.533 50.0312 202.018 49.8203V51.4961C201.049 51.9883 199.971 52.2344 198.783 52.2344ZM208.486 45.4492L214.65 39.1562H217.005L211.509 44.6289L214.966 52H212.775L210.021 45.8594L208.24 47.3008L207.279 52H205.286L209.154 33.7656H211.146C210.583 36.3906 210.079 38.7422 209.634 40.8203C209.189 42.8984 208.79 44.4414 208.439 45.4492H208.486ZM229.12 50.6289C229.55 50.6289 230.113 50.5273 230.808 50.3242V51.8359C230.542 51.9453 230.214 52.0391 229.824 52.1172C229.433 52.1953 229.12 52.2344 228.886 52.2344C227.91 52.2344 227.16 52.0039 226.636 51.543C226.12 51.0742 225.863 50.3789 225.863 49.457C225.863 48.9414 225.933 48.3555 226.074 47.6992L227.562 40.6445H225.546L225.71 39.7891L227.878 38.875L229.343 36.2031H230.492L229.847 39.1562H233.058L232.753 40.6445H229.554L228.042 47.7227C227.902 48.4023 227.831 48.918 227.831 49.2695C227.831 49.707 227.945 50.043 228.171 50.2773C228.398 50.5117 228.714 50.6289 229.12 50.6289ZM240.768 38.9922C242.252 38.9922 243.424 39.4336 244.284 40.3164C245.143 41.1914 245.573 42.3984 245.573 43.9375C245.573 45.4062 245.291 46.793 244.729 48.0977C244.166 49.4023 243.405 50.4102 242.444 51.1211C241.483 51.832 240.397 52.1875 239.186 52.1875C237.686 52.1875 236.51 51.7461 235.659 50.8633C234.807 49.9805 234.381 48.7734 234.381 47.2422C234.381 45.7578 234.666 44.3633 235.237 43.0586C235.807 41.7461 236.577 40.7422 237.545 40.0469C238.514 39.3438 239.588 38.9922 240.768 38.9922ZM243.534 43.668C243.534 42.7695 243.288 42.043 242.795 41.4883C242.311 40.9258 241.651 40.6445 240.815 40.6445C239.963 40.6445 239.198 40.9336 238.518 41.5117C237.846 42.0898 237.323 42.8945 236.948 43.9258C236.58 44.9492 236.397 46.0898 236.397 47.3477C236.397 48.3711 236.643 49.1641 237.135 49.7266C237.635 50.2812 238.35 50.5586 239.28 50.5586C240.092 50.5586 240.823 50.2734 241.471 49.7031C242.12 49.1328 242.623 48.3242 242.983 47.2773C243.35 46.2227 243.534 45.0195 243.534 43.668ZM259.493 50.6289C259.922 50.6289 260.485 50.5273 261.18 50.3242V51.8359C260.915 51.9453 260.586 52.0391 260.196 52.1172C259.805 52.1953 259.493 52.2344 259.258 52.2344C258.282 52.2344 257.532 52.0039 257.008 51.543C256.493 51.0742 256.235 50.3789 256.235 49.457C256.235 48.9414 256.305 48.3555 256.446 47.6992L257.934 40.6445H255.918L256.083 39.7891L258.25 38.875L259.715 36.2031H260.864L260.219 39.1562H263.43L263.125 40.6445H259.926L258.415 47.7227C258.274 48.4023 258.204 48.918 258.204 49.2695C258.204 49.707 258.317 50.043 258.543 50.2773C258.77 50.5117 259.086 50.6289 259.493 50.6289ZM272.148 52L273.882 43.8906C274.023 43.1562 274.093 42.6289 274.093 42.3086C274.093 41.1523 273.519 40.5742 272.371 40.5742C271.675 40.5742 270.996 40.8047 270.332 41.2656C269.675 41.7266 269.093 42.3984 268.585 43.2812C268.085 44.1562 267.707 45.2148 267.449 46.457L266.265 52H264.296L268.164 33.7656H270.132C269.992 34.4062 269.855 35.0273 269.722 35.6289C269.597 36.2305 269.464 36.8438 269.324 37.4688C269.191 38.0859 269.042 38.7344 268.878 39.4141C268.722 40.0938 268.539 40.832 268.328 41.6289H268.457C269.191 40.668 269.914 39.9805 270.625 39.5664C271.343 39.1523 272.093 38.9453 272.875 38.9453C273.898 38.9453 274.687 39.2266 275.242 39.7891C275.804 40.3516 276.085 41.1484 276.085 42.1797C276.085 42.6641 275.996 43.3125 275.816 44.125C275.511 45.6328 274.945 48.2578 274.117 52H272.148ZM284.182 52.2344C282.745 52.2344 281.616 51.8086 280.795 50.957C279.975 50.1055 279.565 48.9258 279.565 47.418C279.565 45.9492 279.854 44.543 280.432 43.1992C281.018 41.8477 281.792 40.7969 282.753 40.0469C283.713 39.2969 284.772 38.9219 285.928 38.9219C287.124 38.9219 288.022 39.1836 288.624 39.707C289.225 40.2227 289.526 40.9453 289.526 41.875C289.526 43.2812 288.878 44.3867 287.581 45.1914C286.284 45.9883 284.428 46.3867 282.014 46.3867H281.628L281.581 47.3242C281.581 48.3477 281.819 49.1484 282.295 49.7266C282.78 50.2969 283.526 50.582 284.534 50.582C285.026 50.582 285.53 50.5117 286.045 50.3711C286.569 50.2305 287.217 49.9727 287.991 49.5977V51.3086C287.256 51.6523 286.608 51.8906 286.045 52.0234C285.483 52.1641 284.862 52.2344 284.182 52.2344ZM285.811 40.5977C285.006 40.5977 284.249 40.9648 283.538 41.6992C282.835 42.4336 282.295 43.4531 281.92 44.7578H282.061C283.842 44.7578 285.206 44.5273 286.151 44.0664C287.104 43.5977 287.581 42.9219 287.581 42.0391C287.581 41.625 287.436 41.2812 287.147 41.0078C286.866 40.7344 286.42 40.5977 285.811 40.5977ZM304.172 52.2344C302.735 52.2344 301.606 51.8086 300.786 50.957C299.965 50.1055 299.555 48.9258 299.555 47.418C299.555 45.9492 299.844 44.543 300.422 43.1992C301.008 41.8477 301.782 40.7969 302.743 40.0469C303.704 39.2969 304.762 38.9219 305.919 38.9219C307.114 38.9219 308.012 39.1836 308.614 39.707C309.215 40.2227 309.516 40.9453 309.516 41.875C309.516 43.2812 308.868 44.3867 307.571 45.1914C306.274 45.9883 304.419 46.3867 302.005 46.3867H301.618L301.571 47.3242C301.571 48.3477 301.809 49.1484 302.286 49.7266C302.77 50.2969 303.516 50.582 304.524 50.582C305.016 50.582 305.52 50.5117 306.036 50.3711C306.559 50.2305 307.208 49.9727 307.981 49.5977V51.3086C307.247 51.6523 306.598 51.8906 306.036 52.0234C305.473 52.1641 304.852 52.2344 304.172 52.2344ZM305.801 40.5977C304.997 40.5977 304.239 40.9648 303.528 41.6992C302.825 42.4336 302.286 43.4531 301.911 44.7578H302.051C303.833 44.7578 305.196 44.5273 306.141 44.0664C307.094 43.5977 307.571 42.9219 307.571 42.0391C307.571 41.625 307.426 41.2812 307.137 41.0078C306.856 40.7344 306.411 40.5977 305.801 40.5977ZM319.746 52L321.48 43.8906C321.636 43.0781 321.715 42.5156 321.715 42.2031C321.715 41.7109 321.574 41.3164 321.293 41.0195C321.019 40.7227 320.578 40.5742 319.968 40.5742C319.273 40.5742 318.593 40.8086 317.929 41.2773C317.273 41.7461 316.691 42.4141 316.183 43.2812C315.683 44.1484 315.304 45.1992 315.047 46.4336L313.863 52H311.894L314.636 39.1562H316.265L316.008 41.5352H316.125C316.875 40.582 317.597 39.9102 318.293 39.5195C318.996 39.1211 319.722 38.9219 320.472 38.9219C321.465 38.9219 322.246 39.1953 322.816 39.7422C323.394 40.2812 323.683 41.0391 323.683 42.0156C323.683 42.6328 323.593 43.3359 323.414 44.125L321.738 52H319.746ZM338.905 39.1562L338.612 40.4102L336.139 40.6914C336.46 41.1758 336.62 41.793 336.62 42.543C336.62 44.0352 336.163 45.2266 335.249 46.1172C334.342 47 333.128 47.4414 331.604 47.4414C331.175 47.4414 330.846 47.4102 330.62 47.3477C329.534 47.7617 328.991 48.2734 328.991 48.8828C328.991 49.2031 329.12 49.418 329.378 49.5273C329.635 49.6289 330.01 49.7109 330.503 49.7734L331.874 49.9375C333.288 50.1094 334.311 50.4531 334.944 50.9688C335.585 51.4844 335.905 52.2422 335.905 53.2422C335.905 54.6797 335.335 55.793 334.194 56.582C333.053 57.3711 331.448 57.7656 329.378 57.7656C327.862 57.7656 326.675 57.4766 325.815 56.8984C324.956 56.3281 324.526 55.5195 324.526 54.4727C324.526 53.6523 324.807 52.9414 325.37 52.3398C325.932 51.7383 326.842 51.2266 328.1 50.8047C327.491 50.4844 327.186 50.0117 327.186 49.3867C327.186 48.8477 327.385 48.3867 327.784 48.0039C328.182 47.6133 328.737 47.25 329.448 46.9141C328.956 46.6641 328.553 46.2969 328.241 45.8125C327.928 45.3203 327.772 44.75 327.772 44.1016C327.772 42.5859 328.237 41.3438 329.167 40.375C330.104 39.4062 331.3 38.9219 332.753 38.9219C333.362 38.9219 333.964 39 334.557 39.1562H338.905ZM326.425 54.2852C326.425 54.8867 326.678 55.3633 327.186 55.7148C327.694 56.0664 328.448 56.2422 329.448 56.2422C330.87 56.2422 331.979 55.9922 332.776 55.4922C333.581 55 333.983 54.3008 333.983 53.3945C333.983 52.9102 333.772 52.5273 333.35 52.2461C332.928 51.9648 332.21 51.7695 331.194 51.6602L329.331 51.4727C328.393 51.668 327.675 52.0117 327.175 52.5039C326.675 52.9961 326.425 53.5898 326.425 54.2852ZM329.682 44.0312C329.682 44.6953 329.858 45.2031 330.21 45.5547C330.561 45.8984 331.05 46.0703 331.675 46.0703C332.292 46.0703 332.831 45.9062 333.292 45.5781C333.753 45.25 334.104 44.8008 334.346 44.2305C334.596 43.6523 334.721 43.0273 334.721 42.3555C334.721 41.7148 334.55 41.2266 334.206 40.8906C333.862 40.5547 333.37 40.3867 332.729 40.3867C332.12 40.3867 331.585 40.5469 331.124 40.8672C330.671 41.1797 330.315 41.6211 330.057 42.1914C329.807 42.7539 329.682 43.3672 329.682 44.0312ZM341.635 52H339.666L343.556 33.7656H345.525L341.635 52ZM348.712 52H346.743L349.485 39.1562H351.454L348.712 52ZM350.036 35.875C350.036 35.4375 350.161 35.082 350.411 34.8086C350.661 34.5273 350.985 34.3867 351.384 34.3867C352.071 34.3867 352.415 34.7383 352.415 35.4414C352.415 35.8711 352.282 36.2344 352.016 36.5312C351.759 36.8281 351.458 36.9766 351.114 36.9766C350.802 36.9766 350.544 36.8828 350.341 36.6953C350.138 36.5 350.036 36.2266 350.036 35.875ZM361.719 48.3555C361.719 49.5742 361.285 50.5273 360.418 51.2148C359.558 51.8945 358.344 52.2344 356.773 52.2344C355.453 52.2344 354.262 51.9648 353.199 51.4258V49.5742C353.746 49.9023 354.336 50.1562 354.969 50.3359C355.601 50.5156 356.187 50.6055 356.726 50.6055C357.711 50.6055 358.453 50.4102 358.953 50.0195C359.453 49.6289 359.703 49.1289 359.703 48.5195C359.703 48.0742 359.566 47.6992 359.293 47.3945C359.019 47.0898 358.43 46.6719 357.523 46.1406C356.508 45.5703 355.789 45.0117 355.367 44.4648C354.945 43.918 354.734 43.2695 354.734 42.5195C354.734 41.4414 355.129 40.5742 355.918 39.918C356.707 39.2539 357.746 38.9219 359.035 38.9219C360.371 38.9219 361.66 39.2109 362.902 39.7891L362.269 41.3945L361.613 41.1016C360.824 40.7656 359.965 40.5977 359.035 40.5977C358.308 40.5977 357.738 40.7695 357.324 41.1133C356.91 41.4492 356.703 41.8867 356.703 42.4258C356.703 42.8633 356.84 43.2383 357.113 43.5508C357.394 43.8633 357.969 44.2656 358.836 44.7578C359.672 45.2266 360.269 45.6289 360.629 45.9648C360.996 46.3008 361.269 46.6641 361.449 47.0547C361.629 47.4375 361.719 47.8711 361.719 48.3555ZM372.897 52L374.632 43.8906C374.772 43.1562 374.843 42.6289 374.843 42.3086C374.843 41.1523 374.268 40.5742 373.12 40.5742C372.425 40.5742 371.745 40.8047 371.081 41.2656C370.425 41.7266 369.843 42.3984 369.335 43.2812C368.835 44.1562 368.456 45.2148 368.198 46.457L367.015 52H365.046L368.913 33.7656H370.882C370.741 34.4062 370.604 35.0273 370.472 35.6289C370.347 36.2305 370.214 36.8438 370.073 37.4688C369.94 38.0859 369.792 38.7344 369.628 39.4141C369.472 40.0938 369.288 40.832 369.077 41.6289H369.206C369.94 40.668 370.663 39.9805 371.374 39.5664C372.093 39.1523 372.843 38.9453 373.624 38.9453C374.647 38.9453 375.436 39.2266 375.991 39.7891C376.554 40.3516 376.835 41.1484 376.835 42.1797C376.835 42.6641 376.745 43.3125 376.565 44.125C376.261 45.6328 375.694 48.2578 374.866 52H372.897ZM392.747 52.2344C391.989 52.2344 391.325 52.0391 390.755 51.6484C390.185 51.2578 389.743 50.7109 389.431 50.0078H389.313L389.267 50.4531C389.243 50.6484 389.2 50.9219 389.138 51.2734C389.083 51.625 388.638 53.7891 387.802 57.7656H385.856L389.794 39.1562H391.423L391.118 41.6055H391.212C392.61 39.832 394.063 38.9453 395.571 38.9453C396.642 38.9453 397.485 39.3281 398.103 40.0938C398.72 40.8516 399.028 41.918 399.028 43.293C399.028 44.9492 398.759 46.4688 398.22 47.8516C397.681 49.2344 396.935 50.3125 395.981 51.0859C395.028 51.8516 393.95 52.2344 392.747 52.2344ZM394.927 40.5742C394.177 40.5742 393.411 40.9453 392.63 41.6875C391.856 42.4297 391.239 43.3633 390.778 44.4883C390.325 45.6133 390.099 46.7656 390.099 47.9453C390.099 48.8047 390.313 49.4648 390.743 49.9258C391.181 50.3789 391.81 50.6055 392.63 50.6055C393.403 50.6055 394.122 50.2891 394.786 49.6562C395.458 49.0234 395.997 48.125 396.403 46.9609C396.81 45.7891 397.013 44.5469 397.013 43.2344C397.013 41.4609 396.317 40.5742 394.927 40.5742ZM408.66 38.9219C409.379 38.9219 410.02 39.1172 410.582 39.5078C411.145 39.8906 411.582 40.4453 411.895 41.1719H412.023L412.809 39.1562H414.297L411.566 52H410.008L410.312 49.5508H410.219C408.82 51.3398 407.348 52.2344 405.801 52.2344C404.715 52.2344 403.863 51.8477 403.246 51.0742C402.629 50.3008 402.32 49.2422 402.32 47.8984C402.32 46.2734 402.598 44.7656 403.152 43.375C403.707 41.9844 404.473 40.8945 405.449 40.1055C406.426 39.3164 407.496 38.9219 408.66 38.9219ZM406.434 50.6055C407.191 50.6055 407.945 50.2461 408.695 49.5273C409.445 48.8008 410.055 47.8594 410.523 46.7031C410.992 45.5391 411.227 44.375 411.227 43.2109C411.227 42.4062 411.008 41.7656 410.57 41.2891C410.133 40.8125 409.559 40.5742 408.848 40.5742C408.035 40.5742 407.277 40.9102 406.574 41.582C405.879 42.2539 405.332 43.1641 404.934 44.3125C404.535 45.4609 404.336 46.6719 404.336 47.9453C404.336 48.8359 404.52 49.5039 404.887 49.9492C405.254 50.3867 405.77 50.6055 406.434 50.6055ZM428.593 39.1562L428.3 40.4102L425.827 40.6914C426.147 41.1758 426.308 41.793 426.308 42.543C426.308 44.0352 425.851 45.2266 424.937 46.1172C424.03 47 422.815 47.4414 421.292 47.4414C420.862 47.4414 420.534 47.4102 420.308 47.3477C419.222 47.7617 418.679 48.2734 418.679 48.8828C418.679 49.2031 418.808 49.418 419.065 49.5273C419.323 49.6289 419.698 49.7109 420.19 49.7734L421.562 49.9375C422.976 50.1094 423.999 50.4531 424.632 50.9688C425.272 51.4844 425.593 52.2422 425.593 53.2422C425.593 54.6797 425.022 55.793 423.882 56.582C422.741 57.3711 421.136 57.7656 419.065 57.7656C417.55 57.7656 416.362 57.4766 415.503 56.8984C414.644 56.3281 414.214 55.5195 414.214 54.4727C414.214 53.6523 414.495 52.9414 415.058 52.3398C415.62 51.7383 416.53 51.2266 417.788 50.8047C417.179 50.4844 416.874 50.0117 416.874 49.3867C416.874 48.8477 417.073 48.3867 417.472 48.0039C417.87 47.6133 418.425 47.25 419.136 46.9141C418.644 46.6641 418.241 46.2969 417.929 45.8125C417.616 45.3203 417.46 44.75 417.46 44.1016C417.46 42.5859 417.925 41.3438 418.855 40.375C419.792 39.4062 420.987 38.9219 422.44 38.9219C423.05 38.9219 423.651 39 424.245 39.1562H428.593ZM416.112 54.2852C416.112 54.8867 416.366 55.3633 416.874 55.7148C417.382 56.0664 418.136 56.2422 419.136 56.2422C420.558 56.2422 421.667 55.9922 422.464 55.4922C423.269 55 423.671 54.3008 423.671 53.3945C423.671 52.9102 423.46 52.5273 423.038 52.2461C422.616 51.9648 421.897 51.7695 420.882 51.6602L419.019 51.4727C418.081 51.668 417.362 52.0117 416.862 52.5039C416.362 52.9961 416.112 53.5898 416.112 54.2852ZM419.37 44.0312C419.37 44.6953 419.546 45.2031 419.897 45.5547C420.249 45.8984 420.737 46.0703 421.362 46.0703C421.98 46.0703 422.519 45.9062 422.98 45.5781C423.44 45.25 423.792 44.8008 424.034 44.2305C424.284 43.6523 424.409 43.0273 424.409 42.3555C424.409 41.7148 424.237 41.2266 423.894 40.8906C423.55 40.5547 423.058 40.3867 422.417 40.3867C421.808 40.3867 421.272 40.5469 420.812 40.8672C420.358 41.1797 420.003 41.6211 419.745 42.1914C419.495 42.7539 419.37 43.3672 419.37 44.0312ZM434.451 52.2344C433.014 52.2344 431.885 51.8086 431.065 50.957C430.244 50.1055 429.834 48.9258 429.834 47.418C429.834 45.9492 430.123 44.543 430.701 43.1992C431.287 41.8477 432.061 40.7969 433.022 40.0469C433.983 39.2969 435.041 38.9219 436.197 38.9219C437.393 38.9219 438.291 39.1836 438.893 39.707C439.494 40.2227 439.795 40.9453 439.795 41.875C439.795 43.2812 439.147 44.3867 437.85 45.1914C436.553 45.9883 434.697 46.3867 432.283 46.3867H431.897L431.85 47.3242C431.85 48.3477 432.088 49.1484 432.565 49.7266C433.049 50.2969 433.795 50.582 434.803 50.582C435.295 50.582 435.799 50.5117 436.315 50.3711C436.838 50.2305 437.486 49.9727 438.26 49.5977V51.3086C437.525 51.6523 436.877 51.8906 436.315 52.0234C435.752 52.1641 435.131 52.2344 434.451 52.2344ZM436.08 40.5977C435.275 40.5977 434.518 40.9648 433.807 41.6992C433.104 42.4336 432.565 43.4531 432.19 44.7578H432.33C434.111 44.7578 435.475 44.5273 436.42 44.0664C437.373 43.5977 437.85 42.9219 437.85 42.0391C437.85 41.625 437.705 41.2812 437.416 41.0078C437.135 40.7344 436.69 40.5977 436.08 40.5977ZM458.414 52L458.039 44.9453C458.008 44.2109 457.992 43.5391 457.992 42.9297V41.1016H457.887L457.301 42.4844L456.328 44.6992L452.918 52H450.551L450.047 39.1562H451.969L452.18 46.1172V47.1484C452.18 48.2969 452.149 49.3477 452.086 50.3008H452.156C452.524 49.332 453.059 48.0742 453.762 46.5273L457.219 39.1562H459.352L459.785 46.1172C459.832 47.4297 459.856 48.4531 459.856 49.1875V49.8086L459.832 50.3008H459.902C460.121 49.6289 460.445 48.7773 460.875 47.7461C461.305 46.707 462.567 43.8438 464.66 39.1562H466.746L460.817 52H458.414ZM475.382 52L477.116 43.8906C477.257 43.1562 477.327 42.6289 477.327 42.3086C477.327 41.1523 476.753 40.5742 475.605 40.5742C474.909 40.5742 474.23 40.8047 473.566 41.2656C472.909 41.7266 472.327 42.3984 471.82 43.2812C471.32 44.1562 470.941 45.2148 470.683 46.457L469.499 52H467.53L471.398 33.7656H473.366C473.226 34.4062 473.089 35.0273 472.956 35.6289C472.831 36.2305 472.698 36.8438 472.558 37.4688C472.425 38.0859 472.277 38.7344 472.112 39.4141C471.956 40.0938 471.773 40.832 471.562 41.6289H471.691C472.425 40.668 473.148 39.9805 473.859 39.5664C474.577 39.1523 475.327 38.9453 476.109 38.9453C477.132 38.9453 477.921 39.2266 478.476 39.7891C479.038 40.3516 479.32 41.1484 479.32 42.1797C479.32 42.6641 479.23 43.3125 479.05 44.125C478.745 45.6328 478.179 48.2578 477.351 52H475.382ZM487.416 52.2344C485.979 52.2344 484.85 51.8086 484.03 50.957C483.209 50.1055 482.799 48.9258 482.799 47.418C482.799 45.9492 483.088 44.543 483.666 43.1992C484.252 41.8477 485.026 40.7969 485.987 40.0469C486.948 39.2969 488.006 38.9219 489.162 38.9219C490.358 38.9219 491.256 39.1836 491.858 39.707C492.459 40.2227 492.76 40.9453 492.76 41.875C492.76 43.2812 492.112 44.3867 490.815 45.1914C489.518 45.9883 487.662 46.3867 485.248 46.3867H484.862L484.815 47.3242C484.815 48.3477 485.053 49.1484 485.53 49.7266C486.014 50.2969 486.76 50.582 487.768 50.582C488.26 50.582 488.764 50.5117 489.28 50.3711C489.803 50.2305 490.451 49.9727 491.225 49.5977V51.3086C490.49 51.6523 489.842 51.8906 489.28 52.0234C488.717 52.1641 488.096 52.2344 487.416 52.2344ZM489.045 40.5977C488.24 40.5977 487.483 40.9648 486.772 41.6992C486.069 42.4336 485.53 43.4531 485.155 44.7578H485.295C487.076 44.7578 488.44 44.5273 489.385 44.0664C490.338 43.5977 490.815 42.9219 490.815 42.0391C490.815 41.625 490.67 41.2812 490.381 41.0078C490.1 40.7344 489.655 40.5977 489.045 40.5977ZM502.99 52L504.724 43.8906C504.88 43.0781 504.958 42.5156 504.958 42.2031C504.958 41.7109 504.818 41.3164 504.536 41.0195C504.263 40.7227 503.822 40.5742 503.212 40.5742C502.517 40.5742 501.837 40.8086 501.173 41.2773C500.517 41.7461 499.935 42.4141 499.427 43.2812C498.927 44.1484 498.548 45.1992 498.29 46.4336L497.107 52H495.138L497.88 39.1562H499.509L499.251 41.5352H499.368C500.118 40.582 500.841 39.9102 501.536 39.5195C502.24 39.1211 502.966 38.9219 503.716 38.9219C504.708 38.9219 505.49 39.1953 506.06 39.7422C506.638 40.2812 506.927 41.0391 506.927 42.0156C506.927 42.6328 506.837 43.3359 506.657 44.125L504.982 52H502.99ZM517.46 52L521.105 34.8672H523.074L519.429 52H517.46ZM537.099 52.2344C535.583 52.2344 534.408 51.8164 533.572 50.9805C532.736 50.1445 532.318 48.9648 532.318 47.4414C532.318 45.8789 532.607 44.4375 533.185 43.1172C533.763 41.7969 534.56 40.7695 535.576 40.0352C536.599 39.293 537.747 38.9219 539.021 38.9219C540.091 38.9219 541.138 39.1211 542.162 39.5195L541.611 41.1719C540.673 40.7734 539.818 40.5742 539.044 40.5742C538.169 40.5742 537.369 40.875 536.642 41.4766C535.923 42.0703 535.357 42.9023 534.943 43.9727C534.537 45.0352 534.333 46.1914 534.333 47.4414C534.333 48.4414 534.591 49.2188 535.107 49.7734C535.63 50.3281 536.349 50.6055 537.263 50.6055C537.826 50.6055 538.357 50.5273 538.857 50.3711C539.357 50.2148 539.849 50.0312 540.333 49.8203V51.4961C539.365 51.9883 538.287 52.2344 537.099 52.2344ZM545.571 52H543.602L547.493 33.7656H549.461L545.571 52ZM552.648 52H550.679L553.421 39.1562H555.39L552.648 52ZM553.972 35.875C553.972 35.4375 554.097 35.082 554.347 34.8086C554.597 34.5273 554.921 34.3867 555.32 34.3867C556.007 34.3867 556.351 34.7383 556.351 35.4414C556.351 35.8711 556.218 36.2344 555.953 36.5312C555.695 36.8281 555.394 36.9766 555.05 36.9766C554.738 36.9766 554.48 36.8828 554.277 36.6953C554.074 36.5 553.972 36.2266 553.972 35.875ZM562.971 52.2344C561.456 52.2344 560.28 51.8164 559.444 50.9805C558.608 50.1445 558.19 48.9648 558.19 47.4414C558.19 45.8789 558.479 44.4375 559.057 43.1172C559.635 41.7969 560.432 40.7695 561.448 40.0352C562.471 39.293 563.62 38.9219 564.893 38.9219C565.963 38.9219 567.01 39.1211 568.034 39.5195L567.483 41.1719C566.545 40.7734 565.69 40.5742 564.917 40.5742C564.042 40.5742 563.241 40.875 562.514 41.4766C561.795 42.0703 561.229 42.9023 560.815 43.9727C560.409 45.0352 560.206 46.1914 560.206 47.4414C560.206 48.4414 560.463 49.2188 560.979 49.7734C561.503 50.3281 562.221 50.6055 563.135 50.6055C563.698 50.6055 564.229 50.5273 564.729 50.3711C565.229 50.2148 565.721 50.0312 566.206 49.8203V51.4961C565.237 51.9883 564.159 52.2344 562.971 52.2344ZM572.673 45.4492L578.838 39.1562H581.193L575.697 44.6289L579.154 52H576.963L574.209 45.8594L572.427 47.3008L571.466 52H569.474L573.341 33.7656H575.334C574.771 36.3906 574.267 38.7422 573.822 40.8203C573.377 42.8984 572.978 44.4414 572.627 45.4492H572.673ZM596.214 38.9922C597.699 38.9922 598.871 39.4336 599.73 40.3164C600.589 41.1914 601.019 42.3984 601.019 43.9375C601.019 45.4062 600.738 46.793 600.175 48.0977C599.613 49.4023 598.851 50.4102 597.89 51.1211C596.929 51.832 595.843 52.1875 594.632 52.1875C593.132 52.1875 591.957 51.7461 591.105 50.8633C590.254 49.9805 589.828 48.7734 589.828 47.2422C589.828 45.7578 590.113 44.3633 590.683 43.0586C591.254 41.7461 592.023 40.7422 592.992 40.0469C593.961 39.3438 595.035 38.9922 596.214 38.9922ZM598.98 43.668C598.98 42.7695 598.734 42.043 598.242 41.4883C597.757 40.9258 597.097 40.6445 596.261 40.6445C595.41 40.6445 594.644 40.9336 593.964 41.5117C593.293 42.0898 592.769 42.8945 592.394 43.9258C592.027 44.9492 591.843 46.0898 591.843 47.3477C591.843 48.3711 592.089 49.1641 592.582 49.7266C593.082 50.2812 593.797 50.5586 594.726 50.5586C595.539 50.5586 596.269 50.2734 596.918 49.7031C597.566 49.1328 598.07 48.3242 598.429 47.2773C598.797 46.2227 598.98 45.0195 598.98 43.668ZM611.659 52L613.393 43.8906C613.55 43.0781 613.628 42.5156 613.628 42.2031C613.628 41.7109 613.487 41.3164 613.206 41.0195C612.932 40.7227 612.491 40.5742 611.882 40.5742C611.186 40.5742 610.507 40.8086 609.843 41.2773C609.186 41.7461 608.604 42.4141 608.096 43.2812C607.596 44.1484 607.218 45.1992 606.96 46.4336L605.776 52H603.807L606.55 39.1562H608.178L607.921 41.5352H608.038C608.788 40.582 609.51 39.9102 610.206 39.5195C610.909 39.1211 611.635 38.9219 612.385 38.9219C613.378 38.9219 614.159 39.1953 614.729 39.7422C615.307 40.2812 615.596 41.0391 615.596 42.0156C615.596 42.6328 615.507 43.3359 615.327 44.125L613.651 52H611.659ZM632.61 38.9219C633.329 38.9219 633.969 39.1172 634.532 39.5078C635.094 39.8906 635.532 40.4453 635.844 41.1719H635.973L636.759 39.1562H638.247L635.516 52H633.958L634.262 49.5508H634.169C632.77 51.3398 631.298 52.2344 629.751 52.2344C628.665 52.2344 627.813 51.8477 627.196 51.0742C626.579 50.3008 626.27 49.2422 626.27 47.8984C626.27 46.2734 626.548 44.7656 627.102 43.375C627.657 41.9844 628.423 40.8945 629.399 40.1055C630.376 39.3164 631.446 38.9219 632.61 38.9219ZM630.384 50.6055C631.141 50.6055 631.895 50.2461 632.645 49.5273C633.395 48.8008 634.005 47.8594 634.473 46.7031C634.942 45.5391 635.177 44.375 635.177 43.2109C635.177 42.4062 634.958 41.7656 634.52 41.2891C634.083 40.8125 633.509 40.5742 632.798 40.5742C631.985 40.5742 631.227 40.9102 630.524 41.582C629.829 42.2539 629.282 43.1641 628.884 44.3125C628.485 45.4609 628.286 46.6719 628.286 47.9453C628.286 48.8359 628.469 49.5039 628.837 49.9492C629.204 50.3867 629.719 50.6055 630.384 50.6055ZM648.195 52L649.93 43.8906C650.086 43.0781 650.164 42.5156 650.164 42.2031C650.164 41.7109 650.023 41.3164 649.742 41.0195C649.469 40.7227 649.027 40.5742 648.418 40.5742C647.723 40.5742 647.043 40.8086 646.379 41.2773C645.723 41.7461 645.141 42.4141 644.633 43.2812C644.133 44.1484 643.754 45.1992 643.496 46.4336L642.312 52H640.344L643.086 39.1562H644.715L644.457 41.5352H644.574C645.324 40.582 646.047 39.9102 646.742 39.5195C647.445 39.1211 648.172 38.9219 648.922 38.9219C649.914 38.9219 650.695 39.1953 651.266 39.7422C651.844 40.2812 652.133 41.0391 652.133 42.0156C652.133 42.6328 652.043 43.3359 651.863 44.125L650.187 52H648.195ZM655.612 39.1562H657.581L658.448 45.543C658.526 46.082 658.6 46.8789 658.671 47.9336C658.749 48.9805 658.788 49.8242 658.788 50.4648H658.858C659.132 49.7852 659.472 49.0039 659.878 48.1211C660.284 47.2383 660.585 46.6289 660.78 46.293L664.589 39.1562H666.675L658.518 54.1797C657.792 55.5234 657.073 56.457 656.362 56.9805C655.651 57.5039 654.796 57.7656 653.796 57.7656C653.233 57.7656 652.686 57.6836 652.155 57.5195V55.9375C652.647 56.0781 653.159 56.1484 653.69 56.1484C654.331 56.1484 654.878 55.9492 655.331 55.5508C655.792 55.1602 656.237 54.5781 656.667 53.8047L657.557 52.2109L655.612 39.1562ZM671.139 50.6289C671.568 50.6289 672.131 50.5273 672.826 50.3242V51.8359C672.56 51.9453 672.232 52.0391 671.842 52.1172C671.451 52.1953 671.139 52.2344 670.904 52.2344C669.928 52.2344 669.178 52.0039 668.654 51.543C668.139 51.0742 667.881 50.3789 667.881 49.457C667.881 48.9414 667.951 48.3555 668.092 47.6992L669.58 40.6445H667.564L667.728 39.7891L669.896 38.875L671.361 36.2031H672.51L671.865 39.1562H675.076L674.771 40.6445H671.572L670.06 47.7227C669.92 48.4023 669.849 48.918 669.849 49.2695C669.849 49.707 669.963 50.043 670.189 50.2773C670.416 50.5117 670.732 50.6289 671.139 50.6289ZM683.794 52L685.528 43.8906C685.669 43.1562 685.739 42.6289 685.739 42.3086C685.739 41.1523 685.165 40.5742 684.017 40.5742C683.321 40.5742 682.642 40.8047 681.978 41.2656C681.321 41.7266 680.739 42.3984 680.231 43.2812C679.731 44.1562 679.353 45.2148 679.095 46.457L677.911 52H675.942L679.81 33.7656H681.778C681.638 34.4062 681.501 35.0273 681.368 35.6289C681.243 36.2305 681.11 36.8438 680.97 37.4688C680.837 38.0859 680.688 38.7344 680.524 39.4141C680.368 40.0938 680.185 40.832 679.974 41.6289H680.103C680.837 40.668 681.56 39.9805 682.271 39.5664C682.989 39.1523 683.739 38.9453 684.521 38.9453C685.544 38.9453 686.333 39.2266 686.888 39.7891C687.45 40.3516 687.731 41.1484 687.731 42.1797C687.731 42.6641 687.642 43.3125 687.462 44.125C687.157 45.6328 686.591 48.2578 685.763 52H683.794ZM692.723 52H690.754L693.496 39.1562H695.465L692.723 52ZM694.047 35.875C694.047 35.4375 694.172 35.082 694.422 34.8086C694.672 34.5273 694.996 34.3867 695.395 34.3867C696.082 34.3867 696.426 34.7383 696.426 35.4414C696.426 35.8711 696.293 36.2344 696.027 36.5312C695.77 36.8281 695.469 36.9766 695.125 36.9766C694.812 36.9766 694.555 36.8828 694.352 36.6953C694.148 36.5 694.047 36.2266 694.047 35.875ZM705.659 52L707.394 43.8906C707.55 43.0781 707.628 42.5156 707.628 42.2031C707.628 41.7109 707.487 41.3164 707.206 41.0195C706.933 40.7227 706.491 40.5742 705.882 40.5742C705.187 40.5742 704.507 40.8086 703.843 41.2773C703.187 41.7461 702.604 42.4141 702.097 43.2812C701.597 44.1484 701.218 45.1992 700.96 46.4336L699.776 52H697.808L700.55 39.1562H702.179L701.921 41.5352H702.038C702.788 40.582 703.511 39.9102 704.206 39.5195C704.909 39.1211 705.636 38.9219 706.386 38.9219C707.378 38.9219 708.159 39.1953 708.729 39.7422C709.308 40.2812 709.597 41.0391 709.597 42.0156C709.597 42.6328 709.507 43.3359 709.327 44.125L707.651 52H705.659ZM724.818 39.1562L724.526 40.4102L722.053 40.6914C722.373 41.1758 722.533 41.793 722.533 42.543C722.533 44.0352 722.076 45.2266 721.162 46.1172C720.256 47 719.041 47.4414 717.518 47.4414C717.088 47.4414 716.76 47.4102 716.533 47.3477C715.447 47.7617 714.904 48.2734 714.904 48.8828C714.904 49.2031 715.033 49.418 715.291 49.5273C715.549 49.6289 715.924 49.7109 716.416 49.7734L717.787 49.9375C719.201 50.1094 720.225 50.4531 720.858 50.9688C721.498 51.4844 721.818 52.2422 721.818 53.2422C721.818 54.6797 721.248 55.793 720.108 56.582C718.967 57.3711 717.361 57.7656 715.291 57.7656C713.776 57.7656 712.588 57.4766 711.729 56.8984C710.869 56.3281 710.44 55.5195 710.44 54.4727C710.44 53.6523 710.721 52.9414 711.283 52.3398C711.846 51.7383 712.756 51.2266 714.014 50.8047C713.404 50.4844 713.1 50.0117 713.1 49.3867C713.1 48.8477 713.299 48.3867 713.697 48.0039C714.096 47.6133 714.651 47.25 715.361 46.9141C714.869 46.6641 714.467 46.2969 714.154 45.8125C713.842 45.3203 713.686 44.75 713.686 44.1016C713.686 42.5859 714.151 41.3438 715.08 40.375C716.018 39.4062 717.213 38.9219 718.666 38.9219C719.276 38.9219 719.877 39 720.471 39.1562H724.818ZM712.338 54.2852C712.338 54.8867 712.592 55.3633 713.1 55.7148C713.608 56.0664 714.361 56.2422 715.361 56.2422C716.783 56.2422 717.893 55.9922 718.69 55.4922C719.494 55 719.897 54.3008 719.897 53.3945C719.897 52.9102 719.686 52.5273 719.264 52.2461C718.842 51.9648 718.123 51.7695 717.108 51.6602L715.244 51.4727C714.307 51.668 713.588 52.0117 713.088 52.5039C712.588 52.9961 712.338 53.5898 712.338 54.2852ZM715.596 44.0312C715.596 44.6953 715.772 45.2031 716.123 45.5547C716.475 45.8984 716.963 46.0703 717.588 46.0703C718.205 46.0703 718.744 45.9062 719.205 45.5781C719.666 45.25 720.018 44.8008 720.26 44.2305C720.51 43.6523 720.635 43.0273 720.635 42.3555C720.635 41.7148 720.463 41.2266 720.119 40.8906C719.776 40.5547 719.283 40.3867 718.643 40.3867C718.033 40.3867 717.498 40.5469 717.037 40.8672C716.584 41.1797 716.229 41.6211 715.971 42.1914C715.721 42.7539 715.596 43.3672 715.596 44.0312ZM730.958 34.8672L731.052 35.125C730.739 35.8359 730.306 36.6914 729.751 37.6914C729.196 38.6836 728.575 39.6992 727.888 40.7383H726.376C727.423 38.4102 728.216 36.4531 728.755 34.8672H730.958ZM735.282 34.8672L735.4 35.125C734.665 36.7344 733.595 38.6055 732.189 40.7383H730.7C731.146 39.7539 731.595 38.6914 732.048 37.5508C732.509 36.4023 732.849 35.5078 733.068 34.8672H735.282Z" fill="black"/>
</svg>
