<svg width="298" height="337" viewBox="0 0 298 337" fill="none" xmlns="http://www.w3.org/2000/svg">
<path d="M81.1947 223V205.867H84.8275V223H81.1947ZM104.315 214.27C104.315 217.09 103.51 219.25 101.901 220.75C100.299 222.25 97.9828 223 94.9516 223H90.1V205.867H95.4789C98.2758 205.867 100.448 206.605 101.995 208.082C103.541 209.559 104.315 211.621 104.315 214.27ZM100.541 214.363C100.541 210.684 98.9164 208.844 95.6664 208.844H93.7328V220H95.2914C98.7914 220 100.541 218.121 100.541 214.363ZM118.693 223H108.826V205.867H118.693V208.844H112.458V212.605H118.259V215.582H112.458V220H118.693V223ZM133.727 223L132.485 218.922H126.239L124.997 223H121.083L127.129 205.797H131.571L137.641 223H133.727ZM131.618 215.875C130.469 212.18 129.821 210.09 129.672 209.605C129.532 209.121 129.43 208.738 129.368 208.457C129.11 209.457 128.372 211.93 127.153 215.875H131.618ZM147.378 223H143.746V208.891H139.093V205.867H152.031V208.891H147.378V223ZM155.628 223V205.867H159.26V223H155.628ZM180.084 214.41C180.084 217.246 179.38 219.426 177.974 220.949C176.568 222.473 174.552 223.234 171.927 223.234C169.302 223.234 167.287 222.473 165.88 220.949C164.474 219.426 163.771 217.238 163.771 214.387C163.771 211.535 164.474 209.359 165.88 207.859C167.295 206.352 169.318 205.598 171.951 205.598C174.584 205.598 176.595 206.355 177.986 207.871C179.384 209.387 180.084 211.566 180.084 214.41ZM167.58 214.41C167.58 216.324 167.943 217.766 168.67 218.734C169.396 219.703 170.482 220.188 171.927 220.188C174.826 220.188 176.275 218.262 176.275 214.41C176.275 210.551 174.834 208.621 171.951 208.621C170.505 208.621 169.416 209.109 168.681 210.086C167.947 211.055 167.58 212.496 167.58 214.41ZM199.794 223H195.176L187.723 210.039H187.618C187.766 212.328 187.84 213.961 187.84 214.938V223H184.594V205.867H189.176L196.618 218.699H196.7C196.583 216.473 196.524 214.898 196.524 213.977V205.867H199.794V223Z" fill="#3D5A80"/>
<path d="M26.877 252H25.3829V240.478H21.3136V239.15H30.9464V240.478H26.877V252ZM41.7035 247.175C41.7035 248.745 41.308 249.973 40.517 250.857C39.7259 251.736 38.6332 252.176 37.2386 252.176C36.3773 252.176 35.6127 251.974 34.9447 251.569C34.2767 251.165 33.7611 250.585 33.3978 249.829C33.0345 249.073 32.8529 248.188 32.8529 247.175C32.8529 245.604 33.2455 244.383 34.0306 243.51C34.8158 242.631 35.9056 242.191 37.3002 242.191C38.6478 242.191 39.7171 242.64 40.5082 243.536C41.305 244.433 41.7035 245.646 41.7035 247.175ZM34.3646 247.175C34.3646 248.405 34.6107 249.343 35.1029 249.987C35.5951 250.632 36.3187 250.954 37.2738 250.954C38.2289 250.954 38.9525 250.635 39.4447 249.996C39.9427 249.352 40.1918 248.411 40.1918 247.175C40.1918 245.95 39.9427 245.021 39.4447 244.389C38.9525 243.75 38.223 243.431 37.2562 243.431C36.3011 243.431 35.5804 243.744 35.0941 244.371C34.6078 244.998 34.3646 245.933 34.3646 247.175ZM58.2695 242.367V243.29L56.4853 243.501C56.6493 243.706 56.7958 243.976 56.9247 244.31C57.0536 244.638 57.1181 245.01 57.1181 245.426C57.1181 246.369 56.7958 247.122 56.1513 247.685C55.5068 248.247 54.622 248.528 53.497 248.528C53.2099 248.528 52.9403 248.505 52.6884 248.458C52.0673 248.786 51.7568 249.199 51.7568 249.697C51.7568 249.961 51.8652 250.157 52.082 250.286C52.2987 250.409 52.6708 250.471 53.1982 250.471H54.9032C55.9462 250.471 56.746 250.69 57.3027 251.13C57.8652 251.569 58.1464 252.208 58.1464 253.046C58.1464 254.112 57.7187 254.924 56.8632 255.48C56.0077 256.043 54.7597 256.324 53.1191 256.324C51.8593 256.324 50.8866 256.09 50.2011 255.621C49.5214 255.152 49.1816 254.49 49.1816 253.635C49.1816 253.049 49.3691 252.542 49.7441 252.114C50.1191 251.687 50.6464 251.396 51.3261 251.244C51.08 251.133 50.872 250.96 50.7021 250.726C50.538 250.491 50.456 250.219 50.456 249.908C50.456 249.557 50.5497 249.249 50.7372 248.985C50.9247 248.722 51.2206 248.467 51.6249 248.221C51.1269 248.016 50.7196 247.667 50.4032 247.175C50.0927 246.683 49.9374 246.12 49.9374 245.487C49.9374 244.433 50.2538 243.621 50.8866 243.053C51.5195 242.479 52.4159 242.191 53.5761 242.191C54.08 242.191 54.5341 242.25 54.9384 242.367H58.2695ZM50.5878 253.617C50.5878 254.139 50.8075 254.534 51.247 254.804C51.6864 255.073 52.3163 255.208 53.1366 255.208C54.3612 255.208 55.2665 255.023 55.8525 254.654C56.4443 254.291 56.7402 253.796 56.7402 253.169C56.7402 252.647 56.579 252.284 56.2568 252.079C55.9345 251.88 55.328 251.78 54.4374 251.78H52.6884C52.0263 251.78 51.5107 251.938 51.1415 252.255C50.7724 252.571 50.5878 253.025 50.5878 253.617ZM51.3788 245.452C51.3788 246.126 51.5693 246.636 51.9501 246.981C52.331 247.327 52.8612 247.5 53.5409 247.5C54.9648 247.5 55.6767 246.809 55.6767 245.426C55.6767 243.979 54.956 243.255 53.5146 243.255C52.829 243.255 52.3017 243.439 51.9325 243.809C51.5634 244.178 51.3788 244.726 51.3788 245.452ZM66.8908 252L66.6008 250.629H66.5305C66.05 251.232 65.5695 251.643 65.0891 251.859C64.6145 252.07 64.0197 252.176 63.3049 252.176C62.3498 252.176 61.5998 251.93 61.0549 251.438C60.5158 250.945 60.2463 250.245 60.2463 249.337C60.2463 247.392 61.802 246.372 64.9133 246.278L66.548 246.226V245.628C66.548 244.872 66.384 244.315 66.0559 243.958C65.7336 243.595 65.215 243.413 64.5002 243.413C63.6975 243.413 62.7893 243.659 61.7756 244.151L61.3273 243.035C61.802 242.777 62.3205 242.575 62.883 242.429C63.4514 242.282 64.0197 242.209 64.5881 242.209C65.7365 242.209 66.5861 242.464 67.1369 242.974C67.6936 243.483 67.9719 244.301 67.9719 245.426V252H66.8908ZM63.5949 250.972C64.5031 250.972 65.215 250.723 65.7307 250.225C66.2521 249.727 66.5129 249.029 66.5129 248.133V247.263L65.0539 247.324C63.8937 247.365 63.0559 247.547 62.5402 247.869C62.0305 248.186 61.7756 248.681 61.7756 249.354C61.7756 249.882 61.9338 250.283 62.2502 250.559C62.5725 250.834 63.0207 250.972 63.5949 250.972ZM74.8178 250.972C75.0757 250.972 75.3247 250.954 75.5649 250.919C75.8052 250.878 75.9956 250.837 76.1362 250.796V251.912C75.978 251.988 75.7436 252.05 75.4331 252.097C75.1284 252.149 74.853 252.176 74.6069 252.176C72.7436 252.176 71.812 251.194 71.812 249.231V243.501H70.4321V242.798L71.812 242.191L72.4272 240.135H73.271V242.367H76.0659V243.501H73.271V249.17C73.271 249.75 73.4087 250.195 73.6841 250.506C73.9594 250.816 74.3374 250.972 74.8178 250.972ZM85.3816 252V245.769C85.3816 244.983 85.2029 244.397 84.8455 244.011C84.488 243.624 83.9285 243.431 83.1668 243.431C82.1531 243.431 81.4119 243.706 80.9431 244.257C80.4802 244.808 80.2488 245.71 80.2488 246.964V252H78.7898V238.324H80.2488V242.464C80.2488 242.962 80.2253 243.375 80.1785 243.703H80.2664C80.5535 243.24 80.9607 242.877 81.488 242.613C82.0212 242.344 82.6277 242.209 83.3074 242.209C84.4851 242.209 85.367 242.49 85.9529 243.053C86.5447 243.609 86.8406 244.497 86.8406 245.716V252H85.3816ZM94.6358 252.176C93.212 252.176 92.087 251.742 91.2608 250.875C90.4405 250.008 90.0303 248.804 90.0303 247.263C90.0303 245.71 90.4112 244.477 91.1729 243.562C91.9405 242.648 92.9688 242.191 94.2579 242.191C95.4649 242.191 96.42 242.59 97.1231 243.387C97.8262 244.178 98.1778 245.224 98.1778 246.524V247.447H91.542C91.5713 248.578 91.8555 249.437 92.3946 250.022C92.9395 250.608 93.7041 250.901 94.6885 250.901C95.7256 250.901 96.751 250.685 97.7647 250.251V251.552C97.2491 251.774 96.7598 251.933 96.2969 252.026C95.8399 252.126 95.2862 252.176 94.6358 252.176ZM94.2403 243.413C93.4668 243.413 92.8487 243.665 92.3858 244.169C91.9287 244.673 91.6592 245.37 91.5772 246.261H96.6133C96.6133 245.341 96.4082 244.638 95.9981 244.151C95.5879 243.659 95.002 243.413 94.2403 243.413ZM105.788 242.191C106.216 242.191 106.6 242.227 106.94 242.297L106.738 243.65C106.339 243.562 105.988 243.519 105.683 243.519C104.904 243.519 104.236 243.835 103.679 244.468C103.128 245.101 102.853 245.889 102.853 246.832V252H101.394V242.367H102.598L102.765 244.151H102.835C103.193 243.524 103.623 243.041 104.127 242.701C104.631 242.361 105.185 242.191 105.788 242.191ZM119.34 252.176C118.713 252.176 118.139 252.062 117.617 251.833C117.101 251.599 116.668 251.241 116.316 250.761H116.211C116.281 251.323 116.316 251.856 116.316 252.36V256.324H114.857V242.367H116.044L116.246 243.686H116.316C116.691 243.158 117.128 242.777 117.626 242.543C118.124 242.309 118.695 242.191 119.34 242.191C120.617 242.191 121.601 242.628 122.293 243.501C122.99 244.374 123.339 245.599 123.339 247.175C123.339 248.757 122.984 249.987 122.275 250.866C121.572 251.739 120.594 252.176 119.34 252.176ZM119.129 243.431C118.144 243.431 117.432 243.703 116.993 244.248C116.554 244.793 116.328 245.66 116.316 246.85V247.175C116.316 248.528 116.542 249.498 116.993 250.084C117.444 250.664 118.168 250.954 119.164 250.954C119.996 250.954 120.646 250.617 121.115 249.943C121.59 249.27 121.827 248.341 121.827 247.157C121.827 245.956 121.59 245.036 121.115 244.397C120.646 243.753 119.984 243.431 119.129 243.431ZM134.931 247.175C134.931 248.745 134.535 249.973 133.744 250.857C132.953 251.736 131.861 252.176 130.466 252.176C129.605 252.176 128.84 251.974 128.172 251.569C127.504 251.165 126.988 250.585 126.625 249.829C126.262 249.073 126.08 248.188 126.08 247.175C126.08 245.604 126.473 244.383 127.258 243.51C128.043 242.631 129.133 242.191 130.527 242.191C131.875 242.191 132.944 242.64 133.736 243.536C134.532 244.433 134.931 245.646 134.931 247.175ZM127.592 247.175C127.592 248.405 127.838 249.343 128.33 249.987C128.822 250.632 129.546 250.954 130.501 250.954C131.456 250.954 132.18 250.635 132.672 249.996C133.17 249.352 133.419 248.411 133.419 247.175C133.419 245.95 133.17 245.021 132.672 244.389C132.18 243.75 131.45 243.431 130.484 243.431C129.528 243.431 128.808 243.744 128.321 244.371C127.835 244.998 127.592 245.933 127.592 247.175ZM144.431 249.372C144.431 250.269 144.097 250.96 143.429 251.446C142.761 251.933 141.824 252.176 140.617 252.176C139.339 252.176 138.343 251.974 137.628 251.569V250.216C138.091 250.45 138.586 250.635 139.114 250.77C139.647 250.904 140.16 250.972 140.652 250.972C141.414 250.972 141.999 250.852 142.41 250.611C142.82 250.365 143.025 249.993 143.025 249.495C143.025 249.12 142.861 248.801 142.533 248.537C142.21 248.268 141.578 247.951 140.634 247.588C139.738 247.254 139.099 246.964 138.718 246.718C138.343 246.466 138.062 246.182 137.874 245.865C137.693 245.549 137.602 245.171 137.602 244.731C137.602 243.946 137.921 243.328 138.56 242.877C139.199 242.42 140.075 242.191 141.188 242.191C142.225 242.191 143.239 242.402 144.229 242.824L143.71 244.011C142.744 243.612 141.868 243.413 141.082 243.413C140.391 243.413 139.87 243.521 139.518 243.738C139.166 243.955 138.991 244.254 138.991 244.635C138.991 244.893 139.055 245.112 139.184 245.294C139.319 245.476 139.533 245.648 139.826 245.812C140.119 245.977 140.681 246.214 141.513 246.524C142.656 246.94 143.426 247.359 143.825 247.781C144.229 248.203 144.431 248.733 144.431 249.372ZM153.747 249.372C153.747 250.269 153.413 250.96 152.745 251.446C152.077 251.933 151.139 252.176 149.932 252.176C148.655 252.176 147.659 251.974 146.944 251.569V250.216C147.407 250.45 147.902 250.635 148.429 250.77C148.963 250.904 149.475 250.972 149.967 250.972C150.729 250.972 151.315 250.852 151.725 250.611C152.135 250.365 152.341 249.993 152.341 249.495C152.341 249.12 152.176 248.801 151.848 248.537C151.526 248.268 150.893 247.951 149.95 247.588C149.053 247.254 148.415 246.964 148.034 246.718C147.659 246.466 147.378 246.182 147.19 245.865C147.009 245.549 146.918 245.171 146.918 244.731C146.918 243.946 147.237 243.328 147.876 242.877C148.514 242.42 149.39 242.191 150.504 242.191C151.541 242.191 152.554 242.402 153.545 242.824L153.026 244.011C152.059 243.612 151.183 243.413 150.398 243.413C149.707 243.413 149.185 243.521 148.834 243.738C148.482 243.955 148.306 244.254 148.306 244.635C148.306 244.893 148.371 245.112 148.5 245.294C148.634 245.476 148.848 245.648 149.141 245.812C149.434 245.977 149.997 246.214 150.829 246.524C151.971 246.94 152.742 247.359 153.14 247.781C153.545 248.203 153.747 248.733 153.747 249.372ZM158.308 252H156.849V242.367H158.308V252ZM156.726 239.757C156.726 239.423 156.808 239.18 156.972 239.027C157.136 238.869 157.341 238.79 157.587 238.79C157.821 238.79 158.023 238.869 158.193 239.027C158.363 239.186 158.448 239.429 158.448 239.757C158.448 240.085 158.363 240.331 158.193 240.495C158.023 240.653 157.821 240.732 157.587 240.732C157.341 240.732 157.136 240.653 156.972 240.495C156.808 240.331 156.726 240.085 156.726 239.757ZM166.604 242.209C167.869 242.209 168.851 242.643 169.548 243.51C170.251 244.371 170.603 245.593 170.603 247.175C170.603 248.757 170.248 249.987 169.539 250.866C168.836 251.739 167.858 252.176 166.604 252.176C165.977 252.176 165.403 252.062 164.881 251.833C164.366 251.599 163.932 251.241 163.58 250.761H163.475L163.167 252H162.121V238.324H163.58V241.646C163.58 242.391 163.557 243.059 163.51 243.65H163.58C164.26 242.689 165.268 242.209 166.604 242.209ZM166.393 243.431C165.397 243.431 164.679 243.718 164.24 244.292C163.8 244.86 163.58 245.821 163.58 247.175C163.58 248.528 163.806 249.498 164.257 250.084C164.708 250.664 165.432 250.954 166.428 250.954C167.324 250.954 167.992 250.629 168.432 249.979C168.871 249.322 169.091 248.382 169.091 247.157C169.091 245.903 168.871 244.969 168.432 244.354C167.992 243.738 167.313 243.431 166.393 243.431ZM175.339 252H173.88V238.324H175.339V252ZM183.223 252.176C181.799 252.176 180.674 251.742 179.848 250.875C179.027 250.008 178.617 248.804 178.617 247.263C178.617 245.71 178.998 244.477 179.76 243.562C180.527 242.648 181.556 242.191 182.845 242.191C184.052 242.191 185.007 242.59 185.71 243.387C186.413 244.178 186.764 245.224 186.764 246.524V247.447H180.129C180.158 248.578 180.442 249.437 180.981 250.022C181.526 250.608 182.291 250.901 183.275 250.901C184.312 250.901 185.338 250.685 186.351 250.251V251.552C185.836 251.774 185.347 251.933 184.884 252.026C184.427 252.126 183.873 252.176 183.223 252.176ZM182.827 243.413C182.054 243.413 181.435 243.665 180.973 244.169C180.515 244.673 180.246 245.37 180.164 246.261H185.2C185.2 245.341 184.995 244.638 184.585 244.151C184.175 243.659 183.589 243.413 182.827 243.413ZM201.59 249.372C201.59 250.269 201.256 250.96 200.588 251.446C199.92 251.933 198.983 252.176 197.776 252.176C196.498 252.176 195.502 251.974 194.788 251.569V250.216C195.25 250.45 195.746 250.635 196.273 250.77C196.806 250.904 197.319 250.972 197.811 250.972C198.573 250.972 199.159 250.852 199.569 250.611C199.979 250.365 200.184 249.993 200.184 249.495C200.184 249.12 200.02 248.801 199.692 248.537C199.37 248.268 198.737 247.951 197.793 247.588C196.897 247.254 196.258 246.964 195.877 246.718C195.502 246.466 195.221 246.182 195.034 245.865C194.852 245.549 194.761 245.171 194.761 244.731C194.761 243.946 195.08 243.328 195.719 242.877C196.358 242.42 197.234 242.191 198.347 242.191C199.384 242.191 200.398 242.402 201.388 242.824L200.87 244.011C199.903 243.612 199.027 243.413 198.242 243.413C197.55 243.413 197.029 243.521 196.677 243.738C196.326 243.955 196.15 244.254 196.15 244.635C196.15 244.893 196.214 245.112 196.343 245.294C196.478 245.476 196.692 245.648 196.985 245.812C197.278 245.977 197.84 246.214 198.672 246.524C199.815 246.94 200.585 247.359 200.984 247.781C201.388 248.203 201.59 248.733 201.59 249.372ZM213.007 247.175C213.007 248.745 212.611 249.973 211.82 250.857C211.029 251.736 209.936 252.176 208.542 252.176C207.68 252.176 206.916 251.974 206.248 251.569C205.58 251.165 205.064 250.585 204.701 249.829C204.338 249.073 204.156 248.188 204.156 247.175C204.156 245.604 204.549 244.383 205.334 243.51C206.119 242.631 207.209 242.191 208.603 242.191C209.951 242.191 211.02 242.64 211.811 243.536C212.608 244.433 213.007 245.646 213.007 247.175ZM205.668 247.175C205.668 248.405 205.914 249.343 206.406 249.987C206.898 250.632 207.622 250.954 208.577 250.954C209.532 250.954 210.256 250.635 210.748 249.996C211.246 249.352 211.495 248.411 211.495 247.175C211.495 245.95 211.246 245.021 210.748 244.389C210.256 243.75 209.526 243.431 208.559 243.431C207.604 243.431 206.883 243.744 206.397 244.371C205.911 244.998 205.668 245.933 205.668 247.175ZM217.752 252H216.293V238.324H217.752V252ZM222.937 242.367V248.616C222.937 249.401 223.115 249.987 223.473 250.374C223.83 250.761 224.39 250.954 225.152 250.954C226.159 250.954 226.895 250.679 227.358 250.128C227.826 249.577 228.061 248.678 228.061 247.43V242.367H229.52V252H228.316L228.105 250.708H228.026C227.727 251.183 227.311 251.546 226.778 251.798C226.25 252.05 225.647 252.176 224.967 252.176C223.795 252.176 222.916 251.897 222.33 251.341C221.75 250.784 221.46 249.894 221.46 248.669V242.367H222.937ZM236.454 250.972C236.711 250.972 236.96 250.954 237.201 250.919C237.441 250.878 237.631 250.837 237.772 250.796V251.912C237.614 251.988 237.379 252.05 237.069 252.097C236.764 252.149 236.489 252.176 236.243 252.176C234.379 252.176 233.448 251.194 233.448 249.231V243.501H232.068V242.798L233.448 242.191L234.063 240.135H234.907V242.367H237.702V243.501H234.907V249.17C234.907 249.75 235.044 250.195 235.32 250.506C235.595 250.816 235.973 250.972 236.454 250.972ZM241.885 252H240.426V242.367H241.885V252ZM240.303 239.757C240.303 239.423 240.385 239.18 240.549 239.027C240.713 238.869 240.918 238.79 241.164 238.79C241.398 238.79 241.6 238.869 241.77 239.027C241.94 239.186 242.025 239.429 242.025 239.757C242.025 240.085 241.94 240.331 241.77 240.495C241.6 240.653 241.398 240.732 241.164 240.732C240.918 240.732 240.713 240.653 240.549 240.495C240.385 240.331 240.303 240.085 240.303 239.757ZM254.013 247.175C254.013 248.745 253.617 249.973 252.826 250.857C252.035 251.736 250.942 252.176 249.548 252.176C248.687 252.176 247.922 251.974 247.254 251.569C246.586 251.165 246.07 250.585 245.707 249.829C245.344 249.073 245.162 248.188 245.162 247.175C245.162 245.604 245.555 244.383 246.34 243.51C247.125 242.631 248.215 242.191 249.609 242.191C250.957 242.191 252.026 242.64 252.817 243.536C253.614 244.433 254.013 245.646 254.013 247.175ZM246.674 247.175C246.674 248.405 246.92 249.343 247.412 249.987C247.904 250.632 248.628 250.954 249.583 250.954C250.538 250.954 251.262 250.635 251.754 249.996C252.252 249.352 252.501 248.411 252.501 247.175C252.501 245.95 252.252 245.021 251.754 244.389C251.262 243.75 250.532 243.431 249.566 243.431C248.61 243.431 247.89 243.744 247.403 244.371C246.917 244.998 246.674 245.933 246.674 247.175ZM263.891 252V245.769C263.891 244.983 263.712 244.397 263.355 244.011C262.997 243.624 262.438 243.431 261.676 243.431C260.668 243.431 259.93 243.703 259.461 244.248C258.993 244.793 258.758 245.692 258.758 246.946V252H257.299V242.367H258.486L258.723 243.686H258.793C259.092 243.211 259.511 242.845 260.05 242.587C260.589 242.323 261.19 242.191 261.852 242.191C263.012 242.191 263.885 242.473 264.471 243.035C265.057 243.592 265.35 244.485 265.35 245.716V252H263.891ZM275.29 249.372C275.29 250.269 274.956 250.96 274.288 251.446C273.62 251.933 272.682 252.176 271.475 252.176C270.198 252.176 269.202 251.974 268.487 251.569V250.216C268.95 250.45 269.445 250.635 269.972 250.77C270.505 250.904 271.018 250.972 271.51 250.972C272.272 250.972 272.858 250.852 273.268 250.611C273.678 250.365 273.883 249.993 273.883 249.495C273.883 249.12 273.719 248.801 273.391 248.537C273.069 248.268 272.436 247.951 271.493 247.588C270.596 247.254 269.958 246.964 269.577 246.718C269.202 246.466 268.921 246.182 268.733 245.865C268.551 245.549 268.461 245.171 268.461 244.731C268.461 243.946 268.78 243.328 269.419 242.877C270.057 242.42 270.933 242.191 272.047 242.191C273.084 242.191 274.097 242.402 275.088 242.824L274.569 244.011C273.602 243.612 272.726 243.413 271.941 243.413C271.25 243.413 270.728 243.521 270.377 243.738C270.025 243.955 269.849 244.254 269.849 244.635C269.849 244.893 269.914 245.112 270.043 245.294C270.177 245.476 270.391 245.648 270.684 245.812C270.977 245.977 271.54 246.214 272.372 246.524C273.514 246.94 274.285 247.359 274.683 247.781C275.088 248.203 275.29 248.733 275.29 249.372ZM37.8799 277L36.1133 271.349C36.002 271.003 35.7939 270.218 35.4893 268.993H35.4189C35.1846 270.019 34.9795 270.81 34.8037 271.366L32.9844 277H31.2969L28.6689 267.367H30.1982C30.8193 269.787 31.291 271.63 31.6133 272.896C31.9414 274.161 32.1289 275.014 32.1758 275.453H32.2461C32.3105 275.119 32.4131 274.688 32.5537 274.161C32.7002 273.628 32.8262 273.206 32.9316 272.896L34.6982 267.367H36.2803L38.0029 272.896C38.3311 273.903 38.5537 274.75 38.6709 275.436H38.7412C38.7646 275.225 38.8262 274.899 38.9258 274.46C39.0312 274.021 39.6436 271.656 40.7627 267.367H42.2744L39.6113 277H37.8799ZM51.3352 277V270.769C51.3352 269.983 51.1565 269.397 50.7991 269.011C50.4417 268.624 49.8821 268.431 49.1204 268.431C48.1067 268.431 47.3655 268.706 46.8968 269.257C46.4339 269.808 46.2024 270.71 46.2024 271.964V277H44.7434V263.324H46.2024V267.464C46.2024 267.962 46.179 268.375 46.1321 268.703H46.22C46.5071 268.24 46.9143 267.877 47.4417 267.613C47.9749 267.344 48.5813 267.209 49.261 267.209C50.4388 267.209 51.3206 267.49 51.9065 268.053C52.4983 268.609 52.7942 269.497 52.7942 270.716V277H51.3352ZM57.9791 277H56.5201V267.367H57.9791V277ZM56.397 264.757C56.397 264.423 56.4791 264.18 56.6431 264.027C56.8072 263.869 57.0123 263.79 57.2584 263.79C57.4927 263.79 57.6949 263.869 57.8648 264.027C58.0347 264.186 58.1197 264.429 58.1197 264.757C58.1197 265.085 58.0347 265.331 57.8648 265.495C57.6949 265.653 57.4927 265.732 57.2584 265.732C57.0123 265.732 56.8072 265.653 56.6431 265.495C56.4791 265.331 56.397 265.085 56.397 264.757ZM63.2518 277H61.7928V263.324H63.2518V277ZM71.1349 277.176C69.7111 277.176 68.5861 276.742 67.7599 275.875C66.9396 275.008 66.5294 273.804 66.5294 272.263C66.5294 270.71 66.9103 269.477 67.672 268.562C68.4396 267.648 69.4679 267.191 70.757 267.191C71.964 267.191 72.9191 267.59 73.6222 268.387C74.3253 269.178 74.6769 270.224 74.6769 271.524V272.447H68.0411C68.0704 273.578 68.3546 274.437 68.8937 275.022C69.4386 275.608 70.2032 275.901 71.1876 275.901C72.2247 275.901 73.2501 275.685 74.2638 275.251V276.552C73.7482 276.774 73.2589 276.933 72.796 277.026C72.339 277.126 71.7853 277.176 71.1349 277.176ZM70.7394 268.413C69.9659 268.413 69.3478 268.665 68.8849 269.169C68.4279 269.673 68.1583 270.37 68.0763 271.261H73.1124C73.1124 270.341 72.9073 269.638 72.4972 269.151C72.087 268.659 71.5011 268.413 70.7394 268.413ZM87.1384 277.176C85.7438 277.176 84.6628 276.748 83.8952 275.893C83.1335 275.031 82.7526 273.815 82.7526 272.245C82.7526 270.634 83.1393 269.389 83.9128 268.51C84.6921 267.631 85.7995 267.191 87.235 267.191C87.6979 267.191 88.1608 267.241 88.6237 267.341C89.0866 267.44 89.4499 267.558 89.7136 267.692L89.2653 268.932C88.943 268.803 88.5915 268.697 88.2106 268.615C87.8298 268.527 87.4929 268.483 87.1999 268.483C85.2429 268.483 84.2643 269.731 84.2643 272.228C84.2643 273.411 84.5016 274.319 84.9762 274.952C85.4567 275.585 86.1657 275.901 87.1032 275.901C87.9059 275.901 88.7292 275.729 89.5729 275.383V276.675C88.9284 277.009 88.1169 277.176 87.1384 277.176ZM100.901 272.175C100.901 273.745 100.506 274.973 99.7148 275.857C98.9238 276.736 97.831 277.176 96.4365 277.176C95.5752 277.176 94.8105 276.974 94.1425 276.569C93.4746 276.165 92.9589 275.585 92.5957 274.829C92.2324 274.073 92.0507 273.188 92.0507 272.175C92.0507 270.604 92.4433 269.383 93.2285 268.51C94.0136 267.631 95.1035 267.191 96.498 267.191C97.8457 267.191 98.915 267.64 99.706 268.536C100.503 269.433 100.901 270.646 100.901 272.175ZM93.5625 272.175C93.5625 273.405 93.8086 274.343 94.3007 274.987C94.7929 275.632 95.5166 275.954 96.4716 275.954C97.4267 275.954 98.1504 275.635 98.6425 274.996C99.1406 274.352 99.3896 273.411 99.3896 272.175C99.3896 270.95 99.1406 270.021 98.6425 269.389C98.1504 268.75 97.4209 268.431 96.4541 268.431C95.499 268.431 94.7783 268.744 94.292 269.371C93.8056 269.998 93.5625 270.933 93.5625 272.175ZM116.466 277V270.733C116.466 269.966 116.302 269.392 115.974 269.011C115.646 268.624 115.136 268.431 114.445 268.431C113.536 268.431 112.865 268.691 112.432 269.213C111.998 269.734 111.781 270.537 111.781 271.621V277H110.323V270.733C110.323 269.966 110.158 269.392 109.83 269.011C109.502 268.624 108.989 268.431 108.292 268.431C107.378 268.431 106.707 268.706 106.28 269.257C105.858 269.802 105.647 270.698 105.647 271.946V277H104.188V267.367H105.374L105.612 268.686H105.682C105.957 268.217 106.344 267.851 106.842 267.587C107.346 267.323 107.908 267.191 108.53 267.191C110.035 267.191 111.02 267.736 111.483 268.826H111.553C111.84 268.322 112.256 267.924 112.801 267.631C113.346 267.338 113.967 267.191 114.664 267.191C115.754 267.191 116.569 267.473 117.108 268.035C117.653 268.592 117.925 269.485 117.925 270.716V277H116.466ZM126.142 267.209C127.408 267.209 128.389 267.643 129.086 268.51C129.79 269.371 130.141 270.593 130.141 272.175C130.141 273.757 129.787 274.987 129.078 275.866C128.375 276.739 127.396 277.176 126.142 277.176C125.515 277.176 124.941 277.062 124.419 276.833C123.904 276.599 123.47 276.241 123.119 275.761H123.013L122.706 277H121.66V263.324H123.119V266.646C123.119 267.391 123.095 268.059 123.048 268.65H123.119C123.798 267.689 124.806 267.209 126.142 267.209ZM125.931 268.431C124.935 268.431 124.217 268.718 123.778 269.292C123.338 269.86 123.119 270.821 123.119 272.175C123.119 273.528 123.344 274.498 123.795 275.084C124.247 275.664 124.97 275.954 125.966 275.954C126.863 275.954 127.531 275.629 127.97 274.979C128.41 274.322 128.629 273.382 128.629 272.157C128.629 270.903 128.41 269.969 127.97 269.354C127.531 268.738 126.851 268.431 125.931 268.431ZM134.878 277H133.419V267.367H134.878V277ZM133.296 264.757C133.296 264.423 133.378 264.18 133.542 264.027C133.706 263.869 133.911 263.79 134.157 263.79C134.391 263.79 134.594 263.869 134.763 264.027C134.933 264.186 135.018 264.429 135.018 264.757C135.018 265.085 134.933 265.331 134.763 265.495C134.594 265.653 134.391 265.732 134.157 265.732C133.911 265.732 133.706 265.653 133.542 265.495C133.378 265.331 133.296 265.085 133.296 264.757ZM145.283 277V270.769C145.283 269.983 145.105 269.397 144.747 269.011C144.39 268.624 143.83 268.431 143.068 268.431C142.061 268.431 141.322 268.703 140.854 269.248C140.385 269.793 140.15 270.692 140.15 271.946V277H138.691V267.367H139.878L140.115 268.686H140.186C140.484 268.211 140.903 267.845 141.442 267.587C141.982 267.323 142.582 267.191 143.244 267.191C144.404 267.191 145.277 267.473 145.863 268.035C146.449 268.592 146.742 269.485 146.742 270.716V277H145.283ZM151.927 277H150.468V267.367H151.927V277ZM150.345 264.757C150.345 264.423 150.427 264.18 150.591 264.027C150.755 263.869 150.96 263.79 151.206 263.79C151.441 263.79 151.643 263.869 151.813 264.027C151.983 264.186 152.068 264.429 152.068 264.757C152.068 265.085 151.983 265.331 151.813 265.495C151.643 265.653 151.441 265.732 151.206 265.732C150.96 265.732 150.755 265.653 150.591 265.495C150.427 265.331 150.345 265.085 150.345 264.757ZM162.333 277V270.769C162.333 269.983 162.154 269.397 161.797 269.011C161.439 268.624 160.88 268.431 160.118 268.431C159.11 268.431 158.372 268.703 157.903 269.248C157.434 269.793 157.2 270.692 157.2 271.946V277H155.741V267.367H156.927L157.165 268.686H157.235C157.534 268.211 157.953 267.845 158.492 267.587C159.031 267.323 159.631 267.191 160.294 267.191C161.454 267.191 162.327 267.473 162.913 268.035C163.499 268.592 163.792 269.485 163.792 270.716V277H162.333ZM175.401 267.367V268.29L173.617 268.501C173.781 268.706 173.928 268.976 174.057 269.31C174.185 269.638 174.25 270.01 174.25 270.426C174.25 271.369 173.928 272.122 173.283 272.685C172.639 273.247 171.754 273.528 170.629 273.528C170.342 273.528 170.072 273.505 169.82 273.458C169.199 273.786 168.889 274.199 168.889 274.697C168.889 274.961 168.997 275.157 169.214 275.286C169.431 275.409 169.803 275.471 170.33 275.471H172.035C173.078 275.471 173.878 275.69 174.434 276.13C174.997 276.569 175.278 277.208 175.278 278.046C175.278 279.112 174.851 279.924 173.995 280.48C173.14 281.043 171.892 281.324 170.251 281.324C168.991 281.324 168.018 281.09 167.333 280.621C166.653 280.152 166.313 279.49 166.313 278.635C166.313 278.049 166.501 277.542 166.876 277.114C167.251 276.687 167.778 276.396 168.458 276.244C168.212 276.133 168.004 275.96 167.834 275.726C167.67 275.491 167.588 275.219 167.588 274.908C167.588 274.557 167.682 274.249 167.869 273.985C168.057 273.722 168.352 273.467 168.757 273.221C168.259 273.016 167.851 272.667 167.535 272.175C167.225 271.683 167.069 271.12 167.069 270.487C167.069 269.433 167.386 268.621 168.018 268.053C168.651 267.479 169.548 267.191 170.708 267.191C171.212 267.191 171.666 267.25 172.07 267.367H175.401ZM167.72 278.617C167.72 279.139 167.939 279.534 168.379 279.804C168.818 280.073 169.448 280.208 170.268 280.208C171.493 280.208 172.398 280.023 172.984 279.654C173.576 279.291 173.872 278.796 173.872 278.169C173.872 277.647 173.711 277.284 173.389 277.079C173.066 276.88 172.46 276.78 171.569 276.78H169.82C169.158 276.78 168.643 276.938 168.273 277.255C167.904 277.571 167.72 278.025 167.72 278.617ZM168.511 270.452C168.511 271.126 168.701 271.636 169.082 271.981C169.463 272.327 169.993 272.5 170.673 272.5C172.097 272.5 172.809 271.809 172.809 270.426C172.809 268.979 172.088 268.255 170.646 268.255C169.961 268.255 169.434 268.439 169.064 268.809C168.695 269.178 168.511 269.726 168.511 270.452ZM184.954 277H183.495V267.367H184.954V277ZM183.372 264.757C183.372 264.423 183.454 264.18 183.618 264.027C183.782 263.869 183.987 263.79 184.233 263.79C184.467 263.79 184.669 263.869 184.839 264.027C185.009 264.186 185.094 264.429 185.094 264.757C185.094 265.085 185.009 265.331 184.839 265.495C184.669 265.653 184.467 265.732 184.233 265.732C183.987 265.732 183.782 265.653 183.618 265.495C183.454 265.331 183.372 265.085 183.372 264.757ZM195.324 275.708H195.245C194.571 276.687 193.563 277.176 192.221 277.176C190.962 277.176 189.98 276.745 189.277 275.884C188.58 275.022 188.231 273.798 188.231 272.21C188.231 270.622 188.583 269.389 189.286 268.51C189.989 267.631 190.968 267.191 192.221 267.191C193.528 267.191 194.53 267.666 195.227 268.615H195.342L195.28 267.921L195.245 267.244V263.324H196.704V277H195.517L195.324 275.708ZM192.406 275.954C193.402 275.954 194.123 275.685 194.568 275.146C195.019 274.601 195.245 273.725 195.245 272.518V272.21C195.245 270.845 195.016 269.872 194.559 269.292C194.108 268.706 193.385 268.413 192.388 268.413C191.533 268.413 190.877 268.747 190.42 269.415C189.969 270.077 189.743 271.015 189.743 272.228C189.743 273.458 189.969 274.387 190.42 275.014C190.871 275.641 191.533 275.954 192.406 275.954ZM204.596 277.176C203.172 277.176 202.047 276.742 201.221 275.875C200.4 275.008 199.99 273.804 199.99 272.263C199.99 270.71 200.371 269.477 201.133 268.562C201.9 267.648 202.929 267.191 204.218 267.191C205.425 267.191 206.38 267.59 207.083 268.387C207.786 269.178 208.138 270.224 208.138 271.524V272.447H201.502C201.531 273.578 201.815 274.437 202.355 275.022C202.899 275.608 203.664 275.901 204.648 275.901C205.686 275.901 206.711 275.685 207.725 275.251V276.552C207.209 276.774 206.72 276.933 206.257 277.026C205.8 277.126 205.246 277.176 204.596 277.176ZM204.2 268.413C203.427 268.413 202.809 268.665 202.346 269.169C201.889 269.673 201.619 270.37 201.537 271.261H206.573C206.573 270.341 206.368 269.638 205.958 269.151C205.548 268.659 204.962 268.413 204.2 268.413ZM217.278 277L216.988 275.629H216.917C216.437 276.232 215.956 276.643 215.476 276.859C215.001 277.07 214.407 277.176 213.692 277.176C212.737 277.176 211.987 276.93 211.442 276.438C210.903 275.945 210.633 275.245 210.633 274.337C210.633 272.392 212.189 271.372 215.3 271.278L216.935 271.226V270.628C216.935 269.872 216.771 269.315 216.443 268.958C216.12 268.595 215.602 268.413 214.887 268.413C214.084 268.413 213.176 268.659 212.162 269.151L211.714 268.035C212.189 267.777 212.707 267.575 213.27 267.429C213.838 267.282 214.407 267.209 214.975 267.209C216.123 267.209 216.973 267.464 217.524 267.974C218.08 268.483 218.359 269.301 218.359 270.426V277H217.278ZM213.982 275.972C214.89 275.972 215.602 275.723 216.118 275.225C216.639 274.727 216.9 274.029 216.9 273.133V272.263L215.441 272.324C214.281 272.365 213.443 272.547 212.927 272.869C212.417 273.186 212.162 273.681 212.162 274.354C212.162 274.882 212.321 275.283 212.637 275.559C212.959 275.834 213.408 275.972 213.982 275.972ZM228.307 274.372C228.307 275.269 227.973 275.96 227.305 276.446C226.637 276.933 225.7 277.176 224.493 277.176C223.215 277.176 222.219 276.974 221.504 276.569V275.216C221.967 275.45 222.462 275.635 222.99 275.77C223.523 275.904 224.036 275.972 224.528 275.972C225.29 275.972 225.876 275.852 226.286 275.611C226.696 275.365 226.901 274.993 226.901 274.495C226.901 274.12 226.737 273.801 226.409 273.537C226.087 273.268 225.454 272.951 224.51 272.588C223.614 272.254 222.975 271.964 222.594 271.718C222.219 271.466 221.938 271.182 221.751 270.865C221.569 270.549 221.478 270.171 221.478 269.731C221.478 268.946 221.797 268.328 222.436 267.877C223.075 267.42 223.951 267.191 225.064 267.191C226.101 267.191 227.115 267.402 228.105 267.824L227.587 269.011C226.62 268.612 225.744 268.413 224.959 268.413C224.267 268.413 223.746 268.521 223.394 268.738C223.043 268.955 222.867 269.254 222.867 269.635C222.867 269.893 222.931 270.112 223.06 270.294C223.195 270.476 223.409 270.648 223.702 270.812C223.995 270.977 224.557 271.214 225.389 271.524C226.532 271.94 227.302 272.359 227.701 272.781C228.105 273.203 228.307 273.733 228.307 274.372ZM242.729 277L242.439 275.629H242.368C241.888 276.232 241.407 276.643 240.927 276.859C240.452 277.07 239.858 277.176 239.143 277.176C238.188 277.176 237.438 276.93 236.893 276.438C236.354 275.945 236.084 275.245 236.084 274.337C236.084 272.392 237.64 271.372 240.751 271.278L242.386 271.226V270.628C242.386 269.872 242.222 269.315 241.894 268.958C241.571 268.595 241.053 268.413 240.338 268.413C239.535 268.413 238.627 268.659 237.613 269.151L237.165 268.035C237.64 267.777 238.158 267.575 238.721 267.429C239.289 267.282 239.858 267.209 240.426 267.209C241.574 267.209 242.424 267.464 242.975 267.974C243.531 268.483 243.81 269.301 243.81 270.426V277H242.729ZM239.433 275.972C240.341 275.972 241.053 275.723 241.569 275.225C242.09 274.727 242.351 274.029 242.351 273.133V272.263L240.892 272.324C239.732 272.365 238.894 272.547 238.378 272.869C237.868 273.186 237.613 273.681 237.613 274.354C237.613 274.882 237.772 275.283 238.088 275.559C238.41 275.834 238.859 275.972 239.433 275.972ZM254.136 277V270.769C254.136 269.983 253.957 269.397 253.6 269.011C253.243 268.624 252.683 268.431 251.921 268.431C250.914 268.431 250.175 268.703 249.706 269.248C249.238 269.793 249.003 270.692 249.003 271.946V277H247.544V267.367H248.731L248.968 268.686H249.039C249.337 268.211 249.756 267.845 250.295 267.587C250.834 267.323 251.435 267.191 252.097 267.191C253.257 267.191 254.13 267.473 254.716 268.035C255.302 268.592 255.595 269.485 255.595 270.716V277H254.136ZM265.878 275.708H265.799C265.125 276.687 264.117 277.176 262.775 277.176C261.515 277.176 260.534 276.745 259.831 275.884C259.134 275.022 258.785 273.798 258.785 272.21C258.785 270.622 259.136 269.389 259.84 268.51C260.543 267.631 261.521 267.191 262.775 267.191C264.082 267.191 265.084 267.666 265.781 268.615H265.895L265.834 267.921L265.799 267.244V263.324H267.258V277H266.071L265.878 275.708ZM262.96 275.954C263.956 275.954 264.676 275.685 265.122 275.146C265.573 274.601 265.799 273.725 265.799 272.518V272.21C265.799 270.845 265.57 269.872 265.113 269.292C264.662 268.706 263.938 268.413 262.942 268.413C262.087 268.413 261.43 268.747 260.973 269.415C260.522 270.077 260.297 271.015 260.297 272.228C260.297 273.458 260.522 274.387 260.973 275.014C261.425 275.641 262.087 275.954 262.96 275.954ZM23.4672 302.176C22.0727 302.176 20.9916 301.748 20.2241 300.893C19.4623 300.031 19.0815 298.815 19.0815 297.245C19.0815 295.634 19.4682 294.389 20.2416 293.51C21.0209 292.631 22.1284 292.191 23.5639 292.191C24.0268 292.191 24.4897 292.241 24.9526 292.341C25.4155 292.44 25.7787 292.558 26.0424 292.692L25.5942 293.932C25.2719 293.803 24.9203 293.697 24.5395 293.615C24.1586 293.527 23.8217 293.483 23.5287 293.483C21.5717 293.483 20.5932 294.731 20.5932 297.228C20.5932 298.411 20.8305 299.319 21.3051 299.952C21.7856 300.585 22.4946 300.901 23.4321 300.901C24.2348 300.901 25.058 300.729 25.9018 300.383V301.675C25.2573 302.009 24.4457 302.176 23.4672 302.176ZM37.2302 297.175C37.2302 298.745 36.8347 299.973 36.0437 300.857C35.2527 301.736 34.1599 302.176 32.7654 302.176C31.904 302.176 31.1394 301.974 30.4714 301.569C29.8034 301.165 29.2878 300.585 28.9245 299.829C28.5612 299.073 28.3796 298.188 28.3796 297.175C28.3796 295.604 28.7722 294.383 29.5573 293.51C30.3425 292.631 31.4323 292.191 32.8269 292.191C34.1745 292.191 35.2439 292.64 36.0349 293.536C36.8318 294.433 37.2302 295.646 37.2302 297.175ZM29.8913 297.175C29.8913 298.405 30.1374 299.343 30.6296 299.987C31.1218 300.632 31.8454 300.954 32.8005 300.954C33.7556 300.954 34.4792 300.635 34.9714 299.996C35.4695 299.352 35.7185 298.411 35.7185 297.175C35.7185 295.95 35.4695 295.021 34.9714 294.389C34.4792 293.75 33.7497 293.431 32.7829 293.431C31.8279 293.431 31.1071 293.744 30.6208 294.371C30.1345 294.998 29.8913 295.933 29.8913 297.175ZM41.9756 302H40.5166V288.324H41.9756V302ZM47.2483 302H45.7893V288.324H47.2483V302ZM56.9859 302L56.6959 300.629H56.6255C56.1451 301.232 55.6646 301.643 55.1841 301.859C54.7095 302.07 54.1148 302.176 53.4 302.176C52.4449 302.176 51.6949 301.93 51.15 301.438C50.6109 300.945 50.3414 300.245 50.3414 299.337C50.3414 297.392 51.897 296.372 55.0084 296.278L56.6431 296.226V295.628C56.6431 294.872 56.4791 294.315 56.1509 293.958C55.8287 293.595 55.3101 293.413 54.5953 293.413C53.7925 293.413 52.8843 293.659 51.8707 294.151L51.4224 293.035C51.897 292.777 52.4156 292.575 52.9781 292.429C53.5464 292.282 54.1148 292.209 54.6832 292.209C55.8316 292.209 56.6812 292.464 57.232 292.974C57.7886 293.483 58.067 294.301 58.067 295.426V302H56.9859ZM53.69 300.972C54.5982 300.972 55.3101 300.723 55.8257 300.225C56.3472 299.727 56.608 299.029 56.608 298.133V297.263L55.149 297.324C53.9888 297.365 53.1509 297.547 52.6353 297.869C52.1255 298.186 51.8707 298.681 51.8707 299.354C51.8707 299.882 52.0289 300.283 52.3453 300.559C52.6675 300.834 53.1158 300.972 53.69 300.972ZM66.284 292.209C67.5496 292.209 68.5311 292.643 69.2284 293.51C69.9315 294.371 70.283 295.593 70.283 297.175C70.283 298.757 69.9286 299.987 69.2196 300.866C68.5164 301.739 67.5379 302.176 66.284 302.176C65.6571 302.176 65.0828 302.062 64.5614 301.833C64.0457 301.599 63.6121 301.241 63.2606 300.761H63.1551L62.8475 302H61.8016V288.324H63.2606V291.646C63.2606 292.391 63.2371 293.059 63.1903 293.65H63.2606C63.9403 292.689 64.9481 292.209 66.284 292.209ZM66.0731 293.431C65.077 293.431 64.3592 293.718 63.9198 294.292C63.4803 294.86 63.2606 295.821 63.2606 297.175C63.2606 298.528 63.4862 299.498 63.9373 300.084C64.3885 300.664 65.1121 300.954 66.1082 300.954C67.0047 300.954 67.6727 300.629 68.1121 299.979C68.5516 299.322 68.7713 298.382 68.7713 297.157C68.7713 295.903 68.5516 294.969 68.1121 294.354C67.6727 293.738 66.993 293.431 66.0731 293.431ZM81.8751 297.175C81.8751 298.745 81.4796 299.973 80.6886 300.857C79.8976 301.736 78.8048 302.176 77.4103 302.176C76.5489 302.176 75.7843 301.974 75.1163 301.569C74.4484 301.165 73.9327 300.585 73.5695 299.829C73.2062 299.073 73.0245 298.188 73.0245 297.175C73.0245 295.604 73.4171 294.383 74.2023 293.51C74.9874 292.631 76.0773 292.191 77.4718 292.191C78.8195 292.191 79.8888 292.64 80.6798 293.536C81.4767 294.433 81.8751 295.646 81.8751 297.175ZM74.5362 297.175C74.5362 298.405 74.7823 299.343 75.2745 299.987C75.7667 300.632 76.4903 300.954 77.4454 300.954C78.4005 300.954 79.1241 300.635 79.6163 299.996C80.1144 299.352 80.3634 298.411 80.3634 297.175C80.3634 295.95 80.1144 295.021 79.6163 294.389C79.1241 293.75 78.3946 293.431 77.4278 293.431C76.4728 293.431 75.7521 293.744 75.2657 294.371C74.7794 294.998 74.5362 295.933 74.5362 297.175ZM89.5561 292.191C89.9838 292.191 90.3676 292.227 90.7074 292.297L90.5053 293.65C90.1068 293.562 89.7553 293.519 89.4506 293.519C88.6713 293.519 88.0033 293.835 87.4467 294.468C86.8959 295.101 86.6205 295.889 86.6205 296.832V302H85.1615V292.367H86.3656L86.5326 294.151H86.6029C86.9604 293.524 87.391 293.041 87.8949 292.701C88.3988 292.361 88.9525 292.191 89.5561 292.191ZM99.153 302L98.863 300.629H98.7927C98.3122 301.232 97.8317 301.643 97.3512 301.859C96.8766 302.07 96.2819 302.176 95.5671 302.176C94.612 302.176 93.862 301.93 93.3171 301.438C92.778 300.945 92.5085 300.245 92.5085 299.337C92.5085 297.392 94.0641 296.372 97.1755 296.278L98.8102 296.226V295.628C98.8102 294.872 98.6462 294.315 98.318 293.958C97.9958 293.595 97.4772 293.413 96.7624 293.413C95.9596 293.413 95.0514 293.659 94.0378 294.151L93.5895 293.035C94.0641 292.777 94.5827 292.575 95.1452 292.429C95.7136 292.282 96.2819 292.209 96.8503 292.209C97.9987 292.209 98.8483 292.464 99.3991 292.974C99.9557 293.483 100.234 294.301 100.234 295.426V302H99.153ZM95.8571 300.972C96.7653 300.972 97.4772 300.723 97.9929 300.225C98.5143 299.727 98.7751 299.029 98.7751 298.133V297.263L97.3161 297.324C96.1559 297.365 95.318 297.547 94.8024 297.869C94.2927 298.186 94.0378 298.681 94.0378 299.354C94.0378 299.882 94.196 300.283 94.5124 300.559C94.8346 300.834 95.2829 300.972 95.8571 300.972ZM107.08 300.972C107.338 300.972 107.587 300.954 107.827 300.919C108.067 300.878 108.258 300.837 108.398 300.796V301.912C108.24 301.988 108.006 302.05 107.695 302.097C107.391 302.149 107.115 302.176 106.869 302.176C105.006 302.176 104.074 301.194 104.074 299.231V293.501H102.694V292.798L104.074 292.191L104.689 290.135H105.533V292.367H108.328V293.501H105.533V299.17C105.533 299.75 105.671 300.195 105.946 300.506C106.222 300.816 106.6 300.972 107.08 300.972ZM112.511 302H111.052V292.367H112.511V302ZM110.929 289.757C110.929 289.423 111.011 289.18 111.175 289.027C111.339 288.869 111.544 288.79 111.79 288.79C112.025 288.79 112.227 288.869 112.397 289.027C112.567 289.186 112.652 289.429 112.652 289.757C112.652 290.085 112.567 290.331 112.397 290.495C112.227 290.653 112.025 290.732 111.79 290.732C111.544 290.732 111.339 290.653 111.175 290.495C111.011 290.331 110.929 290.085 110.929 289.757ZM122.917 302V295.769C122.917 294.983 122.738 294.397 122.38 294.011C122.023 293.624 121.463 293.431 120.702 293.431C119.694 293.431 118.956 293.703 118.487 294.248C118.018 294.793 117.784 295.692 117.784 296.946V302H116.325V292.367H117.511L117.749 293.686H117.819C118.118 293.211 118.537 292.845 119.076 292.587C119.615 292.323 120.215 292.191 120.877 292.191C122.038 292.191 122.911 292.473 123.497 293.035C124.083 293.592 124.376 294.485 124.376 295.716V302H122.917ZM135.985 292.367V293.29L134.201 293.501C134.365 293.706 134.512 293.976 134.64 294.31C134.769 294.638 134.834 295.01 134.834 295.426C134.834 296.369 134.512 297.122 133.867 297.685C133.222 298.247 132.338 298.528 131.213 298.528C130.926 298.528 130.656 298.505 130.404 298.458C129.783 298.786 129.472 299.199 129.472 299.697C129.472 299.961 129.581 300.157 129.798 300.286C130.014 300.409 130.387 300.471 130.914 300.471H132.619C133.662 300.471 134.462 300.69 135.018 301.13C135.581 301.569 135.862 302.208 135.862 303.046C135.862 304.112 135.434 304.924 134.579 305.48C133.723 306.043 132.475 306.324 130.835 306.324C129.575 306.324 128.602 306.09 127.917 305.621C127.237 305.152 126.897 304.49 126.897 303.635C126.897 303.049 127.085 302.542 127.46 302.114C127.835 301.687 128.362 301.396 129.042 301.244C128.796 301.133 128.588 300.96 128.418 300.726C128.254 300.491 128.172 300.219 128.172 299.908C128.172 299.557 128.265 299.249 128.453 298.985C128.64 298.722 128.936 298.467 129.341 298.221C128.843 298.016 128.435 297.667 128.119 297.175C127.808 296.683 127.653 296.12 127.653 295.487C127.653 294.433 127.97 293.621 128.602 293.053C129.235 292.479 130.132 292.191 131.292 292.191C131.796 292.191 132.25 292.25 132.654 292.367H135.985ZM128.304 303.617C128.304 304.139 128.523 304.534 128.963 304.804C129.402 305.073 130.032 305.208 130.852 305.208C132.077 305.208 132.982 305.023 133.568 304.654C134.16 304.291 134.456 303.796 134.456 303.169C134.456 302.647 134.295 302.284 133.972 302.079C133.65 301.88 133.044 301.78 132.153 301.78H130.404C129.742 301.78 129.226 301.938 128.857 302.255C128.488 302.571 128.304 303.025 128.304 303.617ZM129.095 295.452C129.095 296.126 129.285 296.636 129.666 296.981C130.047 297.327 130.577 297.5 131.257 297.5C132.68 297.5 133.392 296.809 133.392 295.426C133.392 293.979 132.672 293.255 131.23 293.255C130.545 293.255 130.017 293.439 129.648 293.809C129.279 294.178 129.095 294.726 129.095 295.452ZM145.537 302H144.078V292.367H145.537V302ZM143.955 289.757C143.955 289.423 144.037 289.18 144.202 289.027C144.366 288.869 144.571 288.79 144.817 288.79C145.051 288.79 145.253 288.869 145.423 289.027C145.593 289.186 145.678 289.429 145.678 289.757C145.678 290.085 145.593 290.331 145.423 290.495C145.253 290.653 145.051 290.732 144.817 290.732C144.571 290.732 144.366 290.653 144.202 290.495C144.037 290.331 143.955 290.085 143.955 289.757ZM155.943 302V295.769C155.943 294.983 155.764 294.397 155.407 294.011C155.049 293.624 154.49 293.431 153.728 293.431C152.72 293.431 151.982 293.703 151.513 294.248C151.045 294.793 150.81 295.692 150.81 296.946V302H149.351V292.367H150.538L150.775 293.686H150.845C151.144 293.211 151.563 292.845 152.102 292.587C152.641 292.323 153.242 292.191 153.904 292.191C155.064 292.191 155.937 292.473 156.523 293.035C157.109 293.592 157.402 294.485 157.402 295.716V302H155.943ZM172.447 302L172.157 300.629H172.087C171.607 301.232 171.126 301.643 170.646 301.859C170.171 302.07 169.576 302.176 168.862 302.176C167.906 302.176 167.156 301.93 166.612 301.438C166.072 300.945 165.803 300.245 165.803 299.337C165.803 297.392 167.359 296.372 170.47 296.278L172.105 296.226V295.628C172.105 294.872 171.941 294.315 171.613 293.958C171.29 293.595 170.772 293.413 170.057 293.413C169.254 293.413 168.346 293.659 167.332 294.151L166.884 293.035C167.359 292.777 167.877 292.575 168.44 292.429C169.008 292.282 169.576 292.209 170.145 292.209C171.293 292.209 172.143 292.464 172.694 292.974C173.25 293.483 173.529 294.301 173.529 295.426V302H172.447ZM169.152 300.972C170.06 300.972 170.772 300.723 171.287 300.225C171.809 299.727 172.07 299.029 172.07 298.133V297.263L170.611 297.324C169.45 297.365 168.613 297.547 168.097 297.869C167.587 298.186 167.332 298.681 167.332 299.354C167.332 299.882 167.49 300.283 167.807 300.559C168.129 300.834 168.577 300.972 169.152 300.972ZM190.543 292.367V293.29L188.759 293.501C188.923 293.706 189.069 293.976 189.198 294.31C189.327 294.638 189.391 295.01 189.391 295.426C189.391 296.369 189.069 297.122 188.425 297.685C187.78 298.247 186.895 298.528 185.77 298.528C185.483 298.528 185.214 298.505 184.962 298.458C184.341 298.786 184.03 299.199 184.03 299.697C184.03 299.961 184.138 300.157 184.355 300.286C184.572 300.409 184.944 300.471 185.471 300.471H187.177C188.219 300.471 189.019 300.69 189.576 301.13C190.138 301.569 190.42 302.208 190.42 303.046C190.42 304.112 189.992 304.924 189.136 305.48C188.281 306.043 187.033 306.324 185.392 306.324C184.133 306.324 183.16 306.09 182.474 305.621C181.795 305.152 181.455 304.49 181.455 303.635C181.455 303.049 181.642 302.542 182.017 302.114C182.392 301.687 182.92 301.396 183.599 301.244C183.353 301.133 183.145 300.96 182.975 300.726C182.811 300.491 182.729 300.219 182.729 299.908C182.729 299.557 182.823 299.249 183.011 298.985C183.198 298.722 183.494 298.467 183.898 298.221C183.4 298.016 182.993 297.667 182.677 297.175C182.366 296.683 182.211 296.12 182.211 295.487C182.211 294.433 182.527 293.621 183.16 293.053C183.793 292.479 184.689 292.191 185.849 292.191C186.353 292.191 186.807 292.25 187.212 292.367H190.543ZM182.861 303.617C182.861 304.139 183.081 304.534 183.52 304.804C183.96 305.073 184.59 305.208 185.41 305.208C186.635 305.208 187.54 305.023 188.126 304.654C188.718 304.291 189.013 303.796 189.013 303.169C189.013 302.647 188.852 302.284 188.53 302.079C188.208 301.88 187.601 301.78 186.711 301.78H184.962C184.3 301.78 183.784 301.938 183.415 302.255C183.046 302.571 182.861 303.025 182.861 303.617ZM183.652 295.452C183.652 296.126 183.843 296.636 184.223 296.981C184.604 297.327 185.135 297.5 185.814 297.5C187.238 297.5 187.95 296.809 187.95 295.426C187.95 293.979 187.229 293.255 185.788 293.255C185.102 293.255 184.575 293.439 184.206 293.809C183.837 294.178 183.652 294.726 183.652 295.452ZM197.635 292.191C198.063 292.191 198.446 292.227 198.786 292.297L198.584 293.65C198.186 293.562 197.834 293.519 197.529 293.519C196.75 293.519 196.082 293.835 195.525 294.468C194.975 295.101 194.699 295.889 194.699 296.832V302H193.24V292.367H194.444L194.611 294.151H194.682C195.039 293.524 195.47 293.041 195.974 292.701C196.478 292.361 197.031 292.191 197.635 292.191ZM209.622 297.175C209.622 298.745 209.227 299.973 208.436 300.857C207.645 301.736 206.552 302.176 205.158 302.176C204.296 302.176 203.532 301.974 202.864 301.569C202.196 301.165 201.68 300.585 201.317 299.829C200.953 299.073 200.772 298.188 200.772 297.175C200.772 295.604 201.164 294.383 201.95 293.51C202.735 292.631 203.825 292.191 205.219 292.191C206.567 292.191 207.636 292.64 208.427 293.536C209.224 294.433 209.622 295.646 209.622 297.175ZM202.284 297.175C202.284 298.405 202.53 299.343 203.022 299.987C203.514 300.632 204.238 300.954 205.193 300.954C206.148 300.954 206.871 300.635 207.364 299.996C207.862 299.352 208.111 298.411 208.111 297.175C208.111 295.95 207.862 295.021 207.364 294.389C206.871 293.75 206.142 293.431 205.175 293.431C204.22 293.431 203.499 293.744 203.013 294.371C202.527 294.998 202.284 295.933 202.284 297.175ZM214.28 292.367V298.616C214.28 299.401 214.459 299.987 214.816 300.374C215.173 300.761 215.733 300.954 216.495 300.954C217.503 300.954 218.238 300.679 218.701 300.128C219.17 299.577 219.404 298.678 219.404 297.43V292.367H220.863V302H219.659L219.448 300.708H219.369C219.07 301.183 218.654 301.546 218.121 301.798C217.593 302.05 216.99 302.176 216.31 302.176C215.138 302.176 214.259 301.897 213.673 301.341C213.093 300.784 212.803 299.894 212.803 298.669V292.367H214.28ZM229.168 302.176C228.541 302.176 227.967 302.062 227.445 301.833C226.93 301.599 226.496 301.241 226.144 300.761H226.039C226.109 301.323 226.144 301.856 226.144 302.36V306.324H224.685V292.367H225.872L226.074 293.686H226.144C226.519 293.158 226.956 292.777 227.454 292.543C227.952 292.309 228.523 292.191 229.168 292.191C230.445 292.191 231.43 292.628 232.121 293.501C232.818 294.374 233.167 295.599 233.167 297.175C233.167 298.757 232.812 299.987 232.103 300.866C231.4 301.739 230.422 302.176 229.168 302.176ZM228.957 293.431C227.973 293.431 227.261 293.703 226.821 294.248C226.382 294.793 226.156 295.66 226.144 296.85V297.175C226.144 298.528 226.37 299.498 226.821 300.084C227.272 300.664 227.996 300.954 228.992 300.954C229.824 300.954 230.474 300.617 230.943 299.943C231.418 299.27 231.655 298.341 231.655 297.157C231.655 295.956 231.418 295.036 230.943 294.397C230.474 293.753 229.812 293.431 228.957 293.431ZM250.155 297.175C250.155 298.745 249.759 299.973 248.968 300.857C248.177 301.736 247.084 302.176 245.69 302.176C244.829 302.176 244.064 301.974 243.396 301.569C242.728 301.165 242.212 300.585 241.849 299.829C241.486 299.073 241.304 298.188 241.304 297.175C241.304 295.604 241.697 294.383 242.482 293.51C243.267 292.631 244.357 292.191 245.751 292.191C247.099 292.191 248.168 292.64 248.959 293.536C249.756 294.433 250.155 295.646 250.155 297.175ZM242.816 297.175C242.816 298.405 243.062 299.343 243.554 299.987C244.046 300.632 244.77 300.954 245.725 300.954C246.68 300.954 247.404 300.635 247.896 299.996C248.394 299.352 248.643 298.411 248.643 297.175C248.643 295.95 248.394 295.021 247.896 294.389C247.404 293.75 246.674 293.431 245.707 293.431C244.752 293.431 244.032 293.744 243.545 294.371C243.059 294.998 242.816 295.933 242.816 297.175ZM257.783 293.501H255.331V302H253.872V293.501H252.149V292.842L253.872 292.314V291.778C253.872 289.411 254.906 288.228 256.974 288.228C257.484 288.228 258.082 288.33 258.767 288.535L258.389 289.704C257.827 289.522 257.346 289.432 256.948 289.432C256.397 289.432 255.99 289.616 255.726 289.985C255.463 290.349 255.331 290.935 255.331 291.743V292.367H257.783V293.501ZM272.951 292.174C272.951 292.994 272.72 293.665 272.257 294.187C271.8 294.708 271.15 295.057 270.306 295.232V295.303C271.337 295.432 272.102 295.76 272.6 296.287C273.098 296.814 273.347 297.506 273.347 298.361C273.347 299.586 272.922 300.529 272.073 301.191C271.223 301.848 270.016 302.176 268.451 302.176C267.772 302.176 267.148 302.123 266.579 302.018C266.017 301.918 265.469 301.739 264.936 301.481V300.093C265.492 300.368 266.084 300.579 266.711 300.726C267.344 300.866 267.942 300.937 268.504 300.937C270.725 300.937 271.835 300.066 271.835 298.326C271.835 296.768 270.611 295.988 268.161 295.988H266.896V294.731H268.179C269.181 294.731 269.975 294.512 270.561 294.072C271.147 293.627 271.44 293.012 271.44 292.227C271.44 291.6 271.223 291.107 270.789 290.75C270.362 290.393 269.779 290.214 269.04 290.214C268.478 290.214 267.948 290.29 267.449 290.442C266.951 290.595 266.383 290.876 265.744 291.286L265.006 290.302C265.533 289.886 266.14 289.561 266.825 289.326C267.517 289.086 268.243 288.966 269.005 288.966C270.253 288.966 271.223 289.253 271.914 289.827C272.606 290.396 272.951 291.178 272.951 292.174ZM276.466 301.068C276.466 300.676 276.554 300.38 276.73 300.181C276.912 299.976 277.169 299.873 277.503 299.873C277.843 299.873 278.107 299.976 278.294 300.181C278.488 300.38 278.585 300.676 278.585 301.068C278.585 301.449 278.488 301.742 278.294 301.947C278.101 302.152 277.837 302.255 277.503 302.255C277.205 302.255 276.956 302.164 276.756 301.982C276.563 301.795 276.466 301.49 276.466 301.068Z" fill="#3D5A80"/>
<circle cx="140.5" cy="93.5" r="93.5" fill="#98C1D9"/>
<circle cx="140.946" cy="131.858" r="13.0069" fill="#FAFBFF" stroke="#3D5A80" stroke-width="5"/>
<path fill-rule="evenodd" clip-rule="evenodd" d="M159.684 102.323C171.26 95.739 179.068 83.2925 179.068 69.0225C179.068 47.8795 161.928 30.7397 140.785 30.7397C119.642 30.7397 102.502 47.8795 102.502 69.0225C102.502 83.2921 110.31 95.7382 121.886 102.322V124.751H159.684V102.323Z" fill="#3D5A80"/>
<rect x="120.509" y="121.435" width="40.5516" height="10.83" fill="#FAFBFF" stroke="#3D5A80" stroke-width="5"/>
<path d="M193.154 92.0825C197.568 94.3784 201.677 96.1275 206.212 97.639" stroke="#EAF0FF" stroke-width="5" stroke-linecap="round" stroke-linejoin="round"/>
<path d="M93.1475 66.7881C88.2524 65.8971 83.8103 65.4384 79.0316 65.3324" stroke="#EAF0FF" stroke-width="5" stroke-linecap="round" stroke-linejoin="round"/>
<path d="M198.155 69.8563C203.568 69.0086 208.953 68.1292 214.269 66.8003" stroke="#EAF0FF" stroke-width="5" stroke-linecap="round" stroke-linejoin="round"/>
<path d="M94.9282 89.5C90.0072 91.907 85.1207 94.3367 80.434 97.175" stroke="#EAF0FF" stroke-width="5" stroke-linecap="round" stroke-linejoin="round"/>
<path d="M171.207 57.6323C173.184 66.7628 174.232 73.5065 168.83 81.3707C166.341 84.9938 163.624 88.3042 160.649 91.5267" stroke="#EAF0FF" stroke-width="5" stroke-linecap="round" stroke-linejoin="round"/>
<path d="M132.589 110.141C132.589 108.104 132.589 106.066 132.589 104.029" stroke="#EAF0FF" stroke-width="5" stroke-linecap="round" stroke-linejoin="round"/>
</svg>
